<?xml version="1.0" standalone="no"?>
<!DOCTYPE svg PUBLIC "-//W3C//DTD SVG 1.1//EN" "http://www.w3.org/Graphics/SVG/1.1/DTD/svg11.dtd" >
<svg xmlns="http://www.w3.org/2000/svg">
<metadata>
Created by FontPrep 20130207 at Mon Dec 15 10:34:45 2014
 By Rogerson, John (GE Global Research)
Designed by Paul van der Laan, Pieter van Rosmalen &#38; Mike Abbink 2013. Produced by Bold Monday. FOR EXCLUSIVE USE BY GENERAL ELECTRIC COMPANY AND ITS AFFILIATES ONLY.
</metadata>
<defs>
<font id="38504207236baea65d03b9895c7794eb" horiz-adv-x='1024' >
  <font-face 
    font-family="GEInspiraSerif-BoldItalic"
    font-weight="700"
    font-style="italic"
    font-stretch="normal"
    units-per-em="2048"
    panose-1="2 6 8 2 7 0 0 0 0 3"
    ascent="1577"
    descent="-471"
    x-height="1004"
    cap-height="1356"
    bbox="-479 -461.048 2527.01 2030"
    underline-thickness="139"
    underline-position="-37"
    slope="-9"
    unicode-range="U+0020-FB02"
  />
<missing-glyph horiz-adv-x="487" 
d="M348 -389h-209q-37 0 -37 37v1810q0 37 37 37h209q37 0 37 -37v-1810q0 -37 -37 -37z" />
    <glyph glyph-name="f_b" unicode="fb" horiz-adv-x="1832" 
d="M-344 -251q0 79 41 120t98 41t91 -32t34 -77q0 -72 -67 -112q20 -12 55 -13q156 0 198 273l146 925h-129q-37 0 -31 37l8 56q6 37 43 37h127l15 86q35 226 163 336t308 110q182 0 282 -66l176 54q16 4 24 -3t5 -24l-94 -614q109 141 282 141t259 -117t86 -284t-58 -309
t-184 -238q-125 -96 -289 -96t-262 106l-57 -59q-27 -27 -62 -27h-104q-37 0 -31 37l207 1333q-49 45 -145 45q-170 0 -209 -258l-25 -153h180q37 0 31 -37l-8 -56q-6 -37 -43 -37h-180l-134 -858q-35 -227 -159 -337t-307 -109q-133 0 -207 50t-74 129zM1190 139
q86 0 143 50t87 128q59 153 61 312q0 227 -152 227q-75 0 -141 -68t-92 -233l-58 -350q66 -66 152 -66z" />
    <glyph glyph-name="f_f" unicode="ff" horiz-adv-x="1325" 
d="M-344 -251q0 79 41 120t98 41t91 -32t34 -77q0 -72 -67 -112q20 -12 55 -13q156 0 198 273l144 925h-127q-37 0 -31 37l8 56q6 37 43 37h127l11 65q35 225 162 336q128 111 318 111t275 -103q125 123 326 123q133 0 210 -54t77 -134t-41 -120q-40 -40 -98 -40t-92 32
t-34 76q0 72 70 115q-27 16 -63 16q-72 0 -128 -63t-77 -207l-25 -153h180q37 0 31 -37l-8 -56q-6 -37 -43 -37h-178l-135 -864q-33 -216 -149 -324t-271 -108q-119 0 -177 50q-59 50 -59 114t35 99q35 36 86 36q100 0 100 -88q0 -63 -69 -94q23 -14 61 -14q104 0 137 208
l154 985h-319l-134 -858q-35 -227 -159 -337t-307 -109q-133 0 -207 50t-74 129zM786 1395q-168 0 -208 -258l-21 -133h317l15 86q16 117 67 215q-43 90 -170 90z" />
    <glyph glyph-name="f_h" unicode="fh" horiz-adv-x="1855" 
d="M1430 1024q182 0 246 -106t38 -275l-61 -385q-6 -47 -6 -59q0 -45 43 -45q26 0 58 18t48 -8l21 -31q27 -37 -23 -78q-88 -76 -221 -75q-213 0 -213 192q0 39 18 150l52 327q33 209 -105 209q-73 0 -139 -68t-92 -243l-78 -510q-6 -37 -43 -37h-215q-37 0 -31 37l209 1333
q-49 45 -145 45q-170 0 -209 -258l-25 -153h180q37 0 31 -37l-8 -56q-6 -37 -43 -37h-180l-134 -858q-35 -227 -159 -337t-307 -109q-133 0 -207 50t-74 129t41 120t98 41t91 -32t34 -77q0 -72 -67 -112q20 -12 55 -13q156 0 198 273l146 925h-129q-37 0 -31 37l8 56
q6 37 43 37h127l15 86q35 226 163 336t308 110q182 0 282 -66l176 54q16 4 24 -3t5 -24l-98 -629q103 156 285 156z" />
    <glyph glyph-name="f_i" unicode="fi" horiz-adv-x="1267" 
d="M1085 154q27 0 59 18t48 -8l16 -25q14 -19 14 -37t-32 -47q-88 -76 -221 -75q-213 0 -213 192q0 51 16 150l86 552h-321l-134 -858q-35 -227 -159 -337t-307 -109q-133 0 -207 50t-74 129t41 120t98 41t91 -32t34 -77q0 -72 -67 -112q20 -12 55 -13q156 0 198 273
l146 925h-129q-37 0 -31 37l8 56q6 37 43 37h127l15 86q35 222 187 334t334 112t286 -57t104 -158q0 -74 -44 -120t-112 -46t-104 36q-37 37 -37 101t70 103q-51 20 -117 20q-231 0 -270 -258l-25 -153h449l124 8q18 2 26 -7t5 -28l-112 -719q-6 -45 -7 -59q0 -45 43 -45z
" />
    <glyph glyph-name="f_j" unicode="fj" horiz-adv-x="1230" 
d="M592 -422q-119 0 -177 50q-59 50 -59 114t35 99q35 36 86 36q100 0 101 -88q0 -63 -70 -94q23 -14 61 -14q104 0 138 213l151 980h-321l-131 -843q-35 -229 -161 -345t-308 -116q-133 0 -207 50t-74 129t41 120t98 41t91 -32t34 -77q0 -72 -67 -112q20 -12 55 -13
q156 0 198 273l146 925h-129q-37 0 -31 37l8 56q6 37 43 37h127l15 86q35 222 187 334t334 112t286 -57t104 -158q0 -74 -44 -120t-112 -46t-104 36q-37 37 -37 101t70 103q-51 20 -117 20q-231 0 -270 -258l-25 -153h449l124 8q18 2 26 -7t5 -28l-149 -961
q-33 -218 -150 -328t-270 -110z" />
    <glyph glyph-name="f_k" unicode="fk" horiz-adv-x="1826" 
d="M1466 739q0 121 -96 121t-178 -105t-107 -261l-71 -457q-6 -37 -43 -37h-213q-37 0 -31 37l209 1333q-49 45 -145 45q-170 0 -209 -258l-25 -153h180q37 0 31 -37l-8 -56q-6 -37 -43 -37h-180l-134 -858q-35 -227 -159 -337t-307 -109q-133 0 -207 50t-74 129t41 120
t98 41t91 -32t34 -77q0 -72 -67 -112q20 -12 55 -13q156 0 198 273l146 925h-129q-37 0 -31 37l8 56q6 37 43 37h127l15 86q35 226 163 336t308 110q182 0 282 -66l176 54q16 4 24 -3t5 -24l-104 -672q133 199 350 199q133 0 201 -68t68 -190t-91 -211q-90 -88 -227 -119
l129 -213q33 -54 49 -62q16 -7 34 -7t42 15q25 15 39 -7l20 -33q11 -17 11 -33t-27 -43q-78 -74 -209 -73q-90 0 -146 38q-55 39 -98 134l-104 225q-14 33 -11 61l5 29q6 31 40 33q129 8 191 75q61 68 61 164z" />
    <glyph glyph-name="f_l" unicode="fl" horiz-adv-x="1267" 
d="M1241 1503q0 -16 -14 -106l-178 -1139q-6 -45 -7 -59q0 -45 43 -45q27 0 59 18t48 -8l20 -31q27 -37 -22 -78q-88 -76 -221 -75q-213 0 -213 192q0 51 16 150l164 1048q-49 45 -145 45q-170 0 -209 -258l-25 -153h180q37 0 31 -37l-8 -56q-6 -37 -43 -37h-180l-134 -858
q-35 -227 -159 -337t-307 -109q-133 0 -207 50t-74 129t41 120t98 41t91 -32t34 -77q0 -72 -67 -112q20 -12 55 -13q156 0 198 273l146 925h-129q-37 0 -31 37l8 56q6 37 43 37h127l15 86q35 226 163 336t308 110q182 0 282 -66l174 54q29 10 29 -21z" />
    <glyph glyph-name="f_f_b" unicode="ffb" horiz-adv-x="2437" 
d="M-344 -251q0 79 41 120t98 41t91 -32t34 -77q0 -72 -67 -112q20 -12 55 -13q156 0 198 273l144 925h-127q-37 0 -31 37l8 56q6 37 43 37h127l11 65q35 225 162 336q128 111 319 111t282 -99q126 119 312 119t286 -66l177 54q16 4 24 -3t4 -24l-94 -614q109 141 282 141
t259 -117t86 -284t-58 -309t-184 -238q-125 -96 -289 -96t-262 106l-57 -59q-27 -27 -62 -27h-104q-37 0 -31 37l207 1333q-49 45 -145 45q-168 0 -209 -258l-25 -153h180q37 0 31 -37l-8 -56q-6 -37 -43 -37h-178l-135 -864q-33 -216 -149 -324t-271 -108q-119 0 -177 50
q-59 50 -59 114t35 99q35 36 86 36q100 0 100 -88q0 -63 -69 -94q23 -14 61 -14q104 0 137 208l154 985h-319l-134 -858q-35 -227 -159 -337t-307 -109q-133 0 -207 50t-74 129zM1794 139q86 0 143 50q92 81 133 286q15 80 15 154q0 227 -152 227q-75 0 -141 -68t-92 -233
l-58 -350q66 -66 152 -66zM786 1395q-168 0 -208 -258l-21 -133h317l15 86q20 131 76 227q-54 78 -179 78z" />
    <glyph glyph-name="f_f_h" unicode="ffh" horiz-adv-x="2459" 
d="M2034 1024q182 0 246 -106t38 -275l-61 -385q-6 -47 -6 -59q0 -45 43 -45q26 0 58 18t48 -8l21 -31q27 -37 -23 -78q-88 -76 -221 -75q-213 0 -213 192q0 39 18 150l52 327q33 209 -105 209q-73 0 -139 -68t-92 -243l-78 -510q-6 -37 -43 -37h-215q-37 0 -31 37l209 1333
q-49 45 -145 45q-168 0 -209 -258l-25 -153h180q37 0 31 -37l-8 -56q-6 -37 -43 -37h-178l-135 -864q-33 -216 -149 -324t-271 -108q-119 0 -177 50q-59 50 -59 114t35 99q35 36 86 36q100 0 100 -88q0 -63 -69 -94q23 -14 61 -14q104 0 137 208l154 985h-319l-134 -858
q-35 -227 -159 -337t-307 -109q-133 0 -207 50t-74 129t41 120t98 41t91 -32t34 -77q0 -72 -67 -112q20 -12 55 -13q156 0 198 273l144 925h-127q-37 0 -31 37l8 56q6 37 43 37h127l11 65q35 225 162 336q128 111 319 111t282 -99q126 119 312 119t286 -66l177 54
q16 4 24 -3t4 -24l-98 -629q103 156 285 156zM786 1395q-168 0 -208 -258l-21 -133h317l15 86q20 131 76 227q-54 78 -179 78z" />
    <glyph glyph-name="f_f_i" unicode="ffi" horiz-adv-x="1867" 
d="M1360 172q0 51 16 150l86 552h-319l-135 -864q-33 -216 -149 -324t-271 -108q-119 0 -177 50q-59 50 -59 114t35 99q35 36 86 36q100 0 100 -88q0 -63 -69 -94q23 -14 61 -14q104 0 137 208l154 985h-319l-134 -858q-35 -227 -159 -337t-307 -109q-133 0 -207 50t-74 129
t41 120t98 41t91 -32t34 -77q0 -72 -67 -112q20 -12 55 -13q156 0 198 273l144 925h-127q-37 0 -31 37l8 56q6 37 43 37h127l11 65q35 225 162 336q128 111 325 111t287 -109q150 129 372 129q165 0 269 -57t104 -158q0 -74 -44 -120t-112 -46t-104 36q-37 37 -37 101
t70 103q-51 20 -117 20q-229 0 -270 -258l-25 -153h449l125 8q18 2 26 -7t4 -28l-112 -719q-6 -47 -6 -59q0 -45 43 -45q26 0 58 18t48 -8l16 -25q14 -19 14 -37t-32 -47q-88 -76 -221 -75q-213 0 -213 192zM786 1395q-168 0 -208 -258l-21 -133h317l15 86q20 127 80 217
q-46 88 -183 88z" />
    <glyph glyph-name="f_f_j" unicode="ffj" horiz-adv-x="1835" 
d="M1196 -414q-119 0 -177 50t-58 114t34 99q35 36 86 36q100 0 101 -88q0 -63 -70 -94q23 -14 62 -14q104 0 137 213l151 972h-319l-131 -837q-74 -459 -424 -459q-119 0 -177 50q-59 50 -59 114t35 99q35 36 86 36q100 0 100 -88q0 -63 -69 -94q23 -14 61 -14
q104 0 137 208l154 985h-319l-134 -858q-35 -227 -159 -337t-307 -109q-133 0 -207 50t-74 129t41 120t98 41t91 -32t34 -77q0 -72 -67 -112q20 -12 55 -13q158 0 198 273l144 925h-127q-37 0 -31 37l8 56q6 37 43 37h127l11 65q35 225 162 336q128 111 325 111t287 -109
q150 129 372 129q165 0 269 -57t104 -158q0 -74 -44 -120t-112 -46t-104 36q-37 37 -37 101t70 103q-51 20 -117 20q-229 0 -270 -258l-25 -153h449l125 8q18 2 26 -7t4 -28l-149 -952q-33 -217 -150 -328t-270 -111zM786 1395q-168 0 -208 -258l-21 -133h317l15 86
q20 127 80 217q-46 88 -183 88z" />
    <glyph glyph-name="f_f_k" unicode="ffk" horiz-adv-x="2430" 
d="M1974 860q-96 0 -178 -105t-106 -261l-72 -457q-6 -37 -43 -37h-213q-37 0 -31 37l209 1333q-49 45 -145 45q-168 0 -209 -258l-25 -153h180q37 0 31 -37l-8 -56q-6 -37 -43 -37h-178l-135 -864q-33 -216 -149 -324t-271 -108q-119 0 -177 50q-59 50 -59 114t35 99
q35 36 86 36q100 0 100 -88q0 -63 -69 -94q23 -14 61 -14q104 0 137 208l154 985h-319l-134 -858q-35 -227 -159 -337t-307 -109q-133 0 -207 50t-74 129t41 120t98 41t91 -32t34 -77q0 -72 -67 -112q20 -12 55 -13q156 0 198 273l144 925h-127q-37 0 -31 37l8 56
q6 37 43 37h127l11 65q35 225 162 336q128 111 319 111t282 -99q126 119 312 119t286 -66l177 54q16 4 24 -3t4 -24l-104 -672q133 199 350 199q135 0 202 -68t67 -190t-91 -211q-90 -88 -227 -119l129 -213q33 -54 49 -62q16 -7 34 -7t42 15q25 15 39 -7l20 -33
q11 -17 11 -33t-27 -43q-78 -74 -209 -73q-90 0 -145 38t-99 134l-104 225q-14 33 -10 61l4 29q6 31 41 33q129 8 190 76t62 163q-1 121 -97 121zM786 1395q-168 0 -208 -258l-21 -133h317l15 86q20 131 76 227q-54 78 -179 78z" />
    <glyph glyph-name="f_f_l" unicode="ffl" horiz-adv-x="1871" 
d="M786 1395q-168 0 -208 -258l-21 -133h317l15 86q20 131 76 227q-54 78 -179 78zM1647 199q0 -45 43 -45q26 0 58 18t48 -8l21 -31q27 -37 -23 -78q-88 -76 -221 -75q-213 0 -213 192q0 51 16 150l164 1048q-49 45 -145 45q-168 0 -209 -258l-25 -153h180q37 0 31 -37
l-8 -56q-6 -37 -43 -37h-178l-135 -864q-33 -216 -149 -324t-271 -108q-119 0 -177 50q-59 50 -59 114t35 99q35 36 86 36q100 0 100 -88q0 -63 -69 -94q23 -14 61 -14q104 0 137 208l154 985h-319l-134 -858q-35 -227 -159 -337t-307 -109q-133 0 -207 50t-74 129t41 120
t98 41t91 -32t34 -77q0 -72 -67 -112q20 -12 55 -13q156 0 198 273l144 925h-127q-37 0 -31 37l8 56q6 37 43 37h127l11 65q35 225 162 336q128 111 319 111t282 -99q126 119 312 119t286 -66l175 54q31 10 30 -21q0 -2 -12 -88l-182 -1157q-6 -47 -6 -59z" />
    <glyph glyph-name=".notdef" horiz-adv-x="487" 
d="M348 -389h-209q-37 0 -37 37v1810q0 37 37 37h209q37 0 37 -37v-1810q0 -37 -37 -37z" />
    <glyph glyph-name=".null" horiz-adv-x="0" 
 />
    <glyph glyph-name="nonmarkingreturn" horiz-adv-x="681" 
 />
    <glyph glyph-name="space" unicode=" " horiz-adv-x="487" 
 />
    <glyph glyph-name="exclam" unicode="!" horiz-adv-x="776" 
d="M321 -20q-151 0 -151 156q0 75 50 129t126 54q152 0 152 -156q0 -75 -50 -129t-127 -54zM382 451q-52 0 -54 59l-23 809q-2 37 35 37h369q37 0 24 -35l-280 -811q-19 -59 -71 -59z" />
    <glyph glyph-name="quotedbl" unicode="&#x22;" horiz-adv-x="786" 
d="M641 866h-27q-37 0 -36 37l14 531q0 37 37 36h180q29 0 29 -22q0 -10 -13 -51l-137 -496q-8 -35 -47 -35zM289 866h-27q-37 0 -37 37l15 531q0 37 36 36h181q29 0 28 -22q0 -10 -12 -51l-137 -496q-8 -35 -47 -35z" />
    <glyph glyph-name="numbersign" unicode="#" horiz-adv-x="1228" 
d="M1018 352h-178l-101 -317q-12 -35 -47 -35h-90q-37 0 -27 35l101 317h-281l-100 -317q-12 -35 -47 -35h-90q-37 0 -27 35l100 317h-155q-31 0 -31 27q0 12 6 43l8 45q6 37 43 37h179l110 348h-153q-37 0 -31 37l12 78q6 37 43 37h176l103 317q8 35 47 35h90q37 0 27 -35
l-103 -317h281l102 317q8 35 47 35h90q37 0 27 -35l-102 -317h157q31 0 31 -27q0 -12 -6 -43l-8 -45q-6 -37 -43 -37h-181l-110 -348h155q37 0 31 -37l-12 -78q-6 -37 -43 -37zM836 852h-283l-109 -348h281z" />
    <glyph glyph-name="dollar" unicode="$" 
d="M535 -131h-56q-37 0 -30 37l18 117q-197 7 -300 77t-104 181q0 74 43 127q44 53 108 53t101 -31t37 -84q0 -84 -86 -131q84 -53 221 -57l66 401q-178 67 -269 145t-91 245t132 269t349 115l18 117q6 37 43 37h56q37 0 30 -37l-18 -117q174 -14 265 -84t91 -174
q0 -74 -43 -127q-44 -53 -108 -53t-101 31t-37 84q0 84 88 133q-70 45 -178 55l-63 -397q145 -56 204 -94q60 -37 90 -73q70 -83 70 -206q0 -178 -135 -282t-350 -121l-18 -119q-6 -37 -43 -37zM616 160q102 16 163 64t61 116t-41 106q-41 39 -125 76zM653 1200
q-100 -12 -158 -60q-59 -48 -59 -116t39 -110q39 -40 121 -74z" />
    <glyph glyph-name="percent" unicode="%" horiz-adv-x="1843" 
d="M1231 227q0 -145 86 -145q66 0 113 79q79 133 79 345q0 145 -86 145q-67 0 -113 -79q-80 -135 -79 -345zM1729 414q0 -162 -108 -298t-308 -136q-147 0 -224 80t-77 214q0 193 108 336q109 143 307 144q147 0 225 -88q77 -90 77 -252zM385 850q0 -145 86 -145
q66 1 113 79q77 129 80 344q0 145 -86 146q-66 0 -113 -79q-80 -134 -80 -345zM440 0h-92q-16 0 -20 8t6 21l1059 1298q23 29 59 29h92q35 0 15 -29l-1059 -1298q-23 -29 -60 -29zM883 1038q0 -162 -108 -300q-108 -136 -308 -136q-147 0 -224 81t-77 214q0 193 108 336
q109 143 308 143q147 0 224 -88t77 -250z" />
    <glyph glyph-name="ampersand" unicode="&#x26;" horiz-adv-x="1583" 
d="M1462 145q37 0 31 -36l-10 -72q-6 -37 -43 -37h-310q-37 0 -63 27l-109 106q-201 -154 -456 -153q-217 0 -342 91t-125 257q0 260 332 407q-88 121 -88 244q0 164 137 281t381 116q186 0 286 -72t101 -190q0 -86 -47 -147t-117 -61t-110 32q-38 33 -38 92q0 102 109 146
q-73 51 -183 51q-110 1 -178 -57t-69 -150q-1 -47 23 -92t48 -71t87 -89l364 -362q94 100 141 233h-120q-37 0 -31 37l10 72q6 37 43 36h389q37 0 31 -36l-10 -72q-6 -37 -43 -37h-113q-70 -188 -201 -330l166 -164h127zM336 389q0 -106 64 -178t201 -72q136 0 261 88
l-418 414q-108 -102 -108 -252z" />
    <glyph glyph-name="quotesingle" unicode="'" horiz-adv-x="434" 
d="M289 866h-27q-37 0 -37 37l15 531q0 37 36 36h181q29 0 28 -22q0 -10 -12 -51l-137 -496q-8 -35 -47 -35z" />
    <glyph glyph-name="parenleft" unicode="(" horiz-adv-x="645" 
d="M345 -219q-13 0 -26 20q-66 119 -120 301q-106 350 -12 724q73 288 249 536q68 94 108 133t50 39q12 0 35 -16l28 -21q31 -23 13 -55q-125 -210 -202 -528t-77 -594t41 -463q8 -33 -24 -52l-37 -18q-13 -6 -26 -6z" />
    <glyph glyph-name="parenright" unicode=")" horiz-adv-x="645" 
d="M553 844q1 -482 -293 -891q-68 -94 -108 -133t-51 -39t-33 16l-29 21q-31 23 -12 55q125 211 201 528q77 317 77 593t-41 464q-8 33 25 51l37 19q12 6 25 6t26 -21q66 -119 121 -301t55 -368z" />
    <glyph glyph-name="asterisk" unicode="*" horiz-adv-x="905" 
d="M537 1516h143q37 0 25 -35l-89 -258l228 123q33 18 43 -17l33 -127q4 -12 4 -22q0 -18 -29 -25l-264 -41l172 -174q27 -27 -4 -47l-121 -86q-31 -20 -43 14l-88 234l-148 -234q-20 -31 -49 -8l-104 78q-29 23 0 47l211 176l-238 35q-23 2 -22 25q0 6 6 22l61 139
q16 35 47 13l195 -125l-6 256q0 37 37 37z" />
    <glyph glyph-name="plus" unicode="+" 
d="M1032 426h-358l-62 -389q-6 -37 -43 -37h-94q-37 0 -31 37l62 389h-363q-31 0 -30 27q0 14 4 34l10 58q6 37 43 37h360l60 385q6 37 43 37h94q37 0 31 -37l-60 -385h361q31 0 31 -27q0 -2 -7 -43l-8 -49q-6 -37 -43 -37z" />
    <glyph glyph-name="comma" unicode="," horiz-adv-x="544" 
d="M387 168q0 -121 -85 -255t-206 -239q-18 -14 -31 -14t-26 10l-33 23q-16 10 -16 23t18 36q98 113 144 228q-49 16 -79 60t-30 112t54 126q55 58 133 58t118 -45t39 -123z" />
    <glyph glyph-name="hyphen" unicode="-" horiz-adv-x="708" 
d="M162 696h450q31 0 31 -26q0 -6 -2 -21l-20 -129q-6 -37 -43 -37h-451q-31 0 -31 27q0 6 2 18l21 131q6 37 43 37z" />
    <glyph glyph-name="period" unicode="." horiz-adv-x="536" 
d="M383 171q0 -77 -53 -134t-131 -57t-119 44t-41 120t53 134t131 58t119 -44t41 -121z" />
    <glyph glyph-name="slash" unicode="/" horiz-adv-x="587" 
d="M55 -184h-88q-27 0 -26 18q0 4 4 16l680 1655q14 35 51 35h88q27 0 27 -18q0 -4 -5 -17l-680 -1655q-14 -34 -51 -34z" />
    <glyph glyph-name="zero" unicode="0" 
d="M381 402q0 -134 36 -208t123 -75q88 0 158 87t108 219q73 253 75 513q0 150 -36 224t-123 75q-87 0 -158 -87t-108 -219q-75 -260 -75 -529zM528 -20q-223 0 -326 143q-104 143 -104 392t93 466q50 115 122 202t181 140t239 53q223 0 327 -143t103 -394q0 -251 -93 -464
q-107 -246 -302 -342q-109 -53 -240 -53z" />
    <glyph glyph-name="one" unicode="1" 
d="M207 137h221l158 983l-230 -28q-39 -2 -41 32l-4 47q-2 37 31 48l551 153q17 4 25 -3t4 -23l-193 -1209h209q31 0 31 -26q0 -4 -6 -48l-5 -26q-6 -37 -43 -37h-731q-31 0 -30 27q0 4 6 47l4 26q6 37 43 37z" />
    <glyph glyph-name="two" unicode="2" 
d="M819 1057q1 182 -193 182q-102 0 -190 -59q68 -38 68 -104t-47 -111t-109 -45t-97 36q-34 36 -34 93q0 111 80 189q145 141 408 138q186 0 306 -81t119 -226q0 -203 -218 -376q-107 -83 -235 -161q-128 -77 -181 -112q-157 -103 -226 -203h570l49 127q12 35 49 35h66
q36 0 30 -37l-57 -305q-6 -37 -43 -37h-854q-37 0 -31 37l6 39q27 180 163 316q71 71 118 110t181 134t196 165q106 121 106 256z" />
    <glyph glyph-name="three" unicode="3" 
d="M1075 436q0 -200 -179 -328t-441 -128q-193 0 -295 70t-103 188q0 76 44 134q45 58 111 58t102 -30t36 -78q0 -106 -104 -148q72 -55 214 -55t230 90q86 90 86 237q0 229 -203 244q-43 2 -55 23l-16 22q-16 23 6 45l358 373h-432l-55 -141q-12 -35 -49 -35h-66
q-37 0 -31 37l58 305q6 37 43 37h788q37 0 31 -37l-6 -49q-6 -35 -31 -64l-397 -411q164 -29 260 -123t96 -236z" />
    <glyph glyph-name="four" unicode="4" 
d="M1040 342h-147l-33 -205h84q37 0 31 -37l-10 -63q-6 -37 -43 -37h-469q-37 0 -31 37l10 63q6 37 43 37h84l33 205h-547q-33 0 -33 27q0 8 2 20l6 35q6 35 29 65l627 838q23 29 59 29h137q35 0 15 -29l-635 -835h362l54 331q6 35 41 47l247 74q16 4 24 -3t5 -23l-67 -426
h145q31 0 31 -29q0 -9 -2 -21l-9 -63q-6 -37 -43 -37z" />
    <glyph glyph-name="five" unicode="5" 
d="M1057 455q0 -203 -173 -339t-423 -136q-197 0 -299 70t-103 188q0 76 44 134q45 58 111 58t102 -30t36 -78q0 -106 -104 -148q72 -55 211 -55t219 96t80 248q0 242 -207 242q-119 0 -219 -56q-33 -16 -62 6l-28 25q-29 25 -19 57l166 584q12 35 47 35h543l31 65
q14 33 51 33h45q37 0 29 -37l-48 -243q-8 -37 -45 -37h-544l-92 -332q98 39 210 39q199 0 320 -112t121 -277z" />
    <glyph glyph-name="six" unicode="6" 
d="M403 371q0 -128 36 -188t114 -60q121 0 179 121q58 120 58 240q1 228 -167 231q-102 0 -197 -58q-23 -158 -23 -286zM731 866q160 0 259 -95t100 -257q0 -221 -160 -378t-398 -156q-196 0 -314 122t-118 377q0 187 65 367t183 307q203 223 524 223q158 0 256 -49
q33 -14 15 -47l-47 -78q-18 -31 -54 -16q-78 35 -180 35q-332 0 -418 -443q127 88 287 88z" />
    <glyph glyph-name="seven" unicode="7" 
d="M442 0h-151q-35 0 -23 33q266 606 693 1104h-553l-50 -125q-12 -35 -49 -35h-65q-31 0 -31 27q0 4 4 32l53 283q6 37 43 37h856q31 0 31 -27q0 -10 -2 -22l-6 -41q-6 -37 -29 -66q-182 -230 -363 -546t-306 -619q-14 -35 -52 -35z" />
    <glyph glyph-name="eight" unicode="8" 
d="M377 318q0 -114 44 -162q44 -47 111 -47q109 0 174 98q64 99 64 197t-35 150t-110 89q-123 -55 -185 -133t-63 -192zM721 1247q-95 0 -147 -88t-52 -180q0 -154 115 -219q215 109 215 321q0 82 -36 124t-95 42zM1063 391q0 -188 -169 -300q-169 -111 -377 -111
q-207 0 -323 84t-116 225q0 260 409 411q-119 55 -189 122t-69 171q0 175 159 279t339 104t301 -79t121 -214t-103 -225t-272 -158q127 -54 208 -126t81 -183z" />
    <glyph glyph-name="nine" unicode="9" 
d="M383 -20q-152 0 -258 51q-33 14 -14 47l51 76q18 31 53 16q76 -35 178 -35q180 0 279 121q98 121 137 352q-127 -90 -288 -90t-261 89t-100 249q0 219 159 370q160 151 398 150q195 0 313 -121t119 -376q-1 -187 -65 -367t-183 -307q-205 -225 -518 -225zM459 862
q0 -193 172 -192q102 0 196 57q19 123 19 252t-36 192t-114 64q-121 0 -179 -118t-58 -255z" />
    <glyph glyph-name="colon" unicode=":" horiz-adv-x="593" 
d="M178 832q0 76 53 134t131 58t120 -44q40 -44 40 -121t-53 -134t-131 -57t-119 44t-41 120zM412 171q0 -77 -54 -134t-131 -57q-79 0 -119 44t-40 120t53 134t131 58t119 -44t41 -121z" />
    <glyph glyph-name="semicolon" unicode=";" horiz-adv-x="602" 
d="M182 832q0 76 54 134t131 58q79 0 119 -44t40 -121t-53 -134t-131 -57t-119 44t-41 120zM416 168q0 -121 -85 -255t-206 -239q-17 -14 -31 -14t-26 10l-33 23q-31 19 2 59q98 113 143 228q-49 16 -79 60q-29 44 -29 112t54 126t132 58t118 -45t40 -123z" />
    <glyph glyph-name="less" unicode="&#x3c;" 
d="M874 31q-14 0 -26 6l-655 366q-29 15 -29 29t6 51l10 68q6 37 39 53l782 369q12 6 21 6q18 0 27 -25l26 -67q7 -18 7 -33t-23 -25l-711 -335l580 -324q31 -16 14 -49l-43 -72q-11 -18 -25 -18z" />
    <glyph glyph-name="equal" unicode="=" 
d="M176 631q-31 0 -31 26q0 14 5 35l10 58q6 37 43 36h889q31 0 30 -26q0 -2 -6 -43l-8 -49q-6 -37 -43 -37h-889zM111 221q-31 0 -31 27q0 14 4 35l10 57q6 37 43 37h889q31 0 31 -27q0 -2 -6 -43l-9 -49q-6 -37 -43 -37h-888z" />
    <glyph glyph-name="greater" unicode="&#x3e;" 
d="M176 29q-16 0 -26 24l-29 74q-18 35 18 51l711 336l-580 324q-31 18 -14 49l43 71q19 29 51 13l656 -367q29 -16 28 -43q0 -8 -6 -41l-10 -63q-6 -37 -39 -54l-782 -368q-12 -6 -21 -6z" />
    <glyph glyph-name="question" unicode="?" horiz-adv-x="962" 
d="M371 -20q-152 0 -152 156q0 75 50 129t126 54q152 0 152 -156q0 -75 -50 -129t-126 -54zM682 1102q0 141 -172 141q-90 0 -164 -45q74 -38 74 -104t-43 -102t-101 -36t-92 36q-32 36 -32 104t41 126q71 103 252 139q77 15 161 15q170 0 273 -64q102 -65 102 -189
t-87 -221t-239 -193q-88 -59 -131 -107t-67 -133q-8 -35 -47 -35h-11q-35 0 -41 37q-2 12 -2 43q0 76 42 139t130 140q154 135 154 309z" />
    <glyph glyph-name="at" unicode="@" horiz-adv-x="1767" 
d="M702 428q0 -193 132 -192q80 0 133 68t73 188l33 198q-43 82 -135 82t-164 -95t-72 -249zM752 -311q-301 0 -480 186q-178 186 -178 504q0 399 267 667t669 267q310 0 488 -171t178 -456q0 -240 -118 -429t-310 -189q-96 0 -157 48q-60 48 -60 120q0 20 4 36
q-37 -82 -121 -131t-205 -49t-193 88t-71 244q0 223 130 355t293 132t240 -120l64 75q27 29 61 29h45q37 0 31 -37l-82 -512q-10 -59 -10 -96q0 -59 59 -60q86 0 169 142t83 336q0 244 -142 380t-386 136q-322 0 -548 -222t-226 -573q0 -270 142 -421q142 -150 370 -150
t407 104q31 16 52 -14l20 -33q17 -31 -12 -51q-213 -135 -473 -135z" />
    <glyph glyph-name="A" unicode="A" horiz-adv-x="1368" 
d="M1239 0h-506q-37 0 -31 37l11 63q6 37 43 37h106q-8 78 -28 234h-465q-70 -156 -103 -234h109q37 0 31 -37l-11 -63q-6 -37 -43 -37h-383q-33 0 -32 25q0 6 4 34l6 41q6 37 43 37h82q262 596 622 1188q16 31 56 31h133q35 0 47 -35q174 -592 246 -1184h84q33 0 32 -24
q0 -6 -4 -35l-6 -41q-6 -37 -43 -37zM434 512h379q-41 276 -102 547q-162 -303 -277 -547z" />
    <glyph glyph-name="B" unicode="B" horiz-adv-x="1273" 
d="M623 143q125 0 195 74q70 75 69 183q0 214 -189 214h-174l-75 -471h174zM926 1026q0 186 -172 186h-133l-74 -462h129q114 0 182 76t68 200zM1196 395q0 -187 -170 -291t-405 -104h-580q-37 0 -31 37l10 63q6 37 43 37h84l172 1082h-83q-37 0 -31 36l10 64q6 37 43 37
h524q236 0 346 -87t109 -229q0 -264 -334 -346q293 -51 293 -299z" />
    <glyph glyph-name="C" unicode="C" horiz-adv-x="1236" 
d="M88 506q0 341 198 597q94 124 246 199q152 74 339 74t289 -71q102 -73 102 -175t-48 -163t-116 -61q-70 0 -109 32q-39 33 -39 86q0 109 111 154q-74 49 -195 49t-218 -71q-97 -70 -148 -184q-101 -225 -101 -480q0 -350 295 -351q158 0 322 119q33 23 51 -4l27 -37
q25 -35 -17 -72q-201 -167 -464 -167t-394 143t-131 383z" />
    <glyph glyph-name="D" unicode="D" horiz-adv-x="1404" 
d="M1063 797q0 190 -75 302t-234 111h-133l-172 -1065h139q102 0 186 40t136 106q106 135 139 326q14 88 14 180zM1374 772q0 -312 -218 -542t-556 -230h-559q-37 0 -31 37l10 63q6 37 43 37h84l172 1082h-83q-37 0 -31 36l10 64q6 37 43 37h553q259 0 411 -164t152 -420z
" />
    <glyph glyph-name="E" unicode="E" horiz-adv-x="1171" 
d="M63 137h84l172 1082h-83q-37 0 -31 36l10 64q6 37 43 37h891q35 0 35 -33q0 -14 -8 -76l-29 -205q-6 -37 -41 -36h-66q-37 0 -39 36l-10 168h-370l-74 -450h250l18 110q6 37 43 37h70q37 0 30 -37l-57 -360q-6 -37 -43 -37h-70q-37 0 -30 37l18 111h-250l-77 -476h385
l77 199q12 35 50 35h65q37 0 31 -37l-58 -305q-6 -37 -43 -37h-913q-33 0 -33 25q0 6 4 34l6 41q6 37 43 37z" />
    <glyph glyph-name="F" unicode="F" horiz-adv-x="1093" 
d="M1014 1006q-37 0 -39 36l-8 168h-346l-78 -483h248l18 111q6 37 43 36h70q37 0 30 -36l-57 -361q-6 -37 -43 -37h-70q-37 0 -30 37l18 111h-250l-71 -451h104q37 0 31 -37l-11 -63q-6 -37 -43 -37h-487q-33 0 -33 25q0 6 4 34l6 41q6 37 43 37h84l172 1082h-83
q-37 0 -31 36l10 64q6 37 43 37h864q35 0 35 -33q0 -15 -8 -76l-25 -205q-6 -37 -41 -36h-69z" />
    <glyph glyph-name="G" unicode="G" horiz-adv-x="1394" 
d="M664 -20q-278 0 -426 154q-150 154 -150 382q0 229 98 422q98 194 288 316t412 122t331 -72t108 -186q0 -90 -47 -151q-46 -61 -116 -61t-109 32q-39 33 -39 86q0 106 102 150q-86 53 -221 53t-232 -71q-97 -72 -153 -184q-112 -226 -111 -476q0 -172 74 -270t225 -99
q100 0 181 25l59 376h-104q-37 0 -31 37l10 64q6 37 43 37h490q37 0 30 -37l-10 -64q-6 -37 -43 -37h-84l-63 -401q-6 -35 -39 -51q-195 -96 -473 -96z" />
    <glyph glyph-name="H" unicode="H" horiz-adv-x="1542" 
d="M1556 1356q33 0 33 -25q0 -6 -4 -35l-6 -41q-6 -37 -43 -36h-84l-172 -1082h84q37 0 31 -37l-11 -63q-6 -37 -43 -37h-469q-37 0 -30 37l10 63q6 37 43 37h84l76 475h-531l-75 -475h83q37 0 31 -37l-10 -63q-6 -37 -43 -37h-467q-33 0 -33 25q0 6 4 34l6 41q6 37 43 37
h84l172 1082h-83q-37 0 -31 36l10 64q6 37 43 37h469q37 0 31 -37l-10 -64q-6 -37 -43 -36h-84l-74 -459h530l74 459h-84q-37 0 -31 36l11 64q6 37 43 37h466z" />
    <glyph glyph-name="I" unicode="I" horiz-adv-x="710" 
d="M705 1219h-84l-172 -1082h83q37 0 31 -37l-10 -63q-6 -37 -43 -37h-467q-33 0 -33 25q0 6 4 34l6 41q6 37 43 37h84l172 1082h-83q-37 0 -31 36l10 64q6 37 43 37h467q33 0 33 -25q0 -6 -4 -35l-6 -41q-6 -36 -43 -36z" />
    <glyph glyph-name="J" unicode="J" horiz-adv-x="1105" 
d="M1128 1219h-84l-118 -742q-80 -498 -541 -497q-182 0 -286 73q-103 74 -103 193q0 80 46 131t110 51t101 -32q36 -32 36 -85q0 -98 -105 -143q55 -45 168 -45q114 0 178 80t93 258l120 758h-104q-37 0 -31 36l10 64q6 37 44 37h487q33 0 33 -25q0 -6 -4 -35l-7 -41
q-6 -36 -43 -36z" />
    <glyph glyph-name="K" unicode="K" horiz-adv-x="1380" 
d="M1253 137q37 0 31 -37l-10 -63q-6 -37 -43 -37h-295q-35 0 -47 35q-90 326 -273 579q-51 -41 -104 -73l-63 -404h83q37 0 31 -37l-10 -63q-6 -37 -43 -37h-467q-33 0 -33 25q0 6 4 34l6 41q6 37 43 37h84l172 1082h-83q-37 0 -31 36l10 64q6 37 43 37h469q37 0 31 -37
l-10 -64q-6 -37 -43 -36h-84l-78 -496q287 217 534 496h-88q-37 0 -31 36l11 64q6 37 43 37h389q33 0 33 -25q0 -6 -4 -35l-7 -41q-6 -37 -43 -36h-98q-201 -231 -436 -428q211 -281 332 -654h75z" />
    <glyph glyph-name="L" unicode="L" horiz-adv-x="1042" 
d="M43 0q-33 0 -33 25q0 6 4 34l6 41q6 37 43 37h84l172 1082h-83q-37 0 -31 36l10 64q6 37 43 37h490q37 0 30 -37l-10 -64q-6 -37 -43 -36h-104l-172 -1074h294l88 228q14 35 52 35h67q29 0 29 -29q0 -14 -6 -43l-55 -299q-6 -37 -44 -37h-831z" />
    <glyph glyph-name="M" unicode="M" horiz-adv-x="1744" 
d="M1759 1356q33 0 33 -25q0 -6 -4 -35l-6 -41q-6 -37 -43 -36h-84l-172 -1082h84q37 0 30 -37l-10 -63q-6 -37 -43 -37h-469q-37 0 -31 37l11 63q6 37 43 37h84l147 924l-450 -725q-20 -31 -58 -31h-98q-35 0 -47 35l-219 707l-144 -910h84q37 0 31 -37l-10 -63
q-6 -37 -43 -37h-332q-33 0 -33 25q0 6 4 34l6 41q6 37 43 37h84l172 1082h-83q-37 0 -31 36l10 64q6 37 43 37h365q35 0 47 -35l219 -707l442 711q20 31 58 31h370z" />
    <glyph glyph-name="N" unicode="N" horiz-adv-x="1513" 
d="M1522 1219h-84l-189 -1182q-6 -37 -43 -37h-192q-37 0 -51 33l-496 1085l-156 -981h84q37 0 31 -37l-10 -63q-6 -37 -43 -37h-330q-33 0 -33 25q0 6 4 34l6 41q6 37 43 37h84l172 1082h-83q-37 0 -31 36l10 64q6 37 43 37h373q37 0 51 -33l451 -991l139 887h-84
q-37 0 -31 36l10 64q6 37 43 37h332q33 0 33 -25q0 -6 -4 -35l-6 -41q-6 -36 -43 -36z" />
    <glyph glyph-name="O" unicode="O" horiz-adv-x="1409" 
d="M635 129q123 0 208 66q148 115 201 398q23 118 23 280q0 161 -56 257q-55 96 -179 96q-318 1 -410 -463q-23 -118 -23 -280q1 -162 57 -258t179 -96zM857 1376q255 0 388 -156t133 -388q0 -490 -339 -730q-175 -123 -410 -122q-274 0 -408 155q-133 157 -133 389t82 419
t257 310t430 123z" />
    <glyph glyph-name="P" unicode="P" horiz-adv-x="1202" 
d="M41 0q-37 0 -31 37l10 63q6 37 43 37h84l172 1082h-83q-37 0 -31 36l10 64q6 37 43 37h487q250 0 372 -102t122 -279q0 -217 -164 -353t-461 -137h-110l-55 -348h104q37 0 31 -37l-11 -63q-6 -37 -43 -37h-489zM928 971q0 242 -234 241h-73l-95 -583h84q147 0 233 95
q85 95 85 247z" />
    <glyph glyph-name="Q" unicode="Q" horiz-adv-x="1409" 
d="M635 129q123 0 208 66q148 115 201 398q23 118 23 280q0 161 -56 257q-55 96 -179 96q-318 1 -410 -463q-23 -118 -23 -280q1 -162 57 -258t179 -96zM963 -358q-186 0 -311 89q-124 89 -148 259q-211 35 -314 183q-102 147 -102 365t82 405t257 310t430 123t388 -156
t133 -401q0 -303 -160 -539t-446 -288q14 -115 74 -167t174 -52q28 0 66 5t42 -26l7 -47q6 -41 -39 -51q-61 -12 -133 -12z" />
    <glyph glyph-name="R" unicode="R" horiz-adv-x="1351" 
d="M63 137h84l172 1082h-83q-37 0 -31 36l10 64q6 37 43 37h557q229 0 346 -94t117 -256q0 -303 -352 -396q154 -168 225 -473h78q37 0 31 -37l-11 -63q-6 -37 -43 -37h-303q-37 0 -43 37q-70 342 -209 514h-137l-65 -414h83q37 0 31 -37l-10 -63q-6 -37 -43 -37h-469
q-37 0 -31 37l10 63q6 37 43 37zM967 1001q0 211 -207 211h-139l-84 -520h141q143 0 216 85t73 224z" />
    <glyph glyph-name="S" unicode="S" horiz-adv-x="1150" 
d="M1065 412q0 -205 -162 -319q-161 -113 -401 -113t-358 74t-117 192q0 90 45 145q44 55 114 55t109 -32t39 -84q0 -96 -94 -146q88 -59 234 -59t239 51q94 52 94 142t-65 136q-66 46 -190 95t-171 73q-148 76 -191 177q-27 63 -26 149q0 209 153 319q153 109 379 109
t338 -74t113 -192q0 -90 -45 -145q-44 -55 -114 -55t-109 32q-39 33 -39 84q0 96 96 148q-88 57 -220 57t-213 -50q-81 -49 -81 -139t64 -136t190 -95q125 -49 172 -73q147 -75 190 -177q27 -63 27 -149z" />
    <glyph glyph-name="T" unicode="T" horiz-adv-x="1243" 
d="M1243 977h-69q-37 0 -39 37l-9 196h-239l-172 -1073h84q37 0 30 -37l-10 -63q-6 -37 -43 -37h-469q-37 0 -31 37l11 63q6 37 43 37h84l172 1073h-240l-78 -198q-14 -35 -51 -35h-67q-29 0 -29 24q0 2 8 52l53 266q8 37 43 37h1063q35 0 35 -33q0 -15 -8 -76l-31 -233
q-6 -37 -41 -37z" />
    <glyph glyph-name="U" unicode="U" horiz-adv-x="1351" 
d="M632 -20q-236 0 -348 94t-112 288q0 66 18 183l107 674h-84q-37 0 -31 36l11 64q6 37 43 37h469q37 0 30 -37l-10 -64q-6 -37 -43 -36h-84l-113 -717q-12 -74 -12 -123q-4 -240 217 -240q131 0 211 86t105 246l118 748h-84q-37 0 -30 36l10 64q6 37 43 37h334
q37 0 30 -37l-10 -64q-6 -37 -43 -36h-84l-112 -709q-39 -254 -174 -392t-372 -138z" />
    <glyph glyph-name="V" unicode="V" horiz-adv-x="1341" 
d="M172 1219q-33 0 -33 24q0 6 4 35l7 41q6 37 43 37h501q37 0 31 -37l-10 -64q-6 -37 -43 -36h-113q43 -524 137 -930q207 387 422 930h-106q-37 0 -31 36l10 64q6 37 43 37h383q33 0 33 -25q0 -6 -4 -35l-6 -41q-6 -37 -43 -36h-82q-270 -645 -600 -1188q-16 -31 -56 -31
h-133q-35 0 -47 35q-156 530 -225 1184h-82z" />
    <glyph glyph-name="W" unicode="W" horiz-adv-x="2068" 
d="M2144 1356q33 0 33 -25q0 -6 -4 -35l-6 -41q-6 -37 -43 -36h-84q-315 -764 -557 -1186q-16 -33 -56 -33h-131q-35 0 -47 35q-82 303 -153 821q-225 -479 -426 -825q-16 -31 -56 -31h-133q-35 0 -47 35q-113 446 -184 1184h-78q-33 0 -33 24q0 6 4 35l7 41q6 37 43 37h501
q37 0 31 -37l-10 -64q-6 -37 -43 -36h-103q51 -664 95 -916q213 414 411 916h-102q-37 0 -31 36l10 64q6 37 43 37h465q37 0 31 -37l-10 -64q-6 -37 -43 -36h-97q43 -524 125 -916q135 289 381 916h-108q-37 0 -31 36l10 64q6 37 43 37h383z" />
    <glyph glyph-name="X" unicode="X" horiz-adv-x="1406" 
d="M4 137h96l492 535l-283 547h-106q-37 0 -31 36l10 64q6 37 43 37h576q37 0 30 -37l-10 -64q-6 -37 -43 -36h-141l172 -355l313 355h-121q-37 0 -30 36l10 64q6 37 43 37h434q33 0 33 -25q0 -6 -4 -35l-6 -41q-6 -37 -43 -36h-99l-462 -492l305 -590h106q37 0 31 -37
l-10 -63q-6 -37 -43 -37h-576q-37 0 -31 37l11 63q6 37 43 37h143l-192 393l-347 -393h121q37 0 31 -37l-10 -63q-6 -37 -43 -37h-432q-33 0 -33 25q0 6 4 34l6 41q6 37 43 37z" />
    <glyph glyph-name="Y" unicode="Y" horiz-adv-x="1255" 
d="M1325 1219h-84q-221 -434 -465 -746l-53 -336h104q37 0 31 -37l-10 -63q-6 -37 -43 -37h-510q-37 0 -31 37l10 63q6 37 43 37h105l53 334q-139 299 -231 748h-84q-33 0 -33 24q0 6 4 35l6 41q6 37 43 37h482q37 0 30 -37l-10 -64q-6 -37 -43 -36h-94q61 -377 155 -605
q172 233 344 605h-81q-37 0 -31 36l10 64q6 37 43 37h361q33 0 32 -25q0 -6 -4 -35l-6 -41q-6 -36 -43 -36z" />
    <glyph glyph-name="Z" unicode="Z" horiz-adv-x="1191" 
d="M1004 408h65q37 0 31 -37l-62 -334q-6 -37 -43 -37h-972q-31 0 -31 29q0 14 4 34l6 35q6 37 29 66l821 1046h-446l-78 -198q-14 -35 -52 -35h-65q-37 0 -31 37l62 305q6 37 43 37h901q29 0 28 -25q0 -8 -4 -35l-6 -39q-6 -37 -28 -65l-824 -1047h514l88 228q12 35 50 35z
" />
    <glyph glyph-name="bracketleft" unicode="[" horiz-adv-x="645" 
d="M453 -78q33 0 32 -24q0 -6 -2 -21l-6 -41q-6 -37 -43 -37h-362q-31 0 -31 27q0 12 4 35l256 1618q6 37 43 37h363q33 0 32 -25q0 -6 -2 -21l-6 -40q-6 -37 -43 -37h-156l-235 -1471h156z" />
    <glyph glyph-name="backslash" unicode="\" horiz-adv-x="587" 
d="M147 1540h78q39 0 41 -37l166 -1632q2 -14 2 -27q0 -29 -33 -28h-77q-39 0 -41 37l-166 1632q-2 14 -2 24q-1 31 32 31z" />
    <glyph glyph-name="bracketright" unicode="]" horiz-adv-x="645" 
d="M262 1516h363q31 0 30 -27q0 -12 -4 -35l-256 -1618q-6 -37 -43 -37h-362q-33 0 -33 25q0 6 2 20l6 41q6 37 43 37h156l235 1471h-155q-31 0 -31 26v11l6 49q6 37 43 37z" />
    <glyph glyph-name="asciicircum" unicode="^" horiz-adv-x="1163" 
d="M1112 755q0 -13 -22 -24l-70 -39q-31 -14 -49 17l-260 503l-449 -536q-23 -29 -53 -4l-57 51q-29 21 -5 53l459 551q27 29 62 29h102q37 0 53 -33l283 -543q6 -12 6 -25z" />
    <glyph glyph-name="underscore" unicode="_" horiz-adv-x="962" 
d="M-61 0h927q31 0 31 -27q0 -4 -2 -16l-12 -80q-6 -37 -43 -37h-928q-31 0 -31 27q0 8 2 18l13 78q6 37 43 37z" />
    <glyph glyph-name="grave" unicode="`" horiz-adv-x="661" 
d="M518 1178q0 -14 -10 -27l-19 -25q-14 -18 -26 -18t-29 8l-323 184q-21 12 -21 22t10 26l95 125q13 14 25 14t24 -12l260 -269q14 -14 14 -28z" />
    <glyph glyph-name="a" unicode="a" horiz-adv-x="1198" 
d="M973 199q0 -45 43 -45q26 0 58 18t48 -8l21 -31q27 -37 -23 -78q-88 -76 -221 -75q-188 0 -197 176q-121 -176 -311 -176q-162 0 -248 110t-86 323q0 214 130 406q63 93 165 149t244 56t238 -104l55 57q27 27 63 27h107q37 0 31 -37l-111 -709q-6 -45 -6 -59zM352 365
q0 -217 144 -218q74 0 135 68t90 234l57 350q-66 66 -155 65q-121 0 -196 -141t-75 -358z" />
    <glyph glyph-name="b" unicode="b" horiz-adv-x="1175" 
d="M533 139q86 0 143 50t87 128q60 156 60 312q0 227 -151 227q-76 0 -142 -68t-92 -233l-57 -350q66 -66 152 -66zM1118 623q0 -167 -58 -309t-183 -238t-289 -96t-262 106l-58 -59q-27 -27 -61 -27h-105q-37 0 -30 37l209 1347l-91 7q-37 2 -30 39l6 40q6 37 43 39l346 23
q19 2 27 -7t4 -28l-94 -614q110 141 282 141t258 -117t86 -284z" />
    <glyph glyph-name="c" unicode="c" horiz-adv-x="964" 
d="M66 410q0 258 152 436q153 178 407 178q155 0 241 -69t86 -187q0 -82 -44 -130t-106 -48t-100 37q-36 37 -36 85t30 90q31 42 84 56q-41 37 -102 37q-104 0 -179 -80q-137 -146 -137 -409t187 -263q117 0 213 66q29 20 49 -10l23 -35q14 -23 9 -37t-32 -37
q-137 -110 -338 -110t-304 114t-103 316z" />
    <glyph glyph-name="d" unicode="d" horiz-adv-x="1214" 
d="M352 375q0 -227 152 -228q74 0 140 68t93 234l58 350q-66 65 -152 65t-143 -50q-94 -82 -132 -286q-16 -79 -16 -153zM989 199q0 -45 43 -45q27 0 59 18t48 -8l20 -31q27 -37 -22 -78q-88 -76 -222 -75q-188 0 -196 176q-121 -176 -320 -176q-170 0 -256 116t-86 284
q0 167 59 309q58 143 183 239t285 96t227 -84l74 444l-90 7q-37 2 -31 39l4 40q6 37 43 39l348 23q19 2 27 -7t4 -28l-195 -1239q-6 -45 -6 -59z" />
    <glyph glyph-name="e" unicode="e" horiz-adv-x="1026" 
d="M495 -20q-229 0 -329 120t-100 326q0 254 154 424q155 170 421 170q174 0 265 -70t91 -181t-52 -184t-139 -108q-162 -65 -368 -65h-82q4 -135 52 -203t162 -68t231 74q33 20 53 -6l25 -35q22 -32 -5 -55q-150 -139 -379 -139zM727 754q0 66 -31 106t-88 39
q-106 0 -171 -117t-79 -254h101q268 1 268 226z" />
    <glyph glyph-name="f" unicode="f" horiz-adv-x="720" 
d="M-344 -251q0 79 41 120t98 41t91 -32t34 -77q0 -72 -67 -112q20 -12 55 -13q156 0 198 273l146 925h-129q-37 0 -31 37l8 56q6 37 43 37h127l15 86q35 226 161 336t312 110q133 0 210 -54q76 -54 76 -134t-40 -120t-98 -40t-92 32t-34 76q0 72 70 115q-27 16 -64 16
q-72 0 -128 -63t-76 -207l-25 -153h180q37 0 31 -37l-8 -56q-6 -37 -43 -37h-180l-134 -858q-35 -227 -159 -337t-307 -109q-133 0 -207 50t-74 129z" />
    <glyph glyph-name="g" unicode="g" horiz-adv-x="1181" 
d="M383 -430q-174 0 -282 66t-107 186q0 76 42 119t110 43t104 -31q37 -31 37 -84q0 -88 -78 -125q63 -51 147 -51q268 0 318 313l24 156q-110 -142 -284 -142t-259 113t-85 277t57 298t180 225t287 91t262 -106l57 59q25 27 62 27h104q37 0 31 -37l-139 -901
q-39 -250 -199 -373t-389 -123zM365 406q0 -217 151 -218q74 0 140 68t94 233l51 310q-66 65 -152 65t-142 -47t-85 -120q-57 -143 -57 -291z" />
    <glyph glyph-name="h" unicode="h" horiz-adv-x="1200" 
d="M991 199q0 -45 43 -45q27 0 59 18t48 -8l20 -31q27 -37 -22 -78q-88 -76 -221 -75q-213 0 -213 192q0 39 18 150l51 327q33 209 -104 209q-74 0 -140 -68t-92 -243l-78 -510q-6 -37 -43 -37h-215q-37 0 -30 37l211 1347l-90 7q-37 2 -31 39l6 40q6 37 43 39l346 23
q19 2 27 -7t4 -28l-99 -629q103 156 285 156t247 -106t38 -275l-62 -385q-6 -45 -6 -59z" />
    <glyph glyph-name="i" unicode="i" horiz-adv-x="647" 
d="M135 172q0 51 17 150l81 540l-88 8q-37 2 -30 39l6 41q6 37 43 39l346 23q18 2 26 -7t5 -28l-113 -719q-6 -45 -6 -59q0 -45 43 -45q27 0 59 18t47 -8l21 -31q26 -37 -23 -78q-88 -76 -221 -75q-213 0 -213 192zM618 1334q0 -70 -55 -123q-55 -52 -129 -52t-115 39
q-41 40 -41 110t56 122q55 52 128 53q73 0 115 -39q41 -40 41 -110z" />
    <glyph glyph-name="j" unicode="j" horiz-adv-x="618" 
d="M-348 -251q0 79 41 120t98 41t91 -32t34 -77q0 -72 -68 -112q20 -12 56 -13q158 0 198 273l142 915l-90 6q-37 2 -31 39l6 41q6 37 43 39l346 23q18 2 26 -7t5 -28l-150 -961q-35 -227 -159 -337t-308 -109q-132 0 -206 50t-74 129zM627 1334q1 -70 -55 -123
q-56 -52 -130 -52t-114 39q-40 40 -41 110q0 70 55 122t128 53t115 -39t42 -110z" />
    <glyph glyph-name="k" unicode="k" horiz-adv-x="1171" 
d="M811 739q0 121 -96 121t-178 -105t-107 -261l-72 -457q-6 -37 -43 -37h-215q-31 0 -30 25q0 6 12 75l201 1284l-90 7q-37 2 -31 39l6 40q6 37 43 39l346 23q19 2 27 -7t4 -28l-105 -672q133 199 351 199q132 0 200 -68t68 -190t-90 -211q-90 -88 -228 -119l129 -213
q33 -55 49 -62q17 -7 34 -7t42 15t39 -7l21 -33q10 -17 10 -33t-27 -43q-74 -74 -209 -73q-90 0 -145 38t-98 134l-105 225q-14 33 -10 61l4 29q6 31 41 33q129 8 191 75q61 68 61 164z" />
    <glyph glyph-name="l" unicode="l" horiz-adv-x="610" 
d="M586 1505q0 -10 -15 -100l-180 -1147q-6 -45 -6 -59q0 -45 43 -45q26 0 58 18t49 -8l20 -31q27 -37 -23 -78q-88 -76 -221 -75q-213 0 -213 192q1 52 17 150l166 1062l-91 7q-37 2 -30 39l6 40q6 37 43 39l344 23q33 4 33 -27z" />
    <glyph glyph-name="m" unicode="m" horiz-adv-x="1828" 
d="M1303 858q-74 0 -139 -68t-91 -243l-78 -510q-6 -37 -43 -37h-213q-37 0 -30 37l96 612q35 209 -98 209q-74 0 -139 -68t-91 -243l-78 -510q-6 -37 -43 -37h-213q-37 0 -30 37l127 829l-90 6q-37 2 -31 39l6 41q6 37 43 39l328 21q18 2 26 -7t4 -28l-22 -139
q116 186 324 186t257 -184q55 82 145 133t189 51q165 0 229 -106t38 -275l-60 -385q-6 -47 -6 -59q0 -45 43 -45q27 0 59 18t47 -8l21 -31q27 -37 -23 -78q-88 -76 -221 -75q-213 0 -213 192q1 52 17 150l51 327q35 209 -98 209z" />
    <glyph glyph-name="n" unicode="n" horiz-adv-x="1239" 
d="M1030 199q0 -45 43 -45q27 0 59 18t48 -8l20 -31q27 -37 -22 -78q-88 -76 -222 -75q-213 0 -213 192q0 39 19 150l51 327q35 209 -104 209q-74 0 -140 -68t-92 -243l-78 -510q-6 -37 -43 -37h-213q-37 0 -30 37l127 829l-90 6q-37 2 -31 39l6 41q6 37 43 39l328 21
q18 2 26 -7t4 -28l-22 -139q115 186 323 186q168 0 233 -106t38 -275l-62 -385q-6 -45 -6 -59z" />
    <glyph glyph-name="o" unicode="o" horiz-adv-x="1150" 
d="M358 395q0 -289 160 -289q123 0 199 142t76 358q0 291 -160 291q-123 -1 -199 -143t-76 -359zM1090 598q0 -234 -139 -419q-69 -91 -187 -145t-268 -54q-215 0 -325 120t-110 306q0 235 139 418q68 92 186 146t269 54q215 0 325 -120t110 -306z" />
    <glyph glyph-name="p" unicode="p" horiz-adv-x="1218" 
d="M422 -410h-463q-37 0 -31 37l9 58q6 37 43 36h81l181 1145l-90 6q-37 2 -31 39l6 41q6 37 43 39l328 21q18 2 26 -7t4 -28l-20 -129q121 176 301 176t266 -117t86 -284t-58 -309t-183 -238t-284 -96t-230 83l-56 -342h92q37 1 31 -36l-8 -58q-6 -37 -43 -37zM576 139
q86 0 143 50t87 128q60 156 60 312q0 227 -151 227q-76 0 -142 -68t-92 -233l-57 -350q66 -66 152 -66z" />
    <glyph glyph-name="q" unicode="q" horiz-adv-x="1175" 
d="M981 -410h-465q-37 0 -31 37l9 58q6 37 43 36h86l61 400q-109 -141 -282 -141t-259 116t-86 284q0 167 59 309q58 143 183 239t289 96t262 -106l57 59q27 27 62 27h104q37 0 31 -37l-195 -1246h92q37 1 31 -36l-8 -58q-6 -37 -43 -37zM352 375q0 -227 152 -228
q74 0 140 68t93 234l58 350q-66 65 -152 65t-143 -50q-94 -82 -132 -286q-16 -79 -16 -153z" />
    <glyph glyph-name="r" unicode="r" horiz-adv-x="929" 
d="M803 1024q164 0 164 -137q0 -70 -41 -118q-42 -48 -102 -48t-95 30t-35 85q0 20 6 34q-78 -20 -140 -103t-85 -232l-76 -498q-6 -37 -43 -37h-215q-31 0 -30 25l129 841l-90 6q-37 2 -31 39l6 41q6 37 43 39l328 21q18 2 26 -7t4 -28l-28 -178q41 93 123 159t182 66z" />
    <glyph glyph-name="s" unicode="s" horiz-adv-x="989" 
d="M176 365q121 1 121 -117q0 -60 -61 -98q78 -50 181 -50t170 34t66 102q0 36 -26 62t-64 41q-37 15 -83 31q-46 18 -87 32q-189 67 -232 171q-22 51 -22 119q0 162 129 247q130 85 316 85t275 -70t89 -174q0 -68 -36 -104t-93 -37q-57 0 -90 29t-33 75q0 78 70 115
q-78 45 -168 45t-150 -35t-61 -98q0 -63 88 -102q31 -14 121 -46t130 -51q115 -54 153 -138q22 -50 22 -118q0 -159 -134 -247q-133 -88 -331 -88t-295 70q-96 71 -96 175q0 66 37 103t94 37z" />
    <glyph glyph-name="t" unicode="t" horiz-adv-x="778" 
d="M135 221q0 51 8 94l88 559h-129q-37 0 -30 37l8 56q6 37 43 37h127l24 155q6 35 41 47l232 70q16 4 24 -3t4 -24l-38 -245h254q37 0 30 -37l-8 -56q-6 -37 -43 -37h-254l-84 -538q-10 -57 -10 -98q0 -98 94 -99q47 1 89 25t59 -2l18 -29q25 -39 -23 -78q-88 -75 -236 -75
t-218 56t-70 185z" />
    <glyph glyph-name="u" unicode="u" horiz-adv-x="1218" 
d="M993 199q0 -45 43 -45q27 0 59 18t48 -8l20 -31q27 -37 -22 -78q-88 -76 -221 -75q-188 0 -197 176q-119 -176 -320 -176q-139 0 -205 78t-65 206q0 49 14 137l72 463l-90 6q-37 2 -31 39l6 41q6 37 43 39l347 23q18 2 26 -7t4 -28l-98 -623q-8 -57 -8 -82
q0 -127 104 -127q70 0 133 69t90 243l78 510q6 37 43 37h213q37 0 31 -37l-111 -709q-6 -45 -6 -59z" />
    <glyph glyph-name="v" unicode="v" horiz-adv-x="1048" 
d="M1028 844q0 -138 -138 -366t-329 -449q-27 -29 -61 -29h-162q-37 0 -49 35q-104 303 -119 829l-80 6q-31 4 -31 26t7 54q6 37 43 39l309 23q37 4 35 -35q-10 -428 73 -791q264 338 308 545q-61 0 -102 37q-40 38 -40 102t44 109t124 45q168 0 168 -180z" />
    <glyph glyph-name="w" unicode="w" horiz-adv-x="1613" 
d="M1253 866q0 64 43 111t122 47t123 -44t44 -136q0 -140 -136 -370t-323 -445q-27 -29 -61 -29h-143q-37 0 -52 35q-49 141 -79 356q-104 -197 -246 -362q-23 -29 -62 -29h-145q-37 0 -49 35q-104 303 -119 829l-80 6q-31 4 -31 26t7 54q6 37 43 39l309 23q37 4 35 -35
q-10 -418 71 -782q162 211 242 397q-10 123 -14 272l-80 6q-37 2 -31 39l6 41q6 37 43 39l309 23q17 2 27 -7t8 -28q-10 -420 70 -772q248 319 287 526q-61 0 -100 35q-38 36 -38 100z" />
    <glyph glyph-name="x" unicode="x" horiz-adv-x="1198" 
d="M268 850q-24 0 -59 -18t-51 10l-21 32q-23 37 27 76q92 74 198 74t161 -39q54 -39 93 -137l58 -148q102 193 176 256q74 68 182 68q70 0 112 -38t42 -99t-38 -101t-97 -41q-90 0 -125 101q-76 -63 -197 -277l170 -358q15 -33 29 -45t38 -12t58 17q35 17 51 -9l21 -33
q23 -37 -27 -76q-93 -73 -199 -73t-160 38t-94 138l-75 186q-115 -223 -192 -292t-185 -68q-70 0 -111 38t-41 98q0 62 37 102t96 40q92 0 127 -98q68 53 213 305l-151 326q-16 35 -30 46q-12 11 -36 11z" />
    <glyph glyph-name="y" unicode="y" horiz-adv-x="1179" 
d="M96 897q0 11 6 53q6 37 43 39l347 23q18 2 26 -7t4 -28l-92 -582q-8 -53 -8 -78q0 -131 104 -131q70 0 133 69t91 243l71 469q6 37 43 37h213q37 0 31 -37l-139 -901q-39 -250 -193 -373t-379 -123q-170 0 -275 66t-106 186q0 76 44 119t110 43t104 -32q37 -32 37 -85
q0 -84 -73 -129q51 -45 135 -45q254 0 299 313l22 154q-109 -139 -286 -140q-139 0 -205 77t-66 208q0 53 8 96l72 463l-90 6q-31 4 -31 27z" />
    <glyph glyph-name="z" unicode="z" horiz-adv-x="1036" 
d="M831 0h-765q-31 0 -31 27q0 14 6 51l10 61q6 39 27 62q88 113 344 313t323 264h-436l-33 -84q-12 -35 -49 -35h-43q-37 0 -28 37l53 271q8 37 45 37h721q31 0 31 -31q0 -4 -5 -37l-10 -68q-6 -37 -28 -61q-89 -113 -345 -313t-327 -269h485l35 92q12 35 49 35h45
q37 0 27 -37l-55 -278q-8 -37 -46 -37z" />
    <glyph glyph-name="braceleft" unicode="{" horiz-adv-x="645" 
d="M741 1516q29 0 29 -27q0 -6 -2 -21l-8 -49q-2 -27 -31 -26h-31q-63 0 -98 -38t-53 -153l-27 -158q-35 -208 -96 -284t-148 -115q131 -74 132 -244q0 -63 -17 -168l-20 -129q-6 -45 -6 -75q0 -106 98 -107h31q23 0 22 -20q0 -7 -2 -21l-8 -49q-6 -33 -37 -33h-37
q-139 0 -220 65t-81 202q0 49 10 120l19 119q10 76 10 121q0 145 -92 166q-33 6 -33 29l8 59q4 35 41 43q137 27 178 291l21 133q33 221 143 307q78 61 269 62h36z" />
    <glyph glyph-name="bar" unicode="|" horiz-adv-x="587" 
d="M225 -184h-80q-31 0 -30 26q0 8 2 25l258 1636q6 37 43 37h80q31 0 30 -27q0 -12 -4 -38l-256 -1622q-6 -37 -43 -37z" />
    <glyph glyph-name="braceright" unicode="}" horiz-adv-x="645" 
d="M-47 -201q-29 0 -29 27q0 6 2 20l8 50q2 27 31 26h31q63 0 98 38t53 153l27 157q35 207 96 284t148 116q-131 74 -131 243q0 63 16 168l21 129q6 47 6 76q0 106 -99 107h-30q-23 0 -23 20q0 7 2 21l8 49q6 33 37 33h37q139 0 220 -65t81 -202q0 -49 -10 -121l-18 -118
q-10 -76 -11 -121q0 -145 92 -166q33 -6 33 -29l-8 -59q-4 -35 -41 -43q-137 -27 -178 -291l-21 -133q-33 -221 -143 -307q-78 -61 -268 -62h-37z" />
    <glyph glyph-name="asciitilde" unicode="~" 
d="M410 676q90 0 168 -46t139 -92t112 -46q94 0 170 112q17 25 27 25t27 -8l34 -19q23 -12 23 -26t-4 -23q-109 -221 -309 -221q-90 0 -168 46q-77 46 -139 92t-113 46q-96 0 -170 -113q-18 -34 -53 -16l-35 19q-23 12 -23 26t6 27q109 217 308 217z" />
    <glyph glyph-name="uni00A0" unicode="&#xa0;" horiz-adv-x="487" 
 />
    <glyph glyph-name="exclamdown" unicode="&#xa1;" horiz-adv-x="735" 
d="M374 553q52 0 54 -59l23 -809q2 -37 -35 -37h-369q-37 0 -24 35l280 811q19 59 71 59zM434 1024q152 0 152 -157q0 -75 -50 -129t-126 -54q-152 0 -152 157q0 75 50 129t126 54z" />
    <glyph glyph-name="cent" unicode="&#xa2;" 
d="M424 442q0 -193 100 -241l115 717q-99 -44 -157 -184t-58 -292zM571 -131h-63q-37 0 -31 37l19 119q-180 20 -275 132q-94 112 -94 294q0 239 145 413t390 197l18 119q6 37 43 37h63q37 0 31 -37l-18 -119q139 -14 218 -81t79 -160t-44 -141t-106 -48t-100 37
q-37 37 -37 85t30 88t83 56q-55 41 -144 41l-121 -758q106 0 205 68q31 23 51 -8l25 -39q20 -29 -6 -54q-127 -115 -299 -124l-19 -117q-6 -37 -43 -37z" />
    <glyph glyph-name="sterling" unicode="&#xa3;" 
d="M922 379h65q37 0 31 -37l-57 -305q-6 -37 -43 -37h-852q-37 0 -31 37l12 80q4 35 39 55q104 58 172 154t68 211q0 33 -7 67h-184q-37 0 -31 37l9 64q6 37 43 36h135q-25 115 -25 189q0 202 146 324t356 122q208 0 306 -72q97 -73 97 -188q0 -78 -42 -130t-106 -52
t-102 32t-38 85q0 88 100 129q-59 49 -168 49q-248 0 -248 -338q0 -61 11 -150h292q37 0 31 -36l-8 -64q-6 -37 -43 -37h-262v-53q0 -111 -66 -197t-172 -137h473l49 127q13 35 50 35z" />
    <glyph glyph-name="currency" unicode="&#xa4;" 
d="M406 571q0 -121 38 -172t121 -51q123 0 199 122t76 312q0 225 -160 226q-123 0 -199 -123q-75 -124 -75 -314zM549 221q-139 0 -234 49l-141 -125q-27 -25 -51 2l-66 72q-25 27 2 51l134 117q-47 80 -48 195q0 248 152 399l-94 117q-23 29 6 53l74 63q29 23 51 -4
l102 -129q119 53 259 53t229 -47l141 125q29 25 51 -4l62 -71q25 -31 -4 -54l-127 -110q49 -82 49 -199q0 -250 -154 -403l90 -113q23 -28 -4 -53l-74 -64q-27 -25 -49 4l-104 127q-113 -51 -252 -51z" />
    <glyph glyph-name="yen" unicode="&#xa5;" 
d="M154 395h280l25 160h-279q-37 0 -30 37l8 63q6 37 43 37h202q-88 246 -133 527h-80q-37 0 -30 36l10 64q6 37 43 37h471q37 0 31 -37l-10 -64q-6 -37 -43 -36h-91q33 -291 119 -519q170 240 283 519h-84q-37 0 -31 36l10 64q6 37 43 37h346q33 0 33 -25q0 -4 -4 -33
l-6 -43q-6 -37 -43 -36h-74q-137 -283 -301 -527h199q37 0 31 -37l-9 -63q-6 -37 -43 -37l-278 -2l-27 -158h279q37 0 30 -37l-8 -63q-6 -37 -43 -37h-280l-19 -121h105q37 0 30 -37l-10 -63q-6 -37 -43 -37h-510q-37 0 -30 37l10 63q6 37 43 37h104l19 121h-279
q-33 0 -33 25q0 4 4 32l7 43q6 37 43 37z" />
    <glyph glyph-name="brokenbar" unicode="&#xa6;" horiz-adv-x="587" 
d="M248 461h80q37 0 30 -37l-90 -571q-6 -37 -43 -37h-80q-31 0 -30 26q0 9 2 25l88 557q6 37 43 37zM395 895h-80q-37 0 -30 37l90 571q6 37 43 37h80q31 0 30 -27q0 -11 -4 -38l-86 -543q-6 -37 -43 -37z" />
    <glyph glyph-name="section" unicode="&#xa7;" horiz-adv-x="1191" 
d="M940 -25q0 -159 -159 -261t-363 -103q-204 0 -309 79q-106 79 -107 199q0 76 44 125t108 49q64 1 104 -35q39 -36 39 -89q0 -82 -92 -132q79 -53 195 -53t200 46t84 116t-53 106q-53 34 -198 82t-227 122q-82 73 -83 218q0 227 250 320q-127 90 -127 250t142 261t344 101
t308 -79t107 -199q0 -76 -44 -125q-45 -49 -109 -49t-103 36t-39 89q0 82 92 131q-78 53 -192 53t-183 -45q-67 -44 -67 -116t53 -106t197 -83t228 -122q83 -73 83 -218q0 -227 -250 -320q127 -89 127 -248zM356 535q0 -40 6 -60q17 -57 118 -100q42 -19 62 -27t64 -24
q46 -16 103 -41q51 25 86 77q51 75 28 152q-17 57 -117 100q-42 18 -62 26t-64 26q-46 16 -103 41q-51 -25 -86 -77t-35 -93z" />
    <glyph glyph-name="dieresis" unicode="&#xa8;" horiz-adv-x="917" 
d="M412 1302q0 -60 -50 -107q-50 -46 -111 -46q-62 0 -99 35q-37 36 -37 96t48 106q47 46 111 46t101 -35t37 -95zM487 1280q1 60 49 106t111 46t100 -35t37 -95t-49 -107q-49 -46 -111 -46t-100 35q-37 36 -37 96z" />
    <glyph glyph-name="copyright" unicode="&#xa9;" horiz-adv-x="1603" 
d="M776 283q-152 0 -232 82t-79 217q0 199 122 345t337 146q113 0 174 -43t61 -104q0 -60 -31 -98t-75 -38q-43 0 -67 21q-24 20 -23 55q0 63 61 92q-37 23 -98 23q-126 0 -188 -127t-62 -281q0 -186 155 -186q86 0 168 53q33 25 48 -8l8 -16q14 -29 -15 -49
q-112 -84 -264 -84zM281 571q-1 -213 115 -346t349 -133q297 0 467 204t170 488q0 213 -114 346q-115 133 -348 134q-297 0 -468 -204t-171 -489zM1516 818q0 -232 -88 -416t-267 -304q-180 -119 -424 -118q-287 0 -439 164t-151 407q0 162 53 309q113 320 396 448
q152 69 336 68q284 0 434 -164q150 -162 150 -394z" />
    <glyph glyph-name="ordfeminine" unicode="&#xaa;" horiz-adv-x="958" 
d="M544 1257q-75 -1 -127 -99t-52 -250t100 -152q125 0 158 211l41 245q-45 45 -120 45zM401 639q-243 -1 -243 307q0 154 98 289t268 135q113 0 178 -74l31 33q29 27 62 27h53q37 0 31 -37l-74 -473q-6 -55 -6 -58q0 -29 26 -28q23 0 45 12t37 -10l8 -12q21 -31 -8 -54
q-68 -57 -157 -57q-135 0 -140 123q-86 -123 -209 -123z" />
    <glyph glyph-name="guillemotleft" unicode="&#xab;" horiz-adv-x="1103" 
d="M848 121q-12 0 -29 22l-246 371q-10 16 -10 28t17 29l370 379q28 28 54 2l38 -34q26 -26 7 -56l-218 -334l109 -329q10 -33 -20 -49l-48 -23q-12 -6 -24 -6zM379 121q-12 0 -29 22l-246 371q-10 16 -10 28t17 29l370 379q28 28 54 2l38 -34q26 -26 7 -56l-218 -334
l109 -329q10 -33 -20 -49l-48 -23q-12 -6 -24 -6z" />
    <glyph glyph-name="logicalnot" unicode="&#xac;" 
d="M928 0h-94q-31 0 -31 37l61 389h-729q-31 0 -31 27q0 10 2 22l13 70q6 37 43 37h860q29 0 29 -29q0 -9 -2 -25l-78 -491q-6 -37 -43 -37z" />
    <glyph glyph-name="uni00AD" unicode="&#xad;" horiz-adv-x="708" 
d="M162 696h450q31 0 31 -26q0 -6 -2 -21l-20 -129q-6 -37 -43 -37h-451q-31 0 -31 27q0 6 2 18l21 131q6 37 43 37z" />
    <glyph glyph-name="registered" unicode="&#xae;" horiz-adv-x="1378" 
d="M993 590h-125q-39 0 -45 37q-35 152 -100 223h-51l-29 -184h31q37 0 31 -37v-2q-6 -37 -43 -37h-213q-37 0 -31 37v2q6 37 43 37h22l80 512h-22q-37 0 -31 36v3q6 37 43 36h264q227 0 227 -166q0 -150 -167 -198q82 -88 110 -223h19q37 0 30 -37v-2q-6 -37 -43 -37z
M741 928q63 0 101 44q37 44 37 111q0 92 -99 93h-57l-39 -248h57zM268 827q0 -188 102 -306t310 -118q260 1 412 181t151 430q0 188 -103 307t-309 119q-259 0 -411 -182t-152 -431zM1358 1032q0 -299 -184 -512t-502 -213q-254 1 -387 145t-133 347q0 427 316 633
q162 104 394 104t364 -146t132 -358z" />
    <glyph glyph-name="macron" unicode="&#xaf;" horiz-adv-x="794" 
d="M156 1169q-33 0 -33 31q0 4 2 19l12 86q6 37 41 36h440q33 0 33 -30q0 -6 -2 -19l-12 -86q-6 -37 -41 -37h-440z" />
    <glyph glyph-name="degree" unicode="&#xb0;" horiz-adv-x="745" 
d="M477 1233q-74 1 -122 -59t-48 -126q0 -142 129 -143q84 -1 132 59t48 126q0 142 -139 143zM504 1376q126 0 194 -74t68 -202q0 -126 -91 -232t-257 -106q-123 0 -192 75q-68 75 -68 201t91 232t255 106z" />
    <glyph glyph-name="plusminus" unicode="&#xb1;" 
d="M1075 727q31 0 31 -27q0 -4 -6 -43l-8 -49q-6 -37 -43 -37h-361l-45 -276q-6 -37 -43 -37h-94q-37 0 -31 37l45 276h-360q-31 0 -31 27q0 14 4 35l10 57q6 37 43 37h359l43 272q6 37 43 37h94q37 0 31 -37l-43 -272h362zM96 156h889q31 0 31 -27q0 -2 -6 -43l-9 -49
q-6 -37 -43 -37h-888q-31 0 -31 27q0 14 4 34l10 58q6 37 43 37z" />
    <glyph glyph-name="twosuperior" unicode="&#xb2;" horiz-adv-x="798" 
d="M561 1172q0 106 -98 106q-51 0 -98 -29q43 -27 43 -67t-33 -71q-33 -30 -73 -30t-62 23t-23 59q0 78 56 127q55 50 117 64t150 14t167 -48q78 -48 77 -132q0 -110 -97 -188q-70 -56 -221 -144q-152 -88 -196 -137h328l23 55q12 35 49 35h22q37 0 31 -37l-31 -166
q-6 -37 -43 -37h-506q-25 0 -22 27l4 29q12 75 58 139t83 92q38 28 102 73q64 44 92 64q28 19 64 73t37 106z" />
    <glyph glyph-name="threesuperior" unicode="&#xb3;" horiz-adv-x="798" 
d="M745 827q1 -121 -111 -195t-256 -75q-144 0 -205 43q-62 42 -62 104t30 101q31 39 76 39t69 -20t23 -52q0 -70 -69 -98q38 -25 118 -25t127 50t47 137q0 123 -96 135q-20 2 -28 12l-13 14q-12 12 4 29l191 193h-244l-27 -68q-14 -35 -51 -35h-20q-37 0 -31 37l29 166
q6 37 43 37h467q33 0 30 -35l-2 -4q-2 -33 -28 -60l-213 -223q202 -45 202 -207z" />
    <glyph glyph-name="acute" unicode="&#xb4;" horiz-adv-x="663" 
d="M218 1108q-12 0 -28 18l-18 25q-10 13 -10 27t14 28l260 269q12 12 24 12t25 -14l95 -125q21 -29 -11 -48l-323 -184q-16 -8 -28 -8z" />
    <glyph glyph-name="mu" unicode="&#xb5;" horiz-adv-x="1243" 
d="M948 -20q-190 0 -200 176q-58 -88 -118 -132t-137 -44t-122 40q10 -90 -13 -237l-24 -156q-6 -37 -43 -37h-213q-31 0 -31 25q0 4 12 76l185 1173l-90 6q-37 2 -31 39l6 41q6 37 43 39l346 23q18 2 26 -7t5 -28l-98 -623q-35 -209 96 -209q70 0 133 69t90 243l78 510
q6 37 43 37h213q31 0 31 -25q0 -12 -13 -90l-102 -656q-12 -80 41 -79q23 0 57 18t51 -8l17 -25q14 -21 14 -39t-31 -45q-88 -75 -221 -75z" />
    <glyph glyph-name="paragraph" unicode="&#xb6;" horiz-adv-x="1261" 
d="M852 -246h-141q-37 0 -31 37l223 1428h-153l-224 -1428q-6 -37 -43 -37h-143q-37 0 -31 37l135 858q-272 41 -272 287q0 204 133 312t359 108h610q33 0 33 -25q0 -4 -4 -33l-7 -43q-6 -37 -43 -36h-133l-225 -1428q-6 -37 -43 -37z" />
    <glyph glyph-name="periodcentered" unicode="&#xb7;" horiz-adv-x="536" 
d="M453 603q1 -77 -53 -134t-132 -57t-118 44t-41 120q0 76 53 134t131 58t119 -44t41 -121z" />
    <glyph glyph-name="cedilla" unicode="&#xb8;" horiz-adv-x="671" 
d="M539 -239q0 -83 -76 -137q-77 -54 -177 -54t-151 39t-51 83t22 70t53 27q68 0 68 -51t-45 -72q35 -22 82 -22t80 26t33 70q0 74 -139 100q-37 6 -17 39l74 121h92l-43 -72q82 -4 138 -44t57 -123z" />
    <glyph glyph-name="onesuperior" unicode="&#xb9;" horiz-adv-x="798" 
d="M688 639q0 -70 -47 -70h-434q-33 0 -33 25q0 70 47 70h113l86 528l-115 -10q-20 -2 -28 6t-13 40q-4 32 33 44l332 88q16 4 23 -2t5 -25l-106 -669h106q31 0 31 -25z" />
    <glyph glyph-name="ordmasculine" unicode="&#xba;" horiz-adv-x="876" 
d="M369 932q0 -203 110 -203q86 0 139 98t54 252q0 205 -111 205q-86 0 -139 -100t-53 -252zM881 1073q1 -174 -105 -304t-311 -130q-153 0 -229 84t-76 215q0 174 105 304t310 130q152 0 229 -84t77 -215z" />
    <glyph glyph-name="guillemotright" unicode="&#xbb;" horiz-adv-x="1103" 
d="M735 969q12 0 29 -23l246 -371q10 -16 10 -28t-16 -29l-371 -379q-13 -14 -27 -14t-26 12l-39 35q-16 16 -16 28t10 27l217 334l-109 330q-10 33 21 49l47 23q12 6 24 6zM258 969q12 0 29 -23l245 -371q10 -16 10 -28t-16 -29l-370 -379q-14 -14 -28 -14t-26 12l-39 35
q-16 16 -16 28t10 27l217 334l-108 330q-10 33 20 49l47 23q13 6 25 6z" />
    <glyph glyph-name="onequarter" unicode="&#xbc;" horiz-adv-x="1792" 
d="M465 0h-92q-41 0 0 45l1044 1282q23 29 60 29h92q20 0 20 -15q0 -6 -26 -38l-1039 -1274q-22 -29 -59 -29zM688 639q0 -70 -47 -70h-434q-33 0 -33 25q0 70 47 70h113l86 528l-115 -10q-20 -2 -28 6t-13 40q-4 32 33 44l332 88q16 4 23 -2t5 -25l-106 -669h106
q31 0 31 -25zM1663 268q0 -74 -47 -73h-64l-16 -101h27q37 0 30 -37l-4 -20q-8 -37 -43 -37h-266q-37 0 -31 37l4 20q8 37 43 37h23l16 101h-295q-33 0 -32 24q0 47 30 82l342 457q23 29 60 28h69q35 0 15 -28l-357 -463h185l22 139q6 35 41 47l158 41q16 4 23 -2t6 -24
l-33 -201h63q31 0 31 -27z" />
    <glyph glyph-name="onehalf" unicode="&#xbd;" horiz-adv-x="1878" 
d="M1645 0h-506q-25 0 -23 27l4 28q12 74 59 139q46 66 83 94t101 72t92 64t65 74q36 54 36 105q-1 106 -88 106q-61 0 -108 -29q43 -27 43 -68q0 -40 -33 -70t-73 -30q-41 0 -63 23t-22 59q0 78 56 127t118 63t150 14t166 -47q78 -48 78 -144t-100 -176q-68 -55 -214 -138
q-145 -82 -200 -143h327l23 55q12 35 49 35h23q36 0 30 -37l-30 -166q-6 -37 -43 -37zM465 0h-92q-41 0 0 45l1044 1282q23 29 60 29h92q20 0 20 -15q0 -6 -26 -38l-1039 -1274q-22 -29 -59 -29zM688 639q0 -70 -47 -70h-434q-33 0 -33 25q0 70 47 70h113l86 528l-115 -10
q-20 -2 -28 6t-13 40q-4 32 33 44l332 88q16 4 23 -2t5 -25l-106 -669h106q31 0 31 -25z" />
    <glyph glyph-name="threequarters" unicode="&#xbe;" horiz-adv-x="1761" 
d="M434 0h-92q-20 0 -20 14q0 8 20 31l1044 1282q23 29 60 29h92q20 0 20 -10t-26 -43l-1038 -1274q-23 -29 -60 -29zM1532 94q37 0 31 -37l-4 -20q-8 -37 -43 -37h-267q-37 0 -30 37l4 20q8 37 43 37h22l17 101h-295q-33 0 -33 24q0 47 31 82l342 457q23 29 59 28h70
q37 0 14 -28l-356 -463h184l22 139q6 35 41 47l158 41q16 4 24 -2t5 -24l-33 -201h64q31 0 30 -27q0 -74 -47 -73h-63l-17 -101h27zM745 827q1 -121 -111 -195t-256 -75q-144 0 -205 43q-62 42 -62 104t30 101q31 39 76 39t69 -20t23 -52q0 -70 -69 -98q38 -25 118 -25
t127 50t47 137q0 123 -96 135q-20 2 -28 12l-13 14q-12 12 4 29l191 193h-244l-27 -68q-14 -35 -51 -35h-20q-37 0 -31 37l29 166q6 37 43 37h467q33 0 30 -35l-2 -4q-2 -33 -28 -60l-213 -223q202 -45 202 -207z" />
    <glyph glyph-name="questiondown" unicode="&#xbf;" horiz-adv-x="921" 
d="M279 -98q0 -142 171 -142q90 0 164 45q-74 39 -73 115q0 55 43 91t101 36t91 -36q33 -35 33 -103t-41 -127q-71 -102 -253 -138q-77 -15 -161 -16q-170 0 -272 65q-102 64 -102 188t87 221t238 194q88 59 131 106t68 134q8 35 47 34h10q35 0 41 -37q2 -12 2 -43
q0 -76 -42 -139t-130 -139q-154 -135 -153 -309zM590 1024q151 0 151 -157q0 -75 -50 -129t-126 -54q-151 0 -151 157q0 75 50 129t126 54z" />
    <glyph glyph-name="Agrave" unicode="&#xc0;" horiz-adv-x="1368" 
d="M680 1827q12 0 25 -12l260 -269q14 -14 14 -28t-10 -27l-19 -25q-16 -18 -27 -18t-28 8l-324 184q-20 12 -20 22t10 26l94 124q13 15 25 15zM1239 0h-506q-37 0 -31 37l11 63q6 37 43 37h106q-8 78 -28 234h-465q-70 -156 -103 -234h109q37 0 31 -37l-11 -63
q-6 -37 -43 -37h-383q-33 0 -32 25q0 6 4 34l6 41q6 37 43 37h82q262 596 622 1188q16 31 56 31h133q35 0 47 -35q174 -592 246 -1184h84q33 0 32 -24q0 -6 -4 -35l-6 -41q-6 -37 -43 -37zM434 512h379q-41 276 -102 547q-162 -303 -277 -547z" />
    <glyph glyph-name="Aacute" unicode="&#xc1;" horiz-adv-x="1368" 
d="M728 1444q-12 0 -28 18l-18 25q-10 12 -10 26t14 29l260 268q26 26 49 -2l95 -125q10 -15 10 -25t-21 -22l-323 -184q-16 -8 -28 -8zM1239 0h-506q-37 0 -31 37l11 63q6 37 43 37h106q-8 78 -28 234h-465q-70 -156 -103 -234h109q37 0 31 -37l-11 -63q-6 -37 -43 -37
h-383q-33 0 -32 25q0 6 4 34l6 41q6 37 43 37h82q262 596 622 1188q16 31 56 31h133q35 0 47 -35q174 -592 246 -1184h84q33 0 32 -24q0 -6 -4 -35l-6 -41q-6 -37 -43 -37zM434 512h379q-41 276 -102 547q-162 -303 -277 -547z" />
    <glyph glyph-name="Acircumflex" unicode="&#xc2;" horiz-adv-x="1368" 
d="M586 1473q-14 0 -27 22l-14 25q-8 16 -8 28t20 27l301 221q12 10 28 10t29 -14l222 -217q16 -15 16 -29t-10 -28l-19 -25q-16 -20 -30 -20t-25 6l-213 102l-227 -96q-29 -12 -43 -12zM1239 0h-506q-37 0 -31 37l11 63q6 37 43 37h106q-8 78 -28 234h-465
q-70 -156 -103 -234h109q37 0 31 -37l-11 -63q-6 -37 -43 -37h-383q-33 0 -32 25q0 6 4 34l6 41q6 37 43 37h82q262 596 622 1188q16 31 56 31h133q35 0 47 -35q174 -592 246 -1184h84q33 0 32 -24q0 -6 -4 -35l-6 -41q-6 -37 -43 -37zM434 512h379q-41 276 -102 547
q-162 -303 -277 -547z" />
    <glyph glyph-name="Atilde" unicode="&#xc3;" horiz-adv-x="1368" 
d="M971 1477q-53 0 -135 45t-119 45q-68 0 -119 -54q-14 -14 -28 -14t-27 10l-21 15q-18 12 -18 26t6 27q98 182 229 182q53 0 135 -45t119 -45q70 0 119 51q26 29 55 6l21 -14q18 -12 18 -26t-6 -27q-98 -182 -229 -182zM1239 0h-506q-37 0 -31 37l11 63q6 37 43 37h106
q-8 78 -28 234h-465q-70 -156 -103 -234h109q37 0 31 -37l-11 -63q-6 -37 -43 -37h-383q-33 0 -32 25q0 6 4 34l6 41q6 37 43 37h82q262 596 622 1188q16 31 56 31h133q35 0 47 -35q174 -592 246 -1184h84q33 0 32 -24q0 -6 -4 -35l-6 -41q-6 -37 -43 -37zM434 512h379
q-41 276 -102 547q-162 -303 -277 -547z" />
    <glyph glyph-name="Adieresis" unicode="&#xc4;" horiz-adv-x="1368" 
d="M506 1618q0 60 48 106t112 45t100 -35q37 -34 37 -94t-49 -107q-50 -46 -112 -46t-99 35q-37 36 -37 96zM907 1618q0 60 48 106q47 46 111 45t101 -35t37 -94t-49 -107q-49 -46 -111 -46t-100 35q-37 36 -37 96zM1239 0h-506q-37 0 -31 37l11 63q6 37 43 37h106
q-8 78 -28 234h-465q-70 -156 -103 -234h109q37 0 31 -37l-11 -63q-6 -37 -43 -37h-383q-33 0 -32 25q0 6 4 34l6 41q6 37 43 37h82q262 596 622 1188q16 31 56 31h133q35 0 47 -35q174 -592 246 -1184h84q33 0 32 -24q0 -6 -4 -35l-6 -41q-6 -37 -43 -37zM434 512h379
q-41 276 -102 547q-162 -303 -277 -547z" />
    <glyph glyph-name="Aring" unicode="&#xc5;" horiz-adv-x="1368" 
d="M1237 0h-504q-37 0 -31 37l11 63q6 37 43 37h106q-8 78 -28 234h-465q-70 -156 -103 -234h109q37 0 31 -37l-11 -63q-6 -37 -43 -37h-385q-33 0 -33 25q0 6 5 34l6 41q6 37 45 37h82q258 580 590 1135q-94 55 -94 178t79 208q80 85 201 85q121 -1 177 -63t56 -147
t-37 -152t-102 -103q164 -571 234 -1141h81q33 0 33 -24q0 -6 -4 -35l-6 -41q-6 -37 -43 -37zM434 512h379q-41 276 -102 547q-162 -303 -277 -547zM700 1474q0 -118 111 -118q55 0 96 48t41 103q0 119 -110 119q-54 0 -96 -48t-42 -104z" />
    <glyph glyph-name="AE" unicode="&#xc6;" horiz-adv-x="1824" 
d="M1694 1006q-37 0 -39 36l-10 168h-371l-74 -450h250l18 110q6 37 43 37h70q37 0 31 -37l-58 -360q-6 -37 -43 -37h-69q-37 0 -31 37l19 111h-250l-78 -476h385l78 199q12 35 49 35h65q37 0 31 -37l-57 -305q-6 -37 -43 -37h-918q-37 0 -30 37l10 63q6 37 43 37h86l37 234
h-439q-8 -13 -59 -99t-80 -135h102q37 0 31 -37l-10 -63q-6 -37 -43 -37h-379q-33 0 -33 25q0 6 4 34l7 41q6 37 43 37h65q455 717 727 1073h-98q-37 0 -31 37l10 72q6 37 43 37h1104q35 0 35 -33q0 -15 -8 -76l-29 -205q-6 -37 -41 -36h-65zM860 512l111 688
q-266 -348 -484 -688h373z" />
    <glyph glyph-name="Ccedilla" unicode="&#xc7;" horiz-adv-x="1236" 
d="M813 -240q1 -82 -75 -136t-176 -54t-152 39t-52 83t22 70t54 27q66 0 68 -53q0 -49 -45 -70q35 -22 82 -22t79 26t33 70q0 74 -139 100q-37 6 -16 39l61 103q-237 16 -353 157t-116 367q0 341 198 597q94 124 246 199q152 74 339 74t289 -71q102 -73 102 -175t-48 -163
t-116 -61q-70 0 -109 32q-39 33 -39 86q0 109 111 154q-74 49 -195 49t-218 -71q-97 -70 -148 -184q-101 -225 -101 -480q0 -350 295 -351q158 0 322 119q33 23 51 -4l27 -37q25 -35 -17 -72q-190 -158 -428 -167l-31 -52q82 -4 138 -45t57 -123z" />
    <glyph glyph-name="Egrave" unicode="&#xc8;" horiz-adv-x="1171" 
d="M592 1827q12 0 24 -12l261 -269q14 -14 14 -28t-10 -27l-19 -25q-14 -18 -26 -18t-29 8l-324 184q-20 12 -20 22t10 26l94 124q13 15 25 15zM63 137h84l172 1082h-83q-37 0 -31 36l10 64q6 37 43 37h891q35 0 35 -33q0 -14 -8 -76l-29 -205q-6 -37 -41 -36h-66
q-37 0 -39 36l-10 168h-370l-74 -450h250l18 110q6 37 43 37h70q37 0 30 -37l-57 -360q-6 -37 -43 -37h-70q-37 0 -30 37l18 111h-250l-77 -476h385l77 199q12 35 50 35h65q37 0 31 -37l-58 -305q-6 -37 -43 -37h-913q-33 0 -33 25q0 6 4 34l6 41q6 37 43 37z" />
    <glyph glyph-name="Eacute" unicode="&#xc9;" horiz-adv-x="1171" 
d="M640 1444q-12 0 -28 18l-18 25q-10 12 -10 26t14 29l260 268q26 26 49 -2l94 -125q10 -15 10 -25t-20 -22l-323 -184q-16 -8 -28 -8zM63 137h84l172 1082h-83q-37 0 -31 36l10 64q6 37 43 37h891q35 0 35 -33q0 -14 -8 -76l-29 -205q-6 -37 -41 -36h-66q-37 0 -39 36
l-10 168h-370l-74 -450h250l18 110q6 37 43 37h70q37 0 30 -37l-57 -360q-6 -37 -43 -37h-70q-37 0 -30 37l18 111h-250l-77 -476h385l77 199q12 35 50 35h65q37 0 31 -37l-58 -305q-6 -37 -43 -37h-913q-33 0 -33 25q0 6 4 34l6 41q6 37 43 37z" />
    <glyph glyph-name="Ecircumflex" unicode="&#xca;" horiz-adv-x="1171" 
d="M498 1473q-14 0 -27 22l-14 25q-8 16 -8 28t20 27l301 221q12 10 28 10t29 -14l222 -217q16 -15 16 -29t-10 -28l-19 -25q-16 -20 -30 -20t-25 6l-213 102l-227 -96q-29 -12 -43 -12zM63 137h84l172 1082h-83q-37 0 -31 36l10 64q6 37 43 37h891q35 0 35 -33
q0 -14 -8 -76l-29 -205q-6 -37 -41 -36h-66q-37 0 -39 36l-10 168h-370l-74 -450h250l18 110q6 37 43 37h70q37 0 30 -37l-57 -360q-6 -37 -43 -37h-70q-37 0 -30 37l18 111h-250l-77 -476h385l77 199q12 35 50 35h65q37 0 31 -37l-58 -305q-6 -37 -43 -37h-913
q-33 0 -33 25q0 6 4 34l6 41q6 37 43 37z" />
    <glyph glyph-name="Edieresis" unicode="&#xcb;" horiz-adv-x="1171" 
d="M418 1618q0 60 48 106t112 45t100 -35q37 -34 37 -94t-49 -107q-50 -46 -112 -46t-99 35q-37 36 -37 96zM819 1618q0 60 48 106q47 46 111 45t101 -35t37 -94t-49 -107q-49 -46 -111 -46t-100 35q-37 36 -37 96zM63 137h84l172 1082h-83q-37 0 -31 36l10 64q6 37 43 37
h891q35 0 35 -33q0 -14 -8 -76l-29 -205q-6 -37 -41 -36h-66q-37 0 -39 36l-10 168h-370l-74 -450h250l18 110q6 37 43 37h70q37 0 30 -37l-57 -360q-6 -37 -43 -37h-70q-37 0 -30 37l18 111h-250l-77 -476h385l77 199q12 35 50 35h65q37 0 31 -37l-58 -305q-6 -37 -43 -37
h-913q-33 0 -33 25q0 6 4 34l6 41q6 37 43 37z" />
    <glyph glyph-name="Igrave" unicode="&#xcc;" horiz-adv-x="710" 
d="M352 1827q12 0 25 -12l260 -269q14 -14 14 -28t-10 -27l-18 -25q-15 -18 -27 -18t-29 8l-323 184q-20 12 -20 22t9 26l95 124q12 15 24 15zM705 1219h-84l-172 -1082h83q37 0 31 -37l-10 -63q-6 -37 -43 -37h-467q-33 0 -33 25q0 6 4 34l6 41q6 37 43 37h84l172 1082h-83
q-37 0 -31 36l10 64q6 37 43 37h467q33 0 33 -25q0 -6 -4 -35l-6 -41q-6 -36 -43 -36z" />
    <glyph glyph-name="Iacute" unicode="&#xcd;" horiz-adv-x="710" 
d="M400 1444q-12 0 -27 18l-19 25q-10 12 -10 26t14 29l260 268q26 26 50 -2l94 -125q10 -15 10 -25t-20 -22l-324 -184q-16 -8 -28 -8zM705 1219h-84l-172 -1082h83q37 0 31 -37l-10 -63q-6 -37 -43 -37h-467q-33 0 -33 25q0 6 4 34l6 41q6 37 43 37h84l172 1082h-83
q-37 0 -31 36l10 64q6 37 43 37h467q33 0 33 -25q0 -6 -4 -35l-6 -41q-6 -36 -43 -36z" />
    <glyph glyph-name="Icircumflex" unicode="&#xce;" horiz-adv-x="710" 
d="M258 1473q-14 0 -27 22l-14 25q-8 16 -8 28t20 27l301 221q12 10 28 10t30 -14l221 -217q16 -15 16 -29t-10 -28l-18 -25q-16 -20 -30 -20t-26 6l-213 102l-227 -96q-29 -12 -43 -12zM705 1219h-84l-172 -1082h83q37 0 31 -37l-10 -63q-6 -37 -43 -37h-467q-33 0 -33 25
q0 6 4 34l6 41q6 37 43 37h84l172 1082h-83q-37 0 -31 36l10 64q6 37 43 37h467q33 0 33 -25q0 -6 -4 -35l-6 -41q-6 -36 -43 -36z" />
    <glyph glyph-name="Idieresis" unicode="&#xcf;" horiz-adv-x="710" 
d="M178 1618q0 60 48 106t112 45t100 -35q37 -34 37 -94t-49 -107q-50 -46 -112 -46t-99 35q-37 36 -37 96zM877 1640q1 -60 -49 -107q-50 -46 -112 -46t-100 35q-36 36 -36 96t48 106t111 45q63 0 101 -34q37 -35 37 -95zM705 1219h-84l-172 -1082h83q37 0 31 -37l-10 -63
q-6 -37 -43 -37h-467q-33 0 -33 25q0 6 4 34l6 41q6 37 43 37h84l172 1082h-83q-37 0 -31 36l10 64q6 37 43 37h467q33 0 33 -25q0 -6 -4 -35l-6 -41q-6 -36 -43 -36z" />
    <glyph glyph-name="Eth" unicode="&#xd0;" horiz-adv-x="1421" 
d="M768 612h-227l-76 -467h139q102 0 186 40t137 106q152 193 152 501q-1 195 -75 307t-234 111h-133l-74 -460h228q36 0 30 -37l-10 -64q-6 -37 -43 -37zM1391 772q-1 -312 -219 -542t-556 -230h-559q-37 0 -30 37l10 63q6 37 43 37h84l76 475h-125q-37 0 -31 37l10 64
q6 37 43 37h125l74 469h-84q-37 0 -31 36l10 64q6 37 43 37h553q260 0 412 -164t152 -420z" />
    <glyph glyph-name="Ntilde" unicode="&#xd1;" horiz-adv-x="1513" 
d="M1047 1477q-53 0 -135 45t-119 45q-68 0 -119 -54q-14 -14 -26 -14t-30 10l-20 15q-18 12 -18 26t6 27q98 182 229 182q53 0 135 -45t119 -45q70 0 119 51q26 29 55 6l21 -14q18 -12 18 -26t-6 -27q-98 -182 -229 -182zM1522 1219h-84l-189 -1182q-6 -37 -43 -37h-192
q-37 0 -51 33l-496 1085l-156 -981h84q37 0 31 -37l-10 -63q-6 -37 -43 -37h-330q-33 0 -33 25q0 6 4 34l6 41q6 37 43 37h84l172 1082h-83q-37 0 -31 36l10 64q6 37 43 37h373q37 0 51 -33l451 -991l139 887h-84q-37 0 -31 36l10 64q6 37 43 37h332q33 0 33 -25
q0 -6 -4 -35l-6 -41q-6 -36 -43 -36z" />
    <glyph glyph-name="Ograve" unicode="&#xd2;" horiz-adv-x="1409" 
d="M696 1827q12 0 25 -12l260 -269q14 -14 14 -28t-10 -27l-18 -25q-15 -18 -27 -18t-29 8l-323 184q-20 12 -20 22t10 26l94 124q12 15 24 15zM635 129q123 0 208 66q148 115 201 398q23 118 23 280q0 161 -56 257q-55 96 -179 96q-318 1 -410 -463q-23 -118 -23 -280
q1 -162 57 -258t179 -96zM857 1376q255 0 388 -156t133 -388q0 -490 -339 -730q-175 -123 -410 -122q-274 0 -408 155q-133 157 -133 389t82 419t257 310t430 123z" />
    <glyph glyph-name="Oacute" unicode="&#xd3;" horiz-adv-x="1409" 
d="M745 1444q-11 0 -28 18l-19 25q-10 12 -10 26t14 29l261 268q25 25 49 -2l94 -125q10 -15 10 -25t-20 -22l-324 -184q-16 -8 -27 -8zM635 129q123 0 208 66q148 115 201 398q23 118 23 280q0 161 -56 257q-55 96 -179 96q-318 1 -410 -463q-23 -118 -23 -280
q1 -162 57 -258t179 -96zM857 1376q255 0 388 -156t133 -388q0 -490 -339 -730q-175 -123 -410 -122q-274 0 -408 155q-133 157 -133 389t82 419t257 310t430 123z" />
    <glyph glyph-name="Ocircumflex" unicode="&#xd4;" horiz-adv-x="1409" 
d="M602 1473q-14 0 -27 22l-14 25q-8 16 -8 28t20 27l301 221q12 10 28 10t30 -14l221 -217q16 -15 16 -29t-10 -28l-18 -25q-16 -20 -30 -20t-26 6l-213 102l-227 -96q-29 -12 -43 -12zM635 129q123 0 208 66q148 115 201 398q23 118 23 280q0 161 -56 257q-55 96 -179 96
q-318 1 -410 -463q-23 -118 -23 -280q1 -162 57 -258t179 -96zM857 1376q255 0 388 -156t133 -388q0 -490 -339 -730q-175 -123 -410 -122q-274 0 -408 155q-133 157 -133 389t82 419t257 310t430 123z" />
    <glyph glyph-name="Otilde" unicode="&#xd5;" horiz-adv-x="1409" 
d="M987 1477q-53 0 -135 45t-119 45q-68 0 -119 -54q-14 -14 -27 -14t-28 10l-20 15q-29 19 -13 53q98 182 230 182q53 0 135 -45t119 -45q70 0 118 51q25 29 56 6l20 -14q30 -20 13 -53q-99 -182 -230 -182zM635 129q123 0 208 66q148 115 201 398q23 118 23 280
q0 161 -56 257q-55 96 -179 96q-318 1 -410 -463q-23 -118 -23 -280q1 -162 57 -258t179 -96zM857 1376q255 0 388 -156t133 -388q0 -490 -339 -730q-175 -123 -410 -122q-274 0 -408 155q-133 157 -133 389t82 419t257 310t430 123z" />
    <glyph glyph-name="Odieresis" unicode="&#xd6;" horiz-adv-x="1409" 
d="M522 1618q0 60 48 106t112 45t100 -35q37 -34 37 -94t-49 -107q-50 -46 -112 -46t-99 35q-37 36 -37 96zM1221 1640q1 -60 -49 -107q-50 -46 -112 -46t-99 35q-37 36 -37 96t48 106t111 45q63 0 101 -34q37 -35 37 -95zM635 129q123 0 208 66q148 115 201 398
q23 118 23 280q0 161 -56 257q-55 96 -179 96q-318 1 -410 -463q-23 -118 -23 -280q1 -162 57 -258t179 -96zM857 1376q255 0 388 -156t133 -388q0 -490 -339 -730q-175 -123 -410 -122q-274 0 -408 155q-133 157 -133 389t82 419t257 310t430 123z" />
    <glyph glyph-name="multiply" unicode="&#xd7;" 
d="M868 45q-12 0 -24 16l-252 312l-354 -316q-12 -12 -26 -12t-26 14l-65 72q-12 11 -12 25t14 26l362 322l-252 313q-25 29 7 53l73 64q15 12 27 12t25 -16l249 -312l351 316q12 12 25 12t26 -16l61 -72q26 -30 -2 -53l-354 -318l250 -313q25 -30 -4 -53l-74 -64
q-13 -12 -25 -12z" />
    <glyph glyph-name="Oslash" unicode="&#xd8;" horiz-adv-x="1409" 
d="M1378 830q0 -487 -339 -728q-175 -122 -392 -122t-348 88l-137 -162q-27 -29 -62 -29h-94q-34 0 -12 29l211 250q-117 144 -117 372t82 415t257 310t393 123t343 -86l135 160q27 29 62 29h94q16 -1 20 -9t-8 -20l-206 -246q118 -144 118 -374zM645 129q113 0 198 66
q148 115 201 398q23 117 23 219t-8 157l-613 -725q59 -115 199 -115zM833 1227q-125 0 -209 -66q-146 -114 -202 -398q-23 -117 -23 -215t7 -155l612 725q-60 109 -185 109z" />
    <glyph glyph-name="Ugrave" unicode="&#xd9;" horiz-adv-x="1351" 
d="M725 1827q12 0 25 -12l260 -269q14 -14 14 -28t-10 -27l-19 -25q-16 -18 -27 -18t-28 8l-324 184q-20 12 -20 22t10 26l94 124q13 15 25 15zM632 -20q-236 0 -348 94t-112 288q0 66 18 183l107 674h-84q-37 0 -31 36l11 64q6 37 43 37h469q37 0 30 -37l-10 -64
q-6 -37 -43 -36h-84l-113 -717q-12 -74 -12 -123q-4 -240 217 -240q131 0 211 86t105 246l118 748h-84q-37 0 -30 36l10 64q6 37 43 37h334q37 0 30 -37l-10 -64q-6 -37 -43 -36h-84l-112 -709q-39 -254 -174 -392t-372 -138z" />
    <glyph glyph-name="Uacute" unicode="&#xda;" horiz-adv-x="1351" 
d="M774 1444q-12 0 -29 18l-18 25q-10 12 -10 26t14 29l260 268q26 26 49 -2l95 -125q9 -15 9 -25t-20 -22l-323 -184q-15 -8 -27 -8zM632 -20q-236 0 -348 94t-112 288q0 66 18 183l107 674h-84q-37 0 -31 36l11 64q6 37 43 37h469q37 0 30 -37l-10 -64q-6 -37 -43 -36h-84
l-113 -717q-12 -74 -12 -123q-4 -240 217 -240q131 0 211 86t105 246l118 748h-84q-37 0 -30 36l10 64q6 37 43 37h334q37 0 30 -37l-10 -64q-6 -37 -43 -36h-84l-112 -709q-39 -254 -174 -392t-372 -138z" />
    <glyph glyph-name="Ucircumflex" unicode="&#xdb;" horiz-adv-x="1351" 
d="M631 1473q-14 0 -27 22l-14 25q-8 16 -8 28t20 27l301 221q11 10 27 10t31 -14l221 -217q16 -15 16 -29t-10 -28l-19 -25q-15 -20 -29 -20t-26 6l-213 102l-227 -96q-29 -12 -43 -12zM632 -20q-236 0 -348 94t-112 288q0 66 18 183l107 674h-84q-37 0 -31 36l11 64
q6 37 43 37h469q37 0 30 -37l-10 -64q-6 -37 -43 -36h-84l-113 -717q-12 -74 -12 -123q-4 -240 217 -240q131 0 211 86t105 246l118 748h-84q-37 0 -30 36l10 64q6 37 43 37h334q37 0 30 -37l-10 -64q-6 -37 -43 -36h-84l-112 -709q-39 -254 -174 -392t-372 -138z" />
    <glyph glyph-name="Udieresis" unicode="&#xdc;" horiz-adv-x="1351" 
d="M551 1618q0 60 48 106q47 46 111 45t101 -35t37 -94t-49 -107q-49 -46 -111 -46t-100 35q-37 36 -37 96zM952 1618q0 60 48 106t112 45t100 -35q37 -34 37 -94t-49 -107q-50 -46 -112 -46t-99 35q-37 36 -37 96zM632 -20q-236 0 -348 94t-112 288q0 66 18 183l107 674
h-84q-37 0 -31 36l11 64q6 37 43 37h469q37 0 30 -37l-10 -64q-6 -37 -43 -36h-84l-113 -717q-12 -74 -12 -123q-4 -240 217 -240q131 0 211 86t105 246l118 748h-84q-37 0 -30 36l10 64q6 37 43 37h334q37 0 30 -37l-10 -64q-6 -37 -43 -36h-84l-112 -709
q-39 -254 -174 -392t-372 -138z" />
    <glyph glyph-name="Yacute" unicode="&#xdd;" horiz-adv-x="1255" 
d="M705 1444q-12 0 -27 18l-19 25q-10 12 -10 26t15 29l260 268q25 25 49 -2l94 -125q10 -15 10 -25t-20 -22l-324 -184q-16 -8 -28 -8zM1325 1219h-84q-221 -434 -465 -746l-53 -336h104q37 0 31 -37l-10 -63q-6 -37 -43 -37h-510q-37 0 -31 37l10 63q6 37 43 37h105
l53 334q-139 299 -231 748h-84q-33 0 -33 24q0 6 4 35l6 41q6 37 43 37h482q37 0 30 -37l-10 -64q-6 -37 -43 -36h-94q61 -377 155 -605q172 233 344 605h-81q-37 0 -31 36l10 64q6 37 43 37h361q33 0 32 -25q0 -6 -4 -35l-6 -41q-6 -36 -43 -36z" />
    <glyph glyph-name="Thorn" unicode="&#xde;" horiz-adv-x="1210" 
d="M258 1356h348q37 0 31 -37l-25 -160h107q250 0 372 -96t121 -268q0 -211 -164 -342t-460 -131h-111l-28 -185h104q37 0 31 -37l-11 -63q-6 -37 -43 -37h-489q-37 0 -31 37l10 63q6 37 43 37h84l172 1082h-83q-37 0 -31 36l10 64q6 37 43 37zM901 791q0 225 -233 225h-80
l-88 -551h84q147 1 232 91t85 235z" />
    <glyph glyph-name="germandbls" unicode="&#xdf;" horiz-adv-x="1310" 
d="M653 340q115 0 115 -110q0 -58 -59 -95q59 -41 138 -41t139 31t60 98t-99 130q-36 22 -70 41q-119 66 -167 125q-48 60 -48 136q0 75 28 137t60 102q33 40 86 95t76 84q69 83 69 195q0 64 -44 108q-44 43 -120 43q-105 0 -163 -85t-85 -259l-166 -1059
q-37 -231 -161 -339t-308 -107q-130 0 -204 50t-74 128t41 120t99 42t91 -31t33 -89t-67 -101q20 -12 55 -13q156 0 198 273l146 925h-129q-37 0 -31 37l8 56q6 37 43 37h127l6 34q36 236 174 367t386 131q154 0 279 -51q67 -27 107 -80t40 -127q0 -158 -205 -287
q-70 -43 -102 -65q-31 -22 -63 -59q-32 -36 -32 -66q0 -70 184 -170q121 -67 173 -135q53 -68 53 -174q0 -160 -116 -251t-291 -91t-255 62t-80 161q0 65 36 101t89 36z" />
    <glyph glyph-name="agrave" unicode="&#xe0;" horiz-adv-x="1198" 
d="M809 1178q0 -14 -10 -27l-19 -25q-14 -18 -26 -18t-29 8l-324 184q-20 12 -20 22t10 26l94 125q12 14 25 14t25 -12l260 -269q14 -14 14 -28zM973 199q0 -45 43 -45q26 0 58 18t48 -8l21 -31q27 -37 -23 -78q-88 -76 -221 -75q-188 0 -197 176q-121 -176 -311 -176
q-162 0 -248 110t-86 323q0 214 130 406q63 93 165 149t244 56t238 -104l55 57q27 27 63 27h107q37 0 31 -37l-111 -709q-6 -45 -6 -59zM352 365q0 -217 144 -218q74 0 135 68t90 234l57 350q-66 66 -155 65q-121 0 -196 -141t-75 -358z" />
    <glyph glyph-name="aacute" unicode="&#xe1;" horiz-adv-x="1198" 
d="M558 1108q-12 0 -28 18l-18 25q-10 13 -10 27t14 28l260 269q12 12 24 12t25 -14l95 -125q21 -29 -11 -48l-323 -184q-16 -8 -28 -8zM973 199q0 -45 43 -45q26 0 58 18t48 -8l21 -31q27 -37 -23 -78q-88 -76 -221 -75q-188 0 -197 176q-121 -176 -311 -176
q-162 0 -248 110t-86 323q0 214 130 406q63 93 165 149t244 56t238 -104l55 57q27 27 63 27h107q37 0 31 -37l-111 -709q-6 -45 -6 -59zM352 365q0 -217 144 -218q74 0 135 68t90 234l57 350q-66 66 -155 65q-121 0 -196 -141t-75 -358z" />
    <glyph glyph-name="acircumflex" unicode="&#xe2;" horiz-adv-x="1198" 
d="M410 1133q-14 0 -27 22l-14 25q-9 16 -9 28t21 27l301 221q12 10 28 10t29 -14l222 -217q16 -15 16 -29t-10 -28l-19 -25q-16 -20 -30 -20t-25 6l-213 102l-227 -96q-29 -12 -43 -12zM973 199q0 -45 43 -45q26 0 58 18t48 -8l21 -31q27 -37 -23 -78q-88 -76 -221 -75
q-188 0 -197 176q-121 -176 -311 -176q-162 0 -248 110t-86 323q0 214 130 406q63 93 165 149t244 56t238 -104l55 57q27 27 63 27h107q37 0 31 -37l-111 -709q-6 -45 -6 -59zM352 365q0 -217 144 -218q74 0 135 68t90 234l57 350q-66 66 -155 65q-121 0 -196 -141t-75 -358
z" />
    <glyph glyph-name="atilde" unicode="&#xe3;" horiz-adv-x="1198" 
d="M799 1139q-53 0 -135 45t-119 45q-68 0 -119 -53q-26 -26 -55 -5l-21 15q-18 12 -18 26t6 27q98 182 229 182q53 0 135 -45t119 -45q70 0 119 51q25 28 55 7l21 -15q18 -12 18 -26t-6 -27q-98 -182 -229 -182zM973 199q0 -45 43 -45q26 0 58 18t48 -8l21 -31
q27 -37 -23 -78q-88 -76 -221 -75q-188 0 -197 176q-121 -176 -311 -176q-162 0 -248 110t-86 323q0 214 130 406q63 93 165 149t244 56t238 -104l55 57q27 27 63 27h107q37 0 31 -37l-111 -709q-6 -45 -6 -59zM352 365q0 -217 144 -218q74 0 135 68t90 234l57 350
q-66 66 -155 65q-121 0 -196 -141t-75 -358z" />
    <glyph glyph-name="adieresis" unicode="&#xe4;" horiz-adv-x="1198" 
d="M649 1302q0 -60 -49 -107q-50 -46 -112 -46t-99 35q-37 36 -37 96t48 106t112 46t100 -35q37 -35 37 -95zM1022 1302q0 -60 -49 -107q-49 -46 -111 -46t-100 35q-37 36 -37 96t48 106q47 46 111 46t101 -35t37 -95zM973 199q0 -45 43 -45q26 0 58 18t48 -8l21 -31
q27 -37 -23 -78q-88 -76 -221 -75q-188 0 -197 176q-121 -176 -311 -176q-162 0 -248 110t-86 323q0 214 130 406q63 93 165 149t244 56t238 -104l55 57q27 27 63 27h107q37 0 31 -37l-111 -709q-6 -45 -6 -59zM352 365q0 -217 144 -218q74 0 135 68t90 234l57 350
q-66 66 -155 65q-121 0 -196 -141t-75 -358z" />
    <glyph glyph-name="aring" unicode="&#xe5;" horiz-adv-x="1198" 
d="M565 1327q0 -55 28 -87t83 -32t96 48t41 104t-28 87q-29 32 -83 32t-96 -48q-41 -49 -41 -104zM946 1366q0 -106 -80 -190t-201 -84t-177 62t-56 167t80 189t201 85q121 0 177 -62t56 -167zM973 199q0 -45 43 -45q26 0 58 18t48 -8l21 -31q27 -37 -23 -78
q-88 -76 -221 -75q-188 0 -197 176q-121 -176 -311 -176q-162 0 -248 110t-86 323q0 214 130 406q63 93 165 149t244 56t238 -104l55 57q27 27 63 27h107q37 0 31 -37l-111 -709q-6 -45 -6 -59zM352 365q0 -217 144 -218q74 0 135 68t90 234l57 350q-66 66 -155 65
q-121 0 -196 -141t-75 -358z" />
    <glyph glyph-name="ae" unicode="&#xe6;" horiz-adv-x="1605" 
d="M1064 -20q-234 0 -341 149q-145 -150 -387 -149q-154 0 -233 66t-78 175q0 174 142 253t368 79h120l17 90q14 86 14 131q0 119 -158 119q-98 0 -170 -37q48 -25 48 -88t-36 -101t-94 -38q-58 -1 -91 29q-32 30 -31 81q0 125 122 205q123 80 326 80t283 -100
q141 96 325 96t276 -70q91 -70 91 -181t-52 -184q-51 -73 -139 -108q-162 -65 -368 -65h-82q4 -135 52 -203t164 -68t230 76q31 19 54 -10l24 -35q20 -29 -6 -53q-156 -139 -390 -139zM317 252q0 -47 31 -78t94 -31q127 0 230 88q-27 86 -27 197h-63q-265 0 -265 -176z
M1307 754q0 66 -31 106t-88 39q-106 0 -171 -117t-79 -254h100q269 1 269 226z" />
    <glyph glyph-name="ccedilla" unicode="&#xe7;" horiz-adv-x="964" 
d="M402 -430q-100 0 -152 39q-51 39 -51 83q-1 44 21 70t54 27q68 0 68 -51t-45 -72q35 -22 82 -22t80 26t33 70q0 74 -140 100q-37 6 -16 39l63 105q-165 20 -249 132t-84 294q0 258 152 436q153 178 407 178q155 0 241 -69t86 -187q0 -82 -44 -130t-106 -48t-100 37
q-36 37 -36 85t30 90q31 42 84 56q-41 37 -102 37q-104 0 -179 -80q-137 -146 -137 -409t187 -263q117 0 213 66q29 20 49 -10l23 -35q14 -23 9 -37t-32 -37q-137 -111 -322 -110l-30 -52q82 -4 138 -45t56 -123t-75 -136q-76 -54 -176 -54z" />
    <glyph glyph-name="egrave" unicode="&#xe8;" horiz-adv-x="1026" 
d="M786 1178q0 -14 -10 -27l-18 -25q-16 -18 -28 -18t-28 8l-323 184q-21 12 -21 22t11 26l94 125q13 14 25 14t24 -12l260 -269q14 -14 14 -28zM495 -20q-229 0 -329 120t-100 326q0 254 154 424q155 170 421 170q174 0 265 -70t91 -181t-52 -184t-139 -108
q-162 -65 -368 -65h-82q4 -135 52 -203t162 -68t231 74q33 20 53 -6l25 -35q22 -32 -5 -55q-150 -139 -379 -139zM727 754q0 66 -31 106t-88 39q-106 0 -171 -117t-79 -254h101q268 1 268 226z" />
    <glyph glyph-name="eacute" unicode="&#xe9;" horiz-adv-x="1026" 
d="M536 1108q-11 0 -28 18l-19 25q-10 13 -10 27t15 28l260 269q12 12 24 12t25 -14l94 -125q10 -14 10 -25t-20 -23l-324 -184q-16 -8 -27 -8zM495 -20q-229 0 -329 120t-100 326q0 254 154 424q155 170 421 170q174 0 265 -70t91 -181t-52 -184t-139 -108
q-162 -65 -368 -65h-82q4 -135 52 -203t162 -68t231 74q33 20 53 -6l25 -35q22 -32 -5 -55q-150 -139 -379 -139zM727 754q0 66 -31 106t-88 39q-106 0 -171 -117t-79 -254h101q268 1 268 226z" />
    <glyph glyph-name="ecircumflex" unicode="&#xea;" horiz-adv-x="1026" 
d="M387 1133q-14 0 -27 22l-14 25q-8 16 -8 28t20 27l301 221q11 10 27 10t31 -14l221 -217q16 -15 16 -29t-10 -28l-18 -25q-16 -20 -30 -20t-26 6l-213 102l-227 -96q-29 -12 -43 -12zM495 -20q-229 0 -329 120t-100 326q0 254 154 424q155 170 421 170q174 0 265 -70
t91 -181t-52 -184t-139 -108q-162 -65 -368 -65h-82q4 -135 52 -203t162 -68t231 74q33 20 53 -6l25 -35q22 -32 -5 -55q-150 -139 -379 -139zM727 754q0 66 -31 106t-88 39q-106 0 -171 -117t-79 -254h101q268 1 268 226z" />
    <glyph glyph-name="edieresis" unicode="&#xeb;" horiz-adv-x="1026" 
d="M627 1302q0 -60 -49 -107q-50 -46 -112 -46t-99 35q-37 36 -37 96t48 106t112 46t100 -35q37 -35 37 -95zM702 1280q0 60 48 106t112 46q63 0 100 -35t37 -95t-49 -107q-49 -46 -111 -46t-100 35q-37 36 -37 96zM495 -20q-229 0 -329 120t-100 326q0 254 154 424
q155 170 421 170q174 0 265 -70t91 -181t-52 -184t-139 -108q-162 -65 -368 -65h-82q4 -135 52 -203t162 -68t231 74q33 20 53 -6l25 -35q22 -32 -5 -55q-150 -139 -379 -139zM727 754q0 66 -31 106t-88 39q-106 0 -171 -117t-79 -254h101q268 1 268 226z" />
    <glyph glyph-name="igrave" unicode="&#xec;" horiz-adv-x="647" 
d="M563 1178q0 -14 -10 -27l-18 -25q-15 -18 -27 -18t-29 8l-323 184q-20 12 -20 22t9 26l95 125q12 14 24 14t25 -12l260 -269q14 -14 14 -28zM348 -20q-213 0 -213 192q0 51 17 150l84 542l-91 6q-31 2 -30 25q0 12 2 29l4 26q6 37 43 39l346 23q18 2 26 -7t5 -28
l-113 -719q-6 -45 -6 -59q0 -45 43 -45q27 0 59 18t47 -8l17 -25q14 -23 14 -39t-33 -45q-88 -75 -221 -75z" />
    <glyph glyph-name="iacute" unicode="&#xed;" horiz-adv-x="647" 
d="M312 1108q-12 0 -27 18l-19 25q-10 13 -10 27t14 28l260 269q12 12 24 12t26 -14l94 -125q10 -14 10 -25t-20 -23l-324 -184q-16 -8 -28 -8zM348 -20q-213 0 -213 192q0 51 17 150l84 542l-91 6q-31 2 -30 25q0 12 2 29l4 26q6 37 43 39l346 23q18 2 26 -7t5 -28
l-113 -719q-6 -45 -6 -59q0 -45 43 -45q27 0 59 18t47 -8l17 -25q14 -23 14 -39t-33 -45q-88 -75 -221 -75z" />
    <glyph glyph-name="icircumflex" unicode="&#xee;" horiz-adv-x="647" 
d="M164 1133q-14 0 -27 22l-14 25q-8 16 -8 28t20 27l301 221q12 10 28 10t30 -14l221 -217q16 -15 16 -29t-10 -28l-19 -25q-16 -20 -29 -20t-26 6l-213 102l-227 -96q-29 -12 -43 -12zM348 -20q-213 0 -213 192q0 51 17 150l84 542l-91 6q-31 2 -30 25q0 12 2 29l4 26
q6 37 43 39l346 23q18 2 26 -7t5 -28l-113 -719q-6 -45 -6 -59q0 -45 43 -45q27 0 59 18t47 -8l17 -25q14 -23 14 -39t-33 -45q-88 -75 -221 -75z" />
    <glyph glyph-name="idieresis" unicode="&#xef;" horiz-adv-x="647" 
d="M106 1280q0 60 48 106t112 46q63 0 100 -35t37 -95t-49 -107q-49 -46 -111 -46t-100 35q-37 36 -37 96zM776 1302q0 -60 -49 -107q-49 -46 -111 -46t-100 35q-37 36 -37 96t48 106q47 46 111 46t101 -35t37 -95zM348 -20q-213 0 -213 192q0 51 17 150l84 542l-91 6
q-31 2 -30 25q0 12 2 29l4 26q6 37 43 39l346 23q18 2 26 -7t5 -28l-113 -719q-6 -45 -6 -59q0 -45 43 -45q27 0 59 18t47 -8l17 -25q14 -23 14 -39t-33 -45q-88 -75 -221 -75z" />
    <glyph glyph-name="eth" unicode="&#xf0;" horiz-adv-x="1173" 
d="M358 369q0 -264 160 -265q123 0 199 134t76 342q0 262 -160 262q-123 0 -199 -134t-76 -339zM1112 723q0 -340 -156 -543t-460 -203q-215 0 -325 113q-110 112 -110 274q0 343 252 513q135 90 326 90q125 0 186 -68q-27 197 -120 324l-170 -105q-31 -18 -50 15l-20 41
q-18 33 12 51l139 86q-82 68 -206 104q-37 8 -25 43l14 43q10 33 42 33t94 -12q147 -29 260 -101l155 97q31 18 49 -15l23 -41q8 -16 8 -26t-20 -25l-115 -72q217 -213 217 -616z" />
    <glyph glyph-name="ntilde" unicode="&#xf1;" horiz-adv-x="1239" 
d="M854 1139q-53 0 -135 45t-119 45q-68 0 -119 -53q-24 -24 -55 -5l-20 15q-30 20 -13 53q98 182 230 182q53 0 135 -45t119 -45q70 0 118 51q25 28 56 7l20 -15q31 -21 12 -53q-98 -182 -229 -182zM1030 199q0 -45 43 -45q27 0 59 18t48 -8l20 -31q27 -37 -22 -78
q-88 -76 -222 -75q-213 0 -213 192q0 39 19 150l51 327q35 209 -104 209q-74 0 -140 -68t-92 -243l-78 -510q-6 -37 -43 -37h-213q-37 0 -30 37l127 829l-90 6q-37 2 -31 39l6 41q6 37 43 39l328 21q18 2 26 -7t4 -28l-22 -139q115 186 323 186q168 0 233 -106t38 -275
l-62 -385q-6 -45 -6 -59z" />
    <glyph glyph-name="ograve" unicode="&#xf2;" horiz-adv-x="1150" 
d="M815 1178q0 -14 -10 -27l-19 -25q-16 -18 -27 -18t-28 8l-323 184q-20 12 -20 22t9 26l95 125q12 14 24 14t25 -12l260 -269q14 -14 14 -28zM358 395q0 -289 160 -289q123 0 199 142t76 358q0 291 -160 291q-123 -1 -199 -143t-76 -359zM1090 598q0 -234 -139 -419
q-69 -91 -187 -145t-268 -54q-215 0 -325 120t-110 306q0 235 139 418q68 92 186 146t269 54q215 0 325 -120t110 -306z" />
    <glyph glyph-name="oacute" unicode="&#xf3;" horiz-adv-x="1150" 
d="M564 1108q-12 0 -27 18l-19 25q-10 13 -10 27t14 28l260 269q12 12 24 12t25 -14l95 -125q21 -29 -11 -48l-323 -184q-16 -8 -28 -8zM358 395q0 -289 160 -289q123 0 199 142t76 358q0 291 -160 291q-123 -1 -199 -143t-76 -359zM1090 598q0 -234 -139 -419
q-69 -91 -187 -145t-268 -54q-215 0 -325 120t-110 306q0 235 139 418q68 92 186 146t269 54q215 0 325 -120t110 -306z" />
    <glyph glyph-name="ocircumflex" unicode="&#xf4;" horiz-adv-x="1150" 
d="M416 1133q-14 0 -27 22l-14 25q-8 16 -8 28t20 27l301 221q12 10 28 10t29 -14l222 -217q16 -15 16 -29t-10 -28l-19 -25q-16 -20 -29 -20t-26 6l-213 102l-227 -96q-29 -12 -43 -12zM358 395q0 -289 160 -289q123 0 199 142t76 358q0 291 -160 291q-123 -1 -199 -143
t-76 -359zM1090 598q0 -234 -139 -419q-69 -91 -187 -145t-268 -54q-215 0 -325 120t-110 306q0 235 139 418q68 92 186 146t269 54q215 0 325 -120t110 -306z" />
    <glyph glyph-name="otilde" unicode="&#xf5;" horiz-adv-x="1150" 
d="M805 1139q-53 0 -135 45t-119 45q-68 0 -119 -53q-24 -24 -55 -5l-21 15q-18 12 -18 26t6 27q98 182 229 182q53 0 135 -45t119 -45q70 0 119 51q25 28 55 7l21 -15q18 -12 18 -26t-6 -27q-98 -182 -229 -182zM358 395q0 -289 160 -289q123 0 199 142t76 358
q0 291 -160 291q-123 -1 -199 -143t-76 -359zM1090 598q0 -234 -139 -419q-69 -91 -187 -145t-268 -54q-215 0 -325 120t-110 306q0 235 139 418q68 92 186 146t269 54q215 0 325 -120t110 -306z" />
    <glyph glyph-name="odieresis" unicode="&#xf6;" horiz-adv-x="1150" 
d="M655 1302q0 -60 -49 -107q-50 -46 -112 -46t-99 35q-37 36 -37 96t48 106t112 46q63 0 100 -35t37 -95zM1028 1302q0 -60 -49 -107q-49 -46 -111 -46t-100 35q-37 36 -37 96t48 106q47 46 111 46t101 -35t37 -95zM358 395q0 -289 160 -289q123 0 199 142t76 358
q0 291 -160 291q-123 -1 -199 -143t-76 -359zM1090 598q0 -234 -139 -419q-69 -91 -187 -145t-268 -54q-215 0 -325 120t-110 306q0 235 139 418q68 92 186 146t269 54q215 0 325 -120t110 -306z" />
    <glyph glyph-name="divide" unicode="&#xf7;" 
d="M690 136q0 -62 -44 -110q-44 -46 -107 -46t-97 35q-32 36 -32 99q0 64 44 110t107 46t96 -36t33 -98zM807 890q0 -62 -44 -110q-43 -47 -107 -47t-97 36q-33 37 -33 99t44 109t108 47t96 -36q33 -36 33 -98zM143 426q-31 0 -30 27q0 14 4 34l10 58q6 37 43 37h889
q31 0 31 -27q0 -2 -7 -43l-8 -49q-6 -37 -43 -37h-889z" />
    <glyph glyph-name="oslash" unicode="&#xf8;" horiz-adv-x="1167" 
d="M1098 598q0 -234 -139 -419q-69 -91 -187 -145t-265 -54q-148 0 -247 57l-98 -113q-27 -27 -62 -26h-86q-16 0 -19 8t7 20l164 187q-96 115 -96 293q0 236 138 418q68 92 186 146t264 54t253 -59l99 112q27 29 61 29h88q15 0 19 -8t-7 -21l-167 -190q94 -113 94 -289z
M641 897q-123 0 -199 -142t-75 -360q0 -35 2 -51l401 461q-41 92 -129 92zM526 106q123 0 199 142t76 358q0 33 -2 47l-402 -458q39 -89 129 -89z" />
    <glyph glyph-name="ugrave" unicode="&#xf9;" horiz-adv-x="1218" 
d="M786 1108q-12 0 -28 8l-324 184q-20 12 -20 22t10 26l94 125q12 14 24 14t25 -12l260 -269q27 -27 4 -55l-18 -25q-15 -18 -27 -18zM993 199q0 -45 43 -45q27 0 59 18t48 -8l20 -31q27 -37 -22 -78q-88 -76 -221 -75q-188 0 -197 176q-119 -176 -320 -176q-139 0 -205 78
t-65 206q0 49 14 137l72 463l-90 6q-37 2 -31 39l6 41q6 37 43 39l347 23q18 2 26 -7t4 -28l-98 -623q-8 -57 -8 -82q0 -127 104 -127q70 0 133 69t90 243l78 510q6 37 43 37h213q37 0 31 -37l-111 -709q-6 -45 -6 -59z" />
    <glyph glyph-name="uacute" unicode="&#xfa;" horiz-adv-x="1218" 
d="M590 1108q-12 0 -27 18l-18 25q-10 13 -10 27t14 28l260 269q13 12 25 12t24 -14l94 -125q10 -14 10 -25t-20 -23l-324 -184q-16 -8 -28 -8zM993 199q0 -45 43 -45q27 0 59 18t48 -8l20 -31q27 -37 -22 -78q-88 -76 -221 -75q-188 0 -197 176q-119 -176 -320 -176
q-139 0 -205 78t-65 206q0 49 14 137l72 463l-90 6q-37 2 -31 39l6 41q6 37 43 39l347 23q18 2 26 -7t4 -28l-98 -623q-8 -57 -8 -82q0 -127 104 -127q70 0 133 69t90 243l78 510q6 37 43 37h213q37 0 31 -37l-111 -709q-6 -45 -6 -59z" />
    <glyph glyph-name="ucircumflex" unicode="&#xfb;" horiz-adv-x="1218" 
d="M442 1133q-14 0 -26 22l-15 25q-8 16 -8 28t21 27l301 221q12 10 27 10t30 -14l221 -217q28 -28 6 -57l-18 -25q-15 -20 -29 -20t-26 6l-213 102l-228 -96q-29 -12 -43 -12zM993 199q0 -45 43 -45q27 0 59 18t48 -8l20 -31q27 -37 -22 -78q-88 -76 -221 -75
q-188 0 -197 176q-119 -176 -320 -176q-139 0 -205 78t-65 206q0 49 14 137l72 463l-90 6q-37 2 -31 39l6 41q6 37 43 39l347 23q18 2 26 -7t4 -28l-98 -623q-8 -57 -8 -82q0 -127 104 -127q70 0 133 69t90 243l78 510q6 37 43 37h213q37 0 31 -37l-111 -709q-6 -45 -6 -59z
" />
    <glyph glyph-name="udieresis" unicode="&#xfc;" horiz-adv-x="1218" 
d="M682 1302q0 -60 -49 -107q-49 -46 -111 -46t-100 35q-37 36 -37 96t48 106q47 46 111 46t101 -35t37 -95zM1055 1302q0 -60 -49 -107q-50 -46 -112 -46t-99 35q-37 36 -37 96t48 106t112 46t100 -35q37 -35 37 -95zM993 199q0 -45 43 -45q27 0 59 18t48 -8l20 -31
q27 -37 -22 -78q-88 -76 -221 -75q-188 0 -197 176q-119 -176 -320 -176q-139 0 -205 78t-65 206q0 49 14 137l72 463l-90 6q-37 2 -31 39l6 41q6 37 43 39l347 23q18 2 26 -7t4 -28l-98 -623q-8 -57 -8 -82q0 -127 104 -127q70 0 133 69t90 243l78 510q6 37 43 37h213
q37 0 31 -37l-111 -709q-6 -45 -6 -59z" />
    <glyph glyph-name="yacute" unicode="&#xfd;" horiz-adv-x="1179" 
d="M589 1108q-11 0 -28 18l-18 25q-24 29 4 55l260 269q12 12 24 12t25 -14l94 -125q10 -14 10 -25t-20 -23l-324 -184q-16 -8 -27 -8zM96 897q0 11 6 53q6 37 43 39l347 23q18 2 26 -7t4 -28l-92 -582q-8 -53 -8 -78q0 -131 104 -131q70 0 133 69t91 243l71 469q6 37 43 37
h213q37 0 31 -37l-139 -901q-39 -250 -193 -373t-379 -123q-170 0 -275 66t-106 186q0 76 44 119t110 43t104 -32q37 -32 37 -85q0 -84 -73 -129q51 -45 135 -45q254 0 299 313l22 154q-109 -139 -286 -140q-139 0 -205 77t-66 208q0 53 8 96l72 463l-90 6q-31 4 -31 27z
" />
    <glyph glyph-name="thorn" unicode="&#xfe;" horiz-adv-x="1177" 
d="M379 -410h-463q-37 0 -31 37l11 58q6 37 43 36h81l263 1663l-90 7q-37 2 -31 39l6 40q6 37 43 39l346 23q19 2 27 -7t4 -28l-94 -614q110 141 282 141t258 -117t86 -284t-58 -309t-183 -238t-279 -96t-235 81l-56 -340h92q37 1 31 -36l-10 -58q-6 -37 -43 -37zM535 139
q86 0 143 50t87 128q60 156 60 312q0 227 -151 227q-76 0 -142 -68t-92 -233l-57 -350q66 -66 152 -66z" />
    <glyph glyph-name="ydieresis" unicode="&#xff;" horiz-adv-x="1179" 
d="M680 1302q0 -60 -49 -107q-49 -46 -111 -46t-100 35q-37 36 -37 96t48 106q47 46 111 46t101 -35t37 -95zM1053 1302q0 -60 -49 -107q-50 -46 -112 -46t-99 35q-37 36 -37 96t48 106t112 46t100 -35q37 -35 37 -95zM96 897q0 11 6 53q6 37 43 39l347 23q18 2 26 -7t4 -28
l-92 -582q-8 -53 -8 -78q0 -131 104 -131q70 0 133 69t91 243l71 469q6 37 43 37h213q37 0 31 -37l-139 -901q-39 -250 -193 -373t-379 -123q-170 0 -275 66t-106 186q0 76 44 119t110 43t104 -32q37 -32 37 -85q0 -84 -73 -129q51 -45 135 -45q254 0 299 313l22 154
q-109 -139 -286 -140q-139 0 -205 77t-66 208q0 53 8 96l72 463l-90 6q-31 4 -31 27z" />
    <glyph glyph-name="Amacron" unicode="&#x100;" horiz-adv-x="1368" 
d="M641 1683h440q33 0 33 -30q0 -6 -2 -19l-12 -86q-6 -37 -41 -37h-441q-33 0 -32 31q0 4 2 19l12 86q6 36 41 36zM1239 0h-506q-37 0 -31 37l11 63q6 37 43 37h106q-8 78 -28 234h-465q-70 -156 -103 -234h109q37 0 31 -37l-11 -63q-6 -37 -43 -37h-383q-33 0 -32 25
q0 6 4 34l6 41q6 37 43 37h82q262 596 622 1188q16 31 56 31h133q35 0 47 -35q174 -592 246 -1184h84q33 0 32 -24q0 -6 -4 -35l-6 -41q-6 -37 -43 -37zM434 512h379q-41 276 -102 547q-162 -303 -277 -547z" />
    <glyph glyph-name="amacron" unicode="&#x101;" horiz-adv-x="1198" 
d="M451 1169q-33 0 -33 31q0 4 2 19l12 86q6 37 41 36h440q33 0 33 -30q0 -6 -2 -19l-12 -86q-6 -37 -41 -37h-440zM973 199q0 -45 43 -45q26 0 58 18t48 -8l21 -31q27 -37 -23 -78q-88 -76 -221 -75q-188 0 -197 176q-121 -176 -311 -176q-162 0 -248 110t-86 323
q0 214 130 406q63 93 165 149t244 56t238 -104l55 57q27 27 63 27h107q37 0 31 -37l-111 -709q-6 -45 -6 -59zM352 365q0 -217 144 -218q74 0 135 68t90 234l57 350q-66 66 -155 65q-121 0 -196 -141t-75 -358z" />
    <glyph glyph-name="Abreve" unicode="&#x102;" horiz-adv-x="1368" 
d="M854 1659q117 0 203 102q21 23 31 23t26 -8l31 -17q23 -10 23 -23t-5 -26q-45 -102 -134 -171t-195 -69t-172 64q-64 64 -84 158q-4 16 -4 34t28 33l33 17q12 6 20 6q16 0 36 -37t67 -61t96 -25zM1239 0h-506q-37 0 -31 37l11 63q6 37 43 37h106q-8 78 -28 234h-465
q-70 -156 -103 -234h109q37 0 31 -37l-11 -63q-6 -37 -43 -37h-383q-33 0 -32 25q0 6 4 34l6 41q6 37 43 37h82q262 596 622 1188q16 31 56 31h133q35 0 47 -35q174 -592 246 -1184h84q33 0 32 -24q0 -6 -4 -35l-6 -41q-6 -37 -43 -37zM434 512h379q-41 276 -102 547
q-162 -303 -277 -547z" />
    <glyph glyph-name="abreve" unicode="&#x103;" horiz-adv-x="1198" 
d="M682 1321q117 0 203 102q21 23 31 23t26 -8l31 -17q23 -12 23 -24t-5 -25q-45 -102 -134 -171t-195 -69t-179 71q-72 70 -82 179q0 25 29 39l33 17q12 6 20 6q16 0 36 -37t67 -61t96 -25zM973 199q0 -45 43 -45q26 0 58 18t48 -8l21 -31q27 -37 -23 -78q-88 -76 -221 -75
q-188 0 -197 176q-121 -176 -311 -176q-162 0 -248 110t-86 323q0 214 130 406q63 93 165 149t244 56t238 -104l55 57q27 27 63 27h107q37 0 31 -37l-111 -709q-6 -45 -6 -59zM352 365q0 -217 144 -218q74 0 135 68t90 234l57 350q-66 66 -155 65q-121 0 -196 -141t-75 -358
z" />
    <glyph glyph-name="Aogonek" unicode="&#x104;" horiz-adv-x="1368" 
d="M1092 0q-127 -127 -127 -219q1 -41 23 -63q46 -45 142 -3q29 12 41 -8l13 -22q16 -31 -23 -60q-80 -55 -177 -55t-149 43t-53 111q0 133 205 276h-254q-37 0 -31 37l11 63q6 37 43 37h106q-8 78 -28 234h-465q-70 -156 -103 -234h109q37 0 31 -37l-11 -63q-6 -37 -43 -37
h-383q-33 0 -32 25q0 6 4 34l6 41q6 37 43 37h82q262 596 622 1188q16 31 56 31h133q35 0 47 -35q174 -592 246 -1184h84q33 0 32 -24q0 -6 -4 -35l-6 -41q-6 -37 -43 -37h-147zM434 512h379q-41 276 -102 547q-162 -303 -277 -547z" />
    <glyph glyph-name="aogonek" unicode="&#x105;" horiz-adv-x="1198" 
d="M352 365q0 -217 144 -218q74 0 136 68t89 234l57 350q-66 66 -155 65q-121 0 -196 -141t-75 -358zM866 -223q0 -37 23 -59q47 -45 143 -3q29 12 41 -8l12 -22q16 -31 -22 -60q-79 -55 -177 -55t-150 43t-52 114t55 139t140 114q-168 12 -177 176q-121 -176 -311 -176
q-162 0 -248 110t-86 323q0 214 130 406q63 93 165 149t244 56t238 -106l55 59q27 25 63 27h107q37 -4 31 -37l-111 -709q-6 -45 -6 -59q0 -45 43 -45q26 0 58 18t48 -8l21 -31q29 -41 -25 -78q-14 -12 -68 -46t-65 -42q-119 -79 -119 -190z" />
    <glyph glyph-name="Cacute" unicode="&#x106;" horiz-adv-x="1236" 
d="M746 1444q-12 0 -27 18l-19 25q-10 12 -10 26t15 29l260 268q25 25 49 -2l94 -125q10 -15 10 -25t-20 -22l-324 -184q-16 -8 -28 -8zM88 506q0 341 198 597q94 124 246 199q152 74 339 74t289 -71q102 -73 102 -175t-48 -163t-116 -61q-70 0 -109 32q-39 33 -39 86
q0 109 111 154q-74 49 -195 49t-218 -71q-97 -70 -148 -184q-101 -225 -101 -480q0 -350 295 -351q158 0 322 119q33 23 51 -4l27 -37q25 -35 -17 -72q-201 -167 -464 -167t-394 143t-131 383z" />
    <glyph glyph-name="cacute" unicode="&#x107;" horiz-adv-x="964" 
d="M524 1108q-12 0 -28 18l-19 25q-10 13 -10 27t14 28l260 269q13 12 25 12t25 -14l94 -125q21 -29 -11 -48l-323 -184q-15 -8 -27 -8zM66 410q0 258 152 436q153 178 407 178q155 0 241 -69t86 -187q0 -82 -44 -130t-106 -48t-100 37q-36 37 -36 85t30 90q31 42 84 56
q-41 37 -102 37q-104 0 -179 -80q-137 -146 -137 -409t187 -263q117 0 213 66q29 20 49 -10l23 -35q14 -23 9 -37t-32 -37q-137 -110 -338 -110t-304 114t-103 316z" />
    <glyph glyph-name="Ccircumflex" unicode="&#x108;" horiz-adv-x="1236" 
d="M604 1473q-14 0 -26 22l-15 25q-8 16 -8 28t20 27l302 221q12 10 27 10t30 -14l221 -217q16 -15 16 -29t-10 -28l-18 -25q-16 -20 -30 -20t-26 6l-213 102l-227 -96q-29 -12 -43 -12zM88 506q0 341 198 597q94 124 246 199q152 74 339 74t289 -71q102 -73 102 -175
t-48 -163t-116 -61q-70 0 -109 32q-39 33 -39 86q0 109 111 154q-74 49 -195 49t-218 -71q-97 -70 -148 -184q-101 -225 -101 -480q0 -350 295 -351q158 0 322 119q33 23 51 -4l27 -37q25 -35 -17 -72q-201 -167 -464 -167t-394 143t-131 383z" />
    <glyph glyph-name="ccircumflex" unicode="&#x109;" horiz-adv-x="964" 
d="M375 1133q-14 0 -27 22l-14 25q-8 16 -8 28t20 27l301 221q11 10 27 10t31 -14l221 -217q16 -15 16 -29t-10 -28l-19 -25q-16 -20 -29 -20t-26 6l-213 102l-227 -96q-29 -12 -43 -12zM66 410q0 258 152 436q153 178 407 178q155 0 241 -69t86 -187q0 -82 -44 -130
t-106 -48t-100 37q-36 37 -36 85t30 90q31 42 84 56q-41 37 -102 37q-104 0 -179 -80q-137 -146 -137 -409t187 -263q117 0 213 66q29 20 49 -10l23 -35q14 -23 9 -37t-32 -37q-137 -110 -338 -110t-304 114t-103 316z" />
    <glyph glyph-name="Cdotaccent" unicode="&#x10a;" horiz-adv-x="1236" 
d="M891 1800q71 0 111 -39t40 -105t-54 -118q-54 -51 -124 -51t-110 39q-41 40 -41 106t54 117t124 51zM88 506q0 341 198 597q94 124 246 199q152 74 339 74t289 -71q102 -73 102 -175t-48 -163t-116 -61q-70 0 -109 32q-39 33 -39 86q0 109 111 154q-74 49 -195 49
t-218 -71q-97 -70 -148 -184q-101 -225 -101 -480q0 -350 295 -351q158 0 322 119q33 23 51 -4l27 -37q25 -35 -17 -72q-201 -167 -464 -167t-394 143t-131 383z" />
    <glyph glyph-name="cdotaccent" unicode="&#x10b;" horiz-adv-x="964" 
d="M670 1462q70 0 110 -39t41 -105q0 -66 -54 -118q-53 -51 -123 -51t-112 39q-40 40 -40 106t54 117t124 51zM66 410q0 258 152 436q153 178 407 178q155 0 241 -69t86 -187q0 -82 -44 -130t-106 -48t-100 37q-36 37 -36 85t30 90q31 42 84 56q-41 37 -102 37
q-104 0 -179 -80q-137 -146 -137 -409t187 -263q117 0 213 66q29 20 49 -10l23 -35q14 -23 9 -37t-32 -37q-137 -110 -338 -110t-304 114t-103 316z" />
    <glyph glyph-name="Ccaron" unicode="&#x10c;" horiz-adv-x="1236" 
d="M1146 1806q18 0 28 -22l14 -25q8 -14 8 -26t-18 -29l-295 -217q-19 -17 -31 -17t-31 15l-223 217q-16 16 -16 28t10 27l18 29q12 20 27 20t27 -6l210 -102l232 98q22 10 40 10zM88 506q0 341 198 597q94 124 246 199q152 74 339 74t289 -71q102 -73 102 -175t-48 -163
t-116 -61q-70 0 -109 32q-39 33 -39 86q0 109 111 154q-74 49 -195 49t-218 -71q-97 -70 -148 -184q-101 -225 -101 -480q0 -350 295 -351q158 0 322 119q33 23 51 -4l27 -37q25 -35 -17 -72q-201 -167 -464 -167t-394 143t-131 383z" />
    <glyph glyph-name="ccaron" unicode="&#x10d;" horiz-adv-x="964" 
d="M922 1468q16 0 28 -22l15 -25q8 -14 8 -27t-19 -28l-295 -217q-20 -16 -31 -16t-30 14l-223 217q-26 26 -6 55l18 29q13 20 27 20t26 -6l211 -102l232 98q23 10 39 10zM66 410q0 258 152 436q153 178 407 178q155 0 241 -69t86 -187q0 -82 -44 -130t-106 -48t-100 37
q-36 37 -36 85t30 90q31 42 84 56q-41 37 -102 37q-104 0 -179 -80q-137 -146 -137 -409t187 -263q117 0 213 66q29 20 49 -10l23 -35q14 -23 9 -37t-32 -37q-137 -110 -338 -110t-304 114t-103 316z" />
    <glyph glyph-name="Dcaron" unicode="&#x10e;" horiz-adv-x="1404" 
d="M1086 1806q16 0 28 -22l14 -25q8 -14 8 -26t-18 -29l-295 -217q-20 -17 -31 -17t-30 15l-223 217q-25 25 -7 55l19 29q13 20 27 20t26 -6l211 -102l232 98q23 10 39 10zM1063 797q0 190 -75 302t-234 111h-133l-172 -1065h139q102 0 186 40t136 106q106 135 139 326
q14 88 14 180zM1374 772q0 -312 -218 -542t-556 -230h-559q-37 0 -31 37l10 63q6 37 43 37h84l172 1082h-83q-37 0 -31 36l10 64q6 37 43 37h553q259 0 411 -164t152 -420z" />
    <glyph glyph-name="dcaron" unicode="&#x10f;" horiz-adv-x="1214" 
d="M1212 1094q0 8 9 39l92 356q6 27 24 27q6 0 19 -5l131 -41q23 -6 22 -24q0 -9 -6 -21l-190 -348q-13 -25 -25 -25t-28 5l-21 6q-27 8 -27 31zM352 375q0 -227 152 -228q74 0 140 68t93 234l58 350q-66 65 -152 65t-143 -50q-94 -82 -132 -286q-16 -79 -16 -153zM989 199
q0 -45 43 -45q27 0 59 18t48 -8l20 -31q27 -37 -22 -78q-88 -76 -222 -75q-188 0 -196 176q-121 -176 -320 -176q-170 0 -256 116t-86 284q0 167 59 309q58 143 183 239t285 96t227 -84l74 444l-90 7q-37 2 -31 39l4 40q6 37 43 39l348 23q19 2 27 -7t4 -28l-195 -1239
q-6 -45 -6 -59z" />
    <glyph glyph-name="Dcroat" unicode="&#x110;" horiz-adv-x="1421" 
d="M768 612h-227l-76 -467h139q102 0 186 40t137 106q152 193 152 501q-1 195 -75 307t-234 111h-133l-74 -460h228q36 0 30 -37l-10 -64q-6 -37 -43 -37zM1391 772q-1 -312 -219 -542t-556 -230h-559q-37 0 -30 37l10 63q6 37 43 37h84l76 475h-125q-37 0 -31 37l10 64
q6 37 43 37h125l74 469h-84q-37 0 -31 36l10 64q6 37 43 37h553q260 0 412 -164t152 -420z" />
    <glyph glyph-name="dcroat" unicode="&#x111;" horiz-adv-x="1214" 
d="M989 199q0 -45 43 -45q27 0 59 18t48 -8l20 -31q27 -37 -22 -78q-88 -76 -222 -75q-188 0 -196 176q-121 -176 -320 -176q-170 0 -256 116t-86 284q0 167 59 309q58 143 183 239t285 96t227 -84l33 201h-213q-37 0 -31 37l8 51q6 37 43 37h213l21 118l-90 7q-37 2 -31 39
l4 40q6 37 43 39l348 23q19 2 27 -7t4 -28l-37 -231h72q37 0 30 -37l-8 -51q-6 -37 -43 -37h-69l-140 -883q-6 -45 -6 -59zM352 375q0 -227 152 -228q74 0 140 68t93 234l58 350q-66 65 -152 65t-143 -50q-94 -82 -132 -286q-16 -79 -16 -153z" />
    <glyph glyph-name="Emacron" unicode="&#x112;" horiz-adv-x="1171" 
d="M553 1683h440q33 0 33 -30q0 -6 -2 -19l-12 -86q-6 -37 -41 -37h-441q-33 0 -32 31q0 4 2 19l12 86q6 36 41 36zM63 137h84l172 1082h-83q-37 0 -31 36l10 64q6 37 43 37h891q35 0 35 -33q0 -14 -8 -76l-29 -205q-6 -37 -41 -36h-66q-37 0 -39 36l-10 168h-370l-74 -450
h250l18 110q6 37 43 37h70q37 0 30 -37l-57 -360q-6 -37 -43 -37h-70q-37 0 -30 37l18 111h-250l-77 -476h385l77 199q12 35 50 35h65q37 0 31 -37l-58 -305q-6 -37 -43 -37h-913q-33 0 -33 25q0 6 4 34l6 41q6 37 43 37z" />
    <glyph glyph-name="emacron" unicode="&#x113;" horiz-adv-x="1026" 
d="M428 1169q-33 0 -33 31q0 4 2 19l13 86q6 37 41 36h440q33 0 33 -30q0 -6 -2 -19l-13 -86q-6 -37 -41 -37h-440zM495 -20q-229 0 -329 120t-100 326q0 254 154 424q155 170 421 170q174 0 265 -70t91 -181t-52 -184t-139 -108q-162 -65 -368 -65h-82q4 -135 52 -203
t162 -68t231 74q33 20 53 -6l25 -35q22 -32 -5 -55q-150 -139 -379 -139zM727 754q0 66 -31 106t-88 39q-106 0 -171 -117t-79 -254h101q268 1 268 226z" />
    <glyph glyph-name="Ebreve" unicode="&#x114;" horiz-adv-x="1171" 
d="M766 1659q117 0 203 102q20 23 30 23t27 -8l31 -17q23 -10 23 -23t-5 -26q-45 -102 -134 -171t-195 -69t-172 64q-65 64 -85 158q-4 16 -4 34t29 33l33 17q12 6 20 6q16 0 36 -37t67 -61t96 -25zM63 137h84l172 1082h-83q-37 0 -31 36l10 64q6 37 43 37h891q35 0 35 -33
q0 -14 -8 -76l-29 -205q-6 -37 -41 -36h-66q-37 0 -39 36l-10 168h-370l-74 -450h250l18 110q6 37 43 37h70q37 0 30 -37l-57 -360q-6 -37 -43 -37h-70q-37 0 -30 37l18 111h-250l-77 -476h385l77 199q12 35 50 35h65q37 0 31 -37l-58 -305q-6 -37 -43 -37h-913
q-33 0 -33 25q0 6 4 34l6 41q6 37 43 37z" />
    <glyph glyph-name="ebreve" unicode="&#x115;" horiz-adv-x="1026" 
d="M659 1321q117 0 203 102q20 23 30 23t28 -8l30 -17q23 -12 23 -24t-4 -25q-45 -102 -134 -171t-195 -69t-172 64q-65 63 -85 158q-4 16 -4 34t29 33l32 17q12 6 21 6q15 0 35 -37t67 -61t96 -25zM495 -20q-229 0 -329 120t-100 326q0 254 154 424q155 170 421 170
q174 0 265 -70t91 -181t-52 -184t-139 -108q-162 -65 -368 -65h-82q4 -135 52 -203t162 -68t231 74q33 20 53 -6l25 -35q22 -32 -5 -55q-150 -139 -379 -139zM727 754q0 66 -31 106t-88 39q-106 0 -171 -117t-79 -254h101q268 1 268 226z" />
    <glyph glyph-name="Edotaccent" unicode="&#x116;" horiz-adv-x="1171" 
d="M936 1656q0 -66 -54 -118q-54 -51 -124 -51t-111 39q-41 40 -41 106t54 117t124 51t111 -39t41 -105zM63 137h84l172 1082h-83q-37 0 -31 36l10 64q6 37 43 37h891q35 0 35 -33q0 -14 -8 -76l-29 -205q-6 -37 -41 -36h-66q-37 0 -39 36l-10 168h-370l-74 -450h250l18 110
q6 37 43 37h70q37 0 30 -37l-57 -360q-6 -37 -43 -37h-70q-37 0 -30 37l18 111h-250l-77 -476h385l77 199q12 35 50 35h65q37 0 31 -37l-58 -305q-6 -37 -43 -37h-913q-33 0 -33 25q0 6 4 34l6 41q6 37 43 37z" />
    <glyph glyph-name="edotaccent" unicode="&#x117;" horiz-adv-x="1026" 
d="M834 1318q0 -66 -54 -118q-54 -51 -124 -51t-111 39q-41 40 -41 106t54 117t124 51t111 -39t41 -105zM495 -20q-229 0 -329 120t-100 326q0 254 154 424q155 170 421 170q174 0 265 -70t91 -181t-52 -184t-139 -108q-162 -65 -368 -65h-82q4 -135 52 -203t162 -68t231 74
q33 20 53 -6l25 -35q22 -32 -5 -55q-150 -139 -379 -139zM727 754q0 66 -31 106t-88 39q-106 0 -171 -117t-79 -254h101q268 1 268 226z" />
    <glyph glyph-name="Eogonek" unicode="&#x118;" horiz-adv-x="1171" 
d="M731 -223q0 -37 23 -59q47 -45 143 -3q29 12 41 -8l12 -22q16 -31 -22 -60q-80 -55 -178 -55t-149 43q-52 43 -52 111q0 133 205 276h-711q-33 0 -33 25q0 6 4 34l6 41q6 37 43 37h84l172 1082h-83q-37 0 -31 36l10 64q6 37 43 37h891q35 0 35 -33q0 -14 -8 -76l-29 -205
q-6 -37 -41 -36h-66q-37 0 -39 36l-10 168h-370l-74 -450h250l18 110q6 37 43 37h70q37 0 30 -37l-57 -360q-6 -37 -43 -37h-70q-37 0 -30 37l18 111h-250l-77 -476h385l77 199q12 35 50 35h65q37 0 31 -37l-58 -305q-6 -37 -43 -37h-98q-127 -127 -127 -223z" />
    <glyph glyph-name="eogonek" unicode="&#x119;" horiz-adv-x="1026" 
d="M727 754q1 145 -127 145q-66 -1 -123 -65q-95 -108 -119 -306h101q268 1 268 226zM410 -276q0 129 190 268q-55 -12 -121 -12q-213 0 -313 120t-100 326q0 254 154 424q155 170 421 170q174 0 265 -70t91 -181t-52 -184t-139 -108q-162 -65 -368 -65h-82q4 -135 52 -203
t164 -68t231 76q31 18 53 -10l25 -35q20 -29 -5 -52q-24 -24 -154 -128t-130 -215q0 -37 22 -59q47 -46 144 -3q29 12 41 -8l12 -22q16 -31 -23 -60q-80 -55 -177 -55t-149 43t-52 111z" />
    <glyph glyph-name="Ecaron" unicode="&#x11a;" horiz-adv-x="1171" 
d="M1040 1806q18 0 27 -22l14 -25q9 -14 9 -26t-19 -29l-295 -217q-20 -17 -32 -17t-29 15l-223 217q-25 25 -7 55l19 29q12 20 26 20t27 -6l211 -102l231 98q23 10 41 10zM63 137h84l172 1082h-83q-37 0 -31 36l10 64q6 37 43 37h891q35 0 35 -33q0 -14 -8 -76l-29 -205
q-6 -37 -41 -36h-66q-37 0 -39 36l-10 168h-370l-74 -450h250l18 110q6 37 43 37h70q37 0 30 -37l-57 -360q-6 -37 -43 -37h-70q-37 0 -30 37l18 111h-250l-77 -476h385l77 199q12 35 50 35h65q37 0 31 -37l-58 -305q-6 -37 -43 -37h-913q-33 0 -33 25q0 6 4 34l6 41
q6 37 43 37z" />
    <glyph glyph-name="ecaron" unicode="&#x11b;" horiz-adv-x="1026" 
d="M934 1468q16 0 29 -22l14 -25q8 -14 8 -27t-18 -28l-295 -217q-20 -16 -32 -16t-30 14l-223 217q-16 16 -16 28t10 27l18 29q13 20 27 20t27 -6l211 -102l231 98q23 10 39 10zM495 -20q-229 0 -329 120t-100 326q0 254 154 424q155 170 421 170q174 0 265 -70t91 -181
t-52 -184t-139 -108q-162 -65 -368 -65h-82q4 -135 52 -203t162 -68t231 74q33 20 53 -6l25 -35q22 -32 -5 -55q-150 -139 -379 -139zM727 754q0 66 -31 106t-88 39q-106 0 -171 -117t-79 -254h101q268 1 268 226z" />
    <glyph glyph-name="Gcircumflex" unicode="&#x11c;" horiz-adv-x="1394" 
d="M637 1473q-14 0 -27 22l-14 25q-8 16 -8 28t20 27l301 221q11 10 27 10t31 -14l221 -217q16 -15 16 -29t-10 -28l-18 -25q-16 -20 -30 -20t-26 6l-213 102l-227 -96q-29 -12 -43 -12zM664 -20q-278 0 -426 154q-150 154 -150 382q0 229 98 422q98 194 288 316t412 122
t331 -72t108 -186q0 -90 -47 -151q-46 -61 -116 -61t-109 32q-39 33 -39 86q0 106 102 150q-86 53 -221 53t-232 -71q-97 -72 -153 -184q-112 -226 -111 -476q0 -172 74 -270t225 -99q100 0 181 25l59 376h-104q-37 0 -31 37l10 64q6 37 43 37h490q37 0 30 -37l-10 -64
q-6 -37 -43 -37h-84l-63 -401q-6 -35 -39 -51q-195 -96 -473 -96z" />
    <glyph glyph-name="gcircumflex" unicode="&#x11d;" horiz-adv-x="1181" 
d="M424 1133q-14 0 -27 22l-14 25q-8 16 -8 28t20 27l301 221q12 10 28 10t30 -14l221 -217q16 -15 16 -29t-10 -28l-18 -25q-15 -20 -29 -20t-27 6l-213 102l-227 -96q-29 -12 -43 -12zM383 -430q-174 0 -282 66t-107 186q0 76 42 119t110 43t104 -31q37 -31 37 -84
q0 -88 -78 -125q63 -51 147 -51q268 0 318 313l24 156q-110 -142 -284 -142t-259 113t-85 277t57 298t180 225t287 91t262 -106l57 59q25 27 62 27h104q37 0 31 -37l-139 -901q-39 -250 -199 -373t-389 -123zM365 406q0 -217 151 -218q74 0 140 68t94 233l51 310
q-66 65 -152 65t-142 -47t-85 -120q-57 -143 -57 -291z" />
    <glyph glyph-name="Gbreve" unicode="&#x11e;" horiz-adv-x="1394" 
d="M905 1659q117 0 203 102q20 23 30 23t27 -8l31 -17q23 -10 23 -23t-5 -26q-45 -102 -134 -171t-195 -69t-171 64t-85 158q-4 16 -4 34t28 33l33 17q12 6 21 6q15 0 35 -37t67 -61t96 -25zM664 -20q-278 0 -426 154q-150 154 -150 382q0 229 98 422q98 194 288 316
t412 122t331 -72t108 -186q0 -90 -47 -151q-46 -61 -116 -61t-109 32q-39 33 -39 86q0 106 102 150q-86 53 -221 53t-232 -71q-97 -72 -153 -184q-112 -226 -111 -476q0 -172 74 -270t225 -99q100 0 181 25l59 376h-104q-37 0 -31 37l10 64q6 37 43 37h490q37 0 30 -37
l-10 -64q-6 -37 -43 -37h-84l-63 -401q-6 -35 -39 -51q-195 -96 -473 -96z" />
    <glyph glyph-name="gbreve" unicode="&#x11f;" horiz-adv-x="1181" 
d="M696 1321q117 0 203 102q21 23 31 23t26 -8l31 -17q23 -12 23 -24t-4 -25q-44 -102 -134 -171t-196 -69t-171 64q-65 63 -85 158q-4 16 -4 34t28 33l33 17q12 6 21 6q16 0 36 -37t66 -61q47 -24 96 -25zM383 -430q-174 0 -282 66t-107 186q0 76 42 119t110 43t104 -31
q37 -31 37 -84q0 -88 -78 -125q63 -51 147 -51q268 0 318 313l24 156q-110 -142 -284 -142t-259 113t-85 277t57 298t180 225t287 91t262 -106l57 59q25 27 62 27h104q37 0 31 -37l-139 -901q-39 -250 -199 -373t-389 -123zM365 406q0 -217 151 -218q74 0 140 68t94 233
l51 310q-66 65 -152 65t-142 -47t-85 -120q-57 -143 -57 -291z" />
    <glyph glyph-name="Gdotaccent" unicode="&#x120;" horiz-adv-x="1394" 
d="M745 1632q1 66 55 117t124 51t110 -39t41 -105q0 -66 -54 -118q-53 -51 -123 -51t-112 39q-41 40 -41 106zM664 -20q-278 0 -426 154q-150 154 -150 382q0 229 98 422q98 194 288 316t412 122t331 -72t108 -186q0 -90 -47 -151q-46 -61 -116 -61t-109 32q-39 33 -39 86
q0 106 102 150q-86 53 -221 53t-232 -71q-97 -72 -153 -184q-112 -226 -111 -476q0 -172 74 -270t225 -99q100 0 181 25l59 376h-104q-37 0 -31 37l10 64q6 37 43 37h490q37 0 30 -37l-10 -64q-6 -37 -43 -37h-84l-63 -401q-6 -35 -39 -51q-195 -96 -473 -96z" />
    <glyph glyph-name="gdotaccent" unicode="&#x121;" horiz-adv-x="1181" 
d="M719 1462q71 0 111 -39t40 -105t-54 -118q-54 -51 -124 -51t-110 39q-41 40 -41 106t54 117t124 51zM383 -430q-174 0 -282 66t-107 186q0 76 42 119t110 43t104 -31q37 -31 37 -84q0 -88 -78 -125q63 -51 147 -51q268 0 318 313l24 156q-110 -142 -284 -142t-259 113
t-85 277t57 298t180 225t287 91t262 -106l57 59q25 27 62 27h104q37 0 31 -37l-139 -901q-39 -250 -199 -373t-389 -123zM365 406q0 -217 151 -218q74 0 140 68t94 233l51 310q-66 65 -152 65t-142 -47t-85 -120q-57 -143 -57 -291z" />
    <glyph glyph-name="Gcommaaccent" unicode="&#x122;" horiz-adv-x="1394" 
d="M483 -212q0 64 47 108q46 44 106 43q60 0 96 -32t36 -85q0 -52 -40 -106t-83 -85q-128 -92 -148 -92q-21 -1 -35 19q-16 20 -16 32t37 42t66 63q-66 29 -66 93zM664 -20q-278 0 -426 154q-150 154 -150 382q0 229 98 422q98 194 288 316t412 122t331 -72t108 -186
q0 -90 -47 -151q-46 -61 -116 -61t-109 32q-39 33 -39 86q0 106 102 150q-86 53 -221 53t-232 -71q-97 -72 -153 -184q-112 -226 -111 -476q0 -172 74 -270t225 -99q100 0 181 25l59 376h-104q-37 0 -31 37l10 64q6 37 43 37h490q37 0 30 -37l-10 -64q-6 -37 -43 -37h-84
l-63 -401q-6 -35 -39 -51q-195 -96 -473 -96z" />
    <glyph glyph-name="gcommaaccent" unicode="&#x123;" horiz-adv-x="1181" 
d="M684 1149q-60 0 -95 32q-36 32 -36 85t40 106t84 85q125 91 147 91t36 -19t14 -31t-36 -42q-36 -31 -66 -63q66 -29 66 -93t-47 -108q-47 -43 -107 -43zM383 -430q-174 0 -282 66t-107 186q0 76 42 119t110 43t104 -31q37 -31 37 -84q0 -88 -78 -125q63 -51 147 -51
q268 0 318 313l24 156q-110 -142 -284 -142t-259 113t-85 277t57 298t180 225t287 91t262 -106l57 59q25 27 62 27h104q37 0 31 -37l-139 -901q-39 -250 -199 -373t-389 -123zM365 406q0 -217 151 -218q74 0 140 68t94 233l51 310q-66 65 -152 65t-142 -47t-85 -120
q-57 -143 -57 -291z" />
    <glyph glyph-name="Hcircumflex" unicode="&#x124;" horiz-adv-x="1542" 
d="M672 1473q-14 0 -27 22l-14 25q-8 16 -8 28t20 27l301 221q12 10 28 10t29 -14l222 -217q16 -15 16 -29t-10 -28l-19 -25q-16 -20 -30 -20t-25 6l-213 102l-227 -96q-29 -12 -43 -12zM1556 1356q33 0 33 -25q0 -6 -4 -35l-6 -41q-6 -37 -43 -36h-84l-172 -1082h84
q37 0 31 -37l-11 -63q-6 -37 -43 -37h-469q-37 0 -30 37l10 63q6 37 43 37h84l76 475h-531l-75 -475h83q37 0 31 -37l-10 -63q-6 -37 -43 -37h-467q-33 0 -33 25q0 6 4 34l6 41q6 37 43 37h84l172 1082h-83q-37 0 -31 36l10 64q6 37 43 37h469q37 0 31 -37l-10 -64
q-6 -37 -43 -36h-84l-74 -459h530l74 459h-84q-37 0 -31 36l11 64q6 37 43 37h466z" />
    <glyph glyph-name="hcircumflex" unicode="&#x125;" horiz-adv-x="1200" 
d="M205 1604q-14 0 -27 22l-14 25q-8 16 -8 28t20 27l301 221q11 10 27 10t31 -14l221 -217q16 -16 16 -30t-10 -27l-19 -25q-16 -20 -29 -20t-26 6l-213 102l-227 -96q-29 -12 -43 -12zM991 199q0 -45 43 -45q27 0 59 18t48 -8l20 -31q27 -37 -22 -78q-88 -76 -221 -75
q-213 0 -213 192q0 39 18 150l51 327q33 209 -104 209q-74 0 -140 -68t-92 -243l-78 -510q-6 -37 -43 -37h-215q-37 0 -30 37l211 1347l-90 7q-37 2 -31 39l6 40q6 37 43 39l346 23q19 2 27 -7t4 -28l-99 -629q103 156 285 156t247 -106t38 -275l-62 -385q-6 -45 -6 -59z
" />
    <glyph glyph-name="Hbar" unicode="&#x126;" horiz-adv-x="1583" 
d="M63 0q-33 0 -32 25q0 6 4 34l6 41q6 37 43 37h84l121 760h-125q-37 0 -31 37l10 63q6 37 43 37h125l29 185h-84q-37 0 -31 36l11 64q6 37 43 37h469q37 0 30 -37l-10 -64q-6 -37 -43 -36h-84l-29 -185h531l28 185h-84q-37 0 -30 36l10 64q6 37 43 37h467q33 0 33 -25
q0 -6 -4 -35l-7 -41q-6 -37 -43 -36h-83l-29 -185h117q31 0 30 -30q0 -2 -4 -31l-6 -39q-6 -37 -43 -37h-117l-121 -760h84q37 0 31 -37l-10 -63q-6 -37 -43 -37h-469q-37 0 -31 37l10 63q6 37 43 37h84l70 432h-530l-70 -432h84q37 0 31 -37l-11 -63q-6 -37 -43 -37h-467z
M561 717h531l28 180h-530z" />
    <glyph glyph-name="hbar" unicode="&#x127;" horiz-adv-x="1200" 
d="M705 172q0 39 18 150l51 327q35 209 -104 209q-74 0 -140 -68t-92 -243l-78 -510q-6 -37 -43 -37h-215q-37 0 -30 37l172 1104h-88q-37 0 -31 37l8 51q6 37 43 37h88l19 118l-90 7q-37 2 -31 39l6 40q6 37 43 39l346 23q19 2 27 -7t4 -28l-37 -231h205q37 0 30 -37
l-8 -51q-6 -37 -43 -37h-203l-43 -273q103 156 285 156t247 -106t38 -275l-62 -385q-6 -45 -6 -59q0 -45 43 -45q27 0 59 18t48 -8l20 -31q27 -37 -22 -78q-88 -76 -221 -75q-213 0 -213 192z" />
    <glyph glyph-name="Itilde" unicode="&#x128;" horiz-adv-x="710" 
d="M643 1477q-53 0 -135 45t-119 45q-68 0 -119 -54q-14 -14 -27 -14t-28 10l-20 15q-29 19 -13 53q98 182 230 182q53 0 135 -45t119 -45q70 0 118 51q25 29 56 6l20 -14q31 -21 12 -53q-98 -182 -229 -182zM705 1219h-84l-172 -1082h83q37 0 31 -37l-10 -63
q-6 -37 -43 -37h-467q-33 0 -33 25q0 6 4 34l6 41q6 37 43 37h84l172 1082h-83q-37 0 -31 36l10 64q6 37 43 37h467q33 0 33 -25q0 -6 -4 -35l-6 -41q-6 -36 -43 -36z" />
    <glyph glyph-name="itilde" unicode="&#x129;" horiz-adv-x="647" 
d="M553 1139q-53 0 -135 45t-119 45q-68 0 -119 -53q-25 -25 -55 -5l-21 15q-18 12 -18 26t6 27q98 182 230 182q53 0 135 -45t118 -45q70 0 119 51q25 28 56 7l20 -15q18 -12 18 -26t-6 -27q-98 -182 -229 -182zM348 -20q-213 0 -213 192q0 51 17 150l84 542l-91 6
q-31 2 -30 25q0 12 2 29l4 26q6 37 43 39l346 23q18 2 26 -7t5 -28l-113 -719q-6 -45 -6 -59q0 -45 43 -45q27 0 59 18t47 -8l17 -25q14 -23 14 -39t-33 -45q-88 -75 -221 -75z" />
    <glyph glyph-name="Imacron" unicode="&#x12a;" horiz-adv-x="710" 
d="M313 1683h441q33 0 32 -30q0 -6 -2 -19l-12 -86q-6 -37 -41 -37h-440q-33 0 -33 31q0 4 2 19l12 86q6 36 41 36zM705 1219h-84l-172 -1082h83q37 0 31 -37l-10 -63q-6 -37 -43 -37h-467q-33 0 -33 25q0 6 4 34l6 41q6 37 43 37h84l172 1082h-83q-37 0 -31 36l10 64
q6 37 43 37h467q33 0 33 -25q0 -6 -4 -35l-6 -41q-6 -36 -43 -36z" />
    <glyph glyph-name="imacron" unicode="&#x12b;" horiz-adv-x="647" 
d="M205 1169q-33 0 -33 31q0 4 2 19l12 86q6 37 41 36h441q33 0 32 -30q0 -6 -2 -19l-12 -86q-6 -37 -41 -37h-440zM348 -20q-213 0 -213 192q0 51 17 150l84 542l-91 6q-31 2 -30 25q0 12 2 29l4 26q6 37 43 39l346 23q18 2 26 -7t5 -28l-113 -719q-6 -45 -6 -59
q0 -45 43 -45q27 0 59 18t47 -8l17 -25q14 -23 14 -39t-33 -45q-88 -75 -221 -75z" />
    <glyph glyph-name="Ibreve" unicode="&#x12c;" horiz-adv-x="710" 
d="M526 1659q117 0 203 102q21 23 31 23t26 -8l31 -17q23 -10 23 -23t-4 -26q-44 -102 -134 -171t-196 -69t-171 64t-85 158q-4 16 -4 34t28 33l33 17q12 6 21 6q16 0 36 -37t66 -61q47 -24 96 -25zM705 1219h-84l-172 -1082h83q37 0 31 -37l-10 -63q-6 -37 -43 -37h-467
q-33 0 -33 25q0 6 4 34l6 41q6 37 43 37h84l172 1082h-83q-37 0 -31 36l10 64q6 37 43 37h467q33 0 33 -25q0 -6 -4 -35l-6 -41q-6 -36 -43 -36z" />
    <glyph glyph-name="ibreve" unicode="&#x12d;" horiz-adv-x="647" 
d="M436 1321q117 0 203 102q21 23 31 23t26 -8l31 -17q23 -12 23 -24t-5 -25q-45 -102 -134 -171t-195 -69t-171 64q-65 63 -85 158q-4 16 -4 34t28 33l33 17q12 6 21 6q16 0 36 -37t66 -61q47 -24 96 -25zM348 -20q-213 0 -213 192q0 51 17 150l84 542l-91 6q-31 2 -30 25
q0 12 2 29l4 26q6 37 43 39l346 23q18 2 26 -7t5 -28l-113 -719q-6 -45 -6 -59q0 -45 43 -45q27 0 59 18t47 -8l17 -25q14 -23 14 -39t-33 -45q-88 -75 -221 -75z" />
    <glyph glyph-name="Iogonek" unicode="&#x12e;" horiz-adv-x="710" 
d="M334 0q-127 -127 -127 -219q1 -41 23 -63q47 -46 143 -3q29 12 41 -8l12 -22q16 -31 -23 -60q-80 -55 -177 -55t-149 43t-52 111q0 133 204 276h-186q-33 0 -33 25q0 6 4 34l6 41q6 37 43 37h84l172 1082h-83q-37 0 -31 36l10 64q6 37 43 37h467q33 0 33 -25q0 -6 -4 -35
l-6 -41q-6 -37 -43 -36h-84l-172 -1082h83q37 0 31 -37l-10 -63q-6 -37 -43 -37h-176z" />
    <glyph glyph-name="iogonek" unicode="&#x12f;" horiz-adv-x="647" 
d="M422 199q0 -45 43 -45q27 0 59 18t47 -8l21 -31q27 -39 -23 -76q-27 -20 -73 -49t-62 -41q-119 -80 -119 -190q0 -37 23 -59q24 -22 64 -22t74 16q34 15 46 -5l13 -22q16 -31 -23 -60q-80 -55 -178 -55t-149 43q-52 43 -52 114t55 139t140 114q-193 10 -193 192
q0 51 17 150l84 542l-91 6q-37 2 -30 39l6 41q6 37 43 39l346 23q18 2 26 -7t5 -28l-113 -719q-6 -45 -6 -59zM618 1334q0 -70 -55 -123q-55 -52 -129 -52t-115 39q-41 40 -41 110t56 122q55 52 128 53q73 0 115 -39q41 -40 41 -110z" />
    <glyph glyph-name="Idotaccent" unicode="&#x130;" horiz-adv-x="710" 
d="M545 1800q71 0 111 -39t40 -105t-54 -118q-54 -51 -124 -51t-110 39q-41 40 -41 106t54 117t124 51zM705 1219h-84l-172 -1082h83q37 0 31 -37l-10 -63q-6 -37 -43 -37h-467q-33 0 -33 25q0 6 4 34l6 41q6 37 43 37h84l172 1082h-83q-37 0 -31 36l10 64q6 37 43 37h467
q33 0 33 -25q0 -6 -4 -35l-6 -41q-6 -36 -43 -36z" />
    <glyph glyph-name="dotlessi" unicode="&#x131;" horiz-adv-x="647" 
d="M348 -20q-213 0 -213 192q0 51 17 150l84 542l-91 6q-31 2 -30 25q0 12 2 29l4 26q6 37 43 39l346 23q18 2 26 -7t5 -28l-113 -719q-6 -45 -6 -59q0 -45 43 -45q27 0 59 18t47 -8l17 -25q14 -23 14 -39t-33 -45q-88 -75 -221 -75z" />
    <glyph glyph-name="IJ" unicode="&#x132;" horiz-adv-x="1429" 
d="M748 1356q37 0 30 -37l-10 -64q-6 -37 -43 -36h-82l-76 -474h86q37 0 31 -36l-10 -64q-6 -37 -43 -37h-467q-33 0 -33 25q0 6 4 35l6 41q2 37 43 36h82l76 474h-86q-37 0 -31 36l11 64q6 37 43 37h469zM1477 1356q33 0 32 -25q0 -6 -4 -35l-6 -41q-6 -37 -43 -36h-84
l-96 -609q-51 -315 -214 -473t-462 -157q-200 0 -320 92t-120 227q0 82 50 142q50 61 120 61t104 -32q35 -32 35 -85q0 -113 -117 -162q80 -92 250 -92t249 97t118 341l102 650h-104q-37 0 -31 36l10 64q6 37 43 37h488z" />
    <glyph glyph-name="ij" unicode="&#x133;" horiz-adv-x="1241" 
d="M274 -251q0 79 41 120t99 41t91 -32q34 -32 34 -77q0 -72 -68 -112q20 -12 55 -13q158 0 199 273l141 915l-90 6q-37 2 -31 39l7 41q6 37 43 39l346 23q18 2 26 -7t4 -28l-149 -961q-35 -227 -159 -337t-308 -109q-133 0 -207 50t-74 129zM909 1308q-1 70 55 122t129 53
t115 -39t41 -110q0 -70 -55 -123q-55 -52 -129 -52t-115 39q-41 40 -41 110zM135 172q0 51 17 150l81 540l-88 8q-37 2 -30 39l6 41q6 37 43 39l346 23q18 2 26 -7t5 -28l-113 -719q-6 -45 -6 -59q0 -45 43 -45q27 0 59 18t47 -8l21 -31q26 -37 -23 -78q-88 -76 -221 -75
q-213 0 -213 192zM618 1334q0 -70 -55 -123q-55 -52 -129 -52t-115 39q-41 40 -41 110t56 122q55 52 128 53q73 0 115 -39q41 -40 41 -110z" />
    <glyph glyph-name="Jcircumflex" unicode="&#x134;" horiz-adv-x="1105" 
d="M682 1473q-14 0 -27 22l-14 25q-8 16 -8 28t20 27l301 221q12 10 28 10t30 -14l221 -217q16 -15 16 -29t-10 -28l-18 -25q-16 -20 -30 -20t-26 6l-213 102l-227 -96q-29 -12 -43 -12zM1128 1219h-84l-118 -742q-80 -498 -541 -497q-182 0 -286 73q-103 74 -103 193
q0 80 46 131t110 51t101 -32q36 -32 36 -85q0 -98 -105 -143q55 -45 168 -45q114 0 178 80t93 258l120 758h-104q-37 0 -31 36l10 64q6 37 44 37h487q33 0 33 -25q0 -6 -4 -35l-7 -41q-6 -36 -43 -36z" />
    <glyph glyph-name="jcircumflex" unicode="&#x135;" horiz-adv-x="618" 
d="M172 1133q-14 0 -27 22l-14 25q-8 16 -8 28t20 27l301 221q12 10 28 10t30 -14l221 -217q16 -15 16 -29t-10 -28l-18 -25q-15 -20 -29 -20t-27 6l-213 102l-227 -96q-29 -12 -43 -12zM-348 -251q0 79 41 120t98 41t91 -32t34 -77q0 -72 -68 -112q20 -12 56 -13
q156 0 198 273l142 915l-90 6q-37 2 -31 39l6 41q6 37 43 39l346 23q33 4 33 -27q0 -10 -14 -100l-138 -869q-35 -227 -159 -337t-308 -109q-132 0 -206 50t-74 129z" />
    <glyph glyph-name="Kcommaaccent" unicode="&#x136;" horiz-adv-x="1380" 
d="M656 -61q60 0 95 -32t35 -85q0 -52 -40 -106t-82 -85q-126 -92 -148 -92q-22 -1 -36 19q-15 20 -15 32q1 12 37 42t65 63q-65 29 -65 93t47 108t107 43zM1253 137q37 0 31 -37l-10 -63q-6 -37 -43 -37h-295q-35 0 -47 35q-90 326 -273 579q-51 -41 -104 -73l-63 -404h83
q37 0 31 -37l-10 -63q-6 -37 -43 -37h-467q-33 0 -33 25q0 6 4 34l6 41q6 37 43 37h84l172 1082h-83q-37 0 -31 36l10 64q6 37 43 37h469q37 0 31 -37l-10 -64q-6 -37 -43 -36h-84l-78 -496q287 217 534 496h-88q-37 0 -31 36l11 64q6 37 43 37h389q33 0 33 -25q0 -6 -4 -35
l-7 -41q-6 -37 -43 -36h-98q-201 -231 -436 -428q211 -281 332 -654h75z" />
    <glyph glyph-name="kcommaaccent" unicode="&#x137;" horiz-adv-x="1171" 
d="M399 -212q0 64 47 108q46 44 106 43q60 0 96 -32t36 -85q0 -52 -40 -106t-83 -85q-128 -92 -148 -92q-21 -1 -35 19q-16 20 -16 32t37 42t66 63q-66 29 -66 93zM811 739q0 121 -96 121t-178 -105t-107 -261l-72 -457q-6 -37 -43 -37h-215q-31 0 -30 25q0 6 12 75
l201 1284l-90 7q-37 2 -31 39l6 40q6 37 43 39l346 23q19 2 27 -7t4 -28l-105 -672q133 199 351 199q132 0 200 -68t68 -190t-90 -211q-90 -88 -228 -119l129 -213q33 -55 49 -62q17 -7 34 -7t42 15t39 -7l21 -33q10 -17 10 -33t-27 -43q-74 -74 -209 -73q-90 0 -145 38
t-98 134l-105 225q-14 33 -10 61l4 29q6 31 41 33q129 8 191 75q61 68 61 164z" />
    <glyph glyph-name="Lacute" unicode="&#x139;" horiz-adv-x="1042" 
d="M400 1444q-12 0 -27 18l-19 25q-10 12 -10 26t14 29l260 268q26 26 50 -2l94 -125q10 -15 10 -25t-20 -22l-324 -184q-16 -8 -28 -8zM43 0q-33 0 -33 25q0 6 4 34l6 41q6 37 43 37h84l172 1082h-83q-37 0 -31 36l10 64q6 37 43 37h490q37 0 30 -37l-10 -64
q-6 -37 -43 -36h-104l-172 -1074h294l88 228q14 35 52 35h67q29 0 29 -29q0 -14 -6 -43l-55 -299q-6 -37 -44 -37h-831z" />
    <glyph glyph-name="lacute" unicode="&#x13a;" horiz-adv-x="610" 
d="M356 1620q-12 0 -28 18l-19 25q-10 13 -10 27t14 28l260 269q13 12 25 12t25 -14l94 -125q10 -14 10 -25t-20 -23l-324 -184q-15 -8 -27 -8zM586 1505q0 -10 -15 -100l-180 -1147q-6 -45 -6 -59q0 -45 43 -45q26 0 58 18t49 -8l20 -31q27 -37 -23 -78q-88 -76 -221 -75
q-213 0 -213 192q1 52 17 150l166 1062l-91 7q-37 2 -30 39l6 40q6 37 43 39l344 23q33 4 33 -27z" />
    <glyph glyph-name="Lcommaaccent" unicode="&#x13b;" horiz-adv-x="1042" 
d="M486 -61q60 0 95 -32t35 -85q0 -52 -40 -106t-82 -85q-128 -92 -149 -92q-21 -1 -35 19q-15 20 -15 32q1 12 37 42t65 63q-65 29 -65 93t47 108t107 43zM43 0q-33 0 -33 25q0 6 4 34l6 41q6 37 43 37h84l172 1082h-83q-37 0 -31 36l10 64q6 37 43 37h490q37 0 30 -37
l-10 -64q-6 -37 -43 -36h-104l-172 -1074h294l88 228q14 35 52 35h67q29 0 29 -29q0 -14 -6 -43l-55 -299q-6 -37 -44 -37h-831z" />
    <glyph glyph-name="lcommaaccent" unicode="&#x13c;" horiz-adv-x="610" 
d="M137 -212q0 64 47 108q46 44 106 43q60 0 96 -32t36 -85q0 -52 -40 -106t-83 -85q-128 -92 -148 -92q-21 -1 -35 19q-16 20 -16 32t37 42t66 63q-66 29 -66 93zM586 1505q0 -10 -15 -100l-180 -1147q-6 -45 -6 -59q0 -45 43 -45q26 0 58 18t49 -8l20 -31q27 -37 -23 -78
q-88 -76 -221 -75q-213 0 -213 192q1 52 17 150l166 1062l-91 7q-37 2 -30 39l6 40q6 37 43 39l344 23q33 4 33 -27z" />
    <glyph glyph-name="Lcaron" unicode="&#x13d;" horiz-adv-x="1042" 
d="M918 1354q6 0 18 -4l131 -41q23 -6 23 -25q-1 -8 -7 -20l-190 -349q-13 -25 -25 -25t-28 5l-21 6q-27 8 -26 31q0 8 8 39l92 356q6 27 25 27zM43 0q-33 0 -33 25q0 6 4 34l6 41q6 37 43 37h84l172 1082h-83q-37 0 -31 36l10 64q6 37 43 37h490q37 0 30 -37l-10 -64
q-6 -37 -43 -36h-104l-172 -1074h294l88 228q14 35 52 35h67q29 0 29 -29q0 -14 -6 -43l-55 -299q-6 -37 -44 -37h-831z" />
    <glyph glyph-name="lcaron" unicode="&#x13e;" horiz-adv-x="610" 
d="M610 1094q0 8 8 39l93 356q6 27 24 27q6 0 19 -5l131 -41q23 -6 22 -24q0 -9 -6 -21l-190 -348q-13 -25 -25 -25t-29 5l-20 6q-27 8 -27 31zM586 1505q0 -10 -15 -100l-180 -1147q-6 -45 -6 -59q0 -45 43 -45q26 0 58 18t49 -8l20 -31q27 -37 -23 -78q-88 -76 -221 -75
q-213 0 -213 192q1 52 17 150l166 1062l-91 7q-37 2 -30 39l6 40q6 37 43 39l344 23q33 4 33 -27z" />
    <glyph glyph-name="Ldot" unicode="&#x13f;" horiz-adv-x="1042" 
d="M735 796q0 76 53 134q54 58 132 57q78 0 118 -44t41 -121q0 -77 -53 -134t-131 -57t-119 44q-41 45 -41 121zM43 0q-33 0 -33 25q0 6 4 34l6 41q6 37 43 37h84l172 1082h-83q-37 0 -31 36l10 64q6 37 43 37h490q37 0 30 -37l-10 -64q-6 -37 -43 -36h-104l-172 -1074h294
l88 228q14 35 52 35h67q29 0 29 -29q0 -14 -6 -43l-55 -299q-6 -37 -44 -37h-831z" />
    <glyph glyph-name="ldot" unicode="&#x140;" horiz-adv-x="948" 
d="M600 576q0 76 53 134t131 58t120 -44q40 -44 40 -121t-53 -134t-131 -57t-119 44t-41 120zM586 1505q0 -10 -15 -100l-180 -1147q-6 -45 -6 -59q0 -45 43 -45q26 0 58 18t49 -8l20 -31q27 -37 -23 -78q-88 -76 -221 -75q-213 0 -213 192q1 52 17 150l166 1062l-91 7
q-37 2 -30 39l6 40q6 37 43 39l344 23q33 4 33 -27z" />
    <glyph glyph-name="Lslash" unicode="&#x141;" horiz-adv-x="1062" 
d="M903 408h68q29 0 28 -29q0 -14 -6 -43l-55 -299q-6 -37 -43 -37h-832q-33 0 -32 25q0 6 4 34l6 41q6 37 43 37h84l65 412l-127 -64q-25 -10 -28 -10q-12 0 -12 14q0 4 6 41l10 60q6 37 39 53l139 70l80 506h-84q-37 0 -31 36l11 64q6 37 43 37h489q37 0 31 -37l-11 -64
q-6 -37 -43 -36h-104l-55 -342l223 110q25 10 29 10q12 0 12 -14q0 -4 -6 -41l-10 -59q-6 -37 -39 -54l-234 -116l-92 -568h295l88 228q14 35 51 35z" />
    <glyph glyph-name="lslash" unicode="&#x142;" horiz-adv-x="647" 
d="M684 998q0 -14 -2 -23l-10 -66q-6 -37 -39 -53l-141 -74l-82 -524q-6 -45 -7 -59q0 -45 43 -45q27 0 59 18t48 -8l20 -31q27 -37 -22 -78q-88 -76 -221 -75q-213 0 -213 192q0 51 16 150l47 296l-121 -63q-27 -14 -38 -14t-5 37l11 65q6 37 39 53l137 74l96 614l-90 7
q-37 2 -31 39l6 40q6 37 43 39l346 23q18 2 27 -7q8 -10 4 -28l-88 -563l123 63q27 14 33 15q12 0 12 -14z" />
    <glyph glyph-name="Nacute" unicode="&#x143;" horiz-adv-x="1513" 
d="M803 1444q-12 0 -27 18l-18 25q-10 12 -10 26t14 29l260 268q26 26 49 -2l94 -125q10 -15 10 -25t-20 -22l-324 -184q-16 -8 -28 -8zM1522 1219h-84l-189 -1182q-6 -37 -43 -37h-192q-37 0 -51 33l-496 1085l-156 -981h84q37 0 31 -37l-10 -63q-6 -37 -43 -37h-330
q-33 0 -33 25q0 6 4 34l6 41q6 37 43 37h84l172 1082h-83q-37 0 -31 36l10 64q6 37 43 37h373q37 0 51 -33l451 -991l139 887h-84q-37 0 -31 36l10 64q6 37 43 37h332q33 0 33 -25q0 -6 -4 -35l-6 -41q-6 -36 -43 -36z" />
    <glyph glyph-name="nacute" unicode="&#x144;" horiz-adv-x="1239" 
d="M614 1108q-12 0 -28 18l-19 25q-10 13 -10 27t14 28l260 269q13 12 25 12t25 -14l94 -125q10 -14 10 -25t-20 -23l-324 -184q-15 -8 -27 -8zM1030 199q0 -45 43 -45q27 0 59 18t48 -8l20 -31q27 -37 -22 -78q-88 -76 -222 -75q-213 0 -213 192q0 39 19 150l51 327
q35 209 -104 209q-74 0 -140 -68t-92 -243l-78 -510q-6 -37 -43 -37h-213q-37 0 -30 37l127 829l-90 6q-37 2 -31 39l6 41q6 37 43 39l328 21q18 2 26 -7t4 -28l-22 -139q115 186 323 186q168 0 233 -106t38 -275l-62 -385q-6 -45 -6 -59z" />
    <glyph glyph-name="Ncommaaccent" unicode="&#x145;" horiz-adv-x="1513" 
d="M662 -61q60 0 95 -32q36 -32 36 -85q0 -52 -40 -106t-83 -85q-128 -92 -149 -92q-21 -1 -35 19q-15 20 -15 32t37 42t65 63q-65 29 -65 93t47 108t107 43zM1522 1219h-84l-189 -1182q-6 -37 -43 -37h-192q-37 0 -51 33l-496 1085l-156 -981h84q37 0 31 -37l-10 -63
q-6 -37 -43 -37h-330q-33 0 -33 25q0 6 4 34l6 41q6 37 43 37h84l172 1082h-83q-37 0 -31 36l10 64q6 37 43 37h373q37 0 51 -33l451 -991l139 887h-84q-37 0 -31 36l10 64q6 37 43 37h332q33 0 33 -25q0 -6 -4 -35l-6 -41q-6 -36 -43 -36z" />
    <glyph glyph-name="ncommaaccent" unicode="&#x146;" horiz-adv-x="1239" 
d="M560 -61q60 0 96 -32t36 -85q0 -52 -40 -106t-83 -85q-128 -92 -148 -92q-21 -1 -35 19q-15 20 -15 32q1 12 37 42t65 63q-65 29 -65 93t46 108t106 43zM1030 199q0 -45 43 -45q27 0 59 18t48 -8l20 -31q27 -37 -22 -78q-88 -76 -222 -75q-213 0 -213 192q0 39 19 150
l51 327q35 209 -104 209q-74 0 -140 -68t-92 -243l-78 -510q-6 -37 -43 -37h-213q-37 0 -30 37l127 829l-90 6q-37 2 -31 39l6 41q6 37 43 39l328 21q18 2 26 -7t4 -28l-22 -139q115 186 323 186q168 0 233 -106t38 -275l-62 -385q-6 -45 -6 -59z" />
    <glyph glyph-name="Ncaron" unicode="&#x147;" horiz-adv-x="1513" 
d="M1204 1806q18 0 27 -22l14 -25q8 -14 8 -26t-18 -29l-295 -217q-20 -17 -32 -17t-29 15l-224 217q-16 16 -16 28t10 27l19 29q12 20 26 20t27 -6l211 -102l231 98q23 10 41 10zM1522 1219h-84l-189 -1182q-6 -37 -43 -37h-192q-37 0 -51 33l-496 1085l-156 -981h84
q37 0 31 -37l-10 -63q-6 -37 -43 -37h-330q-33 0 -33 25q0 6 4 34l6 41q6 37 43 37h84l172 1082h-83q-37 0 -31 36l10 64q6 37 43 37h373q37 0 51 -33l451 -991l139 887h-84q-37 0 -31 36l10 64q6 37 43 37h332q33 0 33 -25q0 -6 -4 -35l-6 -41q-6 -36 -43 -36z" />
    <glyph glyph-name="ncaron" unicode="&#x148;" horiz-adv-x="1239" 
d="M1012 1468q16 0 28 -22l15 -25q8 -14 8 -27t-19 -28l-294 -217q-20 -16 -32 -16t-30 14l-223 217q-16 16 -16 28t10 27l18 29q13 20 27 20t26 -6l211 -102l232 98q23 10 39 10zM1030 199q0 -45 43 -45q27 0 59 18t48 -8l20 -31q27 -37 -22 -78q-88 -76 -222 -75
q-213 0 -213 192q0 39 19 150l51 327q35 209 -104 209q-74 0 -140 -68t-92 -243l-78 -510q-6 -37 -43 -37h-213q-37 0 -30 37l127 829l-90 6q-37 2 -31 39l6 41q6 37 43 39l328 21q18 2 26 -7t4 -28l-22 -139q115 186 323 186q168 0 233 -106t38 -275l-62 -385
q-6 -45 -6 -59z" />
    <glyph glyph-name="napostrophe" unicode="&#x149;" horiz-adv-x="1624" 
d="M203 1305q0 73 48 123t119 50q142 1 142 -151q0 -106 -76 -226t-182 -214q-26 -26 -57 -4l-25 18q-16 15 -16 25t14 28q86 98 131 205q-98 33 -98 146zM1415 199q0 -45 43 -45q27 0 59 18t48 -8l20 -31q27 -37 -22 -78q-88 -76 -222 -75q-213 0 -213 192q0 39 19 150
l51 327q35 209 -104 209q-74 0 -140 -68t-92 -243l-78 -510q-6 -37 -43 -37h-213q-37 0 -30 37l127 829l-90 6q-37 2 -31 39l6 41q6 37 43 39l328 21q18 2 26 -7t4 -28l-22 -139q115 186 323 186q168 0 233 -106t38 -275l-62 -385q-6 -47 -6 -59z" />
    <glyph glyph-name="Omacron" unicode="&#x14c;" horiz-adv-x="1409" 
d="M657 1683h441q33 0 32 -30q0 -6 -2 -19l-12 -86q-6 -37 -41 -37h-440q-33 0 -33 31q0 4 2 19l12 86q6 36 41 36zM635 129q123 0 208 66q148 115 201 398q23 118 23 280q0 161 -56 257q-55 96 -179 96q-318 1 -410 -463q-23 -118 -23 -280q1 -162 57 -258t179 -96z
M857 1376q255 0 388 -156t133 -388q0 -490 -339 -730q-175 -123 -410 -122q-274 0 -408 155q-133 157 -133 389t82 419t257 310t430 123z" />
    <glyph glyph-name="omacron" unicode="&#x14d;" horiz-adv-x="1150" 
d="M457 1169q-33 0 -33 31q0 4 2 19l12 86q6 37 41 36h441q33 0 32 -30q0 -6 -2 -19l-12 -86q-6 -37 -41 -37h-440zM358 395q0 -289 160 -289q123 0 199 142t76 358q0 291 -160 291q-123 -1 -199 -143t-76 -359zM1090 598q0 -234 -139 -419q-69 -91 -187 -145t-268 -54
q-215 0 -325 120t-110 306q0 235 139 418q68 92 186 146t269 54q215 0 325 -120t110 -306z" />
    <glyph glyph-name="Obreve" unicode="&#x14e;" horiz-adv-x="1409" 
d="M870 1659q117 0 203 102q21 23 31 23t26 -8l31 -17q23 -10 23 -23t-4 -26q-45 -102 -134 -171q-90 -69 -196 -69t-171 64t-85 158q-4 16 -4 34t28 33l33 17q12 6 21 6q16 0 36 -37t66 -61q47 -24 96 -25zM635 129q123 0 208 66q148 115 201 398q23 118 23 280
q0 161 -56 257q-55 96 -179 96q-318 1 -410 -463q-23 -118 -23 -280q1 -162 57 -258t179 -96zM857 1376q255 0 388 -156t133 -388q0 -490 -339 -730q-175 -123 -410 -122q-274 0 -408 155q-133 157 -133 389t82 419t257 310t430 123z" />
    <glyph glyph-name="obreve" unicode="&#x14f;" horiz-adv-x="1150" 
d="M688 1321q117 0 203 102q21 23 31 23t26 -8l31 -17q23 -12 23 -24t-5 -25q-45 -102 -134 -171t-195 -69t-171 64q-65 63 -85 158q-4 16 -4 34t28 33l33 17q12 6 20 6q16 0 36 -37t67 -61t96 -25zM358 395q0 -289 160 -289q123 0 199 142t76 358q0 291 -160 291
q-123 -1 -199 -143t-76 -359zM1090 598q0 -234 -139 -419q-69 -91 -187 -145t-268 -54q-215 0 -325 120t-110 306q0 235 139 418q68 92 186 146t269 54q215 0 325 -120t110 -306z" />
    <glyph glyph-name="Ohungarumlaut" unicode="&#x150;" horiz-adv-x="1409" 
d="M582 1486q0 12 10 27l194 318q10 16 24 16t38 -20l100 -86q33 -25 -6 -55l-260 -230q-27 -22 -39 -22t-27 12l-16 14q-18 14 -18 26zM1171 1847q14 0 37 -20l101 -86q33 -25 -6 -55l-261 -230q-26 -22 -38 -22t-27 12l-16 14q-28 22 -9 53l195 318q10 16 24 16zM635 129
q123 0 208 66q148 115 201 398q23 118 23 280q0 161 -56 257q-55 96 -179 96q-318 1 -410 -463q-23 -118 -23 -280q1 -162 57 -258t179 -96zM857 1376q255 0 388 -156t133 -388q0 -490 -339 -730q-175 -123 -410 -122q-274 0 -408 155q-133 157 -133 389t82 419t257 310
t430 123z" />
    <glyph glyph-name="ohungarumlaut" unicode="&#x151;" horiz-adv-x="1150" 
d="M756 1148q0 10 10 28l195 317q10 16 24 16t37 -20l100 -86q33 -25 -6 -55l-260 -230q-27 -22 -38 -22t-27 12l-17 14q-18 16 -18 26zM778 1378q0 -12 -22 -30l-260 -230q-27 -22 -38 -22t-28 12l-16 14q-18 16 -18 26t10 28l194 317q10 16 24 16t38 -20l100 -86
q16 -13 16 -25zM358 395q0 -289 160 -289q123 0 199 142t76 358q0 291 -160 291q-123 -1 -199 -143t-76 -359zM1090 598q0 -234 -139 -419q-69 -91 -187 -145t-268 -54q-215 0 -325 120t-110 306q0 235 139 418q68 92 186 146t269 54q215 0 325 -120t110 -306z" />
    <glyph glyph-name="OE" unicode="&#x152;" horiz-adv-x="1857" 
d="M1642 0h-1013q-274 0 -408 150q-133 150 -133 387q0 323 190 565q91 118 236 186t324 68h999q35 0 33 -37l-37 -277q-2 -37 -41 -36h-66q-37 0 -38 36l-11 168h-370l-74 -450h250l18 110q6 37 43 37h70q37 0 31 -37l-58 -360q-6 -37 -43 -37h-69q-37 0 -31 37l18 111
h-250l-77 -476h385l77 199q12 35 50 35h65q37 0 31 -37l-57 -305q-7 -37 -44 -37zM399 485q1 -159 57 -249t189 -91h189l172 1065h-185q-113 0 -197 -63t-132 -168q-93 -206 -93 -494z" />
    <glyph glyph-name="oe" unicode="&#x153;" horiz-adv-x="1738" 
d="M1201 -20q-230 0 -318 143q-143 -143 -373 -143t-339 120q-110 120 -110 306q0 235 139 418q68 92 186 146t269 54q225 0 324 -145q141 141 375 141q174 0 265 -70t91 -181t-52 -184q-85 -120 -317 -158q-90 -15 -190 -15h-82q4 -135 52 -203t164 -68t231 76
q30 19 53 -10l24 -35q20 -29 -6 -53q-156 -139 -386 -139zM358 395q0 -289 160 -289q123 0 199 142t76 358q0 291 -160 291q-123 -1 -199 -143t-76 -359zM1440 754q0 66 -31 106t-88 39q-106 0 -171 -117t-79 -254h100q269 1 269 226z" />
    <glyph glyph-name="Racute" unicode="&#x154;" horiz-adv-x="1351" 
d="M700 1444q-12 0 -28 18l-19 25q-10 12 -10 26t14 29l261 268q25 25 49 -2l94 -125q10 -15 10 -25t-20 -22l-324 -184q-15 -8 -27 -8zM63 137h84l172 1082h-83q-37 0 -31 36l10 64q6 37 43 37h557q229 0 346 -94t117 -256q0 -303 -352 -396q154 -168 225 -473h78
q37 0 31 -37l-11 -63q-6 -37 -43 -37h-303q-37 0 -43 37q-70 342 -209 514h-137l-65 -414h83q37 0 31 -37l-10 -63q-6 -37 -43 -37h-469q-37 0 -31 37l10 63q6 37 43 37zM967 1001q0 211 -207 211h-139l-84 -520h141q143 0 216 85t73 224z" />
    <glyph glyph-name="racute" unicode="&#x155;" horiz-adv-x="929" 
d="M503 1108q-11 0 -28 18l-18 25q-24 29 4 55l260 269q12 12 24 12t25 -14l94 -125q10 -14 10 -25t-20 -23l-324 -184q-16 -8 -27 -8zM803 1024q164 0 164 -137q0 -70 -41 -118q-42 -48 -102 -48t-95 30t-35 85q0 20 6 34q-78 -20 -140 -103t-85 -232l-76 -498
q-6 -37 -43 -37h-215q-31 0 -30 25l129 841l-90 6q-37 2 -31 39l6 41q6 37 43 39l328 21q18 2 26 -7t4 -28l-28 -178q41 93 123 159t182 66z" />
    <glyph glyph-name="Rcommaaccent" unicode="&#x156;" horiz-adv-x="1351" 
d="M656 -61q60 0 95 -32t35 -85q0 -52 -40 -106t-82 -85q-126 -92 -148 -92q-22 -1 -36 19q-15 20 -15 32q1 12 37 42t65 63q-65 29 -65 93t47 108t107 43zM63 137h84l172 1082h-83q-37 0 -31 36l10 64q6 37 43 37h557q229 0 346 -94t117 -256q0 -303 -352 -396
q154 -168 225 -473h78q37 0 31 -37l-11 -63q-6 -37 -43 -37h-303q-37 0 -43 37q-70 342 -209 514h-137l-65 -414h83q37 0 31 -37l-10 -63q-6 -37 -43 -37h-469q-37 0 -31 37l10 63q6 37 43 37zM967 1001q0 211 -207 211h-139l-84 -520h141q143 0 216 85t73 224z" />
    <glyph glyph-name="rcommaaccent" unicode="&#x157;" horiz-adv-x="929" 
d="M230 -61q60 0 95 -32t35 -85q0 -52 -40 -106t-82 -85q-128 -92 -149 -92q-21 -1 -35 19q-15 20 -15 32q1 12 37 42t65 63q-65 29 -65 93t47 108t107 43zM803 1024q164 0 164 -137q0 -70 -41 -118q-42 -48 -102 -48t-95 30t-35 85q0 20 6 34q-78 -20 -140 -103t-85 -232
l-76 -498q-6 -37 -43 -37h-215q-31 0 -30 25l129 841l-90 6q-37 2 -31 39l6 41q6 37 43 39l328 21q18 2 26 -7t4 -28l-28 -178q41 93 123 159t182 66z" />
    <glyph glyph-name="Rcaron" unicode="&#x158;" horiz-adv-x="1351" 
d="M1098 1806q16 0 28 -22l15 -25q8 -14 8 -26t-19 -29l-294 -217q-20 -17 -32 -17t-30 15l-223 217q-16 16 -16 28t10 27l18 29q13 20 27 20t26 -6l211 -102l232 98q23 10 39 10zM63 137h84l172 1082h-83q-37 0 -31 36l10 64q6 37 43 37h557q229 0 346 -94t117 -256
q0 -303 -352 -396q154 -168 225 -473h78q37 0 31 -37l-11 -63q-6 -37 -43 -37h-303q-37 0 -43 37q-70 342 -209 514h-137l-65 -414h83q37 0 31 -37l-10 -63q-6 -37 -43 -37h-469q-37 0 -31 37l10 63q6 37 43 37zM967 1001q0 211 -207 211h-139l-84 -520h141q143 0 216 85
t73 224z" />
    <glyph glyph-name="rcaron" unicode="&#x159;" horiz-adv-x="929" 
d="M860 1468q16 0 29 -22l14 -25q8 -14 8 -27t-18 -28l-295 -217q-20 -16 -32 -16t-29 14l-224 217q-16 16 -16 28t10 27l19 29q12 20 26 20t27 -6l211 -102l231 98q23 10 39 10zM803 1024q164 0 164 -137q0 -70 -41 -118q-42 -48 -102 -48t-95 30t-35 85q0 20 6 34
q-78 -20 -140 -103t-85 -232l-76 -498q-6 -37 -43 -37h-215q-31 0 -30 25l129 841l-90 6q-37 2 -31 39l6 41q6 37 43 39l328 21q18 2 26 -7t4 -28l-28 -178q41 93 123 159t182 66z" />
    <glyph glyph-name="Sacute" unicode="&#x15a;" horiz-adv-x="1150" 
d="M614 1444q-12 0 -26 18l-19 25q-10 12 -10 26t14 29l261 268q25 25 49 -2l94 -125q10 -15 10 -25t-20 -22l-324 -184q-17 -8 -29 -8zM1065 412q0 -205 -162 -319q-161 -113 -401 -113t-358 74t-117 192q0 90 45 145q44 55 114 55t109 -32t39 -84q0 -96 -94 -146
q88 -59 234 -59t239 51q94 52 94 142t-65 136q-66 46 -190 95t-171 73q-148 76 -191 177q-27 63 -26 149q0 209 153 319q153 109 379 109t338 -74t113 -192q0 -90 -45 -145q-44 -55 -114 -55t-109 32q-39 33 -39 84q0 96 96 148q-88 57 -220 57t-213 -50q-81 -49 -81 -139
t64 -136t190 -95q125 -49 172 -73q147 -75 190 -177q27 -63 27 -149z" />
    <glyph glyph-name="sacute" unicode="&#x15b;" horiz-adv-x="989" 
d="M503 1108q-11 0 -28 18l-18 25q-24 29 4 55l260 269q12 12 24 12t25 -14l94 -125q10 -14 10 -25t-20 -23l-324 -184q-16 -8 -27 -8zM176 365q121 1 121 -117q0 -60 -61 -98q78 -50 181 -50t170 34t66 102q0 36 -26 62t-64 41q-37 15 -83 31q-46 18 -87 32
q-189 67 -232 171q-22 51 -22 119q0 162 129 247q130 85 316 85t275 -70t89 -174q0 -68 -36 -104t-93 -37q-57 0 -90 29t-33 75q0 78 70 115q-78 45 -168 45t-150 -35t-61 -98q0 -63 88 -102q31 -14 121 -46t130 -51q115 -54 153 -138q22 -50 22 -118q0 -159 -134 -247
q-133 -88 -331 -88t-295 70q-96 71 -96 175q0 66 37 103t94 37z" />
    <glyph glyph-name="Scircumflex" unicode="&#x15c;" horiz-adv-x="1150" 
d="M473 1473q-14 0 -27 22l-14 25q-8 16 -8 28t20 27l301 221q11 10 27 10t31 -14l221 -217q16 -15 16 -29t-10 -28l-18 -25q-16 -20 -30 -20t-26 6l-213 102l-227 -96q-29 -12 -43 -12zM1065 412q0 -205 -162 -319q-161 -113 -401 -113t-358 74t-117 192q0 90 45 145
q44 55 114 55t109 -32t39 -84q0 -96 -94 -146q88 -59 234 -59t239 51q94 52 94 142t-65 136q-66 46 -190 95t-171 73q-148 76 -191 177q-27 63 -26 149q0 209 153 319q153 109 379 109t338 -74t113 -192q0 -90 -45 -145q-44 -55 -114 -55t-109 32q-39 33 -39 84q0 96 96 148
q-88 57 -220 57t-213 -50q-81 -49 -81 -139t64 -136t190 -95q125 -49 172 -73q147 -75 190 -177q27 -63 27 -149z" />
    <glyph glyph-name="scircumflex" unicode="&#x15d;" horiz-adv-x="989" 
d="M354 1133q-14 0 -26 22l-15 25q-8 16 -8 28t21 27l301 221q12 10 27 10t30 -14l221 -217q28 -28 6 -57l-18 -25q-15 -20 -29 -20t-26 6l-213 102l-228 -96q-29 -12 -43 -12zM176 365q121 1 121 -117q0 -60 -61 -98q78 -50 181 -50t170 34t66 102q0 36 -26 62t-64 41
q-37 15 -83 31q-46 18 -87 32q-189 67 -232 171q-22 51 -22 119q0 162 129 247q130 85 316 85t275 -70t89 -174q0 -68 -36 -104t-93 -37q-57 0 -90 29t-33 75q0 78 70 115q-78 45 -168 45t-150 -35t-61 -98q0 -63 88 -102q31 -14 121 -46t130 -51q115 -54 153 -138
q22 -50 22 -118q0 -159 -134 -247q-133 -88 -331 -88t-295 70q-96 71 -96 175q0 66 37 103t94 37z" />
    <glyph glyph-name="Scedilla" unicode="&#x15e;" horiz-adv-x="1150" 
d="M450 -430q-100 0 -151 39t-51 83t22 70t53 27q68 0 68 -51t-45 -72q35 -22 82 -22t80 26t33 70q0 74 -140 100q-37 6 -16 39l61 101q-204 8 -312 82t-108 174t46 155q44 55 114 55t109 -32t39 -84q0 -96 -94 -146q88 -59 234 -59t239 51q94 52 94 142t-65 136
q-66 46 -190 95t-171 73q-148 76 -191 177q-27 63 -26 149q0 209 153 319q153 109 379 109t338 -74t113 -192q0 -90 -45 -145q-44 -55 -114 -55t-109 32q-39 33 -39 84q0 96 96 148q-88 57 -220 57t-213 -50q-81 -49 -81 -139t64 -136t190 -95q125 -49 172 -73
q147 -75 190 -177q27 -63 27 -149q0 -195 -146 -308t-380 -122l-31 -54q82 -4 138 -45t56 -123t-75 -136q-77 -54 -177 -54z" />
    <glyph glyph-name="scedilla" unicode="&#x15f;" horiz-adv-x="989" 
d="M176 365q121 1 121 -117q0 -60 -61 -98q78 -50 181 -50t170 34t66 102q0 36 -26 62t-64 41q-37 15 -83 31q-46 18 -87 32q-189 67 -232 171q-22 51 -22 119q0 162 129 247q130 85 316 85t275 -70t89 -174q0 -68 -36 -104t-93 -37q-57 0 -90 29t-33 75q0 78 70 115
q-78 45 -168 45t-150 -35t-61 -98q0 -63 88 -102q31 -14 121 -46t130 -51q38 -18 84 -53q93 -71 92 -212q-1 -142 -120 -228t-307 -96l-31 -54q82 -4 138 -45t57 -123t-75 -136t-176 -54t-152 39t-52 83t22 70t54 27q66 0 68 -53q0 -49 -45 -70q33 -22 81 -22t80 26t33 70
q0 74 -139 100q-37 6 -16 39l61 103q-168 8 -253 78t-85 165q0 66 37 103t94 37z" />
    <glyph glyph-name="Scaron" unicode="&#x160;" horiz-adv-x="1150" 
d="M1016 1806q18 0 26 -22l15 -25q8 -14 8 -26t-18 -29l-295 -217q-20 -17 -32 -17t-30 15l-223 217q-16 16 -16 28t10 27l18 29q13 20 27 20t26 -6l211 -102l232 98q23 10 41 10zM1065 412q0 -205 -162 -319q-161 -113 -401 -113t-358 74t-117 192q0 90 45 145
q44 55 114 55t109 -32t39 -84q0 -96 -94 -146q88 -59 234 -59t239 51q94 52 94 142t-65 136q-66 46 -190 95t-171 73q-148 76 -191 177q-27 63 -26 149q0 209 153 319q153 109 379 109t338 -74t113 -192q0 -90 -45 -145q-44 -55 -114 -55t-109 32q-39 33 -39 84q0 96 96 148
q-88 57 -220 57t-213 -50q-81 -49 -81 -139t64 -136t190 -95q125 -49 172 -73q147 -75 190 -177q27 -63 27 -149z" />
    <glyph glyph-name="scaron" unicode="&#x161;" horiz-adv-x="989" 
d="M901 1468q16 0 29 -22l14 -25q8 -14 8 -27t-18 -28l-295 -217q-19 -16 -31 -16t-30 14l-224 217q-16 16 -16 28t10 27l19 29q12 20 26 20t27 -6l211 -102l231 98q23 10 39 10zM176 365q121 1 121 -117q0 -60 -61 -98q78 -50 181 -50t170 34t66 102q0 36 -26 62t-64 41
q-37 15 -83 31q-46 18 -87 32q-189 67 -232 171q-22 51 -22 119q0 162 129 247q130 85 316 85t275 -70t89 -174q0 -68 -36 -104t-93 -37q-57 0 -90 29t-33 75q0 78 70 115q-78 45 -168 45t-150 -35t-61 -98q0 -63 88 -102q31 -14 121 -46t130 -51q115 -54 153 -138
q22 -50 22 -118q0 -159 -134 -247q-133 -88 -331 -88t-295 70q-96 71 -96 175q0 66 37 103t94 37z" />
    <glyph glyph-name="Tcommaaccent" unicode="&#x162;" horiz-adv-x="1243" 
d="M520 -61q60 0 95 -32q36 -32 36 -85q0 -52 -40 -106t-83 -85q-128 -92 -148 -92q-21 -1 -35 19q-15 20 -15 32t36 42t66 63q-66 29 -66 93t48 108q46 44 106 43zM1243 977h-69q-37 0 -39 37l-9 196h-239l-172 -1073h84q37 0 30 -37l-10 -63q-6 -37 -43 -37h-469
q-37 0 -31 37l11 63q6 37 43 37h84l172 1073h-240l-78 -198q-14 -35 -51 -35h-67q-29 0 -29 24q0 2 8 52l53 266q8 37 43 37h1063q35 0 35 -33q0 -15 -8 -76l-31 -233q-6 -37 -41 -37z" />
    <glyph glyph-name="tcommaaccent" unicode="&#x163;" horiz-adv-x="778" 
d="M223 -212q0 64 47 108q46 44 106 43q60 0 96 -32t36 -85q0 -52 -40 -106t-83 -85q-128 -92 -148 -92q-21 -1 -35 19q-16 20 -16 32t37 42t66 63q-66 29 -66 93zM135 221q0 51 8 94l88 559h-129q-37 0 -30 37l8 56q6 37 43 37h127l24 155q6 35 41 47l232 70q16 4 24 -3
t4 -24l-38 -245h254q37 0 30 -37l-8 -56q-6 -37 -43 -37h-254l-84 -538q-10 -57 -10 -98q0 -98 94 -99q47 1 89 25t59 -2l18 -29q25 -39 -23 -78q-88 -75 -236 -75t-218 56t-70 185z" />
    <glyph glyph-name="Tcaron" unicode="&#x164;" horiz-adv-x="1243" 
d="M1061 1806q16 0 29 -22l14 -25q8 -14 8 -26t-18 -29l-295 -217q-19 -17 -31 -17t-31 15l-223 217q-16 16 -16 28t10 27l18 29q12 20 27 20t27 -6l211 -102l231 98q23 10 39 10zM1243 977h-69q-37 0 -39 37l-9 196h-239l-172 -1073h84q37 0 30 -37l-10 -63q-6 -37 -43 -37
h-469q-37 0 -31 37l11 63q6 37 43 37h84l172 1073h-240l-78 -198q-14 -35 -51 -35h-67q-29 0 -29 24q0 2 8 52l53 266q8 37 43 37h1063q35 0 35 -33q0 -15 -8 -76l-31 -233q-6 -37 -41 -37z" />
    <glyph glyph-name="tcaron" unicode="&#x165;" horiz-adv-x="778" 
d="M791 1516q6 0 18 -5l131 -41q34 -9 16 -45l-190 -348q-14 -25 -26 -25t-27 5l-21 6q-27 8 -26 31q0 8 8 39l92 356q6 27 25 27zM135 221q0 51 8 94l88 559h-129q-37 0 -30 37l8 56q6 37 43 37h127l24 155q6 35 41 47l232 70q16 4 24 -3t4 -24l-38 -245h254q37 0 30 -37
l-8 -56q-6 -37 -43 -37h-254l-84 -538q-10 -57 -10 -98q0 -98 94 -99q47 1 89 25t59 -2l18 -29q25 -39 -23 -78q-88 -75 -236 -75t-218 56t-70 185z" />
    <glyph glyph-name="Tbar" unicode="&#x166;" horiz-adv-x="1243" 
d="M1288 1356q35 0 35 -33q0 -14 -8 -76l-31 -233q-6 -37 -41 -37h-69q-37 0 -39 37l-9 196h-239l-74 -460h193q37 0 30 -37l-10 -64q-6 -37 -43 -37h-192l-76 -475h84q37 0 30 -37l-10 -63q-6 -37 -43 -37h-469q-37 0 -31 37l11 63q6 37 43 37h84l75 475h-190q-37 0 -31 37
l11 64q6 37 43 37h190l74 460h-240l-78 -198q-14 -35 -51 -35h-67q-29 0 -29 24q0 2 8 52l53 266q6 37 43 37h1063z" />
    <glyph glyph-name="tbar" unicode="&#x167;" horiz-adv-x="811" 
d="M436 -20q-145 0 -215 56t-69 185q0 51 8 94l28 189h-79q-37 0 -31 37l8 51q6 37 43 37h80l39 245h-129q-37 0 -31 37l8 56q6 37 43 37h127l25 155q6 35 41 47l231 70q17 4 25 -3t4 -24l-39 -245h254q37 0 31 -37l-9 -56q-6 -37 -43 -37h-254l-38 -245h182q37 0 31 -37
l-9 -51q-6 -37 -43 -37h-180l-26 -168q-10 -57 -11 -98q0 -98 94 -99q51 0 101 31q31 18 51 -12l21 -35q18 -33 -11 -55q-113 -88 -258 -88z" />
    <glyph glyph-name="Utilde" unicode="&#x168;" horiz-adv-x="1351" 
d="M1016 1477q-53 0 -135 45t-119 45q-68 0 -119 -54q-13 -14 -27 -14t-28 10l-21 15q-18 12 -18 26t6 27q98 182 229 182q54 0 136 -45t118 -45q70 0 119 51q26 29 55 6l21 -14q18 -12 18 -26t-6 -27q-98 -182 -229 -182zM632 -20q-236 0 -348 94t-112 288q0 66 18 183
l107 674h-84q-37 0 -31 36l11 64q6 37 43 37h469q37 0 30 -37l-10 -64q-6 -37 -43 -36h-84l-113 -717q-12 -74 -12 -123q-4 -240 217 -240q131 0 211 86t105 246l118 748h-84q-37 0 -30 36l10 64q6 37 43 37h334q37 0 30 -37l-10 -64q-6 -37 -43 -36h-84l-112 -709
q-39 -254 -174 -392t-372 -138z" />
    <glyph glyph-name="utilde" unicode="&#x169;" horiz-adv-x="1218" 
d="M831 1139q-53 0 -135 45t-118 45q-68 0 -119 -53q-25 -25 -56 -5l-20 15q-18 12 -18 26t6 27q98 182 229 182q53 0 135 -45t119 -45q70 0 119 51q25 28 55 7l21 -15q18 -12 18 -26t-6 -27q-99 -182 -230 -182zM993 199q0 -45 43 -45q27 0 59 18t48 -8l20 -31
q27 -37 -22 -78q-88 -76 -221 -75q-188 0 -197 176q-119 -176 -320 -176q-139 0 -205 78t-65 206q0 49 14 137l72 463l-90 6q-37 2 -31 39l6 41q6 37 43 39l347 23q18 2 26 -7t4 -28l-98 -623q-8 -57 -8 -82q0 -127 104 -127q70 0 133 69t90 243l78 510q6 37 43 37h213
q37 0 31 -37l-111 -709q-6 -45 -6 -59z" />
    <glyph glyph-name="Umacron" unicode="&#x16a;" horiz-adv-x="1351" 
d="M686 1683h440q33 0 33 -30q0 -6 -2 -19l-12 -86q-6 -37 -41 -37h-440q-33 0 -33 31q0 4 2 19l12 86q6 36 41 36zM632 -20q-236 0 -348 94t-112 288q0 66 18 183l107 674h-84q-37 0 -31 36l11 64q6 37 43 37h469q37 0 30 -37l-10 -64q-6 -37 -43 -36h-84l-113 -717
q-12 -74 -12 -123q-4 -240 217 -240q131 0 211 86t105 246l118 748h-84q-37 0 -30 36l10 64q6 37 43 37h334q37 0 30 -37l-10 -64q-6 -37 -43 -36h-84l-112 -709q-39 -254 -174 -392t-372 -138z" />
    <glyph glyph-name="umacron" unicode="&#x16b;" horiz-adv-x="1218" 
d="M483 1169q-33 0 -32 31q0 4 2 19l12 86q6 37 41 36h440q33 0 33 -30q0 -6 -2 -19l-12 -86q-6 -37 -41 -37h-441zM993 199q0 -45 43 -45q27 0 59 18t48 -8l20 -31q27 -37 -22 -78q-88 -76 -221 -75q-188 0 -197 176q-119 -176 -320 -176q-139 0 -205 78t-65 206
q0 49 14 137l72 463l-90 6q-37 2 -31 39l6 41q6 37 43 39l347 23q18 2 26 -7t4 -28l-98 -623q-8 -57 -8 -82q0 -127 104 -127q70 0 133 69t90 243l78 510q6 37 43 37h213q37 0 31 -37l-111 -709q-6 -45 -6 -59z" />
    <glyph glyph-name="Ubreve" unicode="&#x16c;" horiz-adv-x="1351" 
d="M899 1659q117 0 203 102q20 23 30 23t27 -8l31 -17q22 -10 22 -23t-4 -26q-45 -102 -134 -171t-195 -69t-171 64t-85 158q-5 16 -5 34t29 33l33 17q12 6 20 6q16 0 36 -37t67 -61t96 -25zM632 -20q-236 0 -348 94t-112 288q0 66 18 183l107 674h-84q-37 0 -31 36l11 64
q6 37 43 37h469q37 0 30 -37l-10 -64q-6 -37 -43 -36h-84l-113 -717q-12 -74 -12 -123q-4 -240 217 -240q131 0 211 86t105 246l118 748h-84q-37 0 -30 36l10 64q6 37 43 37h334q37 0 30 -37l-10 -64q-6 -37 -43 -36h-84l-112 -709q-39 -254 -174 -392t-372 -138z" />
    <glyph glyph-name="ubreve" unicode="&#x16d;" horiz-adv-x="1218" 
d="M715 1321q117 0 203 102q20 23 30 23t27 -8l31 -17q22 -12 22 -24t-4 -25q-45 -102 -134 -171q-90 -69 -196 -69t-171 64q-65 63 -85 158q-4 16 -4 34t29 33l33 17q12 6 20 6q16 0 36 -37t67 -61t96 -25zM993 199q0 -45 43 -45q27 0 59 18t48 -8l20 -31q27 -37 -22 -78
q-88 -76 -221 -75q-188 0 -197 176q-119 -176 -320 -176q-139 0 -205 78t-65 206q0 49 14 137l72 463l-90 6q-37 2 -31 39l6 41q6 37 43 39l347 23q18 2 26 -7t4 -28l-98 -623q-8 -57 -8 -82q0 -127 104 -127q70 0 133 69t90 243l78 510q6 37 43 37h213q37 0 31 -37
l-111 -709q-6 -45 -6 -59z" />
    <glyph glyph-name="Uring" unicode="&#x16e;" horiz-adv-x="1351" 
d="M922 1815q-54 -1 -96 -49t-42 -103t28 -87t83 -32t96 48t41 104q0 120 -110 119zM1165 1702q1 -105 -79 -190t-201 -85q-121 1 -177 63t-56 167t79 189q80 84 201 85q121 0 177 -62t56 -167zM632 -20q-236 0 -348 94t-112 288q0 66 18 183l107 674h-84q-37 0 -31 36
l11 64q6 37 43 37h469q37 0 30 -37l-10 -64q-6 -37 -43 -36h-84l-113 -717q-12 -74 -12 -123q-4 -240 217 -240q131 0 211 86t105 246l118 748h-84q-37 0 -30 36l10 64q6 37 43 37h334q37 0 30 -37l-10 -64q-6 -37 -43 -36h-84l-112 -709q-39 -254 -174 -392t-372 -138z" />
    <glyph glyph-name="uring" unicode="&#x16f;" horiz-adv-x="1218" 
d="M735 1479q-55 -1 -96 -49t-41 -103t28 -87t82 -32t97 48q41 48 41 104t-28 87q-28 32 -83 32zM979 1366q0 -106 -80 -190t-201 -84t-177 62t-56 167t80 189t201 85q121 0 177 -62t56 -167zM993 199q0 -45 43 -45q27 0 59 18t48 -8l20 -31q27 -37 -22 -78
q-88 -76 -221 -75q-188 0 -197 176q-119 -176 -320 -176q-139 0 -205 78t-65 206q0 49 14 137l72 463l-90 6q-37 2 -31 39l6 41q6 37 43 39l347 23q18 2 26 -7t4 -28l-98 -623q-8 -57 -8 -82q0 -127 104 -127q70 0 133 69t90 243l78 510q6 37 43 37h213q37 0 31 -37
l-111 -709q-6 -45 -6 -59z" />
    <glyph glyph-name="Uhungarumlaut" unicode="&#x170;" horiz-adv-x="1351" 
d="M840 1847q14 0 37 -20l100 -86q33 -25 -6 -55l-260 -230q-27 -22 -39 -22t-27 12l-16 14q-29 23 -8 53l194 318q11 16 25 16zM971 1486q0 12 10 27l195 318q10 16 24 16t37 -20l100 -86q33 -25 -6 -55l-260 -230q-27 -22 -39 -22t-26 12l-17 14q-18 14 -18 26zM632 -20
q-236 0 -348 94t-112 288q0 66 18 183l107 674h-84q-37 0 -31 36l11 64q6 37 43 37h469q37 0 30 -37l-10 -64q-6 -37 -43 -36h-84l-113 -717q-12 -74 -12 -123q-4 -240 217 -240q131 0 211 86t105 246l118 748h-84q-37 0 -30 36l10 64q6 37 43 37h334q37 0 30 -37l-10 -64
q-6 -37 -43 -36h-84l-112 -709q-39 -254 -174 -392t-372 -138z" />
    <glyph glyph-name="uhungarumlaut" unicode="&#x171;" horiz-adv-x="1218" 
d="M1012 1509q14 0 37 -20l100 -86q33 -25 -6 -55l-260 -230q-27 -22 -38 -22t-28 12l-16 14q-19 16 -19 26t11 28l194 317q11 16 25 16zM805 1378q0 -12 -23 -30l-260 -230q-27 -22 -39 -22t-26 12l-17 14q-18 16 -18 26t10 28l195 317q10 16 24 16t37 -20l100 -86
q17 -13 17 -25zM993 199q0 -45 43 -45q27 0 59 18t48 -8l20 -31q27 -37 -22 -78q-88 -76 -221 -75q-188 0 -197 176q-119 -176 -320 -176q-139 0 -205 78t-65 206q0 49 14 137l72 463l-90 6q-37 2 -31 39l6 41q6 37 43 39l347 23q18 2 26 -7t4 -28l-98 -623q-8 -57 -8 -82
q0 -127 104 -127q70 0 133 69t90 243l78 510q6 37 43 37h213q37 0 31 -37l-111 -709q-6 -45 -6 -59z" />
    <glyph glyph-name="Uogonek" unicode="&#x172;" horiz-adv-x="1351" 
d="M614 -430q-98 0 -150 43t-52 114t61 143t141 110q-236 0 -339 97t-103 285q0 66 18 183l107 674h-84q-37 0 -31 36l11 64q6 37 43 37h469q37 0 30 -37l-10 -64q-6 -37 -43 -36h-84l-113 -717q-12 -74 -12 -123q-4 -240 217 -240q131 0 211 86t105 246l118 748h-84
q-37 0 -30 36l10 64q6 37 43 37h334q37 0 30 -37l-10 -64q-6 -37 -43 -36h-84l-112 -709q-33 -207 -126 -334q-92 -127 -216 -165t-183 -100t-59 -134q0 -37 22 -59t64 -22q41 0 75 16q34 15 46 -5l12 -22q16 -31 -22 -60q-79 -55 -177 -55z" />
    <glyph glyph-name="uogonek" unicode="&#x173;" horiz-adv-x="1220" 
d="M993 199q0 -45 43 -45q27 0 59 18t48 -8l20 -31q31 -47 -63 -105q-20 -12 -47 -30t-45 -31q-119 -80 -119 -190q1 -37 23 -59t63 -22t75 16q34 15 46 -5l12 -22q16 -31 -23 -60q-80 -55 -177 -55t-149 43t-52 114t55 139t139 114q-84 0 -129 47t-49 129
q-119 -176 -320 -176q-139 0 -205 78t-65 210q0 31 8 92l78 504l-90 6q-37 2 -31 39l6 41q6 37 43 39l347 23q18 2 26 -7t4 -28l-98 -623q-8 -53 -8 -78q0 -131 104 -131q70 0 133 69t90 243l78 510q6 37 43 37h213q37 0 31 -37l-111 -709q-6 -45 -6 -59z" />
    <glyph glyph-name="Wcircumflex" unicode="&#x174;" horiz-adv-x="2068" 
d="M993 1473q-14 0 -26 22l-15 25q-8 16 -8 28t21 27l301 221q12 10 27 10t30 -14l221 -217q28 -28 6 -57l-18 -25q-16 -20 -30 -20t-25 6l-213 102l-228 -96q-29 -12 -43 -12zM2144 1356q33 0 33 -25q0 -6 -4 -35l-6 -41q-6 -37 -43 -36h-84q-315 -764 -557 -1186
q-16 -33 -56 -33h-131q-35 0 -47 35q-82 303 -153 821q-225 -479 -426 -825q-16 -31 -56 -31h-133q-35 0 -47 35q-113 446 -184 1184h-78q-33 0 -33 24q0 6 4 35l7 41q6 37 43 37h501q37 0 31 -37l-10 -64q-6 -37 -43 -36h-103q51 -664 95 -916q213 414 411 916h-102
q-37 0 -31 36l10 64q6 37 43 37h465q37 0 31 -37l-10 -64q-6 -37 -43 -36h-97q43 -524 125 -916q135 289 381 916h-108q-37 0 -31 36l10 64q6 37 43 37h383z" />
    <glyph glyph-name="wcircumflex" unicode="&#x175;" horiz-adv-x="1613" 
d="M647 1133q-14 0 -26 22l-15 25q-8 16 -8 28t20 27l302 221q12 10 27 10t30 -14l221 -217q16 -15 16 -29t-10 -28l-18 -25q-16 -20 -30 -20t-26 6l-212 102l-228 -96q-29 -12 -43 -12zM1253 866q0 64 43 111t122 47t123 -44t44 -136q0 -140 -136 -370t-323 -445
q-27 -29 -61 -29h-143q-37 0 -52 35q-49 141 -79 356q-104 -197 -246 -362q-23 -29 -62 -29h-145q-37 0 -49 35q-104 303 -119 829l-80 6q-31 4 -31 26t7 54q6 37 43 39l309 23q37 4 35 -35q-10 -418 71 -782q162 211 242 397q-10 123 -14 272l-80 6q-37 2 -31 39l6 41
q6 37 43 39l309 23q17 2 27 -7t8 -28q-10 -420 70 -772q248 319 287 526q-61 0 -100 35q-38 36 -38 100z" />
    <glyph glyph-name="Ycircumflex" unicode="&#x176;" horiz-adv-x="1255" 
d="M563 1473q-14 0 -26 22l-15 25q-8 16 -8 28t21 27l301 221q12 10 27 10t30 -14l221 -217q16 -15 16 -29t-10 -28l-18 -25q-16 -20 -30 -20t-25 6l-213 102l-228 -96q-29 -12 -43 -12zM1325 1219h-84q-221 -434 -465 -746l-53 -336h104q37 0 31 -37l-10 -63
q-6 -37 -43 -37h-510q-37 0 -31 37l10 63q6 37 43 37h105l53 334q-139 299 -231 748h-84q-33 0 -33 24q0 6 4 35l6 41q6 37 43 37h482q37 0 30 -37l-10 -64q-6 -37 -43 -36h-94q61 -377 155 -605q172 233 344 605h-81q-37 0 -31 36l10 64q6 37 43 37h361q33 0 32 -25
q0 -6 -4 -35l-6 -41q-6 -36 -43 -36z" />
    <glyph glyph-name="ycircumflex" unicode="&#x177;" horiz-adv-x="1179" 
d="M440 1133q-14 0 -26 22l-15 25q-8 16 -8 28t21 27l301 221q12 10 27 10t30 -14l221 -217q28 -28 6 -57l-18 -25q-15 -20 -29 -20t-26 6l-213 102l-228 -96q-29 -12 -43 -12zM96 897q0 11 6 53q6 37 43 39l347 23q18 2 26 -7t4 -28l-92 -582q-8 -53 -8 -78
q0 -131 104 -131q70 0 133 69t91 243l71 469q6 37 43 37h213q37 0 31 -37l-139 -901q-39 -250 -193 -373t-379 -123q-170 0 -275 66t-106 186q0 76 44 119t110 43t104 -32q37 -32 37 -85q0 -84 -73 -129q51 -45 135 -45q254 0 299 313l22 154q-109 -139 -286 -140
q-139 0 -205 77t-66 208q0 53 8 96l72 463l-90 6q-31 4 -31 27z" />
    <glyph glyph-name="Ydieresis" unicode="&#x178;" horiz-adv-x="1255" 
d="M483 1618q0 60 48 106q47 46 111 45t101 -35t37 -94t-49 -107q-49 -46 -111 -46t-100 35q-37 36 -37 96zM885 1618q0 60 48 106q47 46 111 45t101 -35t37 -94t-49 -107q-49 -46 -111 -46t-100 35q-37 36 -37 96zM1325 1219h-84q-221 -434 -465 -746l-53 -336h104
q37 0 31 -37l-10 -63q-6 -37 -43 -37h-510q-37 0 -31 37l10 63q6 37 43 37h105l53 334q-139 299 -231 748h-84q-33 0 -33 24q0 6 4 35l6 41q6 37 43 37h482q37 0 30 -37l-10 -64q-6 -37 -43 -36h-94q61 -377 155 -605q172 233 344 605h-81q-37 0 -31 36l10 64q6 37 43 37
h361q33 0 32 -25q0 -6 -4 -35l-6 -41q-6 -36 -43 -36z" />
    <glyph glyph-name="Zacute" unicode="&#x179;" horiz-adv-x="1191" 
d="M642 1444q-12 0 -28 18l-18 25q-10 12 -10 26t14 29l260 268q26 26 49 -2l95 -125q10 -15 10 -25t-21 -22l-323 -184q-16 -8 -28 -8zM1004 408h65q37 0 31 -37l-62 -334q-6 -37 -43 -37h-972q-31 0 -31 29q0 14 4 34l6 35q6 37 29 66l821 1046h-446l-78 -198
q-14 -35 -52 -35h-65q-37 0 -31 37l62 305q6 37 43 37h901q29 0 28 -25q0 -8 -4 -35l-6 -39q-6 -37 -28 -65l-824 -1047h514l88 228q12 35 50 35z" />
    <glyph glyph-name="zacute" unicode="&#x17a;" horiz-adv-x="1036" 
d="M524 1108q-12 0 -26 18l-19 25q-10 13 -10 27t14 28l260 269q13 12 25 12t25 -14l94 -125q10 -14 10 -25t-20 -23l-324 -184q-17 -8 -29 -8zM831 0h-765q-31 0 -31 27q0 14 6 51l10 61q6 39 27 62q88 113 344 313t323 264h-436l-33 -84q-12 -35 -49 -35h-43q-37 0 -28 37
l53 271q8 37 45 37h721q31 0 31 -31q0 -4 -5 -37l-10 -68q-6 -37 -28 -61q-89 -113 -345 -313t-327 -269h485l35 92q12 35 49 35h45q37 0 27 -37l-55 -278q-8 -37 -46 -37z" />
    <glyph glyph-name="Zdotaccent" unicode="&#x17b;" horiz-adv-x="1191" 
d="M608 1632q0 66 54 117t125 51t111 -39t40 -105t-54 -118q-54 -51 -124 -51t-111 39q-41 40 -41 106zM1004 408h65q37 0 31 -37l-62 -334q-6 -37 -43 -37h-972q-31 0 -31 29q0 14 4 34l6 35q6 37 29 66l821 1046h-446l-78 -198q-14 -35 -52 -35h-65q-37 0 -31 37l62 305
q6 37 43 37h901q29 0 28 -25q0 -8 -4 -35l-6 -39q-6 -37 -28 -65l-824 -1047h514l88 228q12 35 50 35z" />
    <glyph glyph-name="zdotaccent" unicode="&#x17c;" horiz-adv-x="1036" 
d="M672 1462q70 0 110 -39t41 -105q0 -66 -54 -118q-53 -51 -123 -51t-111 39q-41 40 -41 106t54 117t124 51zM831 0h-765q-31 0 -31 27q0 14 6 51l10 61q6 39 27 62q88 113 344 313t323 264h-436l-33 -84q-12 -35 -49 -35h-43q-37 0 -28 37l53 271q8 37 45 37h721
q31 0 31 -31q0 -4 -5 -37l-10 -68q-6 -37 -28 -61q-89 -113 -345 -313t-327 -269h485l35 92q12 35 49 35h45q37 0 27 -37l-55 -278q-8 -37 -46 -37z" />
    <glyph glyph-name="Zcaron" unicode="&#x17d;" horiz-adv-x="1191" 
d="M1040 1806q16 0 29 -22l14 -25q9 -14 9 -26t-19 -29l-295 -217q-20 -17 -32 -17t-29 15l-223 217q-25 25 -7 55l19 29q12 20 26 20t27 -6l211 -102l231 98q23 10 39 10zM1004 408h65q37 0 31 -37l-62 -334q-6 -37 -43 -37h-972q-31 0 -31 29q0 14 4 34l6 35q6 37 29 66
l821 1046h-446l-78 -198q-14 -35 -52 -35h-65q-37 0 -31 37l62 305q6 37 43 37h901q29 0 28 -25q0 -8 -4 -35l-6 -39q-6 -37 -28 -65l-824 -1047h514l88 228q12 35 50 35z" />
    <glyph glyph-name="zcaron" unicode="&#x17e;" horiz-adv-x="1036" 
d="M926 1468q18 0 26 -22l15 -25q8 -14 8 -27t-19 -28l-294 -217q-20 -16 -32 -16t-30 14l-223 217q-26 26 -6 55l18 29q13 20 27 20t26 -6l211 -102l232 98q23 10 41 10zM831 0h-765q-31 0 -31 27q0 14 6 51l10 61q6 39 27 62q88 113 344 313t323 264h-436l-33 -84
q-12 -35 -49 -35h-43q-37 0 -28 37l53 271q8 37 45 37h721q31 0 31 -31q0 -4 -5 -37l-10 -68q-6 -37 -28 -61q-89 -113 -345 -313t-327 -269h485l35 92q12 35 49 35h45q37 0 27 -37l-55 -278q-8 -37 -46 -37z" />
    <glyph glyph-name="florin" unicode="&#x192;" 
d="M244 748h188l29 182q35 227 162 337t311 109q133 0 210 -54t77 -133t-41 -120q-40 -41 -98 -41t-92 32t-34 77q0 72 70 114q-27 16 -63 17q-72 0 -128 -64t-77 -207l-39 -249h242q37 0 30 -37l-8 -56q-6 -37 -43 -37h-242l-94 -602q-35 -227 -159 -337t-308 -109
q-133 0 -207 50t-74 129t42 120q41 41 98 41t91 -32t34 -77q0 -72 -68 -112q20 -12 56 -13q156 0 198 273l105 669h-189q-37 0 -30 37l8 56q6 37 43 37z" />
    <glyph glyph-name="Scommaaccent" unicode="&#x218;" horiz-adv-x="1150" 
d="M482 -61q60 0 96 -32t36 -85q0 -52 -40 -106t-82 -85q-126 -92 -148 -92q-22 -1 -36 19q-15 20 -15 32q1 12 37 42t65 63q-65 29 -65 93t46 108t106 43zM1065 412q0 -205 -162 -319q-161 -113 -401 -113t-358 74t-117 192q0 90 45 145q44 55 114 55t109 -32t39 -84
q0 -96 -94 -146q88 -59 234 -59t239 51q94 52 94 142t-65 136q-66 46 -190 95t-171 73q-148 76 -191 177q-27 63 -26 149q0 209 153 319q153 109 379 109t338 -74t113 -192q0 -90 -45 -145q-44 -55 -114 -55t-109 32q-39 33 -39 84q0 96 96 148q-88 57 -220 57t-213 -50
q-81 -49 -81 -139t64 -136t190 -95q125 -49 172 -73q147 -75 190 -177q27 -63 27 -149z" />
    <glyph glyph-name="scommaaccent" unicode="&#x219;" horiz-adv-x="989" 
d="M266 -212q0 64 47 108t107 43q60 0 95 -32q36 -32 36 -85q0 -52 -40 -106t-83 -85q-128 -92 -148 -92q-21 -1 -35 19q-15 20 -15 32t36 42q37 30 66 63q-66 29 -66 93zM176 365q121 1 121 -117q0 -60 -61 -98q78 -50 181 -50t170 34t66 102q0 36 -26 62t-64 41
q-37 15 -83 31q-46 18 -87 32q-189 67 -232 171q-22 51 -22 119q0 162 129 247q130 85 316 85t275 -70t89 -174q0 -68 -36 -104t-93 -37q-57 0 -90 29t-33 75q0 78 70 115q-78 45 -168 45t-150 -35t-61 -98q0 -63 88 -102q31 -14 121 -46t130 -51q115 -54 153 -138
q22 -50 22 -118q0 -159 -134 -247q-133 -88 -331 -88t-295 70q-96 71 -96 175q0 66 37 103t94 37z" />
    <glyph glyph-name="uni021A" unicode="&#x21a;" horiz-adv-x="1243" 
d="M520 -61q60 0 95 -32q36 -32 36 -85q0 -52 -40 -106t-83 -85q-128 -92 -148 -92q-21 -1 -35 19q-15 20 -15 32t36 42t66 63q-66 29 -66 93t48 108q46 44 106 43zM1243 977h-69q-37 0 -39 37l-9 196h-239l-172 -1073h84q37 0 30 -37l-10 -63q-6 -37 -43 -37h-469
q-37 0 -31 37l11 63q6 37 43 37h84l172 1073h-240l-78 -198q-14 -35 -51 -35h-67q-29 0 -29 24q0 2 8 52l53 266q8 37 43 37h1063q35 0 35 -33q0 -15 -8 -76l-31 -233q-6 -37 -41 -37z" />
    <glyph glyph-name="uni021B" unicode="&#x21b;" horiz-adv-x="778" 
d="M223 -212q0 64 47 108q46 44 106 43q60 0 96 -32t36 -85q0 -52 -40 -106t-83 -85q-128 -92 -148 -92q-21 -1 -35 19q-16 20 -16 32t37 42t66 63q-66 29 -66 93zM135 221q0 51 8 94l88 559h-129q-37 0 -30 37l8 56q6 37 43 37h127l24 155q6 35 41 47l232 70q16 4 24 -3
t4 -24l-38 -245h254q37 0 30 -37l-8 -56q-6 -37 -43 -37h-254l-84 -538q-10 -57 -10 -98q0 -98 94 -99q47 1 89 25t59 -2l18 -29q25 -39 -23 -78q-88 -75 -236 -75t-218 56t-70 185z" />
    <glyph glyph-name="uni0237" unicode="&#x237;" horiz-adv-x="618" 
d="M-348 -251q0 79 41 120t98 41t91 -32t34 -77q0 -72 -68 -112q20 -12 56 -13q156 0 198 273l142 915l-90 6q-37 2 -31 39l6 41q6 37 43 39l346 23q33 4 33 -27q0 -10 -14 -100l-138 -869q-35 -227 -159 -337t-308 -109q-132 0 -206 50t-74 129z" />
    <glyph glyph-name="circumflex" unicode="&#x2c6;" horiz-adv-x="864" 
d="M152 1133q-14 0 -27 22l-14 25q-9 16 -9 28t21 27l301 221q12 10 28 10t29 -14l221 -217q28 -28 7 -57l-19 -25q-16 -20 -30 -20t-25 6l-213 102l-227 -96q-29 -12 -43 -12z" />
    <glyph glyph-name="caron" unicode="&#x2c7;" horiz-adv-x="864" 
d="M692 1468q18 0 27 -22l14 -25q8 -14 8 -27t-18 -28l-295 -217q-20 -16 -32 -16t-29 14l-224 217q-16 16 -16 28t10 27l19 29q12 20 26 20t27 -6l211 -102l231 98q23 10 41 10z" />
    <glyph glyph-name="breve" unicode="&#x2d8;" horiz-adv-x="835" 
d="M406 1321q117 0 202 102q20 23 30 23t28 -8l30 -17q23 -12 23 -24t-4 -25q-45 -102 -134 -171t-195 -69t-172 64q-65 63 -85 158q-4 16 -4 34t29 33l32 17q12 6 24 6t33 -37q20 -37 67 -61t96 -25z" />
    <glyph glyph-name="dotaccent" unicode="&#x2d9;" horiz-adv-x="495" 
d="M252 1462q70 0 110 -39t41 -105q0 -66 -54 -118q-53 -51 -123 -51t-111 39q-41 40 -41 106t54 117t124 51z" />
    <glyph glyph-name="ring" unicode="&#x2da;" horiz-adv-x="720" 
d="M225 1327q0 -55 28 -87t83 -32t96 48t41 104t-28 87q-29 32 -83 32t-96 -48q-41 -49 -41 -104zM606 1366q0 -106 -80 -190t-201 -84t-177 62t-56 167t80 189t201 85q121 0 177 -62t56 -167z" />
    <glyph glyph-name="ogonek" unicode="&#x2db;" horiz-adv-x="638" 
d="M292 -430q-94 0 -147 43t-53 111q0 137 205 276h104q-67 -72 -97 -120t-30 -94t23 -68q46 -44 143 -3q27 14 41 -8l13 -22q14 -31 -23 -60q-85 -55 -179 -55z" />
    <glyph glyph-name="tilde" unicode="&#x2dc;" horiz-adv-x="888" 
d="M551 1139q-53 0 -135 45t-119 45q-68 0 -119 -53q-24 -24 -55 -5l-21 15q-18 12 -18 26t6 27q98 182 229 182q53 0 135 -45t119 -45q70 0 119 51q24 28 56 7l20 -15q18 -12 18 -26t-6 -27q-98 -182 -229 -182z" />
    <glyph glyph-name="hungarumlaut" unicode="&#x2dd;" horiz-adv-x="964" 
d="M708 1509q14 0 37 -20l101 -86q33 -25 -6 -55l-260 -230q-27 -22 -39 -22t-27 12l-16 14q-18 16 -18 26t9 28l195 317q10 16 24 16zM502 1378q0 -12 -23 -30l-260 -230q-27 -22 -39 -22t-26 12l-17 14q-18 16 -18 26t10 28l195 317q10 16 24 16t37 -20l100 -86
q17 -13 17 -25z" />
    <glyph glyph-name="uni0312" unicode="&#x312;" horiz-adv-x="452" 
d="M188 1149q-60 0 -95 32q-36 32 -36 85t40 106t84 85q125 91 146 91t40 -22q12 -16 12 -28t-37 -42q-37 -31 -66 -63q66 -29 66 -93t-47 -108q-47 -43 -107 -43z" />
    <glyph glyph-name="uni0315" unicode="&#x315;" horiz-adv-x="485" 
d="M88 1094q0 8 8 39l92 356q6 27 25 27q6 0 18 -5l131 -41q23 -6 23 -24q0 -9 -6 -21l-191 -348q-14 -25 -25 -25t-28 5l-20 6q-27 8 -27 31z" />
    <glyph glyph-name="uni0326" unicode="&#x326;" horiz-adv-x="452" 
d="M96 -212q0 64 47 108t107 43q60 0 95 -32q36 -32 36 -85q0 -52 -40 -106t-83 -85q-128 -92 -148 -92q-21 -1 -35 19q-15 20 -15 32t36 42q37 30 66 63q-66 29 -66 93z" />
    <glyph glyph-name="pi" unicode="&#x3c0;" horiz-adv-x="1390" 
d="M1343 1004q37 0 31 -37l-8 -60q-6 -37 -43 -37h-100l-101 -612q-6 -47 -6 -59q0 -45 43 -45q27 0 59 18t48 -8l20 -31q27 -37 -22 -78q-88 -76 -222 -75q-213 0 -213 192q0 51 17 150l88 548h-246l-76 -477q-34 -211 -150 -312t-290 -101q-109 0 -166 47t-57 115t38 113
q38 44 93 44t85 -26t30 -66q0 -74 -72 -115q10 -8 35 -8q59 0 98 54t61 202l84 530h-104q-37 0 -31 37l8 60q6 37 43 37h1026z" />
    <glyph glyph-name="Wgrave" unicode="&#x1e80;" horiz-adv-x="2068" 
d="M1087 1827q12 0 25 -12l260 -269q14 -14 14 -28t-10 -27l-18 -25q-14 -18 -26 -18t-29 8l-324 184q-21 12 -21 22t11 26l94 124q12 15 24 15zM2144 1356q33 0 33 -25q0 -6 -4 -35l-6 -41q-6 -37 -43 -36h-84q-315 -764 -557 -1186q-16 -33 -56 -33h-131q-35 0 -47 35
q-82 303 -153 821q-225 -479 -426 -825q-16 -31 -56 -31h-133q-35 0 -47 35q-113 446 -184 1184h-78q-33 0 -33 24q0 6 4 35l7 41q6 37 43 37h501q37 0 31 -37l-10 -64q-6 -37 -43 -36h-103q51 -664 95 -916q213 414 411 916h-102q-37 0 -31 36l10 64q6 37 43 37h465
q37 0 31 -37l-10 -64q-6 -37 -43 -36h-97q43 -524 125 -916q135 289 381 916h-108q-37 0 -31 36l10 64q6 37 43 37h383z" />
    <glyph glyph-name="wgrave" unicode="&#x1e81;" horiz-adv-x="1613" 
d="M992 1108q-12 0 -29 8l-324 184q-21 12 -21 22t11 26l94 125q13 14 25 14t24 -12l260 -269q27 -27 4 -55l-18 -25q-14 -18 -26 -18zM1253 866q0 64 43 111t122 47t123 -44t44 -136q0 -140 -136 -370t-323 -445q-27 -29 -61 -29h-143q-37 0 -52 35q-49 141 -79 356
q-104 -197 -246 -362q-23 -29 -62 -29h-145q-37 0 -49 35q-104 303 -119 829l-80 6q-31 4 -31 26t7 54q6 37 43 39l309 23q37 4 35 -35q-10 -418 71 -782q162 211 242 397q-10 123 -14 272l-80 6q-37 2 -31 39l6 41q6 37 43 39l309 23q17 2 27 -7t8 -28q-10 -420 70 -772
q248 319 287 526q-61 0 -100 35q-38 36 -38 100z" />
    <glyph glyph-name="Wacute" unicode="&#x1e82;" horiz-adv-x="2068" 
d="M1135 1444q-12 0 -27 18l-18 25q-10 12 -11 26q0 14 15 29l260 268q25 25 49 -2l94 -125q10 -15 10 -25t-20 -22l-324 -184q-16 -8 -28 -8zM2144 1356q33 0 33 -25q0 -6 -4 -35l-6 -41q-6 -37 -43 -36h-84q-315 -764 -557 -1186q-16 -33 -56 -33h-131q-35 0 -47 35
q-82 303 -153 821q-225 -479 -426 -825q-16 -31 -56 -31h-133q-35 0 -47 35q-113 446 -184 1184h-78q-33 0 -33 24q0 6 4 35l7 41q6 37 43 37h501q37 0 31 -37l-10 -64q-6 -37 -43 -36h-103q51 -664 95 -916q213 414 411 916h-102q-37 0 -31 36l10 64q6 37 43 37h465
q37 0 31 -37l-10 -64q-6 -37 -43 -36h-97q43 -524 125 -916q135 289 381 916h-108q-37 0 -31 36l10 64q6 37 43 37h383z" />
    <glyph glyph-name="wacute" unicode="&#x1e83;" horiz-adv-x="1613" 
d="M795 1108q-12 0 -27 18l-18 25q-24 29 4 55l260 269q12 12 24 12t25 -14l94 -125q10 -14 10 -25t-20 -23l-324 -184q-16 -8 -28 -8zM1253 866q0 64 43 111t122 47t123 -44t44 -136q0 -140 -136 -370t-323 -445q-27 -29 -61 -29h-143q-37 0 -52 35q-49 141 -79 356
q-104 -197 -246 -362q-23 -29 -62 -29h-145q-37 0 -49 35q-104 303 -119 829l-80 6q-31 4 -31 26t7 54q6 37 43 39l309 23q37 4 35 -35q-10 -418 71 -782q162 211 242 397q-10 123 -14 272l-80 6q-37 2 -31 39l6 41q6 37 43 39l309 23q17 2 27 -7t8 -28q-10 -420 70 -772
q248 319 287 526q-61 0 -100 35q-38 36 -38 100z" />
    <glyph glyph-name="Wdieresis" unicode="&#x1e84;" horiz-adv-x="2068" 
d="M1210 1640q0 -60 -49 -107q-49 -46 -111 -46t-100 35q-37 36 -37 96q1 60 49 106t111 45q63 0 101 -34q36 -35 36 -95zM1315 1618q0 60 48 106q47 46 111 45t101 -35t37 -94t-49 -107q-49 -46 -111 -46t-100 35q-37 36 -37 96zM2144 1356q33 0 33 -25q0 -6 -4 -35l-6 -41
q-6 -37 -43 -36h-84q-315 -764 -557 -1186q-16 -33 -56 -33h-131q-35 0 -47 35q-82 303 -153 821q-225 -479 -426 -825q-16 -31 -56 -31h-133q-35 0 -47 35q-113 446 -184 1184h-78q-33 0 -33 24q0 6 4 35l7 41q6 37 43 37h501q37 0 31 -37l-10 -64q-6 -37 -43 -36h-103
q51 -664 95 -916q213 414 411 916h-102q-37 0 -31 36l10 64q6 37 43 37h465q37 0 31 -37l-10 -64q-6 -37 -43 -36h-97q43 -524 125 -916q135 289 381 916h-108q-37 0 -31 36l10 64q6 37 43 37h383z" />
    <glyph glyph-name="wdieresis" unicode="&#x1e85;" horiz-adv-x="1613" 
d="M887 1302q0 -60 -49 -107q-50 -46 -112 -46t-99 35q-37 36 -37 96t48 106t112 46t100 -35q37 -35 37 -95zM1260 1302q0 -60 -50 -107q-50 -46 -111 -46q-62 0 -100 35q-37 36 -37 96t49 106q48 46 111 46q62 0 100 -35t38 -95zM1253 866q0 64 43 111t122 47t123 -44
t44 -136q0 -140 -136 -370t-323 -445q-27 -29 -61 -29h-143q-37 0 -52 35q-49 141 -79 356q-104 -197 -246 -362q-23 -29 -62 -29h-145q-37 0 -49 35q-104 303 -119 829l-80 6q-31 4 -31 26t7 54q6 37 43 39l309 23q37 4 35 -35q-10 -418 71 -782q162 211 242 397
q-10 123 -14 272l-80 6q-37 2 -31 39l6 41q6 37 43 39l309 23q17 2 27 -7t8 -28q-10 -420 70 -772q248 319 287 526q-61 0 -100 35q-38 36 -38 100z" />
    <glyph glyph-name="Ygrave" unicode="&#x1ef2;" horiz-adv-x="1255" 
d="M657 1827q12 0 25 -12l260 -269q14 -14 14 -28t-10 -27l-18 -25q-14 -18 -26 -18t-30 8l-323 184q-21 12 -21 22t11 26l94 124q12 15 24 15zM1325 1219h-84q-221 -434 -465 -746l-53 -336h104q37 0 31 -37l-10 -63q-6 -37 -43 -37h-510q-37 0 -31 37l10 63q6 37 43 37
h105l53 334q-139 299 -231 748h-84q-33 0 -33 24q0 6 4 35l6 41q6 37 43 37h482q37 0 30 -37l-10 -64q-6 -37 -43 -36h-94q61 -377 155 -605q172 233 344 605h-81q-37 0 -31 36l10 64q6 37 43 37h361q33 0 32 -25q0 -6 -4 -35l-6 -41q-6 -36 -43 -36z" />
    <glyph glyph-name="ygrave" unicode="&#x1ef3;" horiz-adv-x="1179" 
d="M784 1108q-12 0 -28 8l-324 184q-20 12 -20 22t10 26l94 125q12 14 24 14t25 -12l260 -269q27 -27 4 -55l-18 -25q-15 -18 -27 -18zM96 897q0 11 6 53q6 37 43 39l347 23q18 2 26 -7t4 -28l-92 -582q-8 -53 -8 -78q0 -131 104 -131q70 0 133 69t91 243l71 469q6 37 43 37
h213q37 0 31 -37l-139 -901q-39 -250 -193 -373t-379 -123q-170 0 -275 66t-106 186q0 76 44 119t110 43t104 -32q37 -32 37 -85q0 -84 -73 -129q51 -45 135 -45q254 0 299 313l22 154q-109 -139 -286 -140q-139 0 -205 77t-66 208q0 53 8 96l72 463l-90 6q-31 4 -31 27z
" />
    <glyph glyph-name="endash" unicode="&#x2013;" horiz-adv-x="1024" 
d="M174 666h727q31 0 31 -27q0 -6 -2 -21l-10 -67q-6 -37 -43 -37h-727q-31 0 -31 27q0 6 2 18l10 70q6 37 43 37z" />
    <glyph glyph-name="emdash" unicode="&#x2014;" horiz-adv-x="1638" 
d="M174 666h1339q33 0 33 -27q0 -6 -2 -21l-10 -67q-6 -37 -43 -37h-1341q-31 0 -31 27q0 6 2 18l10 70q6 37 43 37z" />
    <glyph glyph-name="quoteleft" unicode="&#x2018;" horiz-adv-x="466" 
d="M473 1047q0 -72 -48 -123q-48 -52 -119 -52q-142 -1 -142 152q0 106 76 226t182 214q26 26 57 4l25 -18q16 -14 16 -24t-14 -29q-86 -98 -131 -205q98 -32 98 -145z" />
    <glyph glyph-name="quoteright" unicode="&#x2019;" horiz-adv-x="466" 
d="M203 1305q0 73 48 123t119 50q142 1 142 -151q0 -106 -76 -226t-182 -214q-26 -26 -57 -4l-25 18q-16 15 -16 25t14 28q86 98 131 205q-98 33 -98 146z" />
    <glyph glyph-name="quotesinglbase" unicode="&#x201a;" horiz-adv-x="466" 
d="M196 336q142 0 142 -152q0 -106 -76 -226t-182 -214q-14 -14 -28 -14t-29 10l-25 18q-16 14 -16 24t14 30q86 98 131 204q-98 33 -98 146q0 72 48 123t119 51z" />
    <glyph glyph-name="quotedblleft" unicode="&#x201c;" horiz-adv-x="872" 
d="M879 1047q-1 -72 -49 -123q-48 -52 -118 -52t-107 40q-36 40 -36 129t76 209t182 214q25 25 58 4l24 -18q17 -14 17 -24t-15 -29q-86 -98 -131 -205q99 -32 99 -145zM473 1047q0 -72 -48 -123q-48 -52 -119 -52q-142 -1 -142 152q0 106 76 226t182 214q26 26 57 4l25 -18
q16 -14 16 -24t-14 -29q-86 -98 -131 -205q98 -32 98 -145z" />
    <glyph glyph-name="quotedblright" unicode="&#x201d;" horiz-adv-x="872" 
d="M608 1305q0 73 48 123t119 50t107 -39q36 -40 36 -129t-76 -209t-183 -214q-25 -25 -57 -4l-24 18q-16 15 -16 25t13 28q86 98 132 205q-99 33 -99 146zM203 1305q0 73 48 123t119 50q142 1 142 -151q0 -106 -76 -226t-182 -214q-26 -26 -57 -4l-25 18q-16 15 -16 25
t14 28q86 98 131 205q-98 33 -98 146z" />
    <glyph glyph-name="quotedblbase" unicode="&#x201e;" horiz-adv-x="872" 
d="M601 336q71 0 107 -40t35 -112q1 -106 -75 -226t-183 -214q-14 -14 -28 -14t-29 10l-25 18q-16 14 -16 24t14 30q86 98 131 204q-98 33 -98 146q0 72 48 123t119 51zM196 336q142 0 142 -152q0 -106 -76 -226t-182 -214q-14 -14 -28 -14t-29 10l-25 18q-16 14 -16 24
t14 30q86 98 131 204q-98 33 -98 146q0 72 48 123t119 51z" />
    <glyph glyph-name="dagger" unicode="&#x2020;" horiz-adv-x="905" 
d="M258 1116q-31 0 -31 25q0 2 4 39l5 32q6 37 45 37h213l36 230q6 37 43 37h78q37 0 31 -37l-37 -230h215q31 0 31 -26q0 -6 -2 -21l-6 -49q-6 -37 -43 -37h-215l-97 -600q-6 -37 -43 -37h-75q-37 0 -31 37l94 600h-215z" />
    <glyph glyph-name="daggerdbl" unicode="&#x2021;" horiz-adv-x="905" 
d="M799 846q29 0 28 -27q0 -6 -2 -24l-6 -45q-6 -37 -43 -37h-215l-108 -676q-6 -37 -43 -37h-76q-37 0 -31 37l107 676h-213q-31 0 -31 24q0 4 4 37l4 35q6 37 43 37h215l41 270h-215q-31 0 -31 25l4 37l5 34q6 37 45 37h213l36 230q6 37 43 37h78q37 0 31 -37l-37 -230
h215q31 0 31 -26q0 -6 -2 -21l-6 -49q-6 -37 -43 -37h-215l-43 -270h217z" />
    <glyph glyph-name="bullet" unicode="&#x2022;" horiz-adv-x="806" 
d="M717 598q0 -129 -83 -217t-218 -88t-218 88t-83 217t83 217t218 88t218 -88t83 -217z" />
    <glyph glyph-name="ellipsis" unicode="&#x2026;" horiz-adv-x="1609" 
d="M383 171q0 -77 -53 -134t-131 -57t-119 44t-41 120t53 134t131 58t119 -44t41 -121zM920 171q0 -77 -54 -134t-131 -57q-78 0 -119 44t-41 120q-1 76 53 134t132 58t119 -44t41 -121zM1112 144q0 76 53 134t131 58t120 -44q40 -44 40 -121t-53 -134t-131 -57t-119 44
t-41 120z" />
    <glyph glyph-name="perthousand" unicode="&#x2030;" horiz-adv-x="2641" 
d="M2030 227q0 -145 86 -145q66 0 112 79q80 135 80 345q0 145 -86 145q-66 0 -113 -79q-79 -133 -79 -345zM1231 227q0 -145 86 -145q66 0 113 79q79 133 79 345q0 145 -86 145q-67 0 -113 -79q-80 -135 -79 -345zM2527 414q1 -162 -107 -298t-309 -136q-147 0 -224 80
t-77 214q0 193 109 336t307 144q147 0 224 -88q77 -90 77 -252zM1729 414q0 -162 -108 -298t-308 -136q-147 0 -224 80t-77 214q0 193 108 336q109 143 307 144q147 0 225 -88q77 -90 77 -252zM385 850q0 -145 86 -145q66 1 113 79q77 129 80 344q0 145 -86 146
q-66 0 -113 -79q-80 -134 -80 -345zM440 0h-92q-16 0 -20 8t6 21l1059 1298q23 29 59 29h92q35 0 15 -29l-1059 -1298q-23 -29 -60 -29zM883 1038q0 -162 -108 -300q-108 -136 -308 -136q-147 0 -224 81t-77 214q0 193 108 336q109 143 308 143q147 0 224 -88t77 -250z" />
    <glyph glyph-name="guilsinglleft" unicode="&#x2039;" horiz-adv-x="634" 
d="M379 121q-12 0 -29 22l-246 371q-10 16 -10 28t17 29l370 379q28 28 54 2l38 -34q26 -26 7 -56l-218 -334l109 -329q10 -33 -20 -49l-48 -23q-12 -6 -24 -6z" />
    <glyph glyph-name="guilsinglright" unicode="&#x203a;" horiz-adv-x="626" 
d="M258 969q12 0 29 -23l245 -371q10 -16 10 -28t-16 -29l-370 -379q-14 -14 -28 -14t-26 12l-39 35q-16 16 -16 28t10 27l217 334l-108 330q-10 33 20 49l47 23q13 6 25 6z" />
    <glyph glyph-name="fraction" unicode="&#x2044;" horiz-adv-x="278" 
d="M-367 0h-92q-20 0 -20 14q0 8 20 31l1045 1282q23 29 59 29h92q21 0 21 -10t-27 -43l-1038 -1274q-23 -29 -60 -29z" />
    <glyph glyph-name="uni2082" unicode="&#x2082;" horiz-adv-x="798" 
d="M477 603q0 106 -98 106q-51 0 -98 -29q43 -27 43 -68q0 -40 -33 -70t-73 -30t-62 23t-23 59q0 78 56 127q55 49 117 63t150 14t167 -47q77 -48 77 -144t-99 -176q-68 -55 -214 -138q-145 -82 -201 -143h328l23 55q12 35 49 35h22q37 0 31 -37l-31 -166q-6 -37 -43 -37
h-506q-25 0 -22 27l4 28q12 74 58 139q46 66 83 94q38 28 102 72t92 64t64 74t37 105z" />
    <glyph glyph-name="uni2084" unicode="&#x2084;" horiz-adv-x="798" 
d="M670 268q0 -74 -47 -73h-64l-16 -101h26q37 0 31 -37l-4 -20q-8 -37 -43 -37h-266q-37 0 -31 37l4 20q8 37 43 37h23l16 101h-295q-33 0 -33 24q0 47 31 82l342 457q23 29 59 28h70q37 0 14 -28l-356 -463h184l23 139q6 35 41 47l158 41q16 4 23 -2t5 -24l-33 -201h64
q31 0 31 -27z" />
    <glyph glyph-name="Euro" unicode="&#x20ac;" 
d="M66 446q-37 0 -31 37l10 64q6 37 43 37h88q6 78 23 174h-82q-37 0 -31 37l10 63q6 37 43 37h97q76 219 233 350q158 131 395 131q150 0 241 -70t91 -188q0 -84 -45 -134t-107 -50t-100 32q-37 32 -37 81q0 98 105 135q-59 45 -140 45q-240 0 -340 -332h312q37 0 30 -37
l-10 -63q-6 -37 -43 -37h-319q-14 -76 -21 -174h312q37 0 30 -37l-10 -64q-6 -37 -43 -37h-291q7 -152 65 -228t185 -77q127 0 246 92q28 21 51 -8l25 -39q20 -29 -7 -53q-174 -153 -402 -153t-341 124t-125 342h-110z" />
    <glyph glyph-name="trademark" unicode="&#x2122;" horiz-adv-x="1609" 
d="M1647 1331q0 -47 -41 -47h-31l-82 -516h29q35 0 30 -31l-2 -14q-6 -29 -39 -29h-221q-35 0 -28 33l2 10q6 31 39 31h22l64 393l-187 -287q-20 -31 -57 -30h-29q-35 0 -47 35l-100 323l-70 -434h33q35 0 31 -31l-2 -14q-6 -29 -39 -29h-152q-35 0 -29 33l2 10q6 31 37 31
h35l80 516h-29q-18 0 -25 7t-3 36t39 29h174q35 0 47 -35l96 -311l201 315q20 31 57 31h164q31 0 31 -25zM272 768h33l82 512h-115l-32 -80q-12 -29 -43 -29h-4q-27 0 -27 21q0 10 8 51l14 76q6 37 45 37h502q35 0 33 -37l-16 -115q-2 -33 -37 -33h-4q-33 0 -35 33l-6 76
h-115l-82 -512h33q35 0 31 -31l-2 -14q-6 -29 -39 -29h-238q-35 0 -29 33l2 10q6 31 41 31z" />
    <glyph glyph-name="Omega" unicode="&#x2126;" horiz-adv-x="1470" 
d="M446 709q0 -246 160 -320q20 -10 26 -20t3 -31l-47 -301q-6 -37 -43 -37h-479q-37 0 -33 37l30 264q2 37 41 37h58q37 0 39 -37l4 -113h239l15 95q-162 51 -243 175t-81 287q-1 267 187 449t542 182q266 0 414 -133t147 -344q0 -211 -146 -385t-353 -231l-15 -95h236
l45 115q14 35 51 35h53q37 0 31 -37l-53 -264q-6 -37 -43 -37h-481q-37 0 -31 37l47 299q4 37 41 51q96 31 169 123q138 174 138 401q0 158 -72 233t-186 75q-294 0 -387 -341q-23 -85 -23 -169z" />
    <glyph glyph-name="partialdiff" unicode="&#x2202;" horiz-adv-x="1167" 
d="M358 369q0 -264 160 -265q123 0 199 134t76 342q0 262 -160 262q-123 0 -199 -134t-76 -339zM1112 723q0 -340 -156 -543t-460 -203q-215 0 -325 113q-110 112 -110 274q0 343 252 513q135 90 326 90q125 0 186 -68q-53 414 -417 516q-35 8 -23 43l14 43q13 35 50 33
q264 -20 452 -199q99 -92 155 -249t56 -363z" />
    <glyph glyph-name="Delta" unicode="&#x2206;" horiz-adv-x="1368" 
d="M764 1356h119q37 0 49 -35q80 -221 164 -533t116 -530q7 -36 0 -72l-26 -149q-6 -37 -43 -37h-1088q-31 0 -30 27q0 10 2 24l18 133q6 37 23 70q276 530 639 1071q20 31 57 31zM915 225q-72 430 -196 826q-270 -406 -473 -826h669z" />
    <glyph glyph-name="product" unicode="&#x220f;" horiz-adv-x="1456" 
d="M1450 1219h-84l-172 -1082h84q37 0 31 -37l-11 -63q-6 -37 -43 -37h-469q-37 0 -30 37l10 63q6 37 43 37h84l170 1071h-445l-169 -1071h83q37 0 31 -37l-10 -63q-6 -37 -43 -37h-469q-31 0 -31 27q0 4 4 32l6 41q6 37 43 37h84l172 1082h-83q-37 0 -31 36l10 64
q6 37 43 37h1212q33 0 33 -25q0 -4 -4 -33l-6 -43q-6 -36 -43 -36z" />
    <glyph glyph-name="summation" unicode="&#x2211;" horiz-adv-x="1148" 
d="M948 387h72q37 0 31 -37l-64 -313q-6 -37 -43 -37h-911q-31 0 -31 27q0 10 2 24l8 58q6 37 33 61l516 469l-354 541q-20 31 -14 67l10 72q6 37 43 37h882q33 0 33 -27q0 -12 -8 -69l-31 -226q-6 -37 -41 -37h-61q-37 0 -39 37l-10 168h-426l260 -393q20 -31 14 -68
l-10 -69q-6 -35 -35 -62l-430 -377h512l43 119q12 35 49 35z" />
    <glyph glyph-name="minus" unicode="&#x2212;" 
d="M1032 426h-889q-31 0 -30 27q0 14 4 34l10 58q6 37 43 37h889q31 0 31 -27q0 -2 -7 -43l-8 -49q-6 -37 -43 -37z" />
    <glyph glyph-name="radical" unicode="&#x221a;" horiz-adv-x="1310" 
d="M90 877q-31 0 -31 22q0 8 4 41l5 27q6 37 43 37h376q37 0 43 -37l101 -686l543 1202q14 33 51 33h98q25 0 25 -17q0 -4 -5 -16l-663 -1450q-16 -33 -53 -33h-199q-37 0 -43 37l-149 840h-146z" />
    <glyph glyph-name="infinity" unicode="&#x221e;" horiz-adv-x="1533" 
d="M260 471q0 -78 42 -120t108 -42q119 0 264 172q-41 55 -68 86q-28 31 -72 58t-107 27t-115 -52q-52 -51 -52 -129zM1109 391q63 0 115 52q52 51 52 129t-42 120t-108 41q-119 0 -264 -172q41 -55 68 -86q28 -31 72 -57t107 -27zM1421 575q0 -156 -95 -261t-265 -105
q-111 0 -188 52t-144 145q-84 -94 -165 -146q-80 -52 -192 -51q-112 0 -185 72t-72 186q0 156 95 261t265 106q111 0 188 -52t144 -145q84 94 165 145q80 52 192 52t184 -72t73 -187z" />
    <glyph glyph-name="integral" unicode="&#x222b;" horiz-adv-x="1155" 
d="M-4 -90q57 0 91 -32t34 -77q0 -72 -68 -112q20 -12 56 -13q156 0 198 273l180 1138q35 227 162 337t312 110q133 0 209 -54t77 -134q0 -80 -41 -120t-98 -40t-91 32t-34 76q0 72 70 115q-27 16 -64 16q-72 0 -128 -63t-77 -207l-180 -1139q-35 -227 -159 -337t-308 -109
q-133 0 -207 50t-74 129t42 120q41 41 98 41z" />
    <glyph glyph-name="approxequal" unicode="&#x2248;" 
d="M438 881q90 0 168 -46q78 -47 139 -93t113 -46q94 0 170 113q16 25 26 25t27 -9l35 -18q23 -13 23 -27t-4 -22q-109 -221 -310 -221q-90 0 -168 46t-139 92t-112 46q-96 0 -170 -113q-17 -33 -54 -16l-35 18q-33 17 -16 54q108 217 307 217zM377 471q90 0 168 -46
t139 -92t113 -46q94 0 170 112q16 25 26 25t27 -8l35 -19q32 -17 18 -49q-109 -221 -309 -221q-90 0 -168 46t-139 92t-113 46q-96 0 -170 -112q-12 -23 -26 -23t-27 6l-35 19q-23 12 -23 26t7 27q108 217 307 217z" />
    <glyph glyph-name="notequal" unicode="&#x2260;" 
d="M180 -53q-37 0 -16 30l168 244h-221q-31 0 -31 27q0 14 4 35l10 57q6 37 43 37h301l174 254h-436q-31 0 -31 26q0 14 5 35l10 58q6 37 43 36h516l168 244q20 31 57 31h78q37 0 16 -31l-168 -244h222q31 0 30 -26q0 -2 -6 -43l-8 -49q-6 -37 -43 -37h-301l-176 -254h438
q31 0 31 -27q0 -2 -6 -43l-9 -49q-6 -37 -43 -37h-518l-168 -244q-20 -31 -57 -30h-76z" />
    <glyph glyph-name="lessequal" unicode="&#x2264;" 
d="M150 156h768q31 0 30 -27q0 -2 -6 -43l-8 -49q-6 -37 -43 -37h-768q-31 0 -31 27q0 14 4 34l10 58q7 37 44 37zM1032 1063q16 0 27 -25l28 -80q5 -12 5 -24t-27 -25l-690 -268l583 -262q33 -14 17 -47l-39 -76q-18 -33 -49 -16l-680 309q-33 18 -27 53l17 94q6 38 41 52
l759 305q27 10 35 10z" />
    <glyph glyph-name="greaterequal" unicode="&#x2265;" 
d="M315 1063q8 0 41 -14l662 -301q26 -12 26 -32t-4 -48l-12 -68q-6 -37 -41 -51l-774 -311q-35 -14 -47 20l-29 80q-12 35 23 49l690 268l-584 263q-33 14 -16 47l39 75q12 23 26 23zM156 156h768q31 0 30 -27q0 -2 -6 -43l-8 -49q-6 -37 -43 -37h-768q-31 0 -31 27
q0 14 4 34l11 58q6 37 43 37z" />
    <glyph glyph-name="lozenge" unicode="&#x25ca;" horiz-adv-x="1351" 
d="M700 1356h215q37 0 52 -35l309 -731q10 -31 10 -42t-6 -54l-14 -91q-6 -41 -29 -65l-528 -719q-23 -29 -60 -29h-215q-37 0 -51 35l-309 735q-15 38 -4 97l14 86q6 41 29 65l528 719q22 29 59 29zM614 -240l451 611l-328 817l-450 -610z" />
    <glyph glyph-name="fi" unicode="&#xfb01;" horiz-adv-x="1267" 
d="M1085 154q27 0 59 18t48 -8l16 -25q14 -19 14 -37t-32 -47q-88 -76 -221 -75q-213 0 -213 192q0 51 16 150l86 552h-321l-134 -858q-35 -227 -159 -337t-307 -109q-133 0 -207 50t-74 129t41 120t98 41t91 -32t34 -77q0 -72 -67 -112q20 -12 55 -13q156 0 198 273
l146 925h-129q-37 0 -31 37l8 56q6 37 43 37h127l15 86q35 222 187 334t334 112t286 -57t104 -158q0 -74 -44 -120t-112 -46t-104 36q-37 37 -37 101t70 103q-51 20 -117 20q-231 0 -270 -258l-25 -153h449l124 8q18 2 26 -7t5 -28l-112 -719q-6 -45 -7 -59q0 -45 43 -45z
" />
    <glyph glyph-name="fl" unicode="&#xfb02;" horiz-adv-x="1267" 
d="M1241 1503q0 -16 -14 -106l-178 -1139q-6 -45 -7 -59q0 -45 43 -45q27 0 59 18t48 -8l20 -31q27 -37 -22 -78q-88 -76 -221 -75q-213 0 -213 192q0 51 16 150l164 1048q-49 45 -145 45q-170 0 -209 -258l-25 -153h180q37 0 31 -37l-8 -56q-6 -37 -43 -37h-180l-134 -858
q-35 -227 -159 -337t-307 -109q-133 0 -207 50t-74 129t41 120t98 41t91 -32t34 -77q0 -72 -67 -112q20 -12 55 -13q156 0 198 273l146 925h-129q-37 0 -31 37l8 56q6 37 43 37h127l15 86q35 226 163 336t308 110q182 0 282 -66l174 54q29 10 29 -21z" />
    <glyph glyph-name="zero.zero" 
d="M735 686q0 -47 -33 -82t-80 -35q-48 0 -72 27t-24 74t33 82q33 34 80 34q96 -2 96 -100zM381 402q0 -134 36 -208t123 -75q88 0 158 87t108 219q73 253 75 513q0 150 -36 224t-123 75q-87 0 -158 -87t-108 -219q-75 -260 -75 -529zM528 -20q-223 0 -326 143
q-104 143 -104 392t93 466q50 115 122 202t181 140t239 53q223 0 327 -143t103 -394q0 -251 -93 -464q-107 -246 -302 -342q-109 -53 -240 -53z" />
    <glyph glyph-name="grave.case" horiz-adv-x="661" 
d="M272 1827q12 0 25 -12l260 -269q14 -14 14 -28t-10 -27l-18 -25q-15 -18 -27 -18t-29 8l-323 184q-20 12 -20 22t10 26l94 124q12 15 24 15z" />
    <glyph glyph-name="acute.case" horiz-adv-x="663" 
d="M274 1444q-12 0 -28 18l-19 25q-10 12 -10 26t14 29l261 268q25 25 49 -2l94 -125q10 -15 10 -25t-20 -22l-324 -184q-15 -8 -27 -8z" />
    <glyph glyph-name="dieresis.case" horiz-adv-x="917" 
d="M451 1640q1 -60 -49 -107q-50 -46 -112 -46t-100 35q-36 36 -36 96t48 106t111 45q63 0 101 -34q37 -35 37 -95zM555 1618q0 60 48 106q47 46 111 45t101 -35t37 -94t-49 -107q-49 -46 -111 -46t-100 35q-37 36 -37 96z" />
    <glyph glyph-name="circumflex.case" horiz-adv-x="864" 
d="M209 1473q-14 0 -27 22l-14 25q-8 16 -8 28t20 27l301 221q11 10 27 10t31 -14l221 -217q16 -15 16 -29t-10 -28l-18 -25q-16 -20 -30 -20t-26 6l-213 102l-227 -96q-29 -12 -43 -12z" />
    <glyph glyph-name="tilde.case" horiz-adv-x="888" 
d="M606 1477q-53 0 -135 45t-119 45q-68 0 -119 -54q-14 -14 -27 -14t-28 10l-20 15q-29 19 -13 53q98 182 230 182q53 0 135 -45t119 -45q70 0 119 51q25 28 55 6l20 -14q30 -20 13 -53q-99 -182 -230 -182z" />
    <glyph glyph-name="macron.case" horiz-adv-x="794" 
d="M229 1683h441q33 0 32 -30q0 -6 -2 -19l-12 -86q-6 -37 -41 -37h-440q-33 0 -33 31q0 4 2 19l12 86q6 36 41 36z" />
    <glyph glyph-name="breve.case" horiz-adv-x="835" 
d="M461 1659q117 0 203 102q20 23 30 23t27 -8l31 -17q22 -10 22 -23t-4 -26q-45 -102 -134 -171q-90 -69 -196 -69t-171 64t-85 158q-4 16 -4 34t29 33l33 17q12 6 20 6q16 0 36 -37t67 -61t96 -25z" />
    <glyph glyph-name="dotaccent.case" horiz-adv-x="495" 
d="M457 1656q-1 -66 -55 -118q-54 -51 -124 -51t-110 39q-41 40 -41 106t54 117t124 51t111 -39t41 -105z" />
    <glyph glyph-name="ring.case" horiz-adv-x="720" 
d="M283 1663q0 -119 110 -119q55 0 96 48t41 104q0 120 -110 119q-55 -1 -96 -49t-41 -103zM383 1427q-121 1 -177 63t-56 167t80 189t200 85q121 0 177 -62q57 -62 57 -167t-80 -190t-201 -85z" />
    <glyph glyph-name="hungarumlaut.case" horiz-adv-x="964" 
d="M362 1847q14 0 37 -20l101 -86q33 -25 -6 -55l-261 -230q-27 -22 -37 -22t-28 12l-16 14q-28 22 -9 53l195 318q10 16 24 16zM494 1486q0 12 10 27l194 318q10 16 24 16t38 -20l100 -86q33 -25 -6 -55l-260 -230q-27 -22 -38 -22t-28 12l-16 14q-18 14 -18 26z" />
    <glyph glyph-name="caron.case" horiz-adv-x="864" 
d="M745 1806q17 0 27 -22l14 -25q8 -14 8 -26t-18 -29l-295 -217q-20 -17 -31 -17t-30 15l-223 217q-25 25 -7 55l19 29q13 20 27 20t26 -6l211 -102l232 98q23 10 40 10z" />
    <glyph glyph-name="i.trk" horiz-adv-x="647" 
d="M135 172q0 51 17 150l81 540l-88 8q-37 2 -30 39l6 41q6 37 43 39l346 23q18 2 26 -7t5 -28l-113 -719q-6 -45 -6 -59q0 -45 43 -45q27 0 59 18t47 -8l21 -31q26 -37 -23 -78q-88 -76 -221 -75q-213 0 -213 192zM618 1334q0 -70 -55 -123q-55 -52 -129 -52t-115 39
q-41 40 -41 110t56 122q55 52 128 53q73 0 115 -39q41 -40 41 -110z" />
    <glyph glyph-name="bbox" horiz-adv-x="163" 
d="M51 -461v2491h62v-2491h-62z" />
    </font>
</defs>
</svg>
