<?xml version="1.0" standalone="no"?>
<!DOCTYPE svg PUBLIC "-//W3C//DTD SVG 1.1//EN" "http://www.w3.org/Graphics/SVG/1.1/DTD/svg11.dtd" >
<svg xmlns="http://www.w3.org/2000/svg">
<metadata>
Created by FontPrep 20130207 at Thu Jan 15 11:24:18 2015
 By Rogerson, John (GE Global Research)
Digitized data (C) 2005 Monotype Corporation. All rights reserved. GE Inspira is a trademark of the General Electric Company.
</metadata>
<defs>
<font id="e4762eff337b70eee947f116c2c9eec0" horiz-adv-x='1024' >
  <font-face 
    font-family="GEInspira-Medium"
    font-weight="400"
    font-stretch="normal"
    units-per-em="2048"
    panose-1="2 15 6 3 3 4 0 2 2 3"
    ascent="1638"
    descent="-410"
    x-height="1044"
    cap-height="1393"
    bbox="-373 -475 2552 1944"
    underline-thickness="166"
    underline-position="-97"
    unicode-range="U+000D-FB04"
  />
<missing-glyph horiz-adv-x="1350" 
d="M342 1266q-29 0 -29 -33v-1073q0 -33 29 -33h666q28 0 28 33v1073q0 33 -28 33h-666zM1165 135q0 -65 -37 -100t-102 -35h-702q-65 0 -102.5 35t-37.5 100v1122q0 65 37.5 100.5t102.5 35.5h702q65 0 102 -35.5t37 -100.5v-1122z" />
    <glyph glyph-name=".notdef" horiz-adv-x="1350" 
d="M342 1266q-29 0 -29 -33v-1073q0 -33 29 -33h666q28 0 28 33v1073q0 33 -28 33h-666zM1165 135q0 -65 -37 -100t-102 -35h-702q-65 0 -102.5 35t-37.5 100v1122q0 65 37.5 100.5t102.5 35.5h702q65 0 102 -35.5t37 -100.5v-1122z" />
    <glyph glyph-name=".null" horiz-adv-x="627" 
 />
    <glyph glyph-name="nonmarkingreturn" unicode="&#xd;" horiz-adv-x="811" 
 />
    <glyph glyph-name="space" unicode=" " horiz-adv-x="475" 
 />
    <glyph glyph-name="exclam" unicode="!" horiz-adv-x="541" 
d="M268 -20q-50 0 -83 32.5t-33 84.5t33 85t85 33t85.5 -33t33.5 -85t-35.5 -84.5t-85.5 -32.5zM365 422q-1 -90 -95 -90t-94 90v895q0 90 94 90t95 -90v-895z" />
    <glyph glyph-name="quotedbl" unicode="&#x22;" horiz-adv-x="752" 
d="M643 1004q0 -89 -91 -89t-91 89v315q0 88 91 88t91 -88v-315zM291 1004q0 -89 -91 -89t-91 89v315q0 88 91 88t91 -88v-315z" />
    <glyph glyph-name="numbersign" unicode="#" horiz-adv-x="1257" 
d="M522 877l-55 -357h268l56 357h-269zM737 -14q-78 0 -78 71q0 30 11 72l39 229h-267l-49 -292q-7 -44 -28.5 -62t-67.5 -18q-80 0 -80 69q0 17 8 76l41 227h-153q-82 0 -82 66q0 96 98 96h160l57 357h-153q-80 0 -80 63q0 98 98 98h160l41 261q18 88 42 98t62 10
q80 0 80 -66q0 -8 -8 -69l-39 -234h266l47 291q12 78 95 78t83 -66q0 -11 -8 -67l-41 -236h156q80 0 80 -65q0 -96 -97 -96h-161l-58 -357h156q78 0 78 -65q0 -97 -96 -97h-162l-38 -249q-5 -123 -112 -123z" />
    <glyph glyph-name="dollar" unicode="$" horiz-adv-x="1085" 
d="M805 379q0 143 -187 209v-430q187 31 187 221zM297 1028q0 -139 176 -197v402q-84 -13 -130 -69t-46 -136zM618 -111q0 -77 -73 -77q-44 0 -58 17t-14 60v97q-146 15 -259.5 84.5t-113.5 128.5q0 31 25 60.5t55 29.5t78 -33q110 -79 215 -98v477q-199 56 -281.5 147
t-82.5 240t98.5 254.5t265.5 130.5v84q1 78 73 78t72 -78v-82q143 -16 241.5 -80t98.5 -125q0 -34 -29 -65t-59 -31t-77 43q-70 66 -175 82v-449q200 -61 287.5 -156.5t87.5 -249.5t-102 -265t-273 -127v-97z" />
    <glyph glyph-name="percent" unicode="%" horiz-adv-x="1868" 
d="M1430 650q-83 0 -126.5 -71.5t-43.5 -191.5t45.5 -192t126.5 -72t126.5 73t45.5 191q0 263 -174 263zM1430 -20q-152 0 -244 111t-92 295t90 295.5t246 111.5t247.5 -109.5t91.5 -294.5t-93.5 -297t-245.5 -112zM509 -20q-34 0 -60.5 21t-26.5 45t55 110l823 1216
q28 41 65 41t61 -21.5t24 -47.5t-23 -60l-849 -1253q-35 -51 -69 -51zM444 1270q-82 0 -127 -70t-45 -190t45 -193.5t127 -73.5t127 72.5t45 194.5t-45 191t-127 69zM445 600q-152 0 -245.5 112t-93.5 296t91.5 294.5t246.5 110.5t246.5 -110t91.5 -294t-92.5 -296.5
t-244.5 -112.5z" />
    <glyph glyph-name="ampersand" unicode="&#x26;" horiz-adv-x="1274" 
d="M281 399q0 -105 75 -176t197 -71q181 0 281 133l-394 348q-159 -63 -159 -234zM952 731q0 88 92 88t91 -88q0 -216 -76 -399l196 -172q39 -34 39 -71t-26 -67t-62 -30t-55 18l-30 25q-14 11 -30 26l-128 111q-150 -190 -420 -190q-203 0 -327 119t-124 296q0 248 223 355
q-137 136 -137 296t111 263.5t285 103.5t281.5 -71t107.5 -127q0 -38 -29 -67.5t-61 -29.5t-80 41q-101 82 -207 82t-162.5 -52t-56.5 -143t84.5 -177t466.5 -418q34 124 34 278z" />
    <glyph glyph-name="quotesingle" unicode="'" horiz-adv-x="399" 
d="M291 1004q0 -89 -91 -89t-91 89v315q0 88 91 88t91 -88v-315z" />
    <glyph glyph-name="parenleft" unicode="(" horiz-adv-x="477" 
d="M310 -162q-40 0 -69 31t-65 155t-63 304t-27 388t51.5 458.5t89.5 296t78 45.5q86 0 86 -72q-1 -32 -35 -124t-61 -279.5t-27 -355.5t27 -363.5t78 -335.5q18 -38 18 -69t-20.5 -55t-60.5 -24z" />
    <glyph glyph-name="parenright" unicode=")" horiz-adv-x="477" 
d="M207 684q0 406 -101 678q-20 50 -20 82q0 72 86 72q46 0 80.5 -55t86.5 -271t52 -464t-27.5 -415.5t-64 -290t-65 -152.5t-60.5 -30q-88 0 -88 74q0 31 18 74q103 292 103 698z" />
    <glyph glyph-name="asterisk" unicode="*" horiz-adv-x="885" 
d="M698 794q0 -28 -35 -53.5t-63 -25.5q-28 -1 -52 43q-25 44 -49 80t-59 94l-110 -176q-23 -37 -54 -37t-63.5 24.5t-32.5 50.5t56 92q56 64 100 120q-191 46 -222.5 63.5t-31.5 52.5q0 6 6 33q17 59 64 59q20 0 36 -8l191 -82q-12 184 -12 205q-1 78 79 78t80 -74
q0 -47 -18 -209q207 86 233 86t44 -30.5t18 -69.5t-55 -55l-201 -51l125 -151q26 -31 26 -59z" />
    <glyph glyph-name="plus" unicode="+" horiz-adv-x="1161" 
d="M668 436v-321q0 -88 -88 -88t-88 88v321h-314q-96 0 -96 85t96 85h314v320q0 90 88 90t88 -90v-320h315q94 0 94 -85t-94 -85h-315z" />
    <glyph glyph-name="comma" unicode="," horiz-adv-x="459" 
d="M233 233q64 0 87.5 -51.5t23.5 -154.5t-47.5 -196t-106.5 -93q-79 0 -79 74v16q0 12 18 68t18 110l-8 121q0 106 94 106z" />
    <glyph glyph-name="hyphen" unicode="-" horiz-adv-x="745" 
d="M580 459h-414q-94 0 -94 90t94 90h414q92 0 92 -90t-92 -90z" />
    <glyph glyph-name="period" unicode="." horiz-adv-x="459" 
d="M230 -20q-54 0 -91 35t-37 91t36.5 91.5t90.5 35.5t90.5 -37.5t36.5 -89.5t-36 -89t-90 -37z" />
    <glyph glyph-name="slash" unicode="/" horiz-adv-x="766" 
d="M131 -162q-39 0 -69.5 23t-30.5 51t6 43l518 1520q21 61 82 61q40 0 70 -25.5t30 -51.5t-6 -44l-518 -1517q-20 -60 -82 -60z" />
    <glyph glyph-name="zero" unicode="0" horiz-adv-x="1085" 
d="M543 1241q-135 0 -209 -140.5t-74 -397.5t75 -404t207 -147t206.5 145.5t74.5 401.5t-72.5 399t-207.5 143zM543 -20q-218 0 -344.5 190t-126.5 528t124.5 526.5t345.5 188.5t345.5 -187t124.5 -525t-125.5 -529.5t-343.5 -191.5z" />
    <glyph glyph-name="one" unicode="1" horiz-adv-x="1085" 
d="M262 1067q-30 0 -52 30t-22 58q0 49 56 82l262 152q45 26 86 26q106 0 106 -112v-1133h195q96 0 96 -85t-96 -85h-598q-96 0 -96 85t96 85h215v1022l-164 -94q-54 -31 -84 -31z" />
    <glyph glyph-name="two" unicode="2" horiz-adv-x="1085" 
d="M322 176h497q96 0 96 -88t-96 -88h-534q-176 0 -176 168q0 292 399 553q141 91 191.5 161t50.5 158t-56 144.5t-161 56.5t-218 -82q-53 -39 -85 -39t-58.5 28t-26.5 60q0 64 126.5 134.5t267.5 70.5q189 0 294 -101t105 -252t-75 -256.5t-243 -217.5t-247.5 -210.5
t-79.5 -170.5q0 -29 29 -29z" />
    <glyph glyph-name="three" unicode="3" horiz-adv-x="1085" 
d="M934 418q0 -178 -126.5 -308t-336.5 -130q-156 0 -266.5 61t-110.5 119q0 37 27 67.5t61 30.5t80 -33q96 -73 216 -73t193.5 78t73.5 192q0 262 -309 262q-84 0 -84 74q0 37 54 100l235 279q37 44 37 59q0 23 -23 23h-454q-92 0 -92 84q0 90 92 90h530q170 0 170 -142
q0 -78 -90 -176l-225 -250q166 -24 257 -126.5t91 -280.5z" />
    <glyph glyph-name="four" unicode="4" horiz-adv-x="1085" 
d="M879 297v-219q-1 -90 -95 -90t-94 90v219h-459q-178 0 -178 143q0 63 35 127l385 774q32 64 80 64t77 -24.5t29 -55.5t-16 -59l-371 -742q-10 -20 -10 -32q0 -25 41 -25h387v502q0 88 94 88t95 -88v-500h75q88 0 88 -86t-88 -86h-75z" />
    <glyph glyph-name="five" unicode="5" horiz-adv-x="1085" 
d="M522 877q203 0 316.5 -117.5t113.5 -319.5t-132.5 -331t-325.5 -129q-153 0 -266 60.5t-113 119.5q0 40 26 70t59 30q34 0 88 -37t99 -54t107 -17q121 0 195.5 77t74.5 203t-70.5 199.5t-204.5 73.5q-58 1 -136 -19t-105 -20q-86 0 -86 88q0 36 6 86l37 397
q7 79 39.5 117.5t122.5 38.5h464q91 0 91 -88q0 -48 -22 -65t-69 -17h-428q-22 0 -22 -23l-35 -350q97 27 176 27z" />
    <glyph glyph-name="six" unicode="6" horiz-adv-x="1085" 
d="M566 715q-114 0 -186.5 -74.5t-72.5 -198.5t66.5 -208t184.5 -84t187.5 84.5t69.5 212.5t-67.5 198t-181.5 70zM104 563q0 850 588 850q102 0 167 -25.5t65 -69.5t-23.5 -75t-48.5 -31q-26 0 -82 14t-92 15q-173 0 -270.5 -132t-108.5 -384h4q99 160 290 160t301 -117.5
t110 -315.5t-122 -335t-332 -137t-328 151.5t-118 431.5z" />
    <glyph glyph-name="seven" unicode="7" horiz-adv-x="1085" 
d="M733 1223h-502q-94 0 -94 85t94 85h603q75 0 114 -40t39 -104t-63 -159q-153 -219 -280.5 -511t-147.5 -511q-6 -80 -88 -80q-99 0 -99 92q0 166 138 492t228.5 463.5t90.5 162.5t-33 25z" />
    <glyph glyph-name="eight" unicode="8" horiz-adv-x="1085" 
d="M541 653q-123 0 -194 -71.5t-71 -183.5t70 -179t196 -67t196.5 69.5t70.5 182.5t-72.5 181t-195.5 68zM540 1241q-96 0 -155 -57.5t-59 -149.5t57 -148.5t157 -56.5t159 57t59 149t-61 149t-157 57zM139 1036q0 165 114.5 271t288.5 106t290 -103.5t116 -269.5
q0 -197 -180 -295q229 -99 229 -344q0 -187 -129.5 -304t-327.5 -117t-325 113.5t-127 299.5q0 114 60 209t167 143q-176 100 -176 291z" />
    <glyph glyph-name="nine" unicode="9" horiz-adv-x="1085" 
d="M541 1243q-119 0 -187.5 -84.5t-68.5 -210.5t66.5 -198t180.5 -72t187.5 77t73.5 196t-66.5 205.5t-185.5 86.5zM995 829q0 -849 -587 -849q-230 0 -230 100q0 40 22 68t50 28t75 -12t97 -12q172 0 273 137.5t110 386.5h-4q-105 -166 -295 -166t-300 118t-110 316
t122.5 333.5t332.5 135.5t327 -150.5t117 -433.5z" />
    <glyph glyph-name="colon" unicode=":" horiz-adv-x="434" 
d="M216 -20q-56 0 -90 35t-34 89t34.5 89.5t90.5 35.5t90.5 -36.5t34.5 -89.5t-35 -88t-91 -35zM216 737q-54 0 -89 35.5t-35 89.5t34.5 88.5t90.5 34.5t90.5 -35t34.5 -88t-36 -89t-90 -36z" />
    <glyph glyph-name="semicolon" unicode=";" horiz-adv-x="459" 
d="M233 233q64 0 87.5 -51.5t23.5 -154.5t-47.5 -196t-106.5 -93q-79 0 -79 74v15q0 11 18 68t18 111l-8 121q0 106 94 106zM229 737q-53 0 -88 35.5t-35 89.5t34.5 88.5t89.5 34.5t89.5 -35t34.5 -88t-36 -89t-89 -36z" />
    <glyph glyph-name="less" unicode="&#x3c;" horiz-adv-x="1161" 
d="M113 522q0 50 61 80l723 391q43 23 73 23t54.5 -29t24.5 -65t-56 -70l-620 -332l620 -332q56 -30 56 -64t-23.5 -65.5t-49.5 -31.5t-69 16l-735 397q-59 32 -59 82z" />
    <glyph glyph-name="equal" unicode="=" horiz-adv-x="1161" 
d="M983 238h-805q-96 0 -96 84t96 84h805q94 0 94 -84t-94 -84zM983 625h-805q-96 0 -96 84t96 84h805q94 0 94 -84t-94 -84z" />
    <glyph glyph-name="greater" unicode="&#x3e;" horiz-adv-x="1161" 
d="M113 916q0 36 22 69t51 33t66 -21l737 -397q60 -32 60 -81t-62 -79l-725 -391q-40 -22 -70 -22t-54.5 28.5t-24.5 66.5t53 66l622 332l-622 332q-53 28 -53 64z" />
    <glyph glyph-name="question" unicode="?" horiz-adv-x="903" 
d="M398 -20q-54 0 -89 35t-35 89t34.5 89.5t89.5 35.5t90.5 -37t35.5 -89t-36 -87.5t-90 -35.5zM489 479v-59q0 -84 -93 -84t-93 84v69q0 117 47 196.5t149 146.5t133.5 118t31.5 121t-56 121t-149 51q-131 0 -210 -83q-49 -50 -85 -50t-63 26.5t-27 61.5q0 68 115 142.5
t283 74.5t275 -94t107 -250q0 -209 -227 -360q-79 -54 -108.5 -103.5t-29.5 -128.5z" />
    <glyph glyph-name="at" unicode="@" horiz-adv-x="1681" 
d="M993 752q0 80 -39.5 127t-121.5 47t-134.5 -74.5t-52.5 -196.5q0 -252 182 -252q72 0 119 49.5t47 127.5v172zM792 250q-150 0 -236.5 112.5t-86.5 295.5t95.5 296t233.5 113t195 -96v24q0 70 85 70t85 -80v-481q0 -101 76 -101q65 0 109.5 87.5t44.5 244.5
q0 234 -148.5 378t-394.5 144t-402.5 -166t-156.5 -432t147 -420.5t383 -154.5q156 0 294 75q17 9 43 9t48.5 -24.5t22.5 -57.5q0 -67 -126 -114.5t-288 -47.5q-307 0 -503.5 204t-196.5 532t206.5 541.5t528.5 213.5t519.5 -189t197.5 -493q0 -208 -96 -345.5t-255 -137.5
t-208 133q-66 -133 -216 -133z" />
    <glyph glyph-name="A" unicode="A" horiz-adv-x="1210" 
d="M831 571q-113 367 -219 600q-106 -232 -225 -600h444zM158 -12q-113 0 -113 73q0 61 111 406.5t229 615t148 296t83 26.5h2q44 0 73.5 -25t144 -292t222 -616t107.5 -404q0 -80 -112 -80q-58 0 -76 71q-33 141 -92 332h-553q-69 -222 -99 -332q-17 -71 -75 -71z" />
    <glyph glyph-name="B" unicode="B" horiz-adv-x="1182" 
d="M365 641v-432q0 -31 28 -31h250q256 0 256 232t-281 231h-253zM365 817h256q97 0 160 53.5t63 152.5t-59 144t-189 45h-197q-34 0 -34 -38v-357zM1090 403q0 -190 -121.5 -296.5t-331.5 -106.5h-297q-166 0 -166 158v1059q0 176 178 176h248q434 0 434 -365
q0 -94 -56.5 -176t-152.5 -111q125 -29 195 -119t70 -219z" />
    <glyph glyph-name="C" unicode="C" horiz-adv-x="1217" 
d="M700 -20q-279 0 -443.5 190t-164.5 518t176 526.5t455 198.5q177 0 298.5 -66t121.5 -133q0 -35 -28 -64.5t-57 -29.5t-81 33q-108 82 -258 82q-195 0 -315.5 -147.5t-120.5 -398.5t114 -391t320 -140q146 0 282 102q50 33 80 33t55 -27.5t25 -58.5q0 -73 -142 -150
t-317 -77z" />
    <glyph glyph-name="D" unicode="D" horiz-adv-x="1354" 
d="M397 1212q-32 0 -32 -34v-967q0 -31 28 -31h217q220 0 340.5 142.5t120.5 383.5t-115.5 371.5t-328.5 134.5h-230zM616 0h-276q-166 0 -166 158v1065q0 170 172 170h270q303 0 474.5 -183.5t171.5 -497.5t-171.5 -513t-474.5 -199z" />
    <glyph glyph-name="E" unicode="E" horiz-adv-x="1059" 
d="M174 1217q0 176 178 176h525q57 0 78.5 -20t21.5 -68q0 -93 -100 -93h-478q-34 0 -34 -38v-359h446q100 0 100 -90q0 -48 -22 -69t-78 -21h-446v-424q0 -31 28 -31h481q103 0 103 -90t-103 -90h-534q-77 0 -121.5 41t-44.5 117v1059z" />
    <glyph glyph-name="F" unicode="F" horiz-adv-x="1016" 
d="M365 803h419q56 0 77.5 -21t21.5 -69q0 -90 -99 -90h-419v-549q1 -86 -95 -86t-96 86v1143q0 176 178 176h518q57 0 78 -20t21 -68q0 -93 -99 -93h-471q-34 0 -34 -38v-371z" />
    <glyph glyph-name="G" unicode="G" horiz-adv-x="1339" 
d="M1104 756q92 0 92 -88v-426q0 -128 -138 -195t-339 -67q-285 0 -456 190t-171 520t184.5 526.5t460.5 196.5q164 0 300.5 -59.5t136.5 -124.5q0 -34 -26.5 -66.5t-55.5 -32.5q-30 0 -94 35q-129 70 -259 70q-199 0 -327.5 -146.5t-128.5 -396.5t121 -392t335 -142
q117 0 192 29t75 85v306h-261q-86 0 -86 89t89 89h356z" />
    <glyph glyph-name="H" unicode="H" horiz-adv-x="1358" 
d="M1184 74q0 -86 -96 -86t-95 86v551h-628v-551q1 -86 -95 -86t-96 86v1247q0 84 96 84t95 -84v-518h628v518q-1 84 95 84t96 -84v-1247z" />
    <glyph glyph-name="I" unicode="I" horiz-adv-x="539" 
d="M365 74q1 -86 -95 -86t-96 86v1247q0 84 96 84t95 -84v-1247z" />
    <glyph glyph-name="J" unicode="J" horiz-adv-x="940" 
d="M362 158q238 0 238 327v836q0 84 96 84t95 -84v-844q0 -240 -110.5 -368.5t-320.5 -128.5q-143 0 -237 54t-94 111q0 38 26.5 66.5t58.5 28.5t112 -41t136 -41z" />
    <glyph glyph-name="K" unicode="K" horiz-adv-x="1171" 
d="M365 74q1 -86 -95 -86t-96 86v1247q0 84 96 84t95 -84v-543q299 236 526 586q30 43 72 43t75 -27.5t33 -62.5q0 -55 -171.5 -256.5t-276.5 -290.5q170 -175 342 -407.5t172 -288.5q0 -35 -34.5 -61.5t-74.5 -26.5t-74 49q-257 398 -473 610l-116 -90v-481z" />
    <glyph glyph-name="L" unicode="L" horiz-adv-x="983" 
d="M852 0h-510q-77 0 -122.5 41t-45.5 117v1157q0 90 96 90t95 -90v-1102q0 -33 28 -33h459q59 0 80.5 -21.5t21.5 -68.5t-22.5 -68.5t-79.5 -21.5z" />
    <glyph glyph-name="M" unicode="M" horiz-adv-x="1593" 
d="M1419 72q0 -84 -90 -84t-90 84v1038h-4l-332 -592q-39 -69 -108 -69t-107 67l-330 588h-4v-1032q0 -84 -90 -84t-90 84v1204q0 129 115 129q81 0 125 -80l383 -688l385 692q42 76 123 76q114 0 114 -129v-1204z" />
    <glyph glyph-name="N" unicode="N" horiz-adv-x="1389" 
d="M1214 100q0 -112 -116 -112q-71 0 -113 69l-629 1053v-1038q0 -84 -91 -84t-91 84v1200q0 133 123 133q73 0 117 -70l618 -1044v1028q0 86 91 86t91 -86v-1219z" />
    <glyph glyph-name="O" unicode="O" horiz-adv-x="1399" 
d="M702 1235q-193 0 -306 -154t-113 -382t112 -384.5t307 -156.5t304.5 156.5t109.5 384.5t-110.5 382t-303.5 154zM702 -20q-281 0 -445.5 203.5t-164.5 516.5t165.5 513t445.5 200t442 -202.5t162 -512.5t-162 -514t-443 -204z" />
    <glyph glyph-name="P" unicode="P" horiz-adv-x="1124" 
d="M858 950q0 262 -258 262h-201q-34 0 -34 -38v-478h233q118 0 189 70.5t71 183.5zM365 518v-446q1 -84 -95 -84t-96 84v1142q0 179 178 179h252q212 0 328.5 -117.5t116.5 -316.5t-125.5 -320t-333.5 -121h-225z" />
    <glyph glyph-name="Q" unicode="Q" horiz-adv-x="1399" 
d="M702 1235q-194 0 -306.5 -156t-112.5 -382t112 -382.5t306 -156.5t304.5 156t110.5 384t-110 382.5t-304 154.5zM1036 -221q0 -94 -88 -94q-156 0 -244.5 80t-87.5 221q-246 30 -385 228.5t-139 496.5t166 500t446 202t441.5 -202.5t161.5 -496.5t-132 -490.5
t-366 -235.5q4 -120 131 -127q49 -5 72.5 -22t23.5 -60z" />
    <glyph glyph-name="R" unicode="R" horiz-adv-x="1169" 
d="M365 774h215q139 0 209.5 60.5t70.5 166.5q0 218 -268 218h-193q-34 0 -34 -39v-406zM365 596v-524q1 -84 -95 -84t-96 84v1145q0 176 178 176h240q459 0 459 -379q0 -136 -88.5 -238t-239.5 -127q145 -57 258 -300t113 -279t-32.5 -61t-83.5 -25t-73 51
q-116 302 -217.5 431.5t-236.5 129.5h-86z" />
    <glyph glyph-name="S" unicode="S" horiz-adv-x="1038" 
d="M524 -20q-183 0 -315.5 67.5t-132.5 136.5q0 39 27 70t59 31t76 -35q126 -92 257 -92t199 59t68 159t-66 155t-240 107t-265 131.5t-91 254.5t121 282t290 107t296 -65t127 -142q0 -37 -27 -67.5t-55 -30.5t-100 47q-120 80 -227 80t-170.5 -56t-63.5 -152t62.5 -140.5
t189.5 -83.5q215 -63 312 -158.5t97 -269.5t-122.5 -284.5t-305.5 -110.5z" />
    <glyph glyph-name="T" unicode="T" horiz-adv-x="1030" 
d="M610 1212v-1138q0 -86 -95 -86t-95 86v1138h-318q-86 0 -86 90t86 91h826q86 -1 86 -91t-86 -90h-318z" />
    <glyph glyph-name="U" unicode="U" horiz-adv-x="1327" 
d="M1157 446q0 -212 -137.5 -339t-357.5 -127t-356 127t-136 339v873q0 86 95 86t95 -86v-866q0 -139 82 -217t220 -78t221.5 79t83.5 216v866q0 86 95 86t95 -86v-873z" />
    <glyph glyph-name="V" unicode="V" horiz-adv-x="1149" 
d="M993 1407q115 0 115 -76q0 -99 -108 -444t-226 -597.5t-149 -277t-82 -24.5t-78.5 22.5t-127.5 251t-199 589.5t-99 476q0 80 117 80q60 0 73 -80q112 -630 318 -1106q226 465 371 1106q18 80 75 80z" />
    <glyph glyph-name="W" unicode="W" horiz-adv-x="1855" 
d="M494 -12q-44 0 -73 23.5t-112 239.5t-175.5 571t-92.5 507q0 78 117 78q62 0 71 -78q108 -691 273 -1102q199 452 327 1108q15 72 99 72t94 -76q29 -216 118 -564q88 -348 167 -542q188 431 317 1102q15 80 82 80q111 0 111 -74q0 -86 -69 -333t-135.5 -449.5t-140 -363
t-99 -180t-64.5 -19.5t-59.5 13t-44.5 62t-72 172.5t-109 341t-104 437.5q-75 -332 -190.5 -643.5t-153.5 -347t-82 -35.5z" />
    <glyph glyph-name="X" unicode="X" horiz-adv-x="1108" 
d="M1042 86q0 -98 -94 -98q-51 0 -71 21t-25 69q-10 125 -76.5 239.5t-210.5 257.5q-290 -269 -313 -499q-6 -48 -27 -68t-71 -20q-93 0 -93 98q0 274 371 608q-319 325 -319 617q0 94 98 94q84 0 90 -82q21 -250 266 -510q268 269 291 512q4 80 90 80q99 0 99 -94
q0 -271 -349 -619q344 -318 344 -606z" />
    <glyph glyph-name="Y" unicode="Y" horiz-adv-x="1042" 
d="M604 74q0 -86 -95 -86t-95 86v467q-155 152 -262 380.5t-107 397.5q0 86 91 86t97 -78q28 -360 275 -629q270 294 301 621q5 50 26.5 68t67.5 18q96 0 96 -86q0 -161 -115 -389.5t-280 -388.5v-467z" />
    <glyph glyph-name="Z" unicode="Z" horiz-adv-x="1071" 
d="M895 190q96 0 96 -95t-96 -95h-731q-48 0 -79.5 27t-31.5 75q0 120 91.5 273t312.5 381q283 289 344 446h-602q-99 0 -99 96t99 95h690q125 0 125 -115q0 -138 -131 -306t-289 -332t-231 -258t-103 -192h635z" />
    <glyph glyph-name="bracketleft" unicode="[" horiz-adv-x="575" 
d="M430 1343h-61q-28 0 -40 -5.5t-12 -32.5v-1258q0 -37 29 -37h84q96 0 96 -86t-96 -86h-135q-158 0 -158 164v1352q0 162 158 162h135q96 0 96 -86t-96 -87z" />
    <glyph glyph-name="backslash" unicode="\" horiz-adv-x="766" 
d="M138 1538q54 0 76 -63l500 -1465q24 -70 24 -97t-30 -51t-70 -24q-60 0 -82 60l-520 1521l-4 33q0 27 26 56.5t80 29.5z" />
    <glyph glyph-name="bracketright" unicode="]" horiz-adv-x="575" 
d="M145 1516h136q157 0 157 -162v-1352q0 -164 -157 -164h-136q-96 0 -96 86t96 86h84q29 0 29 37v1258q0 38 -31 38h-82q-96 1 -96 87t96 86z" />
    <glyph glyph-name="asciicircum" unicode="^" horiz-adv-x="1208" 
d="M205 662q-38 0 -69.5 24.5t-31.5 54.5t27 68l389 557q33 47 84 47t82 -47l391 -557q27 -37 27 -67t-29.5 -55t-68.5 -25t-74 49l-328 460l-325 -458q-36 -51 -74 -51z" />
    <glyph glyph-name="underscore" unicode="_" horiz-adv-x="1024" 
d="M1022 -346h-1020q-72 0 -72 83t72 83h1020q72 0 72 -83t-72 -83z" />
    <glyph glyph-name="grave" unicode="`" horiz-adv-x="532" 
d="M426 1314q0 -34 -20.5 -58.5t-54.5 -24.5t-75 33l-194 143q-57 42 -57 80t24.5 63t59.5 25t81 -37l183 -147q53 -43 53 -77z" />
    <glyph glyph-name="a" unicode="a" horiz-adv-x="1130" 
d="M797 612q0 121 -70 201t-192 80t-194.5 -102.5t-72.5 -270.5t71 -268t195 -100t193.5 79.5t69.5 200.5v180zM510 1065q193 0 287 -145v55q0 82 93 82t93 -82v-905q0 -82 -93 -82t-93 78v75q-89 -161 -289 -161t-314 147.5t-114 393.5t118.5 395t311.5 149z" />
    <glyph glyph-name="b" unicode="b" horiz-adv-x="1130" 
d="M334 604v-164q0 -124 69 -206t191 -82t194 100t72 274t-71 270.5t-193 96.5t-192 -80t-70 -209zM334 66q0 -78 -94 -78t-93 82v1384q-1 82 93 82t94 -82v-543q92 154 288 154t311.5 -142.5t115.5 -395.5t-116 -400t-314 -147t-285 155v-69z" />
    <glyph glyph-name="c" unicode="c" horiz-adv-x="987" 
d="M926 879q0 -33 -27 -63t-59 -30t-76 35q-96 72 -216 72t-200 -97.5t-80 -269.5t80.5 -273t198.5 -101t219 75q44 31 76 31t59 -28t27 -60q0 -59 -109 -124.5t-266 -65.5q-209 0 -341 149t-132 395t135 393.5t350 147.5q147 0 254 -62.5t107 -123.5z" />
    <glyph glyph-name="d" unicode="d" horiz-adv-x="1130" 
d="M797 612q0 121 -70 201t-189 80t-194.5 -102t-75.5 -272t73 -268.5t195 -98.5t191.5 81t69.5 199v180zM983 70q0 -82 -93 -82t-93 78v65q-87 -151 -285 -151t-315 145t-117 393t120 397.5t314 149.5t283 -145v534q0 82 93 82t93 -82v-1384z" />
    <glyph glyph-name="e" unicode="e" horiz-adv-x="1053" 
d="M550 893q-108 0 -182 -72t-89 -200h514q-6 126 -70.5 199t-172.5 73zM566 152q122 0 208 59q51 33 81 33t55.5 -29t25.5 -59q0 -67 -120 -121.5t-251 -54.5q-225 0 -354 145t-129 389t126 397.5t334 153.5t323.5 -128.5t115.5 -342.5q0 -139 -117 -139h-590
q12 -142 91 -222.5t201 -80.5z" />
    <glyph glyph-name="f" unicode="f" horiz-adv-x="616" 
d="M379 1044h145q84 0 84 -80t-84 -81h-145v-813q0 -82 -93 -82t-93 82v813h-87q-88 1 -88 81t88 80h87v134q0 358 323 358q82 0 132 -29t50 -65t-19.5 -65t-41.5 -29t-58 12t-63 12q-137 0 -137 -190v-138z" />
    <glyph glyph-name="g" unicode="g" horiz-adv-x="1130" 
d="M797 612q0 121 -70 201t-190 80t-194.5 -98.5t-74.5 -270.5t73 -272t195 -100t191.5 79.5t69.5 200.5v180zM508 1065q190 0 289 -145v55q0 82 93 82t93 -82v-881q0 -256 -126.5 -391t-358.5 -135q-141 0 -247 51.5t-106 112.5q0 40 25.5 68t54.5 28t109 -44t172 -44
q143 0 215.5 80.5t75.5 285.5v35q-91 -161 -289 -161q-197 0 -312.5 146.5t-115.5 395.5t119 396t309 147z" />
    <glyph glyph-name="h" unicode="h" horiz-adv-x="1139" 
d="M997 72q0 -84 -94 -84t-94 84v581q0 108 -53 172t-166 64t-184.5 -86.5t-71.5 -233.5v-497q0 -84 -94 -84t-93 84v1382q-1 82 93 82t94 -82v-559q109 170 311 170q167 0 259.5 -103t92.5 -276v-614z" />
    <glyph glyph-name="i" unicode="i" horiz-adv-x="479" 
d="M334 70q0 -82 -94 -82t-93 82v907q-1 80 93 80t94 -80v-907zM240 1253q-44 0 -76.5 32t-32.5 78t32.5 79t76.5 33t77 -33.5t33 -78.5t-33 -77.5t-77 -32.5z" />
    <glyph glyph-name="j" unicode="j" horiz-adv-x="479" 
d="M334 -70q0 -362 -316 -362q-81 0 -132.5 25t-51.5 65t20 68t42 28t52 -7t64 -7q135 0 135 197v1040q-1 80 93 80t94 -80v-1047zM240 1253q-44 0 -76.5 32t-32.5 78t32.5 79t76.5 33t77 -33.5t33 -78.5t-33 -77.5t-77 -32.5z" />
    <glyph glyph-name="k" unicode="k" horiz-adv-x="985" 
d="M784 1059q40 0 69.5 -25.5t29.5 -54.5q0 -93 -310 -381q121 -114 244 -288.5t123 -237.5q0 -34 -27.5 -60t-74.5 -26t-78 57q-152 283 -330 451q-13 -11 -96 -70v-352q0 -84 -94 -84t-93 84v1384q-1 80 93 80t94 -80v-842q212 168 377 402q33 43 73 43z" />
    <glyph glyph-name="l" unicode="l" horiz-adv-x="479" 
d="M334 70q0 -82 -94 -82t-93 82v1386q-1 80 93 80t94 -80v-1386z" />
    <glyph glyph-name="m" unicode="m" horiz-adv-x="1726" 
d="M1239 1065q162 0 254 -99.5t92 -275.5v-620q0 -82 -94 -82t-94 82v594q0 106 -53.5 165.5t-155.5 59.5t-166 -78.5t-64 -224.5v-516q0 -82 -93 -82t-93 82v594q0 105 -52 165t-156 60t-167 -79t-63 -224v-516q0 -82 -94 -82t-93 82v907q-1 80 93 80t94 -80v-74
q100 162 298 162t283 -184q106 184 324 184z" />
    <glyph glyph-name="n" unicode="n" horiz-adv-x="1139" 
d="M645 1065q167 0 259.5 -103t92.5 -278v-614q0 -82 -94 -82t-94 82v577q0 242 -211 242q-119 0 -191.5 -83.5t-72.5 -236.5v-499q0 -82 -94 -82t-93 82v907q-1 80 93 80t94 -80v-84q108 172 311 172z" />
    <glyph glyph-name="o" unicode="o" horiz-adv-x="1112" 
d="M557 893q-135 0 -212 -97t-77 -268t77 -273.5t211 -102.5t211 102t77 272t-76 268.5t-211 98.5zM556 -20q-211 0 -343.5 149t-132.5 397t132 393.5t346 145.5t344 -148.5t130 -394.5t-132.5 -394t-343.5 -148z" />
    <glyph glyph-name="p" unicode="p" horiz-adv-x="1130" 
d="M334 614v-184q0 -120 70 -199t190 -79t193 100t73 273t-73 270.5t-193 97.5t-190 -78.5t-70 -200.5zM334 -354q0 -78 -94 -78t-93 82v1325q-1 82 93 82t94 -82v-51q90 141 284 141t312.5 -144.5t118.5 -394.5t-116.5 -398t-314.5 -148t-284 153v-487z" />
    <glyph glyph-name="q" unicode="q" horiz-adv-x="1130" 
d="M797 614q0 119 -69.5 199t-191.5 80t-195 -101.5t-73 -271.5t72.5 -269t195.5 -99t192 80.5t69 199.5v182zM983 -350q0 -82 -93 -82t-93 78v487q-84 -153 -284 -153t-316.5 145.5t-116.5 393.5t125.5 397t316.5 149t275 -143v47q0 88 93 88t93 -82v-1325z" />
    <glyph glyph-name="r" unicode="r" horiz-adv-x="758" 
d="M578 1065q165 0 165 -92q0 -46 -21.5 -74.5t-46.5 -28.5t-53 10t-59 9q-105 0 -167 -80.5t-62 -218.5v-518q0 -84 -94 -84t-93 84v905q-1 80 93 80t94 -80v-64q79 152 244 152z" />
    <glyph glyph-name="s" unicode="s" horiz-adv-x="920" 
d="M464 -20q-158 0 -273 54.5t-115 125.5q0 33 25 63.5t54 30.5t70 -29q111 -73 215 -73t155.5 35.5t51.5 93.5t-43 89.5t-164 59.5q-209 47 -280.5 123.5t-71.5 206.5t108 217.5t260 87.5t255.5 -54.5t103.5 -113.5q0 -37 -25.5 -65.5t-57.5 -28.5t-75 28q-89 62 -185 62
t-146 -39.5t-50 -99.5t50 -94t216 -71t230 -109t64 -196t-107 -214t-265 -90z" />
    <glyph glyph-name="t" unicode="t" horiz-adv-x="705" 
d="M471 -20q-270 0 -270 307v596h-58q-82 0 -98 18.5t-16 63.5t17 62t67 17h88v224q0 82 94 82t94 -82v-224h182q47 0 63.5 -18t16.5 -63t-18 -62.5t-62 -17.5h-182v-588q0 -139 103 -139q28 0 68 15t64 15t45 -28t21 -70t-67 -75t-152 -33z" />
    <glyph glyph-name="u" unicode="u" horiz-adv-x="1139" 
d="M993 70q0 -82 -94 -82t-94 82v82q-105 -172 -313 -172q-162 0 -255.5 105.5t-93.5 283.5v606q-1 82 93 82t94 -82v-586q0 -109 56 -173t167 -64t181.5 83.5t70.5 233.5v506q0 82 94 82t94 -82v-905z" />
    <glyph glyph-name="v" unicode="v" horiz-adv-x="1004" 
d="M848 1059q54 0 83.5 -21t29.5 -53q0 -80 -80 -305.5t-187.5 -435.5t-135.5 -233t-66 -23h-19q-46 0 -78 31t-129 253t-158 436t-61 261t29.5 68.5t73.5 21.5q69 0 81 -70q99 -464 258 -801q196 396 289 809q16 62 70 62z" />
    <glyph glyph-name="w" unicode="w" horiz-adv-x="1516" 
d="M436 -12h-14q-51 0 -74 19t-87 168t-142 438.5t-78 371.5q0 76 100 76q69 0 80 -70q30 -182 90.5 -422.5t120.5 -382.5q142 347 230 803q15 72 100 72t98 -74q80 -471 209 -805q134 329 223 807q11 72 82 72q99 0 99 -74q0 -82 -65.5 -308t-147.5 -431.5t-108.5 -232.5
t-66.5 -27h-18q-47 0 -75 27.5t-103 248t-133 492.5q-61 -262 -143.5 -487.5t-110 -253t-66.5 -27.5z" />
    <glyph glyph-name="x" unicode="x" horiz-adv-x="965" 
d="M913 76q-1 -88 -89 -88t-97 82q-22 178 -238 352q-240 -189 -258 -354q-5 -44 -25.5 -62t-70.5 -18q-90 0 -90 92q0 203 307 452q-264 245 -264 439q0 86 89 86t102 -84q18 -150 215 -336q221 201 235 336q11 84 101 84t90 -88q0 -184 -291 -439q284 -243 284 -454z" />
    <glyph glyph-name="y" unicode="y" horiz-adv-x="997" 
d="M51 981q0 78 99 78q69 0 83 -68q68 -377 256 -788q212 423 289 792q11 64 78 64q44 0 71 -20.5t27 -53.5q0 -109 -149.5 -495t-353.5 -655t-383 -269q-31 0 -52.5 27t-21.5 67q0 46 76 68q162 44 323 309q-157 283 -249.5 567t-92.5 377z" />
    <glyph glyph-name="z" unicode="z" horiz-adv-x="893" 
d="M741 166q95 0 95 -80q0 -86 -95 -86h-612q-48 0 -77 29t-29 80q0 88 97.5 222t285.5 295t225 253h-465q-94 1 -94 83t94 82h586q108 0 108 -88q0 -79 -90.5 -201t-239.5 -253q-250 -223 -297 -336h508z" />
    <glyph glyph-name="braceleft" unicode="{" horiz-adv-x="664" 
d="M418 301v-137q0 -89 23.5 -119.5t88.5 -40.5q74 -15 74 -80q0 -86 -98 -86q-132 0 -199 76.5t-67 261.5v166q0 113 -25.5 166.5t-89.5 77.5q-74 26 -74 92t80 92q109 36 109 242v168q0 185 65.5 260.5t194.5 75.5q104 0 104 -80q0 -47 -21 -63.5t-73 -22.5t-72 -40.5
t-20 -117.5v-139q0 -154 -33.5 -234t-136.5 -141q81 -42 125.5 -116.5t44.5 -260.5z" />
    <glyph glyph-name="bar" unicode="|" horiz-adv-x="481" 
d="M330 -381q0 -46 -19 -70t-71 -24t-70 22.5t-18 71.5v1931q0 48 18.5 70t67.5 22t70.5 -19t21.5 -73v-1931z" />
    <glyph glyph-name="braceright" unicode="}" horiz-adv-x="664" 
d="M244 1055v135q0 85 -24 119.5t-87 42.5q-74 12 -74 78q0 86 99 86q134 0 199 -77t65 -259v-168q0 -116 27 -168t95 -78t68 -89q0 -64 -82 -93q-108 -38 -108 -240v-168q0 -188 -68 -263t-182 -75t-113 82q0 47 20.5 63t72.5 22t72 43t20 116v137q0 183 45 257t127 118
q-79 39 -125.5 112t-46.5 267z" />
    <glyph glyph-name="asciitilde" unicode="~" horiz-adv-x="1192" 
d="M776 356q-83 0 -200 78t-168 78q-74 0 -117 -86q-27 -49 -66 -49t-64.5 23t-25.5 57q0 74 75 153.5t206 79.5q94 0 192 -65t123.5 -77.5t54.5 -12.5q56 0 88 53t49.5 67.5t48.5 14.5t58 -19.5t27 -56.5q0 -78 -79 -158t-202 -80z" />
    <glyph glyph-name="nonbreakingspace" unicode="&#xa0;" horiz-adv-x="844" 
 />
    <glyph glyph-name="exclamdown" unicode="&#xa1;" horiz-adv-x="541" 
d="M176 623q0 90 93 90t93 -90v-893q0 -90 -93 -90t-93 90v893zM272 1065q50 0 83.5 -32.5t33.5 -84.5t-33 -85.5t-85 -33.5t-85.5 33.5t-33.5 85.5t35 84.5t85 32.5z" />
    <glyph glyph-name="cent" unicode="&#xa2;" horiz-adv-x="1085" 
d="M297 524q0 -304 225 -364v723q-225 -55 -225 -359zM884 254q28 0 51 -26t23 -60q0 -55 -87.5 -112.5t-202.5 -69.5v-140q0 -73 -76 -73q-70 0 -70 73v140q-191 22 -301 169t-110 369t109.5 365t301.5 170v115q0 73 73 73t73 -73v-113q122 -14 205 -72t83 -110
q0 -33 -27 -62t-57 -29t-71 35q-75 51 -133 62v-725q44 6 163 79q25 15 53 15z" />
    <glyph glyph-name="sterling" unicode="&#xa3;" horiz-adv-x="1085" 
d="M518 485q0 -167 -141 -315h512q92 0 92 -85t-94 -85h-631q-109 0 -109 98q-1 51 93 152t94 229q0 57 -19 123h-118q-95 0 -95 84t95 84h65q-47 132 -47 238q0 180 117 292.5t305 112.5q142 0 247 -66.5t105 -125.5q0 -34 -27.5 -64.5t-57.5 -30.5t-112 58t-173 59
q-90 0 -153 -64.5t-63 -160.5t41 -203l8 -22q4 -12 9 -23h287q94 0 94 -84t-94 -84h-244q14 -61 14 -117z" />
    <glyph glyph-name="currency" unicode="&#xa4;" horiz-adv-x="1085" 
d="M544 281q94 0 160 68.5t66 162.5t-66 162.5t-160 68.5t-161.5 -67.5t-67.5 -163.5t67.5 -163.5t161.5 -67.5zM539 129q-115 0 -203 57l-72 -71q-34 -35 -68 -35t-62 27t-28 57t33 67l76 74q-61 95 -61 205t63 209l-80 78q-33 33 -33 65t27.5 60t61.5 28t71 -35l76 -77
q96 59 205 59t200 -59l80 80q33 32 65 32t61.5 -26t29.5 -58t-33 -67l-80 -80q64 -105 64 -210t-62 -202q111 -95 111 -143q0 -28 -27.5 -56t-63.5 -28t-69 33l-73 73q-94 -57 -209 -57z" />
    <glyph glyph-name="yen" unicode="&#xa5;" horiz-adv-x="1085" 
d="M633 295v-221q1 -86 -95 -86t-96 86v221h-274q-90 0 -90 80t90 80h274v178h-274q-90 0 -90 80t90 80h156q-103 148 -163.5 293.5t-60.5 231.5t97 87q79 0 92 -78q51 -280 252 -530q217 263 272 522q10 50 28 68t66 18q97 -1 97 -81t-69.5 -231t-176.5 -300h160
q90 0 90 -80t-90 -80h-285v-178h285q90 0 90 -80t-90 -80h-285z" />
    <glyph glyph-name="brokenbar" unicode="&#xa6;" horiz-adv-x="481" 
d="M330 -389q0 -86 -89 -86t-89 86v670q0 84 89 84t89 -84v-670zM330 889q0 -86 -89 -86t-89 86v667q0 86 89 86t89 -86v-667z" />
    <glyph glyph-name="section" unicode="&#xa7;" horiz-adv-x="1018" 
d="M311 590q0 -74 49 -114.5t203 -100.5q32 -13 84 -37q101 68 101 165t-62 142.5t-250 118.5q-125 -59 -125 -174zM895 16q0 -149 -113 -251.5t-319 -102.5q-152 0 -271.5 59.5t-119.5 112.5q0 38 25 69t57 31t69 -26q127 -74 245 -74t177.5 48t59.5 118t-42.5 113
t-218.5 115t-248.5 144t-72.5 199q0 175 164 277q-129 88 -129 234t108 242.5t285 96.5q128 0 227 -41.5t99 -97.5q0 -41 -25 -71.5t-57 -30.5q-33 0 -93 34t-154 35q-94 0 -147 -42.5t-53 -106.5t39.5 -102t182.5 -96t252.5 -125t109.5 -238q0 -172 -144 -291
q107 -83 107 -232z" />
    <glyph glyph-name="dieresis" unicode="&#xa8;" horiz-adv-x="813" 
d="M215 1233q-46 0 -78.5 33.5t-32.5 77.5t33 77t79 33t78 -33t32 -77t-32.5 -77.5t-78.5 -33.5zM597 1233q-45 0 -77.5 32.5t-32.5 78.5t33 78t78 32t78 -32t33 -78t-33.5 -78.5t-78.5 -32.5z" />
    <glyph glyph-name="copyright" unicode="&#xa9;" horiz-adv-x="1591" 
d="M801 274q-156 0 -263.5 112t-107.5 304t103.5 314t283.5 122q110 0 189 -52t79 -88t-22.5 -60.5t-46.5 -24.5t-51 25q-81 61 -148 61q-110 0 -170.5 -79.5t-60.5 -208.5t61 -209t174 -80q72 0 160 65q29 23 51 23t44 -24t22 -48q0 -48 -90.5 -100t-206.5 -52zM796 123
q236 0 406 169t170 407t-169.5 407.5t-407.5 169.5t-407 -170t-169 -407t170.5 -406.5t406.5 -169.5zM794 1413q296 0 505.5 -209t209.5 -505t-210 -504.5t-505 -208.5t-503.5 209t-208.5 505t208 504.5t504 208.5z" />
    <glyph glyph-name="ordfeminine" unicode="&#xaa;" horiz-adv-x="848" 
d="M561 1106q0 80 -44 129t-123 49t-124 -64.5t-45 -168.5q0 -236 174 -236q75 0 118.5 51t43.5 125v115zM707 754q0 -62 -73 -62t-73 60v36q-61 -102 -193 -102t-210 100t-78 264t81 262.5t209 98.5t191 -98v39q0 55 73 55t73 -61v-592z" />
    <glyph glyph-name="guillemotleft" unicode="&#xab;" horiz-adv-x="1251" 
d="M1196 178q0 -24 -27.5 -51t-57.5 -27t-69 29l-405 350q-37 31 -37 69t37 73l407 350q34 30 64 30t59 -26.5t29 -59.5t-37 -63l-352 -303l255 -217q115 -97 124.5 -113.5t9.5 -40.5zM688 178q0 -22 -27 -50t-59 -28t-67 29l-408 350q-37 33 -37 69t37 73l410 350
q35 30 63 30t58 -26.5t30 -58.5t-39 -64l-352 -303l256 -217q116 -99 125.5 -115.5t9.5 -38.5z" />
    <glyph glyph-name="logicalnot" unicode="&#xac;" horiz-adv-x="1161" 
d="M901 612h-723q-96 0 -96 84t96 84h805q57 0 75.5 -18t18.5 -64v-405q0 -90 -88 -90t-88 90v319z" />
    <glyph glyph-name="sfthyphen" unicode="&#xad;" horiz-adv-x="745" 
d="M580 459h-414q-94 0 -94 90t94 90h414q92 0 92 -90t-92 -90z" />
    <glyph glyph-name="registered" unicode="&#xae;" horiz-adv-x="1591" 
d="M676 987v-239h102q152 0 152 120t-144 119h-110zM676 623v-275q0 -63 -73 -63t-73 63v653q0 115 121 115h140q136 0 209 -63.5t73 -182.5q0 -73 -41.5 -130t-118.5 -78q57 -26 120 -149.5t63 -158.5t-27 -52t-64 -17t-53 41q-55 157 -103.5 227t-117.5 70h-55zM796 123
q236 0 406 169t170 407t-169.5 407.5t-407.5 169.5t-407 -170t-169 -407t170.5 -406.5t406.5 -169.5zM794 1413q296 0 505.5 -209t209.5 -505t-210 -504.5t-505 -208.5t-503.5 209t-208.5 505t208 504.5t504 208.5z" />
    <glyph glyph-name="uni00AF" unicode="&#xaf;" horiz-adv-x="1024" 
d="M1022 1573h-1020q-72 0 -72 83t72 83h1020q72 0 72 -83t-72 -83z" />
    <glyph glyph-name="degree" unicode="&#xb0;" horiz-adv-x="727" 
d="M364 1260q-57 0 -97 -42t-40 -102t41 -100.5t96 -40.5t95.5 40.5t40.5 100.5t-39.5 102t-96.5 42zM364 815q-121 0 -208.5 89.5t-87.5 211.5t87.5 211.5t208.5 89.5t208 -89t87 -212t-87 -212t-208 -89z" />
    <glyph glyph-name="plusminus" unicode="&#xb1;" horiz-adv-x="1161" 
d="M983 0h-805q-96 0 -96 84t96 84h805q94 0 94 -84t-94 -84zM668 580v-226q0 -88 -88 -88t-88 88v226h-314q-96 0 -96 84t96 84h314v219q0 90 88 90t88 -90v-219h315q94 0 94 -84t-94 -84h-315z" />
    <glyph glyph-name="twosuperior" unicode="&#xb2;" 
d="M272 709h310q73 0 73 -70t-73 -70h-326q-129 0 -129 117q0 78 52 146t162 144t139.5 114t29.5 86q0 100 -109 100q-53 0 -109 -38t-79 -38q-22 0 -42.5 23t-20.5 51q0 44 82 91.5t190 47.5t175 -63t67 -174q0 -153 -209 -287q-183 -117 -183 -180z" />
    <glyph glyph-name="threesuperior" unicode="&#xb3;" 
d="M211 1255q-68 0 -68 69t68 69h330q106 0 106 -90q0 -54 -53 -109l-121 -135q193 -38 193 -242q0 -113 -84 -194.5t-198 -81.5t-188.5 40.5t-74.5 74.5t21.5 56.5t43.5 22.5t54 -20q56 -43 123 -43t108 40t41 103q0 133 -160 133q-65 0 -65 62q0 25 32 65l156 180h-264z
" />
    <glyph glyph-name="acute" unicode="&#xb4;" horiz-adv-x="532" 
d="M179 1231q-32 0 -52.5 24t-20.5 58t54 78l182 147q46 37 82 37t60 -26.5t24 -61.5t-57 -80l-195 -143q-45 -33 -77 -33z" />
    <glyph glyph-name="uni00B5" unicode="&#xb5;" horiz-adv-x="1143" 
d="M334 -338q0 -82 -94 -82t-93 82v1313q-1 82 93 82t94 -82v-565q0 -120 58 -186t170 -66t180 78t67 210v529q0 82 94 82t94 -82v-905q0 -82 -94 -82t-94 82v65q-89 -153 -264 -153q-138 0 -211 96v-416z" />
    <glyph glyph-name="paragraph" unicode="&#xb6;" horiz-adv-x="1167" 
d="M928 1221v-1325q0 -93 -94 -93t-95 93v1325h-194v-1325q-1 -93 -95 -93t-94 93v909q-129 16 -204.5 98.5t-75.5 206.5t89 207.5t214 83.5h645q94 0 94 -90t-94 -90h-96z" />
    <glyph glyph-name="periodcentered" unicode="&#xb7;" horiz-adv-x="459" 
d="M230 510q-54 0 -91 35t-37 91t36.5 92t90.5 36t90.5 -37.5t36.5 -90.5t-36 -89.5t-90 -36.5z" />
    <glyph glyph-name="cedilla" unicode="&#xb8;" horiz-adv-x="885" 
d="M510 -82q147 0 147 -147q0 -86 -59 -139.5t-150 -53.5t-134.5 23.5t-43.5 54.5q0 64 52 64q14 0 50 -12t66 -11q78 -1 78 63t-68 64t-93 2t-25 34t20 58l49 82h107l-47 -86q19 4 51 4z" />
    <glyph glyph-name="onesuperior" unicode="&#xb9;" 
d="M188 1180q-28 0 -44.5 21t-16.5 47t17 40.5t90 52.5q74 38 104 55t59 17q76 0 76 -82v-631h102q74 0 74 -63q0 -68 -76 -68h-360q-74 -1 -74 65t74 66h115v549q-6 -2 -16 -8l-45 -27q-51 -34 -79 -34z" />
    <glyph glyph-name="ordmasculine" unicode="&#xba;" horiz-adv-x="811" 
d="M403 1284q-86 0 -133 -62.5t-47 -169.5t47.5 -172t132.5 -65t134 63.5t49 172.5q0 233 -183 233zM404 688q-148 0 -236 101.5t-88 262.5t86.5 261t238.5 100t238 -98.5t86 -262.5t-88.5 -264t-236.5 -100z" />
    <glyph glyph-name="guillemotright" unicode="&#xbb;" horiz-adv-x="1251" 
d="M592 921q0 27 27.5 53.5t59.5 26.5t66 -28l408 -350q37 -31 37 -71t-37 -71l-410 -350q-36 -31 -65 -31t-57.5 27t-28.5 60t39 63l350 303q-13 11 -179 151t-188 165t-22 52zM84 920q0 28 28 54.5t58 26.5t68 -28l405 -350q37 -31 37 -71t-37 -71l-410 -350
q-36 -31 -65 -31t-56.5 27.5t-27.5 59.5t37 63l352 303q-10 9 -174 145t-189.5 165t-25.5 57z" />
    <glyph glyph-name="onequarter" unicode="&#xbc;" horiz-adv-x="1829" 
d="M188 1180q-28 0 -44 21t-17 47q0 26 17 40q17 15 90 53q74 38 104 55t59 17q76 0 76 -82v-631h102q74 0 74 -63q0 -68 -76 -68h-360q-74 -1 -74 65t74 66h115v549q-6 -2 -16 -8l-45 -27q-51 -34 -79 -34zM488 -20q-26 0 -52 22t-26 46t18 54t367 542l394 579
q119 172 133 181t40 9t52 -23q26 -22 26 -48t-34 -76l-742 -1090q-119 -176 -135 -186q-15 -10 -41 -10zM1614 172v-113q0 -69 -72 -69t-73 69v113h-277q-117 0 -117 102q0 40 23 82l221 439q25 49 59 49t58 -18t24 -44q0 -25 -22 -67l-205 -408h236v268q1 68 73 68t72 -68
v-268h37q71 1 71 -67t-71 -68h-37z" />
    <glyph glyph-name="onehalf" unicode="&#xbd;" horiz-adv-x="1819" 
d="M188 1180q-28 0 -44 21t-17 47q0 26 17 40q17 15 90 53q74 38 104 55t59 17q76 0 76 -82v-631h102q74 0 74 -63q0 -68 -76 -68h-360q-74 -1 -74 65t74 66h115v549q-6 -2 -16 -8l-45 -27q-51 -34 -79 -34zM488 -20q-26 0 -51 22q-26 22 -26 46t18 54t367 542l394 579
q118 172 132 181t41 9q26 0 52 -23q26 -22 26 -48t-34 -76l-742 -1090q-119 -176 -135 -186t-42 -10zM1303 140h310q73 0 73 -70t-73 -70h-326q-129 0 -129 117q0 78 52 146q52 67 162 143t140 114t29 87q0 100 -109 100q-54 0 -110 -38t-78 -38t-42 23t-21 51q0 43 82 91
t190 48t175 -63t67 -174q0 -153 -209 -287q-183 -117 -183 -180z" />
    <glyph glyph-name="threequarters" unicode="&#xbe;" horiz-adv-x="1825" 
d="M211 1255q-68 0 -68 69t68 69h330q106 0 106 -90q0 -54 -53 -109l-121 -135q193 -38 193 -242q0 -113 -84 -195t-198 -81t-188 41t-75 74t21 57q22 22 44 22t54 -20q56 -43 123 -43t108 40t41 103q0 133 -160 133q-65 0 -65 62q0 25 32 65l156 180h-264zM490 -20
q-26 0 -51 22q-26 22 -26 46t18 54t367 542l394 579q118 172 132 181t41 9q26 0 52 -23q26 -22 26 -48t-34 -76l-742 -1090q-119 -176 -135 -186t-42 -10zM1621 171v-113q-1 -69 -73 -69t-72 69v113h-277q-117 0 -117 102q0 40 23 82l221 439q25 49 59 49q34 -1 58 -19
t24 -43t-22 -67l-205 -408h236v268q0 68 72 68t73 -68v-268h37q71 0 71 -68t-71 -67h-37z" />
    <glyph glyph-name="questiondown" unicode="&#xbf;" horiz-adv-x="903" 
d="M432 565v60q0 84 93 84t93 -84v-70q0 -116 -47 -195.5t-147 -145.5t-133 -116t-33 -122t55 -123.5t161 -51.5t206 88q40 34 51 39.5t37 5.5t52 -26t26 -62q0 -65 -116 -141t-283 -76t-273 94.5t-106 249.5q0 210 227 361q82 56 109.5 106t27.5 125zM524 1065
q54 0 88.5 -35.5t34.5 -89.5t-34.5 -89.5t-89.5 -35.5t-90.5 37t-35.5 89t36.5 88t90.5 36z" />
    <glyph glyph-name="Agrave" unicode="&#xc0;" horiz-adv-x="1210" 
d="M831 571q-113 367 -219 600q-106 -232 -225 -600h444zM158 -12q-113 0 -113 73q0 61 111 407t229 614q118 270 148 296t83 27h2q44 0 74 -25t144 -292t222 -616t107 -404q0 -80 -112 -80q-58 0 -76 71q-33 141 -92 332h-553q-69 -222 -99 -332q-17 -71 -75 -71zM750 1600
q0 -34 -20 -58t-55 -24q-34 0 -75 33l-194 143q-57 42 -57 80q1 38 25 63t59 25t81 -37l183 -147q53 -44 53 -78z" />
    <glyph glyph-name="Aacute" unicode="&#xc1;" horiz-adv-x="1210" 
d="M831 571q-113 367 -219 600q-106 -232 -225 -600h444zM158 -12q-113 0 -113 73q0 61 111 407t229 614q118 270 148 296t83 27h2q44 0 74 -25t144 -292t222 -616t107 -404q0 -80 -112 -80q-58 0 -76 71q-33 141 -92 332h-553q-69 -222 -99 -332q-17 -71 -75 -71zM529 1518
q-33 0 -53 24t-20 58t54 78l182 147q46 37 82 37t60 -26t24 -62q0 -35 -57 -80l-195 -143q-45 -33 -77 -33z" />
    <glyph glyph-name="Acircumflex" unicode="&#xc2;" horiz-adv-x="1210" 
d="M831 571q-113 367 -219 600q-106 -232 -225 -600h444zM158 -12q-113 0 -113 73q0 61 111 407t229 614q118 270 148 296t83 27h2q44 0 74 -25t144 -292t222 -616t107 -404q0 -80 -112 -80q-58 0 -76 71q-33 141 -92 332h-553q-69 -222 -99 -332q-17 -71 -75 -71zM374 1518
q-32 0 -52 24t-21 50q1 26 35 59t135 99t149 65q48 0 133 -61q23 -16 85 -54t77 -56t15 -46t-22 -54t-56 -26t-88 39l-147 100l-152 -100q-59 -39 -91 -39z" />
    <glyph glyph-name="Atilde" unicode="&#xc3;" horiz-adv-x="1210" 
d="M831 571q-113 367 -219 600q-106 -232 -225 -600h444zM158 -12q-113 0 -113 73q0 61 111 407t229 614q118 270 148 296t83 27h2q44 0 74 -25t144 -292t222 -616t107 -404q0 -80 -112 -80q-58 0 -76 71q-33 141 -92 332h-553q-69 -222 -99 -332q-17 -71 -75 -71zM748 1524
q-70 0 -138 37q-70 37 -106 37t-77 -38t-65 -38t-46 22t-21 52q-1 52 63 100t135 49q71 0 143 -37t107 -37q34 0 66 36t56 36q73 0 73 -67q0 -52 -60 -102t-130 -50z" />
    <glyph glyph-name="Adieresis" unicode="&#xc4;" horiz-adv-x="1210" 
d="M831 571q-113 367 -219 600q-106 -232 -225 -600h444zM158 -12q-113 0 -113 73q0 61 111 407t229 614q118 270 148 296t83 27h2q44 0 74 -25t144 -292t222 -616t107 -404q0 -80 -112 -80q-58 0 -76 71q-33 141 -92 332h-553q-69 -222 -99 -332q-17 -71 -75 -71zM426 1520
q-46 0 -78 33t-33 77q0 44 33 78q33 33 79 33t78 -33q32 -34 32 -78q-1 -44 -33 -77t-78 -33zM808 1520q-46 0 -78 32t-32 78t33 79q33 32 78 32q45 -1 78 -33t33 -78t-34 -78t-78 -32z" />
    <glyph glyph-name="Aring" unicode="&#xc5;" horiz-adv-x="1210" 
d="M831 571q-111 371 -219 592q-104 -224 -225 -592h444zM614 1624q-44 0 -74 -31t-30 -75t31 -74.5t73 -30.5t73.5 30.5t31.5 74.5t-30.5 75t-74.5 31zM1165 68q0 -80 -112 -80q-58 0 -76 71q-30 129 -92 334h-553l-102 -349q-14 -56 -72 -56q-113 0 -113 73
q0 106 178 604.5t283 673.5q-103 60 -103 181q0 85 63.5 148t147.5 63t146.5 -63.5t62.5 -147.5q0 -116 -104 -183q166 -304 306 -759.5t140 -509.5z" />
    <glyph glyph-name="AE" unicode="&#xc6;" horiz-adv-x="1782" 
d="M897 571v635h-4q-177 -243 -412 -635h416zM897 391h-518q-51 -84 -127 -223t-94.5 -160.5t-59.5 -21.5t-70.5 27t-29.5 63t38 103q350 621 554.5 899t235 296.5t89.5 18.5h684q56 0 78.5 -19.5t22.5 -67.5t-21 -71t-80 -23h-477q-35 0 -35 -38v-359h447q100 0 100 -90
q0 -48 -22 -69t-78 -21h-447v-424q0 -31 27 -31h483q103 0 103 -90t-103 -90h-536q-164 0 -164 158v233z" />
    <glyph glyph-name="Ccedilla" unicode="&#xc7;" horiz-adv-x="1217" 
d="M92 698q0 318 176 516.5t455 198.5q170 0 295 -66t125 -130q0 -38 -26.5 -67.5t-58.5 -29.5t-79 33q-112 82 -260 82q-195 0 -315.5 -147.5t-120.5 -398.5t114 -391t320 -140q146 0 282 102q50 33 80 33t55 -27.5t25 -58.5q0 -71 -132 -144t-273 -79q-10 -23 -16 -39
l-13 -31q16 4 45 4q143 0 143 -147q0 -84 -59.5 -138.5t-152.5 -54.5t-135 24.5t-42 53.5q0 63 54 63q16 0 50 -11t64 -11q78 -1 78 63t-76 64l-69 -4q-43 0 -43 41q0 23 22 57l37 66q-259 20 -404 208t-145 506z" />
    <glyph glyph-name="Egrave" unicode="&#xc8;" horiz-adv-x="1059" 
d="M174 1217q0 176 178 176h525q57 0 79 -20t21 -68q0 -93 -100 -93h-478q-34 0 -34 -38v-359h446q100 0 100 -90q0 -48 -22 -69t-78 -21h-446v-424q0 -31 28 -31h481q103 0 103 -90t-103 -90h-534q-78 0 -122 41t-44 117v1059zM727 1600q-1 -34 -21 -58t-54 -24t-75 33
l-194 143q-57 42 -57 80t24 63t60 25q35 0 81 -37l183 -147q53 -44 53 -78z" />
    <glyph glyph-name="Eacute" unicode="&#xc9;" horiz-adv-x="1059" 
d="M174 1217q0 176 178 176h525q57 0 79 -20t21 -68q0 -93 -100 -93h-478q-34 0 -34 -38v-359h446q100 0 100 -90q0 -48 -22 -69t-78 -21h-446v-424q0 -31 28 -31h481q103 0 103 -90t-103 -90h-534q-78 0 -122 41t-44 117v1059zM507 1518q-33 0 -53 24t-20 58t54 78l182 147
q46 37 82 37t60 -26t24 -62q0 -35 -57 -80l-195 -143q-45 -33 -77 -33z" />
    <glyph glyph-name="Ecircumflex" unicode="&#xca;" horiz-adv-x="1059" 
d="M174 1217q0 176 178 176h525q57 0 79 -20t21 -68q0 -93 -100 -93h-478q-34 0 -34 -38v-359h446q100 0 100 -90q0 -48 -22 -69t-78 -21h-446v-424q0 -31 28 -31h481q103 0 103 -90t-103 -90h-534q-78 0 -122 41t-44 117v1059zM351 1518q-33 0 -53 24t-20 50t34 59t136 99
q100 66 148 65q48 0 134 -61q22 -16 84 -54t78 -56q15 -18 15 -46q-1 -28 -23 -54t-56 -26t-87 39l-147 100l-152 -100q-59 -39 -91 -39z" />
    <glyph glyph-name="Edieresis" unicode="&#xcb;" horiz-adv-x="1059" 
d="M174 1217q0 176 178 176h525q57 0 79 -20t21 -68q0 -93 -100 -93h-478q-34 0 -34 -38v-359h446q100 0 100 -90q0 -48 -22 -69t-78 -21h-446v-424q0 -31 28 -31h481q103 0 103 -90t-103 -90h-534q-78 0 -122 41t-44 117v1059zM403 1520q-47 0 -79 33t-32 77t33 78
q33 33 79 33t78 -33q32 -34 32 -78t-32 -77t-79 -33zM785 1520q-45 0 -77 32t-33 78q0 46 33 79q33 32 78 32q45 -1 78 -33t33 -78q1 -46 -33 -78t-79 -32z" />
    <glyph glyph-name="Igrave" unicode="&#xcc;" horiz-adv-x="539" 
d="M365 74q1 -86 -95 -86t-96 86v1247q0 84 96 84t95 -84v-1247zM400 1600q0 -34 -20 -58t-55 -24q-34 0 -75 33l-194 143q-57 42 -57 80q1 38 25 63t59 25t81 -37l183 -147q53 -44 53 -78z" />
    <glyph glyph-name="Iacute" unicode="&#xcd;" horiz-adv-x="539" 
d="M365 74q1 -86 -95 -86t-96 86v1247q0 84 96 84t95 -84v-1247zM179 1518q-33 0 -53 24t-20 58t54 78l182 147q46 37 82 37t60 -26t24 -62q0 -35 -57 -80l-195 -143q-45 -33 -77 -33z" />
    <glyph glyph-name="Icircumflex" unicode="&#xce;" horiz-adv-x="539" 
d="M365 74q1 -86 -95 -86t-96 86v1247q0 84 96 84t95 -84v-1247zM25 1518q-33 0 -53 24t-20 50t34 59t136 99q100 66 148 65q48 0 134 -61q22 -16 84 -54t78 -56q15 -18 15 -46q-1 -28 -23 -54t-56 -26t-87 39l-147 100l-152 -100q-59 -39 -91 -39z" />
    <glyph glyph-name="Idieresis" unicode="&#xcf;" horiz-adv-x="539" 
d="M365 74q1 -86 -95 -86t-96 86v1247q0 84 96 84t95 -84v-1247zM77 1520q-47 0 -79 33t-32 77t33 78q33 33 79 33t78 -33q32 -34 32 -78t-32 -77t-79 -33zM459 1520q-45 0 -77 32t-33 78q0 46 33 79q33 32 78 32q45 -1 78 -33t33 -78q1 -46 -33 -78t-79 -32z" />
    <glyph glyph-name="Eth" unicode="&#xd0;" horiz-adv-x="1354" 
d="M365 637v-426q0 -31 28 -31h217q220 0 340.5 142t120.5 386t-120 374t-341 130h-213q-32 0 -32 -34v-371h266q52 0 74 -18t22 -66q0 -86 -96 -86h-266zM174 637h-74q-46 0 -69 15.5t-23 67.5t21.5 69.5t70.5 17.5h74v416q0 170 172 170h270q303 0 474.5 -183.5
t171.5 -497.5t-171.5 -513t-474.5 -199h-276q-166 0 -166 158v479z" />
    <glyph glyph-name="Ntilde" unicode="&#xd1;" horiz-adv-x="1389" 
d="M1214 100q0 -112 -116 -112q-71 0 -113 69l-629 1053v-1038q0 -84 -91 -84t-91 84v1200q0 133 123 133q73 0 117 -70l618 -1044v1028q0 86 91 86t91 -86v-1219zM828 1524q-70 0 -138 37q-70 37 -106 37t-77 -38t-65 -38t-46 22t-21 52q-1 52 63 100t135 49q71 0 143 -37
t107 -37q34 0 66 36t56 36q73 0 73 -67q0 -52 -60 -102t-130 -50z" />
    <glyph glyph-name="Ograve" unicode="&#xd2;" horiz-adv-x="1399" 
d="M702 1235q-193 0 -306 -154t-113 -382q0 -229 112 -385t307 -156q194 0 304 156t110 385q0 228 -110 382t-304 154zM702 -20q-282 0 -446 204t-164 516q0 313 166 513t445 200q280 -1 442 -203t162 -512t-162 -514t-443 -204zM836 1600q0 -34 -20 -58t-55 -24
q-34 0 -75 33l-194 143q-57 42 -57 80q1 38 25 63t59 25t81 -37l183 -147q53 -44 53 -78z" />
    <glyph glyph-name="Oacute" unicode="&#xd3;" horiz-adv-x="1399" 
d="M702 1235q-193 0 -306 -154t-113 -382q0 -229 112 -385t307 -156q194 0 304 156t110 385q0 228 -110 382t-304 154zM702 -20q-282 0 -446 204t-164 516q0 313 166 513t445 200q280 -1 442 -203t162 -512t-162 -514t-443 -204zM615 1518q-33 0 -53 24t-20 58t54 78
l182 147q46 37 82 37t60 -26t24 -62q0 -35 -57 -80l-195 -143q-45 -33 -77 -33z" />
    <glyph glyph-name="Ocircumflex" unicode="&#xd4;" horiz-adv-x="1399" 
d="M702 1235q-193 0 -306 -154t-113 -382q0 -229 112 -385t307 -156q194 0 304 156t110 385q0 228 -110 382t-304 154zM702 -20q-282 0 -446 204t-164 516q0 313 166 513t445 200q280 -1 442 -203t162 -512t-162 -514t-443 -204zM460 1518q-32 0 -52 24t-21 50q1 26 35 59
t135 99t149 65q48 0 133 -61q23 -16 85 -54t77 -56t15 -46t-22 -54t-56 -26t-88 39l-147 100l-152 -100q-59 -39 -91 -39z" />
    <glyph glyph-name="Otilde" unicode="&#xd5;" horiz-adv-x="1399" 
d="M702 1235q-193 0 -306 -154t-113 -382q0 -229 112 -385t307 -156q194 0 304 156t110 385q0 228 -110 382t-304 154zM702 -20q-282 0 -446 204t-164 516q0 313 166 513t445 200q280 -1 442 -203t162 -512t-162 -514t-443 -204zM834 1524q-70 0 -138 37q-70 37 -106 37
t-77 -38t-65 -38t-46 22t-21 52q-1 52 63 100t135 49q71 0 143 -37t107 -37q34 0 66 36t56 36q73 0 73 -67q0 -52 -60 -102t-130 -50z" />
    <glyph glyph-name="Odieresis" unicode="&#xd6;" horiz-adv-x="1399" 
d="M702 1235q-193 0 -306 -154t-113 -382q0 -229 112 -385t307 -156q194 0 304 156t110 385q0 228 -110 382t-304 154zM702 -20q-282 0 -446 204t-164 516q0 313 166 513t445 200q280 -1 442 -203t162 -512t-162 -514t-443 -204zM512 1520q-46 0 -78 33t-33 77q0 44 33 78
q33 33 79 33t78 -33q32 -34 32 -78q-1 -44 -33 -77t-78 -33zM894 1520q-46 0 -78 32t-32 78t33 79q33 32 78 32q45 -1 78 -33t33 -78t-34 -78t-78 -32z" />
    <glyph glyph-name="multiply" unicode="&#xd7;" horiz-adv-x="1161" 
d="M1006 188q0 -29 -32.5 -59.5t-59.5 -30.5t-64 37l-270 273l-269 -273q-35 -37 -63 -37t-60 30t-32 60t37 66l270 272l-270 271q-37 37 -37 65t29.5 61t58.5 33t67 -38l269 -273l274 275q36 36 63 36t58 -31t31 -62t-37 -64l-271 -273l271 -272q37 -37 37 -66z" />
    <glyph glyph-name="Oslash" unicode="&#xd8;" horiz-adv-x="1399" 
d="M702 156q194 0 306 157t112 385t-106 375l-512 -862q82 -55 200 -55zM702 1237q-195 0 -308 -155.5t-113 -383.5t104 -376l512 864q-86 51 -195 51zM267 -115q-28 0 -55.5 22.5t-27.5 49.5t23 63l37 66q19 34 39 66q-191 208 -191 532t166 526.5t444 202.5q158 0 289 -72
q85 148 102 160t45 12t54.5 -22.5t26.5 -46.5t-18.5 -54.5t-84.5 -144.5q191 -207 191 -533t-162 -529t-443 -203q-167 0 -294 73q-16 -28 -46 -80t-48.5 -70t-46.5 -18z" />
    <glyph glyph-name="Ugrave" unicode="&#xd9;" horiz-adv-x="1327" 
d="M1157 446q1 -212 -137 -339t-358 -127t-356 127t-136 339v873q0 86 95 86t95 -86v-866q0 -139 82 -217t220 -78t222 79t83 216v866q0 86 95 86t95 -86v-873zM793 1600q-1 -34 -21 -58t-54 -24t-75 33l-194 143q-57 42 -57 80t24 63t60 25q35 0 81 -37l183 -147
q53 -44 53 -78z" />
    <glyph glyph-name="Uacute" unicode="&#xda;" horiz-adv-x="1327" 
d="M1157 446q1 -212 -137 -339t-358 -127t-356 127t-136 339v873q0 86 95 86t95 -86v-866q0 -139 82 -217t220 -78t222 79t83 216v866q0 86 95 86t95 -86v-873zM572 1518q-32 0 -52 24t-21 58q0 34 54 78l182 147q45 37 81 37t60 -26t25 -62q0 -35 -57 -80l-195 -143
q-45 -33 -77 -33z" />
    <glyph glyph-name="Ucircumflex" unicode="&#xdb;" horiz-adv-x="1327" 
d="M1157 446q1 -212 -137 -339t-358 -127t-356 127t-136 339v873q0 86 95 86t95 -86v-866q0 -139 82 -217t220 -78t222 79t83 216v866q0 86 95 86t95 -86v-873zM417 1518q-33 0 -53 24t-20 50t34 59t136 99q100 66 148 65q48 0 134 -61q22 -16 84 -54t78 -56q15 -18 15 -46
q-1 -28 -23 -54t-56 -26t-87 39l-147 100l-152 -100q-59 -39 -91 -39z" />
    <glyph glyph-name="Udieresis" unicode="&#xdc;" horiz-adv-x="1327" 
d="M1157 446q1 -212 -137 -339t-358 -127t-356 127t-136 339v873q0 86 95 86t95 -86v-866q0 -139 82 -217t220 -78t222 79t83 216v866q0 86 95 86t95 -86v-873zM469 1520q-47 0 -79 33t-32 77t33 78q33 33 79 33t78 -33q32 -34 32 -78t-32 -77t-79 -33zM851 1520
q-45 0 -77 32t-33 78q0 46 33 79q33 32 78 32q45 -1 78 -33t33 -78q1 -46 -33 -78t-79 -32z" />
    <glyph glyph-name="Yacute" unicode="&#xdd;" horiz-adv-x="1042" 
d="M604 74q0 -86 -95 -86t-95 86v467q-155 153 -262 381t-107 397q0 86 91 86t97 -78q28 -360 275 -629q270 294 301 621q5 50 27 68t67 18q96 0 96 -86q0 -161 -115 -389t-280 -389v-467zM427 1518q-33 0 -53 24t-20 58t54 78l182 147q46 37 82 37t60 -26t24 -62
q0 -35 -57 -80l-195 -143q-45 -33 -77 -33z" />
    <glyph glyph-name="Thorn" unicode="&#xde;" horiz-adv-x="1124" 
d="M365 455h233q119 0 189.5 66.5t70.5 178.5q0 254 -258 254h-235v-499zM365 74q1 -86 -95 -86t-96 86v1247q0 84 96 84t95 -84v-186h239q215 0 330 -114.5t115 -312.5t-125.5 -315t-333.5 -117h-225v-202z" />
    <glyph glyph-name="germandbls" unicode="&#xdf;" horiz-adv-x="1108" 
d="M467 174l135 -22q119 0 186.5 69t67.5 189t-67 192t-191 90q-86 12 -86 88q0 65 66 88q196 71 196 265q0 101 -61 164t-164 63t-164 -72t-61 -201v-1001q0 -92 -94 -92t-95 92v1012q0 196 113.5 315t305.5 119t300.5 -105t108.5 -284q0 -107 -56.5 -199.5t-150.5 -138.5
q288 -79 288 -393q0 -189 -122 -309.5t-318 -120.5t-196 100q0 37 20 64.5t39 27.5z" />
    <glyph glyph-name="agrave" unicode="&#xe0;" horiz-adv-x="1130" 
d="M797 612q0 121 -70 201t-192 80q-123 0 -195 -102q-72 -103 -72 -271t71 -268t195 -100t194 80t69 200v180zM510 1065q193 0 287 -145v55q0 82 93 82t93 -82v-905q0 -82 -93 -82t-93 78v75q-89 -161 -289 -161t-314 148t-114 393q0 246 118 395t312 149zM707 1312
q-1 -34 -21 -58t-54 -24t-75 33l-194 143q-57 42 -57 80t24 63t60 25q35 0 81 -37l183 -147q53 -44 53 -78z" />
    <glyph glyph-name="aacute" unicode="&#xe1;" horiz-adv-x="1130" 
d="M797 612q0 121 -70 201t-192 80q-123 0 -195 -102q-72 -103 -72 -271t71 -268t195 -100t194 80t69 200v180zM510 1065q193 0 287 -145v55q0 82 93 82t93 -82v-905q0 -82 -93 -82t-93 78v75q-89 -161 -289 -161t-314 148t-114 393q0 246 118 395t312 149zM455 1230
q-33 0 -53 24t-20 58t54 78l182 147q46 37 82 37t60 -26t24 -62q0 -35 -57 -80l-195 -143q-45 -33 -77 -33z" />
    <glyph glyph-name="acircumflex" unicode="&#xe2;" horiz-adv-x="1130" 
d="M797 612q0 121 -70 201t-192 80q-123 0 -195 -102q-72 -103 -72 -271t71 -268t195 -100t194 80t69 200v180zM510 1065q193 0 287 -145v55q0 82 93 82t93 -82v-905q0 -82 -93 -82t-93 78v75q-89 -161 -289 -161t-314 148t-114 393q0 246 118 395t312 149zM300 1230
q-32 0 -52 24t-21 50q1 26 35 59t135 99t149 65q48 0 133 -61q23 -16 85 -54t77 -56t15 -46t-22 -54t-56 -26t-88 39l-147 100l-152 -100q-59 -39 -91 -39z" />
    <glyph glyph-name="atilde" unicode="&#xe3;" horiz-adv-x="1130" 
d="M797 612q0 121 -70 201t-192 80q-123 0 -195 -102q-72 -103 -72 -271t71 -268t195 -100t194 80t69 200v180zM510 1065q193 0 287 -145v55q0 82 93 82t93 -82v-905q0 -82 -93 -82t-93 78v75q-89 -161 -289 -161t-314 148t-114 393q0 246 118 395t312 149zM674 1236
q-70 0 -138 37q-70 37 -106 37t-77 -38t-65 -38t-46 22t-21 52q-1 52 63 100t135 49q71 0 143 -37t107 -37q34 0 66 36t56 36q73 0 73 -67q0 -52 -60 -102t-130 -50z" />
    <glyph glyph-name="adieresis" unicode="&#xe4;" horiz-adv-x="1130" 
d="M797 612q0 121 -70 201t-192 80q-123 0 -195 -102q-72 -103 -72 -271t71 -268t195 -100t194 80t69 200v180zM510 1065q193 0 287 -145v55q0 82 93 82t93 -82v-905q0 -82 -93 -82t-93 78v75q-89 -161 -289 -161t-314 148t-114 393q0 246 118 395t312 149zM352 1232
q-46 0 -78 33t-33 77q0 44 33 78q33 33 79 33t78 -33q32 -34 32 -78q-1 -44 -33 -77t-78 -33zM734 1232q-46 0 -78 32t-32 78t33 79q33 32 78 32q45 -1 78 -33t33 -78t-34 -78t-78 -32z" />
    <glyph glyph-name="aring" unicode="&#xe5;" horiz-adv-x="1130" 
d="M797 612q0 121 -70 201t-192 80q-123 0 -195 -102q-72 -103 -72 -271t71 -268t195 -100t194 80t69 200v180zM510 1065q193 0 287 -145v55q0 82 93 82t93 -82v-905q0 -82 -93 -82t-93 78v75q-89 -161 -289 -161t-314 148t-114 393q0 246 118 395t312 149zM542 1469
q-42 1 -73 -31t-31 -75t31 -74t73 -31t73 30q32 30 32 76t-32 75q-31 30 -73 30zM543 1152q-85 0 -147 62t-62 149t62 150t147 63t147 -63t62 -150t-62 -149t-147 -62z" />
    <glyph glyph-name="ae" unicode="&#xe6;" horiz-adv-x="1694" 
d="M258 289q0 -62 46 -102t122 -40q125 0 206.5 91t92.5 239q-254 -2 -360.5 -42.5t-106.5 -145.5zM1190 893q-110 0 -184.5 -72t-87.5 -192h516q-4 117 -69 190.5t-175 73.5zM1204 152q120 0 217 61q49 31 77 31t52.5 -27.5t24.5 -60.5q0 -61 -111 -118.5t-258 -57.5
q-287 0 -405 235q-129 -233 -385 -233q-163 0 -254.5 88t-91.5 215q0 179 146.5 265t508.5 89q0 118 -56.5 187t-166.5 69q-65 0 -112 -19.5t-102 -54.5t-79 -35t-48 28.5t-24 64.5q0 63 132.5 124.5t248.5 61.5q234 0 332 -193q127 193 362 193q184 0 297 -127.5
t113 -335.5q0 -139 -117 -139h-592q12 -144 91.5 -227.5t199.5 -83.5z" />
    <glyph glyph-name="ccedilla" unicode="&#xe7;" horiz-adv-x="987" 
d="M80 535q0 235 135 382.5t350 147.5q146 0 253.5 -62t107.5 -126q0 -36 -26 -62.5t-61 -26.5t-75 33q-96 72 -216 72t-200 -97.5t-80 -269.5t80.5 -273t200.5 -101t217 75q44 31 78 31t59 -27t25 -61q0 -61 -103 -121.5t-225 -66.5q-16 -35 -35 -68q20 4 49 4
q146 0 146 -147q0 -84 -58 -138.5t-152 -54.5t-136.5 24.5t-42.5 53.5q0 63 51 63q18 0 52 -11t65 -11q77 -1 77 63t-75 64q-33 0 -73 -3t-40 44q0 19 59 121q-184 21 -295.5 167.5t-111.5 381.5z" />
    <glyph glyph-name="egrave" unicode="&#xe8;" horiz-adv-x="1053" 
d="M550 893q-108 0 -182 -72t-89 -200h514q-7 126 -71 199t-172 73zM566 152q122 0 208 59q51 33 81 33q29 0 55 -29t26 -59q0 -68 -120 -122t-251 -54q-225 0 -354 145t-129 389t126 398q126 153 334 153q208 -1 323 -129q116 -128 116 -342q0 -139 -117 -139h-590
q12 -143 91 -223t201 -80zM690 1312q0 -34 -20 -58t-55 -24q-34 0 -75 33l-194 143q-57 42 -57 80q1 38 25 63t59 25t81 -37l183 -147q53 -44 53 -78z" />
    <glyph glyph-name="eacute" unicode="&#xe9;" horiz-adv-x="1053" 
d="M550 893q-108 0 -182 -72t-89 -200h514q-7 126 -71 199t-172 73zM566 152q122 0 208 59q51 33 81 33q29 0 55 -29t26 -59q0 -68 -120 -122t-251 -54q-225 0 -354 145t-129 389t126 398q126 153 334 153q208 -1 323 -129q116 -128 116 -342q0 -139 -117 -139h-590
q12 -143 91 -223t201 -80zM470 1230q-32 0 -52 24t-21 58q0 34 54 78l182 147q45 37 81 37t60 -26t25 -62q0 -35 -57 -80l-195 -143q-45 -33 -77 -33z" />
    <glyph glyph-name="ecircumflex" unicode="&#xea;" horiz-adv-x="1053" 
d="M550 893q-108 0 -182 -72t-89 -200h514q-7 126 -71 199t-172 73zM566 152q122 0 208 59q51 33 81 33q29 0 55 -29t26 -59q0 -68 -120 -122t-251 -54q-225 0 -354 145t-129 389t126 398q126 153 334 153q208 -1 323 -129q116 -128 116 -342q0 -139 -117 -139h-590
q12 -143 91 -223t201 -80zM315 1230q-33 0 -53 24t-20 50t34 59t136 99q100 66 148 65q48 0 134 -61q22 -16 84 -54t78 -56q15 -18 15 -46q-1 -28 -23 -54t-56 -26t-87 39l-147 100l-152 -100q-59 -39 -91 -39z" />
    <glyph glyph-name="edieresis" unicode="&#xeb;" horiz-adv-x="1053" 
d="M550 893q-108 0 -182 -72t-89 -200h514q-7 126 -71 199t-172 73zM566 152q122 0 208 59q51 33 81 33q29 0 55 -29t26 -59q0 -68 -120 -122t-251 -54q-225 0 -354 145t-129 389t126 398q126 153 334 153q208 -1 323 -129q116 -128 116 -342q0 -139 -117 -139h-590
q12 -143 91 -223t201 -80zM367 1232q-47 0 -79 33t-32 77t33 78q33 33 79 33t78 -33q32 -34 32 -78t-32 -77t-79 -33zM749 1232q-45 0 -77 32t-33 78q0 46 33 79q33 32 78 32q45 -1 78 -33t33 -78q1 -46 -33 -78t-79 -32z" />
    <glyph glyph-name="igrave" unicode="&#xec;" horiz-adv-x="479" 
d="M334 70q0 -82 -94 -82t-93 82v907q-1 80 93 80t94 -80v-907zM372 1312q0 -34 -20 -58t-55 -24q-34 0 -75 33l-194 143q-57 42 -57 80q1 38 25 63t59 25t81 -37l183 -147q53 -44 53 -78z" />
    <glyph glyph-name="iacute" unicode="&#xed;" horiz-adv-x="479" 
d="M334 70q0 -82 -94 -82t-93 82v907q-1 80 93 80t94 -80v-907zM151 1230q-33 0 -53 24t-20 58t54 78l182 147q46 37 82 37t60 -26t24 -62q0 -35 -57 -80l-195 -143q-45 -33 -77 -33z" />
    <glyph glyph-name="icircumflex" unicode="&#xee;" horiz-adv-x="479" 
d="M334 70q0 -82 -94 -82t-93 82v907q-1 80 93 80t94 -80v-907zM-4 1230q-32 0 -52 24t-21 50q1 26 35 59t135 99t149 65q48 0 133 -61q23 -16 85 -54t77 -56t15 -46t-22 -54t-56 -26t-88 39l-147 100l-152 -100q-59 -39 -91 -39z" />
    <glyph glyph-name="idieresis" unicode="&#xef;" horiz-adv-x="479" 
d="M334 70q0 -82 -94 -82t-93 82v907q-1 80 93 80t94 -80v-907zM48 1232q-46 0 -78 33t-33 77q0 44 33 78q33 33 79 33t78 -33q32 -34 32 -78q-1 -44 -33 -77t-78 -33zM430 1232q-46 0 -78 32t-32 78t33 79q33 32 78 32q45 -1 78 -33t33 -78t-34 -78t-78 -32z" />
    <glyph glyph-name="eth" unicode="&#xf0;" horiz-adv-x="1106" 
d="M557 858q-136 0 -212.5 -92t-76.5 -255t74 -261t210 -98t211 99.5t75 265.5t-72.5 253.5t-208.5 87.5zM1026 551q0 -270 -127 -420.5t-345 -150.5t-346 148t-128 384t124 377t316 141q127 0 230 -86q-82 153 -242 281l-124 -84q-24 -17 -38 -27t-40 -10t-49.5 27
t-23.5 61t35 55l107 74q-37 25 -131 63q-47 18 -47 58t24 67t60 27q90 0 247 -106l24 16q92 65 113 77.5t46 12.5t51 -29t26 -59t-36 -55l-93 -66q367 -299 367 -776z" />
    <glyph glyph-name="ntilde" unicode="&#xf1;" horiz-adv-x="1139" 
d="M645 1065q167 0 259 -103t93 -278v-614q0 -82 -94 -82t-94 82v577q0 242 -211 242q-120 1 -192 -83t-72 -237v-499q0 -82 -94 -82t-93 82v907q-1 80 93 80t94 -80v-84q108 172 311 172zM730 1236q-70 0 -139 37t-105 37t-78 -38q-41 -38 -65 -38q-23 0 -45 22t-22 52
q0 52 64 100t134 49q72 0 144 -37t106 -37t66 36t56 36q73 0 73 -67q0 -52 -60 -102q-59 -50 -129 -50z" />
    <glyph glyph-name="ograve" unicode="&#xf2;" horiz-adv-x="1112" 
d="M557 893q-135 0 -212 -97t-77 -268q0 -172 78 -274t210 -102q134 0 211 102t77 272t-76 268q-76 99 -211 99zM556 -20q-212 0 -344 149t-132 397t132 393q132 146 346 146q214 -1 344 -149t130 -394t-132 -394t-344 -148zM690 1312q0 -34 -20 -58t-55 -24q-34 0 -75 33
l-194 143q-57 42 -57 80q1 38 25 63t59 25t81 -37l183 -147q53 -44 53 -78z" />
    <glyph glyph-name="oacute" unicode="&#xf3;" horiz-adv-x="1112" 
d="M557 893q-135 0 -212 -97t-77 -268q0 -172 78 -274t210 -102q134 0 211 102t77 272t-76 268q-76 99 -211 99zM556 -20q-212 0 -344 149t-132 397t132 393q132 146 346 146q214 -1 344 -149t130 -394t-132 -394t-344 -148zM470 1230q-32 0 -52 24t-21 58q0 34 54 78
l182 147q45 37 81 37t60 -26t25 -62q0 -35 -57 -80l-195 -143q-45 -33 -77 -33z" />
    <glyph glyph-name="ocircumflex" unicode="&#xf4;" horiz-adv-x="1112" 
d="M557 893q-135 0 -212 -97t-77 -268q0 -172 78 -274t210 -102q134 0 211 102t77 272t-76 268q-76 99 -211 99zM556 -20q-212 0 -344 149t-132 397t132 393q132 146 346 146q214 -1 344 -149t130 -394t-132 -394t-344 -148zM315 1230q-33 0 -53 24t-20 50t34 59t136 99
q100 66 148 65q48 0 134 -61q22 -16 84 -54t78 -56q15 -18 15 -46q-1 -28 -23 -54t-56 -26t-87 39l-147 100l-152 -100q-59 -39 -91 -39z" />
    <glyph glyph-name="otilde" unicode="&#xf5;" horiz-adv-x="1112" 
d="M557 893q-135 0 -212 -97t-77 -268q0 -172 78 -274t210 -102q134 0 211 102t77 272t-76 268q-76 99 -211 99zM556 -20q-212 0 -344 149t-132 397t132 393q132 146 346 146q214 -1 344 -149t130 -394t-132 -394t-344 -148zM688 1236q-70 0 -138 37q-70 37 -106 37t-77 -38
t-65 -38t-46 22t-21 52q-1 52 63 100t135 49q71 0 143 -37t107 -37q34 0 66 36t56 36q73 0 73 -67q0 -52 -60 -102t-130 -50z" />
    <glyph glyph-name="odieresis" unicode="&#xf6;" horiz-adv-x="1112" 
d="M557 893q-135 0 -212 -97t-77 -268q0 -172 78 -274t210 -102q134 0 211 102t77 272t-76 268q-76 99 -211 99zM556 -20q-212 0 -344 149t-132 397t132 393q132 146 346 146q214 -1 344 -149t130 -394t-132 -394t-344 -148zM367 1232q-47 0 -79 33t-32 77t33 78
q33 33 79 33t78 -33q32 -34 32 -78t-32 -77t-79 -33zM749 1232q-45 0 -77 32t-33 78q0 46 33 79q33 32 78 32q45 -1 78 -33t33 -78q1 -46 -33 -78t-79 -32z" />
    <glyph glyph-name="divide" unicode="&#xf7;" horiz-adv-x="1161" 
d="M580 57q-48 0 -80.5 32.5t-32.5 81.5t32.5 81.5t79.5 32.5t81 -33t34 -81t-33 -81t-81 -33zM983 436h-805q-96 0 -96 85t96 85h805q94 0 94 -85t-94 -85zM580 760q-46 0 -79.5 31t-33.5 81t33 81.5t80 31.5t80.5 -32.5t33.5 -80.5t-34 -80t-80 -32z" />
    <glyph glyph-name="oslash" unicode="&#xf8;" horiz-adv-x="1112" 
d="M555 147q140 0 215.5 101.5t75.5 250.5t-43 242l-389 -555q67 -39 141 -39zM555 897q-138 0 -213.5 -101.5t-75.5 -257.5t47 -237l389 557q-70 39 -147 39zM175 -113q-32 0 -57.5 23t-25.5 52t27 63l80 116q-119 148 -119 387t128 388t347 149q141 0 248 -66l71 103
q30 45 62 45t58 -23t26 -49t-23 -61l-82 -113q117 -149 117 -386t-130.5 -386t-346.5 -149q-138 0 -242 63l-61 -90q-45 -66 -77 -66z" />
    <glyph glyph-name="ugrave" unicode="&#xf9;" horiz-adv-x="1139" 
d="M993 70q0 -82 -94 -82t-94 82v82q-105 -172 -313 -172q-162 0 -256 106t-93 283v606q-1 82 93 82t94 -82v-586q0 -109 56 -173t167 -64t181 84t71 233v506q0 82 94 82t94 -82v-905zM705 1312q-1 -34 -21 -58t-54 -24t-75 33l-194 143q-57 42 -57 80t24 63t60 25
q35 0 81 -37l183 -147q53 -44 53 -78z" />
    <glyph glyph-name="uacute" unicode="&#xfa;" horiz-adv-x="1139" 
d="M993 70q0 -82 -94 -82t-94 82v82q-105 -172 -313 -172q-162 0 -256 106t-93 283v606q-1 82 93 82t94 -82v-586q0 -109 56 -173t167 -64t181 84t71 233v506q0 82 94 82t94 -82v-905zM484 1230q-32 0 -52 24t-21 58q0 34 54 78l182 147q45 37 81 37t60 -26t25 -62
q0 -35 -57 -80l-195 -143q-45 -33 -77 -33z" />
    <glyph glyph-name="ucircumflex" unicode="&#xfb;" horiz-adv-x="1139" 
d="M993 70q0 -82 -94 -82t-94 82v82q-105 -172 -313 -172q-162 0 -256 106t-93 283v606q-1 82 93 82t94 -82v-586q0 -109 56 -173t167 -64t181 84t71 233v506q0 82 94 82t94 -82v-905zM329 1230q-33 0 -53 24t-20 50t34 59t136 99q100 66 148 65q48 0 134 -61q22 -16 84 -54
t78 -56q15 -18 15 -46q-1 -28 -23 -54t-56 -26t-87 39l-147 100l-152 -100q-59 -39 -91 -39z" />
    <glyph glyph-name="udieresis" unicode="&#xfc;" horiz-adv-x="1139" 
d="M993 70q0 -82 -94 -82t-94 82v82q-105 -172 -313 -172q-162 0 -256 106t-93 283v606q-1 82 93 82t94 -82v-586q0 -109 56 -173t167 -64t181 84t71 233v506q0 82 94 82t94 -82v-905zM381 1232q-47 0 -79 33t-32 77t33 78q33 33 79 33t78 -33q32 -34 32 -78t-32 -77
t-79 -33zM763 1232q-45 0 -77 32t-33 78q0 46 33 79q33 32 78 32q45 -1 78 -33t33 -78q1 -46 -33 -78t-79 -32z" />
    <glyph glyph-name="yacute" unicode="&#xfd;" horiz-adv-x="997" 
d="M51 981q0 78 99 78q69 0 83 -68q68 -377 256 -788q212 423 289 792q11 64 78 64q44 -1 71 -21t27 -53q0 -109 -150 -495t-353 -655q-204 -269 -383 -269q-30 0 -52 27t-22 67q0 46 76 68q162 44 323 309q-157 283 -249 567t-93 377zM369 1231q-33 0 -53 24t-20 58t54 78
l182 147q46 37 82 37q36 -1 60 -27t24 -61t-57 -80l-195 -143q-45 -33 -77 -33z" />
    <glyph glyph-name="thorn" unicode="&#xfe;" horiz-adv-x="1130" 
d="M334 614v-184q0 -120 70 -199t190 -79t193 100t73 273t-73 270.5t-193 97.5t-190 -78.5t-70 -200.5zM334 -354q0 -78 -94 -78t-93 82v1804q-1 82 93 82t94 -82v-530q90 141 284 141t312.5 -144.5t118.5 -394.5t-116.5 -398t-314.5 -148t-284 153v-487z" />
    <glyph glyph-name="ydieresis" unicode="&#xff;" horiz-adv-x="997" 
d="M51 981q0 78 99 78q69 0 83 -68q68 -377 256 -788q212 423 289 792q11 64 78 64q44 -1 71 -21t27 -53q0 -109 -150 -495t-353 -655q-204 -269 -383 -269q-30 0 -52 27t-22 67q0 46 76 68q162 44 323 309q-157 283 -249 567t-93 377zM307 1233q-47 0 -79 33q-32 34 -32 78
t33 77t79 33t78 -33t32 -77t-32 -78q-32 -33 -79 -33zM689 1233q-45 0 -77 32q-32 33 -33 79q0 46 33 78t78 32t78 -32t33 -78q1 -46 -33 -78t-79 -33z" />
    <glyph glyph-name="Amacron" unicode="&#x100;" horiz-adv-x="1210" 
d="M831 571q-113 367 -219 600q-106 -232 -225 -600h444zM158 -12q-113 0 -113 73q0 61 111 407t229 614q118 270 148 296t83 27h2q44 0 74 -25t144 -292t222 -616t107 -404q0 -80 -112 -80q-58 0 -76 71q-33 141 -92 332h-553q-69 -222 -99 -332q-17 -71 -75 -71zM819 1522
h-411q-101 0 -101 84t101 84h411q59 0 81 -20t22 -64q0 -84 -103 -84z" />
    <glyph glyph-name="amacron" unicode="&#x101;" horiz-adv-x="1130" 
d="M797 612q0 121 -70 201t-192 80q-123 0 -195 -102q-72 -103 -72 -271t71 -268t195 -100t194 80t69 200v180zM510 1065q193 0 287 -145v55q0 82 93 82t93 -82v-905q0 -82 -93 -82t-93 78v75q-89 -161 -289 -161t-314 148t-114 393q0 246 118 395t312 149zM745 1234h-411
q-101 0 -101 84t101 84h411q59 0 81 -20t22 -64q0 -84 -103 -84z" />
    <glyph glyph-name="Abreve" unicode="&#x102;" horiz-adv-x="1210" 
d="M831 571q-113 367 -219 600q-106 -232 -225 -600h444zM158 -12q-113 0 -113 73q0 61 111 407t229 614q118 270 148 296t83 27h2q44 0 74 -25t144 -292t222 -616t107 -404q0 -80 -112 -80q-58 0 -76 71q-33 141 -92 332h-553q-69 -222 -99 -332q-17 -71 -75 -71zM612 1520
q-128 0 -204 74t-77 137q-1 30 23 52t58 22q34 -1 66 -49t58 -68t74 -19q48 0 78 15t61 68t67 53q36 1 60 -21q23 -22 23 -53q0 -63 -79 -137q-80 -74 -208 -74z" />
    <glyph glyph-name="abreve" unicode="&#x103;" horiz-adv-x="1130" 
d="M797 612q0 121 -70 201t-192 80q-123 0 -195 -102q-72 -103 -72 -271t71 -268t195 -100t194 80t69 200v180zM510 1065q193 0 287 -145v55q0 82 93 82t93 -82v-905q0 -82 -93 -82t-93 78v75q-89 -161 -289 -161t-314 148t-114 393q0 246 118 395t312 149zM540 1232
q-128 0 -206 74q-76 74 -76 137q0 30 24 52t56 22q34 -1 66 -49t60 -68q26 -20 73 -19q47 0 77 15t62 68t68 53q36 1 59 -21t23 -53q0 -63 -79 -137t-207 -74z" />
    <glyph glyph-name="Aogonek" unicode="&#x104;" horiz-adv-x="1210" 
d="M831 571q-113 367 -219 600q-106 -232 -225 -600h444zM158 -12q-113 0 -113 73q0 61 114 415.5t230 616t147 287t80 25.5h2q42 0 67 -19.5t111.5 -207.5t149.5 -365.5t141 -435.5t78 -307t-43 -70q-92 -112 -92 -188t66 -76q30 0 66 16t53 17q17 0 35 -16.5t18 -53.5
t-64.5 -67.5t-147.5 -30.5t-134.5 44t-51.5 124q0 112 127 241q-13 18 -33 104t-79 277h-553q-69 -222 -99 -332q-17 -71 -75 -71z" />
    <glyph glyph-name="aogonek" unicode="&#x105;" horiz-adv-x="1130" 
d="M797 612q0 121 -70 201t-192 80t-194.5 -102.5t-72.5 -270.5t71 -268t195 -100t193.5 79.5t69.5 200.5v180zM80 521q0 246 118.5 395t311.5 149t287 -145v55q0 82 93 82t93 -82v-905q0 -39 -25 -68q-96 -110 -96 -188t66 -78q30 0 66 18t50 17q54 0 54 -68
q0 -37 -60 -69.5t-146 -32.5t-138 44t-52 124q0 108 119 235q-24 18 -24 62v75q-89 -161 -289 -161t-314 147.5t-114 393.5z" />
    <glyph glyph-name="Cacute" unicode="&#x106;" horiz-adv-x="1217" 
d="M700 -20q-280 0 -444 190t-164 518t176 526t455 199q177 0 299 -66t121 -133q0 -34 -28 -64t-57 -30t-81 33q-108 82 -258 82q-195 1 -315 -147t-121 -399q0 -251 114 -391t320 -140q146 0 282 102q50 33 80 33q30 1 55 -27t25 -59q0 -73 -142 -150t-317 -77zM638 1518
q-32 0 -52 24t-21 58q0 34 54 78l182 147q45 37 81 37t60 -26t25 -62q0 -35 -57 -80l-195 -143q-45 -33 -77 -33z" />
    <glyph glyph-name="cacute" unicode="&#x107;" horiz-adv-x="987" 
d="M926 879q0 -33 -27 -63t-59 -30t-76 35q-96 72 -216 72t-200 -97q-80 -98 -80 -270t80 -273t199 -101q118 0 219 75q44 31 76 31t58 -28q28 -28 28 -60q0 -58 -109 -124t-266 -66q-209 0 -341 150t-132 394q0 246 135 394t350 147q147 -1 254 -63t107 -123zM470 1230
q-32 0 -52 24t-21 58q0 34 54 78l182 147q45 37 81 37t60 -26t25 -62q0 -35 -57 -80l-195 -143q-45 -33 -77 -33z" />
    <glyph glyph-name="Ccaron" unicode="&#x10c;" horiz-adv-x="1217" 
d="M700 -20q-280 0 -444 190t-164 518t176 526t455 199q177 0 299 -66t121 -133q0 -34 -28 -64t-57 -30t-81 33q-108 82 -258 82q-195 1 -315 -147t-121 -399q0 -251 114 -391t320 -140q146 0 282 102q50 33 80 33q30 1 55 -27t25 -59q0 -73 -142 -150t-317 -77zM966 1813
q30 -1 52 -25t21 -56q0 -32 -56 -70t-130 -92t-126 -54t-139 61q-24 15 -64 39t-77 50q-37 24 -37 59t23 61t55 27q32 0 88 -41l147 -101l152 101q61 41 91 41z" />
    <glyph glyph-name="ccaron" unicode="&#x10d;" horiz-adv-x="987" 
d="M926 879q0 -33 -27 -63t-59 -30t-76 35q-96 72 -216 72t-200 -97q-80 -98 -80 -270t80 -273t199 -101q118 0 219 75q44 31 76 31t58 -28q28 -28 28 -60q0 -58 -109 -124t-266 -66q-209 0 -341 150t-132 394q0 246 135 394t350 147q147 -1 254 -63t107 -123zM798 1525
q30 -1 52 -25t21 -56q0 -32 -56 -70t-130 -92t-126 -54t-139 61q-24 15 -64 39t-77 50q-37 24 -37 59t23 61t55 27q32 0 88 -41l147 -101l152 101q61 41 91 41z" />
    <glyph glyph-name="Dcaron" unicode="&#x10e;" horiz-adv-x="1354" 
d="M397 1212q-32 0 -32 -34v-967q0 -31 28 -31h217q220 0 340 142t121 384t-115 372t-329 134h-230zM616 0h-276q-166 0 -166 158v1065q0 170 172 170h270q302 1 474 -183t172 -498t-172 -513t-474 -199zM864 1813q30 -1 50 -25q22 -24 22 -56t-56 -70t-130 -92t-126 -54
t-139 61q-23 15 -63 39t-78 50q-37 24 -37 59t23 61q22 26 54 27q32 0 89 -41l147 -101l152 101q62 41 92 41z" />
    <glyph glyph-name="dcaron" unicode="&#x10f;" horiz-adv-x="1272" 
d="M797 612q0 121 -70 201t-189 80q-118 0 -194 -102t-76 -272q0 -171 72 -269t196 -98q122 0 192 81t69 199v180zM983 70q0 -82 -93 -82t-93 78v65q-87 -151 -285 -151t-316 145q-116 145 -116 393t120 398t314 149q194 0 283 -145v534q0 82 93 82t93 -82v-1384zM1176 1165
q-36 1 -58 21t-22 46t14 59q14 34 15 70q0 35 -2 79q-4 96 94 96q88 0 88 -102q1 -102 -35 -186q-36 -83 -94 -83z" />
    <glyph glyph-name="Dcroat" unicode="&#x110;" horiz-adv-x="1354" 
d="M365 637v-426q0 -31 28 -31h217q220 0 340 142t121 386q0 244 -120 374t-341 130h-213q-32 0 -32 -34v-371h266q52 0 74 -18t22 -66q0 -86 -96 -86h-266zM174 637h-74q-46 0 -69 16q-23 15 -23 67t22 70t70 17h74v416q0 170 172 170h270q302 1 474 -183t172 -498
t-172 -513t-474 -199h-276q-166 0 -166 158v479z" />
    <glyph glyph-name="dcroat" unicode="&#x111;" horiz-adv-x="1130" 
d="M797 612q0 121 -70 201t-189 80t-194.5 -102t-75.5 -272t73 -268.5t195 -98.5t191.5 81t69.5 199v180zM983 70q0 -82 -93 -82t-93 78v65q-87 -151 -285 -151t-315 145t-117 393t120 397.5t314 149.5t283 -145v266h-260q-93 0 -93 86t93 86h260v96q0 82 93 82t93 -82v-96
h39q71 0 97 -16.5t26 -69.5q0 -86 -92 -86h-70v-1116z" />
    <glyph glyph-name="Emacron" unicode="&#x112;" horiz-adv-x="1059" 
d="M174 1217q0 176 178 176h525q57 0 79 -20t21 -68q0 -93 -100 -93h-478q-34 0 -34 -38v-359h446q100 0 100 -90q0 -48 -22 -69t-78 -21h-446v-424q0 -31 28 -31h481q103 0 103 -90t-103 -90h-534q-78 0 -122 41t-44 117v1059zM786 1522h-411q-101 0 -101 84t101 84h411
q58 0 80 -20t23 -64q0 -84 -103 -84z" />
    <glyph glyph-name="emacron" unicode="&#x113;" horiz-adv-x="1053" 
d="M550 893q-108 0 -182 -72t-89 -200h514q-7 126 -71 199t-172 73zM566 152q122 0 208 59q51 33 81 33q29 0 55 -29t26 -59q0 -68 -120 -122t-251 -54q-225 0 -354 145t-129 389t126 398q126 153 334 153q208 -1 323 -129q116 -128 116 -342q0 -139 -117 -139h-590
q12 -143 91 -223t201 -80zM745 1234h-411q-101 0 -101 84t101 84h411q59 0 81 -20t22 -64q0 -84 -103 -84z" />
    <glyph glyph-name="Ebreve" unicode="&#x114;" horiz-adv-x="1059" 
d="M174 1217q0 176 178 176h525q57 0 79 -20t21 -68q0 -93 -100 -93h-478q-34 0 -34 -38v-359h446q100 0 100 -90q0 -48 -22 -69t-78 -21h-446v-424q0 -31 28 -31h481q103 0 103 -90t-103 -90h-534q-78 0 -122 41t-44 117v1059zM580 1520q-128 0 -204 74t-77 137
q-1 30 23 52t58 22q34 -1 66 -49t58 -68t74 -19q48 0 78 15t61 68t67 53q36 1 60 -21q23 -22 23 -53q0 -63 -79 -137q-80 -74 -208 -74z" />
    <glyph glyph-name="ebreve" unicode="&#x115;" horiz-adv-x="1053" 
d="M550 893q-108 0 -182 -72t-89 -200h514q-7 126 -71 199t-172 73zM566 152q122 0 208 59q51 33 81 33q29 0 55 -29t26 -59q0 -68 -120 -122t-251 -54q-225 0 -354 145t-129 389t126 398q126 153 334 153q208 -1 323 -129q116 -128 116 -342q0 -139 -117 -139h-590
q12 -143 91 -223t201 -80zM544 1232q-128 0 -206 74q-76 74 -76 137q0 30 24 52t56 22q34 -1 66 -49t60 -68q26 -20 73 -19q47 0 77 15t62 68t68 53q36 1 59 -21t23 -53q0 -63 -79 -137t-207 -74z" />
    <glyph glyph-name="Edotaccent" unicode="&#x116;" horiz-adv-x="1059" 
d="M174 1217q0 176 178 176h525q57 0 79 -20t21 -68q0 -93 -100 -93h-478q-34 0 -34 -38v-359h446q100 0 100 -90q0 -48 -22 -69t-78 -21h-446v-424q0 -31 28 -31h481q103 0 103 -90t-103 -90h-534q-78 0 -122 41t-44 117v1059zM579 1518q-52 0 -88 36t-36 89t37 89t87 36
t88 -36t38 -89t-37 -89t-89 -36z" />
    <glyph glyph-name="edotaccent" unicode="&#x117;" horiz-adv-x="1053" 
d="M550 893q-108 0 -182 -72t-89 -200h514q-7 126 -71 199t-172 73zM566 152q122 0 208 59q51 33 81 33q29 0 55 -29t26 -59q0 -68 -120 -122t-251 -54q-225 0 -354 145t-129 389t126 398q126 153 334 153q208 -1 323 -129q116 -128 116 -342q0 -139 -117 -139h-590
q12 -143 91 -223t201 -80zM542 1230q-52 0 -88 36t-36 89t37 89t87 36t88 -36t38 -89t-37 -89t-89 -36z" />
    <glyph glyph-name="Eogonek" unicode="&#x118;" horiz-adv-x="1059" 
d="M340 0q-77 0 -121.5 41t-44.5 117v1059q0 176 178 176h525q57 0 78.5 -20t21.5 -68q0 -93 -100 -93h-478q-34 0 -34 -38v-359h446q100 0 100 -90q0 -48 -22 -69t-78 -21h-446v-424q0 -31 28 -31h481q103 0 103 -90t-103 -90h-26q-90 -112 -90 -188t65 -76q32 0 66 16
q33 16 51 17q18 0 34.5 -16.5t16.5 -45.5q0 -49 -63.5 -77.5t-145.5 -28.5t-134 44.5t-52 123.5q0 109 115 231h-371z" />
    <glyph glyph-name="eogonek" unicode="&#x119;" horiz-adv-x="1053" 
d="M550 893q-108 0 -182 -72t-89 -200h514q-6 126 -70.5 199t-172.5 73zM82 516q0 244 126 396.5t334 152.5t323.5 -128.5t115.5 -342.5q0 -139 -117 -139h-590q12 -142 91 -222.5t201 -80.5t208 59q51 33 81 33t55.5 -29t25.5 -66t-65.5 -84.5t-157.5 -68.5
q-88 -112 -88 -186t65 -74q32 0 66 16t52 17q18 0 36 -16.5t18 -54.5t-65 -67.5t-147 -29.5t-133.5 44t-51.5 134t96 201q-227 3 -353 147.5t-126 388.5z" />
    <glyph glyph-name="Ecaron" unicode="&#x11a;" horiz-adv-x="1059" 
d="M174 1217q0 176 178 176h525q57 0 79 -20t21 -68q0 -93 -100 -93h-478q-34 0 -34 -38v-359h446q100 0 100 -90q0 -48 -22 -69t-78 -21h-446v-424q0 -31 28 -31h481q103 0 103 -90t-103 -90h-534q-78 0 -122 41t-44 117v1059zM822 1813q30 -1 52 -25t21 -56q0 -32 -56 -70
t-130 -92t-126 -54t-139 61q-24 15 -64 39t-77 50q-37 24 -37 59t23 61t55 27q32 0 88 -41l147 -101l152 101q61 41 91 41z" />
    <glyph glyph-name="ecaron" unicode="&#x11b;" horiz-adv-x="1053" 
d="M550 893q-108 0 -182 -72t-89 -200h514q-7 126 -71 199t-172 73zM566 152q122 0 208 59q51 33 81 33q29 0 55 -29t26 -59q0 -68 -120 -122t-251 -54q-225 0 -354 145t-129 389t126 398q126 153 334 153q208 -1 323 -129q116 -128 116 -342q0 -139 -117 -139h-590
q12 -143 91 -223t201 -80zM786 1525q30 -1 50 -25q22 -24 22 -56t-56 -70t-130 -92t-126 -54t-139 61q-23 15 -63 39t-78 50q-37 24 -37 59t23 61q22 26 54 27q32 0 89 -41l147 -101l152 101q62 41 92 41z" />
    <glyph glyph-name="Gbreve" unicode="&#x11e;" horiz-adv-x="1339" 
d="M1104 756q92 0 92 -88v-426q0 -128 -138 -195t-339 -67q-285 0 -456 190t-171 520t184 527q184 196 461 196q165 1 301 -59t136 -125q0 -35 -26 -67t-56 -32t-94 35q-129 70 -259 70q-199 -1 -327 -147t-129 -396q0 -250 121 -392t335 -142q117 0 192 29t75 85v306h-261
q-86 0 -86 89t89 89h356zM746 1520q-128 0 -204 74t-77 137q-1 30 23 52t58 22q34 -1 66 -49t58 -68t74 -19q48 0 78 15t61 68t67 53q36 1 60 -21q23 -22 23 -53q0 -63 -79 -137q-80 -74 -208 -74z" />
    <glyph glyph-name="gbreve" unicode="&#x11f;" horiz-adv-x="1130" 
d="M797 612q0 121 -70 201t-190 80q-121 -1 -195 -99t-74 -270t73 -272t195 -100t192 80q69 80 69 200v180zM508 1065q190 0 289 -145v55q0 82 93 82t93 -82v-881q-1 -256 -127 -391t-358 -135q-141 0 -247 52t-106 112q-1 40 25 68t55 28t109 -44t172 -44q144 0 216 80
t75 286v35q-91 -161 -289 -161q-196 0 -312 146t-116 396q0 249 119 396t309 147zM540 1232q-128 0 -206 74q-76 74 -76 137q0 30 24 52t56 22q34 -1 66 -49t60 -68q26 -20 73 -19q47 0 77 15t62 68t68 53q36 1 59 -21t23 -53q0 -63 -79 -137t-207 -74z" />
    <glyph glyph-name="Gcommaaccent" unicode="&#x122;" horiz-adv-x="1339" 
d="M1104 756q92 0 92 -88v-426q0 -128 -138 -195t-339 -67q-285 0 -456 190t-171 520t184 527q184 196 461 196q165 1 301 -59t136 -125q0 -35 -26 -67t-56 -32t-94 35q-129 70 -259 70q-199 -1 -327 -147t-129 -396q0 -250 121 -392t335 -142q117 0 192 29t75 85v306h-261
q-86 0 -86 89t89 89h356zM660 -471q-38 1 -60 21t-22 41t5 33q23 63 23 175q0 90 92 90t91 -101q0 -101 -35 -180t-94 -79z" />
    <glyph glyph-name="gcommaaccent" unicode="&#x123;" horiz-adv-x="1130" 
d="M797 612q0 121 -70 201t-190 80q-121 -1 -195 -99t-74 -270t73 -272t195 -100t192 80q69 80 69 200v180zM508 1065q190 0 289 -145v55q0 82 93 82t93 -82v-881q-1 -256 -127 -391t-358 -135q-141 0 -247 52t-106 112q-1 40 25 68t55 28t109 -44t172 -44q144 0 216 80
t75 286v35q-91 -161 -289 -161q-196 0 -312 146t-116 396q0 249 119 396t309 147zM553 1536q37 0 59 -20t23 -42q0 -21 -4 -33q-25 -65 -25 -175q0 -90 -91 -90t-91 101t35 180t94 79z" />
    <glyph glyph-name="Imacron" unicode="&#x12a;" horiz-adv-x="539" 
d="M365 74q1 -86 -95 -86t-96 86v1247q0 84 96 84t95 -84v-1247zM470 1522h-411q-101 0 -101 84t101 84h411q58 0 80 -20t23 -64q0 -84 -103 -84z" />
    <glyph glyph-name="imacron" unicode="&#x12b;" horiz-adv-x="479" 
d="M334 70q0 -82 -94 -82t-93 82v907q-1 80 93 80t94 -80v-907zM441 1234h-411q-101 0 -101 84t101 84h411q59 0 81 -20t22 -64q0 -84 -103 -84z" />
    <glyph glyph-name="Iogonek" unicode="&#x12e;" horiz-adv-x="539" 
d="M432 -229q53 0 53 -68q0 -40 -65 -71t-146 -31t-132.5 44.5t-51.5 123.5q0 118 113 235q-29 18 -29 70v1247q0 84 96 84t95 -84v-1247q0 -39 -25 -68q-90 -105 -90 -199q0 -71 65 -71q47 0 75 18t42 17z" />
    <glyph glyph-name="iogonek" unicode="&#x12f;" horiz-adv-x="479" 
d="M397 -229q54 0 54 -68q0 -39 -62.5 -70.5t-146.5 -31.5t-135.5 44.5t-51.5 123.5q0 120 113 237q-21 18 -21 64v907q-1 80 93 80t94 -80v-907q0 -38 -32 -70t-59.5 -93t-27.5 -100q0 -71 66 -71q44 0 73 18t43 17zM240 1253q-44 0 -76.5 32t-32.5 78t32.5 79t76.5 33
t77 -33.5t33 -78.5t-33 -77.5t-77 -32.5z" />
    <glyph glyph-name="Idotaccent" unicode="&#x130;" horiz-adv-x="539" 
d="M365 74q1 -86 -95 -86t-96 86v1247q0 84 96 84t95 -84v-1247zM269 1518q-52 0 -88 36t-36 89t37 89t87 36t88 -36t38 -89t-37 -89t-89 -36z" />
    <glyph glyph-name="dotlessi" unicode="&#x131;" horiz-adv-x="479" 
d="M334 70q0 -82 -94 -82t-93 82v907q-1 80 93 80t94 -80v-907z" />
    <glyph glyph-name="Kcommaaccent" unicode="&#x136;" horiz-adv-x="1171" 
d="M365 74q1 -86 -95 -86t-96 86v1247q0 84 96 84t95 -84v-543q299 236 526 586q30 43 72 43q42 1 75 -27t33 -63q1 -55 -171 -257t-277 -290q170 -175 292 -340q222 -300 222 -356q0 -36 -34 -62q-35 -26 -75 -26t-74 49q-257 398 -473 610l-116 -90v-481zM603 -471
q-38 1 -60 21t-22 41t5 33q23 63 23 175q-1 90 91 90t92 -101t-35 -180t-94 -79z" />
    <glyph glyph-name="kcommaaccent" unicode="&#x137;" horiz-adv-x="985" 
d="M784 1059q40 1 69 -25q30 -26 30 -55q0 -93 -310 -381q121 -114 244 -288t123 -238q0 -34 -28 -60t-74 -26q-47 0 -78 57q-152 283 -330 451q-13 -11 -96 -70v-352q0 -84 -94 -84t-93 84v1384q-1 80 93 80t94 -80v-842q212 168 377 402q33 43 73 43zM504 -471
q-38 1 -60 21t-22 41t5 33q23 63 23 175q0 90 92 90t91 -101q0 -101 -35 -180t-94 -79z" />
    <glyph glyph-name="Lacute" unicode="&#x139;" horiz-adv-x="983" 
d="M852 0h-510q-76 0 -122 41t-46 117v1157q0 90 96 90t95 -90v-1102q0 -33 28 -33h459q58 0 80 -22t22 -68t-22 -68t-80 -22zM183 1518q-33 0 -53 24t-20 58t54 78l182 147q46 37 82 37t60 -26t24 -62q0 -35 -57 -80l-195 -143q-45 -33 -77 -33z" />
    <glyph glyph-name="lacute" unicode="&#x13a;" horiz-adv-x="479" 
d="M334 70q0 -82 -94 -82t-93 82v1386q-1 80 93 80t94 -80v-1386zM147 1587q-33 0 -53 24t-20 58t54 78l182 147q46 37 82 37q36 -1 60 -27t24 -61t-57 -80l-195 -143q-45 -33 -77 -33z" />
    <glyph glyph-name="Lcommaaccent" unicode="&#x13b;" horiz-adv-x="983" 
d="M852 0h-510q-76 0 -122 41t-46 117v1157q0 90 96 90t95 -90v-1102q0 -33 28 -33h459q58 0 80 -22t22 -68t-22 -68t-80 -22zM533 -471q-38 1 -60 21t-22 41t5 33q23 63 23 175q-1 90 91 90t92 -101t-35 -180t-94 -79z" />
    <glyph glyph-name="lcommaaccent" unicode="&#x13c;" horiz-adv-x="479" 
d="M334 70q0 -82 -94 -82t-93 82v1386q-1 80 93 80t94 -80v-1386zM219 -471q-38 1 -60 21t-22 41t5 33q23 63 23 175q-1 90 91 90t92 -101t-35 -180t-94 -79z" />
    <glyph glyph-name="Lcaron" unicode="&#x13d;" horiz-adv-x="983" 
d="M852 0h-510q-76 0 -122 41t-46 117v1157q0 90 96 90t95 -90v-1102q0 -33 28 -33h459q58 0 80 -22t22 -68t-22 -68t-80 -22zM723 1034q-37 0 -59 20t-21 46t15 60t14 70t-2 80q-4 96 94 95q88 -1 88 -103t-36 -185t-93 -83z" />
    <glyph glyph-name="lcaron" unicode="&#x13e;" horiz-adv-x="614" 
d="M334 70q0 -82 -94 -82t-93 82v1386q-1 80 93 80t94 -80v-1386zM518 1164q-36 0 -58 20t-22 46t14 60t15 70q0 36 -2 80q-4 96 94 95q88 -1 88 -103q1 -102 -35 -185t-94 -83z" />
    <glyph glyph-name="Lslash" unicode="&#x141;" horiz-adv-x="983" 
d="M57 485q-28 0 -49.5 27.5t-21.5 69.5t57 71l131 72v590q0 90 96 90t95 -90v-490l198 109q36 20 63 20t49.5 -30t22.5 -68t-63 -72l-270 -147v-424q0 -33 28 -33h459q59 0 80.5 -21.5t21.5 -71.5t-25 -68.5t-77 -18.5h-512q-77 0 -121.5 41t-44.5 117v377l-55 -31
q-34 -19 -62 -19z" />
    <glyph glyph-name="lslash" unicode="&#x142;" horiz-adv-x="510" 
d="M348 70q0 -82 -93 -82t-93 82v557l-35 -19q-31 -19 -50 -29t-47 -10t-49.5 27t-21.5 70t57 71l146 78v641q0 80 93 80t93 -80v-543l78 43q34 19 59 19t48.5 -32.5t23.5 -60.5t-18 -47.5t-191 -109.5v-655z" />
    <glyph glyph-name="Nacute" unicode="&#x143;" horiz-adv-x="1389" 
d="M1214 100q0 -112 -116 -112q-71 0 -113 69l-629 1053v-1038q0 -84 -91 -84t-91 84v1200q0 133 123 133q73 0 117 -70l618 -1044v1028q0 86 91 86t91 -86v-1219zM609 1518q-33 0 -53 24t-20 58t54 78l182 147q46 37 82 37t60 -26t24 -62q0 -35 -57 -80l-195 -143
q-45 -33 -77 -33z" />
    <glyph glyph-name="nacute" unicode="&#x144;" horiz-adv-x="1139" 
d="M645 1065q167 0 259 -103t93 -278v-614q0 -82 -94 -82t-94 82v577q0 242 -211 242q-120 1 -192 -83t-72 -237v-499q0 -82 -94 -82t-93 82v907q-1 80 93 80t94 -80v-84q108 172 311 172zM511 1230q-33 0 -53 24t-20 58t54 78l182 147q46 37 82 37t60 -26t24 -62
q0 -35 -57 -80l-195 -143q-45 -33 -77 -33z" />
    <glyph glyph-name="Ncommaaccent" unicode="&#x145;" horiz-adv-x="1389" 
d="M1214 100q0 -112 -116 -112q-71 0 -113 69l-629 1053v-1038q0 -84 -91 -84t-91 84v1200q0 133 123 133q73 0 117 -70l618 -1044v1028q0 86 91 86t91 -86v-1219zM664 -471q-38 1 -60 21t-22 41t5 33q23 63 23 175q0 90 92 90t91 -101q0 -101 -35 -180t-94 -79z" />
    <glyph glyph-name="ncommaaccent" unicode="&#x146;" horiz-adv-x="1139" 
d="M645 1065q167 0 259 -103t93 -278v-614q0 -82 -94 -82t-94 82v577q0 242 -211 242q-120 1 -192 -83t-72 -237v-499q0 -82 -94 -82t-93 82v907q-1 80 93 80t94 -80v-84q108 172 311 172zM545 -471q-38 1 -60 21t-22 41t5 33q23 63 23 175q-1 90 91 90t92 -101t-35 -180
t-94 -79z" />
    <glyph glyph-name="Ncaron" unicode="&#x147;" horiz-adv-x="1389" 
d="M1214 100q0 -112 -116 -112q-71 0 -113 69l-629 1053v-1038q0 -84 -91 -84t-91 84v1200q0 133 123 133q73 0 117 -70l618 -1044v1028q0 86 91 86t91 -86v-1219zM938 1813q30 -1 50 -25q22 -24 22 -56t-56 -70t-130 -92t-126 -54t-139 61q-23 15 -63 39t-78 50
q-37 24 -37 59t23 61q22 26 54 27q32 0 89 -41l147 -101l152 101q62 41 92 41z" />
    <glyph glyph-name="ncaron" unicode="&#x148;" horiz-adv-x="1139" 
d="M645 1065q167 0 259 -103t93 -278v-614q0 -82 -94 -82t-94 82v577q0 242 -211 242q-120 1 -192 -83t-72 -237v-499q0 -82 -94 -82t-93 82v907q-1 80 93 80t94 -80v-84q108 172 311 172zM840 1525q30 -1 50 -25q22 -24 22 -56t-56 -70t-130 -92t-126 -54t-139 61
q-23 15 -63 39t-78 50q-37 24 -37 59t23 61q22 26 54 27q32 0 89 -41l147 -101l152 101q62 41 92 41z" />
    <glyph glyph-name="Omacron" unicode="&#x14c;" horiz-adv-x="1399" 
d="M702 1235q-193 0 -306 -154t-113 -382q0 -229 112 -385t307 -156q194 0 304 156t110 385q0 228 -110 382t-304 154zM702 -20q-282 0 -446 204t-164 516q0 313 166 513t445 200q280 -1 442 -203t162 -512t-162 -514t-443 -204zM905 1522h-411q-101 0 -101 84t101 84h411
q59 0 81 -20t22 -64q0 -84 -103 -84z" />
    <glyph glyph-name="omacron" unicode="&#x14d;" horiz-adv-x="1112" 
d="M557 893q-135 0 -212 -97t-77 -268q0 -172 78 -274t210 -102q134 0 211 102t77 272t-76 268q-76 99 -211 99zM556 -20q-212 0 -344 149t-132 397t132 393q132 146 346 146q214 -1 344 -149t130 -394t-132 -394t-344 -148zM759 1234h-411q-101 0 -101 84t101 84h411
q59 0 81 -20t22 -64q0 -84 -103 -84z" />
    <glyph glyph-name="Obreve" unicode="&#x14e;" horiz-adv-x="1399" 
d="M702 1235q-193 0 -306 -154t-113 -382q0 -229 112 -385t307 -156q194 0 304 156t110 385q0 228 -110 382t-304 154zM702 -20q-282 0 -446 204t-164 516q0 313 166 513t445 200q280 -1 442 -203t162 -512t-162 -514t-443 -204zM698 1520q-128 0 -204 74t-77 137
q-1 30 23 52t58 22q34 -1 66 -49t58 -68t74 -19q48 0 78 15t61 68t67 53q36 1 60 -21q23 -22 23 -53q0 -63 -79 -137q-80 -74 -208 -74z" />
    <glyph glyph-name="obreve" unicode="&#x14f;" horiz-adv-x="1112" 
d="M557 893q-135 0 -212 -97t-77 -268q0 -172 78 -274t210 -102q134 0 211 102t77 272t-76 268q-76 99 -211 99zM556 -20q-212 0 -344 149t-132 397t132 393q132 146 346 146q214 -1 344 -149t130 -394t-132 -394t-344 -148zM554 1232q-128 0 -206 74q-76 74 -76 137
q0 30 24 52t56 22q34 -1 66 -49t60 -68q26 -20 73 -19q47 0 77 15t62 68t68 53q36 1 59 -21t23 -53q0 -63 -79 -137t-207 -74z" />
    <glyph glyph-name="Ohungarumlaut" unicode="&#x150;" horiz-adv-x="1399" 
d="M702 1235q-193 0 -306 -154t-113 -382q0 -229 112 -385t307 -156q194 0 304 156t110 385q0 228 -110 382t-304 154zM702 -20q-282 0 -446 204t-164 516q0 313 166 513t445 200q280 -1 442 -203t162 -512t-162 -514t-443 -204zM539 1516q-34 0 -57 22t-23 55q0 34 62 109
l97 120q34 44 69 44t61 -24t26 -56t-100 -151t-135 -119zM1112 1788q0 -28 -18 -56t-80 -102q-63 -74 -89 -94t-54 -20t-51 22t-23 51q-1 30 11 49t84 109q72 91 92 105t48 14t54 -26q26 -24 26 -52z" />
    <glyph glyph-name="ohungarumlaut" unicode="&#x151;" horiz-adv-x="1112" 
d="M557 893q-135 0 -212 -97t-77 -268q0 -172 78 -274t210 -102q134 0 211 102t77 272t-76 268q-76 99 -211 99zM556 -20q-212 0 -344 149t-132 397t132 393q132 146 346 146q214 -1 344 -149t130 -394t-132 -394t-344 -148zM393 1228q-34 0 -57 22t-23 55q0 34 62 109
l97 120q34 44 69 44t61 -24t26 -56t-100 -151t-135 -119zM966 1500q0 -28 -18 -56t-80 -102q-63 -74 -89 -94t-54 -20t-51 22t-23 51q-1 30 11 49t84 109q72 91 92 105t48 14t54 -26q26 -24 26 -52z" />
    <glyph glyph-name="OE" unicode="&#x152;" horiz-adv-x="1911" 
d="M1026 461v463q0 126 -98.5 218.5t-245.5 92.5q-185 0 -292 -150t-107 -389t108.5 -388.5t290.5 -149.5q153 0 248.5 94.5t95.5 208.5zM654 -20q-256 0 -409 202t-153 517t156.5 514.5t407.5 199.5t374 -164q20 144 172 144h527q57 0 78.5 -20t21.5 -68q0 -93 -100 -93
h-478q-34 0 -34 -38v-359h446q100 0 100 -90q0 -48 -22 -69t-78 -21h-446v-424q0 -31 28 -31h481q103 0 103 -90t-103 -90h-536q-152 0 -162 150q-118 -170 -374 -170z" />
    <glyph glyph-name="oe" unicode="&#x153;" horiz-adv-x="1792" 
d="M1290 893q-108 0 -182.5 -72t-89.5 -200h514q-3 123 -68.5 197.5t-173.5 74.5zM548 893q-134 0 -207 -100.5t-73 -267.5t74.5 -270t205.5 -103t205 100.5t74 273.5t-72.5 270t-206.5 97zM1298 152q114 0 192 46t105 46q28 0 54 -29t26 -59q0 -62 -117 -119t-253 -57
q-263 0 -387 202q-125 -202 -369 -202q-212 0 -340.5 150t-128.5 395t127.5 392.5t341.5 147.5q248 0 373 -205q129 205 372 205q194 0 310 -128.5t116 -342.5q0 -139 -116 -139h-590q12 -142 91 -222.5t193 -80.5z" />
    <glyph glyph-name="Racute" unicode="&#x154;" horiz-adv-x="1169" 
d="M365 774h215q140 0 210 60t70 167q0 218 -268 218h-193q-34 0 -34 -39v-406zM365 596v-524q1 -84 -95 -84t-96 84v1145q0 176 178 176h240q459 0 459 -379q-1 -136 -89 -238t-239 -127q145 -57 258 -299t113 -280q0 -36 -32 -61t-84 -25q-51 0 -73 51q-115 301 -217 431
t-237 130h-86zM492 1518q-32 0 -52 24t-21 58q0 34 54 78l182 147q45 37 81 37t60 -26t25 -62q0 -35 -57 -80l-195 -143q-45 -33 -77 -33z" />
    <glyph glyph-name="racute" unicode="&#x155;" horiz-adv-x="758" 
d="M578 1065q165 0 165 -92q1 -47 -21 -75t-47 -28t-53 10t-59 9q-105 -1 -167 -81t-62 -218v-518q0 -84 -94 -84t-93 84v905q-1 80 93 80t94 -80v-64q79 152 244 152zM372 1230q-32 0 -52 24t-21 58q0 34 54 78l182 147q45 37 81 37t60 -26t25 -62q0 -35 -57 -80l-195 -143
q-45 -33 -77 -33z" />
    <glyph glyph-name="Rcommaaccent" unicode="&#x156;" horiz-adv-x="1169" 
d="M365 774h215q140 0 210 60t70 167q0 218 -268 218h-193q-34 0 -34 -39v-406zM365 596v-524q1 -84 -95 -84t-96 84v1145q0 176 178 176h240q459 0 459 -379q-1 -136 -89 -238t-239 -127q145 -57 258 -299t113 -280q0 -36 -32 -61t-84 -25q-51 0 -73 51q-115 301 -217 431
t-237 130h-86zM562 -471q-38 1 -60 21t-22 41t5 33q23 63 23 175q0 90 92 90t91 -101q0 -101 -35 -180t-94 -79z" />
    <glyph glyph-name="rcommaaccent" unicode="&#x157;" horiz-adv-x="758" 
d="M578 1065q165 0 165 -92q1 -47 -21 -75t-47 -28t-53 10t-59 9q-105 -1 -167 -81t-62 -218v-518q0 -84 -94 -84t-93 84v905q-1 80 93 80t94 -80v-64q79 152 244 152zM214 -471q-38 1 -60 21t-22 41t5 33q23 63 23 175q0 90 92 90t91 -101q0 -101 -35 -180t-94 -79z" />
    <glyph glyph-name="Rcaron" unicode="&#x158;" horiz-adv-x="1169" 
d="M365 774h215q140 0 210 60t70 167q0 218 -268 218h-193q-34 0 -34 -39v-406zM365 596v-524q1 -84 -95 -84t-96 84v1145q0 176 178 176h240q459 0 459 -379q-1 -136 -89 -238t-239 -127q145 -57 258 -299t113 -280q0 -36 -32 -61t-84 -25q-51 0 -73 51q-115 301 -217 431
t-237 130h-86zM820 1813q30 -1 52 -25t21 -56q0 -32 -56 -70t-130 -92t-126 -54t-139 61q-24 15 -64 39t-77 50q-37 24 -37 59t23 61t55 27q32 0 88 -41l147 -101l152 101q61 41 91 41z" />
    <glyph glyph-name="rcaron" unicode="&#x159;" horiz-adv-x="758" 
d="M578 1065q165 0 165 -92q1 -47 -21 -75t-47 -28t-53 10t-59 9q-105 -1 -167 -81t-62 -218v-518q0 -84 -94 -84t-93 84v905q-1 80 93 80t94 -80v-64q79 152 244 152zM700 1525q30 -1 50 -25q22 -24 22 -56t-56 -70t-130 -92t-126 -54t-139 61q-23 15 -63 39t-78 50
q-37 24 -37 59t23 61q22 26 54 27q32 0 89 -41l147 -101l152 101q62 41 92 41z" />
    <glyph glyph-name="Sacute" unicode="&#x15a;" horiz-adv-x="1038" 
d="M524 -20q-184 0 -316 68t-132 136q0 39 27 70t59 31t76 -35q126 -92 257 -92t199 58t68 160q0 100 -66 154t-240 108q-174 52 -266 132q-90 80 -90 254q0 175 121 282t290 107t296 -65t127 -142q0 -38 -26 -68t-56 -30q-28 0 -100 47q-120 80 -227 80t-171 -56t-63 -152
q1 -97 63 -141t189 -83q215 -63 312 -159t97 -269q0 -175 -122 -285t-306 -110zM437 1518q-33 0 -53 24t-20 58t54 78l182 147q46 37 82 37t60 -26t24 -62q0 -35 -57 -80l-195 -143q-45 -33 -77 -33z" />
    <glyph glyph-name="sacute" unicode="&#x15b;" horiz-adv-x="920" 
d="M464 -20q-158 0 -272 54q-116 54 -116 126q0 34 25 64t54 30t70 -29q111 -73 215 -73t156 36t51 93q0 57 -43 89t-164 60q-208 48 -280 124t-72 206t108 218t260 87t256 -55q103 -54 103 -113q1 -37 -25 -65t-58 -29q-32 0 -75 28q-89 62 -185 62t-146 -39
q-50 -40 -50 -100t50 -94t216 -71t230 -109t64 -196t-107 -214t-265 -90zM380 1230q-32 0 -52 24t-21 58q0 34 54 78l182 147q45 37 81 37t60 -26t25 -62q0 -35 -57 -80l-195 -143q-45 -33 -77 -33z" />
    <glyph glyph-name="Scedilla" unicode="&#x15e;" horiz-adv-x="1038" 
d="M557 -82q148 0 148 -147q0 -84 -58.5 -138.5t-150.5 -54.5t-135.5 23.5t-43.5 54.5q0 63 54 63q16 0 52 -11t62 -11q78 -1 78 63q1 64 -67 64t-93.5 1.5t-25.5 30.5t20 62l39 66q-160 18 -260 80.5t-100 119.5q0 39 27 70t59 31t76 -35q126 -92 257 -92t199 59t68 159
t-66 155t-240 107t-265 131.5t-91 254.5t121 282t290 107t296 -65t127 -142q0 -37 -27 -67.5t-55 -30.5t-100 47q-120 80 -227 80t-170.5 -56t-63.5 -154t63.5 -141.5t188.5 -80.5q216 -66 312.5 -160.5t96.5 -262.5t-110.5 -277.5t-300.5 -120.5l-35 -68q19 4 51 4z" />
    <glyph glyph-name="scedilla" unicode="&#x15f;" horiz-adv-x="920" 
d="M520 -82q148 0 148 -147q0 -84 -58.5 -138.5t-150.5 -54.5t-135 23.5t-43 54.5q0 63 53 63q19 0 55 -11t60 -11q77 -1 77 63t-76 64t-93 5.5t-17 30.5t20 58l37 64q-130 10 -225.5 62t-95.5 116q0 33 25 63.5t54 30.5t70 -29q111 -73 215 -73t155.5 35.5t51.5 93.5
t-43 89.5t-164 59.5q-209 47 -280.5 123.5t-71.5 206.5t108 217.5t260 87.5t255.5 -54.5t103.5 -113.5q0 -37 -25.5 -65.5t-57.5 -28.5t-75 28q-89 62 -185 62t-146 -39.5t-50 -99.5t50 -94t216 -71t230 -109t64 -189t-88 -204.5t-242 -102.5l-37 -70q19 4 51 4z" />
    <glyph glyph-name="Scaron" unicode="&#x160;" horiz-adv-x="1038" 
d="M524 -20q-184 0 -316 68t-132 136q0 39 27 70t59 31t76 -35q126 -92 257 -92t199 58t68 160q0 100 -66 154t-240 108q-174 52 -266 132q-90 80 -90 254q0 175 121 282t290 107t296 -65t127 -142q0 -38 -26 -68t-56 -30q-28 0 -100 47q-120 80 -227 80t-171 -56t-63 -152
q1 -97 63 -141t189 -83q215 -63 312 -159t97 -269q0 -175 -122 -285t-306 -110zM766 1813q30 -1 50 -25q22 -24 22 -56t-56 -70t-130 -92t-126 -54t-139 61q-23 15 -63 39t-78 50q-37 24 -37 59t23 61q22 26 54 27q32 0 89 -41l147 -101l152 101q62 41 92 41z" />
    <glyph glyph-name="scaron" unicode="&#x161;" horiz-adv-x="920" 
d="M464 -20q-158 0 -272 54q-116 54 -116 126q0 34 25 64t54 30t70 -29q111 -73 215 -73t156 36t51 93q0 57 -43 89t-164 60q-208 48 -280 124t-72 206t108 218t260 87t256 -55q103 -54 103 -113q1 -37 -25 -65t-58 -29q-32 0 -75 28q-89 62 -185 62t-146 -39
q-50 -40 -50 -100t50 -94t216 -71t230 -109t64 -196t-107 -214t-265 -90zM708 1525q30 -1 50 -25q22 -24 22 -56t-56 -70t-130 -92t-126 -54t-139 61q-23 15 -63 39t-78 50q-37 24 -37 59t23 61q22 26 54 27q32 0 89 -41l147 -101l152 101q62 41 92 41z" />
    <glyph glyph-name="Tcommaaccent" unicode="&#x162;" horiz-adv-x="1030" 
d="M610 1212v-1138q0 -86 -95 -86t-95 86v1138h-318q-86 0 -86 90t86 91h826q86 -1 86 -91t-86 -90h-318zM482 -471q-38 1 -60 21t-22 41t5 33q23 63 23 175q0 90 92 90t91 -101q0 -101 -35 -180t-94 -79z" />
    <glyph glyph-name="tcommaaccent" unicode="&#x163;" horiz-adv-x="705" 
d="M471 -20q-270 0 -270 307v596h-58q-82 1 -98 19t-16 63t17 62t67 17h88v224q0 82 94 82t94 -82v-224h182q47 0 63 -18t17 -63q0 -45 -18 -63t-62 -17h-182v-588q0 -139 103 -139q28 0 68 15t64 15t44 -28q22 -28 22 -70t-67 -75t-152 -33zM427 -471q-38 1 -60 21t-22 41
t5 33q23 63 23 175q-1 90 91 90t92 -101t-35 -180t-94 -79z" />
    <glyph glyph-name="Tcaron" unicode="&#x164;" horiz-adv-x="1030" 
d="M610 1212v-1138q0 -86 -95 -86t-95 86v1138h-318q-86 0 -86 90t86 91h826q86 -1 86 -91t-86 -90h-318zM762 1813q30 -1 50 -25q22 -24 22 -56t-56 -70t-130 -92t-126 -54t-139 61q-23 15 -63 39t-78 50q-37 24 -37 59t23 61q22 26 54 27q32 0 89 -41l147 -101l152 101
q62 41 92 41z" />
    <glyph glyph-name="tcaron" unicode="&#x165;" horiz-adv-x="715" 
d="M471 -20q-270 0 -270 307v596h-58q-82 1 -98 19t-16 63t17 62t67 17h88v224q0 82 94 82t94 -82v-224h182q47 0 63 -18t17 -63q0 -45 -18 -63t-62 -17h-182v-588q0 -139 103 -139q28 0 68 15t64 15t44 -28q22 -28 22 -70t-67 -75t-152 -33zM619 1164q-37 0 -59 20t-21 46
t15 60t14 70t-2 80q-4 96 94 95q88 -1 88 -103t-36 -185t-93 -83z" />
    <glyph glyph-name="Umacron" unicode="&#x16a;" horiz-adv-x="1327" 
d="M1157 446q1 -212 -137 -339t-358 -127t-356 127t-136 339v873q0 86 95 86t95 -86v-866q0 -139 82 -217t220 -78t222 79t83 216v866q0 86 95 86t95 -86v-873zM862 1522h-411q-101 0 -101 84t101 84h411q58 0 80 -20t23 -64q0 -84 -103 -84z" />
    <glyph glyph-name="umacron" unicode="&#x16b;" horiz-adv-x="1139" 
d="M993 70q0 -82 -94 -82t-94 82v82q-105 -172 -313 -172q-162 0 -256 106t-93 283v606q-1 82 93 82t94 -82v-586q0 -109 56 -173t167 -64t181 84t71 233v506q0 82 94 82t94 -82v-905zM774 1234h-411q-101 0 -101 84t101 84h411q58 0 80 -20t23 -64q0 -84 -103 -84z" />
    <glyph glyph-name="Uring" unicode="&#x16e;" horiz-adv-x="1327" 
d="M1157 446q1 -212 -137 -339t-358 -127t-356 127t-136 339v873q0 86 95 86t95 -86v-866q0 -139 82 -217t220 -78t222 79t83 216v866q0 86 95 86t95 -86v-873zM658 1837q-42 1 -72 -31q-31 -32 -31 -75t31 -74q30 -31 72 -31t74 30t32 76t-32 75q-32 30 -74 30zM660 1520
q-84 0 -146 62t-63 149q0 87 62 150t147 63t147 -63t62 -150q-1 -87 -63 -149t-146 -62z" />
    <glyph glyph-name="uring" unicode="&#x16f;" horiz-adv-x="1139" 
d="M993 70q0 -82 -94 -82t-94 82v82q-105 -172 -313 -172q-162 0 -256 106t-93 283v606q-1 82 93 82t94 -82v-586q0 -109 56 -173t167 -64t181 84t71 233v506q0 82 94 82t94 -82v-905zM570 1549q-42 1 -72 -31q-31 -32 -31 -75t31 -74q30 -31 72 -31t74 30t32 76t-32 75
q-32 30 -74 30zM572 1232q-84 0 -146 62t-63 149q0 87 62 150t147 63t147 -63t62 -150q-1 -87 -63 -149t-146 -62z" />
    <glyph glyph-name="Uhungarumlaut" unicode="&#x170;" horiz-adv-x="1327" 
d="M1157 446q1 -212 -137 -339t-358 -127t-356 127t-136 339v873q0 86 95 86t95 -86v-866q0 -139 82 -217t220 -78t222 79t83 216v866q0 86 95 86t95 -86v-873zM496 1516q-34 0 -57 22t-23 55q0 34 62 109l97 120q34 44 69 44t61 -24t26 -56q-1 -32 -101 -151t-134 -119z
M1069 1788q1 -28 -17 -56t-81 -102t-89 -94t-54 -20t-51 22t-23 51q0 30 12 49t84 109q72 91 92 105t47 14q28 0 54 -26q26 -24 26 -52z" />
    <glyph glyph-name="uhungarumlaut" unicode="&#x171;" horiz-adv-x="1139" 
d="M993 70q0 -82 -94 -82t-94 82v82q-105 -172 -313 -172q-162 0 -256 106t-93 283v606q-1 82 93 82t94 -82v-586q0 -109 56 -173t167 -64t181 84t71 233v506q0 82 94 82t94 -82v-905zM408 1228q-34 0 -57 22t-23 55q0 34 62 109l97 120q34 44 69 44t61 -24t26 -56
q-1 -32 -101 -151t-134 -119zM981 1500q1 -28 -17 -56t-81 -102t-89 -94t-54 -20t-51 22t-23 51q0 30 12 49t84 109q72 91 92 105t47 14q28 0 54 -26q26 -24 26 -52z" />
    <glyph glyph-name="Uogonek" unicode="&#x172;" horiz-adv-x="1327" 
d="M170 446v873q0 86 95 86t95 -86v-866q0 -139 82 -217t220 -78t221.5 79t83.5 216v866q0 86 95 86t95 -86v-873q0 -178 -101.5 -300t-283.5 -156q-82 -110 -82 -182t66 -72q37 0 68 16q30 16 48 17q18 0 36 -16.5t18 -45.5q0 -38 -68 -72t-146 -34t-130 44.5t-52 134.5
t99 202q-212 11 -335.5 136t-123.5 328z" />
    <glyph glyph-name="uogonek" unicode="&#x173;" horiz-adv-x="1139" 
d="M805 70v82q-105 -172 -313 -172q-162 0 -255.5 105.5t-93.5 283.5v606q-1 82 93 82t94 -82v-586q0 -109 56 -173t167 -64t181.5 83.5t70.5 233.5v506q0 82 94 82t94 -82v-905q0 -36 -20 -60q-101 -122 -101 -198t66 -76q32 0 67 18t50 17q53 0 53 -68q0 -42 -64 -72
t-146 -30t-133.5 44t-51.5 124q0 109 118 235q-26 20 -26 66z" />
    <glyph glyph-name="Ydieresis" unicode="&#x178;" horiz-adv-x="1042" 
d="M604 74q0 -86 -95 -86t-95 86v467q-155 153 -262 381t-107 397q0 86 91 86t97 -78q28 -360 275 -629q270 294 301 621q5 50 27 68t67 18q96 0 96 -86q0 -161 -115 -389t-280 -389v-467zM324 1520q-46 0 -78 33t-33 77q0 44 33 78q33 33 79 33t78 -33q32 -34 32 -78
q-1 -44 -33 -77t-78 -33zM706 1520q-46 0 -78 32t-32 78t33 79q33 32 78 32q45 -1 78 -33t33 -78t-34 -78t-78 -32z" />
    <glyph glyph-name="Zacute" unicode="&#x179;" horiz-adv-x="1071" 
d="M895 190q96 0 96 -95t-96 -95h-731q-48 0 -80 27t-31 75q-1 120 91 273t313 381q283 289 344 446h-602q-99 0 -99 96t99 95h690q125 0 125 -115q0 -138 -131 -306t-289 -332t-231 -258t-103 -192h635zM460 1518q-32 0 -52 24t-21 58q0 34 54 78l182 147q45 37 81 37
t60 -26t25 -62q0 -35 -57 -80l-195 -143q-45 -33 -77 -33z" />
    <glyph glyph-name="zacute" unicode="&#x17a;" horiz-adv-x="893" 
d="M741 166q95 0 95 -80q0 -86 -95 -86h-612q-48 0 -77 29t-29 80q0 88 98 222q97 134 285 295t225 253h-465q-94 1 -94 83t94 82h586q108 0 108 -88q0 -79 -90 -201t-240 -253q-250 -223 -297 -336h508zM380 1230q-32 0 -52 24t-21 58q0 34 54 78l182 147q45 37 81 37
t60 -26t25 -62q0 -35 -57 -80l-195 -143q-45 -33 -77 -33z" />
    <glyph glyph-name="Zdotaccent" unicode="&#x17b;" horiz-adv-x="1071" 
d="M895 190q96 0 96 -95t-96 -95h-731q-48 0 -80 27t-31 75q-1 120 91 273t313 381q283 289 344 446h-602q-99 0 -99 96t99 95h690q125 0 125 -115q0 -138 -131 -306t-289 -332t-231 -258t-103 -192h635zM548 1518q-52 0 -88 36t-36 89t37 89t87 36t88 -36t38 -89t-37 -89
t-89 -36z" />
    <glyph glyph-name="zdotaccent" unicode="&#x17c;" horiz-adv-x="893" 
d="M741 166q95 0 95 -80q0 -86 -95 -86h-612q-48 0 -77 29t-29 80q0 88 98 222q97 134 285 295t225 253h-465q-94 1 -94 83t94 82h586q108 0 108 -88q0 -79 -90 -201t-240 -253q-250 -223 -297 -336h508zM468 1230q-52 0 -88 36t-36 89t37 89t87 36t88 -36t38 -89t-37 -89
t-89 -36z" />
    <glyph glyph-name="Zcaron" unicode="&#x17d;" horiz-adv-x="1071" 
d="M895 190q96 0 96 -95t-96 -95h-731q-48 0 -80 27t-31 75q-1 120 91 273t313 381q283 289 344 446h-602q-99 0 -99 96t99 95h690q125 0 125 -115q0 -138 -131 -306t-289 -332t-231 -258t-103 -192h635zM788 1813q30 -1 50 -25q22 -24 22 -56t-56 -70t-130 -92t-126 -54
t-139 61q-23 15 -63 39t-78 50q-37 24 -37 59t23 61q22 26 54 27q32 0 89 -41l147 -101l152 101q62 41 92 41z" />
    <glyph glyph-name="zcaron" unicode="&#x17e;" horiz-adv-x="893" 
d="M741 166q95 0 95 -80q0 -86 -95 -86h-612q-48 0 -77 29t-29 80q0 88 98 222q97 134 285 295t225 253h-465q-94 1 -94 83t94 82h586q108 0 108 -88q0 -79 -90 -201t-240 -253q-250 -223 -297 -336h508zM708 1525q30 -1 50 -25q22 -24 22 -56t-56 -70t-130 -92t-126 -54
t-139 61q-23 15 -63 39t-78 50q-37 24 -37 59t23 61q22 26 54 27q32 0 89 -41l147 -101l152 101q62 41 92 41z" />
    <glyph glyph-name="florin" unicode="&#x192;" horiz-adv-x="1085" 
d="M141 -414q-77 0 -126.5 25t-49.5 63t20.5 69.5t46.5 31.5q26 1 54 -11t53 -12q68 0 101.5 44t46.5 145l96 798h-84q-76 0 -76 68q0 92 90 92h88l11 88q32 252 112.5 339t243.5 87q72 0 124 -26.5t52 -64.5t-23.5 -67.5t-50.5 -29.5t-59 11t-53 11q-76 0 -106.5 -50.5
t-41.5 -154.5l-18 -143h141q78 0 78 -63q0 -97 -98 -97h-142l-96 -796q-43 -357 -334 -357z" />
    <glyph glyph-name="Scommaaccent" unicode="&#x218;" horiz-adv-x="1038" 
d="M524 -20q-184 0 -316 68t-132 136q0 39 27 70t59 31t76 -35q126 -92 257 -92t199 58t68 160q0 100 -66 154t-240 108q-174 52 -266 132q-90 80 -90 254q0 175 121 282t290 107t296 -65t127 -142q0 -38 -26 -68t-56 -30q-28 0 -100 47q-120 80 -227 80t-171 -56t-63 -152
q1 -97 63 -141t189 -83q215 -63 312 -159t97 -269q0 -175 -122 -285t-306 -110zM480 -471q-38 1 -60 21t-22 41t5 33q23 63 23 175q0 90 92 90t91 -101q0 -101 -35 -180t-94 -79z" />
    <glyph glyph-name="scommaaccent" unicode="&#x219;" horiz-adv-x="920" 
d="M464 -20q-158 0 -272 54q-116 54 -116 126q0 34 25 64t54 30t70 -29q111 -73 215 -73t156 36t51 93q0 57 -43 89t-164 60q-208 48 -280 124t-72 206t108 218t260 87t256 -55q103 -54 103 -113q1 -37 -25 -65t-58 -29q-32 0 -75 28q-89 62 -185 62t-146 -39
q-50 -40 -50 -100t50 -94t216 -71t230 -109t64 -196t-107 -214t-265 -90zM429 -471q-38 1 -60 21t-22 41t5 33q23 63 23 175q-1 90 91 90t92 -101t-35 -180t-94 -79z" />
    <glyph glyph-name="circumflex" unicode="&#x2c6;" horiz-adv-x="813" 
d="M165 1231q-32 0 -52.5 24.5t-20.5 50.5t34.5 58.5t135 98t148.5 65.5t134 -61q22 -17 84 -55t77.5 -55.5t15.5 -45.5t-22.5 -54t-56.5 -26t-87 39l-147 100l-152 -100q-59 -39 -91 -39z" />
    <glyph glyph-name="caron" unicode="&#x2c7;" horiz-adv-x="807" 
d="M644 1526q30 0 51.5 -24t21.5 -56t-56 -71t-130 -92.5t-126 -53.5t-139 61q-24 16 -64 40t-77 48.5t-37 59.5t23 61.5t55 26.5t88 -41l147 -101l152 101q61 41 91 41z" />
    <glyph glyph-name="macron" unicode="&#x2c9;" horiz-adv-x="817" 
d="M612 1235h-411q-101 0 -101 84t101 84h411q58 0 80.5 -19.5t22.5 -64.5q0 -84 -103 -84z" />
    <glyph glyph-name="breve" unicode="&#x2d8;" horiz-adv-x="766" 
d="M380 1233q-128 0 -205 73.5t-77 137.5q0 30 23 52t57 22t66 -48t59 -68t74 -20t77.5 15t61.5 68q32 53 68 53t59 -21.5t23 -52.5q0 -64 -79 -137.5t-207 -73.5z" />
    <glyph glyph-name="dotaccent" unicode="&#x2d9;" horiz-adv-x="567" 
d="M284 1231q-52 0 -88 36t-36 89t37 89t87 36t88 -36.5t38 -88.5t-37 -88.5t-89 -36.5z" />
    <glyph glyph-name="ring" unicode="&#x2da;" horiz-adv-x="737" 
d="M368 1550q-42 0 -73 -31.5t-31 -74.5t31 -74t73 -31t73.5 29.5t31.5 75.5t-31.5 76t-73.5 30zM369 1233q-84 0 -146.5 62t-62.5 149t62 150t147 63t147 -63t62 -150t-62.5 -149t-146.5 -62z" />
    <glyph glyph-name="ogonek" unicode="&#x2db;" horiz-adv-x="885" 
d="M426 -184q0 -80 66 -80q31 0 65 16q35 16 53 17q18 0 36 -16.5t18 -53.5t-64.5 -67.5t-147.5 -30.5t-134.5 44t-51.5 124q0 122 148 264h131q-119 -137 -119 -217z" />
    <glyph glyph-name="tilde" unicode="&#x2dc;" horiz-adv-x="829" 
d="M546 1237q-70 0 -139 37t-105 37t-77.5 -38t-65.5 -38t-45.5 21.5t-21.5 52.5q0 52 63.5 100.5t134.5 48.5q72 0 144 -37t106 -37t66 36t56 36q73 0 73 -67q0 -51 -59.5 -101.5t-129.5 -50.5z" />
    <glyph glyph-name="hungarumlaut" unicode="&#x2dd;" horiz-adv-x="819" 
d="M246 1229q-34 0 -57 21.5t-23 55.5t62 109l97 120q34 44 69 44t61 -24t26 -56t-100.5 -151t-134.5 -119zM819 1500q0 -28 -17.5 -55.5t-80.5 -102t-89 -94t-54 -19.5t-51 21.5t-23 51.5t11.5 49t84 109t92 104.5t47.5 14.5t54 -25.5t26 -53.5z" />
    <glyph glyph-name="tonos" unicode="&#x384;" horiz-adv-x="479" 
d="M310 1606q40 0 66.5 -22t26.5 -52t-20 -66l-121 -213q-29 -51 -64 -51t-65.5 23t-30.5 49t15 53l121 219q32 60 72 60z" />
    <glyph glyph-name="dieresistonos" unicode="&#x385;" horiz-adv-x="954" 
d="M734 1221q-46 0 -78.5 32t-32.5 78t32.5 78.5t78.5 32.5t78 -32t32 -80t-32 -78.5t-78 -30.5zM222 1221q-46 0 -78.5 32t-32.5 78t32.5 78.5t78.5 32.5t78 -32t32 -80t-32 -78.5t-78 -30.5zM465 1202q-33 0 -58.5 19.5t-25.5 40.5t4 41l55 225q19 78 84 78
q33 0 58.5 -18.5t25.5 -42.5t-8 -56l-59 -221q-18 -66 -76 -66z" />
    <glyph glyph-name="Alphatonos" unicode="&#x386;" horiz-adv-x="1217" 
d="M835 571q-113 367 -219 600q-106 -232 -225 -600h444zM162 -12q-113 0 -113 73q0 61 111 407t229 614q118 270 148 296t83 27h2q44 0 74 -25t144 -292t222 -616t107 -404q0 -80 -112 -80q-58 0 -76 71q-33 141 -92 332h-553q-69 -222 -99 -332q-17 -71 -75 -71zM238 1406
q40 0 66 -22t26 -52t-20 -66l-121 -213q-29 -51 -64 -51t-65 23t-31 49q0 26 15 53l121 219q33 60 73 60z" />
    <glyph glyph-name="anoteleia" unicode="&#x387;" horiz-adv-x="406" 
d="M201 516q-48 0 -81.5 33.5t-33.5 81.5t33 82.5t81 34.5t82.5 -34.5t34.5 -82.5t-34 -81.5t-82 -33.5z" />
    <glyph glyph-name="Epsilontonos" unicode="&#x388;" horiz-adv-x="1270" 
d="M385 1217q0 176 178 176h525q56 0 78 -20t22 -68q0 -93 -100 -93h-478q-34 0 -34 -38v-359h446q100 0 100 -90q0 -48 -22 -69t-78 -21h-446v-424q0 -31 28 -31h481q103 0 103 -90t-103 -90h-534q-77 0 -121 41t-45 117v1059zM182 1406q40 0 66 -22t27 -52q0 -30 -20 -66
l-121 -213q-29 -51 -64 -51q-36 0 -66 23t-30 49t15 53l121 219q32 60 72 60z" />
    <glyph glyph-name="Etatonos" unicode="&#x389;" horiz-adv-x="1532" 
d="M1395 74q1 -86 -95 -86t-96 86v551h-628v-551q0 -86 -96 -86t-95 86v1247q-1 84 95 84t96 -84v-518h628v518q0 84 96 84t95 -84v-1247zM182 1406q40 0 66 -22t27 -52q0 -30 -20 -66l-121 -213q-29 -51 -64 -51q-36 0 -66 23t-30 49t15 53l121 219q32 60 72 60z" />
    <glyph glyph-name="Iotatonos" unicode="&#x38a;" horiz-adv-x="770" 
d="M596 74q0 -86 -96 -86t-95 86v1247q-1 84 95 84t96 -84v-1247zM182 1406q40 0 66 -22t27 -52q0 -30 -20 -66l-121 -213q-29 -51 -64 -51q-36 0 -66 23t-30 49t15 53l121 219q32 60 72 60z" />
    <glyph glyph-name="Omicrontonos" unicode="&#x38c;" horiz-adv-x="1575" 
d="M878 1235q-193 0 -306 -154t-113 -382q0 -229 112 -385t307 -156q194 0 304 156t110 385q0 228 -110 382t-304 154zM878 -20q-282 0 -446 204t-164 516q0 313 166 513t445 200q280 -1 442 -203t162 -512t-162 -514t-443 -204zM182 1406q40 0 66 -22t27 -52q0 -30 -20 -66
l-121 -213q-29 -51 -64 -51q-36 0 -66 23t-30 49t15 53l121 219q32 60 72 60z" />
    <glyph glyph-name="Upsilontonos" unicode="&#x38e;" horiz-adv-x="1356" 
d="M917 74q0 -86 -95 -86t-95 86v467q-155 153 -262 381t-107 397q0 86 91 86t97 -78q28 -360 275 -629q270 294 301 621q4 50 26 68t68 18q96 0 96 -86q0 -161 -115 -389t-280 -389v-467zM182 1406q40 0 66 -22t27 -52q0 -30 -20 -66l-121 -213q-29 -51 -64 -51
q-36 0 -66 23t-30 49t15 53l121 219q32 60 72 60z" />
    <glyph glyph-name="Omegatonos" unicode="&#x38f;" horiz-adv-x="1610" 
d="M268 741q0 293 172 483t446 189q274 1 446 -189t171 -483q0 -362 -245 -561h168q100 0 100 -88q0 -48 -22 -70t-80 -22h-361q-88 0 -88 92q0 47 41 80q297 213 297 565q0 222 -119 360t-308 138t-308 -138t-119 -360q0 -349 293 -563q45 -31 45 -82q0 -92 -88 -92h-359
q-60 0 -82 22t-22 68t21 68t81 22h166q-246 199 -246 561zM182 1406q40 0 66 -22t27 -52q0 -30 -20 -66l-121 -213q-29 -51 -64 -51q-36 0 -66 23t-30 49t15 53l121 219q32 60 72 60z" />
    <glyph glyph-name="iotadieresistonos" unicode="&#x390;" horiz-adv-x="614" 
d="M410 -20q-271 0 -271 303v692q-1 82 93 82t94 -82v-699q0 -139 98 -139q16 1 54 15t62 14t45 -28t21 -65t-54 -65t-142 -28zM502 1221q-46 0 -79 32q-32 32 -32 78q0 47 33 79q32 32 78 32t78 -32t32 -80t-32 -78q-32 -31 -78 -31zM-10 1221q-46 0 -79 32q-32 32 -32 78
q0 47 33 79q32 32 78 32t78 -32t32 -80t-32 -78q-32 -31 -78 -31zM233 1202q-33 0 -59 20t-25 40q0 21 4 41l55 225q19 78 84 78q32 0 58 -18t26 -43q0 -24 -8 -56l-59 -221q-18 -66 -76 -66z" />
    <glyph glyph-name="Alpha" unicode="&#x391;" horiz-adv-x="1210" 
d="M831 571q-113 367 -219 600q-106 -232 -225 -600h444zM158 -12q-113 0 -113 73q0 61 111 407t229 614q118 270 148 296t83 27h2q44 0 74 -25t144 -292t222 -616t107 -404q0 -80 -112 -80q-58 0 -76 71q-33 141 -92 332h-553q-69 -222 -99 -332q-17 -71 -75 -71z" />
    <glyph glyph-name="Beta" unicode="&#x392;" horiz-adv-x="1182" 
d="M365 641v-432q0 -31 28 -31h250q256 0 256 232t-281 231h-253zM365 817h256q97 -1 160 53t63 153t-59 144t-189 45h-197q-34 0 -34 -38v-357zM1090 403q0 -191 -122 -297t-331 -106h-297q-166 0 -166 158v1059q0 176 178 176h248q434 0 434 -365q0 -94 -56 -176
t-153 -111q125 -29 195 -119t70 -219z" />
    <glyph glyph-name="Gamma" unicode="&#x393;" horiz-adv-x="973" 
d="M397 1212q-32 0 -32 -36v-1098q1 -90 -95 -90t-96 90v1145q0 76 45.5 123t124.5 47h498q102 -1 102 -91t-102 -90h-445z" />
    <glyph glyph-name="Delta" unicode="&#x394;" horiz-adv-x="1266" 
d="M264 180h737q-143 534 -360 979q-224 -470 -377 -979zM1122 0h-981q-96 0 -96 84q0 55 86.5 318.5t245 610.5t188 368.5t74.5 23.5h6q61 0 85.5 -36.5t107 -207.5t160 -366.5t150.5 -426.5t73 -284q0 -84 -99 -84z" />
    <glyph glyph-name="Epsilon" unicode="&#x395;" horiz-adv-x="1059" 
d="M174 1217q0 176 178 176h525q57 0 79 -20t21 -68q0 -93 -100 -93h-478q-34 0 -34 -38v-359h446q100 0 100 -90q0 -48 -22 -69t-78 -21h-446v-424q0 -31 28 -31h481q103 0 103 -90t-103 -90h-534q-78 0 -122 41t-44 117v1059z" />
    <glyph glyph-name="Zeta" unicode="&#x396;" horiz-adv-x="1071" 
d="M895 190q96 0 96 -95t-96 -95h-731q-48 0 -80 27t-31 75q-1 120 91 273t313 381q283 289 344 446h-602q-99 0 -99 96t99 95h690q125 0 125 -115q0 -138 -131 -306t-289 -332t-231 -258t-103 -192h635z" />
    <glyph glyph-name="Eta" unicode="&#x397;" horiz-adv-x="1358" 
d="M1184 74q0 -86 -96 -86t-95 86v551h-628v-551q1 -86 -95 -86t-96 86v1247q0 84 96 84t95 -84v-518h628v518q-1 84 95 84t96 -84v-1247z" />
    <glyph glyph-name="Theta" unicode="&#x398;" horiz-adv-x="1419" 
d="M934 623h-451q-100 0 -100 88t100 88h451q100 0 100 -88t-100 -88zM710 1235q-201 0 -313 -153.5t-112 -385.5t115 -385t311 -153t310 151.5t114 385.5t-112 387t-313 153zM710 -20q-284 0 -451 202.5t-167 518.5t168.5 514t452.5 198t449 -201.5t165 -515.5t-166.5 -515
t-450.5 -201z" />
    <glyph glyph-name="Iota" unicode="&#x399;" horiz-adv-x="539" 
d="M365 74q1 -86 -95 -86t-96 86v1247q0 84 96 84t95 -84v-1247z" />
    <glyph glyph-name="Kappa" unicode="&#x39a;" horiz-adv-x="1171" 
d="M365 74q1 -86 -95 -86t-96 86v1247q0 84 96 84t95 -84v-543q299 236 526 586q30 43 72 43q42 1 75 -27t33 -63q1 -55 -171 -257t-277 -290q170 -175 292 -340q222 -300 222 -356q0 -36 -34 -62q-35 -26 -75 -26t-74 49q-257 398 -473 610l-116 -90v-481z" />
    <glyph glyph-name="Lambda" unicode="&#x39b;" horiz-adv-x="1210" 
d="M158 -14q-113 0 -113 73q0 79 119.5 442t232 610.5t139.5 270.5t78 23t83.5 -33t147.5 -303.5t217.5 -601.5t102.5 -401q0 -78 -112 -78q-58 0 -76 71q-30 128 -135.5 475.5t-229.5 616.5q-204 -454 -343 -971q-36 -133 -53 -163.5t-58 -30.5z" />
    <glyph glyph-name="Mu" unicode="&#x39c;" horiz-adv-x="1593" 
d="M1419 72q0 -84 -90 -84t-90 84v1038h-4l-332 -592q-39 -69 -108 -69t-107 67l-330 588h-4v-1032q0 -84 -90 -84t-90 84v1204q0 129 115 129q81 0 125 -80l383 -688l385 692q42 76 123 76q114 0 114 -129v-1204z" />
    <glyph glyph-name="Nu" unicode="&#x39d;" horiz-adv-x="1389" 
d="M1214 100q0 -112 -116 -112q-71 0 -113 69l-629 1053v-1038q0 -84 -91 -84t-91 84v1200q0 133 123 133q73 0 117 -70l618 -1044v1028q0 86 91 86t91 -86v-1219z" />
    <glyph glyph-name="Xi" unicode="&#x39e;" horiz-adv-x="1106" 
d="M922 0h-740q-100 0 -100 89t100 89h740q100 0 100 -89t-100 -89zM819 627h-534q-101 0 -101 88t101 88h534q101 0 101 -88t-101 -88zM901 1214h-698q-101 0 -101 90t101 89h698q100 1 100 -89t-100 -90z" />
    <glyph glyph-name="Omicron" unicode="&#x39f;" horiz-adv-x="1399" 
d="M702 1235q-193 0 -306 -154t-113 -382q0 -229 112 -385t307 -156q194 0 304 156t110 385q0 228 -110 382t-304 154zM702 -20q-282 0 -446 204t-164 516q0 313 166 513t445 200q280 -1 442 -203t162 -512t-162 -514t-443 -204z" />
    <glyph glyph-name="Pi" unicode="&#x3a0;" horiz-adv-x="1393" 
d="M1219 78q1 -90 -95 -90t-96 90v1098q0 36 -33 36h-598q-32 0 -32 -36v-1098q1 -90 -95 -90t-96 90v1145q0 76 45.5 123t124.5 47h703q80 0 126 -46.5t46 -123.5v-1145z" />
    <glyph glyph-name="Rho" unicode="&#x3a1;" horiz-adv-x="1124" 
d="M858 950q0 262 -258 262h-201q-34 0 -34 -38v-478h233q118 0 189 70t71 184zM365 518v-446q1 -84 -95 -84t-96 84v1142q0 179 178 179h252q212 1 328 -117t117 -317t-125 -320t-334 -121h-225z" />
    <glyph glyph-name="Sigma" unicode="&#x3a3;" horiz-adv-x="1030" 
d="M694 721q0 -34 -32 -64q-266 -250 -398 -477h666q100 0 100 -90t-100 -90h-795q-90 0 -90 94t131 279.5t299 347.5q-185 185 -288 341.5t-103 237.5q0 93 106 93h676q103 -1 103 -91t-103 -90h-563q125 -198 359 -428q32 -29 32 -63z" />
    <glyph glyph-name="Tau" unicode="&#x3a4;" horiz-adv-x="1030" 
d="M610 1212v-1138q0 -86 -95 -86t-95 86v1138h-318q-86 0 -86 90t86 91h826q86 -1 86 -91t-86 -90h-318z" />
    <glyph glyph-name="Upsilon" unicode="&#x3a5;" horiz-adv-x="1042" 
d="M604 74q0 -86 -95 -86t-95 86v467q-155 153 -262 381t-107 397q0 86 91 86t97 -78q28 -360 275 -629q270 294 301 621q5 50 27 68t67 18q96 0 96 -86q0 -161 -115 -389t-280 -389v-467z" />
    <glyph glyph-name="Phi" unicode="&#x3a6;" horiz-adv-x="1401" 
d="M276 694q0 -140 86.5 -237.5t241.5 -104.5v686q-156 -8 -242 -106t-86 -238zM1124 694q0 138 -86.5 237.5t-242.5 106.5v-686q154 7 241.5 105.5t87.5 236.5zM795 63q1 -90 -95 -90t-96 90v121q-238 8 -378 155t-140 357t139.5 354.5t378.5 155.5v123q0 90 96 90t95 -90
v-123q237 -9 378.5 -155t141.5 -355t-141 -356t-379 -156v-121z" />
    <glyph glyph-name="Chi" unicode="&#x3a7;" horiz-adv-x="1108" 
d="M1042 86q0 -98 -94 -98q-51 0 -71 21t-25 69q-10 126 -76 240t-211 257q-290 -269 -313 -499q-6 -48 -27 -68t-71 -20q-93 0 -93 98q0 274 371 608q-319 325 -319 617q0 94 98 94q84 0 90 -82q21 -250 266 -510q268 269 291 512q4 80 90 80q99 0 99 -94q0 -271 -349 -619
q344 -318 344 -606z" />
    <glyph glyph-name="Psi" unicode="&#x3a8;" horiz-adv-x="1542" 
d="M1200 860v455q0 90 96 90t95 -90v-455q0 -235 -137.5 -373.5t-387.5 -156.5v-252q0 -90 -95 -90t-95 90v252q-524 32 -524 530v455q0 90 95 90t95 -90v-455q0 -322 334 -348v803q0 90 95 90t95 -90v-803q334 28 334 348z" />
    <glyph glyph-name="Omega" unicode="&#x3a9;" horiz-adv-x="1448" 
d="M106 741q0 293 172 482.5t446 189.5t445.5 -189.5t171.5 -482.5q0 -362 -245 -561h168q100 0 100 -88q0 -49 -22 -70.5t-80 -21.5h-361q-88 0 -88 92q0 47 41 80q297 213 297 565q0 222 -119 360t-308 138t-308 -138t-119 -360q0 -349 293 -563q45 -31 45 -82
q0 -92 -88 -92h-359q-59 0 -81.5 22t-22.5 68t21 68t81 22h166q-246 199 -246 561z" />
    <glyph glyph-name="Iotadieresis" unicode="&#x3aa;" horiz-adv-x="539" 
d="M365 74q1 -86 -95 -86t-96 86v1247q0 84 96 84t95 -84v-1247zM79 1536q-47 0 -79 33t-32 77t33 78q33 33 79 33t78 -33q32 -34 32 -78t-32 -77t-79 -33zM461 1536q-45 0 -77 32t-33 78q0 46 33 79q33 32 78 32q45 -1 78 -33t33 -78q1 -46 -33 -78t-79 -32z" />
    <glyph glyph-name="Upsilondieresis" unicode="&#x3ab;" horiz-adv-x="1042" 
d="M604 74q0 -86 -95 -86t-95 86v467q-155 153 -262 381t-107 397q0 86 91 86t97 -78q28 -360 275 -629q270 294 301 621q5 50 27 68t67 18q96 0 96 -86q0 -161 -115 -389t-280 -389v-467zM317 1536q-47 0 -79 33t-32 77t33 78q33 33 79 33t78 -33q32 -34 32 -78t-32 -77
t-79 -33zM699 1536q-45 0 -77 32t-33 78q0 46 33 79q33 32 78 32q45 -1 78 -33t33 -78q1 -46 -33 -78t-79 -32z" />
    <glyph glyph-name="alphatonos" unicode="&#x3ac;" horiz-adv-x="1225" 
d="M540 893q-126 0 -199 -102q-73 -103 -73 -271t69 -268t197 -100t199 102q70 102 70 282t-69 268q-68 88 -194 89zM512 -20q-208 0 -320 147t-112 394t120 395t344 149q224 0 328 -201q36 83 90 138t97 55t71 -29q28 -28 29 -58q0 -30 -43 -71q-70 -64 -98 -147t-27 -223
q0 -278 150 -386q41 -35 41 -67t-30 -60q-30 -30 -65 -30q-61 0 -125 67t-94 166q-94 -239 -356 -239zM700 1606q40 0 66 -22t26 -52t-20 -66l-121 -213q-29 -51 -64 -51t-65 23t-31 49q0 26 15 53l121 219q33 60 73 60z" />
    <glyph glyph-name="epsilontonos" unicode="&#x3ad;" horiz-adv-x="969" 
d="M535 893q-226 1 -226 -141t232 -142h133q88 0 88 -82t-88 -82h-131q-275 0 -275 -147t262 -147q139 0 272 59q22 10 48 10t49 -28t23 -64q0 -59 -116 -104t-307 -45t-305 82t-114 227q0 180 207 246q-166 57 -166 229q-1 133 109 217t305 84q133 0 249 -44t115 -106
q-1 -32 -23 -62t-45 -30t-44 8q-163 62 -252 62zM656 1606q40 0 66 -22t27 -52q0 -30 -20 -66l-121 -213q-29 -51 -64 -51q-36 0 -66 23t-30 49t15 53l121 219q32 60 72 60z" />
    <glyph glyph-name="etatonos" unicode="&#x3ae;" horiz-adv-x="1151" 
d="M657 1065q163 1 257 -101t94 -280v-1034q0 -82 -94 -82t-93 82v997q0 115 -54 181t-166 65q-113 1 -185 -85t-72 -239v-499q0 -82 -93 -82t-93 82v428q0 334 -50 421q-20 35 -20 61t34 52t64 25q99 0 129 -180q102 188 342 188zM736 1606q40 0 66 -22t27 -52
q0 -30 -20 -66l-121 -213q-29 -51 -64 -51q-36 0 -66 23t-30 49t15 53l121 219q32 60 72 60z" />
    <glyph glyph-name="iotatonos" unicode="&#x3af;" horiz-adv-x="614" 
d="M410 -20q-271 0 -271 303v692q-1 82 93 82t94 -82v-699q0 -139 98 -139q16 1 54 15t62 14t45 -28t21 -65t-54 -65t-142 -28zM348 1606q40 0 66 -22t26 -52t-20 -66l-121 -213q-29 -51 -64 -51t-65 23t-31 49q0 26 15 53l121 219q33 60 73 60z" />
    <glyph glyph-name="upsilondieresistonos" unicode="&#x3b0;" horiz-adv-x="1133" 
d="M331 426q0 -279 233 -279q129 -1 204 93t75 294t-113 388q-18 27 -18 54t33 54t75 27q78 1 144 -177t65 -354q1 -242 -125 -394t-335 -152t-317 110t-108 318v567q0 82 94 82t93 -82v-549zM804 1221q-46 0 -79 32q-32 32 -32 78q0 47 33 79q32 32 78 32t78 -32t32 -80
t-32 -78q-32 -31 -78 -31zM292 1221q-46 0 -79 32q-32 32 -32 78q0 47 33 79q32 32 78 32t78 -32t32 -80t-32 -78q-32 -31 -78 -31zM535 1202q-33 0 -59 20t-25 40q0 21 4 41l55 225q19 78 84 78q32 0 58 -18t26 -43q0 -24 -8 -56l-59 -221q-18 -66 -76 -66z" />
    <glyph glyph-name="alpha" unicode="&#x3b1;" horiz-adv-x="1225" 
d="M540 893q-126 0 -199 -102.5t-73 -270.5t69 -268t197 -100t198.5 102t70.5 282t-68.5 268.5t-194.5 88.5zM512 -20q-207 0 -319.5 147t-112.5 394t120 395.5t344 148.5t328 -201q35 83 89.5 138t97.5 55t71.5 -28.5t28.5 -58.5t-43 -71q-70 -64 -97.5 -147t-27.5 -223
q0 -278 150 -386q41 -35 41 -67t-29.5 -61t-65.5 -29q-60 0 -124.5 67t-94.5 166q-94 -239 -356 -239z" />
    <glyph glyph-name="beta" unicode="&#x3b2;" horiz-adv-x="1159" 
d="M565 1372q-231 0 -231 -258v-670q0 -140 80 -221.5t205 -81.5t199.5 77.5t74.5 213.5t-93.5 223.5t-246.5 87.5q-92 0 -92 82q-1 82 97 82t162 67t64 170t-64 165.5t-155 62.5zM1079 422q0 -201 -125.5 -321.5t-321.5 -120.5t-298 135v-465q0 -82 -94 -82t-93 82v1468
q0 199 111.5 308.5t297.5 109.5t301.5 -108t115.5 -265q0 -235 -197 -323q303 -90 303 -418z" />
    <glyph glyph-name="gamma" unicode="&#x3b3;" horiz-adv-x="1067" 
d="M951 1055q39 0 67.5 -27.5t28.5 -57.5t-29 -69q-158 -201 -283 -451t-125 -501v-291q0 -90 -93 -90t-93 90v279q0 324 -102 569t-252 381q-50 45 -50 79t28.5 62.5t67.5 28.5q83 0 232 -215.5t187 -474.5q49 197 193 443t223 245z" />
    <glyph glyph-name="delta" unicode="&#x3b4;" horiz-adv-x="1112" 
d="M268 489q0 -147 81 -242t209 -95t207 94.5t79 237.5q0 287 -273 421q-303 -84 -303 -416zM564 1372q-134 0 -134 -102q0 -46 58 -100t222 -146t243 -223t79 -333t-137 -345t-345 -143t-339 140.5t-131 368.5q0 375 336 519q-176 116 -176 270q0 113 85 185.5t219 72.5
t259 -53t125 -111q0 -29 -24 -58.5t-52 -29.5t-78 23q-136 65 -210 65z" />
    <glyph glyph-name="epsilon" unicode="&#x3b5;" horiz-adv-x="969" 
d="M535 893q-226 1 -226 -141t232 -142h133q88 0 88 -82t-88 -82h-131q-275 0 -275 -147t262 -147q139 0 272 59q22 10 48 10t49 -28t23 -64q0 -59 -115.5 -104t-307.5 -45t-305.5 82t-113.5 227q0 180 207 246q-166 57 -166 229q0 133 109.5 217t304.5 84q133 0 248.5 -44
t115.5 -106q0 -32 -22.5 -62t-45.5 -30t-44 8q-163 62 -252 62z" />
    <glyph glyph-name="zeta" unicode="&#x3b6;" horiz-adv-x="879" 
d="M186 1354q-92 0 -92 81t92 81h549q94 0 94 -80q0 -45 -53 -84q-508 -390 -508 -824q0 -111 54 -181.5t214 -110.5t243 -103t83 -195t-137 -248t-242 -116q-35 0 -54 27t-19 66t53 61q213 94 213 206q0 42 -31 72.5t-149 59.5q-219 54 -317.5 162t-98.5 316t129 433.5
t338 376.5h-361z" />
    <glyph glyph-name="eta" unicode="&#x3b7;" horiz-adv-x="1151" 
d="M657 1065q164 0 257.5 -101.5t93.5 -279.5v-1034q0 -82 -94 -82t-93 82v997q0 115 -54 180.5t-166 65.5t-184.5 -85.5t-72.5 -238.5v-499q0 -82 -93 -82t-93 82v428q0 334 -50 421q-20 35 -20 61t34 51.5t64 25.5q99 0 129 -180q102 188 342 188z" />
    <glyph glyph-name="theta" unicode="&#x3b8;" horiz-adv-x="1126" 
d="M563 152q121 0 195.5 138t85.5 394h-561q12 -257 85.5 -394.5t194.5 -137.5zM564 1364q-119 0 -195 -135.5t-86 -382.5h561q-13 254 -87 386t-193 132zM562 -20q-220 0 -344 206t-124 568t125.5 572t344.5 210t344.5 -208t125.5 -572t-126 -570t-346 -206z" />
    <glyph glyph-name="iota" unicode="&#x3b9;" horiz-adv-x="614" 
d="M410 -20q-271 0 -271 303v692q-1 82 93 82t94 -82v-699q0 -139 98 -139q16 1 54 15t62 14t45 -27.5t21 -65.5t-54.5 -65.5t-141.5 -27.5z" />
    <glyph glyph-name="kappa" unicode="&#x3ba;" horiz-adv-x="1034" 
d="M963 70q0 -33 -32.5 -57.5t-74.5 -24.5t-72 51q-162 302 -346 459q-63 -75 -104 -162v-262q0 -86 -94 -86t-93 86v899q-1 84 93 84t94 -84v-369q122 192 297 322t254 131q31 0 56.5 -28.5t25.5 -68.5t-56 -67q-222 -111 -352 -264q154 -132 279 -314.5t125 -244.5z" />
    <glyph glyph-name="lambda" unicode="&#x3bb;" horiz-adv-x="1026" 
d="M129 -12q-41 0 -68.5 23t-27.5 57q0 72 133.5 345t279.5 480q-18 55 -38 109t-52 152q-34 98 -77 149.5t-111 70.5q-51 14 -51 64q0 100 80 100q109 0 198 -84t205 -427l246 -720q28 -75 57 -110.5t80 -69.5q29 -16 29 -46t-24 -61.5t-58 -31.5q-70 0 -126 45.5t-92 117
t-96 249.5t-100 290q-208 -351 -303 -649q-19 -53 -84 -53z" />
    <glyph glyph-name="mu" unicode="&#x3bc;" horiz-adv-x="1143" 
d="M334 -338q0 -82 -94 -82t-93 82v1313q-1 82 93 82t94 -82v-565q0 -121 58 -186.5t170 -65.5t179.5 78.5t67.5 209.5v529q0 82 94 82t94 -82v-905q0 -82 -94 -82t-94 82v65q-89 -153 -264 -153q-138 0 -211 96v-416z" />
    <glyph glyph-name="nu" unicode="&#x3bd;" horiz-adv-x="1010" 
d="M764 815q0 47 -18 97t-17 78q0 28 32.5 50.5t77.5 22.5t79 -61t34 -169t-53.5 -241t-188.5 -344t-164 -232.5t-70 -21.5t-68 22t-121 217t-172 428t-78 315t102 81q74 0 86 -68q87 -410 267 -774q272 412 272 600z" />
    <glyph glyph-name="xi" unicode="&#x3be;" horiz-adv-x="924" 
d="M397 1139q0 -183 254 -183h66q94 0 94 -86q0 -79 -94 -79h-111q-156 0 -247 -73.5t-91 -197.5q0 -91 55 -161.5t249 -118.5t263.5 -115t69.5 -180q1 -151 -147 -261t-230 -110q-34 0 -53.5 25.5t-19.5 64.5t51 64q213 96 213 198q0 64 -46 93.5t-136 50.5
q-252 57 -354.5 164.5t-102.5 263.5t81 254t216 133q-168 69 -168 245q0 148 137 220h-160q-94 0 -94 86q0 80 94 80h590q94 0 94 -80q0 -86 -94 -86h-76q-303 0 -303 -211z" />
    <glyph glyph-name="omicron" unicode="&#x3bf;" horiz-adv-x="1112" 
d="M557 893q-135 0 -212 -97t-77 -268q0 -172 78 -274t210 -102q134 0 211 102t77 272t-76 268q-76 99 -211 99zM556 -20q-212 0 -344 149t-132 397t132 393q132 146 346 146q214 -1 344 -149t130 -394t-132 -394t-344 -148z" />
    <glyph glyph-name="pi" unicode="&#x3c0;" horiz-adv-x="1294" 
d="M811 879h-311v-543q0 -171 -68 -263.5t-184 -92.5q-37 0 -60.5 26t-23.5 66t47 59q59 27 80.5 75.5t21.5 127.5v545h-12q-101 0 -147 -60q-32 -35 -64 -35t-58 28t-26 58q0 56 83.5 115t248.5 59h838q79 0 79 -82t-79 -83h-179v-592q0 -142 95 -142q24 -1 53 11t53 12
t41.5 -26t17.5 -66t-53.5 -68t-136.5 -28q-256 0 -256 311v588z" />
    <glyph glyph-name="rho" unicode="&#x3c1;" horiz-adv-x="1153" 
d="M885 530q0 363 -279 363q-138 0 -209 -99.5t-71 -276.5t72 -271t200 -94t207.5 100t79.5 278zM326 -350q0 -82 -94 -82t-93 82v852q0 274 121.5 418.5t341.5 144.5t344.5 -140.5t124.5 -392.5t-128.5 -402t-322.5 -150t-294 137v-467z" />
    <glyph glyph-name="sigma1" unicode="&#x3c2;" horiz-adv-x="913" 
d="M485 -426q-35 0 -53 27t-18 63t51 64q137 69 174 114.5t37 91.5t-34.5 76.5t-141.5 55.5q-420 106 -420 495q0 231 128.5 367.5t346.5 136.5q105 0 201 -36.5t96 -90.5q0 -33 -24 -70t-50 -37t-86 31t-143 31q-136 0 -208.5 -86.5t-72.5 -230.5t72 -226.5t217 -116.5
q169 -45 238 -111.5t69 -172.5q0 -149 -138 -262t-241 -113z" />
    <glyph glyph-name="sigma" unicode="&#x3c3;" horiz-adv-x="1171" 
d="M564 879q-131 0 -213.5 -97.5t-82.5 -265.5t78.5 -266t209.5 -98t209.5 99t78.5 263t-74.5 264.5t-205.5 100.5zM1032 513q0 -244 -130.5 -388.5t-346.5 -144.5t-345.5 147t-129.5 389t137 385t361 143h489q94 0 94 -82t-94 -83h-193q158 -122 158 -366z" />
    <glyph glyph-name="tau" unicode="&#x3c4;" horiz-adv-x="922" 
d="M625 -20q-271 0 -271 305v594h-35q-103 0 -163 -66q-34 -35 -64 -35t-57 28t-27 60q0 52 84 115t250 63h457q94 0 94 -82t-94 -83h-256v-600q0 -75 21 -107.5t68 -32.5q47 -1 74 13t50 14t45 -25t22 -55q0 -51 -62 -78.5t-136 -27.5z" />
    <glyph glyph-name="upsilon" unicode="&#x3c5;" horiz-adv-x="1133" 
d="M331 426q0 -279 233 -279q129 0 204 93.5t75 293.5t-113 388q-18 27 -18 54t33 54t75 27q78 0 143.5 -177.5t65.5 -353.5q0 -243 -125.5 -394.5t-334.5 -151.5t-317 110t-108 318v567q0 82 94 82t93 -82v-549z" />
    <glyph glyph-name="phi" unicode="&#x3c6;" horiz-adv-x="1532" 
d="M670 885q-189 0 -294.5 -94.5t-105.5 -267.5q0 -345 400 -361v723zM1257 522q0 180 -104 271.5t-295 91.5v-723q399 16 399 360zM858 -348q0 -82 -94 -82t-94 82v340q-281 7 -433.5 149t-152.5 382t154.5 382t431.5 152v393q0 84 94 84t94 -84v-393q276 -10 431 -152
t155 -382t-152.5 -382t-433.5 -149v-340z" />
    <glyph glyph-name="chi" unicode="&#x3c7;" horiz-adv-x="1036" 
d="M113 -432q-99 0 -99 86q0 94 86.5 242.5t286.5 470.5q-5 12 -43 101t-53 134q-72 174 -112.5 218t-103.5 65t-63 66t22.5 75.5t70.5 30.5q102 0 194 -87t221 -452q16 23 62 104t57 99q82 138 117 268q13 38 29.5 53t54.5 15q100 0 100 -86q0 -76 -72 -210.5t-264 -436.5
q2 -7 52 -126l53 -126q75 -184 125 -244t120 -87t70 -71q0 -39 -22.5 -70.5t-59.5 -31.5q-70 0 -149 48.5t-133 134t-107 215.5t-84 202l-198 -348q-37 -66 -70 -178q-15 -42 -33 -58t-55 -16z" />
    <glyph glyph-name="psi" unicode="&#x3c8;" horiz-adv-x="1450" 
d="M117 567v408q0 82 94 82t94 -82v-408q0 -222 85.5 -308.5t240.5 -96.5v1288q0 84 94 84t94 -84v-1288q160 14 244 107t84 298v408q0 82 93 82t93 -82v-408q0 -545 -514 -575v-342q0 -82 -94 -82t-94 82v342q-514 30 -514 575z" />
    <glyph glyph-name="omega" unicode="&#x3c9;" horiz-adv-x="1712" 
d="M514 -20q-203 0 -318.5 145t-115.5 387t127.5 394.5t220.5 152.5q32 0 60 -32.5t28 -66.5t-53 -69q-195 -119 -195 -397q0 -142 67 -242t183 -100t181 99.5t65 270.5v168q0 82 93 82t93 -82v-168q0 -175 63.5 -272.5t180.5 -97.5t183.5 92t66.5 244t-54.5 253t-142.5 152
q-53 27 -53 64t27 69.5t61 32.5q96 0 223 -149.5t127 -395.5t-117.5 -390t-322.5 -144q-125 0 -214 63.5t-122 173.5q-41 -112 -131.5 -174.5t-210.5 -62.5z" />
    <glyph glyph-name="iotadieresis" unicode="&#x3ca;" horiz-adv-x="614" 
d="M410 -20q-271 0 -271 303v692q-1 82 93 82t94 -82v-699q0 -139 98 -139q16 1 54 15t62 14t45 -28t21 -65t-54 -65t-142 -28zM50 1233q-46 0 -78 33q-32 34 -33 78q0 44 33 77t79 33t78 -33t32 -77q-1 -44 -33 -78q-32 -33 -78 -33zM432 1233q-46 0 -78 32q-32 33 -32 79
t33 78t78 32t78 -32t33 -78t-34 -78t-78 -33z" />
    <glyph glyph-name="upsilondieresis" unicode="&#x3cb;" horiz-adv-x="1133" 
d="M331 426q0 -279 233 -279q129 -1 204 93t75 294t-113 388q-18 27 -18 54t33 54t75 27q78 1 144 -177t65 -354q1 -242 -125 -394t-335 -152t-317 110t-108 318v567q0 82 94 82t93 -82v-549zM362 1233q-46 0 -78 33q-32 34 -33 78q0 44 33 77t79 33t78 -33t32 -77
q-1 -44 -33 -78q-32 -33 -78 -33zM744 1233q-46 0 -78 32q-32 33 -32 79t33 78t78 32t78 -32t33 -78t-34 -78t-78 -33z" />
    <glyph glyph-name="omicrontonos" unicode="&#x3cc;" horiz-adv-x="1112" 
d="M557 893q-135 0 -212 -97t-77 -268q0 -172 78 -274t210 -102q134 0 211 102t77 272t-76 268q-76 99 -211 99zM556 -20q-212 0 -344 149t-132 397t132 393q132 146 346 146q214 -1 344 -149t130 -394t-132 -394t-344 -148zM660 1606q40 0 66 -22t27 -52q0 -30 -20 -66
l-121 -213q-29 -51 -64 -51q-36 0 -66 23t-30 49t15 53l121 219q32 60 72 60z" />
    <glyph glyph-name="upsilontonos" unicode="&#x3cd;" horiz-adv-x="1133" 
d="M331 426q0 -279 233 -279q129 -1 204 93t75 294t-113 388q-18 27 -18 54t33 54t75 27q78 1 144 -177t65 -354q1 -242 -125 -394t-335 -152t-317 110t-108 318v567q0 82 94 82t93 -82v-549zM654 1606q40 0 66 -22t27 -52q0 -30 -20 -66l-121 -213q-29 -51 -64 -51
q-36 0 -66 23t-30 49t15 53l121 219q32 60 72 60z" />
    <glyph glyph-name="omegatonos" unicode="&#x3ce;" horiz-adv-x="1712" 
d="M514 -20q-202 0 -318 145t-116 387t128 394t220 153q32 0 60 -33q28 -32 28 -66t-53 -69q-195 -119 -195 -397q0 -142 66 -242t184 -100q116 0 181 100t65 270v168q0 82 93 82t93 -82v-168q0 -174 64 -272t180 -98q118 0 184 92t66 244t-54 252q-54 102 -143 153
q-53 27 -53 64t27 69t61 33q96 0 223 -150q127 -149 127 -395t-118 -390t-322 -144q-125 0 -214 64t-122 173q-42 -113 -132 -175t-210 -62zM958 1606q40 0 66 -22t26 -52t-20 -66l-121 -213q-29 -51 -64 -51t-65 23t-31 49q0 26 15 53l121 219q33 60 73 60z" />
    <glyph glyph-name="afii10023" unicode="&#x401;" horiz-adv-x="1059" 
d="M174 1217q0 176 178 176h525q57 0 79 -20t21 -68q0 -93 -100 -93h-478q-34 0 -34 -38v-359h446q100 0 100 -90q0 -48 -22 -69t-78 -21h-446v-424q0 -31 28 -31h481q103 0 103 -90t-103 -90h-534q-78 0 -122 41t-44 117v1059zM393 1536q-47 0 -79 33t-32 77t33 78
q33 33 79 33t78 -33q32 -34 32 -78t-32 -77t-79 -33zM775 1536q-45 0 -77 32t-33 78q0 46 33 79q33 32 78 32q45 -1 78 -33t33 -78q1 -46 -33 -78t-79 -32z" />
    <glyph glyph-name="afii10051" unicode="&#x402;" horiz-adv-x="1436" 
d="M883 872q409 0 409 -391v-467q0 -446 -387 -446q-235 0 -235 94q0 38 18 70t51 32l117 -16q26 -4 51 -4q195 0 195 268v443q0 239 -236 239h-278v-616q0 -90 -96 -90t-95 90v1134h-262q-102 0 -102 90t102 91h797q102 -1 102 -91t-102 -90h-344v-340h295z" />
    <glyph glyph-name="afii10052" unicode="&#x403;" horiz-adv-x="973" 
d="M513 1522q-33 0 -53 24t-20 58t54 78l182 147q46 37 82 37t60 -26t24 -62q0 -35 -57 -80l-195 -143q-45 -33 -77 -33zM397 1212q-32 0 -32 -36v-1098q1 -90 -95 -90t-96 90v1145q0 76 46 123t124 47h498q102 -1 102 -91t-102 -90h-445z" />
    <glyph glyph-name="afii10053" unicode="&#x404;" horiz-adv-x="1217" 
d="M838 791q102 -1 102 -89t-102 -88h-553q16 -220 130 -338t302 -118q146 0 282 102q50 33 80 33t56 -28t26 -58q0 -71 -143.5 -149t-317.5 -78q-279 0 -443.5 190t-164.5 518t176 526.5t455 198.5q175 0 297.5 -66t122.5 -133q0 -35 -28.5 -64.5t-58.5 -29.5t-77 33
q-112 82 -272 82t-277.5 -118t-140.5 -326h549z" />
    <glyph glyph-name="afii10054" unicode="&#x405;" horiz-adv-x="1038" 
d="M524 -20q-184 0 -316 68t-132 136q0 39 27 70t59 31t76 -35q126 -92 257 -92t199 58t68 160q0 100 -66 154t-240 108q-174 52 -266 132q-90 80 -90 254q0 175 121 282t290 107t296 -65t127 -142q0 -38 -26 -68t-56 -30q-28 0 -100 47q-120 80 -227 80t-171 -56t-63 -152
q1 -97 63 -141t189 -83q215 -63 312 -159t97 -269q0 -175 -122 -285t-306 -110z" />
    <glyph glyph-name="afii10055" unicode="&#x406;" horiz-adv-x="539" 
d="M365 74q1 -86 -95 -86t-96 86v1247q0 84 96 84t95 -84v-1247z" />
    <glyph glyph-name="afii10056" unicode="&#x407;" horiz-adv-x="539" 
d="M365 74q1 -86 -95 -86t-96 86v1247q0 84 96 84t95 -84v-1247zM79 1536q-47 0 -79 33t-32 77t33 78q33 33 79 33t78 -33q32 -34 32 -78t-32 -77t-79 -33zM461 1536q-45 0 -77 32t-33 78q0 46 33 79q33 32 78 32q45 -1 78 -33t33 -78q1 -46 -33 -78t-79 -32z" />
    <glyph glyph-name="afii10057" unicode="&#x408;" horiz-adv-x="940" 
d="M362 158q238 0 238 327v836q0 84 96 84t95 -84v-844q-1 -241 -111 -369t-320 -128q-143 0 -237 54t-94 111q1 39 27 67t58 28t112 -41t136 -41z" />
    <glyph glyph-name="afii10058" unicode="&#x409;" horiz-adv-x="1860" 
d="M1591 414q0 223 -274 223h-260v-418q0 -39 35 -39h227q272 0 272 234zM1057 819h250q234 0 354.5 -106.5t120.5 -300.5t-120 -303t-341 -109h-272q-183 0 -183 166v1010q0 36 -32 36h-322q-22 0 -29 -14t-14 -92t-33 -253.5t-78 -391t-104 -332t-71.5 -131t-49.5 -14.5
t-68 22t-38 50t14 57q76 141 145.5 433.5t110.5 688.5q17 158 166 158h424q79 0 124.5 -47t45.5 -123v-404z" />
    <glyph glyph-name="afii10059" unicode="&#x40a;" horiz-adv-x="1937" 
d="M1669 412q0 219 -272 219h-260v-412q0 -39 34 -39h228q270 0 270 232zM946 631h-581v-555q1 -88 -95 -88t-96 88v1245q0 84 96 84t95 -84v-510h581v510q0 84 94 84q50 0 73.5 -18.5t23.5 -69.5v-506h247q233 0 354.5 -104.5t121.5 -298.5t-121 -301t-340 -107h-273
q-180 0 -180 166v465z" />
    <glyph glyph-name="afii10060" unicode="&#x40b;" horiz-adv-x="1438" 
d="M1102 451q0 243 -236 243h-278v-616q0 -90 -96 -90t-95 90v1134h-276q-88 0 -88 90t88 91h827q86 -1 86 -91t-86 -90h-360v-340h295q409 0 409 -385v-411q0 -88 -92 -88q-56 0 -77 20.5t-21 67.5v375z" />
    <glyph glyph-name="afii10061" unicode="&#x40c;" horiz-adv-x="1149" 
d="M365 78q1 -90 -95 -90t-96 90v1243q0 84 96 84t95 -84v-508q288 225 514 539q33 53 73 53q40 -1 74 -29q33 -28 33 -61q0 -62 -187 -269t-344 -311v-2q212 -156 400 -378t188 -283q0 -34 -34 -60t-74 -26t-76 55q-239 359 -567 600v-563zM544 1518q-32 0 -52 24t-21 58
q0 34 54 78l182 147q45 37 81 37t60 -26t25 -62q0 -35 -57 -80l-195 -143q-45 -33 -77 -33z" />
    <glyph glyph-name="afii10062" unicode="&#x40e;" horiz-adv-x="1145" 
d="M111 1327q0 78 106 78q68 0 82 -68q88 -441 317 -860q111 197 198 437t124 419q11 72 84 72q102 0 102 -72q0 -71 -80 -333t-237 -547q-158 -285 -276 -380q-119 -93 -231 -93t-179 34q-68 34 -68 78q0 43 26 75t52 32q27 1 69 -23t94 -24q108 0 222 165
q-189 291 -297 601t-108 409zM610 1491q-128 -1 -204 73t-77 138q-1 30 23 52t58 22t66 -48t58 -68t74 -20t78 15t61 68t67 53t60 -22q23 -22 23 -52q0 -64 -79 -138q-80 -74 -208 -73z" />
    <glyph glyph-name="afii10145" unicode="&#x40f;" horiz-adv-x="1393" 
d="M1219 158q0 -158 -172 -158h-224q-30 0 -30 -37v-125q1 -86 -95 -86t-96 86v125q0 37 -31 37h-227q-170 0 -170 158v1163q0 84 96 84q50 0 72.5 -18t22.5 -66v-1104q0 -37 32 -37h598q33 0 33 37v1104q0 84 96 84t95 -84v-1163z" />
    <glyph glyph-name="afii10017" unicode="&#x410;" horiz-adv-x="1210" 
d="M831 571q-113 367 -219 600q-106 -232 -225 -600h444zM158 -12q-113 0 -113 73q0 61 111 407t229 614q118 270 148 296t83 27h2q44 0 74 -25t144 -292t222 -616t107 -404q0 -80 -112 -80q-58 0 -76 71q-33 141 -92 332h-553q-69 -222 -99 -332q-17 -71 -75 -71z" />
    <glyph glyph-name="afii10018" unicode="&#x411;" horiz-adv-x="1165" 
d="M899 414q0 223 -274 223h-260v-418q0 -39 34 -39h228q272 0 272 234zM365 819h249q233 0 354.5 -106.5t121.5 -300.5t-120 -303t-341 -109h-275q-180 0 -180 166v1057q0 76 45.5 123t124.5 47h510q102 -1 102 -91t-102 -90h-457q-32 0 -32 -36v-357z" />
    <glyph glyph-name="afii10019" unicode="&#x412;" horiz-adv-x="1182" 
d="M365 641v-432q0 -31 28 -31h250q256 0 256 232t-281 231h-253zM365 817h256q97 -1 160 53t63 153t-59 144t-189 45h-197q-34 0 -34 -38v-357zM1090 403q0 -191 -122 -297t-331 -106h-297q-166 0 -166 158v1059q0 176 178 176h248q434 0 434 -365q0 -94 -56 -176
t-153 -111q125 -29 195 -119t70 -219z" />
    <glyph glyph-name="afii10020" unicode="&#x413;" horiz-adv-x="973" 
d="M397 1212q-32 0 -32 -36v-1098q1 -90 -95 -90t-96 90v1145q0 76 46 123t124 47h498q102 -1 102 -91t-102 -90h-445z" />
    <glyph glyph-name="afii10021" unicode="&#x414;" horiz-adv-x="1384" 
d="M977 1176q0 36 -33 36h-305q-29 0 -33 -34q-64 -613 -225 -998h563q33 0 33 37v959zM1311 16v-194q1 -90 -95 -90t-96 90v141q0 37 -33 37h-866q-31 0 -31 -37v-141q0 -90 -95 -90t-95 90v194q0 152 166 164q182 362 254 1053q19 160 172 160h405q79 0 124.5 -43.5
t45.5 -120.5v-1051q144 -18 144 -162z" />
    <glyph glyph-name="afii10022" unicode="&#x415;" horiz-adv-x="1059" 
d="M174 1217q0 176 178 176h525q57 0 79 -20t21 -68q0 -93 -100 -93h-478q-34 0 -34 -38v-359h446q100 0 100 -90q0 -48 -22 -69t-78 -21h-446v-424q0 -31 28 -31h481q103 0 103 -90t-103 -90h-534q-78 0 -122 41t-44 117v1059z" />
    <glyph glyph-name="afii10024" unicode="&#x416;" horiz-adv-x="1694" 
d="M1667 74q0 -33 -29.5 -60.5t-73.5 -27.5t-79 55q-281 409 -547 596v-559q0 -90 -91 -90t-91 90v559q-276 -195 -545 -596q-41 -55 -83 -55t-71.5 27.5t-29.5 60.5q0 68 210 314t363 341q-152 101 -335 316t-183 272q0 33 36 61.5t73 28.5t73 -53q229 -336 492 -537v498
q0 90 91 90t91 -90v-498q257 195 492 537q38 53 75 53t73 -27t36 -63q0 -56 -184 -270t-336 -318q158 -99 366 -344q207 -245 207 -311z" />
    <glyph glyph-name="afii10025" unicode="&#x417;" horiz-adv-x="1065" 
d="M965 393q0 -192 -136.5 -302.5t-386.5 -110.5q-145 0 -275 56.5t-130 121.5q0 33 27 65.5t58 32.5t79 -29q121 -69 261 -69t225 62t85 179t-90.5 174.5t-286.5 57.5q-98 0 -98 88t98 88q334 0 334 225q0 93 -67 148t-179 55q-44 0 -99.5 -14.5t-172.5 -77.5
q-19 -10 -47 -10t-55 30.5t-27 67.5q0 63 125 122.5t282 59.5q203 0 318 -100t115 -273q0 -108 -62 -189.5t-172 -115.5q277 -72 277 -342z" />
    <glyph glyph-name="afii10026" unicode="&#x418;" horiz-adv-x="1389" 
d="M174 1319q0 86 91 86t91 -86v-1026h2l503 851q120 203 145.5 232t85.5 29q122 0 122 -133v-1200q0 -84 -91 -84t-91 84v1036h-2l-512 -861q-121 -202 -146 -230.5t-81 -28.5q-117 0 -117 112v1219z" />
    <glyph glyph-name="afii10027" unicode="&#x419;" horiz-adv-x="1389" 
d="M174 1319q0 86 91 86t91 -86v-1026h2l503 851q120 203 146 232t85 29q122 0 122 -133v-1200q0 -84 -91 -84t-91 84v1036h-2l-512 -861q-121 -202 -146 -230t-81 -29q-117 0 -117 112v1219zM702 1493q-128 -1 -206 73q-76 74 -76 138q0 30 24 52t56 22q34 0 66 -48t60 -68
q26 -20 73 -20t77 15t62 68t68 53t59 -22t23 -52q0 -64 -79 -138t-207 -73z" />
    <glyph glyph-name="afii10028" unicode="&#x41a;" horiz-adv-x="1149" 
d="M365 78q1 -90 -95 -90t-96 90v1243q0 84 96 84t95 -84v-508q288 225 514 539q33 53 73 53t73.5 -28.5t33.5 -61.5q0 -62 -187 -269t-344 -311v-2q212 -156 400 -378t188 -283q0 -33 -34 -59.5t-74 -26.5t-76 55q-239 359 -567 600v-563z" />
    <glyph glyph-name="afii10029" unicode="&#x41b;" horiz-adv-x="1231" 
d="M1057 78q1 -90 -95 -90t-96 90v1098q0 36 -32 36h-322q-22 0 -28.5 -14t-13.5 -90t-33 -251t-77.5 -391.5t-104.5 -334.5t-72.5 -132.5t-49.5 -14.5t-68 22t-38 50t14 57q76 141 145.5 433.5t110.5 688.5q17 158 166 158h424q79 0 124.5 -47t45.5 -123v-1145z" />
    <glyph glyph-name="afii10030" unicode="&#x41c;" horiz-adv-x="1593" 
d="M1419 72q0 -84 -90 -84t-90 84v1038h-4l-332 -592q-39 -69 -108 -69t-107 67l-330 588h-4v-1032q0 -84 -90 -84t-90 84v1204q0 129 115 129q81 0 125 -80l383 -688l385 692q42 76 123 76q114 0 114 -129v-1204z" />
    <glyph glyph-name="afii10031" unicode="&#x41d;" horiz-adv-x="1358" 
d="M1184 74q0 -86 -96 -86t-95 86v551h-628v-551q1 -86 -95 -86t-96 86v1247q0 84 96 84t95 -84v-518h628v518q-1 84 95 84t96 -84v-1247z" />
    <glyph glyph-name="afii10032" unicode="&#x41e;" horiz-adv-x="1399" 
d="M702 1235q-193 0 -306 -154t-113 -382q0 -229 112 -385t307 -156q194 0 304 156t110 385q0 228 -110 382t-304 154zM702 -20q-282 0 -446 204t-164 516q0 313 166 513t445 200q280 -1 442 -203t162 -512t-162 -514t-443 -204z" />
    <glyph glyph-name="afii10033" unicode="&#x41f;" horiz-adv-x="1393" 
d="M1219 78q1 -90 -95 -90t-96 90v1098q0 36 -33 36h-598q-32 0 -32 -36v-1098q1 -90 -95 -90t-96 90v1145q0 76 45.5 123t124.5 47h703q80 0 126 -46.5t46 -123.5v-1145z" />
    <glyph glyph-name="afii10034" unicode="&#x420;" horiz-adv-x="1124" 
d="M858 950q0 262 -258 262h-201q-34 0 -34 -38v-478h233q118 0 189 70t71 184zM365 518v-446q1 -84 -95 -84t-96 84v1142q0 179 178 179h252q212 1 328 -117t117 -317t-125 -320t-334 -121h-225z" />
    <glyph glyph-name="afii10035" unicode="&#x421;" horiz-adv-x="1217" 
d="M700 -20q-280 0 -444 190t-164 518t176 526t455 199q177 0 299 -66t121 -133q0 -34 -28 -64t-57 -30t-81 33q-108 82 -258 82q-195 1 -315 -147t-121 -399q0 -251 114 -391t320 -140q146 0 282 102q50 33 80 33q30 1 55 -27t25 -59q0 -73 -142 -150t-317 -77z" />
    <glyph glyph-name="afii10036" unicode="&#x422;" horiz-adv-x="1030" 
d="M610 1212v-1138q0 -86 -95 -86t-95 86v1138h-318q-86 0 -86 90t86 91h826q86 -1 86 -91t-86 -90h-318z" />
    <glyph glyph-name="afii10037" unicode="&#x423;" horiz-adv-x="1145" 
d="M111 1327q0 78 106 78q68 0 82 -68q88 -441 317 -860q111 197 198 437t124 419q11 72 84 72q102 0 102 -72t-79.5 -333.5t-237.5 -546.5t-276 -380q-119 -93 -231 -93t-179.5 34.5t-67.5 77.5t26 75t52 32q27 1 69 -23t94 -24q108 0 222 165q-189 291 -297 601.5
t-108 408.5z" />
    <glyph glyph-name="afii10038" unicode="&#x424;" horiz-adv-x="1401" 
d="M276 694q0 -140 86 -238t242 -104v686q-156 -8 -242 -106t-86 -238zM1124 694q0 138 -86 238q-86 99 -243 106v-686q153 8 241 106t88 236zM795 63q1 -90 -95 -90t-96 90v121q-238 8 -378 155t-140 357t140 355q140 144 378 155v123q0 90 96 90t95 -90v-123
q237 -9 379 -155t141 -355q0 -209 -141 -356t-379 -156v-121z" />
    <glyph glyph-name="afii10039" unicode="&#x425;" horiz-adv-x="1108" 
d="M1042 86q0 -98 -94 -98q-51 0 -71 21t-25 69q-10 126 -76 240t-211 257q-290 -269 -313 -499q-6 -48 -27 -68t-71 -20q-93 0 -93 98q0 274 371 608q-319 325 -319 617q0 94 98 94q84 0 90 -82q21 -250 266 -510q268 269 291 512q4 80 90 80q99 0 99 -94q0 -271 -349 -619
q344 -318 344 -606z" />
    <glyph glyph-name="afii10040" unicode="&#x426;" horiz-adv-x="1417" 
d="M1360 -178q0 -90 -96 -90t-95 90v141q0 37 -32 37h-793q-170 0 -170 158v1157q0 90 96 90t95 -90v-1098q0 -37 32 -37h600q31 0 31 37v1098q0 90 96 90t95 -90v-1137q141 -18 141 -160v-196z" />
    <glyph glyph-name="afii10041" unicode="&#x427;" horiz-adv-x="1229" 
d="M317 852q0 -236 254 -236q134 0 293 68v631q0 90 96 90t95 -90v-1237q1 -90 -95 -90t-96 90v436q-165 -70 -319 -70q-201 0 -309.5 108.5t-108.5 289.5v473q0 90 95 90t95 -90v-463z" />
    <glyph glyph-name="afii10042" unicode="&#x428;" horiz-adv-x="1923" 
d="M1526 180q33 0 33 37v1098q0 90 95 90t95 -90v-1155q0 -78 -46 -119t-124 -41h-1235q-78 0 -124 41t-46 119v1155q0 90 96 90t95 -90v-1098q0 -37 32 -37h469v1135q0 90 96 90t95 -90v-1135h469z" />
    <glyph glyph-name="afii10043" unicode="&#x429;" horiz-adv-x="1950" 
d="M1890 18v-196q0 -90 -95 -90t-95 90v141q0 37 -33 37h-1323q-78 0 -124 41t-46 119v1155q0 90 96 90t95 -90v-1098q0 -37 32 -37h469v1135q0 90 96 90t95 -90v-1135h469q33 0 33 37v1098q0 90 95 90t95 -90v-1137q141 -20 141 -160z" />
    <glyph glyph-name="afii10044" unicode="&#x42a;" horiz-adv-x="1427" 
d="M1159 414q0 223 -274 223h-258v-418q0 -39 35 -39h225q272 0 272 234zM627 819h247q232 0 355 -106t123 -300t-120 -303.5t-343 -109.5h-273q-180 0 -180 166v1010q0 36 -33 36h-284q-103 0 -103 90t103 91h338q79 0 124.5 -47t45.5 -123v-404z" />
    <glyph glyph-name="afii10045" unicode="&#x42b;" horiz-adv-x="1595" 
d="M1421 78q0 -90 -95 -90t-95 90v1237q0 90 95 90t95 -90v-1237zM852 414q0 223 -272 223h-215v-418q0 -39 34 -39h183q270 0 270 234zM365 819h204q231 0 353 -105t122 -300t-119 -304.5t-341 -109.5h-230q-180 0 -180 166v1149q0 90 96 90t95 -92v-494z" />
    <glyph glyph-name="afii10046" unicode="&#x42c;" horiz-adv-x="1167" 
d="M899 414q0 223 -274 223h-260v-418q0 -39 34 -39h228q272 0 272 234zM365 819h249q233 0 354.5 -106.5t121.5 -300.5t-120 -303t-341 -109h-275q-180 0 -180 166v1149q0 90 96 90t95 -92v-494z" />
    <glyph glyph-name="afii10047" unicode="&#x42d;" horiz-adv-x="1217" 
d="M379 614q-103 0 -103 88t103 89h551q-19 213 -132 328.5t-298 115.5q-122 0 -260 -86q-45 -31 -75 -31t-57.5 30.5t-27.5 59.5q0 71 137 138t299 67q284 0 446 -188.5t162 -522.5t-175 -528t-460 -194q-179 0 -308.5 67t-129.5 131q0 35 29.5 65.5t58.5 30.5t78 -32
q123 -84 291 -84t284 119t136 337h-549z" />
    <glyph glyph-name="afii10048" unicode="&#x42e;" horiz-adv-x="1821" 
d="M1168 1237q-170 0 -268.5 -147.5t-98.5 -392.5t99 -393t272 -148t268.5 143t95.5 398t-99 397.5t-269 142.5zM365 78q1 -90 -95 -90t-96 90v1237q0 90 96 90t95 -90v-512h249q28 282 179 446t391 164t392.5 -196.5t152.5 -520.5t-149.5 -520t-398.5 -196t-398 169.5
t-171 473.5h-247v-545z" />
    <glyph glyph-name="afii10049" unicode="&#x42f;" horiz-adv-x="1202" 
d="M838 1174q0 38 -37 38h-203q-128 0 -200 -56t-72 -159q0 -217 303 -217h209v394zM1028 78q0 -90 -95 -90t-95 90v522h-115q-143 0 -241.5 -130.5t-213.5 -414.5q-27 -69 -79 -69t-83.5 24t-31.5 64t116.5 280t253.5 295q-146 26 -228.5 120t-82.5 252t130 265t360 107
h223q182 0 182 -176v-1139z" />
    <glyph glyph-name="afii10065" unicode="&#x430;" horiz-adv-x="1130" 
d="M797 612q0 121 -70 201t-192 80q-123 0 -195 -102q-72 -103 -72 -271t71 -268t195 -100t194 80t69 200v180zM510 1065q193 0 287 -145v55q0 82 93 82t93 -82v-905q0 -82 -93 -82t-93 78v75q-89 -161 -289 -161t-314 148t-114 393q0 246 118 395t312 149z" />
    <glyph glyph-name="afii10066" unicode="&#x431;" horiz-adv-x="1112" 
d="M844 489q0 347 -279 347q-144 0 -220.5 -86t-76.5 -241t78.5 -256t212.5 -101t209.5 90t75.5 247zM592 1008q206 0 323 -137t117 -373t-130.5 -377t-350.5 -141t-345.5 161t-125.5 432q0 337 66.5 520t169 249.5t247.5 82.5t194 28.5t90 32.5t66 19q25 0 49.5 -31
t24.5 -76t-78.5 -80.5t-236.5 -55.5t-215 -40.5t-107.5 -100.5t-75.5 -263q112 150 318 150z" />
    <glyph glyph-name="afii10067" unicode="&#x432;" horiz-adv-x="1036" 
d="M768 305q0 152 -205 152h-229v-254q0 -39 35 -39h217q182 0 182 141zM715 754q0 131 -176 131h-170q-35 0 -35 -37v-234h188q193 0 193 140zM956 303q0 -141 -94.5 -222t-253.5 -81h-282q-179 0 -179 174v700q0 175 179 175h235q161 0 251.5 -74t90.5 -205
q0 -177 -155 -221q97 -17 152.5 -83.5t55.5 -162.5z" />
    <glyph glyph-name="afii10068" unicode="&#x433;" horiz-adv-x="870" 
d="M764 879h-397q-33 0 -33 -37v-770q0 -84 -94 -84t-93 84v819q0 153 168 153h447q84 0 84 -82t-82 -83z" />
    <glyph glyph-name="afii10069" unicode="&#x434;" horiz-adv-x="1165" 
d="M786 842q0 37 -32 37h-166q-30 0 -37 -37q-52 -379 -189 -676h424v676zM1112 16v-206q0 -78 -93 -78t-93 78v153q0 37 -33 37h-674q-35 0 -35 -37v-153q0 -78 -93 -78t-93 78v202q0 144 160 154q152 295 219 729q23 149 184 149h244q168 0 168 -153v-725
q139 -10 139 -150z" />
    <glyph glyph-name="afii10070" unicode="&#x435;" horiz-adv-x="1053" 
d="M550 893q-108 0 -182 -72t-89 -200h514q-7 126 -71 199t-172 73zM566 152q122 0 208 59q51 33 81 33q29 0 55 -29t26 -59q0 -68 -120 -122t-251 -54q-225 0 -354 145t-129 389t126 398q126 153 334 153q208 -1 323 -129q116 -128 116 -342q0 -139 -117 -139h-590
q12 -143 91 -223t201 -80z" />
    <glyph glyph-name="afii10072" unicode="&#x436;" horiz-adv-x="1407" 
d="M1366 70q0 -29 -34 -56.5t-70 -27.5t-78 55q-196 278 -389 414v-381q1 -86 -91 -86t-92 86v381q-204 -144 -389 -414q-41 -55 -77 -55t-70.5 27.5t-34.5 56.5q0 55 144 225t278 248q-104 61 -250 218q-147 157 -147 197t33 70.5t69 30.5t68 -43q163 -232 376 -381v338
q0 84 92 84t91 -84v-338q205 141 374 381q37 43 71 43t66.5 -31t32.5 -63q0 -52 -150 -210t-245 -212q154 -87 288 -257q134 -169 134 -216z" />
    <glyph glyph-name="afii10073" unicode="&#x437;" horiz-adv-x="954" 
d="M414 610q235 0 235 142t-221 141q-112 0 -225 -53q-37 -19 -67 -19t-52.5 28.5t-22.5 61.5q0 70 122.5 112t246.5 42q195 0 301.5 -81t106.5 -214q0 -176 -172 -235q97 -15 154 -80t57 -158q0 -147 -116.5 -232t-334.5 -85q-151 0 -269 45t-118 106q0 37 25.5 65.5
t51.5 28.5t72 -20q109 -53 236 -53q264 0 264 153q0 76 -68 108.5t-208 32.5h-88q-88 0 -88 82t88 82h90z" />
    <glyph glyph-name="afii10074" unicode="&#x438;" horiz-adv-x="1147" 
d="M1001 63q0 -42 -21 -58.5t-71 -16.5q-86 0 -86 75v723h-2l-440 -716q-25 -43 -52 -62.5t-73 -19.5q-109 0 -109 112v879q-1 78 89 78t90 -78v-715h2l461 748q30 45 100 45q112 0 112 -117v-877z" />
    <glyph glyph-name="afii10075" unicode="&#x439;" horiz-adv-x="1147" 
d="M1001 63q0 -43 -21 -59t-71 -16q-86 0 -86 75v723h-2l-440 -716q-25 -42 -52 -62t-73 -20q-109 0 -109 112v879q-1 78 89 78t90 -78v-715h2l461 748q30 45 100 45q112 0 112 -117v-877zM572 1193q-128 -1 -204 73t-77 138q-1 30 23 52t58 22t66 -48t58 -68t74 -20t78 15
t61 68t67 53t60 -22q23 -22 23 -52q0 -64 -79 -138q-80 -74 -208 -73z" />
    <glyph glyph-name="afii10076" unicode="&#x43a;" horiz-adv-x="952" 
d="M913 68q0 -28 -35 -55t-73 -27t-74 53q-56 90 -171 214t-226 206v-385q0 -86 -94 -86t-93 86v899q-1 84 93 84t94 -84v-342q221 150 379 383q33 45 67 45t70.5 -30.5t36.5 -58.5q0 -50 -137 -198q-137 -149 -258 -229q152 -98 286 -260q134 -163 135 -215z" />
    <glyph glyph-name="afii10077" unicode="&#x43b;" horiz-adv-x="1006" 
d="M860 68q0 -80 -94 -80t-94 82v772q0 37 -31 37h-188q-29 0 -35 -40t-33 -210.5t-63 -306.5t-80.5 -226t-63 -102t-52.5 -12t-67.5 21t-33.5 47t14 52q79 154 117 309.5t61 335.5t35 213.5t52.5 58.5t119.5 25h266q79 0 124.5 -40.5t45.5 -112.5v-823z" />
    <glyph glyph-name="afii10078" unicode="&#x43c;" horiz-adv-x="1339" 
d="M147 928q1 129 129 129q68 0 101 -61l293 -535q118 210 202 372t116.5 193t90.5 31q115 0 115 -129v-865q0 -75 -88 -75t-88 75v719h-4l-240 -446q-32 -62 -100 -62t-96 44t-121 222t-129 242h-4v-719q0 -75 -88 -75t-89 75v865z" />
    <glyph glyph-name="afii10079" unicode="&#x43d;" horiz-adv-x="1126" 
d="M981 68q0 -80 -93 -80t-93 80v415h-461v-415q0 -80 -94 -80t-93 80v911q-1 78 93 78t94 -78v-330h461v330q0 78 93 78t93 -78v-911z" />
    <glyph glyph-name="afii10080" unicode="&#x43e;" horiz-adv-x="1112" 
d="M557 893q-135 0 -212 -97t-77 -268q0 -172 78 -274t210 -102q134 0 211 102t77 272t-76 268q-76 99 -211 99zM556 -20q-212 0 -344 149t-132 397t132 393q132 146 346 146q214 -1 344 -149t130 -394t-132 -394t-344 -148z" />
    <glyph glyph-name="afii10081" unicode="&#x43f;" horiz-adv-x="1126" 
d="M981 68q0 -80 -93 -80t-93 80v774q0 37 -33 37h-395q-33 0 -33 -37v-774q0 -80 -94 -80t-93 80v823q0 153 168 153h496q78 0 124 -39.5t46 -113.5v-823z" />
    <glyph glyph-name="afii10082" unicode="&#x440;" horiz-adv-x="1130" 
d="M334 614v-184q0 -120 70 -199t190 -79t192 100q74 100 74 273t-73 271t-193 97t-190 -79t-70 -200zM334 -354q0 -78 -94 -78t-93 82v1325q-1 82 93 82t94 -82v-51q90 141 284 141q194 -1 313 -145q118 -144 118 -394q-1 -250 -117 -398t-314 -148t-284 153v-487z" />
    <glyph glyph-name="afii10083" unicode="&#x441;" horiz-adv-x="987" 
d="M926 879q0 -33 -27 -63t-59 -30t-76 35q-96 72 -216 72t-200 -97q-80 -98 -80 -270t80 -273t199 -101q118 0 219 75q44 31 76 31t58 -28q28 -28 28 -60q0 -58 -109 -124t-266 -66q-209 0 -341 150t-132 394q0 246 135 394t350 147q147 -1 254 -63t107 -123z" />
    <glyph glyph-name="afii10084" unicode="&#x442;" horiz-adv-x="860" 
d="M524 879v-811q0 -80 -94 -80t-94 80v811h-240q-84 1 -84 83t84 82h666q86 0 86 -82t-86 -83h-238z" />
    <glyph glyph-name="afii10085" unicode="&#x443;" horiz-adv-x="1034" 
d="M59 973q0 37 28.5 60.5t76.5 23.5q72 0 82 -68q51 -363 286 -801q227 442 291 807q10 62 80 62q41 0 69.5 -18t28.5 -50q0 -75 -68 -298t-176 -449t-175.5 -337.5t-131.5 -186.5q-126 -150 -286 -150t-160 82q0 46 20 76t48 30l88 -14q73 0 135 60.5t141 201.5
q-159 246 -268 547t-109 422z" />
    <glyph glyph-name="afii10086" unicode="&#x444;" horiz-adv-x="1479" 
d="M1210 522q0 178 -99 273.5t-277 95.5v-733q376 6 376 364zM645 891q-173 0 -275 -97.5t-102 -273.5q0 -354 377 -362v733zM80 520q0 240 150.5 386t414.5 157v375q1 82 95 82t94 -82v-375q262 -10 412.5 -156.5t150.5 -387.5t-153.5 -387t-409.5 -148v-332q0 -82 -94 -82
t-95 82v332q-259 2 -412 149t-153 387z" />
    <glyph glyph-name="afii10087" unicode="&#x445;" horiz-adv-x="965" 
d="M913 76q-1 -88 -89 -88t-97 82q-22 178 -238 352q-240 -189 -258 -354q-5 -44 -25 -62t-71 -18q-90 0 -90 92q0 203 307 452q-264 245 -264 439q0 86 89 86t102 -84q18 -150 215 -336q221 201 235 336q11 84 101 84t90 -88q0 -184 -291 -439q284 -243 284 -454z" />
    <glyph glyph-name="afii10088" unicode="&#x446;" horiz-adv-x="1174" 
d="M1124 -190q0 -80 -93 -80t-93 80v153q0 37 -33 37h-590q-168 0 -168 154v823q-1 80 93 80t94 -80v-774q0 -37 33 -37h389q32 0 32 37v774q0 80 94 80t93 -80v-811q149 -6 149 -146v-210z" />
    <glyph glyph-name="afii10089" unicode="&#x447;" horiz-adv-x="1044" 
d="M489 485q222 0 222 273v223q0 76 94 76t94 -76v-915q0 -78 -94 -78t-94 78v360q-87 -113 -249 -113t-248.5 92t-86.5 265v309q0 78 94 78t94 -78v-264q0 -230 174 -230z" />
    <glyph glyph-name="afii10090" unicode="&#x448;" horiz-adv-x="1544" 
d="M1399 154q0 -75 -46 -114.5t-124 -39.5h-914q-168 0 -168 154v825q-1 78 93 78t94 -78v-776q0 -37 33 -37h313v813q0 78 93 78t93 -78v-813h314q32 0 32 37v776q0 78 94 78t93 -78v-825z" />
    <glyph glyph-name="afii10091" unicode="&#x449;" horiz-adv-x="1597" 
d="M1546 23v-213q0 -80 -93 -80t-93 80v153q0 37 -33 37h-1012q-168 0 -168 154v823q-1 80 93 80t94 -80v-774q0 -37 33 -37h313v811q0 80 93 80t93 -80v-811h314q32 0 32 37v774q0 80 94 80t93 -80v-811q147 -11 147 -143z" />
    <glyph glyph-name="afii10092" unicode="&#x44a;" horiz-adv-x="1212" 
d="M756 166q194 0 194 165t-194 165h-215v-291q0 -39 34 -39h181zM778 662q167 0 264 -88t97 -242t-94.5 -243t-266.5 -89h-246q-180 0 -180 172v670q0 37 -30 37h-220q-86 1 -86 83t86 82h269q75 0 122.5 -38t47.5 -115v-229h237z" />
    <glyph glyph-name="afii10093" unicode="&#x44b;" horiz-adv-x="1415" 
d="M1268 66q0 -78 -94 -78t-93 80v911q-1 78 93 78t94 -78v-913zM518 166q195 0 195 165t-195 165h-184v-291q0 -39 35 -39h149zM334 662h207q166 0 262 -87.5t96 -243.5t-94.5 -243.5t-263.5 -87.5h-215q-179 0 -179 172v807q-1 78 93 78t94 -84v-311z" />
    <glyph glyph-name="afii10094" unicode="&#x44c;" horiz-adv-x="987" 
d="M549 166q194 0 194 165t-194 165h-215v-291q0 -39 35 -39h180zM334 662h237q169 0 265 -88t96 -242t-94.5 -243t-266.5 -89h-245q-179 0 -179 172v807q-1 78 93 78t94 -90v-305z" />
    <glyph glyph-name="afii10095" unicode="&#x44d;" horiz-adv-x="987" 
d="M336 442q-88 0 -88 84t88 84h377q-17 130 -95 206.5t-188 76.5t-199 -66q-35 -28 -69 -28t-61 29t-27 63q0 62 109 118t249 56q215 0 345 -145.5t130 -395.5t-128.5 -397t-340.5 -147q-172 0 -276.5 60t-104.5 122q0 29 25.5 58.5t57.5 29.5t79 -33q83 -63 205 -63
t196.5 73.5t90.5 214.5h-375z" />
    <glyph glyph-name="afii10096" unicode="&#x44e;" horiz-adv-x="1495" 
d="M1225 524q0 369 -277 369q-133 0 -205.5 -99.5t-72.5 -267.5t74 -271t206 -103t203.5 98.5t71.5 273.5zM334 479v-411q0 -80 -94 -80t-93 80v917q-1 80 93 80t94 -80v-338h158q30 196 150 307t322 111t325.5 -146.5t123.5 -394.5t-125.5 -396t-331.5 -148t-332 133
t-141 366h-149z" />
    <glyph glyph-name="afii10097" unicode="&#x44f;" horiz-adv-x="1004" 
d="M295 741q0 -161 190 -161h185v262q0 39 -35 39h-152q-188 0 -188 -140zM858 70q0 -80 -94 -80t-94 94v334h-80q-180 0 -344 -387q-22 -45 -67 -45t-79 24t-34 63t87.5 187t190.5 195q-112 24 -173.5 99.5t-61.5 184.5q0 143 95.5 226.5t256.5 83.5h217q180 0 180 -175
v-804z" />
    <glyph glyph-name="afii10071" unicode="&#x451;" horiz-adv-x="1053" 
d="M550 893q-108 0 -182 -72t-89 -200h514q-7 126 -71 199t-172 73zM566 152q122 0 208 59q51 33 81 33q29 0 55 -29t26 -59q0 -68 -120 -122t-251 -54q-225 0 -354 145t-129 389t126 398q126 153 334 153q208 -1 323 -129q116 -128 116 -342q0 -139 -117 -139h-590
q12 -143 91 -223t201 -80zM360 1233q-46 0 -78 33q-32 34 -33 78q0 44 33 77t79 33t78 -33t32 -77q-1 -44 -33 -78q-32 -33 -78 -33zM742 1233q-46 0 -78 32q-32 33 -32 79t33 78t78 32t78 -32t33 -78t-34 -78t-78 -33z" />
    <glyph glyph-name="afii10099" unicode="&#x452;" horiz-adv-x="1139" 
d="M812 -63v720q0 110 -54.5 173t-166.5 63t-184.5 -86t-72.5 -234v-501q0 -84 -93 -84t-93 84v1120h-70q-86 0 -86 83t86 83h70v96q0 82 93 82t93 -82v-96h240q88 0 88 -83t-88 -83h-240v-297q113 170 314 170q165 0 257.5 -103t92.5 -276v-756q0 -362 -326 -362
q-82 0 -134 24t-52 70q0 94 78 94l110 -16q69 0 103.5 43.5t34.5 153.5z" />
    <glyph glyph-name="afii10100" unicode="&#x453;" horiz-adv-x="870" 
d="M764 879h-397q-33 0 -33 -37v-770q0 -84 -94 -84t-93 84v819q0 153 168 153h447q84 0 84 -82t-82 -83zM423 1220q-33 0 -53 24t-20 58t54 78l182 147q46 37 82 37t60 -26t24 -62q0 -35 -57 -80l-195 -143q-45 -33 -77 -33z" />
    <glyph glyph-name="afii10101" unicode="&#x454;" horiz-adv-x="987" 
d="M651 610q88 0 88 -84t-88 -84h-377q13 -132 88.5 -211t185.5 -79t214 69q49 33 79 33t58.5 -27.5t28.5 -60.5q0 -61 -111 -123.5t-266 -62.5q-212 0 -341.5 147t-129.5 394t134.5 395.5t352.5 148.5q141 0 248 -62.5t107 -117.5q0 -36 -26 -65t-60 -29t-76 32
q-94 70 -204 70t-187.5 -75.5t-94.5 -207.5h377z" />
    <glyph glyph-name="afii10102" unicode="&#x455;" horiz-adv-x="920" 
d="M464 -20q-158 0 -272 54q-116 54 -116 126q0 34 25 64t54 30t70 -29q111 -73 215 -73t156 36t51 93q0 57 -43 89t-164 60q-208 48 -280 124t-72 206t108 218t260 87t256 -55q103 -54 103 -113q1 -37 -25 -65t-58 -29q-32 0 -75 28q-89 62 -185 62t-146 -39
q-50 -40 -50 -100t50 -94t216 -71t230 -109t64 -196t-107 -214t-265 -90z" />
    <glyph glyph-name="afii10103" unicode="&#x456;" horiz-adv-x="479" 
d="M334 70q0 -82 -94 -82t-93 82v907q-1 80 93 80t94 -80v-907zM240 1253q-44 0 -76 32q-33 32 -33 78q1 46 33 79t76 33q44 1 78 -33q32 -34 32 -79t-33 -77t-77 -33z" />
    <glyph glyph-name="afii10104" unicode="&#x457;" horiz-adv-x="479" 
d="M334 70q0 -82 -94 -82t-93 82v907q-1 80 93 80t94 -80v-907zM50 1233q-46 0 -78 33q-32 34 -33 78q0 44 33 77t79 33t78 -33t32 -77q-1 -44 -33 -78q-32 -33 -78 -33zM432 1233q-46 0 -78 32q-32 33 -32 79t33 78t78 32t78 -32t33 -78t-34 -78t-78 -33z" />
    <glyph glyph-name="afii10105" unicode="&#x458;" horiz-adv-x="479" 
d="M334 -70q0 -362 -316 -362q-80 0 -132 25t-52 65t20 68t42 28t52 -7t64 -7q135 0 135 197v1040q-1 80 93 80t94 -80v-1047zM240 1253q-44 0 -76 32q-33 32 -33 78q1 46 33 79t76 33q44 1 78 -33q32 -34 32 -79t-33 -77t-77 -33z" />
    <glyph glyph-name="afii10106" unicode="&#x459;" horiz-adv-x="1538" 
d="M866 205q0 -39 35 -39h180q197 0 197 165t-197 165h-215v-291zM1104 662q168 0 264 -89t96 -243t-94.5 -242t-265.5 -88h-244q-180 0 -180 172v670q0 37 -33 37h-188q-22 0 -30.5 -18.5t-20.5 -133.5q-42 -308 -99.5 -478.5t-92 -218.5t-76.5 -48t-74.5 21t-32.5 49
t12 50q127 230 180 642q24 186 35 218.5t51.5 57t118.5 24.5h268q79 0 123.5 -40.5t44.5 -112.5v-229h238z" />
    <glyph glyph-name="afii10107" unicode="&#x45a;" horiz-adv-x="1587" 
d="M1130 166q195 0 195 165t-195 165h-215v-291q0 -39 35 -39h180zM727 496h-393v-428q0 -80 -94 -80t-93 80v911q-1 78 93 78t94 -78v-317h393v317q0 78 94 78t94 -90v-305h238q168 0 264 -89t96 -243t-94.5 -242t-265.5 -88h-246q-180 0 -180 172v324z" />
    <glyph glyph-name="afii10108" unicode="&#x45b;" horiz-adv-x="1139" 
d="M997 72q0 -84 -94 -84t-94 84v581q0 108 -53 172t-166 64t-184.5 -86.5t-71.5 -233.5v-497q0 -84 -94 -84t-93 84v1120h-69q-86 0 -86 83t86 83h69v96q-1 82 93 82t94 -82v-96h239q89 0 89 -83t-89 -83h-239v-297q109 170 311 170q167 0 259.5 -103t92.5 -276v-614z" />
    <glyph glyph-name="afii10109" unicode="&#x45c;" horiz-adv-x="952" 
d="M913 68q0 -28 -35 -54q-35 -28 -73 -28t-74 53q-56 90 -171 214t-226 206v-385q0 -86 -94 -86t-93 86v899q-1 84 93 84t94 -84v-342q221 150 379 383q33 45 67 45q34 -1 71 -31q36 -30 36 -58q0 -50 -137 -198q-137 -149 -258 -229q152 -98 286 -260q134 -163 135 -215z
M460 1212q-32 0 -52 24t-21 58q0 34 54 78l182 147q45 37 81 37t60 -26t25 -62q0 -35 -57 -80l-195 -143q-45 -33 -77 -33z" />
    <glyph glyph-name="afii10110" unicode="&#x45e;" horiz-adv-x="1034" 
d="M59 973q1 37 29 61t76 23q72 0 82 -68q51 -363 286 -801q227 442 291 807q10 62 80 62q41 0 69 -18t29 -50q0 -75 -68 -298t-176 -449q-107 -226 -175 -337q-68 -112 -132 -187q-126 -150 -286 -150t-160 82q0 46 20 76t48 30l88 -14q73 0 135 60t141 202
q-159 246 -268 547t-109 422zM536 1214q-128 0 -206 74q-76 74 -76 137q0 30 24 52t56 22q34 -1 66 -49t60 -68q26 -20 73 -19q47 0 77 15t62 68t68 53q36 1 59 -21t23 -53q0 -63 -79 -137t-207 -74z" />
    <glyph glyph-name="afii10193" unicode="&#x45f;" horiz-adv-x="1122" 
d="M975 145q0 -145 -168 -145h-117q-31 0 -31 -37v-131q0 -80 -94 -80t-94 80v131q0 37 -31 37h-125q-168 0 -168 145v830q-1 82 93 82t94 -82v-772q0 -37 33 -37h389q32 0 32 37v772q0 82 94 82t93 -82v-830z" />
    <glyph glyph-name="afii10050" unicode="&#x490;" horiz-adv-x="995" 
d="M979 1382q0 -170 -180 -170h-402q-32 0 -32 -36v-1104q1 -90 -95 -90t-96 90v1151q0 78 45 124t125 46h410q34 0 34 34v226q0 90 96 90t95 -90v-271z" />
    <glyph glyph-name="afii10098" unicode="&#x491;" horiz-adv-x="870" 
d="M846 1044q0 -80 -48.5 -122.5t-129.5 -42.5h-301q-33 0 -33 -37v-770q0 -84 -94 -84t-93 84v819q0 153 168 153h310q34 0 34 35v195q-1 84 93 84t94 -84v-230z" />
    <glyph glyph-name="figuredash" unicode="&#x2012;" horiz-adv-x="1026" 
d="M856 438h-686q-94 0 -94 81t94 81h686q94 0 94 -81t-94 -81z" />
    <glyph glyph-name="endash" unicode="&#x2013;" horiz-adv-x="999" 
d="M836 465h-672q-92 0 -92 86t92 86h672q92 0 92 -86t-92 -86z" />
    <glyph glyph-name="emdash" unicode="&#x2014;" horiz-adv-x="1602" 
d="M1438 467h-1274q-92 0 -92 86t92 86h1274q92 0 92 -86t-92 -86z" />
    <glyph glyph-name="quoteleft" unicode="&#x2018;" horiz-adv-x="416" 
d="M276 1409q78 0 78 -70q0 -34 -22 -73q-56 -114 -56 -260q0 -91 -90 -91t-90 99q0 123 57 259t123 136z" />
    <glyph glyph-name="quoteright" unicode="&#x2019;" horiz-adv-x="416" 
d="M141 913q-34 0 -57 20.5t-23 52.5t23 73q55 110 55 260q0 88 90 88t90 -96q0 -121 -57.5 -259.5t-120.5 -138.5z" />
    <glyph glyph-name="quotesinglbase" unicode="&#x201a;" horiz-adv-x="426" 
d="M141 -260q-34 0 -57 21t-23 51t23 73q55 110 55 260q0 88 90 88t90 -96q0 -122 -57.5 -259.5t-120.5 -137.5z" />
    <glyph glyph-name="quotedblleft" unicode="&#x201c;" horiz-adv-x="768" 
d="M629 1409q34 0 56 -19.5t22 -51.5t-23 -72q-55 -112 -55 -260q0 -91 -90 -91t-90 99q0 123 55.5 259t124.5 136zM276 1409q78 0 78 -70q0 -34 -22 -73q-56 -114 -56 -260q0 -91 -90 -91t-90 99q0 121 56.5 258t123.5 137z" />
    <glyph glyph-name="quotedblright" unicode="&#x201d;" horiz-adv-x="768" 
d="M141 913q-34 0 -57 20.5t-23 52.5t23 73q55 110 55 260q0 88 90 88t90 -96q0 -131 -58.5 -264.5t-119.5 -133.5zM492 913q-35 0 -56.5 20.5t-21.5 54.5t22 71q56 112 56 260q0 88 90 88t90 -96q0 -129 -58.5 -263.5t-121.5 -134.5z" />
    <glyph glyph-name="quotedblbase" unicode="&#x201e;" horiz-adv-x="752" 
d="M141 -260q-34 0 -57 20t-23 50t23 73q55 110 55 260q0 88 90 88t90 -96q0 -124 -57 -259.5t-121 -135.5zM492 -260q-78 0 -78 70q0 31 22 73q56 112 56 260q0 88 90 88t90 -96q0 -127 -57.5 -261t-122.5 -134z" />
    <glyph glyph-name="dagger" unicode="&#x2020;" horiz-adv-x="977" 
d="M578 897v-1040q0 -90 -90 -90t-89 90v1040h-217q-96 0 -96 85t96 85h217v360q-1 89 89 89t90 -89v-360h217q96 0 96 -85t-96 -85h-217z" />
    <glyph glyph-name="daggerdbl" unicode="&#x2021;" horiz-adv-x="977" 
d="M578 936v-578h217q96 0 96 -85t-96 -85h-217v-331q0 -90 -90 -90t-89 90v331h-217q-96 0 -96 85t96 85h217v578h-217q-96 0 -96 86t96 86h217v319q-1 89 89 89t90 -89v-319h217q96 0 96 -86t-96 -86h-217z" />
    <glyph glyph-name="bullet" unicode="&#x2022;" horiz-adv-x="965" 
d="M483 338q-135 0 -231 96t-96 230t96 230.5t230 96.5t230.5 -96.5t96.5 -230.5t-95.5 -230t-230.5 -96z" />
    <glyph glyph-name="onedotenleader" unicode="&#x2024;" horiz-adv-x="999" 
d="M500 -20q-54 0 -90.5 35t-36.5 91t36.5 91.5t90.5 35.5t90.5 -37t36.5 -90t-36.5 -89.5t-90.5 -36.5z" />
    <glyph glyph-name="twodotenleader" unicode="&#x2025;" horiz-adv-x="999" 
d="M750 -20q-54 0 -90.5 35t-36.5 91t36.5 91.5t90.5 35.5t90.5 -37t36.5 -90t-36.5 -89.5t-90.5 -36.5zM250 -20q-54 0 -90.5 35t-36.5 91t36.5 91.5t90.5 35.5t90.5 -37.5t36.5 -89.5t-36.5 -89t-90.5 -37z" />
    <glyph glyph-name="ellipsis" unicode="&#x2026;" horiz-adv-x="1335" 
d="M1106 -20q-52 0 -84.5 33t-32.5 85t32.5 86.5t84.5 34.5t87.5 -34t35.5 -85t-35.5 -85.5t-87.5 -34.5zM663 -20q-52 0 -84 33t-32 85t32 86.5t84 34.5t87.5 -33.5t35.5 -85.5t-35.5 -86t-87.5 -34zM223 -20q-52 0 -84.5 33t-32.5 85t32 86.5t84 34.5t88 -33.5t36 -85.5
t-35.5 -86t-87.5 -34z" />
    <glyph glyph-name="perthousand" unicode="&#x2030;" horiz-adv-x="2662" 
d="M2214 647q-172 0 -172 -260q0 -118 45 -191t129 -73t127 73t43 191q0 260 -172 260zM2214 -20q-156 0 -247 114t-91 294t90 292.5t248 112.5t248 -111.5t90 -293.5t-91 -295t-247 -113zM1604 387q0 260 -172 260t-172 -260q0 -122 44 -193t128 -71t128 72t44 192z
M1430 -20q-155 0 -245.5 113t-90.5 295t89 293.5t246 111.5t247.5 -110.5t90.5 -294.5t-91 -296t-246 -112zM509 -20q-34 0 -60.5 21t-26.5 45t55 110l823 1216q28 41 65 41t61 -21.5t24 -47.5t-23 -60l-849 -1253q-35 -51 -69 -51zM444 1270q-84 0 -128 -69.5t-44 -190.5
t45 -194t127 -73t127 69.5t45 195.5q0 262 -172 262zM446 600q-158 0 -249 115t-91 295t90 291.5t250 111.5t248 -113.5t88 -291.5t-89 -293t-247 -115z" />
    <glyph glyph-name="guilsinglleft" unicode="&#x2039;" horiz-adv-x="760" 
d="M688 180q0 -24 -27 -52t-55 -28t-46 11.5t-145 120.5l-215 184q-87 75 -98.5 91.5t-11.5 46.5t37 67l410 350q35 30 63 30t58 -26.5t30 -58.5t-39 -64l-352 -303q9 -9 185 -155t191 -168t15 -46z" />
    <glyph glyph-name="guilsinglright" unicode="&#x203a;" horiz-adv-x="760" 
d="M70 916q0 30 28 57.5t55 27.5t45 -11t141 -117l213 -184q89 -76 102.5 -95.5t13.5 -43.5t-19.5 -48.5t-197.5 -174.5l-221 -188q-42 -39 -72 -39t-59 27t-29 52t10 41t123 113l256 220l-353 299q-36 34 -36 64z" />
    <glyph glyph-name="fraction" unicode="&#x2044;" horiz-adv-x="279" 
d="M-296 -20q-26 0 -51.5 22t-25.5 46t18 53.5t367 542.5l394 579q118 172 132 181t41 9q26 0 52 -22.5t26 -48.5t-34 -76l-742 -1090q-119 -176 -135 -186t-42 -10z" />
    <glyph glyph-name="zerosuperior" unicode="&#x2070;" 
d="M550 977q0 305 -154 305t-154 -305t154 -305t154 305zM396 541q-146 0 -228 119.5t-82 316.5t81.5 316.5t228.5 119.5t228 -118.5t81 -316.5t-81.5 -317.5t-227.5 -119.5z" />
    <glyph glyph-name="foursuperior" unicode="&#x2074;" 
d="M611 732v-113q-1 -69 -73 -69t-72 69v113h-277q-117 0 -117 102q0 40 23 82l221 439q25 49 59 49t58 -18.5t24 -43.5t-22 -67l-205 -408h236v268q0 68 72 68t73 -68v-268h37q71 1 71 -67t-71 -68h-37z" />
    <glyph glyph-name="fivesuperior" unicode="&#x2075;" 
d="M512 813q0 143 -147 143q-44 0 -82 -12t-66 -12q-57 0 -57 58t21 242l7 75q10 86 103 86h289q59 0 59 -68t-59 -68h-244q-16 0 -19 -14l-18 -170q47 14 90 14q131 0 204 -70.5t73 -193.5t-85.5 -202.5t-193.5 -79.5t-183 37.5t-75 85.5q0 29 18.5 50t42.5 21t46 -18
q62 -47 129 -47t107 40.5t40 102.5z" />
    <glyph glyph-name="sixsuperior" unicode="&#x2076;" 
d="M263 834q0 -164 135 -164q64 0 102 44t38 114t-36.5 107.5t-96.5 37.5t-101 -39t-41 -100zM101 891q0 522 379 522q152 0 152 -72q0 -26 -15 -50.5t-32 -24.5t-42 8t-71 8q-92 0 -150.5 -67t-68.5 -189q69 76 179 76t182.5 -74t72.5 -196t-81 -206.5t-214 -84.5t-212 93
t-79 257z" />
    <glyph glyph-name="sevensuperior" unicode="&#x2077;" 
d="M473 1257h-280q-60 0 -60 68t60 68h374q51 0 76 -26.5t25 -69.5t-37 -93q-93 -133 -170.5 -309t-87.5 -289q-4 -65 -72 -65q-29 0 -51.5 17t-22.5 48q0 102 77.5 285.5t174.5 327.5q13 21 13 29t-19 9z" />
    <glyph glyph-name="eightsuperior" unicode="&#x2078;" 
d="M395 936q-64 0 -101.5 -39t-37.5 -94t37 -94t103 -39t103.5 40.5t37.5 95.5t-39 92.5t-103 37.5zM396 1284q-49 0 -81 -28.5t-32 -78.5t30.5 -81t82.5 -31t83 32t31 81t-32.5 77.5t-81.5 28.5zM104 795q0 147 136 211q-107 58 -107 169t75 174.5t188 63.5t188 -64.5
t75 -172.5t-108 -170q137 -58 137 -211q0 -110 -84 -182t-208 -72t-208 71t-84 183z" />
    <glyph glyph-name="ninesuperior" unicode="&#x2079;" 
d="M526 1120q0 164 -135 164q-63 0 -101 -44t-38 -114t36 -107.5t97 -37.5t101 39.5t40 99.5zM688 1063q0 -522 -379 -522q-151 0 -151 71q0 31 15.5 52.5t37.5 21.5l106 -16q89 0 148.5 65t71.5 193q-69 -76 -181 -76t-183 75t-71 195t80.5 205.5t214.5 85.5t212.5 -93.5
t78.5 -256.5z" />
    <glyph glyph-name="parenleftsuperior" unicode="&#x207d;" horiz-adv-x="338" 
d="M283 457q0 -51 -74 -51q-30 0 -56.5 31.5t-63 199t-36.5 328.5t37 331.5t62 199t56 28.5t53 -17t22 -41t-13 -59q-67 -187 -67 -437t67 -460q13 -22 13 -53z" />
    <glyph glyph-name="parenrightsuperior" unicode="&#x207e;" horiz-adv-x="338" 
d="M285 974q0 -152 -40 -362q-41 -210 -113 -211q-34 0 -55.5 15.5t-21.5 37.5t13 54q69 208 69 452t-67 445q-15 36 -15 59t22.5 40.5t54.5 17.5t57 -29t60.5 -198t35.5 -321z" />
    <glyph glyph-name="nsuperior" unicode="&#x207f;" horiz-adv-x="782" 
d="M418 1130q-174 0 -174 -200v-322q0 -59 -74 -59t-74 59v598q0 58 74 58t74 -58v-49q73 113 197 113t189.5 -71t65.5 -187v-404q0 -59 -74 -59t-73 59v381q0 141 -131 141z" />
    <glyph glyph-name="zeroinferior" unicode="&#x2080;" 
d="M549 411q1 305 -153 305t-154 -305t154 -305t153 305zM396 -25q-146 -1 -228 119t-82 317t82 317t228 119q147 -1 228 -119t81 -316q1 -198 -81 -317q-82 -120 -228 -120z" />
    <glyph glyph-name="oneinferior" unicode="&#x2081;" 
d="M188 611q-28 0 -44 21q-16 20 -17 46q0 26 17 41t90 53q74 38 104 55t59 17q76 0 76 -82v-631h102q74 0 74 -63q0 -68 -76 -68h-360q-74 0 -74 66t74 65h115v549q-6 -2 -16 -8l-45 -27q-51 -34 -79 -34z" />
    <glyph glyph-name="twoinferior" unicode="&#x2082;" 
d="M272 140h310q73 0 73 -70t-73 -70h-326q-129 0 -129 117q0 78 52 146q52 67 162 143q109 76 139 114t30 87q0 100 -109 100q-53 0 -109 -38t-79 -38t-43 23t-20 51q0 43 82 91t190 48t175 -63t67 -174q0 -153 -209 -287q-183 -117 -183 -180z" />
    <glyph glyph-name="threeinferior" unicode="&#x2083;" 
d="M211 694q-68 0 -68 69t68 69h330q106 0 106 -90q0 -54 -53 -109l-121 -135q193 -38 193 -242q0 -112 -84 -194t-198 -82t-188 40t-75 76q-1 34 21 56t44 22t54 -20q56 -43 123 -43t108 40t41 103q0 133 -160 133q-65 0 -65 62q0 25 32 65l156 180h-264z" />
    <glyph glyph-name="fourinferior" unicode="&#x2084;" 
d="M600 170v-113q0 -69 -72 -69t-73 69v113h-277q-117 0 -117 102q0 40 23 82l221 439q25 49 59 49t58 -18t24 -44q0 -25 -22 -67l-205 -408h236v268q1 68 73 68t72 -68v-268h37q71 1 71 -67t-71 -68h-37z" />
    <glyph glyph-name="fiveinferior" unicode="&#x2085;" 
d="M512 252q0 143 -147 143q-44 0 -82 -12t-66 -12q-57 -1 -57 57t21 243l7 75q10 86 103 86h289q59 0 59 -68t-59 -68h-244q-16 0 -19 -14l-18 -170q47 14 90 14q131 0 204 -70t73 -194q0 -122 -86 -202t-193 -80q-108 0 -183 38t-75 85q1 29 19 50t42 21t46 -18
q62 -47 129 -47q67 1 107 41t40 102z" />
    <glyph glyph-name="sixinferior" unicode="&#x2086;" 
d="M263 273q0 -164 135 -164q64 -1 102 43t38 114t-36 108t-97 38q-60 0 -101 -39t-41 -100zM101 330q0 522 379 522q152 0 152 -72q0 -26 -15 -50t-32 -25q-17 0 -42 8t-71 8q-92 0 -150 -67t-69 -189q69 76 179 76t182 -74t73 -196q0 -123 -81 -207t-214 -84t-212 93
t-79 257z" />
    <glyph glyph-name="seveninferior" unicode="&#x2087;" 
d="M473 696h-280q-60 0 -60 68t60 68h374q51 0 76 -26t25 -70q0 -43 -37 -93q-93 -133 -171 -309t-87 -289q-4 -65 -72 -65q-29 0 -51 17t-23 48q-1 101 77 285t175 328q13 22 13 30t-19 8z" />
    <glyph glyph-name="eightinferior" unicode="&#x2088;" 
d="M395 375q-63 0 -101 -39t-38 -94t37 -94t103 -39q66 1 103 41q38 40 38 95t-39 93t-103 37zM396 723q-49 -1 -81 -29t-32 -78t31 -81q30 -31 82 -31t83 32t31 81t-32 77t-82 29zM104 234q0 147 136 211q-107 58 -107 169q0 110 75 174t188 64t188 -64t75 -172t-108 -171
q137 -58 137 -211q0 -110 -84 -182t-208 -72t-208 71t-84 183z" />
    <glyph glyph-name="nineinferior" unicode="&#x2089;" 
d="M526 559q0 164 -135 164q-63 -1 -101 -45t-38 -114t36 -106q36 -38 97 -38t101 40t40 99zM688 502q0 -522 -379 -522q-151 0 -151 71q0 31 16 53t37 21l106 -16q89 0 149 65t71 193q-69 -76 -181 -76t-182 75q-72 75 -72 195q0 119 80 205t215 86t213 -94t78 -256z" />
    <glyph glyph-name="parenleftinferior" unicode="&#x208d;" horiz-adv-x="338" 
d="M283 -133q0 -51 -74 -51q-31 0 -57 32t-62 198q-36 168 -37 329q0 161 37 331t62 200q25 28 56 28t53 -17t22 -41t-13 -59q-67 -187 -67 -437t67 -460q13 -22 13 -53z" />
    <glyph glyph-name="parenrightinferior" unicode="&#x208e;" horiz-adv-x="338" 
d="M285 389q0 -153 -40 -363q-41 -210 -113 -210q-34 0 -56 16t-21 38q0 22 13 53q69 207 69 451t-67 446q-15 36 -15 59q1 23 23 41t54 17q32 0 56 -29q26 -29 62 -198t35 -321z" />
    <glyph glyph-name="colonmonetary" unicode="&#x20a1;" horiz-adv-x="1217" 
d="M283 692q0 -261 98 -395l176 920q-123 -43 -198.5 -185.5t-75.5 -339.5zM719 1235h-25l-192 -1024q60 -34 123 -45l200 1059q-46 10 -106 10zM92 690q0 279 132 469t364 240q25 127 36 149.5t44 22.5q75 0 75 -58q0 -18 -4 -36l-14 -64q73 0 131 -12l23 106q14 64 57 64
q76 0 76 -58q0 -20 -4 -38l-23 -111q158 -76 158 -150q0 -35 -27.5 -64.5t-57.5 -29.5t-65 27l-43 22l-190 -1005l22 2q94 9 234 104q34 23 64 23t54.5 -27.5t24.5 -58.5q0 -74 -147.5 -152.5t-284.5 -70.5q-21 -124 -31.5 -146t-46.5 -22q-78 0 -78 51q0 24 8 57t13 66
q-63 9 -123 35l-29 -144q-13 -65 -59 -65q-78 0 -78 51q0 13 6 45l35 176q-252 188 -252 602z" />
    <glyph glyph-name="Euro" unicode="&#x20ac;" horiz-adv-x="1212" 
d="M784 152q110 0 232 69q48 31 72 31t47.5 -28t23.5 -58q0 -63 -119 -124.5t-272 -61.5q-421 0 -522 471h-105q-90 -1 -90 79t90 80h86l-2 37v89q0 23 2 46h-86q-90 0 -90 81t90 81h113q57 226 202 347.5t343 121.5q154 0 258 -57.5t104 -114.5q0 -35 -26.5 -64.5
t-54.5 -29.5t-104 47t-177 47q-262 0 -353 -297h465q93 0 93 -81t-93 -81h-493q-4 -27 -4 -92v-41q0 -20 2 -39h399q90 0 90 -75q0 -84 -90 -84h-375q73 -299 344 -299z" />
    <glyph glyph-name="afii61352" unicode="&#x2116;" horiz-adv-x="2050" 
d="M1860 463h-433q-88 0 -88 80q0 46 19.5 63t68.5 17h433q49 0 67.5 -17t18.5 -63q0 -80 -86 -80zM1145 100q0 -112 -121 -112q-77 0 -115 69l-549 1045h-4v-1030q0 -84 -91 -84t-91 84v1200q0 133 131 133q50 0 74.5 -21t60.5 -90l518 -993h5v1018q0 86 91 86t91 -86
v-1219zM1632 1262q-164 0 -164 -211q0 -94 45 -151.5t119 -57.5t118 54t44 156t-43.5 156t-118.5 54zM1632 692q-154 0 -246 99t-92 263t89 261.5t249 97.5t248 -93.5t88 -259.5t-91 -267t-245 -101z" />
    <glyph glyph-name="trademark" unicode="&#x2122;" horiz-adv-x="1663" 
d="M416 1262v-627q0 -68 -74 -68t-74 68v627h-159q-72 0 -72 68t72 67h466q41 0 55.5 -15.5t14.5 -52.5q0 -67 -70 -67h-159zM1520 635q0 -68 -71 -68t-71 68v520h-4l-151 -270q-27 -49 -80 -49t-80 49l-148 264h-4v-514q-1 -68 -71 -68t-70 68v674q0 92 84 92q55 0 86 -53
l205 -359l207 361q29 51 84 51q84 0 84 -92v-674z" />
    <glyph glyph-name="Ohm" unicode="&#x2126;" horiz-adv-x="1573" 
d="M150 822q0 176 79.5 340.5t231 252.5t347.5 88q336 0 516 -254q131 -186 131 -448q0 -312 -195 -520q-53 -58 -149 -121l364 6v-166h-575v177q80 39 138 89t133.5 177t75.5 334q0 138 -49.5 277.5t-150 212.5t-243.5 73q-191 0 -296 -120q-146 -169 -146 -440
q0 -217 91 -372.5t251 -227.5v-180h-577v168l369 -8q-108 67 -165 130q-181 200 -181 532z" />
    <glyph glyph-name="onethird" unicode="&#x2153;" horiz-adv-x="1823" 
d="M188 1180q-28 0 -44 21t-17 47q0 26 17 40q17 15 90 53q74 38 104 55t59 17q76 0 76 -82v-631h102q74 0 74 -63q0 -68 -76 -68h-360q-74 -1 -74 65t74 66h115v549q-6 -2 -16 -8l-45 -27q-51 -34 -79 -34zM476 -20q-26 0 -51 22q-26 22 -26 46t18 54t367 542l394 579
q118 172 132 181t41 9q26 0 52 -23q26 -22 26 -48t-34 -76l-742 -1090q-119 -176 -135 -186t-42 -10zM1245 685q-68 0 -68 69t68 69h330q106 0 106 -90q0 -54 -53 -109l-121 -135q193 -38 193 -242q0 -113 -84 -195t-198 -81t-188 41t-75 74t21 57q22 22 44 22t54 -20
q56 -43 123 -43t108 40t41 103q0 133 -160 133q-65 0 -65 62q0 25 32 65l156 180h-264z" />
    <glyph glyph-name="twothirds" unicode="&#x2154;" horiz-adv-x="1823" 
d="M272 709h310q73 0 73 -70t-73 -70h-326q-129 0 -129 117q0 78 52 146t162 144q109 76 139 114t30 86q0 100 -109 100q-53 0 -109 -38t-79 -38t-43 23t-20 51q0 44 82 92t190 47q108 0 175 -63t67 -174q0 -153 -209 -287q-183 -117 -183 -180zM476 -20q-26 0 -51 22
q-26 22 -26 46t18 54t367 542l394 579q118 172 132 181t41 9q26 0 52 -23q26 -22 26 -48t-34 -76l-742 -1090q-119 -176 -135 -186t-42 -10zM1245 685q-68 0 -68 69t68 69h330q106 0 106 -90q0 -54 -53 -109l-121 -135q193 -38 193 -242q0 -113 -84 -195t-198 -81t-188 41
t-75 74t21 57q22 22 44 22t54 -20q56 -43 123 -43t108 40t41 103q0 133 -160 133q-65 0 -65 62q0 25 32 65l156 180h-264z" />
    <glyph glyph-name="oneeighth" unicode="&#x215b;" horiz-adv-x="1825" 
d="M188 1180q-28 0 -44 21t-17 47q0 26 17 40q17 15 90 53q74 38 104 55t59 17q76 0 76 -82v-631h102q74 0 74 -63q0 -68 -76 -68h-360q-74 -1 -74 65t74 66h115v549q-6 -2 -16 -8l-45 -27q-51 -34 -79 -34zM488 -20q-26 0 -52 22t-26 46t18 54t367 542l394 579
q119 172 133 181t40 9t52 -23q26 -22 26 -48t-34 -76l-742 -1090q-119 -176 -135 -186q-15 -10 -41 -10zM1417 366q-63 0 -101 -39t-38 -94t37 -94t103 -39t103 40q38 40 38 96q0 54 -39 92t-103 38zM1418 714q-49 0 -81 -28t-32 -79q0 -50 31 -81q30 -31 82 -31t83 32
t31 81q0 50 -32 78t-82 28zM1126 225q0 147 136 211q-107 58 -107 169t75 175t188 63t188 -65t75 -172t-108 -170q137 -58 137 -211q0 -110 -84 -182t-208 -72t-208 71t-84 183z" />
    <glyph glyph-name="threeeighths" unicode="&#x215c;" horiz-adv-x="1821" 
d="M211 1255q-68 0 -68 69t68 69h330q106 0 106 -90q0 -54 -53 -109l-121 -135q193 -38 193 -242q0 -113 -84 -195t-198 -81t-188 41t-75 74t21 57q22 22 44 22t54 -20q56 -43 123 -43t108 40t41 103q0 133 -160 133q-65 0 -65 62q0 25 32 65l156 180h-264zM480 -20
q-26 0 -51 22q-26 22 -26 46t18 54t367 542l394 579q118 172 132 181t41 9q26 0 52 -23q26 -22 26 -48t-34 -76l-742 -1090q-119 -176 -135 -186t-42 -10zM1411 366q-63 0 -101 -39t-38 -94t37 -94t103 -39t103 40q38 40 38 96q0 54 -39 92t-103 38zM1412 714q-49 0 -81 -28
t-32 -79q0 -50 31 -81q30 -31 82 -31t83 32t31 81q0 50 -32 78t-82 28zM1120 225q0 147 136 211q-107 58 -107 169t75 175t188 63t188 -65t75 -172t-108 -170q137 -58 137 -211q0 -110 -84 -182t-208 -72t-208 71t-84 183z" />
    <glyph glyph-name="fiveeighths" unicode="&#x215d;" horiz-adv-x="1825" 
d="M514 813q0 143 -147 143q-44 0 -82 -12t-66 -12q-57 0 -57 58t21 242l7 75q10 86 103 86h289q59 0 59 -68t-59 -68h-244q-16 0 -19 -14l-18 -170q47 14 90 14q131 -1 204 -71t73 -193t-86 -203t-193 -79q-108 -1 -183 37t-75 86q1 29 19 50t42 21t46 -18q62 -47 129 -47
t107 40t40 103zM488 -20q-26 0 -52 22t-26 46t18 54t367 542l394 579q119 172 133 181t40 9t52 -23q26 -22 26 -48t-34 -76l-742 -1090q-119 -176 -135 -186q-15 -10 -41 -10zM1417 366q-63 0 -101 -39t-38 -94t37 -94t103 -39t103 40q38 40 38 96q0 54 -39 92t-103 38z
M1418 714q-49 0 -81 -28t-32 -79q0 -50 31 -81q30 -31 82 -31t83 32t31 81q0 50 -32 78t-82 28zM1126 225q0 147 136 211q-107 58 -107 169t75 175t188 63t188 -65t75 -172t-108 -170q137 -58 137 -211q0 -110 -84 -182t-208 -72t-208 71t-84 183z" />
    <glyph glyph-name="seveneighths" unicode="&#x215e;" horiz-adv-x="1612" 
d="M414 1257h-280q-60 0 -60 68t60 68h374q51 -1 76 -27t25 -69t-37 -93q-92 -133 -170 -309t-88 -289q-4 -65 -72 -65q-30 0 -52 17t-22 48q0 102 78 286t174 327q13 21 13 29t-19 9zM244 -20q-26 0 -52 22t-26 46t18 54t367 542l394 579q119 172 133 181t40 9t52 -23
q26 -22 26 -48t-34 -76l-742 -1090q-119 -176 -135 -186q-15 -10 -41 -10zM1186 366q-64 0 -102 -39t-37 -94q0 -55 37 -94q36 -39 102 -39t104 40t38 96q0 54 -39 92t-103 38zM1187 714q-49 0 -81 -28t-32 -79q0 -50 31 -81t83 -31t82 32q31 32 31 81q-1 50 -33 78t-81 28z
M895 225q0 147 136 211q-107 58 -107 169t75 175t188 63t188 -65t75 -172t-108 -170q137 -58 137 -211q0 -110 -84 -182q-85 -72 -209 -72t-208 71t-83 183z" />
    <glyph glyph-name="partialdiff" unicode="&#x2202;" horiz-adv-x="1012" 
d="M236 324q0 -104 51 -158t123 -54t156 55q240 156 288 629q-244 -14 -357.5 -68t-187 -177t-73.5 -227zM653 1363q-143 0 -227 -225l-135 60q70 157 168 225t183 68q161 0 246 -142q85 -143 85 -427t-86.5 -508.5t-233.5 -331.5t-287 -107t-225 91t-85 256q0 226 153 387
q197 207 649 215q-4 168 -24 256t-68 135.5t-113 47.5z" />
    <glyph glyph-name="uni2206" unicode="&#x2206;" horiz-adv-x="1253" 
d="M991 82l-399 967l-440 -967h839zM1227 0h-1200l628 1386z" />
    <glyph glyph-name="product" unicode="&#x220f;" horiz-adv-x="1686" 
d="M161 1491h1362v-1922h-191v1748h-978v-1748h-193v1922z" />
    <glyph glyph-name="summation" unicode="&#x2211;" horiz-adv-x="1460" 
d="M139 1491h1237v-164h-988l607 -775l-649 -822h1040v-161h-1264v187l620 788l-603 772v175z" />
    <glyph glyph-name="minus" unicode="&#x2212;" horiz-adv-x="1161" 
d="M987 436h-813q-44 0 -68 16t-24 68t22 69t70 17h813q51 0 70.5 -17t19.5 -65t-18.5 -68t-71.5 -20z" />
    <glyph glyph-name="radical" unicode="&#x221a;" horiz-adv-x="1124" 
d="M1124 1870l-311 -1948l-496 1022l-198 -92l-35 63l301 152l403 -823h5l258 1626h73z" />
    <glyph glyph-name="infinity" unicode="&#x221e;" horiz-adv-x="1460" 
d="M393 873q-51 0 -89.5 -40.5t-38.5 -112.5t40 -114.5t97 -42.5q101 0 218 153q-80 100 -128 128.5t-99 28.5zM1030 499q66 0 117.5 56t51.5 160t-52.5 160t-116.5 56q-64 1 -114 -33t-158 -181q87 -135 159 -185q47 -33 113 -33zM1030 1044q97 0 188.5 -76t91.5 -245
q0 -118 -34 -185.5t-106 -108.5t-154 -41t-152 50t-175 182q-136 -171 -289 -171q-101 0 -173.5 76.5t-72.5 190.5t72.5 190.5t173.5 76.5q153 0 289 -171q105 132 175 182t166 50z" />
    <glyph glyph-name="integral" unicode="&#x222b;" horiz-adv-x="561" 
d="M561 1754q0 -28 -19 -64.5t-65 -36.5q-46 -1 -76 27t-49 28q-41 0 -41 -54q-1 -54 23 -301q24 -246 24 -519l-2 -121l-14 -471q-11 -338 -87 -399.5t-133 -61.5t-89.5 33.5t-32.5 82.5t25 76t66 27t69 -32t49 -31q39 0 39 61q0 37 -15 163t-23 359t-9 375l16 553
q6 191 66 317q19 40 63.5 69.5t81.5 29.5t67.5 -15t48 -41t17.5 -54z" />
    <glyph glyph-name="approxequal" unicode="&#x2248;" horiz-adv-x="1124" 
d="M797 378q-60 0 -114 14t-172.5 67t-190.5 53t-128.5 -27.5t-140.5 -108.5v205q106 120 278 120q111 0 247 -58t170.5 -67t84.5 -9t119.5 39t123.5 98v-212q-122 -114 -277 -114zM797 740q-60 0 -114 13.5t-172.5 67t-190.5 53.5t-128.5 -27.5t-140.5 -108.5v205
q106 120 278 120q112 -1 248 -59q135 -58 169.5 -66.5t84.5 -8.5t119.5 39t123.5 98v-212q-122 -114 -277 -114z" />
    <glyph glyph-name="notequal" unicode="&#x2260;" horiz-adv-x="1124" 
d="M78 417v168h356l122 277h-478v168h551l196 444h134l-195 -444h282v-168h-356l-121 -277h477v-168h-551l-194 -445h-136l195 445h-282z" />
    <glyph glyph-name="lessequal" unicode="&#x2264;" horiz-adv-x="1124" 
d="M1046 106h-968v167h968v-167zM77 762v168l971 410v-180l-770 -315l770 -319v-179z" />
    <glyph glyph-name="greaterequal" unicode="&#x2265;" horiz-adv-x="1124" 
d="M1046 106h-968v167h968v-167zM1048 762l-971 -415v179l769 319l-769 315v180l971 -410v-168z" />
    <glyph glyph-name="lozenge" unicode="&#x25ca;" horiz-adv-x="1012" 
d="M495 1325l-340 -616l340 -615l359 615zM549 1422l418 -713l-418 -709h-111l-391 709l391 713h111z" />
    <glyph glyph-name="uniF001" unicode="&#xf001;" horiz-adv-x="1112" 
d="M612 1362q-223 0 -223 -244v-74h492q86 0 86 -79v-895q-1 -82 -95 -82t-94 82v813h-389v-813q0 -82 -94 -82t-94 82v813h-86q-86 1 -86 81t86 80h86v89q-1 191 117 297t307 106q107 0 213 -42t106 -97q0 -39 -24 -70t-49 -31t-103 33t-156 33z" />
    <glyph glyph-name="uniF002" unicode="&#xf002;" horiz-adv-x="1112" 
d="M967 70q0 -82 -97 -82q-44 0 -64 16t-24 34t-3 332v551l-1 429q-78 22 -160 22q-229 0 -229 -227v-101h162q84 0 84 -80t-84 -81h-162v-813q0 -82 -94 -82t-94 82v813h-86q-86 1 -86 81t86 80h86v101q0 187 112 289t308 102q89 0 183 -18t128 -42q34 -25 35 -75v-1331z
" />
    <glyph glyph-name="pi1" unicode="&#xf006;" horiz-adv-x="1294" 
d="M811 879h-311v-543q0 -172 -68 -264t-184 -92q-36 0 -60 26t-24 66t47 59q59 27 81 75t21 128v545h-12q-101 0 -147 -60q-32 -35 -64 -35t-58 28t-26 58q0 56 84 115t248 59h838q79 0 79 -82t-79 -83h-179v-592q0 -142 95 -142q24 -1 53 11t53 12t41 -26q18 -26 18 -66
q1 -40 -53 -68t-137 -28q-256 0 -256 311v588z" />
    <glyph glyph-name="commaaccent" unicode="&#xf6c3;" horiz-adv-x="930" 
d="M451 -471q-38 0 -60 20.5t-22 41.5t5 33q23 63 23 175q-1 90 91 90t92 -101t-35 -180t-94 -79z" />
    <glyph glyph-name="onefitted" unicode="&#xf6dc;" horiz-adv-x="913" 
d="M160 1067q-28 0 -51 27.5t-23 57.5t13.5 48t107.5 73l167 99q73 43 118 43q106 0 106 -112v-1133h195q96 0 96 -85t-96 -85h-598q-97 0 -97 85t97 85h215v1022q-42 -24 -106 -62t-90 -50.5t-54 -12.5z" />
    <glyph glyph-name="rupiah" unicode="&#xf6dd;" horiz-adv-x="2101" 
d="M1325 614v-184q0 -121 68.5 -199.5t178.5 -78.5t174 99.5t64 273.5t-63 271t-174 97t-179.5 -79t-68.5 -200zM1325 -354q0 -78 -93 -78t-93 82v1325q0 82 93 82t93 -82v-51q90 141 275 141t292 -141.5t107 -394.5t-106.5 -401t-294.5 -148t-273 155v-489zM819 1001
q0 218 -268 218h-152q-34 0 -34 -39v-406h174q139 0 209.5 60.5t70.5 166.5zM551 1393q459 0 459 -379q0 -136 -88.5 -238t-239.5 -127q144 -58 257.5 -298.5t113.5 -278.5t-32.5 -63t-83.5 -25t-73 51q-116 303 -215.5 432t-226.5 129h-57v-524q1 -84 -95 -84t-96 84v1145
q0 176 178 176h199z" />
    <glyph glyph-name="threequartersemdash" unicode="&#xf6de;" horiz-adv-x="1602" 
d="M1438 467h-1274q-92 0 -92 86t92 86h1274q92 0 92 -86t-92 -86z" />
    <glyph glyph-name="centinferior" unicode="&#xf6df;" 
d="M389 645q-135 -38 -135 -222t135 -220v442zM502 2q0 -51 -56 -51t-57 51v74q-126 12 -201 106t-75 240q0 144 76 240t200 112v66q1 51 57 51t56 -51v-66q66 -4 126 -40t60 -67q0 -29 -18 -53t-40 -24t-50 23q-35 24 -78 34v-444q51 12 84 39q30 20 52 20t38 -22t16 -53
t-60 -67t-130 -44v-74z" />
    <glyph glyph-name="centsuperior" unicode="&#xf6e0;" 
d="M389 1206q-135 -38 -135 -222t135 -220v442zM502 563q0 -51 -56 -51t-57 51v74q-126 12 -201 106.5t-75 238.5t76 240.5t200 112.5v66q1 51 57 51t56 -51v-66q66 -4 126 -40.5t60 -66.5t-18 -53.5t-40 -23.5t-50 23q-35 24 -78 34v-444q51 12 84 39q30 20 52 20t38 -22
t16 -53t-60.5 -67t-129.5 -44v-74z" />
    <glyph glyph-name="commainferior" unicode="&#xf6e1;" horiz-adv-x="334" 
d="M137 -193q-63 0 -63 56q0 21 14 61t14 76l-6 86q0 80 72 80q86 0 86 -142q0 -81 -36 -149t-81 -68z" />
    <glyph glyph-name="commasuperior" unicode="&#xf6e2;" horiz-adv-x="334" 
d="M137 366q-63 0 -63 56q0 22 14 62t14 75l-6 86q0 80 72 80q86 0 86 -142q0 -81 -36 -149t-81 -68z" />
    <glyph glyph-name="dollarinferior" unicode="&#xf6e3;" 
d="M561 232q0 72 -110 106v-223q110 18 110 117zM233 619q0 -70 105 -103v203q-105 -17 -105 -100zM702 236q0 -96 -70 -166t-181 -82v-64q-1 -51 -57 -51t-56 51v64q-56 2 -150 46t-94 97q0 21 18 43t40 21q21 0 57 -21q60 -45 129 -59v256q-248 60 -248 244q0 85 68 151
t180 80v63q0 52 56 52t57 -52v-61q71 -4 144 -48t73 -87q0 -22 -20 -46t-40 -24q-22 0 -68 35t-89 41v-236q251 -72 251 -247z" />
    <glyph glyph-name="dollarsuperior" unicode="&#xf6e4;" 
d="M561 791q0 72 -110 106v-223q110 18 110 117zM233 1178q0 -70 105 -103v203q-105 -17 -105 -100zM702 795q0 -97 -70.5 -166.5t-180.5 -81.5v-64q-1 -51 -57 -51t-56 51v64q-56 2 -150 45.5t-94 97.5q0 21 18.5 42.5t39.5 21.5t57 -21q60 -45 129 -59v256
q-248 60 -248 244q0 86 67.5 151.5t180.5 79.5v63q0 52 56 52t57 -52v-61q71 -4 144 -48t73 -87q0 -22 -19.5 -46t-40.5 -24q-22 0 -68 35t-89 41v-236q251 -72 251 -247z" />
    <glyph glyph-name="hypheninferior" unicode="&#xf6e5;" horiz-adv-x="557" 
d="M426 335h-295q-72 0 -72 69t72 69h295q72 0 72 -69t-72 -69z" />
    <glyph glyph-name="hyphensuperior" unicode="&#xf6e6;" horiz-adv-x="557" 
d="M426 909h-295q-72 0 -72 69t72 69h295q72 0 72 -69t-72 -69z" />
    <glyph glyph-name="periodinferior" unicode="&#xf6e7;" horiz-adv-x="340" 
d="M169 -16q-41 0 -67 25t-26 66t26 67t67 26t68 -27t27 -65t-27 -66q-27 -26 -68 -26z" />
    <glyph glyph-name="periodsuperior" unicode="&#xf6e8;" horiz-adv-x="340" 
d="M169 541q-41 0 -67 25t-26 66t26 67t67 26t68 -27.5t27 -65.5t-27 -64.5t-68 -26.5z" />
    <glyph glyph-name="asuperior" unicode="&#xf6e9;" horiz-adv-x="799" 
d="M559 961q0 73 -43.5 123.5t-119.5 50.5t-122.5 -63t-46.5 -167t44.5 -165.5t122.5 -61.5t121.5 48.5t43.5 123.5v111zM707 608q0 -59 -74 -59t-74 53v37q-55 -98 -189 -98t-214 100.5t-80 264.5t83 264t212 100t188 -94v30q0 58 74 58t74 -60v-596z" />
    <glyph glyph-name="bsuperior" unicode="&#xf6ea;" horiz-adv-x="813" 
d="M592 907q0 228 -172 228q-75 0 -119.5 -49t-44.5 -123v-111q0 -74 44.5 -124t123.5 -50t123.5 62.5t44.5 166.5zM256 604q0 -55 -75 -55t-75 57v918q0 59 75 59t75 -59v-353q62 99 194 99t212.5 -99t80.5 -265t-80.5 -265.5t-214.5 -99.5t-192 102v-39z" />
    <glyph glyph-name="dsuperior" unicode="&#xf6eb;" horiz-adv-x="813" 
d="M559 963q0 77 -46.5 124.5t-122.5 47.5t-122.5 -63t-46.5 -167t44.5 -165.5t123.5 -61.5t124.5 49.5t45.5 124.5v111zM707 608q0 -59 -74 -59t-74 55v41q-63 -104 -196 -104t-213 100.5t-80 264.5t83 264t214 100t192 -94v348q0 59 74 59t74 -59v-916z" />
    <glyph glyph-name="esuperior" unicode="&#xf6ec;" horiz-adv-x="760" 
d="M399 1135q-68 0 -115 -41.5t-57 -116.5h322q-16 158 -150 158zM610 739q20 0 40 -22.5t20 -52.5q0 -44 -83 -83.5t-179 -39.5q-155 0 -246.5 98t-91.5 266t90.5 266.5t234.5 98.5t224.5 -87t80.5 -229q0 -104 -86 -104h-389q26 -172 185 -172q75 0 143 41q37 20 57 20z
" />
    <glyph glyph-name="isuperior" unicode="&#xf6ed;" horiz-adv-x="381" 
d="M266 608q0 -59 -74 -59t-75 59v598q1 58 75 58t74 -58v-598zM191 1378q-35 0 -60 25t-25 59t24 60t60 26t60 -26t24 -60t-24 -59t-59 -25z" />
    <glyph glyph-name="lsuperior" unicode="&#xf6ee;" horiz-adv-x="360" 
d="M256 608q0 -59 -75 -59t-75 59v916q0 59 75 59t75 -59v-916z" />
    <glyph glyph-name="msuperior" unicode="&#xf6ef;" horiz-adv-x="1184" 
d="M401 1130q-157 0 -157 -184v-338q0 -59 -74 -59t-74 59v598q0 58 74 58t74 -58v-39q70 103 198 103t189 -117q73 117 223 117q111 0 177.5 -68t66.5 -186v-408q0 -59 -75 -59t-75 59v389q0 133 -129 133q-147 0 -147 -190v-332q0 -59 -75 -59t-75 59v389q0 133 -121 133z
" />
    <glyph glyph-name="osuperior" unicode="&#xf6f0;" horiz-adv-x="799" 
d="M575 907q0 228 -178 228q-85 0 -130.5 -62.5t-45.5 -165.5t46.5 -167t130.5 -64t130.5 61t46.5 170zM398 541q-152 0 -240 104.5t-88 263.5t87.5 260t240.5 101t242 -99.5t89 -261.5t-89.5 -265t-241.5 -103z" />
    <glyph glyph-name="rsuperior" unicode="&#xf6f1;" horiz-adv-x="545" 
d="M410 1270q54 0 85 -21.5t31 -53.5t-19.5 -53.5t-39.5 -21.5l-76 10q-63 0 -105 -47.5t-42 -140.5v-334q0 -59 -74 -59t-74 59v598q0 58 74 58t74 -58v-35q55 99 166 99z" />
    <glyph glyph-name="ssuperior" unicode="&#xf6f2;" horiz-adv-x="664" 
d="M340 541q-106 0 -188 36.5t-82 96.5q0 23 18.5 44t41.5 21q23 1 68 -31t132 -32q114 0 114 74q0 38 -34 55t-93 31q-161 31 -204 85.5t-43 142.5t77 147t179 59t175.5 -37t73.5 -86q0 -25 -17.5 -46.5t-39.5 -21.5t-70 28t-112 28q-62 0 -88.5 -23.5t-26.5 -55.5
t26.5 -50t140.5 -43t162 -76t48 -137t-76 -147.5t-182 -61.5z" />
    <glyph glyph-name="tsuperior" unicode="&#xf6f3;" horiz-adv-x="575" 
d="M352 541q-192 0 -192 211v374h-54q-61 0 -61 64t61 63h54v146q0 59 74 59t75 -59v-146h117q57 1 57 -63t-57 -64h-117v-364q0 -86 58 -86q25 0 53 12t44 12t31 -20.5t15 -46.5q0 -44 -53 -68t-105 -24z" />
    <glyph glyph-name="dollaroldstyle" unicode="&#xf724;" horiz-adv-x="1049" 
d="M760 311q0 91 -168 150v-301q168 25 168 151zM299 829q0 -89 162 -141v281q-162 -21 -162 -140zM592 -154q0 -40 -14 -56.5t-54 -16.5t-51.5 18t-11.5 55v142q-105 9 -235 63t-130 129q0 34 27 63t57 29t84 -34q78 -61 197 -76v340q-189 51 -267.5 124t-78.5 198
t91.5 212t254.5 105v102q0 42 14 58t51 16t51.5 -16t14.5 -58v-104q71 -4 197 -66.5t126 -128.5q0 -37 -26.5 -64.5t-56.5 -27.5t-80 37q-71 58 -160 78v-318q185 -54 268.5 -130t83.5 -208t-91.5 -219.5t-260.5 -103.5v-142z" />
    <glyph glyph-name="zerooldstyle" unicode="&#xf730;" horiz-adv-x="1225" 
d="M612 973q-140 0 -228.5 -110.5t-88.5 -297.5t87.5 -299t229.5 -112t230 112t88 300t-89 297.5t-229 109.5zM612 -18q-220 0 -364 162t-144 420t143.5 419.5t364.5 161.5t363.5 -161.5t142.5 -419.5t-143 -420t-363 -162z" />
    <glyph glyph-name="oneoldstyle" unicode="&#xf731;" horiz-adv-x="1051" 
d="M223 803q-34 0 -58 27.5t-24 69.5t62 73l270 147q50 27 90 27q107 0 107 -123v-852h207q96 0 96 -86t-96 -86h-623q-98 0 -98 86t98 86h225v756l-172 -97q-50 -28 -84 -28z" />
    <glyph glyph-name="twooldstyle" unicode="&#xf732;" horiz-adv-x="1122" 
d="M346 172h539q92 0 92 -86t-92 -86h-584q-81 0 -123.5 42.5t-42.5 111.5q0 115 81 206t394 244q103 56 136.5 101.5t33.5 114.5t-58 111t-176 42t-239 -99q-37 -26 -70 -26t-62.5 31t-29.5 65q0 66 140.5 133.5t307.5 67.5t272.5 -88t105.5 -238q0 -93 -41 -167.5
t-105 -118.5t-226 -127t-217.5 -128.5t-55.5 -75.5t20 -30z" />
    <glyph glyph-name="threeoldstyle" unicode="&#xf733;" horiz-adv-x="1055" 
d="M934 164q0 -186 -133 -318.5t-350 -132.5q-135 0 -257 57t-122 126q0 32 26 64t58 32t69 -25q120 -82 239 -82t199 77t80 198q0 250 -333 250q-44 0 -68.5 24t-24.5 60t45 88l285 315q21 23 21 35q0 22 -27 22h-448q-93 0 -93 86t93 86h532q172 0 172 -133
q0 -75 -90 -174l-238 -260q365 -52 365 -395z" />
    <glyph glyph-name="fouroldstyle" unicode="&#xf734;" horiz-adv-x="1161" 
d="M909 57v-254q0 -90 -95 -90t-95 90v254h-455q-178 0 -178 144q0 67 41.5 142t201.5 374l196 366q37 68 59 74t50 6t57.5 -25.5t29.5 -47.5t-4 -36.5t-76 -146.5l-336 -622q-10 -20 -10 -33q0 -23 39 -23h385v465q0 90 95 90t95 -90v-465h90q95 0 95 -86t-95 -86h-90z" />
    <glyph glyph-name="fiveoldstyle" unicode="&#xf735;" horiz-adv-x="1075" 
d="M254 395q-98 0 -98 92q0 35 8 87t47 361q13 101 48 146t122 45h450q95 0 95 -87t-95 -87h-407q-20 0 -23 -20l-49 -352q89 30 170 30q196 0 315 -117t119 -317t-133 -331.5t-329 -131.5q-157 0 -273.5 61t-116.5 120q0 37 28 68.5t62 31.5t70 -27q106 -82 228 -82t199 81
t77 207t-74 195.5t-202 69.5q-69 0 -170 -30q-29 -13 -68 -13z" />
    <glyph glyph-name="sixoldstyle" unicode="&#xf736;" horiz-adv-x="1124" 
d="M586 719q-115 0 -191 -76t-76 -198t67.5 -206.5t187.5 -84.5t191 87t71 211t-67.5 195.5t-182.5 71.5zM113 569q0 846 604 846q219 0 219 -96q0 -37 -24 -68.5t-58 -31.5h-15q-1 0 -50 12t-114 12t-206 -69t-158 -451q105 168 295 168t305 -120.5t115 -318.5t-127 -334
t-337 -136t-329.5 150.5t-119.5 436.5z" />
    <glyph glyph-name="sevenoldstyle" unicode="&#xf737;" horiz-adv-x="979" 
d="M659 952h-507q-95 0 -95 87t95 87h606q74 0 115.5 -37t41.5 -101t-65 -161q-370 -556 -426 -1038q-9 -76 -90 -76q-101 0 -101 86q0 135 119 458t322 628q18 27 18 47t-33 20z" />
    <glyph glyph-name="eightoldstyle" unicode="&#xf738;" horiz-adv-x="1155" 
d="M576 657q-126 0 -197.5 -72.5t-71.5 -184.5t71.5 -179t197.5 -67t199 67.5t73 180.5t-73 184t-199 71zM576 1243q-96 0 -158 -58.5t-62 -149.5t58 -150.5t163 -59.5t162.5 60.5t57.5 150.5t-62.5 148.5t-158.5 58.5zM1038 399q0 -188 -127.5 -302.5t-333.5 -114.5
t-333 113.5t-127 301.5q0 114 62 209.5t175 141.5q-186 101 -186 292q0 165 114 270t295 105t295.5 -105.5t114.5 -281.5t-184 -280q235 -100 235 -349z" />
    <glyph glyph-name="nineoldstyle" unicode="&#xf739;" horiz-adv-x="1126" 
d="M559 973q-120 0 -195 -87.5t-75 -213.5t66.5 -201.5t185.5 -75.5t192.5 82.5t73.5 194.5t-64 206.5t-184 94.5zM559 1145q453 0 453 -613q0 -403 -156 -611t-438 -208q-76 0 -152 22t-76 77q0 41 21.5 69.5t46.5 28.5t68 -12t108 -13q339 0 379 518
q-34 -79 -120.5 -129.5t-188.5 -50.5q-174 0 -290 127.5t-116 325.5t130 333.5t331 135.5z" />
    <glyph glyph-name="centoldstyle" unicode="&#xf7a2;" horiz-adv-x="1024" 
d="M283 556q0 -348 245 -398v807q-115 -26 -180 -132.5t-65 -276.5zM94 557q0 244 116.5 399.5t317.5 182.5v104q0 74 66 74q38 0 53 -16t15 -58v-102q94 -7 166.5 -44t104.5 -65t32 -68t-24.5 -66t-54.5 -26t-98 41q-69 46 -126 54v-803q70 12 128 54t92 42t59.5 -27.5
t25.5 -64.5q0 -67 -118.5 -123t-186.5 -59v-140q0 -35 -13 -54t-55 -19t-54 18t-12 55v140q-205 20 -319.5 173.5t-114.5 397.5z" />
    <glyph glyph-name="ff" unicode="&#xfb00;" horiz-adv-x="1202" 
d="M594 1323q-205 0 -205 -219v-60h389v134q0 50 6 90q-89 55 -190 55zM1102 1372q-135 0 -135 -190v-138h143q84 0 84 -80t-84 -81h-143v-813q-1 -82 -95 -82t-94 82v813h-389v-813q0 -82 -94 -82t-94 82v813h-86q-86 1 -86 81t86 80h86v72q0 181 105.5 280t273.5 99
t266 -68q90 109 256 109q71 0 126.5 -26t55.5 -66t-20 -68t-40 -28t-56 12q-35 12 -66 12z" />
    <glyph glyph-name="fi" unicode="&#xfb01;" horiz-adv-x="1112" 
d="M612 1362q-223 0 -223 -244v-74h492q86 0 86 -79v-895q-1 -82 -95 -82t-94 82v813h-389v-813q0 -82 -94 -82t-94 82v813h-86q-86 1 -86 81t86 80h86v89q0 191 117.5 297t306.5 106q108 0 213.5 -42.5t105.5 -96.5q0 -39 -24 -70t-49 -31t-103 33t-156 33z" />
    <glyph glyph-name="fl" unicode="&#xfb02;" horiz-adv-x="1112" 
d="M967 70q0 -82 -97 -82q-43 0 -63.5 15.5t-24.5 34t-3 332.5v551l-1 429q-78 22 -160 22q-229 0 -229 -227v-101h162q84 0 84 -80t-84 -81h-162v-813q0 -82 -94 -82t-94 82v813h-86q-86 1 -86 81t86 80h86v101q0 186 112 288.5t308 102.5q89 0 183 -17.5t128.5 -42.5
t34.5 -75v-1331z" />
    <glyph glyph-name="ffi" unicode="&#xfb03;" horiz-adv-x="1690" 
d="M598 1323q-209 0 -209 -219v-60h389v89q0 69 17 129q-97 61 -197 61zM1190 1362q-223 0 -223 -244v-74h489q86 0 86 -79v-895q0 -82 -93 -82t-93 82v813h-389v-813q-1 -82 -95 -82t-94 82v813h-389v-813q0 -82 -94 -82t-94 82v813h-86q-86 1 -86 81t86 80h86v72
q0 181 105.5 280t279.5 99t288 -86q114 127 328 127q108 0 213 -42t105 -97q0 -37 -23 -69t-49 -32t-103 33q-78 33 -155 33z" />
    <glyph glyph-name="ffl" unicode="&#xfb04;" horiz-adv-x="1690" 
d="M598 1323q-209 0 -209 -219v-60h389v103q0 69 15 117q-92 59 -195 59zM1196 1536q346 0 346 -135v-1331q0 -82 -92 -82t-92 82v1282q-73 20 -162 20q-229 0 -229 -227v-101h159q86 0 86 -80t-86 -81h-159v-813q-1 -82 -95 -82t-94 82v813h-389v-813q0 -82 -94 -82t-94 82
v813h-86q-86 1 -86 81t86 80h86v72q0 181 105 280t281 99t279 -84q112 125 330 125z" />
    <glyph glyph-name="glyph571" horiz-adv-x="1130" 
d="M553 1536q37 0 59.5 -20.5t22.5 -41.5t-4 -33q-25 -65 -25 -175q0 -90 -91 -90t-91 101t35 180t94 79z" />
    <glyph glyph-name="glyph572" horiz-adv-x="983" 
d="M723 1034q-37 0 -58.5 20t-21.5 46q1 26 15 60t14 70t-3 105.5t95 69.5q88 -1 88 -103t-35.5 -185t-93.5 -83z" />
    </font>
</defs>
</svg>
