<?xml version="1.0" standalone="no"?>
<!DOCTYPE svg PUBLIC "-//W3C//DTD SVG 1.1//EN" "http://www.w3.org/Graphics/SVG/1.1/DTD/svg11.dtd" >
<svg xmlns="http://www.w3.org/2000/svg">
<metadata>
Created by FontPrep 20130207 at Thu Jan 15 11:24:23 2015
 By Rogerson, John (GE Global Research)
Digitized data (C) 2005 Monotype Corporation. All rights reserved. GE Inspira is a trademark of the General Electric Company.
</metadata>
<defs>
<font id="cf720d148d4fcfeca07b6468ba3e5c8a" horiz-adv-x='1024' >
  <font-face 
    font-family="GEInspira-MediumItalic"
    font-weight="400"
    font-style="italic"
    font-stretch="normal"
    units-per-em="2048"
    panose-1="2 15 6 3 3 4 0 9 2 3"
    ascent="1638"
    descent="-410"
    x-height="1044"
    cap-height="1393"
    bbox="-469 -477 2576 1944"
    underline-thickness="166"
    underline-position="-97"
    slope="-9"
    unicode-range="U+0020-FB04"
  />
<missing-glyph horiz-adv-x="1350" 
d="M342 1270q-29 0 -29 -33v-1077q0 -33 29 -33h666q28 0 28 33v1077q0 33 -28 33h-666zM1165 135q0 -65 -37 -100t-102 -35h-702q-65 0 -102.5 35t-37.5 100v1126q0 65 37.5 100.5t102.5 35.5h702q65 0 102 -35.5t37 -100.5v-1126z" />
    <glyph glyph-name=".notdef" horiz-adv-x="1350" 
d="M342 1270q-29 0 -29 -33v-1077q0 -33 29 -33h666q28 0 28 33v1077q0 33 -28 33h-666zM1165 135q0 -65 -37 -100t-102 -35h-702q-65 0 -102.5 35t-37.5 100v1126q0 65 37.5 100.5t102.5 35.5h702q65 0 102 -35.5t37 -100.5v-1126z" />
    <glyph glyph-name=".null" horiz-adv-x="586" 
 />
    <glyph glyph-name="nonmarkingreturn" horiz-adv-x="770" 
 />
    <glyph glyph-name="space" unicode=" " horiz-adv-x="434" 
 />
    <glyph glyph-name="exclam" unicode="!" horiz-adv-x="537" 
d="M80 104q0 54 35 89.5t89 35.5t90 -37t36 -89t-36.5 -87.5t-89.5 -35.5t-88.5 35t-35.5 89zM487 1339q0 -19 -6 -43l-139 -868q-14 -82 -101 -82t-87 62q0 9 4 43l141 872q12 80 100 80t88 -64z" />
    <glyph glyph-name="quotedbl" unicode="&#x22;" horiz-adv-x="678" 
d="M719 1339q0 -13 -6 -39l-47 -296q-14 -91 -101 -91q-88 0 -88 70q0 17 4 35l49 301q14 88 102 88t87 -68zM125 983q0 17 4 35l49 301q14 88 100 88t87 -68q0 -24 -5 -39l-47 -296q-14 -91 -101 -91t-87 70z" />
    <glyph glyph-name="numbersign" unicode="#" horiz-adv-x="1251" 
d="M537 877q-12 -33 -46 -180t-45 -177h269l92 357h-270zM659 -14q-69 0 -69 67q0 19 23 103l55 202h-267q-15 -46 -49 -183t-53 -163t-74 -26q-80 0 -80 63q0 24 11 58t35 131t32 120h-145q-80 0 -80 68q0 94 100 94h172q11 30 44 172t46 185h-145q-80 0 -80 63
q0 50 23.5 74t87.5 24h160q10 21 45 168t56.5 175t74.5 28q80 0 80 -61q0 -12 -6 -34t-16 -60l-56 -216h266q12 30 46 173t57.5 170.5t76.5 27.5q76 0 76 -59q0 -21 -8 -43t-38 -142t-34 -127h150q79 0 79 -61q0 -100 -96 -100h-176q-14 -45 -49 -193t-41 -164h145
q80 0 80 -65q0 -97 -96 -97h-178q-11 -33 -35 -129l-40 -161q-12 -44 -35 -63t-75 -19z" />
    <glyph glyph-name="dollar" unicode="$" horiz-adv-x="1085" 
d="M780 391q0 123 -157 199l-70 -436q227 24 227 237zM356 1016q0 -111 152 -185l65 408q-217 -22 -217 -223zM168 1004q0 176 114.5 287t317.5 120l14 78q8 46 26.5 64t59.5 18q70 0 70 -55q0 -16 -6 -43l-10 -70q104 -17 203.5 -71.5t99.5 -108.5q0 -35 -27.5 -70
t-57.5 -35t-75 31q-66 57 -172 80l-72 -451q171 -66 243.5 -153.5t72.5 -214.5q0 -183 -114 -299t-329 -129q-6 -34 -11 -78t-22.5 -69t-66.5 -25q-70 0 -70 51v13q0 7 2 15l17 97q-126 13 -235 68t-109 114q0 35 27.5 68.5t55.5 33.5t76 -32q104 -69 209 -82l80 489
q-311 112 -311 359z" />
    <glyph glyph-name="percent" unicode="%" horiz-adv-x="1851" 
d="M1268 309q0 -192 141 -192q93 0 148 101.5t55 248.5q0 190 -139 190q-95 0 -150 -102.5t-55 -245.5zM1104 311q0 207 103.5 344.5t279.5 137.5q135 0 212 -81.5t77 -238.5q0 -215 -100.5 -353t-282.5 -138q-135 0 -212 88.5t-77 240.5zM291 928q0 -191 141 -191
q94 0 148.5 103.5t54.5 246.5q0 189 -139 189q-94 0 -149.5 -102t-55.5 -246zM125 932q0 208 101 344.5t284 136.5q135 0 212 -82.5t77 -238.5q0 -215 -101.5 -353.5t-281.5 -138.5q-138 0 -214.5 90t-76.5 242zM412 -25q-22 0 -49 24t-27 45t6.5 34t218.5 271l738 896
q130 159 144.5 166.5t37.5 7.5t50.5 -22.5t27.5 -44.5t-5 -31t-216 -268l-744 -905q-131 -159 -145.5 -166t-36.5 -7z" />
    <glyph glyph-name="ampersand" unicode="&#x26;" horiz-adv-x="1262" 
d="M248 371q0 -95 67 -161.5t183 -66.5q177 0 290 146l-342 346q-198 -58 -198 -264zM61 358q0 286 275 406q-100 130 -100 280t113.5 259.5t299.5 109.5q143 0 256 -66.5t113 -125.5q0 -32 -30 -62.5t-62 -30.5t-76 37q-96 84 -200 84t-164 -58.5t-60 -158.5
q0 -55 31.5 -120.5t86 -123t339.5 -350.5q56 132 61 301q4 80 91 80t87 -71q0 -87 -31.5 -212.5t-82.5 -222.5q34 -37 100 -101t80 -85t14 -47t-29 -57t-65 -31t-62.5 29.5t-142.5 148.5q-178 -190 -426 -190q-192 0 -304 110.5t-112 267.5z" />
    <glyph glyph-name="quotesingle" unicode="'" horiz-adv-x="352" 
d="M154 983q0 17 4 35l49 301q14 88 101 88t87 -68q0 -13 -6 -39l-47 -296q-14 -91 -101 -91t-87 70z" />
    <glyph glyph-name="parenleft" unicode="(" horiz-adv-x="434" 
d="M213 -152q-33 0 -53.5 33t-43 172.5t-22.5 292.5q0 300 56 537t132 405t108 199t66 31t56.5 -23t22.5 -47t-41 -113q-226 -474 -226 -1018q0 -143 33 -364l2 -20q0 -85 -90 -85z" />
    <glyph glyph-name="parenright" unicode=")" horiz-adv-x="434" 
d="M397 975q0 -213 -47 -450.5t-132.5 -431t-117.5 -220.5t-65 -27t-55.5 22.5t-22.5 49.5t43 111q223 460 223 1018q0 185 -33 369l-2 29q0 24 20 47.5t60 23.5t60.5 -25t44.5 -164t24 -352z" />
    <glyph glyph-name="asterisk" unicode="*" horiz-adv-x="885" 
d="M361 719q-32 0 -62.5 26t-30.5 52t46 79t110 130q-165 41 -209.5 55.5t-44.5 55.5t20 69t42 28t42 -8l193 -82q-12 193 -12 199q-1 84 77 84t78 -70q0 -19 -16 -213q50 20 128 53t104 33t45.5 -29t19.5 -71t-55 -55l-201 -51q29 -38 77 -96t60 -76t12 -40t-31 -49.5
t-63 -27.5t-53 39l-109 178l-110 -174q-25 -39 -57 -39z" />
    <glyph glyph-name="plus" unicode="+" horiz-adv-x="1161" 
d="M676 436v-321q0 -88 -88 -88t-88 88v321h-314q-96 0 -96 85t96 85h314v320q0 90 88 90t88 -90v-320h313q96 0 96 -85t-96 -85h-313z" />
    <glyph glyph-name="comma" unicode="," horiz-adv-x="446" 
d="M4 -195q0 25 12 47q56 105 56 179l-6 98q0 107 92 107q106 0 106 -146q0 -111 -59 -228.5t-130 -117.5t-71 61z" />
    <glyph glyph-name="hyphen" unicode="-" horiz-adv-x="723" 
d="M139 459q-80 0 -80 78q0 43 24 72.5t67 29.5h430q79 0 79 -78q0 -41 -23.5 -71.5t-70.5 -30.5h-426z" />
    <glyph glyph-name="period" unicode="." horiz-adv-x="459" 
d="M55 106q0 56 36.5 91.5t90.5 35.5t91.5 -36.5t37.5 -90.5t-37.5 -90t-91.5 -36t-90.5 35t-36.5 91z" />
    <glyph glyph-name="slash" unicode="/" horiz-adv-x="758" 
d="M768 1530q47 0 79 -24t32 -50t-21 -70l-747 -1503q-25 -51 -69 -51t-78 25.5t-34 53.5t19 66l745 1498q27 55 74 55z" />
    <glyph glyph-name="zero" unicode="0" horiz-adv-x="1085" 
d="M870 914q0 328 -219 327q-170 0 -274.5 -218t-104.5 -525q0 -346 226 -346q176 0 274 217t98 545zM664 1413q389 0 389 -518q0 -374 -148 -644.5t-424 -270.5q-184 0 -290.5 136t-106.5 386q0 397 157 654t423 257z" />
    <glyph glyph-name="one" unicode="1" horiz-adv-x="1085" 
d="M306 1073q-32 0 -53.5 29.5t-21.5 70.5t68 72l295 137q71 33 96 33q94 0 94 -92q0 -27 -8 -59l-172 -1094h205q80 0 80 -72q0 -98 -90 -98h-617q-80 0 -80 74q0 96 93 96h223l162 1022l-191 -94q-51 -25 -83 -25z" />
    <glyph glyph-name="two" unicode="2" horiz-adv-x="1085" 
d="M182 0q-149 0 -149 144t116.5 279t324.5 262t274.5 208t66.5 167t-53 134.5t-157 48.5t-206 -86q-47 -45 -79 -45t-61.5 29t-29.5 63q0 65 121.5 139t287.5 74t268 -90t102 -234t-83 -261.5t-297 -251.5t-308.5 -225.5t-94.5 -157.5q0 -21 31 -21h514q70 0 70 -76
q0 -43 -26 -71.5t-73 -28.5h-559z" />
    <glyph glyph-name="three" unicode="3" horiz-adv-x="1085" 
d="M723 444q0 236 -297 236q-44 0 -69 25t-25 63t57 90l334 311q20 19 20 31q0 19 -22 19h-434q-80 0 -80 65q0 47 26 78t74 31h529q147 0 147 -123q0 -78 -76 -150l-313 -295q153 -20 236 -118.5t83 -243.5q0 -205 -138.5 -344t-375.5 -139q-137 0 -256.5 59t-119.5 121
q0 37 25 67.5t53 30.5t85 -35q112 -71 242 -71t212.5 80.5t82.5 211.5z" />
    <glyph glyph-name="four" unicode="4" horiz-adv-x="1085" 
d="M229 297q-77 0 -121.5 39.5t-44.5 103.5t48 135l526 803q20 27 58 27t70 -24.5t32 -50.5t-33 -81l-481 -727q-13 -20 -13 -35q0 -20 35 -20h387l80 504q8 49 30.5 68.5t71.5 19.5q87 0 87 -68q0 -10 -5 -35l-77 -487h77q74 0 74 -66q0 -106 -88 -106h-90
q-36 -234 -52 -271.5t-94 -37.5t-77 67q0 4 37 242h-437z" />
    <glyph glyph-name="five" unicode="5" horiz-adv-x="1085" 
d="M551 874q181 0 284 -103t103 -286q0 -222 -134.5 -363.5t-377.5 -141.5q-138 0 -262.5 56.5t-124.5 119.5q0 36 25.5 66t53.5 30t77 -29q123 -71 254 -71t215 87t84 213t-66 189.5t-182 63.5q-48 -1 -122 -19t-102 -18q-86 0 -86 82q0 32 19 108l92 391q34 144 191 144
h446q80 0 80 -66q0 -104 -105 -104h-411q-24 0 -33 -29l-80 -340q81 20 162 20z" />
    <glyph glyph-name="six" unicode="6" horiz-adv-x="1085" 
d="M825 463q0 252 -240 252q-119 0 -197.5 -89t-78.5 -213t63.5 -196t181.5 -72t194.5 96.5t76.5 221.5zM649 887q173 0 270 -103.5t97 -281.5q0 -218 -132 -370t-340 -152t-318.5 131t-110.5 370q0 424 193 678t517 254q86 0 166 -20.5t80 -75.5q0 -37 -21 -70t-46 -33
q-24 0 -76 14t-115 13q-189 0 -318 -135t-176 -391q122 172 330 172z" />
    <glyph glyph-name="seven" unicode="7" horiz-adv-x="1085" 
d="M821 1223h-528q-72 0 -72 63q0 45 22.5 76t57.5 31h635q67 0 106 -36.5t39 -102.5t-80 -169q-419 -534 -587 -1036q-13 -38 -29.5 -53.5t-56.5 -15.5t-70.5 18.5t-30.5 52.5q0 92 156 409.5t453 704.5q16 20 16 39t-31 19z" />
    <glyph glyph-name="eight" unicode="8" horiz-adv-x="1085" 
d="M811 420q0 108 -70.5 172.5t-189.5 64.5t-197 -74.5t-78 -188.5t67 -178t193 -64t200.5 80t74.5 188zM838 1046q0 91 -55 144t-152 53t-161 -63t-64 -154t55.5 -145t154.5 -54t160.5 64t61.5 155zM219 1024q0 172 115.5 280.5t298.5 108.5t290 -91.5t107 -238.5
q0 -260 -229 -346q92 -35 146 -120.5t54 -180.5q0 -194 -133.5 -325t-343.5 -131t-324 109.5t-114 268.5q0 310 289 406q-156 88 -156 260z" />
    <glyph glyph-name="nine" unicode="9" horiz-adv-x="1085" 
d="M326 934q0 -256 241 -256q122 0 198.5 87t76.5 212t-61.5 197.5t-180.5 72.5t-196.5 -93t-77.5 -220zM504 506q-170 0 -268.5 107t-98.5 307t130.5 346.5t338.5 146.5t319 -129.5t111 -372.5q0 -425 -193 -678t-517 -253q-248 0 -248 100q0 40 20 70t44 30t82 -14
t114 -14q192 0 321 137.5t172 388.5q-112 -172 -327 -172z" />
    <glyph glyph-name="colon" unicode=":" horiz-adv-x="446" 
d="M160 -18q-54 0 -88.5 35t-34.5 89t34.5 88.5t88.5 34.5t90.5 -35t36.5 -88t-36.5 -88.5t-90.5 -35.5zM276 737q-54 0 -88 35.5t-34 89.5t35 88.5t89 34.5t89.5 -35.5t35.5 -87.5t-36.5 -88.5t-90.5 -36.5z" />
    <glyph glyph-name="semicolon" unicode=";" horiz-adv-x="446" 
d="M75 -256q-71 0 -71 61q0 27 34 91t34 135l-6 98q0 107 92 107q106 0 106 -146q0 -111 -59 -228.5t-130 -117.5zM272 739q-54 0 -89.5 35.5t-35.5 89.5t35.5 88.5t89.5 34.5t89.5 -35.5t35.5 -88.5t-35.5 -88.5t-89.5 -35.5z" />
    <glyph glyph-name="less" unicode="&#x3c;" horiz-adv-x="1161" 
d="M113 522q0 50 61 80l723 391q43 23 73 23t54.5 -29t24.5 -65t-56 -70l-620 -332l620 -332q56 -30 56 -64t-23.5 -65.5t-49.5 -31.5t-69 16l-735 397q-59 32 -59 82z" />
    <glyph glyph-name="equal" unicode="=" horiz-adv-x="1161" 
d="M983 238h-805q-96 0 -96 84t96 84h805q94 0 94 -84t-94 -84zM983 625h-805q-96 0 -96 84t96 84h805q94 0 94 -84t-94 -84z" />
    <glyph glyph-name="greater" unicode="&#x3e;" horiz-adv-x="1161" 
d="M113 916q0 36 22 69t51 33t66 -21l737 -397q60 -32 60 -81t-62 -79l-725 -391q-40 -22 -70 -22t-54.5 28.5t-24.5 66.5t53 66l622 332l-622 332q-53 28 -53 64z" />
    <glyph glyph-name="question" unicode="?" horiz-adv-x="885" 
d="M325 -20q-53 0 -88.5 34.5t-35.5 89.5t35.5 90t89.5 35t88.5 -36.5t34.5 -88.5t-35.5 -88t-88.5 -36zM350 340q-84 0 -84 66q0 281 254 417q117 62 160 118t43 130t-51 122t-153 48t-210 -90q-46 -37 -79 -37t-59 27.5t-26 62.5q0 67 127 138t285 71t258 -91t100 -223
t-67.5 -228.5t-179.5 -158.5t-153 -106t-55 -131t-32.5 -111t-77.5 -24z" />
    <glyph glyph-name="at" unicode="@" horiz-adv-x="1681" 
d="M666 592q0 -189 184 -189q72 0 119 49.5t47 127.5v172q0 80 -42 127t-122 47t-133 -72.5t-53 -261.5zM1238 250q-160 0 -208 133q-70 -133 -218 -133t-235.5 113t-87.5 295t95.5 295.5t233.5 113.5t198 -96v24q0 70 85 70t85 -80v-481q0 -101 76 -101q63 0 108 87t45 245
q0 234 -148.5 378t-394.5 144t-403.5 -165.5t-157.5 -431.5t148.5 -421t382.5 -155q150 0 266 60q46 24 73 24t48.5 -25t21.5 -57q0 -67 -127.5 -114.5t-287.5 -47.5q-308 0 -504.5 204.5t-196.5 531.5t206.5 541t530.5 214t520.5 -189.5t196.5 -492.5q0 -208 -95.5 -345.5
t-255.5 -137.5z" />
    <glyph glyph-name="A" unicode="A" horiz-adv-x="1198" 
d="M836 569q-52 350 -123 598q-153 -247 -324 -598h447zM82 -14q-46 0 -79.5 20t-33.5 61t158.5 376t330.5 624.5t201.5 313.5t79.5 24h4q51 0 79 -30.5t101.5 -303t120 -589t46.5 -406.5t-119 -90q-66 0 -70 71q-11 139 -37 336h-555q-47 -99 -99 -223t-67 -154t-61 -30z
" />
    <glyph glyph-name="B" unicode="B" horiz-adv-x="1196" 
d="M864 436q0 203 -250 203h-239l-66 -406q-4 -25 -4 -32q0 -23 31 -23h229q145 0 222 66.5t77 191.5zM905 1038q0 174 -211 174h-186q-43 0 -49 -45l-56 -350h244q120 0 189 59t69 162zM1057 428q0 -185 -133 -306.5t-367 -121.5h-315q-138 0 -138 123q0 17 4 40t9 60
l157 991q28 179 205 179h248q180 0 277.5 -84.5t97.5 -222.5t-70.5 -230t-193.5 -125q219 -64 219 -303z" />
    <glyph glyph-name="C" unicode="C" horiz-adv-x="1206" 
d="M1208 1184q0 -29 -28 -60.5t-60 -31.5t-78 38q-113 107 -260 107q-227 0 -353 -191.5t-126 -472.5q0 -199 87.5 -307t235.5 -108t294 100q40 29 70 29t54.5 -31t24.5 -63q0 -63 -143 -138t-303 -75q-246 0 -379 157.5t-133 425.5q0 367 184 608.5t500 241.5
q159 0 286 -78t127 -151z" />
    <glyph glyph-name="D" unicode="D" horiz-adv-x="1352" 
d="M1069 838q0 374 -373 374h-202q-33 0 -33 -34l-152 -945l-2 -24q-2 -29 25 -29h219q255 0 386.5 178t131.5 480zM535 0h-297q-132 0 -132 131q0 16 43 292l121 761q15 101 50 155t141 54h246q273 0 414 -144t141 -411q0 -364 -188 -601t-539 -237z" />
    <glyph glyph-name="E" unicode="E" horiz-adv-x="1067" 
d="M248 0q-146 0 -146 123q0 13 11 70l159 1024q26 176 207 176h529q86 0 86 -64q0 -117 -111 -117h-483q-37 0 -41 -38l-58 -359h451q84 0 84 -65q0 -115 -111 -115h-452l-60 -383q-6 -38 -6 -49q0 -23 23 -23h485q84 0 84 -63q0 -117 -111 -117h-540z" />
    <glyph glyph-name="F" unicode="F" horiz-adv-x="1008" 
d="M815 803q84 0 84 -66q0 -114 -113 -114h-415l-88 -549q-15 -86 -103 -86t-88 61q0 23 6 57l174 1111q11 71 60 123.5t145 52.5h520q84 0 84 -64q0 -117 -110 -117h-473q-35 0 -39 -38l-60 -371h416z" />
    <glyph glyph-name="G" unicode="G" horiz-adv-x="1339" 
d="M745 578q-73 0 -73 63q0 45 24 80t68 35h369q79 0 79 -66v-19q0 -13 -2 -24l-69 -420q-12 -75 -53 -119t-167 -86t-266 -42q-253 0 -401 164t-148 415q0 380 201.5 617t534.5 237q165 0 295.5 -61t130.5 -119q0 -36 -27 -70.5t-55 -34.5t-82 31q-133 76 -270 76
q-244 0 -390.5 -186t-146.5 -478q0 -198 101 -308.5t284 -110.5q95 0 184 33t92 70q5 38 52 323h-265z" />
    <glyph glyph-name="H" unicode="H" horiz-adv-x="1356" 
d="M913 53q0 19 7 58l84 514h-629l-88 -551q-13 -86 -103 -86t-90 63q0 18 8 60l193 1210q12 84 102 84t90 -64v-6q0 -12 -8 -65l-76 -467h627l82 518q12 84 102 84t91 -64q0 -25 -9 -69l-190 -1198q-14 -86 -104 -86t-89 65z" />
    <glyph glyph-name="I" unicode="I" horiz-adv-x="537" 
d="M94 51q0 21 8 58l193 1212q12 84 102 84t90 -64l-200 -1267q-13 -86 -103 -86t-90 63z" />
    <glyph glyph-name="J" unicode="J" horiz-adv-x="934" 
d="M330 -20q-120 0 -224 55t-104 115q0 37 27 66.5t57 29.5t68 -25q95 -65 191 -65t152.5 62.5t88.5 264.5l133 840q7 46 28.5 64t69.5 18q94 0 94 -66q0 -21 -10 -75l-127 -791q-46 -285 -156.5 -389t-287.5 -104z" />
    <glyph glyph-name="K" unicode="K" horiz-adv-x="1167" 
d="M1065 64q0 -30 -37.5 -54t-71.5 -24t-47.5 13t-31.5 48q-166 348 -385 610q-13 -9 -31 -20l-94 -59l-80 -504q-15 -86 -103 -86t-88 65q0 23 6 60l193 1210q12 82 102 82t90 -62q0 -17 -10 -69l-74 -471q369 255 607 557q32 47 72 47t73 -27t33 -59q0 -63 -181 -245
t-358 -312q243 -294 393 -621q22 -49 23 -79z" />
    <glyph glyph-name="L" unicode="L" horiz-adv-x="999" 
d="M309 205q0 -25 23 -25h473q78 0 78 -65q0 -48 -25.5 -81.5t-73.5 -33.5h-532q-143 0 -143 123q0 33 8 80l178 1114q9 56 36 72t68 16q86 0 86 -64q0 -23 -8 -73l-164 -1030q-4 -25 -4 -33z" />
    <glyph glyph-name="M" unicode="M" horiz-adv-x="1587" 
d="M1159 47q0 12 10 70l158 997l-434 -610q-47 -66 -118 -66t-97 64l-238 606l-164 -1036q-14 -84 -98 -84t-84 59q0 16 8 59l187 1170q20 129 137 129q76 0 106 -74l269 -698l491 698q52 74 133 74q111 0 111 -94q0 -28 -8 -74l-187 -1165q-14 -84 -98 -84t-84 59z" />
    <glyph glyph-name="N" unicode="N" horiz-adv-x="1384" 
d="M1012 -12q-80 0 -111 71l-461 1049l-140 -887q-27 -173 -43 -203t-90 -30q-73 0 -73 61q0 1 6 53l187 1170q20 133 141 133q79 0 107 -74l452 -1038l164 1026q9 57 34.5 71.5t61.5 14.5q88 0 88 -66q0 -10 -8 -61l-188 -1180q-18 -110 -127 -110z" />
    <glyph glyph-name="O" unicode="O" horiz-adv-x="1362" 
d="M782 1243q-219 0 -351 -198.5t-132 -489.5q0 -190 86.5 -297.5t249.5 -107.5q220 0 346.5 200t126.5 494q0 186 -83.5 292.5t-242.5 106.5zM612 -20q-232 0 -367.5 153t-135.5 416q0 366 186 615t506 249q232 0 364.5 -148t132.5 -409q0 -368 -183 -622t-503 -254z" />
    <glyph glyph-name="P" unicode="P" horiz-adv-x="1108" 
d="M928 997q0 215 -234 215h-192q-34 0 -41 -38l-76 -478h236q149 0 228 79.5t79 221.5zM96 47q0 26 8 68l175 1102q28 176 200 176h246q191 0 294 -101.5t103 -301.5t-132 -336t-380 -136h-252l-69 -448q-13 -84 -103 -84t-90 61z" />
    <glyph glyph-name="Q" unicode="Q" horiz-adv-x="1362" 
d="M782 1243q-219 0 -351 -198.5t-132 -489.5q0 -190 86.5 -297.5t249.5 -107.5q220 0 346.5 200t126.5 494q0 186 -83.5 292.5t-242.5 106.5zM997 -204q0 -52 -43 -81.5t-96 -29.5q-138 0 -224.5 78.5t-98.5 220.5q-199 24 -312.5 173t-113.5 392q0 366 186 615t506 249
q232 0 364.5 -148t132.5 -409q0 -334 -155 -581.5t-434 -286.5q26 -136 177 -136l60 5q51 -9 51 -61z" />
    <glyph glyph-name="R" unicode="R" horiz-adv-x="1180" 
d="M938 1028q0 191 -233 191h-201q-34 0 -41 -39l-64 -408h236q143 0 223 66.5t80 189.5zM737 1393q396 0 396 -344q0 -168 -104 -278.5t-292 -129.5q110 -56 196 -292q87 -237 87 -279t-33 -64t-83 -22t-73 71q-97 312 -171 426.5t-216 114.5h-73q-73 -496 -85 -538
t-36.5 -56t-65.5 -14q-88 0 -88 61q0 22 8 62l175 1106q28 176 200 176h258z" />
    <glyph glyph-name="S" unicode="S" horiz-adv-x="1042" 
d="M477 -20q-167 0 -305.5 59t-138.5 125q0 39 27 73.5t54 34.5t79 -30q137 -88 281 -88t215 62t71 154t-47 147t-217 117t-247 151.5t-77 218.5q0 181 124 295t339 114q163 0 290.5 -58t127.5 -122q0 -33 -29.5 -68t-57.5 -35t-85 35q-119 72 -245 72t-193.5 -58.5
t-67.5 -146.5t46.5 -137t174.5 -96q200 -69 279 -163t79 -235q0 -186 -125.5 -303.5t-351.5 -117.5z" />
    <glyph glyph-name="T" unicode="T" horiz-adv-x="1014" 
d="M324 61q0 19 14 101l168 1050h-291q-84 0 -84 64q0 117 96 117h793q90 0 90 -62q0 -119 -102 -119h-299l-183 -1128q-16 -96 -109 -96t-93 73z" />
    <glyph glyph-name="U" unicode="U" horiz-adv-x="1313" 
d="M600 -20q-220 0 -338.5 106t-118.5 291q0 65 15 151l125 791q14 86 103 86t89 -70q0 -23 -10 -65l-119 -762q-12 -77 -12 -119q0 -110 71 -171.5t207 -61.5t221 72.5t109 217.5l137 873q13 86 103 86t90 -68q0 -23 -10 -69l-129 -822q-37 -233 -175 -349.5t-358 -116.5z
" />
    <glyph glyph-name="V" unicode="V" horiz-adv-x="1141" 
d="M1118 1407q42 0 74.5 -20t32.5 -52q0 -82 -175 -454.5t-319 -597t-178 -260t-100 -35.5h-4q-49 0 -74.5 27t-90 277t-96.5 530.5t-32 467.5q0 55 20 86t105 31q63 0 63 -74q0 -240 38 -549t105 -563q295 455 543 1110q14 38 30 57t58 19z" />
    <glyph glyph-name="W" unicode="W" horiz-adv-x="1847" 
d="M1846 1407q44 0 70 -24.5t26 -44.5t-16 -65q-113 -327 -260.5 -628t-246.5 -458t-127 -178q-27 -21 -75 -21t-69 26q-35 43 -89 337q-53 295 -68 632q-184 -467 -329.5 -703t-175.5 -264t-71 -28q-68 0 -88 36q-21 36 -55 196q-108 506 -108 1095q0 46 24 69t91 23
t67 -82q0 -589 100 -1089q248 408 504 1097q26 74 110 74t83 -76q0 -547 112 -1095q280 463 492 1091q13 40 34 60t65 20z" />
    <glyph glyph-name="X" unicode="X" horiz-adv-x="1116" 
d="M961 147q0 -77 -22 -118t-82 -41t-77.5 19.5t-17.5 64.5q0 131 -36 250t-161 272q-316 -246 -387 -518q-15 -56 -37.5 -72t-66.5 -16q-82 0 -82 73q0 121 102 291t352 361q-219 282 -219 565q0 127 113 127q84 0 84 -76q0 -90 4.5 -144.5t43.5 -151.5t126 -216
q160 130 242 245t118 263q13 52 37 66t64 14q92 0 92 -78q0 -101 -102.5 -276t-335.5 -353q248 -288 248 -551z" />
    <glyph glyph-name="Y" unicode="Y" horiz-adv-x="1038" 
d="M330 53q0 8 6 60l70 428q-254 356 -254 735q0 71 24 100t84 29q80 0 80 -74q0 -116 7 -198t50 -202t123 -233q306 270 393 621q13 51 33.5 68.5t65.5 17.5q100 0 100 -70q0 -122 -137 -356t-379 -438l-76 -467q-14 -86 -102 -86t-88 65z" />
    <glyph glyph-name="Z" unicode="Z" horiz-adv-x="1073" 
d="M840 190q75 0 75 -69q0 -54 -27.5 -87.5t-74.5 -33.5h-725q-98 0 -98 102q0 125 124.5 288t362.5 376q347 317 412 436h-604q-78 0 -78 72q0 51 26.5 85t77.5 34h699q110 0 110 -103q0 -109 -120.5 -259.5t-376.5 -377.5q-343 -305 -408 -463h625z" />
    <glyph glyph-name="bracketleft" unicode="[" horiz-adv-x="561" 
d="M596 1343h-82q-33 0 -41 -38l-197 -1237q-4 -25 -4 -37q0 -21 29 -21h78q46 0 67 -12.5t21 -52.5q0 -107 -109 -107h-135q-139 0 -139 123v11q0 9 12 96l205 1294q24 154 178 154h137q86 0 86 -72q0 -101 -106 -101z" />
    <glyph glyph-name="backslash" unicode="\" horiz-adv-x="754" 
d="M203 1436q0 82 102 82q66 0 80 -66l268 -1456q13 -71 13 -94q0 -82 -99 -82q-71 0 -84 61l-268 1458q-12 65 -12 97z" />
    <glyph glyph-name="bracketright" unicode="]" horiz-adv-x="561" 
d="M6 10h82q33 0 41 39l197 1237q4 25 4 37q0 20 -29 20h-78q-46 0 -67 13t-21 53q0 107 109 107h135q139 0 139 -123v-12q0 -25 -12 -95l-205 -1294q-24 -154 -178 -154h-137q-86 0 -86 72q0 100 106 100z" />
    <glyph glyph-name="asciicircum" unicode="^" horiz-adv-x="1208" 
d="M228 662q-38 0 -67.5 24.5t-29.5 52.5t27 70l391 557q33 47 82 47t82 -47l391 -561q26 -37 26 -65t-29.5 -53t-66.5 -25t-73 49l-330 460l-330 -460q-35 -49 -73 -49z" />
    <glyph glyph-name="underscore" unicode="_" horiz-adv-x="1024" 
d="M1022 -346h-1020q-72 0 -72 83t72 83h1020q72 0 72 -83t-72 -83z" />
    <glyph glyph-name="grave" unicode="`" horiz-adv-x="942" 
d="M362 1486q0 36 24 63.5t58 27.5t82 -39l189 -147q49 -38 49 -73t-24 -62t-52 -27t-76 33l-198 149q-52 39 -52 75z" />
    <glyph glyph-name="a" unicode="a" horiz-adv-x="1133" 
d="M811 696q0 86 -56.5 141.5t-152.5 55.5q-156 0 -246 -142t-90 -337q0 -130 59 -197t169 -67t186.5 82t95.5 210l29 174q6 36 6 80zM430 -20q-161 0 -256.5 114t-95.5 314q0 282 142 469.5t356 187.5t280 -152l10 62q12 82 98 82t85 -60q0 -2 -9 -71l-135 -852
q-9 -58 -35 -72t-67 -14q-80 0 -80 59q0 11 6 53l10 62q-102 -182 -309 -182z" />
    <glyph glyph-name="b" unicode="b" horiz-adv-x="1108" 
d="M299 336q0 -184 193 -184q159 0 254.5 149.5t95.5 335.5q0 125 -56 192.5t-165 67.5t-190 -82t-101 -223l-17 -113q-14 -93 -14 -143zM684 1065q164 0 255 -110.5t91 -301.5q0 -275 -154 -474t-411 -199q-171 0 -262.5 93t-91.5 249q0 61 14 159l151 973q7 43 28 62.5
t77 19.5q84 0 84 -61q0 -20 -10 -72l-80 -502q110 164 309 164z" />
    <glyph glyph-name="c" unicode="c" horiz-adv-x="965" 
d="M270 422q0 -266 226 -266q104 0 194 61q42 27 72 27t55 -29.5t25 -60.5q0 -59 -106.5 -116.5t-275.5 -57.5t-275.5 118t-106.5 316q0 287 147.5 469t386.5 182q125 0 226.5 -55t101.5 -121q0 -33 -27 -63.5t-59 -30.5t-76 34q-80 64 -174 64q-141 0 -237.5 -131
t-96.5 -340z" />
    <glyph glyph-name="d" unicode="d" horiz-adv-x="1120" 
d="M811 696q0 86 -56.5 141.5t-152.5 55.5q-156 0 -246 -142t-90 -337q0 -130 59 -197t169 -67t186.5 82t95.5 210l29 174q6 36 6 80zM430 -20q-161 0 -256.5 114t-95.5 314q0 284 142 470.5t368 186.5q190 0 262 -145l86 534q12 82 100 82t88 -59q0 -21 -8 -56l-211 -1351
q-8 -51 -32 -66.5t-70 -15.5q-80 0 -80 57q0 24 6 55l10 64q-100 -184 -309 -184z" />
    <glyph glyph-name="e" unicode="e" horiz-adv-x="1001" 
d="M420 571q338 0 338 193q0 60 -41 97.5t-113 37.5q-116 0 -203 -86.5t-120 -241.5h139zM266 418v-39q0 -107 59 -167t165 -60t222 72q26 16 53 16t52 -30t25 -58q0 -59 -113.5 -115.5t-259.5 -56.5q-187 0 -289 108t-102 301q0 297 158 486.5t380 189.5q152 0 238 -78
t86 -211q0 -167 -141 -262.5t-387 -95.5h-146z" />
    <glyph glyph-name="f" unicode="f" horiz-adv-x="618" 
d="M166 883q-76 0 -76 57q0 104 100 104h86l23 146q54 346 354 346q69 0 130 -20t61 -62t-24 -73t-48 -31t-57 11q-34 11 -85 11t-90.5 -47.5t-54.5 -142.5l-22 -138h145q74 0 74 -59q0 -102 -96 -102h-148l-127 -810q-13 -85 -101 -85q-89 0 -89 59q0 22 8 62l123 774h-86z
" />
    <glyph glyph-name="g" unicode="g" horiz-adv-x="1133" 
d="M811 696q0 86 -56.5 141.5t-152.5 55.5q-157 0 -246.5 -142t-89.5 -335q0 -128 60 -197t168 -69t184 80t98 212l29 174q6 36 6 80zM432 -20q-163 0 -258.5 115t-95.5 313q0 282 142 469.5t356 187.5t280 -152l6 43q5 33 22.5 67t91.5 34t73 -58q0 -12 -5 -47l-141 -911
q-74 -473 -516 -473q-129 0 -248 49t-119 107q0 40 25 71t50 31t77 -25q114 -61 240 -61t203.5 73.5t105.5 237.5l16 109q-96 -180 -305 -180z" />
    <glyph glyph-name="h" unicode="h" horiz-adv-x="1126" 
d="M713 1065q142 0 221.5 -80t79.5 -217q0 -59 -10 -123l-91 -575q-14 -82 -102 -82t-88 63q0 18 8 60l82 514q8 50 8 92q0 172 -174 172q-108 0 -192.5 -85.5t-110.5 -244.5l-76 -489q-14 -82 -101 -82t-87 61q0 8 97 624l123 787q7 39 28.5 57.5t72.5 18.5q86 0 86 -63
q0 -20 -12 -82l-76 -490q122 164 314 164z" />
    <glyph glyph-name="i" unicode="i" horiz-adv-x="489" 
d="M76 49q0 21 8 66l137 862q13 80 101 80t88 -62q0 -8 -11 -69l-135 -854q-14 -84 -101 -84t-87 61zM266 1362q0 47 32.5 79t77.5 32t78 -32.5t33 -78.5t-32.5 -77.5t-78.5 -31.5t-78 31t-32 78z" />
    <glyph glyph-name="j" unicode="j" horiz-adv-x="489" 
d="M-113 -428q-72 0 -129 24t-57 68t22.5 71t44.5 27t56 -10q36 -10 63 -10q140 0 166 178l168 1057q11 80 99 80t88 -60q0 -7 -13 -98l-153 -979q-28 -181 -113.5 -264.5t-241.5 -83.5zM266 1362q0 47 32.5 79t77.5 32t78 -32.5t33 -78.5t-32.5 -77.5t-78.5 -31.5t-78 31
t-32 78z" />
    <glyph glyph-name="k" unicode="k" horiz-adv-x="981" 
d="M868 1059q34 0 64.5 -26.5t30.5 -56.5t-33 -76t-128 -135t-237 -179q199 -221 295 -437q23 -55 23 -87t-31.5 -54t-77.5 -22t-74 61q-115 257 -290 442q-22 -14 -45 -26l-43 -23l-58 -370q-14 -82 -101 -82t-87 61q0 23 6 47l213 1360q12 80 100 80t88 -61q0 -27 -6 -58
l-123 -774q261 163 439 373q41 43 75 43z" />
    <glyph glyph-name="l" unicode="l" horiz-adv-x="489" 
d="M76 49q0 21 8 66l211 1341q12 80 100 80t88 -61q0 -26 -8 -66l-211 -1339q-14 -82 -101 -82t-87 61z" />
    <glyph glyph-name="m" unicode="m" horiz-adv-x="1708" 
d="M706 1065q193 0 250 -180q126 180 340 180q143 0 222 -78.5t79 -216.5q0 -49 -10 -113l-92 -585q-14 -84 -102 -84t-88 63q0 11 6 39l80 524q12 79 12 113q0 162 -164 162q-108 0 -181.5 -85t-94.5 -222l-80 -510q-13 -84 -101 -84t-88 61q0 26 4 45l80 524q13 85 13 103
q0 168 -160 168q-107 0 -185 -90t-100 -234l-78 -495q-14 -82 -101 -82t-87 63q0 11 4 33l141 893q13 80 101 80t88 -58q0 -29 -6 -49l-9 -43q115 158 307 158z" />
    <glyph glyph-name="n" unicode="n" horiz-adv-x="1126" 
d="M715 1065q139 0 220 -78t81 -219q0 -74 -44 -341l-56 -339q-11 -73 -39 -86.5t-66 -13.5q-86 0 -86 63q0 28 10 78l78 492q8 50 8 96q0 172 -174 172q-110 0 -193.5 -83.5t-107.5 -242.5l-78 -493q-14 -82 -101 -82t-87 63q0 12 10 74l135 852q11 80 99 80t88 -62
q0 -22 -4 -45l-11 -47q120 162 318 162z" />
    <glyph glyph-name="o" unicode="o" horiz-adv-x="1104" 
d="M598 893q-150 0 -240 -133.5t-90 -327.5q0 -131 63 -205.5t175 -74.5q153 0 241.5 134.5t88.5 327.5q0 132 -62 205.5t-176 73.5zM487 -20q-195 0 -302 123t-107 323q0 271 144 455t394 184q191 0 300.5 -117.5t109.5 -322.5q0 -272 -143 -458.5t-396 -186.5z" />
    <glyph glyph-name="p" unicode="p" horiz-adv-x="1128" 
d="M315 356q0 -92 56 -148t159 -56q152 0 239 141t87 338q0 130 -59 197t-167 67t-185 -79.5t-97 -213.5l-26 -160q-7 -43 -7 -86zM543 -20q-193 0 -267 149l-77 -477q-8 -50 -33.5 -67t-73.5 -17q-82 0 -82 59q0 14 49 324l145 929q21 128 37.5 152.5t87.5 24.5
q72 0 72 -60q0 -17 -5 -41t-7 -43l-4 -32q104 184 307 184q162 0 258.5 -114.5t96.5 -313.5q0 -272 -137.5 -464.5t-366.5 -192.5z" />
    <glyph glyph-name="q" unicode="q" horiz-adv-x="1120" 
d="M811 696q0 86 -56.5 141.5t-152.5 55.5q-156 0 -246 -142t-90 -337q0 -130 59.5 -197t168.5 -67t184.5 80t97.5 212l29 168q6 35 6 86zM78 408q0 282 143 469.5t355 187.5t280 -152l10 62q12 82 98 82t85 -60q0 -14 -9 -61l-202 -1286q-14 -82 -102 -82t-87 59l8 66
l72 450q-109 -163 -299 -163q-161 0 -256.5 114t-95.5 314z" />
    <glyph glyph-name="r" unicode="r" horiz-adv-x="754" 
d="M655 1065q66 0 106 -21.5t40 -61.5t-24 -74t-52 -34l-113 15q-99 0 -168.5 -76t-91.5 -219l-84 -522q-14 -84 -101 -84t-87 65q0 21 8 53l135 871q11 80 99 80t88 -64q0 -17 -4 -43l-5 -26q91 141 254 141z" />
    <glyph glyph-name="s" unicode="s" horiz-adv-x="922" 
d="M418 137q198 0 198 152q0 53 -33.5 89.5t-179.5 76.5t-207 110.5t-61 175.5q0 150 99 237t282 87q99 0 225.5 -42t126.5 -112q0 -33 -25 -64.5t-51 -31.5t-109 45q-84 45 -176 45t-140 -41t-48 -98t31.5 -91.5t147.5 -70.5q192 -56 247.5 -125.5t55.5 -167.5
q0 -155 -101 -243t-290 -88q-134 0 -250.5 53t-116.5 108q0 38 25.5 68.5t48.5 30.5t69 -27q121 -76 232 -76z" />
    <glyph glyph-name="t" unicode="t" horiz-adv-x="690" 
d="M371 -20q-228 0 -228 223q0 47 13 123l88 557h-90q-74 0 -74 54t21 80.5t79 26.5h88l35 224q13 82 101 82t88 -62q0 -7 -7 -51l-30 -193h182q70 0 70 -59q0 -102 -93 -102h-184l-90 -566q-8 -50 -8 -84q0 -92 80 -92q38 1 76 19t60 18t43 -24.5t21 -59.5q0 -50 -78.5 -82
t-162.5 -32z" />
    <glyph glyph-name="u" unicode="u" horiz-adv-x="1126" 
d="M109 276q0 55 10 119l92 578q12 84 100 84t88 -64q0 -7 -6 -53l-84 -532q-10 -63 -10 -89q0 -167 174 -167q112 0 197.5 90t107.5 241l76 492q12 82 101 82t89 -64l-145 -925q-14 -80 -101 -80t-87 61q0 17 6 41l8 53q-117 -163 -313 -163q-141 0 -222 78.5t-81 217.5z
" />
    <glyph glyph-name="v" unicode="v" horiz-adv-x="1004" 
d="M917 1061q39 0 70 -20t31 -45q0 -75 -134 -340t-265 -447t-155 -201.5t-80 -19.5t-78.5 23.5t-75 205.5t-87 418.5t-34.5 345.5q0 80 108 80q70 0 74 -76q18 -441 119 -801q248 361 419 805q18 43 33.5 57.5t54.5 14.5z" />
    <glyph glyph-name="w" unicode="w" horiz-adv-x="1548" 
d="M1460 1061q38 0 68.5 -19.5t30.5 -45.5t-21 -85q-21 -58 -103 -262q-82 -203 -198 -406t-149 -229q-34 -26 -93 -26t-83 33t-60.5 256.5t-46.5 419.5l-4 53q-125 -355 -305 -658q-38 -64 -64 -84t-72 -20t-76 14t-73 201q-42 186 -69 417.5t-27 314.5t27 104.5t87 21.5
q69 0 72 -76q15 -489 86 -797q173 283 352 801q25 72 110 72t89 -74q8 -478 86 -799q152 246 344 799q17 48 35.5 61t56.5 13z" />
    <glyph glyph-name="x" unicode="x" horiz-adv-x="969" 
d="M848 106q0 -118 -105 -118q-84 0 -84 85q0 173 -180 361q-275 -181 -321 -364q-15 -55 -36 -68.5t-63 -13.5q-84 0 -84 78q0 210 385 471q-202 214 -202 405q0 115 104 115q78 -1 78 -83q0 -172 172 -343q237 167 291 346q23 80 107 80t83 -66q0 -95 -94.5 -218.5
t-267.5 -248.5q217 -215 217 -418z" />
    <glyph glyph-name="y" unicode="y" horiz-adv-x="1004" 
d="M918 1061q38 0 67 -20t29 -52q0 -66 -219.5 -543.5t-553.5 -744.5q-170 -135 -294 -135q-70 0 -70 86q0 37 21.5 54.5t83.5 29.5t165 95.5t179 193.5q-89 212 -155.5 506.5t-66.5 446.5q0 83 109 83q70 0 74 -76q16 -392 157 -809q224 341 385 813q17 47 34 59.5t55 12.5
z" />
    <glyph glyph-name="z" unicode="z" horiz-adv-x="891" 
d="M713 166q80 0 80 -66q0 -100 -95 -100h-594q-114 0 -114 109q0 84 81 189.5t327 307.5t276 273h-479q-82 0 -82 69q0 42 25.5 69t68.5 27h577q109 0 109 -92q0 -80 -87 -187t-290 -278q-287 -231 -319 -321h516z" />
    <glyph glyph-name="braceleft" unicode="{" horiz-adv-x="623" 
d="M402 451q0 -53 -24 -200t-23 -179q0 -32 17.5 -46.5t64.5 -19.5q76 -10 76 -64q0 -102 -108 -102q-230 0 -230 217q-1 61 23 197t24 197q0 101 -80 137q-39 22 -52 37t-13 44q1 71 75 97t111.5 86t55.5 170l26 162q25 173 95 252.5t214 79.5q95 0 95 -64q0 -102 -99 -102
q-59 0 -83.5 -32t-39.5 -124l-22 -143q-23 -149 -71.5 -239t-155.5 -136q124 -62 124 -225z" />
    <glyph glyph-name="bar" unicode="|" horiz-adv-x="481" 
d="M350 -389q0 -88 -89 -88t-89 88v1945q0 86 89 86t89 -86v-1945z" />
    <glyph glyph-name="braceright" unicode="}" horiz-adv-x="623" 
d="M290 905q0 69 24 201t23 170q0 38 -16.5 52t-65.5 22q-76 10 -76 64q0 102 109 102q229 0 229 -214q1 -64 -23 -200t-24 -197q0 -100 80 -137q66 -33 66 -72t-13.5 -63.5t-74.5 -46.5t-96.5 -78t-49.5 -128t-37 -226t-93 -234t-214 -80q-94 0 -94 64q0 102 98 102
q60 0 84 32t39 124l22 143q22 144 70.5 235.5t157.5 139.5q-125 62 -125 225z" />
    <glyph glyph-name="asciitilde" unicode="~" horiz-adv-x="1192" 
d="M788 356q-110 0 -222 78t-158 78q-74 0 -117 -86q-27 -49 -66 -49t-64.5 23t-25.5 57q0 74 75 153.5t206 79.5q94 0 192 -65t123.5 -77.5t54.5 -12.5q56 0 88 53t49.5 67.5t48.5 14.5t58 -19.5t27 -56.5q0 -78 -79 -158t-190 -80z" />
    <glyph glyph-name="nonbreakingspace" unicode="&#xa0;" horiz-adv-x="434" 
 />
    <glyph glyph-name="exclamdown" unicode="&#xa1;" horiz-adv-x="563" 
d="M61 -299q0 17 7 55l139 860q7 44 26.5 63t75.5 19q86 0 86 -61q0 -7 -6 -49l-139 -871q-14 -79 -102 -79q-87 0 -87 63zM469 940q0 -54 -34.5 -89.5t-90.5 -35.5t-90.5 36.5t-34.5 89.5t34.5 88.5t90.5 35.5t90.5 -35.5t34.5 -89.5z" />
    <glyph glyph-name="cent" unicode="&#xa2;" horiz-adv-x="1085" 
d="M328 422q0 -208 141 -254l119 715q-116 -31 -188 -158.5t-72 -302.5zM784 1192l-20 -135q73 -13 154 -58.5t81 -105.5q0 -33 -25 -61.5t-57 -28.5q-33 1 -79 35t-105 47l-123 -729q76 17 142 57q39 29 74 29t55 -25.5t20 -60.5q0 -61 -98.5 -114t-222.5 -60
q-6 -28 -14 -84t-24.5 -82.5t-58.5 -26.5q-65 0 -65 53v17q0 10 2 22l18 111q-140 24 -221.5 138t-81.5 284q0 263 132.5 442t353.5 205l18 110q13 76 79 76t66 -55z" />
    <glyph glyph-name="sterling" unicode="&#xa3;" horiz-adv-x="1085" 
d="M829 170q84 0 84 -59q0 -111 -102 -111h-625q-108 0 -108 96q0 72 88 133q180 133 180 283q0 69 -4 90h-139q-42 0 -63 12.5t-21 51.5q0 106 98 106h92q-22 104 -22 174q0 218 123.5 343.5t320.5 125.5q132 0 238 -67t106 -123q0 -36 -30.5 -67.5t-58.5 -31.5t-41 11
q-89 70 -122 88t-100 18q-114 0 -181 -76.5t-67 -212.5q0 -78 23 -182h276q84 0 84 -59q0 -114 -106 -111h-220l2 -30l1 -30q-2 -229 -207 -372h501z" />
    <glyph glyph-name="currency" unicode="&#xa4;" horiz-adv-x="1085" 
d="M551 281q95 0 161 68.5t66 162.5t-66 162.5t-161 68.5t-161 -68.5t-66 -162.5t66 -162.5t161 -68.5zM547 129q-115 0 -203 57l-72 -71q-35 -35 -68 -35t-61 27t-28 57t32 67l76 74q-61 95 -61 205t63 209l-80 78q-32 31 -32 65t27 61t61 27t71 -35l76 -77q98 59 206 59
t200 -59l80 80q32 32 64 32t61.5 -26t29.5 -58t-33 -67l-79 -80q63 -107 63 -211t-61 -201q25 -22 61 -59l16 -17q33 -31 33 -65t-29.5 -60t-63.5 -26t-67 33l-73 73q-94 -57 -209 -57z" />
    <glyph glyph-name="yen" unicode="&#xa5;" horiz-adv-x="1085" 
d="M453 -12q-88 0 -88 69q0 3 8 62l26 166h-282q-78 0 -78 59q0 102 102 102h283l27 166h-287q-78 0 -78 60q0 105 109 102h174q-148 272 -148 510q0 66 23.5 91.5t77.5 25.5t69.5 -23.5t16.5 -64.5q13 -288 157 -539q244 236 361 549q29 78 100 78q92 -1 92 -71
t-98.5 -240.5t-231.5 -315.5h162q78 0 78 -59q0 -107 -104 -103h-283l-27 -166h289q78 0 78 -57q0 -104 -102 -104h-289l-35 -213q-14 -84 -102 -84z" />
    <glyph glyph-name="brokenbar" unicode="&#xa6;" horiz-adv-x="481" 
d="M348 -389q0 -86 -88 -86t-88 86v670q0 84 88 84t88 -84v-670zM348 889q0 -86 -88 -86t-88 86v667q0 86 88 86t88 -86v-667z" />
    <glyph glyph-name="section" unicode="&#xa7;" horiz-adv-x="1018" 
d="M295 561q0 -70 44.5 -110.5t193.5 -107.5q24 -11 47 -24q145 79 145 211q0 61 -38.5 99.5t-147.5 87.5q-48 18 -93 45q-151 -74 -151 -201zM918 541q0 -190 -216 -322q64 -78 64 -186q0 -162 -107.5 -266.5t-298.5 -104.5q-136 0 -254 59t-118 117q0 37 27 71t54 34
t66 -25q107 -84 221 -84t168 52t54 124t-39 111t-151 89t-197 113t-85 224q0 188 213 313q-59 78 -59 197q0 161 113 262.5t268 101.5t264 -48.5t109 -108.5q0 -35 -27 -69t-59 -34t-68 25q-98 63 -196 63t-153.5 -49.5t-55.5 -119.5t37.5 -115t150.5 -97
q174 -74 224.5 -149.5t50.5 -177.5z" />
    <glyph glyph-name="dieresis" unicode="&#xa8;" horiz-adv-x="942" 
d="M418 1233q-46 0 -78.5 32.5t-32.5 78.5t32.5 78t78.5 32t78 -32.5t32 -78.5t-32 -78t-78 -32zM799 1233q-46 0 -78.5 32.5t-32.5 78.5t33 78t79 32t77.5 -32.5t31.5 -78.5t-32 -78t-78 -32z" />
    <glyph glyph-name="copyright" unicode="&#xa9;" horiz-adv-x="1591" 
d="M821 274q-154 0 -262 111t-108 303t102.5 315t284.5 123q110 0 189 -53t79 -87t-21 -59.5t-47 -25.5t-53 25q-81 61 -147 61q-111 0 -171.5 -81t-60.5 -209t62 -207.5t174 -79.5q78 0 159 65q29 23 52 23t44 -24.5t21 -47.5q0 -49 -90.5 -100.5t-206.5 -51.5zM816 123
q238 0 407.5 169t169.5 407t-169.5 407.5t-407.5 169.5t-407 -169t-169 -407t169 -407.5t407 -169.5zM814 1413q294 0 505 -208.5t211 -504.5t-209 -505t-505 -209t-505 209t-209 505t209 504.5t503 208.5z" />
    <glyph glyph-name="ordfeminine" unicode="&#xaa;" horiz-adv-x="770" 
d="M283 977q0 -162 137 -162q73 0 125 52.5t65 133.5l19 101q4 22 4 64t-35 80t-98 38q-98 0 -157.5 -90.5t-59.5 -216.5zM367 686q-104 0 -169 74.5t-65 195.5q0 196 99.5 325.5t239.5 129.5t194 -96q2 16 8 54t74 38q69 0 69 -45q0 -12 -10 -64l-92 -546q-10 -60 -79 -60
t-69 45q0 15 4 31l4 31q-74 -113 -208 -113z" />
    <glyph glyph-name="guillemotleft" unicode="&#xab;" horiz-adv-x="1262" 
d="M580 181q0 -32 -29 -58.5t-58 -26.5t-48 13t-111 108l-183 190q-91 95 -102.5 111.5t-11.5 48.5t41 62l436 346q30 24 64 24t62 -26t28 -58t-43 -69l-369 -293l289 -303q35 -37 35 -69zM1114 181q0 -32 -29 -58.5t-57 -26.5t-47.5 12.5t-110.5 107.5l-183 190
q-91 95 -103.5 113.5t-12.5 47.5t43 62l435 346q30 24 65 24t61.5 -26.5t26.5 -60.5t-43 -66l-368 -293l288 -303q35 -37 35 -69z" />
    <glyph glyph-name="logicalnot" unicode="&#xac;" horiz-adv-x="1161" 
d="M901 612h-723q-96 0 -96 84t96 84h805q57 0 75.5 -18t18.5 -64v-405q0 -90 -88 -90t-88 90v319z" />
    <glyph glyph-name="sfthyphen" unicode="&#xad;" horiz-adv-x="723" 
d="M139 459q-80 0 -80 78q0 43 24 73t67 29h430q79 0 79 -78q1 -41 -23 -71t-71 -31h-426z" />
    <glyph glyph-name="registered" unicode="&#xae;" horiz-adv-x="1591" 
d="M799 748q151 0 151 120t-143 119h-111v-239h103zM696 623v-275q0 -63 -72 -63t-73 63v653q0 115 121 115h139q136 0 209.5 -63.5t73.5 -182.5q0 -69 -40.5 -128t-119.5 -80q55 -26 118 -147q64 -121 64 -159t-27 -54.5t-63 -16.5t-53 41q-55 157 -103.5 227t-117.5 70
h-56zM816 123q238 0 407.5 169t169.5 407t-169.5 407.5t-407.5 169.5t-407 -169t-169 -407t169 -407.5t407 -169.5zM814 1413q294 0 505 -208.5t211 -504.5t-209 -505t-505 -209t-505 209t-209 505t209 504.5t503 208.5z" />
    <glyph glyph-name="uni00AF" unicode="&#xaf;" horiz-adv-x="1024" 
d="M1201 1573h-1020q-72 0 -72 83t72 83h1020q72 0 72 -83t-72 -83z" />
    <glyph glyph-name="degree" unicode="&#xb0;" horiz-adv-x="727" 
d="M439 1260q-57 0 -97.5 -41t-40.5 -103t41.5 -101.5t96.5 -39.5t94.5 40.5t39.5 100.5t-38.5 102t-95.5 42zM438 815q-120 0 -207.5 89t-87.5 212t87.5 212t207.5 89t207.5 -89t87.5 -212t-87.5 -212t-207.5 -89z" />
    <glyph glyph-name="plusminus" unicode="&#xb1;" horiz-adv-x="1161" 
d="M995 0h-805q-96 0 -96 84t96 84h805q95 0 95 -84t-95 -84zM680 580v-226q0 -88 -88 -88t-88 88v226h-314q-96 0 -96 84t96 84h314v219q0 90 88 90t88 -90v-219h315q95 0 95 -84t-95 -84h-315z" />
    <glyph glyph-name="twosuperior" unicode="&#xb2;" 
d="M596 1210q0 72 -102 72q-66 0 -118 -40t-76 -40t-43 23t-19 51q0 46 85.5 94.5t189.5 48.5t170.5 -60.5t66.5 -156.5t-62 -169t-196 -146q-195 -113 -211 -178h307q63 0 63 -56q0 -84 -82 -84h-329q-113 0 -113 95q0 86 69.5 163t201.5 159t165 117t33 107z" />
    <glyph glyph-name="threesuperior" unicode="&#xb3;" 
d="M543 829q0 119 -148 119q-69 0 -69 58q0 30 45 75l176 176h-252q-62 0 -62 56q0 32 20 57t56 25h330q100 0 100 -84q0 -48 -57 -105l-160 -155q172 -44 172 -209q0 -128 -85 -214.5t-234 -86.5q-90 0 -170 37.5t-80 85.5q0 27 18.5 50t42.5 23q24 1 70 -33t121 -34
t120.5 44t45.5 115z" />
    <glyph glyph-name="acute" unicode="&#xb4;" horiz-adv-x="942" 
d="M548 1231q-30 0 -53.5 25.5t-23.5 59.5t51 73l187 147q50 39 83 39t57.5 -25t24.5 -62t-51 -77l-200 -147q-45 -33 -75 -33z" />
    <glyph glyph-name="mu1" unicode="&#xb5;" horiz-adv-x="1143" 
d="M102 -414q-88 0 -88 72q0 16 62 391l152 927q13 81 101 81q87 0 87 -62q0 -3 -6 -55l-84 -528q-9 -57 -9 -88q0 -172 177 -172q110 0 190 84t104 210q23 127 82 529q14 82 102 82t89 -64q0 -6 -8 -59l-138 -866q-14 -80 -101 -80t-87 61q0 16 4 39l10 51
q-113 -159 -278 -159q-139 0 -195 100l-65 -410q-13 -84 -101 -84z" />
    <glyph glyph-name="paragraph" unicode="&#xb6;" horiz-adv-x="1081" 
d="M575 -121q0 2 11 72l200 1270h-170l-210 -1332q-14 -86 -102 -86t-87 74q0 23 8 70l135 860q-102 15 -163.5 90t-61.5 199t91.5 214.5t242.5 90.5h621q84 0 84 -74q0 -44 -27.5 -75t-69.5 -31h-104l-205 -1323q-16 -95 -105 -95q-88 0 -88 76z" />
    <glyph glyph-name="periodcentered" unicode="&#xb7;" horiz-adv-x="459" 
d="M248 510q-54 0 -90.5 35t-36.5 91t36.5 92t90.5 36t90.5 -37.5t36.5 -90.5t-36.5 -89.5t-90.5 -36.5z" />
    <glyph glyph-name="cedilla" unicode="&#xb8;" horiz-adv-x="885" 
d="M328 -303q78 -1 78 63t-76 64q-33 0 -73 -3t-40 44q0 21 23 53l57 94h106l-59 -98q19 4 57 4q146 0 146 -147q0 -84 -58.5 -138.5t-142.5 -54.5t-135 21t-51 57q0 63 51 63q21 0 49 -11t68 -11z" />
    <glyph glyph-name="onesuperior" unicode="&#xb9;" 
d="M286 1182q-22 0 -39.5 20.5t-17.5 52.5t52 58l172 86q32 16 61 16q82 0 82 -65q0 -2 -6 -52l-96 -598h104q64 0 64 -51q0 -80 -70 -80h-377q-61 0 -61 54q0 37 20.5 57t46.5 20h125l88 549l-92 -49q-34 -18 -56 -18z" />
    <glyph glyph-name="ordmasculine" unicode="&#xba;" horiz-adv-x="793" 
d="M496 1284q-96 0 -153.5 -84.5t-57.5 -184.5q0 -200 149 -200q95 0 153 87t58 189q0 193 -149 193zM422 688q-128 0 -205.5 84t-77.5 213q0 186 100.5 307t270.5 121q132 0 206.5 -80t74.5 -213q0 -183 -98.5 -307.5t-270.5 -124.5z" />
    <glyph glyph-name="guillemotright" unicode="&#xbb;" horiz-adv-x="1262" 
d="M139 914q0 32 29.5 58.5t57.5 26.5t46 -11t107 -104l187 -195q98 -103 107 -118t9 -43t-43 -61l-434 -346q-31 -25 -66 -25t-61.5 26.5t-26.5 60.5t43 69l369 291l-289 303q-35 36 -35 68zM678 914q0 32 29 58.5t65 26.5t74 -41l336 -348q37 -38 37 -74t-39 -69
l-437 -346q-32 -25 -66 -25t-60.5 26.5t-26.5 60.5t41 69l368 291l-288 303q-33 36 -33 68z" />
    <glyph glyph-name="onequarter" unicode="&#xbc;" horiz-adv-x="1819" 
d="M265 1182q-21 0 -39 20t-18 53q0 32 52 58l172 86q32 16 61 16q82 0 82 -65q0 -2 -6 -52l-96 -598h104q64 0 64 -51q0 -80 -70 -80h-377q-61 0 -61 54q1 37 21 57t46 20h125l88 549l-92 -49q-34 -18 -56 -18zM416 -25q-34 0 -58 21q-24 22 -24 50t31 67l1044 1269
q31 37 65 37t58 -21t25 -48q0 -27 -27 -60l-1042 -1270q-38 -45 -72 -45zM1176 172q-107 0 -107 88q0 46 35 96l274 445q26 43 60 43t58 -20t24 -43t-29 -70l-254 -404h229l43 268q10 70 79 70t69 -57l-45 -281h47q53 0 53 -48q0 -87 -72 -87h-49l-18 -113q-12 -69 -78 -69
q-63 0 -67 40q-2 16 -1 31l19 111h-270z" />
    <glyph glyph-name="onehalf" unicode="&#xbd;" horiz-adv-x="1819" 
d="M265 1182q-21 0 -39 20t-18 53q0 32 52 58l172 86q32 16 61 16q82 0 82 -65q0 -2 -6 -52l-96 -598h104q64 0 64 -51q0 -80 -70 -80h-377q-61 0 -61 54q1 37 21 57t46 20h125l88 549l-92 -49q-34 -18 -56 -18zM416 -25q-34 0 -58 21q-24 22 -24 50t31 67l1044 1269
q31 37 65 37t58 -21t25 -48q0 -27 -27 -60l-1042 -1270q-38 -45 -72 -45zM1585 617q0 96 -102 96q-65 0 -117 -40t-76 -40t-44 23t-19 51q-1 47 85 95t190 48t170 -60t67 -158q0 -96 -62 -168t-196 -146q-195 -113 -211 -178h307q63 0 63 -56q0 -84 -82 -84h-329
q-113 0 -113 95q0 87 70 163t201 158q132 82 165 118q33 35 33 83z" />
    <glyph glyph-name="threequarters" unicode="&#xbe;" horiz-adv-x="1819" 
d="M535 829q0 119 -148 119q-69 0 -69 58q0 30 45 75l176 176h-252q-62 0 -62 56q0 32 20 57t56 25h330q100 0 100 -84q0 -48 -57 -105l-160 -155q172 -44 172 -209q0 -128 -85 -214t-234 -87q-90 -1 -170 37t-80 86q0 27 19 50q18 23 42 23q24 1 70 -33t121 -34t121 44
t45 115zM416 -25q-34 0 -58 21q-24 22 -24 50t31 67l1044 1269q31 37 65 37t58 -21t25 -48q0 -27 -27 -60l-1042 -1270q-38 -45 -72 -45zM1176 172q-107 0 -107 88q0 46 35 96l274 445q26 43 60 43t58 -20t24 -43t-29 -70l-254 -404h229l43 268q10 70 79 70t69 -57l-45 -281
h47q53 0 53 -48q0 -87 -72 -87h-49l-18 -113q-12 -69 -78 -69q-63 0 -67 40q-2 16 -1 31l19 111h-270z" />
    <glyph glyph-name="questiondown" unicode="&#xbf;" horiz-adv-x="885" 
d="M541 707q86 0 86 -68q0 -282 -254 -418q-112 -60 -156.5 -115.5t-44.5 -129.5t49 -122.5t153 -48.5t210 89q46 38 80 38t60 -27t26 -63q0 -70 -130 -140.5t-287 -70.5t-256.5 92.5t-99.5 222.5t68 227t186 163t157 122.5t54 168.5q13 80 99 80zM569 1065q54 0 89.5 -35.5
t35.5 -88.5t-36 -89.5t-90 -36.5t-89 37.5t-35 88.5t35.5 87.5t89.5 36.5z" />
    <glyph glyph-name="Agrave" unicode="&#xc0;" horiz-adv-x="1198" 
d="M836 569q-52 350 -123 598q-153 -247 -324 -598h447zM82 -14q-46 0 -80 20t-33 61t159 376t330 625t202 313q30 24 79 24h4q51 -1 79 -31t102 -302t120 -590q46 -316 46 -406t-119 -90q-66 0 -70 71q-11 139 -37 336h-555q-47 -99 -99 -223t-68 -154q-14 -30 -60 -30z
M526 1774q0 36 24 63t58 27t82 -39l189 -147q49 -38 49 -73t-24 -62t-52 -27t-76 33l-198 149q-52 40 -52 76z" />
    <glyph glyph-name="Aacute" unicode="&#xc1;" horiz-adv-x="1198" 
d="M836 569q-52 350 -123 598q-153 -247 -324 -598h447zM82 -14q-46 0 -80 20t-33 61t159 376t330 625t202 313q30 24 79 24h4q51 -1 79 -31t102 -302t120 -590q46 -316 46 -406t-119 -90q-66 0 -70 71q-11 139 -37 336h-555q-47 -99 -99 -223t-68 -154q-14 -30 -60 -30z
M712 1518q-30 0 -54 26t-23 58q0 34 51 74l187 147q50 39 83 39q34 0 58 -25t24 -62t-51 -77l-200 -147q-45 -33 -75 -33z" />
    <glyph glyph-name="Acircumflex" unicode="&#xc2;" horiz-adv-x="1198" 
d="M836 569q-52 350 -123 598q-153 -247 -324 -598h447zM82 -14q-46 0 -80 20t-33 61t159 376t330 625t202 313q30 24 79 24h4q51 -1 79 -31t102 -302t120 -590q46 -316 46 -406t-119 -90q-66 0 -70 71q-11 139 -37 336h-555q-47 -99 -99 -223t-68 -154q-14 -30 -60 -30z
M508 1520q-28 0 -50 24t-22 62t62 72l200 112q45 25 87 25t79 -29l146 -106q57 -41 57 -75q1 -33 -25 -59t-55 -26t-67 29l-142 110l-204 -117q-38 -22 -66 -22z" />
    <glyph glyph-name="Atilde" unicode="&#xc3;" horiz-adv-x="1198" 
d="M836 569q-52 350 -123 598q-153 -247 -324 -598h447zM82 -14q-46 0 -80 20t-33 61t159 376t330 625t202 313q30 24 79 24h4q51 -1 79 -31t102 -302t120 -590q46 -316 46 -406t-119 -90q-66 0 -70 71q-11 139 -37 336h-555q-47 -99 -99 -223t-68 -154q-14 -30 -60 -30z
M908 1524q-68 0 -138 37t-108 37t-74 -38t-63 -38t-49 22t-21 52q0 52 64 100t137 49q73 0 159 -43q51 -31 89 -31t66 36q29 36 54 36q74 0 74 -67q0 -52 -60 -102q-62 -50 -130 -50z" />
    <glyph glyph-name="Adieresis" unicode="&#xc4;" horiz-adv-x="1198" 
d="M836 569q-52 350 -123 598q-153 -247 -324 -598h447zM82 -14q-46 0 -80 20t-33 61t159 376t330 625t202 313q30 24 79 24h4q51 -1 79 -31t102 -302t120 -590q46 -316 46 -406t-119 -90q-66 0 -70 71q-11 139 -37 336h-555q-47 -99 -99 -223t-68 -154q-14 -30 -60 -30z
M582 1520q-46 0 -78 32t-33 78q0 46 33 79q32 32 78 32q46 -1 78 -33t32 -78t-32 -78t-78 -32zM963 1520q-47 0 -79 32t-32 78t33 79q33 32 79 32q46 -1 77 -33q32 -32 32 -78t-32 -78t-78 -32z" />
    <glyph glyph-name="Aring" unicode="&#xc5;" horiz-adv-x="1198" 
d="M836 569q-52 350 -123 598q-153 -247 -324 -598h447zM752 1614q-42 0 -72.5 -31t-30.5 -74t30.5 -75.5t72.5 -32.5t74 30.5t32 76.5t-32 76t-74 30zM1090 74q0 -88 -119 -88q-66 0 -70 71q-11 139 -37 336h-555q-47 -99 -99 -223t-67 -154t-61 -30t-79.5 20t-33.5 53
q0 66 223 519.5t435 762.5q-82 61 -82 157t62 159t147 63t147 -63t62 -150q0 -122 -113 -186q5 -14 9 -27l9 -28q96 -287 159 -678t63 -514z" />
    <glyph glyph-name="AE" unicode="&#xc6;" horiz-adv-x="1729" 
d="M908 1128q-286 -362 -436 -589h342zM894 0q-143 0 -143 123q0 16 12 86l22 158h-426q-85 -126 -200 -324q-35 -59 -81 -59t-76 28t-30 59t80.5 166.5t408 594.5t425.5 530q45 31 86 31h684q84 0 84 -64q0 -117 -111 -117h-483q-37 0 -41 -38l-57 -359h452q84 0 84 -65
q0 -115 -110 -115h-455l-63 -407q-9 -48 20 -48h485q86 0 86 -63q0 -117 -110 -117h-543z" />
    <glyph glyph-name="Ccedilla" unicode="&#xc7;" horiz-adv-x="1206" 
d="M621 -82q145 0 145 -147q0 -84 -58 -138.5t-150 -54.5t-135.5 22.5t-43.5 55.5q0 63 51 63q14 1 24 -3q50 -18 93 -19q76 -1 76 63t-74 64q-33 0 -74 -3t-41 44q0 21 18 47t27.5 43.5t22.5 36.5q-190 36 -290.5 188.5t-100.5 382.5q0 367 184 608.5t500 241.5
q159 0 286 -78t127 -151q0 -29 -28 -60.5t-60 -31.5t-78 38q-113 107 -260 107q-227 0 -353 -191.5t-126 -472.5q0 -199 87.5 -307t235.5 -108t294 100q40 29 70 29t54.5 -31t24.5 -63q0 -66 -155.5 -144t-305.5 -67q-10 -16 -18 -32t-21 -36q20 4 52 4z" />
    <glyph glyph-name="Egrave" unicode="&#xc8;" horiz-adv-x="1067" 
d="M248 0q-146 0 -146 123q0 13 11 70l159 1024q26 176 207 176h529q86 0 86 -64q0 -117 -111 -117h-483q-37 0 -41 -38l-58 -359h451q84 0 84 -65q0 -115 -111 -115h-452l-60 -383q-6 -38 -6 -49q0 -23 23 -23h485q84 0 84 -63q0 -117 -111 -117h-540zM503 1774q0 36 24 63
q25 27 59 27t81 -39l189 -147q49 -38 49 -73q1 -35 -23 -62t-52 -27t-77 33l-198 149q-52 40 -52 76z" />
    <glyph glyph-name="Eacute" unicode="&#xc9;" horiz-adv-x="1067" 
d="M248 0q-146 0 -146 123q0 13 11 70l159 1024q26 176 207 176h529q86 0 86 -64q0 -117 -111 -117h-483q-37 0 -41 -38l-58 -359h451q84 0 84 -65q0 -115 -111 -115h-452l-60 -383q-6 -38 -6 -49q0 -23 23 -23h485q84 0 84 -63q0 -117 -111 -117h-540zM689 1518
q-29 0 -53 26t-24 58q0 34 51 74l187 147q50 39 83 39t57 -25t25 -62q0 -37 -51 -77l-200 -147q-45 -33 -75 -33z" />
    <glyph glyph-name="Ecircumflex" unicode="&#xca;" horiz-adv-x="1067" 
d="M248 0q-146 0 -146 123q0 13 11 70l159 1024q26 176 207 176h529q86 0 86 -64q0 -117 -111 -117h-483q-37 0 -41 -38l-58 -359h451q84 0 84 -65q0 -115 -111 -115h-452l-60 -383q-6 -38 -6 -49q0 -23 23 -23h485q84 0 84 -63q0 -117 -111 -117h-540zM484 1520
q-28 0 -50 24t-21 62q0 38 62 72l200 112q45 25 87 25t79 -29l146 -106q57 -41 57 -75q0 -33 -26 -59t-54 -26q-29 0 -67 29l-142 110l-204 -117q-39 -22 -67 -22z" />
    <glyph glyph-name="Edieresis" unicode="&#xcb;" horiz-adv-x="1067" 
d="M248 0q-146 0 -146 123q0 13 11 70l159 1024q26 176 207 176h529q86 0 86 -64q0 -117 -111 -117h-483q-37 0 -41 -38l-58 -359h451q84 0 84 -65q0 -115 -111 -115h-452l-60 -383q-6 -38 -6 -49q0 -23 23 -23h485q84 0 84 -63q0 -117 -111 -117h-540zM559 1520
q-47 0 -79 32t-32 78t33 79q33 32 79 32q46 -1 77 -33q32 -32 32 -78t-32 -78t-78 -32zM940 1520q-46 0 -78 32t-33 78q0 46 33 79q32 32 78 32q46 -1 78 -33t32 -78t-32 -78t-78 -32z" />
    <glyph glyph-name="Igrave" unicode="&#xcc;" horiz-adv-x="537" 
d="M94 51q0 21 8 58l193 1212q12 84 102 84t90 -64l-200 -1267q-13 -86 -103 -86t-90 63zM181 1774q0 36 24 63q25 27 59 27t81 -39l189 -147q49 -38 49 -73q1 -35 -23 -62t-52 -27t-77 33l-198 149q-52 40 -52 76z" />
    <glyph glyph-name="Iacute" unicode="&#xcd;" horiz-adv-x="537" 
d="M94 51q0 21 8 58l193 1212q12 84 102 84t90 -64l-200 -1267q-13 -86 -103 -86t-90 63zM367 1518q-29 0 -53 26t-24 58q0 34 51 74l187 147q50 39 83 39t57 -25t25 -62q0 -37 -51 -77l-200 -147q-45 -33 -75 -33z" />
    <glyph glyph-name="Icircumflex" unicode="&#xce;" horiz-adv-x="537" 
d="M94 51q0 21 8 58l193 1212q12 84 102 84t90 -64l-200 -1267q-13 -86 -103 -86t-90 63zM162 1520q-28 0 -50 24t-21 62q0 38 62 72l200 112q45 25 87 25t79 -29l146 -106q57 -41 57 -75q0 -33 -26 -59t-54 -26q-29 0 -67 29l-142 110l-204 -117q-39 -22 -67 -22z" />
    <glyph glyph-name="Idieresis" unicode="&#xcf;" horiz-adv-x="537" 
d="M94 51q0 21 8 58l193 1212q12 84 102 84t90 -64l-200 -1267q-13 -86 -103 -86t-90 63zM237 1520q-47 0 -79 32t-32 78t33 79q33 32 79 32q46 -1 77 -33q32 -32 32 -78t-32 -78t-78 -32zM618 1520q-46 0 -78 32t-33 78q0 46 33 79q32 32 78 32q46 -1 78 -33t32 -78
t-32 -78t-78 -32z" />
    <glyph glyph-name="Eth" unicode="&#xd0;" horiz-adv-x="1352" 
d="M1069 838q0 374 -373 374h-202q-33 0 -33 -34l-60 -363h244q84 0 84 -70q0 -114 -108 -110h-248l-68 -432q0 -23 27 -23h219q255 0 386.5 178t131.5 480zM102 635q-79 0 -79 70q0 110 104 110h84l68 428q24 150 182 150h246q273 0 414 -144t141 -411q0 -364 -188 -601
t-539 -237h-297q-132 0 -132 129q0 15 76 506h-80z" />
    <glyph glyph-name="Ntilde" unicode="&#xd1;" horiz-adv-x="1384" 
d="M1012 -12q-80 0 -111 71l-461 1049l-140 -887q-27 -173 -38 -193q-21 -39 -95 -40q-73 0 -73 61q0 1 6 53l187 1170q20 133 141 133q79 0 107 -74l452 -1038l164 1026q9 57 35 71t61 15q88 0 88 -66q0 -10 -8 -61l-188 -1180q-18 -110 -127 -110zM984 1524q-68 0 -138 37
t-108 37t-74 -38t-63 -38t-49 22t-21 52q0 52 64 100t137 49q73 0 159 -43q51 -31 89 -31t66 36q29 36 54 36q74 0 74 -67q0 -52 -60 -102q-62 -50 -130 -50z" />
    <glyph glyph-name="Ograve" unicode="&#xd2;" horiz-adv-x="1362" 
d="M782 1243q-219 -1 -351 -199t-132 -489q1 -189 87 -297t249 -108q221 0 347 200t126 494q0 186 -84 292t-242 107zM612 -20q-232 0 -368 153t-135 416q0 366 186 615t506 249q233 0 365 -148t132 -409q0 -368 -183 -622t-503 -254zM591 1774q0 36 24 63q25 27 59 27
t81 -39l189 -147q49 -38 49 -73q1 -35 -23 -62t-52 -27t-77 33l-198 149q-52 40 -52 76z" />
    <glyph glyph-name="Oacute" unicode="&#xd3;" horiz-adv-x="1362" 
d="M782 1243q-219 -1 -351 -199t-132 -489q1 -189 87 -297t249 -108q221 0 347 200t126 494q0 186 -84 292t-242 107zM612 -20q-232 0 -368 153t-135 416q0 366 186 615t506 249q233 0 365 -148t132 -409q0 -368 -183 -622t-503 -254zM777 1518q-29 0 -53 26t-24 58
q0 34 51 74l187 147q50 39 83 39t57 -25t25 -62q0 -37 -51 -77l-200 -147q-45 -33 -75 -33z" />
    <glyph glyph-name="Ocircumflex" unicode="&#xd4;" horiz-adv-x="1362" 
d="M782 1243q-219 -1 -351 -199t-132 -489q1 -189 87 -297t249 -108q221 0 347 200t126 494q0 186 -84 292t-242 107zM612 -20q-232 0 -368 153t-135 416q0 366 186 615t506 249q233 0 365 -148t132 -409q0 -368 -183 -622t-503 -254zM572 1520q-28 0 -50 24t-21 62
q0 38 62 72l200 112q45 25 87 25t79 -29l146 -106q57 -41 57 -75q0 -33 -26 -59t-54 -26q-29 0 -67 29l-142 110l-204 -117q-39 -22 -67 -22z" />
    <glyph glyph-name="Otilde" unicode="&#xd5;" horiz-adv-x="1362" 
d="M782 1243q-219 -1 -351 -199t-132 -489q1 -189 87 -297t249 -108q221 0 347 200t126 494q0 186 -84 292t-242 107zM612 -20q-232 0 -368 153t-135 416q0 366 186 615t506 249q233 0 365 -148t132 -409q0 -368 -183 -622t-503 -254zM974 1524q-68 0 -139 37
q-69 37 -107 37t-74 -38t-64 -38q-26 0 -48 22t-22 52q0 52 64 100t137 49q73 0 159 -43q50 -31 88 -31t67 36t54 36q74 0 74 -67q-1 -52 -61 -102t-128 -50z" />
    <glyph glyph-name="Odieresis" unicode="&#xd6;" horiz-adv-x="1362" 
d="M782 1243q-219 -1 -351 -199t-132 -489q1 -189 87 -297t249 -108q221 0 347 200t126 494q0 186 -84 292t-242 107zM612 -20q-232 0 -368 153t-135 416q0 366 186 615t506 249q233 0 365 -148t132 -409q0 -368 -183 -622t-503 -254zM647 1520q-47 0 -79 32t-32 78t33 79
q33 32 79 32q46 -1 77 -33q32 -32 32 -78t-32 -78t-78 -32zM1028 1520q-46 0 -78 32t-33 78q0 46 33 79q32 32 78 32q46 -1 78 -33t32 -78t-32 -78t-78 -32z" />
    <glyph glyph-name="multiply" unicode="&#xd7;" horiz-adv-x="1161" 
d="M1016 188q0 -29 -33 -59.5t-59 -30.5t-64 37l-270 273l-268 -273q-36 -37 -64 -37t-60 30t-32 60t37 66l270 272l-270 271q-37 37 -37 65t29 61t59 33t68 -38l268 -273l274 275q36 36 63 36t58 -31t31 -62t-37 -64l-270 -273l270 -272q37 -37 37 -66z" />
    <glyph glyph-name="Oslash" unicode="&#xd8;" horiz-adv-x="1362" 
d="M635 150q220 0 346.5 200t126.5 494q0 143 -55 243l-627 -870q80 -67 209 -67zM782 1243q-219 0 -351 -198.5t-132 -489.5q0 -108 33 -195l610 842q-65 41 -160 41zM159 -106q-35 0 -61 22t-26 54t26 69l107 145q-96 144 -96 365q0 366 186 615t506 249q142 0 250 -57
l75 102q36 47 70 47t61 -22t27 -50t-24 -65l-84 -113q122 -145 122 -399q0 -368 -183 -622t-503 -254q-174 0 -295 86l-75 -105q-48 -67 -83 -67z" />
    <glyph glyph-name="Ugrave" unicode="&#xd9;" horiz-adv-x="1313" 
d="M600 -20q-220 0 -338 106t-119 291q0 65 15 151l125 791q14 86 103 86t89 -70q0 -23 -10 -65l-119 -762q-12 -77 -12 -119q0 -109 70 -171t208 -62q136 0 221 72t109 218l137 873q13 86 103 86t90 -68q0 -23 -10 -69l-129 -822q-37 -234 -175 -350t-358 -116zM577 1774
q0 36 24 63q25 27 59 27t81 -39l189 -147q49 -38 49 -73q1 -35 -23 -62t-52 -27t-77 33l-198 149q-52 40 -52 76z" />
    <glyph glyph-name="Uacute" unicode="&#xda;" horiz-adv-x="1313" 
d="M600 -20q-220 0 -338 106t-119 291q0 65 15 151l125 791q14 86 103 86t89 -70q0 -23 -10 -65l-119 -762q-12 -77 -12 -119q0 -109 70 -171t208 -62q136 0 221 72t109 218l137 873q13 86 103 86t90 -68q0 -23 -10 -69l-129 -822q-37 -234 -175 -350t-358 -116zM763 1518
q-29 0 -53 26t-24 58q0 34 51 74l187 147q50 39 83 39t57 -25t25 -62q0 -37 -51 -77l-200 -147q-45 -33 -75 -33z" />
    <glyph glyph-name="Ucircumflex" unicode="&#xdb;" horiz-adv-x="1313" 
d="M600 -20q-220 0 -338 106t-119 291q0 65 15 151l125 791q14 86 103 86t89 -70q0 -23 -10 -65l-119 -762q-12 -77 -12 -119q0 -109 70 -171t208 -62q136 0 221 72t109 218l137 873q13 86 103 86t90 -68q0 -23 -10 -69l-129 -822q-37 -234 -175 -350t-358 -116zM558 1520
q-28 0 -50 24t-21 62q0 38 62 72l200 112q45 25 87 25t79 -29l146 -106q57 -41 57 -75q0 -33 -26 -59t-54 -26q-29 0 -67 29l-142 110l-204 -117q-39 -22 -67 -22z" />
    <glyph glyph-name="Udieresis" unicode="&#xdc;" horiz-adv-x="1313" 
d="M600 -20q-220 0 -338 106t-119 291q0 65 15 151l125 791q14 86 103 86t89 -70q0 -23 -10 -65l-119 -762q-12 -77 -12 -119q0 -109 70 -171t208 -62q136 0 221 72t109 218l137 873q13 86 103 86t90 -68q0 -23 -10 -69l-129 -822q-37 -234 -175 -350t-358 -116zM633 1520
q-47 0 -79 32t-32 78t33 79q33 32 79 32q46 -1 77 -33q32 -32 32 -78t-32 -78t-78 -32zM1014 1520q-46 0 -78 32t-33 78q0 46 33 79q32 32 78 32q46 -1 78 -33t32 -78t-32 -78t-78 -32z" />
    <glyph glyph-name="Yacute" unicode="&#xdd;" horiz-adv-x="1038" 
d="M330 53q0 8 6 60l70 428q-254 356 -254 735q0 71 24 100t84 29q80 0 80 -74q0 -116 7 -198t50 -202t123 -233q306 270 393 621q13 51 33 69t66 17q100 0 100 -70q0 -122 -137 -356t-379 -438l-76 -467q-14 -86 -102 -86t-88 65zM605 1518q-29 0 -53 26t-24 58q0 34 51 74
l187 147q50 39 83 39t57 -25t25 -62q0 -37 -51 -77l-200 -147q-45 -33 -75 -33z" />
    <glyph glyph-name="Thorn" unicode="&#xde;" horiz-adv-x="1100" 
d="M883 743q0 211 -238 211h-221l-80 -499h234q147 0 226 75t79 213zM315 276q0 -1 -16 -102l-16 -100q-13 -86 -103 -86t-90 61q0 10 10 78l191 1194q12 84 102 84t90 -62q0 -19 -10 -71l-20 -137h223q194 0 297.5 -100t103.5 -298t-134 -329.5t-376 -131.5h-252z" />
    <glyph glyph-name="germandbls" unicode="&#xdf;" horiz-adv-x="1075" 
d="M1018 461q0 -199 -129 -339t-341 -140t-212 96q0 35 24 65.5t52 30.5t51 -10q40 -10 80 -10q134 0 210 86t76 202t-61.5 180t-159.5 71t-98 69q0 87 92 106q260 58 260 301q0 83 -48 137t-146 54t-164 -70t-84 -209l-162 -1013q-14 -84 -101 -84t-87 73q0 13 6 64
l157 979q68 432 457 432q172 0 268.5 -95.5t96.5 -243.5t-76 -257.5t-195 -144.5q234 -80 234 -330z" />
    <glyph glyph-name="agrave" unicode="&#xe0;" horiz-adv-x="1133" 
d="M811 696q-1 86 -57 142t-152 55q-156 0 -246 -142t-90 -337q0 -130 60 -197t168 -67q110 0 186 82t96 210l29 174q6 36 6 80zM430 -20q-160 0 -256 114t-96 314q0 282 142 470t356 187q214 0 280 -152l10 62q12 82 98 82t85 -60q0 -2 -9 -71l-135 -852q-9 -58 -35 -72
t-67 -14q-80 0 -80 59q0 11 6 53l10 62q-102 -182 -309 -182zM380 1486q0 36 24 63t58 27t82 -39l189 -147q49 -38 49 -73t-24 -62t-52 -27t-76 33l-198 149q-52 40 -52 76z" />
    <glyph glyph-name="aacute" unicode="&#xe1;" horiz-adv-x="1133" 
d="M811 696q-1 86 -57 142t-152 55q-156 0 -246 -142t-90 -337q0 -130 60 -197t168 -67q110 0 186 82t96 210l29 174q6 36 6 80zM430 -20q-160 0 -256 114t-96 314q0 282 142 470t356 187q214 0 280 -152l10 62q12 82 98 82t85 -60q0 -2 -9 -71l-135 -852q-9 -58 -35 -72
t-67 -14q-80 0 -80 59q0 11 6 53l10 62q-102 -182 -309 -182zM566 1230q-30 0 -54 26t-23 58q0 34 51 74l187 147q50 39 83 39q34 0 58 -25t24 -62t-51 -77l-200 -147q-45 -33 -75 -33z" />
    <glyph glyph-name="acircumflex" unicode="&#xe2;" horiz-adv-x="1133" 
d="M811 696q-1 86 -57 142t-152 55q-156 0 -246 -142t-90 -337q0 -130 60 -197t168 -67q110 0 186 82t96 210l29 174q6 36 6 80zM430 -20q-160 0 -256 114t-96 314q0 282 142 470t356 187q214 0 280 -152l10 62q12 82 98 82t85 -60q0 -2 -9 -71l-135 -852q-9 -58 -35 -72
t-67 -14q-80 0 -80 59q0 11 6 53l10 62q-102 -182 -309 -182zM362 1232q-28 0 -50 24t-22 62t62 72l200 112q45 25 87 25t79 -29l146 -106q57 -41 57 -75q1 -33 -25 -59t-55 -26t-67 29l-142 110l-204 -117q-38 -22 -66 -22z" />
    <glyph glyph-name="atilde" unicode="&#xe3;" horiz-adv-x="1133" 
d="M811 696q-1 86 -57 142t-152 55q-156 0 -246 -142t-90 -337q0 -130 60 -197t168 -67q110 0 186 82t96 210l29 174q6 36 6 80zM430 -20q-160 0 -256 114t-96 314q0 282 142 470t356 187q214 0 280 -152l10 62q12 82 98 82t85 -60q0 -2 -9 -71l-135 -852q-9 -58 -35 -72
t-67 -14q-80 0 -80 59q0 11 6 53l10 62q-102 -182 -309 -182zM762 1236q-68 0 -138 37t-108 37t-74 -38t-63 -38t-49 22t-21 52q0 52 64 100t137 49q73 0 159 -43q51 -31 89 -31t66 36q29 36 54 36q74 0 74 -67q0 -52 -60 -102q-62 -50 -130 -50z" />
    <glyph glyph-name="adieresis" unicode="&#xe4;" horiz-adv-x="1133" 
d="M811 696q-1 86 -57 142t-152 55q-156 0 -246 -142t-90 -337q0 -130 60 -197t168 -67q110 0 186 82t96 210l29 174q6 36 6 80zM430 -20q-160 0 -256 114t-96 314q0 282 142 470t356 187q214 0 280 -152l10 62q12 82 98 82t85 -60q0 -2 -9 -71l-135 -852q-9 -58 -35 -72
t-67 -14q-80 0 -80 59q0 11 6 53l10 62q-102 -182 -309 -182zM436 1232q-46 0 -78 32t-33 78q0 46 33 79q32 32 78 32q46 -1 78 -33t32 -78t-32 -78t-78 -32zM817 1232q-47 0 -79 32t-32 78t33 79q33 32 79 32q46 -1 77 -33q32 -32 32 -78t-32 -78t-78 -32z" />
    <glyph glyph-name="aring" unicode="&#xe5;" horiz-adv-x="1133" 
d="M811 696q-1 86 -57 142t-152 55q-156 0 -246 -142t-90 -337q0 -130 60 -197t168 -67q110 0 186 82t96 210l29 174q6 36 6 80zM430 -20q-160 0 -256 114t-96 314q0 282 142 470t356 187q214 0 280 -152l10 62q12 82 98 82t85 -60q0 -2 -9 -71l-135 -852q-9 -58 -35 -72
t-67 -14q-80 0 -80 59q0 11 6 53l10 62q-102 -182 -309 -182zM634 1469q-42 -1 -74 -31t-32 -74t32 -76q32 -30 75 -30q42 0 74 30t32 75q0 44 -32 75q-33 31 -75 31zM634 1152q-86 0 -148 63t-62 149t62 148q62 64 148 64t148 -64t63 -148q0 -86 -63 -149t-148 -63z" />
    <glyph glyph-name="ae" unicode="&#xe6;" horiz-adv-x="1632" 
d="M229 270q0 -53 39.5 -90t110.5 -37q246 0 332 330q-261 0 -371.5 -47.5t-110.5 -155.5zM1022 606q197 0 284 39.5t87 126.5q0 57 -41.5 92t-112.5 35q-117 0 -204 -80.5t-113 -212.5h100zM1575 791q0 -336 -553 -336h-119l-1 -79q4 -159 84.5 -191.5t139.5 -32.5
q108 0 241 84q13 8 39 8t49.5 -28t23.5 -60q0 -60 -117 -118t-253 -58t-229.5 66.5t-121.5 182.5q-151 -249 -406 -249q-141 0 -222 78t-81 200q0 184 155 275.5t533 91.5q8 31 8 103t-48.5 119.5t-140.5 47.5t-176 -49t-112 -49t-50.5 27t-22.5 61q0 62 129.5 121t263.5 59
q235 0 299 -199q63 96 161.5 147.5t202.5 51.5q154 0 239 -75.5t85 -198.5z" />
    <glyph glyph-name="ccedilla" unicode="&#xe7;" horiz-adv-x="965" 
d="M270 422q0 -266 222 -266q95 0 196 63q39 27 73 27t57.5 -27.5t23.5 -62.5q0 -66 -109 -121t-256 -55q-11 -23 -39 -66q20 4 54 4q145 0 145 -147q0 -84 -58.5 -138.5t-147.5 -54.5t-136 21.5t-47 56.5q0 63 51 63q17 0 48 -11q32 -11 69 -11q78 -1 78 63t-76 64
q-33 0 -73 -3t-40 44q0 21 23 53l26 45q10 18 17 29q-139 29 -216 142.5t-77 279.5q0 287 147.5 469t386.5 182q125 0 226.5 -55t101.5 -121q0 -37 -25.5 -65.5t-56.5 -28.5t-78 34q-80 64 -176 64q-141 0 -237.5 -131t-96.5 -340z" />
    <glyph glyph-name="egrave" unicode="&#xe8;" horiz-adv-x="1001" 
d="M420 571q338 0 338 193q0 60 -41 98t-113 37q-116 -1 -203 -87t-120 -241h139zM266 418v-39q0 -107 59 -167t165 -60t222 72q26 16 53 16t52 -30t25 -58q0 -60 -114 -116t-259 -56q-187 0 -289 108t-102 301q0 297 158 487t380 189q152 0 238 -78t86 -211
q0 -166 -141 -262t-387 -96h-146zM409 1486q0 36 24 63q25 27 59 27t81 -39l189 -147q49 -38 49 -73q1 -35 -23 -62t-52 -27t-77 33l-198 149q-52 40 -52 76z" />
    <glyph glyph-name="eacute" unicode="&#xe9;" horiz-adv-x="1001" 
d="M420 571q338 0 338 193q0 60 -41 98t-113 37q-116 -1 -203 -87t-120 -241h139zM266 418v-39q0 -107 59 -167t165 -60t222 72q26 16 53 16t52 -30t25 -58q0 -60 -114 -116t-259 -56q-187 0 -289 108t-102 301q0 297 158 487t380 189q152 0 238 -78t86 -211
q0 -166 -141 -262t-387 -96h-146zM595 1230q-29 0 -53 26t-24 58q0 34 51 74l187 147q50 39 83 39t57 -25t25 -62q0 -37 -51 -77l-200 -147q-45 -33 -75 -33z" />
    <glyph glyph-name="ecircumflex" unicode="&#xea;" horiz-adv-x="1001" 
d="M420 571q338 0 338 193q0 60 -41 98t-113 37q-116 -1 -203 -87t-120 -241h139zM266 418v-39q0 -107 59 -167t165 -60t222 72q26 16 53 16t52 -30t25 -58q0 -60 -114 -116t-259 -56q-187 0 -289 108t-102 301q0 297 158 487t380 189q152 0 238 -78t86 -211
q0 -166 -141 -262t-387 -96h-146zM390 1232q-28 0 -50 24t-21 62q0 38 62 72l200 112q45 25 87 25t79 -29l146 -106q57 -41 57 -75q0 -33 -26 -59t-54 -26q-29 0 -67 29l-142 110l-204 -117q-39 -22 -67 -22z" />
    <glyph glyph-name="edieresis" unicode="&#xeb;" horiz-adv-x="1001" 
d="M420 571q338 0 338 193q0 60 -41 98t-113 37q-116 -1 -203 -87t-120 -241h139zM266 418v-39q0 -107 59 -167t165 -60t222 72q26 16 53 16t52 -30t25 -58q0 -60 -114 -116t-259 -56q-187 0 -289 108t-102 301q0 297 158 487t380 189q152 0 238 -78t86 -211
q0 -166 -141 -262t-387 -96h-146zM465 1232q-47 0 -79 32t-32 78t33 79q33 32 79 32q46 -1 77 -33q32 -32 32 -78t-32 -78t-78 -32zM846 1232q-46 0 -78 32t-33 78q0 46 33 79q32 32 78 32q46 -1 78 -33t32 -78t-32 -78t-78 -32z" />
    <glyph glyph-name="igrave" unicode="&#xec;" horiz-adv-x="489" 
d="M76 49q0 21 8 66l137 862q13 80 101 80t88 -62q0 -8 -11 -69l-135 -854q-14 -84 -101 -84t-87 61zM115 1486q0 36 24 63q25 27 59 27t81 -39l189 -147q49 -38 49 -73q1 -35 -23 -62t-52 -27t-77 33l-198 149q-52 40 -52 76z" />
    <glyph glyph-name="iacute" unicode="&#xed;" horiz-adv-x="489" 
d="M76 49q0 21 8 66l137 862q13 80 101 80t88 -62q0 -8 -11 -69l-135 -854q-14 -84 -101 -84t-87 61zM301 1230q-29 0 -53 26t-24 58q0 34 51 74l187 147q50 39 83 39t57 -25t25 -62q0 -37 -51 -77l-200 -147q-45 -33 -75 -33z" />
    <glyph glyph-name="icircumflex" unicode="&#xee;" horiz-adv-x="489" 
d="M76 49q0 21 8 66l137 862q13 80 101 80t88 -62q0 -8 -11 -69l-135 -854q-14 -84 -101 -84t-87 61zM96 1232q-28 0 -50 24t-21 62q0 38 62 72l200 112q45 25 87 25t79 -29l146 -106q57 -41 57 -75q0 -33 -26 -59t-54 -26q-29 0 -67 29l-142 110l-204 -117q-39 -22 -67 -22
z" />
    <glyph glyph-name="idieresis" unicode="&#xef;" horiz-adv-x="489" 
d="M76 49q0 21 8 66l137 862q13 80 101 80t88 -62q0 -8 -11 -69l-135 -854q-14 -84 -101 -84t-87 61zM171 1232q-47 0 -79 32t-32 78t33 79q33 32 79 32q46 -1 77 -33q32 -32 32 -78t-32 -78t-78 -32zM552 1232q-46 0 -78 32t-33 78q0 46 33 79q32 32 78 32q46 -1 78 -33
t32 -78t-32 -78t-78 -32z" />
    <glyph glyph-name="eth" unicode="&#xf0;" horiz-adv-x="1104" 
d="M588 850q-147 0 -233.5 -122.5t-86.5 -303.5q0 -131 61 -201.5t175 -70.5q150 0 233.5 130.5t83.5 307.5q0 124 -60 192t-173 68zM1016 641q0 -275 -138.5 -468t-392.5 -193q-194 0 -300.5 117.5t-106.5 318.5q0 252 132.5 428t354.5 176q146 0 232 -107
q-62 187 -195 299q-30 -16 -104 -62t-106 -46t-54.5 26t-22.5 54t17 46.5t67 46.5t76 44q-25 17 -71 41t-66.5 36.5t-20.5 46.5t26.5 62.5t57.5 28.5q85 0 236 -115l131 81q50 32 78 32t53 -29t25 -55t-16 -44t-146 -95q254 -240 254 -670z" />
    <glyph glyph-name="ntilde" unicode="&#xf1;" horiz-adv-x="1126" 
d="M715 1065q139 0 220 -78t81 -219q0 -74 -44 -341l-56 -339q-11 -72 -39 -86t-66 -14q-86 0 -86 63q0 28 10 78l78 492q8 50 8 96q0 172 -174 172q-109 1 -193 -83t-108 -243l-78 -493q-14 -82 -101 -82t-87 63q0 12 10 74l135 852q11 80 99 80t88 -62q0 -22 -4 -45
l-11 -47q120 162 318 162zM824 1236q-68 0 -138 37t-108 37t-74 -38t-63 -38t-49 22t-21 52q0 52 64 100t137 49q73 0 159 -43q51 -31 89 -31t66 36q29 36 54 36q74 0 74 -67q0 -52 -60 -102q-62 -50 -130 -50z" />
    <glyph glyph-name="ograve" unicode="&#xf2;" horiz-adv-x="1104" 
d="M598 893q-150 1 -240 -133t-90 -328q0 -132 63 -206t175 -74q154 0 242 134t88 328q0 132 -62 206t-176 73zM487 -20q-195 0 -302 123t-107 323q0 271 144 455t394 184q190 1 300 -117t110 -323q0 -273 -143 -459t-396 -186zM419 1486q0 36 24 63q25 27 59 27t81 -39
l189 -147q49 -38 49 -73q1 -35 -23 -62t-52 -27t-77 33l-198 149q-52 40 -52 76z" />
    <glyph glyph-name="oacute" unicode="&#xf3;" horiz-adv-x="1104" 
d="M598 893q-150 1 -240 -133t-90 -328q0 -132 63 -206t175 -74q154 0 242 134t88 328q0 132 -62 206t-176 73zM487 -20q-195 0 -302 123t-107 323q0 271 144 455t394 184q190 1 300 -117t110 -323q0 -273 -143 -459t-396 -186zM605 1230q-29 0 -53 26t-24 58q0 34 51 74
l187 147q50 39 83 39t57 -25t25 -62q0 -37 -51 -77l-200 -147q-45 -33 -75 -33z" />
    <glyph glyph-name="ocircumflex" unicode="&#xf4;" horiz-adv-x="1104" 
d="M598 893q-150 1 -240 -133t-90 -328q0 -132 63 -206t175 -74q154 0 242 134t88 328q0 132 -62 206t-176 73zM487 -20q-195 0 -302 123t-107 323q0 271 144 455t394 184q190 1 300 -117t110 -323q0 -273 -143 -459t-396 -186zM400 1232q-28 0 -50 24t-21 62q0 38 62 72
l200 112q45 25 87 25t79 -29l146 -106q57 -41 57 -75q0 -33 -26 -59t-54 -26q-29 0 -67 29l-142 110l-204 -117q-39 -22 -67 -22z" />
    <glyph glyph-name="otilde" unicode="&#xf5;" horiz-adv-x="1104" 
d="M598 893q-150 1 -240 -133t-90 -328q0 -132 63 -206t175 -74q154 0 242 134t88 328q0 132 -62 206t-176 73zM487 -20q-195 0 -302 123t-107 323q0 271 144 455t394 184q190 1 300 -117t110 -323q0 -273 -143 -459t-396 -186zM802 1236q-68 0 -139 37q-69 37 -107 37
t-74 -38t-64 -38q-26 0 -48 22t-22 52q0 52 64 100t137 49q73 0 159 -43q50 -31 88 -31t67 36t54 36q74 0 74 -67q-1 -52 -61 -102t-128 -50z" />
    <glyph glyph-name="odieresis" unicode="&#xf6;" horiz-adv-x="1104" 
d="M598 893q-150 1 -240 -133t-90 -328q0 -132 63 -206t175 -74q154 0 242 134t88 328q0 132 -62 206t-176 73zM487 -20q-195 0 -302 123t-107 323q0 271 144 455t394 184q190 1 300 -117t110 -323q0 -273 -143 -459t-396 -186zM475 1232q-47 0 -79 32t-32 78t33 79
q33 32 79 32q46 -1 77 -33q32 -32 32 -78t-32 -78t-78 -32zM856 1232q-46 0 -78 32t-33 78q0 46 33 79q32 32 78 32q46 -1 78 -33t32 -78t-32 -78t-78 -32z" />
    <glyph glyph-name="divide" unicode="&#xf7;" horiz-adv-x="1161" 
d="M580 57q-48 0 -80.5 32.5t-32.5 81.5t32.5 81.5t79.5 32.5t81 -33t34 -81t-33 -81t-81 -33zM983 436h-805q-96 0 -96 85t96 85h805q94 0 94 -85t-94 -85zM580 760q-46 0 -79.5 31t-33.5 81t33 81.5t80 31.5t80.5 -32.5t33.5 -80.5t-34 -80t-80 -32z" />
    <glyph glyph-name="oslash" unicode="&#xf8;" horiz-adv-x="1104" 
d="M506 152q153 0 241.5 133.5t88.5 328.5q0 64 -15 107l-454 -528q56 -41 139 -41zM600 893q-148 0 -240 -132.5t-92 -328.5q0 -59 17 -113l457 531q-55 43 -142 43zM84 -100q-31 0 -54.5 22t-23.5 44t31 67l107 125q-66 115 -66 268q0 272 144.5 455.5t394.5 183.5
q148 0 249 -72l93 109q35 41 65 41t53 -21.5t23 -49.5t-33 -66l-102 -119q61 -107 61 -262q0 -274 -142.5 -459.5t-395.5 -185.5q-141 0 -242 69l-86 -98q-45 -51 -76 -51z" />
    <glyph glyph-name="ugrave" unicode="&#xf9;" horiz-adv-x="1126" 
d="M109 276q0 55 10 119l92 578q12 84 100 84t88 -64q0 -7 -6 -53l-84 -532q-10 -63 -10 -89q0 -167 174 -167q111 0 197 90t108 241l76 492q12 82 101 82t89 -64l-145 -925q-14 -80 -101 -80t-87 61q0 17 6 41l8 53q-117 -163 -313 -163q-141 0 -222 78t-81 218zM432 1486
q0 36 24 63t58 27t82 -39l189 -147q49 -38 49 -73t-24 -62t-52 -27t-76 33l-198 149q-52 40 -52 76z" />
    <glyph glyph-name="uacute" unicode="&#xfa;" horiz-adv-x="1126" 
d="M109 276q0 55 10 119l92 578q12 84 100 84t88 -64q0 -7 -6 -53l-84 -532q-10 -63 -10 -89q0 -167 174 -167q111 0 197 90t108 241l76 492q12 82 101 82t89 -64l-145 -925q-14 -80 -101 -80t-87 61q0 17 6 41l8 53q-117 -163 -313 -163q-141 0 -222 78t-81 218zM618 1230
q-30 0 -54 26t-23 58q0 34 51 74l187 147q50 39 83 39q34 0 58 -25t24 -62t-51 -77l-200 -147q-45 -33 -75 -33z" />
    <glyph glyph-name="ucircumflex" unicode="&#xfb;" horiz-adv-x="1126" 
d="M109 276q0 55 10 119l92 578q12 84 100 84t88 -64q0 -7 -6 -53l-84 -532q-10 -63 -10 -89q0 -167 174 -167q111 0 197 90t108 241l76 492q12 82 101 82t89 -64l-145 -925q-14 -80 -101 -80t-87 61q0 17 6 41l8 53q-117 -163 -313 -163q-141 0 -222 78t-81 218zM414 1232
q-28 0 -50 24t-22 62t62 72l200 112q45 25 87 25t79 -29l146 -106q57 -41 57 -75q1 -33 -25 -59t-55 -26t-67 29l-142 110l-204 -117q-38 -22 -66 -22z" />
    <glyph glyph-name="udieresis" unicode="&#xfc;" horiz-adv-x="1126" 
d="M109 276q0 55 10 119l92 578q12 84 100 84t88 -64q0 -7 -6 -53l-84 -532q-10 -63 -10 -89q0 -167 174 -167q111 0 197 90t108 241l76 492q12 82 101 82t89 -64l-145 -925q-14 -80 -101 -80t-87 61q0 17 6 41l8 53q-117 -163 -313 -163q-141 0 -222 78t-81 218zM488 1232
q-46 0 -78 32t-33 78q0 46 33 79q32 32 78 32q46 -1 78 -33t32 -78t-32 -78t-78 -32zM869 1232q-47 0 -79 32t-32 78t33 79q33 32 79 32q46 -1 77 -33q32 -32 32 -78t-32 -78t-78 -32z" />
    <glyph glyph-name="yacute" unicode="&#xfd;" horiz-adv-x="1004" 
d="M918 1061q38 0 67 -20t29 -52q0 -66 -138 -366q-301 -655 -635 -922q-170 -135 -294 -135q-70 0 -70 86q-1 37 21 54q22 18 84 30t165 96t179 193q-90 213 -156 507t-66 446q0 83 109 83q70 0 74 -76q16 -392 157 -809q224 341 385 813q17 47 35 59q16 12 54 13z
M531 1230q-29 0 -53 26t-24 58q0 34 51 74l187 147q50 39 83 39t57 -25t25 -62q0 -37 -51 -77l-200 -147q-45 -33 -75 -33z" />
    <glyph glyph-name="thorn" unicode="&#xfe;" horiz-adv-x="1128" 
d="M633 895q-105 0 -188 -78.5t-110 -293.5q-5 -40 -13 -78t-7 -89q0 -92 56 -148t159 -56q152 0 239 141t87 338q0 130 -59 197t-164 67zM543 -20q-193 0 -267 149l-77 -477q-8 -50 -33.5 -67t-73.5 -17q-82 0 -82 59q0 22 125 808l160 1020q8 43 30 62t72 19q86 0 86 -59
l-90 -580q98 168 299 168q162 0 258.5 -114.5t96.5 -313.5q0 -272 -137.5 -464.5t-366.5 -192.5z" />
    <glyph glyph-name="ydieresis" unicode="&#xff;" horiz-adv-x="1004" 
d="M918 1061q38 0 67 -20t29 -52q0 -66 -138 -366q-301 -655 -635 -922q-170 -135 -294 -135q-70 0 -70 86q-1 37 21 54q22 18 84 30t165 96t179 193q-90 213 -156 507t-66 446q0 83 109 83q70 0 74 -76q16 -392 157 -809q224 341 385 813q17 47 35 59q16 12 54 13z
M401 1232q-47 0 -79 32t-32 78t33 79q33 32 79 32q46 -1 77 -33q32 -32 32 -78t-32 -78t-78 -32zM782 1232q-46 0 -78 32t-33 78q0 46 33 79q32 32 78 32q46 -1 78 -33t32 -78t-32 -78t-78 -32z" />
    <glyph glyph-name="Amacron" unicode="&#x100;" horiz-adv-x="1198" 
d="M836 569q-52 350 -123 598q-153 -247 -324 -598h447zM82 -14q-46 0 -80 20t-33 61t159 376t330 625t202 313q30 24 79 24h4q51 -1 79 -31t102 -302t120 -590q46 -316 46 -406t-119 -90q-66 0 -70 71q-11 139 -37 336h-555q-47 -99 -99 -223t-68 -154q-14 -30 -60 -30z
M973 1522h-410q-102 0 -102 84t102 84h410q54 0 79 -17t25 -67q0 -84 -104 -84z" />
    <glyph glyph-name="amacron" unicode="&#x101;" horiz-adv-x="1133" 
d="M811 696q-1 86 -57 142t-152 55q-156 0 -246 -142t-90 -337q0 -130 60 -197t168 -67q110 0 186 82t96 210l29 174q6 36 6 80zM430 -20q-160 0 -256 114t-96 314q0 282 142 470t356 187q214 0 280 -152l10 62q12 82 98 82t85 -60q0 -2 -9 -71l-135 -852q-9 -58 -35 -72
t-67 -14q-80 0 -80 59q0 11 6 53l10 62q-102 -182 -309 -182zM868 1234h-410q-102 0 -102 84t102 84h410q54 0 79 -17t25 -67q0 -84 -104 -84z" />
    <glyph glyph-name="Abreve" unicode="&#x102;" horiz-adv-x="1198" 
d="M836 569q-52 350 -123 598q-153 -247 -324 -598h447zM82 -14q-46 0 -80 20t-33 61t159 376t330 625t202 313q30 24 79 24h4q51 -1 79 -31t102 -302t120 -590q46 -316 46 -406t-119 -90q-66 0 -70 71q-11 139 -37 336h-555q-47 -99 -99 -223t-68 -154q-14 -30 -60 -30z
M766 1520q-112 0 -198 68t-87 143q0 29 24 51t59 23q35 0 71 -62q51 -74 131 -74t140 93q28 43 62 43t58 -23t23 -51q1 -75 -85 -143t-198 -68z" />
    <glyph glyph-name="abreve" unicode="&#x103;" horiz-adv-x="1133" 
d="M811 696q-1 86 -57 142t-152 55q-156 0 -246 -142t-90 -337q0 -130 60 -197t168 -67q110 0 186 82t96 210l29 174q6 36 6 80zM430 -20q-160 0 -256 114t-96 314q0 282 142 470t356 187q214 0 280 -152l10 62q12 82 98 82t85 -60q0 -2 -9 -71l-135 -852q-9 -58 -35 -72
t-67 -14q-80 0 -80 59q0 11 6 53l10 62q-102 -182 -309 -182zM661 1232q-113 0 -199 68t-86 143q0 29 24 51t59 23q35 0 71 -62q52 -74 132 -74t139 93q28 43 62 43q33 0 57 -23t24 -51q0 -75 -86 -143t-197 -68z" />
    <glyph glyph-name="Aogonek" unicode="&#x104;" horiz-adv-x="1198" 
d="M836 569q-52 350 -123 598q-153 -247 -324 -598h447zM954 -188q0 -76 66 -76q34 0 68 18t54 17q18 0 34 -19.5t16 -53.5t-62 -65.5t-148 -31.5t-136.5 44.5t-50.5 123.5q0 111 120 235q-13 16 -19 104t-32 285h-555q-47 -99 -99 -223t-67 -154t-61 -30t-79.5 20t-33.5 60
t142.5 344.5t328 622.5t219 345t80.5 27h4q49 0 75.5 -26.5t97.5 -287t122.5 -583.5t51.5 -434q0 -57 -46 -76q-90 -110 -90 -186z" />
    <glyph glyph-name="aogonek" unicode="&#x105;" horiz-adv-x="1133" 
d="M811 696q0 86 -56.5 141.5t-152.5 55.5q-156 0 -246 -142t-90 -337q0 -130 59 -197t169 -67t186.5 82t95.5 210l29 174q6 36 6 80zM430 -20q-161 0 -256.5 114t-95.5 314q0 282 142 469.5t356 187.5t280 -152l10 62q12 82 98 82t85 -60q0 -15 -9 -69l-135 -854
q-9 -54 -35 -72q-96 -101 -96 -195q0 -71 66 -71q44 0 74 18t48 17q18 0 34 -19.5t16 -53.5t-61.5 -65.5t-147.5 -31.5t-137.5 44.5t-51.5 123.5q0 110 123 237q-14 10 -14 36t6 62l10 58q-102 -182 -309 -182z" />
    <glyph glyph-name="Cacute" unicode="&#x106;" horiz-adv-x="1206" 
d="M1208 1184q0 -28 -28 -60t-60 -32t-78 38q-113 107 -260 107q-227 1 -353 -191t-126 -473q-1 -199 87 -307t236 -108t294 100q40 29 70 29t54 -31q25 -31 25 -63q0 -63 -143 -138t-303 -75q-246 0 -379 158t-133 425q0 367 184 609t500 241q159 0 286 -78t127 -151z
M773 1518q-29 0 -53 26t-24 58q0 34 51 74l187 147q50 39 83 39t57 -25t25 -62q0 -37 -51 -77l-200 -147q-45 -33 -75 -33z" />
    <glyph glyph-name="cacute" unicode="&#x107;" horiz-adv-x="965" 
d="M270 422q0 -266 226 -266q104 0 194 61q42 27 72 27t54 -30q26 -30 26 -60q0 -58 -106 -116t-276 -58t-276 118t-106 316q0 287 148 469t386 182q124 0 226 -55t102 -121q0 -33 -27 -63t-59 -31q-32 0 -76 34q-80 64 -174 64q-142 0 -238 -131t-96 -340zM585 1230
q-29 0 -53 26t-24 58q0 34 51 74l187 147q50 39 83 39t57 -25t25 -62q0 -37 -51 -77l-200 -147q-45 -33 -75 -33z" />
    <glyph glyph-name="Ccaron" unicode="&#x10c;" horiz-adv-x="1206" 
d="M1208 1184q0 -28 -28 -60t-60 -32t-78 38q-113 107 -260 107q-227 1 -353 -191t-126 -473q-1 -199 87 -307t236 -108t294 100q40 29 70 29t54 -31q25 -31 25 -63q0 -63 -143 -138t-303 -75q-246 0 -379 158t-133 425q0 367 184 609t500 241q159 0 286 -78t127 -151z
M1100 1815q28 1 50 -25t21 -64q0 -38 -61 -69l-203 -113q-43 -24 -86 -24t-78 29l-147 106q-56 41 -56 75t26 60t56 25q30 0 66 -29l143 -108l201 114q40 23 68 23z" />
    <glyph glyph-name="ccaron" unicode="&#x10d;" horiz-adv-x="965" 
d="M270 422q0 -266 226 -266q104 0 194 61q42 27 72 27t54 -30q26 -30 26 -60q0 -58 -106 -116t-276 -58t-276 118t-106 316q0 287 148 469t386 182q124 0 226 -55t102 -121q0 -33 -27 -63t-59 -31q-32 0 -76 34q-80 64 -174 64q-142 0 -238 -131t-96 -340zM912 1527
q28 1 50 -25t21 -64q0 -38 -61 -69l-203 -113q-43 -24 -86 -24t-78 29l-147 106q-56 41 -56 75t26 60t56 25q30 0 66 -29l143 -108l201 114q40 23 68 23z" />
    <glyph glyph-name="Dcaron" unicode="&#x10e;" horiz-adv-x="1352" 
d="M1069 838q0 374 -373 374h-202q-33 0 -33 -34l-152 -945l-2 -24q-2 -29 25 -29h219q255 0 387 178t131 480zM535 0h-297q-132 0 -132 131q0 16 43 292l121 761q15 101 37 135q48 74 154 74h246q273 0 414 -144t141 -411q0 -364 -188 -601t-539 -237zM1030 1821
q28 1 48 -25q22 -26 22 -64t-61 -69l-203 -113q-43 -24 -86 -24t-78 29l-147 106q-56 41 -56 75t26 60t56 25q30 0 66 -29l143 -108l201 114q41 23 69 23z" />
    <glyph glyph-name="dcaron" unicode="&#x10f;" horiz-adv-x="1321" 
d="M811 696q-1 86 -57 142t-152 55q-156 0 -246 -142t-90 -337q0 -130 60 -197t168 -67q110 0 186 82t96 210l29 174q6 36 6 80zM430 -20q-160 0 -256 114t-96 314q0 284 142 470t368 187q190 0 262 -145l86 534q12 82 100 82t88 -59q0 -21 -8 -56l-211 -1351
q-8 -50 -32 -66t-70 -16q-80 0 -80 57q0 24 6 55l10 64q-100 -184 -309 -184zM1312 1174q-80 0 -80 72q0 13 22 54q22 40 23 138q-1 98 89 98t90 -110q0 -76 -40 -164t-104 -88z" />
    <glyph glyph-name="Dcroat" unicode="&#x110;" horiz-adv-x="1352" 
d="M1069 838q0 374 -373 374h-202q-33 0 -33 -34l-60 -363h244q84 0 84 -70q0 -114 -108 -110h-248l-68 -432q0 -23 27 -23h219q255 0 387 178t131 480zM102 635q-79 0 -79 70q0 110 104 110h84l68 428q24 150 182 150h246q273 0 414 -144t141 -411q0 -364 -188 -601
t-539 -237h-297q-132 0 -132 129q0 15 76 506h-80z" />
    <glyph glyph-name="dcroat" unicode="&#x111;" horiz-adv-x="1120" 
d="M811 696q0 86 -56.5 141.5t-152.5 55.5q-156 0 -246 -142t-90 -337q0 -130 59 -197t169 -67t186.5 82t95.5 210l29 174q6 36 6 80zM430 -20q-161 0 -256.5 114t-95.5 314q0 284 142 470.5t368 186.5q190 0 262 -145l41 266h-250q-86 0 -86 67q0 105 86 105h279l16 96
q14 82 101 82t87 -61q0 -21 -8 -56l-10 -61h74q86 0 86 -72q0 -100 -84 -100h-103l-174 -1116q-8 -51 -32 -66.5t-70 -15.5q-80 0 -80 57q0 26 6 55l10 64q-100 -184 -309 -184z" />
    <glyph glyph-name="Emacron" unicode="&#x112;" horiz-adv-x="1067" 
d="M248 0q-146 0 -146 123q0 13 11 70l159 1024q26 176 207 176h529q86 0 86 -64q0 -117 -111 -117h-483q-37 0 -41 -38l-58 -359h451q84 0 84 -65q0 -115 -111 -115h-452l-60 -383q-6 -38 -6 -49q0 -23 23 -23h485q84 0 84 -63q0 -117 -111 -117h-540zM950 1522h-410
q-102 0 -102 84t102 84h410q54 0 79 -17t25 -67q0 -84 -104 -84z" />
    <glyph glyph-name="emacron" unicode="&#x113;" horiz-adv-x="1001" 
d="M420 571q338 0 338 193q0 60 -41 98t-113 37q-116 -1 -203 -87t-120 -241h139zM266 418v-39q0 -107 59 -167t165 -60t222 72q26 16 53 16t52 -30t25 -58q0 -60 -114 -116t-259 -56q-187 0 -289 108t-102 301q0 297 158 487t380 189q152 0 238 -78t86 -211
q0 -166 -141 -262t-387 -96h-146zM856 1234h-410q-102 0 -102 84t102 84h410q54 0 79 -17t25 -67q0 -84 -104 -84z" />
    <glyph glyph-name="Ebreve" unicode="&#x114;" horiz-adv-x="1067" 
d="M248 0q-146 0 -146 123q0 13 11 70l159 1024q26 176 207 176h529q86 0 86 -64q0 -117 -111 -117h-483q-37 0 -41 -38l-58 -359h451q84 0 84 -65q0 -115 -111 -115h-452l-60 -383q-6 -38 -6 -49q0 -23 23 -23h485q84 0 84 -63q0 -117 -111 -117h-540zM713 1520
q-113 0 -199 68t-86 143q0 29 24 51t59 23q35 0 71 -62q52 -74 132 -74t139 93q28 43 62 43q33 0 57 -23t24 -51q0 -75 -86 -143t-197 -68z" />
    <glyph glyph-name="ebreve" unicode="&#x115;" horiz-adv-x="1001" 
d="M420 571q338 0 338 193q0 60 -41 98t-113 37q-116 -1 -203 -87t-120 -241h139zM266 418v-39q0 -107 59 -167t165 -60t222 72q26 16 53 16t52 -30t25 -58q0 -60 -114 -116t-259 -56q-187 0 -289 108t-102 301q0 297 158 487t380 189q152 0 238 -78t86 -211
q0 -166 -141 -262t-387 -96h-146zM649 1232q-113 0 -199 68t-86 143q0 29 24 51t59 23q35 0 71 -62q52 -74 132 -74t139 93q28 43 62 43q33 0 57 -23t24 -51q0 -75 -86 -143t-197 -68z" />
    <glyph glyph-name="Edotaccent" unicode="&#x116;" horiz-adv-x="1067" 
d="M248 0q-146 0 -146 123q0 13 11 70l159 1024q26 176 207 176h529q86 0 86 -64q0 -117 -111 -117h-483q-37 0 -41 -38l-58 -359h451q84 0 84 -65q0 -115 -111 -115h-452l-60 -383q-6 -38 -6 -49q0 -23 23 -23h485q84 0 84 -63q0 -117 -111 -117h-540zM739 1518
q-53 0 -89 37t-36 88t37 88t88 37t88 -36t37 -89t-36 -89t-89 -36z" />
    <glyph glyph-name="edotaccent" unicode="&#x117;" horiz-adv-x="1001" 
d="M420 571q338 0 338 193q0 60 -41 98t-113 37q-116 -1 -203 -87t-120 -241h139zM266 418v-39q0 -107 59 -167t165 -60t222 72q26 16 53 16t52 -30t25 -58q0 -60 -114 -116t-259 -56q-187 0 -289 108t-102 301q0 297 158 487t380 189q152 0 238 -78t86 -211
q0 -166 -141 -262t-387 -96h-146zM657 1230q-53 0 -89 37t-36 88t37 88t88 37t88 -36t37 -89t-36 -89t-89 -36z" />
    <glyph glyph-name="Eogonek" unicode="&#x118;" horiz-adv-x="1067" 
d="M678 -190q0 -74 65 -74q35 0 69 18t52 17q18 0 34.5 -19.5t16.5 -53.5t-61.5 -65.5t-147.5 -31.5t-137 44t-51 137t115 218h-385q-146 0 -146 123q0 13 11 70l159 1024q26 176 207 176h529q86 0 86 -64q0 -117 -111 -117h-483q-37 0 -41 -38l-58 -359h451q84 0 84 -65
q0 -115 -111 -115h-452l-60 -383q-6 -38 -6 -49q0 -23 23 -23h485q84 0 84 -63q0 -117 -111 -117h-20q-90 -116 -90 -190z" />
    <glyph glyph-name="eogonek" unicode="&#x119;" horiz-adv-x="1001" 
d="M420 571q338 0 338 193q0 60 -41 97.5t-113 37.5q-116 0 -203 -86.5t-120 -241.5h139zM489 -192q0 -72 66 -72q35 0 69 18t52 17q18 0 34.5 -19.5t16.5 -53.5t-61.5 -65.5t-147.5 -31.5t-137 44t-51 135t98 202q-170 12 -260 118.5t-90 288.5q0 297 158 486.5t380 189.5
q152 0 238 -78t86 -211q0 -167 -141 -262.5t-387 -95.5h-146v-39q0 -107 59 -167t165 -60t222 72q26 16 53 16t52 -30t25 -58q0 -55 -95 -105.5t-176 -58.5q-82 -108 -82 -180z" />
    <glyph glyph-name="Ecaron" unicode="&#x11a;" horiz-adv-x="1067" 
d="M248 0q-146 0 -146 123q0 13 11 70l159 1024q26 176 207 176h529q86 0 86 -64q0 -117 -111 -117h-483q-37 0 -41 -38l-58 -359h451q84 0 84 -65q0 -115 -111 -115h-452l-60 -383q-6 -38 -6 -49q0 -23 23 -23h485q84 0 84 -63q0 -117 -111 -117h-540zM976 1815
q28 1 48 -25q22 -26 22 -64t-61 -69l-203 -113q-43 -24 -86 -24t-78 29l-147 106q-56 41 -56 75t26 60t56 25q30 0 66 -29l143 -108l201 114q41 23 69 23z" />
    <glyph glyph-name="ecaron" unicode="&#x11b;" horiz-adv-x="1001" 
d="M420 571q338 0 338 193q0 60 -41 98t-113 37q-116 -1 -203 -87t-120 -241h139zM266 418v-39q0 -107 59 -167t165 -60t222 72q26 16 53 16t52 -30t25 -58q0 -60 -114 -116t-259 -56q-187 0 -289 108t-102 301q0 297 158 487t380 189q152 0 238 -78t86 -211
q0 -166 -141 -262t-387 -96h-146zM922 1527q28 1 50 -25t21 -64q0 -38 -61 -69l-203 -113q-43 -24 -86 -24t-78 29l-147 106q-56 41 -56 75t26 60t56 25q30 0 66 -29l143 -108l201 114q40 23 68 23z" />
    <glyph glyph-name="Gbreve" unicode="&#x11e;" horiz-adv-x="1339" 
d="M745 578q-73 0 -73 63q0 45 24 80t68 35h369q79 0 79 -66v-19q0 -13 -2 -24l-69 -420q-12 -75 -53 -119t-167 -86t-266 -42q-253 0 -401 164t-148 415q0 380 202 617t534 237q166 0 296 -61t130 -119q0 -37 -27 -71t-55 -34t-82 31q-133 76 -270 76q-244 0 -390 -186
t-147 -478q0 -199 101 -309t284 -110q95 0 184 33t92 70q5 38 52 323h-265zM874 1520q-112 0 -198 68t-87 143q0 29 24 51t59 23q35 0 71 -62q51 -74 131 -74t140 93q28 43 62 43t58 -23t23 -51q1 -75 -85 -143t-198 -68z" />
    <glyph glyph-name="gbreve" unicode="&#x11f;" horiz-adv-x="1133" 
d="M811 696q-1 86 -57 142t-152 55q-156 0 -246 -142t-90 -335q0 -128 60 -197t168 -69t184 80t98 212l29 174q6 36 6 80zM432 -20q-162 0 -258 115t-96 313q0 282 142 470t356 187q214 0 280 -152l6 43q4 33 22 67t92 34t73 -58q0 -12 -5 -47l-141 -911q-74 -473 -516 -473
q-129 0 -248 49t-119 107q0 40 25 71t50 31t77 -25q114 -61 240 -61t204 74q77 74 105 237l16 109q-96 -180 -305 -180zM635 1232q-113 0 -199 68t-86 143q0 29 24 51t59 23q35 0 71 -62q52 -74 132 -74t139 93q28 43 62 43q33 0 57 -23t24 -51q0 -75 -86 -143t-197 -68z
" />
    <glyph glyph-name="Gcommaaccent" unicode="&#x122;" horiz-adv-x="1339" 
d="M745 578q-73 0 -73 63q0 45 24 80t68 35h369q79 0 79 -66v-19q0 -13 -2 -24l-69 -420q-12 -75 -53 -119t-167 -86t-266 -42q-253 0 -401 164t-148 415q0 380 202 617t534 237q166 0 296 -61t130 -119q0 -37 -27 -71t-55 -34t-82 31q-133 76 -270 76q-244 0 -390 -186
t-147 -478q0 -199 101 -309t284 -110q95 0 184 33t92 70q5 38 52 323h-265zM563 -473q-80 0 -80 72q1 13 23 54t22 139t90 97q90 0 89 -110q-1 -76 -41 -164t-103 -88z" />
    <glyph glyph-name="gcommaaccent" unicode="&#x123;" horiz-adv-x="1133" 
d="M811 696q-1 86 -57 142t-152 55q-156 0 -246 -142t-90 -335q0 -128 60 -197t168 -69t184 80t98 212l29 174q6 36 6 80zM432 -20q-162 0 -258 115t-96 313q0 282 142 470t356 187q214 0 280 -152l6 43q4 33 22 67t92 34t73 -58q0 -12 -5 -47l-141 -911q-74 -473 -516 -473
q-129 0 -248 49t-119 107q0 40 25 71t50 31t77 -25q114 -61 240 -61t204 74q77 74 105 237l16 109q-96 -180 -305 -180zM680 1509q80 0 80 -71q0 -19 -10 -37q-35 -63 -35 -159t-89 -95q-89 0 -89 110q0 76 41 164t102 88z" />
    <glyph glyph-name="Imacron" unicode="&#x12a;" horiz-adv-x="537" 
d="M94 51q0 21 8 58l193 1212q12 84 102 84t90 -64l-200 -1267q-13 -86 -103 -86t-90 63zM628 1522h-410q-102 0 -102 84t102 84h410q54 0 79 -17t25 -67q0 -84 -104 -84z" />
    <glyph glyph-name="imacron" unicode="&#x12b;" horiz-adv-x="489" 
d="M76 49q0 21 8 66l137 862q13 80 101 80t88 -62q0 -8 -11 -69l-135 -854q-14 -84 -101 -84t-87 61zM562 1234h-410q-102 0 -102 84t102 84h410q54 0 79 -17t25 -67q0 -84 -104 -84z" />
    <glyph glyph-name="Iogonek" unicode="&#x12e;" horiz-adv-x="537" 
d="M147 -190q0 -74 66 -74q43 0 73 18t48 17q18 0 34.5 -19.5t16.5 -51.5t-62.5 -65.5t-146.5 -33.5t-136 44.5t-52 123.5q0 108 123 239q-17 12 -17 32t4 39l197 1242q12 84 102 84t90 -64q0 -2 -10 -69l-190 -1198q-10 -60 -47 -74q-93 -116 -93 -190z" />
    <glyph glyph-name="iogonek" unicode="&#x12f;" horiz-adv-x="489" 
d="M119 -190q0 -74 65 -74q36 0 70 18t52 17q18 0 34 -19.5t16 -53.5t-61 -65.5t-147 -31.5t-137.5 44t-51.5 124q0 112 127 243q-10 10 -10 34t8 69l137 862q13 80 101 80t88 -62q0 -8 -11 -69l-135 -854q-10 -64 -59 -78q-86 -110 -86 -184zM266 1362q0 47 32.5 79
t77.5 32t78 -32.5t33 -78.5t-32.5 -77.5t-78.5 -31.5t-78 31t-32 78z" />
    <glyph glyph-name="Idotaccent" unicode="&#x130;" horiz-adv-x="537" 
d="M94 51q0 21 8 58l193 1212q12 84 102 84t90 -64l-200 -1267q-13 -86 -103 -86t-90 63zM429 1518q-53 0 -89 37t-36 88t37 88t88 37t88 -36t37 -89t-36 -89t-89 -36z" />
    <glyph glyph-name="dotlessi" unicode="&#x131;" horiz-adv-x="489" 
d="M76 49q0 21 8 66l137 862q13 80 101 80t88 -62q0 -8 -11 -69l-135 -854q-14 -84 -101 -84t-87 61z" />
    <glyph glyph-name="Kcommaaccent" unicode="&#x136;" horiz-adv-x="1167" 
d="M1065 64q1 -30 -37 -54t-72 -24t-48 13t-31 48q-166 348 -385 610q-13 -9 -31 -20l-94 -59l-80 -504q-15 -86 -103 -86t-88 65q0 23 6 60l193 1210q12 82 102 82t90 -62q0 -17 -10 -69l-74 -471q369 255 607 557q32 47 72 47t74 -27q32 -27 32 -59q0 -63 -181 -245
t-358 -312q243 -294 393 -621q22 -49 23 -79zM489 -473q-80 0 -80 72q1 13 23 54t22 139t90 97q90 0 89 -110q-1 -76 -41 -164t-103 -88z" />
    <glyph glyph-name="kcommaaccent" unicode="&#x137;" horiz-adv-x="981" 
d="M868 1059q34 -1 64 -27t31 -56q0 -30 -33 -76t-128 -135t-237 -179q199 -221 295 -437q23 -55 23 -87q1 -32 -31 -54t-78 -22t-74 61q-115 257 -290 442q-22 -14 -45 -26l-43 -23l-58 -370q-14 -82 -101 -82t-87 61q0 23 6 47l213 1360q12 80 100 80t88 -61q0 -27 -6 -58
l-123 -774q261 163 439 373q41 43 75 43zM396 -473q-80 0 -80 72q0 13 22 54t23 139q-1 98 89 97q90 0 90 -110q0 -76 -40 -164t-104 -88z" />
    <glyph glyph-name="Lacute" unicode="&#x139;" horiz-adv-x="999" 
d="M309 205q0 -25 23 -25h473q78 0 78 -65q1 -47 -25 -81t-74 -34h-532q-143 0 -143 123q0 33 8 80l178 1114q9 56 36 72t68 16q86 0 86 -64q0 -23 -8 -73l-164 -1030q-4 -25 -4 -33zM346 1518q-30 0 -54 26t-23 58q0 34 51 74l187 147q50 39 83 39q34 0 58 -25t24 -62
t-51 -77l-200 -147q-45 -33 -75 -33z" />
    <glyph glyph-name="lacute" unicode="&#x13a;" horiz-adv-x="489" 
d="M76 49q0 21 8 66l211 1341q12 80 100 80t88 -61q0 -26 -8 -66l-211 -1339q-14 -82 -101 -82t-87 61zM330 1587q-30 -1 -54 25t-23 60q0 34 51 73l187 147q50 39 83 39q34 0 58 -25t24 -62t-51 -77l-200 -147q-45 -33 -75 -33z" />
    <glyph glyph-name="Lcommaaccent" unicode="&#x13b;" horiz-adv-x="999" 
d="M309 205q0 -25 23 -25h473q78 0 78 -65q1 -47 -25 -81t-74 -34h-532q-143 0 -143 123q0 33 8 80l178 1114q9 56 36 72t68 16q86 0 86 -64q0 -23 -8 -73l-164 -1030q-4 -25 -4 -33zM406 -473q-80 0 -80 72q0 13 22 54t23 139q-1 98 89 97q90 0 90 -110q0 -76 -40 -164
t-104 -88z" />
    <glyph glyph-name="lcommaaccent" unicode="&#x13c;" horiz-adv-x="489" 
d="M76 49q0 21 8 66l211 1341q12 80 100 80t88 -61q0 -26 -8 -66l-211 -1339q-14 -82 -101 -82t-87 61zM81 -473q-80 0 -80 72q1 13 23 54t22 139t90 97q90 0 89 -110q-1 -76 -41 -164t-103 -88z" />
    <glyph glyph-name="Lcaron" unicode="&#x13d;" horiz-adv-x="999" 
d="M309 205q0 -25 23 -25h473q78 0 78 -65q1 -47 -25 -81t-74 -34h-532q-143 0 -143 123q0 33 8 80l178 1114q9 56 36 72t68 16q86 0 86 -64q0 -23 -8 -73l-164 -1030q-4 -25 -4 -33zM817 1042q-80 0 -80 72q1 13 23 54q22 40 22 138t90 98t89 -110q-1 -76 -41 -164
t-103 -88z" />
    <glyph glyph-name="lcaron" unicode="&#x13e;" horiz-adv-x="682" 
d="M76 49q0 21 8 66l211 1341q12 80 100 80t88 -61q0 -26 -8 -66l-211 -1339q-14 -82 -101 -82t-87 61zM673 1174q-80 0 -80 72q1 13 23 54q22 40 22 138t90 98t89 -110q-1 -76 -41 -164t-103 -88z" />
    <glyph glyph-name="Lslash" unicode="&#x141;" horiz-adv-x="999" 
d="M655 928q29 0 50.5 -31t21.5 -75t-65 -72l-291 -134l-64 -395v-16q0 -27 23 -27h475q74 0 74 -61q0 -56 -27 -86.5t-66 -30.5h-538q-144 0 -144 125q0 22 5 51l55 348l-72 -30q-36 -15 -60 -15t-44.5 32.5t-20.5 76.5t66 71l164 74l94 584q14 88 103 88t89 -66
q0 -7 -6 -45l-74 -469l201 93q22 10 51 10z" />
    <glyph glyph-name="lslash" unicode="&#x142;" horiz-adv-x="489" 
d="M534 971q28 0 50 -30.5t22 -72.5t-65 -73l-176 -80l-101 -645q-14 -82 -101 -82t-87 59q0 19 4 35l84 545l-70 -33q-33 -12 -58 -12t-45 31t-20 75t66 70l160 71l98 627q12 80 100 80t88 -59q0 -12 -6 -45l-80 -512l88 41q21 10 49 10z" />
    <glyph glyph-name="Nacute" unicode="&#x143;" horiz-adv-x="1384" 
d="M1012 -12q-80 0 -111 71l-461 1049l-140 -887q-27 -173 -38 -193q-21 -39 -95 -40q-73 0 -73 61q0 1 6 53l187 1170q20 133 141 133q79 0 107 -74l452 -1038l164 1026q9 57 35 71t61 15q88 0 88 -66q0 -10 -8 -61l-188 -1180q-18 -110 -127 -110zM788 1518q-30 0 -54 26
t-23 58q0 34 51 74l187 147q50 39 83 39q34 0 58 -25t24 -62t-51 -77l-200 -147q-45 -33 -75 -33z" />
    <glyph glyph-name="nacute" unicode="&#x144;" horiz-adv-x="1126" 
d="M715 1065q139 0 220 -78t81 -219q0 -74 -44 -341l-56 -339q-11 -72 -39 -86t-66 -14q-86 0 -86 63q0 28 10 78l78 492q8 50 8 96q0 172 -174 172q-109 1 -193 -83t-108 -243l-78 -493q-14 -82 -101 -82t-87 63q0 12 10 74l135 852q11 80 99 80t88 -62q0 -22 -4 -45
l-11 -47q120 162 318 162zM628 1230q-30 0 -54 26t-23 58q0 34 51 74l187 147q50 39 83 39q34 0 58 -25t24 -62t-51 -77l-200 -147q-45 -33 -75 -33z" />
    <glyph glyph-name="Ncommaaccent" unicode="&#x145;" horiz-adv-x="1384" 
d="M1012 -12q-80 0 -111 71l-461 1049l-140 -887q-27 -173 -38 -193q-21 -39 -95 -40q-73 0 -73 61q0 1 6 53l187 1170q20 133 141 133q79 0 107 -74l452 -1038l164 1026q9 57 35 71t61 15q88 0 88 -66q0 -10 -8 -61l-188 -1180q-18 -110 -127 -110zM522 -473q-80 0 -80 72
q0 13 22 54t23 139q-1 98 89 97q90 0 90 -110q0 -76 -40 -164t-104 -88z" />
    <glyph glyph-name="ncommaaccent" unicode="&#x146;" horiz-adv-x="1126" 
d="M715 1065q139 0 220 -78t81 -219q0 -74 -44 -341l-56 -339q-11 -72 -39 -86t-66 -14q-86 0 -86 63q0 28 10 78l78 492q8 50 8 96q0 172 -174 172q-109 1 -193 -83t-108 -243l-78 -493q-14 -82 -101 -82t-87 63q0 12 10 74l135 852q11 80 99 80t88 -62q0 -22 -4 -45
l-11 -47q120 162 318 162zM406 -473q-80 0 -80 72q0 13 22 54t23 139q-1 98 89 97q90 0 90 -110q0 -76 -40 -164t-104 -88z" />
    <glyph glyph-name="Ncaron" unicode="&#x147;" horiz-adv-x="1384" 
d="M1012 -12q-80 0 -111 71l-461 1049l-140 -887q-27 -173 -38 -193q-21 -39 -95 -40q-73 0 -73 61q0 1 6 53l187 1170q20 133 141 133q79 0 107 -74l452 -1038l164 1026q9 57 35 71t61 15q88 0 88 -66q0 -10 -8 -61l-188 -1180q-18 -110 -127 -110zM1116 1815q28 1 48 -25
q22 -26 22 -64t-61 -69l-203 -113q-43 -24 -86 -24t-78 29l-147 106q-56 41 -56 75t26 60t56 25q30 0 66 -29l143 -108l201 114q41 23 69 23z" />
    <glyph glyph-name="ncaron" unicode="&#x148;" horiz-adv-x="1126" 
d="M715 1065q139 0 220 -78t81 -219q0 -74 -44 -341l-56 -339q-11 -72 -39 -86t-66 -14q-86 0 -86 63q0 28 10 78l78 492q8 50 8 96q0 172 -174 172q-109 1 -193 -83t-108 -243l-78 -493q-14 -82 -101 -82t-87 63q0 12 10 74l135 852q11 80 99 80t88 -62q0 -22 -4 -45
l-11 -47q120 162 318 162zM956 1527q28 1 48 -25q22 -26 22 -64t-61 -69l-203 -113q-43 -24 -86 -24t-78 29l-147 106q-56 41 -56 75t26 60t56 25q30 0 66 -29l143 -108l201 114q41 23 69 23z" />
    <glyph glyph-name="Omacron" unicode="&#x14c;" horiz-adv-x="1362" 
d="M782 1243q-219 -1 -351 -199t-132 -489q1 -189 87 -297t249 -108q221 0 347 200t126 494q0 186 -84 292t-242 107zM612 -20q-232 0 -368 153t-135 416q0 366 186 615t506 249q233 0 365 -148t132 -409q0 -368 -183 -622t-503 -254zM1038 1522h-410q-102 0 -102 84t102 84
h410q54 0 79 -17t25 -67q0 -84 -104 -84z" />
    <glyph glyph-name="omacron" unicode="&#x14d;" horiz-adv-x="1104" 
d="M598 893q-150 1 -240 -133t-90 -328q0 -132 63 -206t175 -74q154 0 242 134t88 328q0 132 -62 206t-176 73zM487 -20q-195 0 -302 123t-107 323q0 271 144 455t394 184q190 1 300 -117t110 -323q0 -273 -143 -459t-396 -186zM875 1234h-410q-102 0 -102 84t102 84h410
q54 0 79 -17t25 -67q0 -84 -104 -84z" />
    <glyph glyph-name="Obreve" unicode="&#x14e;" horiz-adv-x="1362" 
d="M782 1243q-219 -1 -351 -199t-132 -489q1 -189 87 -297t249 -108q221 0 347 200t126 494q0 186 -84 292t-242 107zM612 -20q-232 0 -368 153t-135 416q0 366 186 615t506 249q233 0 365 -148t132 -409q0 -368 -183 -622t-503 -254zM831 1520q-113 0 -199 68t-86 143
q0 29 24 51t59 23q35 0 71 -62q52 -74 132 -74t139 93q28 43 62 43q33 0 57 -23t24 -51q0 -75 -86 -143t-197 -68z" />
    <glyph glyph-name="obreve" unicode="&#x14f;" horiz-adv-x="1104" 
d="M598 893q-150 1 -240 -133t-90 -328q0 -132 63 -206t175 -74q154 0 242 134t88 328q0 132 -62 206t-176 73zM487 -20q-195 0 -302 123t-107 323q0 271 144 455t394 184q190 1 300 -117t110 -323q0 -273 -143 -459t-396 -186zM659 1232q-113 0 -199 68t-86 143q0 29 24 51
t59 23q35 0 71 -62q52 -74 132 -74t139 93q28 43 62 43q33 0 57 -23t24 -51q0 -75 -86 -143t-197 -68z" />
    <glyph glyph-name="Ohungarumlaut" unicode="&#x150;" horiz-adv-x="1362" 
d="M782 1243q-219 -1 -351 -199t-132 -489q1 -189 87 -297t249 -108q221 0 347 200t126 494q0 186 -84 292t-242 107zM612 -20q-232 0 -368 153t-135 416q0 366 186 615t506 249q233 0 365 -148t132 -409q0 -368 -183 -622t-503 -254zM665 1516q-34 0 -57 22t-23 56t33 75
l119 146q42 51 77 51t61 -24t26 -54q0 -31 -39 -80l-125 -147q-38 -45 -72 -45zM1028 1516q-32 0 -56 23t-24 57t35 73l116 146q41 51 77 51t61 -24q26 -24 26 -54q0 -32 -39 -80l-125 -147q-38 -45 -71 -45z" />
    <glyph glyph-name="ohungarumlaut" unicode="&#x151;" horiz-adv-x="1104" 
d="M598 893q-150 1 -240 -133t-90 -328q0 -132 63 -206t175 -74q154 0 242 134t88 328q0 132 -62 206t-176 73zM487 -20q-195 0 -302 123t-107 323q0 271 144 455t394 184q190 1 300 -117t110 -323q0 -273 -143 -459t-396 -186zM493 1228q-34 0 -57 22t-23 56t33 75l119 146
q42 51 77 51t61 -24t26 -54q0 -31 -39 -80l-125 -147q-38 -45 -72 -45zM856 1228q-32 0 -56 23t-24 57t35 73l116 146q41 51 77 51t61 -24q26 -24 26 -54q0 -32 -39 -80l-125 -147q-38 -45 -71 -45z" />
    <glyph glyph-name="OE" unicode="&#x152;" horiz-adv-x="1892" 
d="M289 555q0 -189 85.5 -297t233.5 -108t241.5 74.5t108.5 178.5l71 438q20 121 20 171q0 83 -80 157t-199 74q-219 0 -350 -197t-131 -491zM1186 635l-66 -435q0 -20 23 -20h485q84 0 84 -63q0 -117 -110 -117h-541q-121 0 -135 100q-126 -120 -345 -120t-352 154.5
t-133 414.5q0 375 186.5 619.5t477.5 244.5q241 0 342 -153q42 133 190 133h529q86 0 86 -64q0 -117 -111 -117h-483q-37 0 -41 -38l-58 -359h451q84 0 84 -65q0 -115 -111 -115h-452z" />
    <glyph glyph-name="oe" unicode="&#x153;" horiz-adv-x="1743" 
d="M598 893q-150 0 -240 -133.5t-90 -327.5q0 -131 63 -205.5t175 -74.5q153 0 241.5 134.5t88.5 327.5q0 132 -62 205.5t-176 73.5zM1161 571q171 0 254.5 52t83.5 141q0 61 -41.5 98t-114.5 37q-116 0 -202 -86.5t-119 -241.5h139zM1350 1065q157 0 243 -77.5t86 -211.5
q0 -168 -140 -263t-388 -95h-143v-24q0 -11 -2 -25q0 -101 59 -159t167 -58t202 63q42 25 74 25t53.5 -27t21.5 -61q0 -63 -110 -117.5t-265 -54.5q-241 0 -327 204q-142 -204 -394 -204q-195 0 -302 123t-107 323q0 269 142.5 454t390.5 185t343 -225q149 225 396 225z" />
    <glyph glyph-name="Racute" unicode="&#x154;" horiz-adv-x="1180" 
d="M938 1028q0 191 -233 191h-201q-34 0 -41 -39l-64 -408h236q143 0 223 66t80 190zM737 1393q396 0 396 -344q0 -169 -104 -279t-292 -129q110 -56 196 -292q87 -237 87 -279t-33 -64t-83 -22t-73 71q-97 313 -171 427t-216 114h-73q-73 -496 -85 -538t-36 -56t-66 -14
q-88 0 -88 61q0 22 8 62l175 1106q28 176 200 176h258zM683 1518q-29 0 -53 26t-24 58q0 34 51 74l187 147q50 39 83 39t57 -25t25 -62q0 -37 -51 -77l-200 -147q-45 -33 -75 -33z" />
    <glyph glyph-name="racute" unicode="&#x155;" horiz-adv-x="754" 
d="M655 1065q66 0 106 -22q40 -21 40 -61t-24 -74t-52 -34l-113 15q-98 0 -168 -76t-92 -219l-84 -522q-14 -84 -101 -84t-87 65q0 21 8 53l135 871q11 80 99 80t88 -64q0 -17 -4 -43l-5 -26q91 141 254 141zM494 1230q-30 0 -54 26t-23 58q0 34 51 74l187 147q50 39 83 39
q34 0 58 -25t24 -62t-51 -77l-200 -147q-45 -33 -75 -33z" />
    <glyph glyph-name="Rcommaaccent" unicode="&#x156;" horiz-adv-x="1180" 
d="M938 1028q0 191 -233 191h-201q-34 0 -41 -39l-64 -408h236q143 0 223 66t80 190zM737 1393q396 0 396 -344q0 -169 -104 -279t-292 -129q110 -56 196 -292q87 -237 87 -279t-33 -64t-83 -22t-73 71q-97 313 -171 427t-216 114h-73q-73 -496 -85 -538t-36 -56t-66 -14
q-88 0 -88 61q0 22 8 62l175 1106q28 176 200 176h258zM467 -473q-80 0 -80 72q1 13 23 54t22 139t90 97q90 0 89 -110q-1 -76 -41 -164t-103 -88z" />
    <glyph glyph-name="rcommaaccent" unicode="&#x157;" horiz-adv-x="754" 
d="M655 1065q66 0 106 -22q40 -21 40 -61t-24 -74t-52 -34l-113 15q-98 0 -168 -76t-92 -219l-84 -522q-14 -84 -101 -84t-87 65q0 21 8 53l135 871q11 80 99 80t88 -64q0 -17 -4 -43l-5 -26q91 141 254 141zM89 -473q-80 0 -80 72q1 13 23 54t22 139t90 97q90 0 89 -110
q-1 -76 -41 -164t-103 -88z" />
    <glyph glyph-name="Rcaron" unicode="&#x158;" horiz-adv-x="1180" 
d="M938 1028q0 191 -233 191h-201q-34 0 -41 -39l-64 -408h236q143 0 223 66t80 190zM737 1393q396 0 396 -344q0 -169 -104 -279t-292 -129q110 -56 196 -292q87 -237 87 -279t-33 -64t-83 -22t-73 71q-97 313 -171 427t-216 114h-73q-73 -496 -85 -538t-36 -56t-66 -14
q-88 0 -88 61q0 22 8 62l175 1106q28 176 200 176h258zM1000 1815q28 1 50 -25t21 -64q0 -38 -61 -69l-203 -113q-43 -24 -86 -24t-78 29l-147 106q-56 41 -56 75t26 60t56 25q30 0 66 -29l143 -108l201 114q40 23 68 23z" />
    <glyph glyph-name="rcaron" unicode="&#x159;" horiz-adv-x="754" 
d="M655 1065q66 0 106 -22q40 -21 40 -61t-24 -74t-52 -34l-113 15q-98 0 -168 -76t-92 -219l-84 -522q-14 -84 -101 -84t-87 65q0 21 8 53l135 871q11 80 99 80t88 -64q0 -17 -4 -43l-5 -26q91 141 254 141zM822 1527q28 1 48 -25q22 -26 22 -64t-61 -69l-203 -113
q-43 -24 -86 -24t-78 29l-147 106q-56 41 -56 75t26 60t56 25q30 0 66 -29l143 -108l201 114q41 23 69 23z" />
    <glyph glyph-name="Sacute" unicode="&#x15a;" horiz-adv-x="1042" 
d="M477 -20q-167 0 -305 59t-139 125q0 40 27 74t54 34t79 -30q137 -88 281 -88t215 62t71 154t-48 147t-216 117q-170 62 -247 152t-77 218q0 181 124 295t339 114q163 0 291 -58t127 -122q1 -33 -29 -68t-58 -35t-85 35q-119 72 -245 72q-126 -1 -194 -59t-67 -146
t47 -137t174 -96q200 -69 279 -163t79 -235q0 -185 -126 -303t-351 -118zM624 1518q-30 0 -54 26t-23 58q0 34 51 74l187 147q50 39 83 39q34 0 58 -25t24 -62t-51 -77l-200 -147q-45 -33 -75 -33z" />
    <glyph glyph-name="sacute" unicode="&#x15b;" horiz-adv-x="922" 
d="M418 137q198 0 198 152q0 53 -34 89t-179 77q-146 41 -207 111t-61 175q0 150 99 237t282 87q99 0 186 -29q166 -55 166 -125q0 -33 -25 -65t-51 -31q-26 0 -109 45q-84 45 -176 45t-140 -41t-48 -98q-1 -58 31 -92t148 -70q192 -56 248 -126t55 -167q0 -155 -101 -243
t-290 -88q-134 0 -250 53t-117 108q-1 39 25 69t49 30t69 -27q121 -76 232 -76zM483 1230q-29 0 -53 26t-24 58q0 34 51 74l187 147q50 39 83 39t57 -25t25 -62q0 -37 -51 -77l-200 -147q-45 -33 -75 -33z" />
    <glyph glyph-name="Scedilla" unicode="&#x15e;" horiz-adv-x="1042" 
d="M412 -303q77 -1 77 63t-75 64q-33 0 -73 -3t-40 44q0 21 23 53l41 70q-103 9 -217.5 62.5t-114.5 113.5q0 39 27.5 73.5t53.5 34.5t74 -28q142 -90 286 -90t215 62t71 154t-47 147t-217 117t-247 151.5t-77 218.5q0 181 124 295t339 114q163 0 290.5 -58t127.5 -122
q0 -33 -29.5 -68t-57.5 -35t-85 35q-119 72 -245 72t-193.5 -58.5t-67.5 -146.5t46.5 -137t174.5 -96q200 -69 279 -163t79 -235q0 -186 -125.5 -303.5t-351.5 -117.5h-10l-39 -66q19 4 57 4q146 0 146 -147q0 -84 -58.5 -138.5t-142.5 -54.5t-135 21t-51 57q0 63 51 63
q21 0 49 -11t68 -11z" />
    <glyph glyph-name="scedilla" unicode="&#x15f;" horiz-adv-x="922" 
d="M418 137q198 0 198 152q0 53 -33.5 89.5t-179.5 76.5t-207 110.5t-61 175.5q0 150 99 237t282 87q99 0 225.5 -42t126.5 -112q0 -33 -25 -64.5t-51 -31.5t-109 45q-84 45 -176 45t-140 -41t-48 -98t31.5 -91.5t147.5 -70.5q192 -56 247.5 -125.5t55.5 -167.5
q0 -154 -98 -240.5t-279 -90.5l-39 -66q19 4 57 4q146 0 146 -147q0 -84 -58.5 -138.5t-142.5 -54.5t-135 21t-51 57q0 63 51 63q21 0 49 -11t68 -11q77 -1 77 63t-75 64q-33 0 -73 -3t-40 44q0 21 23 53l41 68q-95 13 -187 59.5t-92 95.5q0 38 25.5 68.5t48.5 30.5t69 -27
q121 -76 232 -76z" />
    <glyph glyph-name="Scaron" unicode="&#x160;" horiz-adv-x="1042" 
d="M477 -20q-167 0 -305 59t-139 125q0 40 27 74t54 34t79 -30q137 -88 281 -88t215 62t71 154t-48 147t-216 117q-170 62 -247 152t-77 218q0 181 124 295t339 114q163 0 291 -58t127 -122q1 -33 -29 -68t-58 -35t-85 35q-119 72 -245 72q-126 -1 -194 -59t-67 -146
t47 -137t174 -96q200 -69 279 -163t79 -235q0 -185 -126 -303t-351 -118zM952 1815q28 1 48 -25q22 -26 22 -64t-61 -69l-203 -113q-43 -24 -86 -24t-78 29l-147 106q-56 41 -56 75t26 60t56 25q30 0 66 -29l143 -108l201 114q41 23 69 23z" />
    <glyph glyph-name="scaron" unicode="&#x161;" horiz-adv-x="922" 
d="M418 137q198 0 198 152q0 53 -34 89t-179 77q-146 41 -207 111t-61 175q0 150 99 237t282 87q99 0 186 -29q166 -55 166 -125q0 -33 -25 -65t-51 -31q-26 0 -109 45q-84 45 -176 45t-140 -41t-48 -98q-1 -58 31 -92t148 -70q192 -56 248 -126t55 -167q0 -155 -101 -243
t-290 -88q-134 0 -250 53t-117 108q-1 39 25 69t49 30t69 -27q121 -76 232 -76zM810 1527q28 1 50 -25t21 -64q0 -38 -61 -69l-203 -113q-43 -24 -86 -24t-78 29l-147 106q-56 41 -56 75t26 60t56 25q30 0 66 -29l143 -108l201 114q40 23 68 23z" />
    <glyph glyph-name="Tcommaaccent" unicode="&#x162;" horiz-adv-x="1014" 
d="M324 61q0 19 14 101l168 1050h-291q-84 0 -84 64q0 117 96 117h793q90 0 90 -62q0 -119 -102 -119h-299l-183 -1128q-16 -96 -109 -96t-93 73zM324 -473q-80 0 -80 72q0 13 22 54t23 139q-1 98 89 97q90 0 90 -110q0 -76 -40 -164t-104 -88z" />
    <glyph glyph-name="tcommaaccent" unicode="&#x163;" horiz-adv-x="690" 
d="M371 -20q-228 0 -228 223q0 47 13 123l88 557h-90q-74 0 -74 54q0 55 21 81t79 26h88l35 224q13 82 101 82t88 -62q0 -7 -7 -51l-30 -193h182q70 0 70 -59q0 -102 -93 -102h-184l-90 -566q-8 -50 -8 -84q0 -92 80 -92q38 1 76 19t60 18t43 -24t21 -60q0 -50 -78 -82
t-163 -32zM294 -473q-80 0 -80 72q0 13 22 54t23 139q-1 98 89 97q90 0 90 -110q0 -76 -40 -164t-104 -88z" />
    <glyph glyph-name="Tcaron" unicode="&#x164;" horiz-adv-x="1014" 
d="M324 61q0 19 14 101l168 1050h-291q-84 0 -84 64q0 117 96 117h793q90 0 90 -62q0 -119 -102 -119h-299l-183 -1128q-16 -96 -109 -96t-93 73zM926 1821q28 1 50 -25t21 -64q0 -38 -61 -69l-203 -113q-43 -24 -86 -24t-78 29l-147 106q-56 41 -56 75t26 60t56 25
q30 0 66 -29l143 -108l201 114q40 23 68 23z" />
    <glyph glyph-name="tcaron" unicode="&#x165;" horiz-adv-x="723" 
d="M371 -20q-228 0 -228 223q0 47 13 123l88 557h-90q-74 0 -74 54q0 55 21 81t79 26h88l35 224q13 82 101 82t88 -62q0 -7 -7 -51l-30 -193h182q70 0 70 -59q0 -102 -93 -102h-184l-90 -566q-8 -50 -8 -84q0 -92 80 -92q38 1 76 19t60 18t43 -24t21 -60q0 -50 -78 -82
t-163 -32zM714 1174q-80 0 -80 72q0 13 22 54q22 40 23 138q-1 98 89 98t90 -110q0 -76 -40 -164t-104 -88z" />
    <glyph glyph-name="Umacron" unicode="&#x16a;" horiz-adv-x="1313" 
d="M600 -20q-220 0 -338 106t-119 291q0 65 15 151l125 791q14 86 103 86t89 -70q0 -23 -10 -65l-119 -762q-12 -77 -12 -119q0 -109 70 -171t208 -62q136 0 221 72t109 218l137 873q13 86 103 86t90 -68q0 -23 -10 -69l-129 -822q-37 -234 -175 -350t-358 -116zM1010 1522
h-410q-102 0 -102 84t102 84h410q54 0 79 -17t25 -67q0 -84 -104 -84z" />
    <glyph glyph-name="umacron" unicode="&#x16b;" horiz-adv-x="1126" 
d="M109 276q0 55 10 119l92 578q12 84 100 84t88 -64q0 -7 -6 -53l-84 -532q-10 -63 -10 -89q0 -167 174 -167q111 0 197 90t108 241l76 492q12 82 101 82t89 -64l-145 -925q-14 -80 -101 -80t-87 61q0 17 6 41l8 53q-117 -163 -313 -163q-141 0 -222 78t-81 218zM879 1234
h-410q-102 0 -102 84t102 84h410q54 0 79 -17t25 -67q0 -84 -104 -84z" />
    <glyph glyph-name="Uring" unicode="&#x16e;" horiz-adv-x="1313" 
d="M600 -20q-220 0 -338 106t-119 291q0 65 15 151l125 791q14 86 103 86t89 -70q0 -23 -10 -65l-119 -762q-12 -77 -12 -119q0 -109 70 -171t208 -62q136 0 221 72t109 218l137 873q13 86 103 86t90 -68q0 -23 -10 -69l-129 -822q-37 -234 -175 -350t-358 -116zM812 1837
q-42 -1 -75 -31q-32 -30 -32 -74q1 -44 33 -76q32 -30 74 -30t74 30t32 75q0 44 -32 75t-74 31zM811 1520q-85 0 -147 63t-63 149q1 86 63 148q62 64 148 64t148 -64t62 -148q0 -86 -63 -149t-148 -63z" />
    <glyph glyph-name="uring" unicode="&#x16f;" horiz-adv-x="1126" 
d="M109 276q0 55 10 119l92 578q12 84 100 84t88 -64q0 -7 -6 -53l-84 -532q-10 -63 -10 -89q0 -167 174 -167q111 0 197 90t108 241l76 492q12 82 101 82t89 -64l-145 -925q-14 -80 -101 -80t-87 61q0 17 6 41l8 53q-117 -163 -313 -163q-141 0 -222 78t-81 218zM676 1531
q-42 -1 -75 -31q-32 -30 -32 -74q1 -44 33 -76q32 -30 74 -30t74 30t32 75q0 44 -32 75t-74 31zM675 1214q-85 0 -147 63t-63 149q1 86 63 148q62 64 148 64t148 -64t62 -148q0 -86 -63 -149t-148 -63z" />
    <glyph glyph-name="Uhungarumlaut" unicode="&#x170;" horiz-adv-x="1313" 
d="M600 -20q-220 0 -338 106t-119 291q0 65 15 151l125 791q14 86 103 86t89 -70q0 -23 -10 -65l-119 -762q-12 -77 -12 -119q0 -109 70 -171t208 -62q136 0 221 72t109 218l137 873q13 86 103 86t90 -68q0 -23 -10 -69l-129 -822q-37 -234 -175 -350t-358 -116zM614 1516
q-34 0 -57 22t-23 56t33 75l119 146q42 51 77 51t61 -24t26 -54q0 -31 -39 -80l-125 -147q-38 -45 -72 -45zM977 1516q-33 0 -57 23t-23 57q0 34 35 73l116 146q40 51 76 51t62 -24t26 -54q0 -32 -39 -80l-125 -147q-38 -45 -71 -45z" />
    <glyph glyph-name="uhungarumlaut" unicode="&#x171;" horiz-adv-x="1126" 
d="M109 276q0 55 10 119l92 578q12 84 100 84t88 -64q0 -7 -6 -53l-84 -532q-10 -63 -10 -89q0 -167 174 -167q111 0 197 90t108 241l76 492q12 82 101 82t89 -64l-145 -925q-14 -80 -101 -80t-87 61q0 17 6 41l8 53q-117 -163 -313 -163q-141 0 -222 78t-81 218zM471 1228
q-34 0 -57 22t-23 56t33 75l119 146q42 51 77 51t61 -24t26 -54q0 -31 -39 -80l-125 -147q-38 -45 -72 -45zM834 1228q-32 0 -56 23t-24 57t35 73l116 146q41 51 77 51t61 -24q26 -24 26 -54q0 -32 -39 -80l-125 -147q-38 -45 -71 -45z" />
    <glyph glyph-name="Uogonek" unicode="&#x172;" horiz-adv-x="1313" 
d="M575 -194q0 -70 66 -70q35 0 69 18t52 17q18 0 34.5 -19.5t16.5 -53.5t-61.5 -65.5t-147.5 -31.5t-137 44t-51 135t98 204q-175 16 -273 120t-98 273q0 65 15 151l125 791q14 86 103 86t89 -70q1 -6 -3 -25t-7 -40l-119 -762q-12 -77 -12 -119q0 -110 71 -171.5
t207 -61.5t221 72.5t109 217.5l137 873q13 86 103 86t90 -68q0 -6 -4 -26t-6 -43l-129 -822q-68 -428 -480 -462q-78 -108 -78 -178z" />
    <glyph glyph-name="uogonek" unicode="&#x173;" horiz-adv-x="1126" 
d="M109 276q0 55 10 119l92 578q12 84 100 84t88 -62q0 -9 -6 -53l-84 -534q-10 -64 -10 -89q0 -167 174 -167q112 0 197.5 90t107.5 241l76 492q12 82 101 82t89 -62q0 -7 -6 -49l-139 -878q-6 -39 -29 -62q-98 -114 -98 -192t66 -78q44 0 74 18t48 17q18 0 34 -19.5
t16 -52.5t-58.5 -65.5t-147.5 -32.5t-140.5 44.5t-51.5 123.5q0 112 119 235q-20 12 -20 38t4 46l10 55q-117 -163 -313 -163q-141 0 -222 78.5t-81 217.5z" />
    <glyph glyph-name="Ydieresis" unicode="&#x178;" horiz-adv-x="1038" 
d="M330 53q0 8 6 60l70 428q-254 356 -254 735q0 71 24 100t84 29q80 0 80 -74q0 -116 7 -198t50 -202t123 -233q306 270 393 621q13 51 33 69t66 17q100 0 100 -70q0 -122 -137 -356t-379 -438l-76 -467q-14 -86 -102 -86t-88 65zM475 1520q-47 0 -79 32t-32 78t33 79
q33 32 79 32q46 -1 77 -33q32 -32 32 -78t-32 -78t-78 -32zM856 1520q-46 0 -78 32t-33 78q0 46 33 79q32 32 78 32q46 -1 78 -33t32 -78t-32 -78t-78 -32z" />
    <glyph glyph-name="Zacute" unicode="&#x179;" horiz-adv-x="1073" 
d="M840 190q75 0 75 -69q1 -53 -27 -87t-75 -34h-725q-98 0 -98 102q0 125 124 288t363 376q347 317 412 436h-604q-78 0 -78 72q1 51 27 85t77 34h699q110 0 110 -103q0 -110 -120 -260t-377 -377q-343 -305 -408 -463h625zM622 1518q-30 0 -54 26t-23 58q0 34 51 74
l187 147q50 39 83 39q34 0 58 -25t24 -62t-51 -77l-200 -147q-45 -33 -75 -33z" />
    <glyph glyph-name="zacute" unicode="&#x17a;" horiz-adv-x="891" 
d="M713 166q80 0 80 -66q0 -100 -95 -100h-594q-114 0 -114 109q0 84 81 190q81 105 327 307t276 273h-479q-82 0 -82 69q-1 42 25 69t69 27h577q109 0 109 -92q0 -80 -87 -187t-290 -278q-287 -231 -319 -321h516zM479 1230q-29 0 -53 26t-24 58q0 34 51 74l187 147
q50 39 83 39t57 -25t25 -62q0 -37 -51 -77l-200 -147q-45 -33 -75 -33z" />
    <glyph glyph-name="Zdotaccent" unicode="&#x17b;" horiz-adv-x="1073" 
d="M840 190q75 0 75 -69q1 -53 -27 -87t-75 -34h-725q-98 0 -98 102q0 125 124 288t363 376q347 317 412 436h-604q-78 0 -78 72q1 51 27 85t77 34h699q110 0 110 -103q0 -110 -120 -260t-377 -377q-343 -305 -408 -463h625zM696 1518q-53 0 -89 37t-36 88t37 88t88 37
t88 -36t37 -89t-36 -89t-89 -36z" />
    <glyph glyph-name="zdotaccent" unicode="&#x17c;" horiz-adv-x="891" 
d="M713 166q80 0 80 -66q0 -100 -95 -100h-594q-114 0 -114 109q0 84 81 190q81 105 327 307t276 273h-479q-82 0 -82 69q-1 42 25 69t69 27h577q109 0 109 -92q0 -80 -87 -187t-290 -278q-287 -231 -319 -321h516zM541 1230q-53 0 -89 37t-36 88t37 88t88 37t88 -36t37 -89
t-36 -89t-89 -36z" />
    <glyph glyph-name="Zcaron" unicode="&#x17d;" horiz-adv-x="1073" 
d="M840 190q75 0 75 -69q1 -53 -27 -87t-75 -34h-725q-98 0 -98 102q0 125 124 288t363 376q347 317 412 436h-604q-78 0 -78 72q1 51 27 85t77 34h699q110 0 110 -103q0 -110 -120 -260t-377 -377q-343 -305 -408 -463h625zM974 1815q28 1 48 -25q22 -26 22 -64t-61 -69
l-203 -113q-43 -24 -86 -24t-78 29l-147 106q-56 41 -56 75t26 60t56 25q30 0 66 -29l143 -108l201 114q41 23 69 23z" />
    <glyph glyph-name="zcaron" unicode="&#x17e;" horiz-adv-x="891" 
d="M713 166q80 0 80 -66q0 -100 -95 -100h-594q-114 0 -114 109q0 84 81 190q81 105 327 307t276 273h-479q-82 0 -82 69q-1 42 25 69t69 27h577q109 0 109 -92q0 -80 -87 -187t-290 -278q-287 -231 -319 -321h516zM806 1527q28 1 50 -25t21 -64q0 -38 -61 -69l-203 -113
q-43 -24 -86 -24t-78 29l-147 106q-56 41 -56 75t26 60t56 25q30 0 66 -29l143 -108l201 114q40 23 68 23z" />
    <glyph glyph-name="florin" unicode="&#x192;" horiz-adv-x="1006" 
d="M102 -414q-180 0 -180 101q0 35 23 61.5t48 26.5q25 -1 57 -11t70 -10t69 36t53 142t149 797h-74q-81 0 -81 64q0 112 102 106h84l35 201q54 315 336 315q66 0 130 -22.5t64 -75.5q0 -33 -22.5 -63.5t-54.5 -30.5t-58 10t-74 10t-84.5 -40t-50.5 -120l-33 -184h125
q50 0 68 -14.5t18 -48.5q0 -113 -104 -107h-137q-17 -105 -76 -421l-71 -393q-38 -206 -130 -267.5t-201 -61.5z" />
    <glyph glyph-name="Scommaaccent" unicode="&#x218;" horiz-adv-x="1042" 
d="M477 -20q-167 0 -305 59t-139 125q0 40 27 74t54 34t79 -30q137 -88 281 -88t215 62t71 154t-48 147t-216 117q-170 62 -247 152t-77 218q0 181 124 295t339 114q163 0 291 -58t127 -122q1 -33 -29 -68t-58 -35t-85 35q-119 72 -245 72q-126 -1 -194 -59t-67 -146
t47 -137t174 -96q200 -69 279 -163t79 -235q0 -185 -126 -303t-351 -118zM386 -473q-80 0 -80 72q0 13 22 54t23 139q-1 98 89 97q90 0 90 -110q0 -76 -40 -164t-104 -88z" />
    <glyph glyph-name="scommaaccent" unicode="&#x219;" horiz-adv-x="922" 
d="M418 137q198 0 198 152q0 53 -34 89t-179 77q-146 41 -207 111t-61 175q0 150 99 237t282 87q99 0 186 -29q166 -55 166 -125q0 -33 -25 -65t-51 -31q-26 0 -109 45q-84 45 -176 45t-140 -41t-48 -98q-1 -58 31 -92t148 -70q192 -56 248 -126t55 -167q0 -155 -101 -243
t-290 -88q-134 0 -250 53t-117 108q-1 39 25 69t49 30t69 -27q121 -76 232 -76zM335 -473q-80 0 -80 72q1 13 23 54t22 139t90 97q90 0 89 -110q-1 -76 -41 -164t-103 -88z" />
    <glyph glyph-name="circumflex" unicode="&#x2c6;" horiz-adv-x="942" 
d="M342 1233q-28 0 -50 24.5t-22 62.5t62 71l200 112q45 25 87 25t79 -29l146 -106q57 -41 57 -75t-25.5 -59.5t-54.5 -25.5t-67 29l-142 110l-204 -117q-38 -22 -66 -22z" />
    <glyph glyph-name="caron" unicode="&#x2c7;" horiz-adv-x="942" 
d="M876 1528q28 0 49 -25t21 -63t-61 -70l-203 -113q-43 -24 -86 -24t-78 29l-147 106q-56 40 -56 74t26 60t56 26t66 -29l143 -108l201 114q41 23 69 23z" />
    <glyph glyph-name="macron" unicode="&#x2c9;" horiz-adv-x="942" 
d="M807 1235h-410q-102 0 -102 84t102 84h410q54 0 79 -17t25 -67q0 -84 -104 -84z" />
    <glyph glyph-name="breve" unicode="&#x2d8;" horiz-adv-x="942" 
d="M602 1233q-112 0 -198.5 68t-86.5 143q0 29 24 51.5t59 22.5t71 -62q51 -74 131 -74t140 93q28 43 62 43t57.5 -23t23.5 -51q0 -76 -85.5 -143.5t-197.5 -67.5z" />
    <glyph glyph-name="dotaccent" unicode="&#x2d9;" horiz-adv-x="942" 
d="M610 1231q-53 0 -89 37t-36 88t37 88t88 37t88 -36t37 -89t-36 -89t-89 -36z" />
    <glyph glyph-name="ring" unicode="&#x2da;" horiz-adv-x="942" 
d="M616 1550q-42 0 -74 -31t-32 -75t32.5 -74.5t74.5 -30.5t74 30.5t32 74.5t-32.5 75t-74.5 31zM616 1233q-85 0 -147.5 62.5t-62.5 148.5t62 149.5t148 63.5t148.5 -63.5t62.5 -149.5t-63 -148.5t-148 -62.5z" />
    <glyph glyph-name="ogonek" unicode="&#x2db;" horiz-adv-x="885" 
d="M350 -186q0 -78 66 -78q34 0 68 18t53 17q18 0 34.5 -19.5t16.5 -52.5t-61.5 -65.5t-147.5 -32.5t-137.5 44t-51.5 124q0 122 148 264h131q-119 -141 -119 -219z" />
    <glyph glyph-name="tilde" unicode="&#x2dc;" horiz-adv-x="942" 
d="M742 1237q-68 0 -138 37t-108 37t-74 -38t-63 -38t-48.5 21.5t-21.5 52.5q0 52 64 100.5t137 48.5t159 -43q51 -31 89 -31t66 36q29 36 54 36q74 0 74 -67q0 -51 -61 -101.5t-129 -50.5z" />
    <glyph glyph-name="hungarumlaut" unicode="&#x2dd;" horiz-adv-x="942" 
d="M436 1229q-34 0 -57 22.5t-23 56.5t33 74l119 146q42 51 77 51t61 -23.5t26 -54.5t-39 -80l-125 -147q-38 -45 -72 -45zM799 1229q-33 0 -56.5 23t-23.5 57t35 73l116 146q40 51 76 51t62 -23.5t26 -55.5t-39 -79l-125 -147q-38 -45 -71 -45z" />
    <glyph glyph-name="tonos" unicode="&#x384;" horiz-adv-x="510" 
d="M459 1606q37 0 66.5 -21.5t29.5 -48.5t-23 -68l-124 -215q-28 -51 -64 -51t-65 23t-29 47t16 53l123 221q33 60 70 60z" />
    <glyph glyph-name="dieresistonos" unicode="&#x385;" horiz-adv-x="817" 
d="M850 1221q-46 0 -78.5 32.5t-32.5 78.5t33 78t79 32t78 -33t32 -79t-32.5 -77.5t-78.5 -31.5zM318 1221q-46 0 -78.5 32t-32.5 78t32.5 78.5t78.5 32.5t78 -32t32 -80t-32 -78.5t-78 -30.5zM570 1202q-40 0 -63.5 18t-23.5 42t9 47l77 219q27 78 84 78q33 0 55.5 -19.5
t22.5 -46.5t-12 -57l-84 -217q-25 -64 -65 -64z" />
    <glyph glyph-name="Alphatonos" unicode="&#x386;" horiz-adv-x="1198" 
d="M836 569q-52 350 -123 598q-153 -247 -324 -598h447zM82 -14q-46 0 -80 20t-33 61t159 376t330 625t202 313q30 24 79 24h4q51 -1 79 -31t102 -302t120 -590q46 -316 46 -406t-119 -90q-66 0 -70 71q-11 139 -37 336h-555q-47 -99 -99 -223t-68 -154q-14 -30 -60 -30z
M294 1406q36 0 66 -22t30 -48q0 -27 -23 -68l-124 -215q-29 -51 -65 -51t-64 23q-29 23 -29 47t16 53l123 221q33 60 70 60z" />
    <glyph glyph-name="anoteleia" unicode="&#x387;" horiz-adv-x="459" 
d="M242 520q-48 0 -81.5 33.5t-33.5 81.5t33 82.5t82 34.5t82.5 -35t33.5 -81t-34 -81t-82 -35z" />
    <glyph glyph-name="Epsilontonos" unicode="&#x388;" horiz-adv-x="1243" 
d="M265 1406q37 0 67 -22t29 -48q0 -27 -23 -68l-124 -215q-28 -51 -64 -51t-65 23t-29 47t16 53l123 221q33 60 70 60zM424 0q-146 0 -146 123q0 13 11 70l159 1024q26 176 207 176h529q86 0 86 -64q0 -117 -111 -117h-483q-37 0 -41 -38l-58 -359h451q84 0 84 -65
q0 -115 -111 -115h-452l-60 -383q-6 -38 -6 -49q0 -23 23 -23h485q84 0 84 -63q0 -117 -111 -117h-540z" />
    <glyph glyph-name="Etatonos" unicode="&#x389;" horiz-adv-x="1544" 
d="M265 1406q37 0 67 -22t29 -48q0 -27 -23 -68l-124 -215q-28 -51 -64 -51t-65 23t-29 47t16 53l123 221q33 60 70 60zM1101 53q0 19 7 58l84 514h-629l-88 -551q-13 -86 -103 -86t-90 63q0 18 8 60l193 1210q12 84 102 84t90 -64v-6q0 -12 -8 -65l-76 -467h627l82 518
q12 84 102 84t91 -64q0 -25 -9 -69l-190 -1198q-14 -86 -104 -86t-89 65z" />
    <glyph glyph-name="Iotatonos" unicode="&#x38a;" horiz-adv-x="725" 
d="M265 1406q37 0 67 -22t29 -48q0 -27 -23 -68l-124 -215q-28 -51 -64 -51t-65 23t-29 47t16 53l123 221q33 60 70 60zM282 51q0 21 8 58l193 1212q12 84 102 84t90 -64l-200 -1267q-13 -86 -103 -86t-90 63z" />
    <glyph glyph-name="Omicrontonos" unicode="&#x38c;" horiz-adv-x="1542" 
d="M265 1406q37 0 67 -22t29 -48q0 -27 -23 -68l-124 -215q-28 -51 -64 -51t-65 23t-29 47t16 53l123 221q33 60 70 60zM964 1243q-219 -1 -351 -199t-132 -489q1 -189 87 -297t249 -108q221 0 347 200t126 494q0 186 -84 292t-242 107zM794 -20q-232 0 -368 153t-135 416
q0 366 186 615t506 249q233 0 365 -148t132 -409q0 -368 -183 -622t-503 -254z" />
    <glyph glyph-name="Upsilontonos" unicode="&#x38e;" horiz-adv-x="1343" 
d="M265 1406q37 0 67 -22t29 -48q0 -27 -23 -68l-124 -215q-28 -51 -64 -51t-65 23t-29 47t16 53l123 221q33 60 70 60zM635 53q0 8 6 60l70 428q-254 356 -254 735q0 71 24 100t84 29q80 0 80 -74q0 -116 7 -198t50 -202t123 -233q306 270 393 621q14 51 34 69t65 17
q100 0 100 -70q0 -122 -137 -356t-379 -438l-76 -467q-14 -86 -102 -86t-88 65z" />
    <glyph glyph-name="Omegatonos" unicode="&#x38f;" horiz-adv-x="1550" 
d="M279 0q-90 0 -90 63q0 117 100 117h166q-151 153 -151 402q0 358 186 594t514 237q238 0 374 -147t136 -402q0 -202 -80 -384t-227 -300h153q86 0 86 -65q0 -115 -96 -115h-364q-50 0 -70 14t-19 49q0 87 56 107q166 73 267 257t101 423q0 181 -87 287t-246 106
q-222 0 -358 -186t-136 -469q0 -142 48 -250t136 -160q41 -24 41 -63q0 -115 -96 -115h-344zM265 1406q37 0 67 -22t29 -48q0 -27 -23 -68l-124 -215q-28 -51 -64 -51t-65 23t-29 47t16 53l123 221q33 60 70 60z" />
    <glyph glyph-name="iotadieresistonos" unicode="&#x390;" horiz-adv-x="578" 
d="M532 82q0 -102 -226 -102q-94 0 -152 58t-58 140t17 180l98 617q12 82 101 82t89 -62q0 -6 -2 -20t-4 -31l-100 -616q-10 -62 -10 -99q0 -84 67 -84q38 -1 68 11t53 12t41 -28t18 -58zM620 1221q-46 0 -78 32q-32 33 -33 79q0 46 33 78t79 32t78 -33t32 -79t-33 -77
q-32 -32 -78 -32zM88 1221q-46 0 -79 32q-32 32 -32 78q0 47 33 79q32 32 78 32t78 -32t32 -80t-32 -78q-32 -31 -78 -31zM340 1202q-40 0 -63 18q-24 18 -24 42t9 47l77 219q27 78 84 78q33 0 55 -20t23 -46q0 -27 -12 -57l-84 -217q-25 -64 -65 -64z" />
    <glyph glyph-name="Alpha" unicode="&#x391;" horiz-adv-x="1198" 
d="M836 569q-52 350 -123 598q-153 -247 -324 -598h447zM82 -14q-46 0 -80 20t-33 61t159 376t330 625t202 313q30 24 79 24h4q51 -1 79 -31t102 -302t120 -590q46 -316 46 -406t-119 -90q-66 0 -70 71q-11 139 -37 336h-555q-47 -99 -99 -223t-68 -154q-14 -30 -60 -30z
" />
    <glyph glyph-name="Beta" unicode="&#x392;" horiz-adv-x="1196" 
d="M864 436q0 203 -250 203h-239l-66 -406q-4 -25 -4 -32q0 -23 31 -23h229q145 0 222 66t77 192zM905 1038q0 174 -211 174h-186q-43 0 -49 -45l-56 -350h244q120 0 189 59t69 162zM1057 428q0 -184 -133 -306t-367 -122h-315q-138 0 -138 123q0 17 4 40t9 60l157 991
q28 179 205 179h248q179 0 277 -84q98 -85 98 -223t-70 -230t-194 -125q219 -64 219 -303z" />
    <glyph glyph-name="Gamma" unicode="&#x393;" horiz-adv-x="987" 
d="M944 1212h-440q-33 0 -45 -47l-172 -1091q-13 -86 -103 -86t-90 59q0 9 10 61t141 900l37 230q11 64 54.5 109.5t124.5 45.5h510q86 0 86 -66q0 -115 -113 -115z" />
    <glyph glyph-name="Delta" unicode="&#x394;" horiz-adv-x="1231" 
d="M731 1167q-366 -596 -526 -989h723q-59 488 -197 989zM1008 0h-920q-113 0 -113 80q1 66 137 350t331 600.5t232 345.5t87 29t78.5 -30.5t120 -357.5t129.5 -586t38 -327q0 -104 -120 -104z" />
    <glyph glyph-name="Epsilon" unicode="&#x395;" horiz-adv-x="1067" 
d="M248 0q-146 0 -146 123q0 13 11 70l159 1024q26 176 207 176h529q86 0 86 -64q0 -117 -111 -117h-483q-37 0 -41 -38l-58 -359h451q84 0 84 -65q0 -115 -111 -115h-452l-60 -383q-6 -38 -6 -49q0 -23 23 -23h485q84 0 84 -63q0 -117 -111 -117h-540z" />
    <glyph glyph-name="Zeta" unicode="&#x396;" horiz-adv-x="1073" 
d="M840 190q75 0 75 -69q1 -53 -27 -87t-75 -34h-725q-98 0 -98 102q0 125 124 288t363 376q347 317 412 436h-604q-78 0 -78 72q1 51 27 85t77 34h699q110 0 110 -103q0 -110 -120 -260t-377 -377q-343 -305 -408 -463h625z" />
    <glyph glyph-name="Eta" unicode="&#x397;" horiz-adv-x="1356" 
d="M913 53q0 19 7 58l84 514h-629l-88 -551q-13 -86 -103 -86t-90 63q0 18 8 60l193 1210q12 84 102 84t90 -64v-6q0 -12 -8 -65l-76 -467h627l82 518q12 84 102 84t91 -64q0 -25 -9 -69l-190 -1198q-14 -86 -104 -86t-89 65z" />
    <glyph glyph-name="Theta" unicode="&#x398;" horiz-adv-x="1362" 
d="M504 625q-84 0 -84 63q0 113 110 113h375q84 0 84 -64q0 -112 -108 -112h-377zM782 1243q-219 0 -351 -198.5t-132 -489.5q0 -190 86.5 -297.5t249.5 -107.5q220 0 346.5 200t126.5 494q0 186 -83.5 292.5t-242.5 106.5zM612 -20q-232 0 -367.5 153t-135.5 416
q0 366 186 615t506 249q232 0 364.5 -148t132.5 -409q0 -368 -183 -622t-503 -254z" />
    <glyph glyph-name="Iota" unicode="&#x399;" horiz-adv-x="537" 
d="M94 51q0 21 8 58l193 1212q12 84 102 84t90 -64l-200 -1267q-13 -86 -103 -86t-90 63z" />
    <glyph glyph-name="Kappa" unicode="&#x39a;" horiz-adv-x="1167" 
d="M1065 64q1 -30 -37 -54t-72 -24t-48 13t-31 48q-166 348 -385 610q-13 -9 -31 -20l-94 -59l-80 -504q-15 -86 -103 -86t-88 65q0 23 6 60l193 1210q12 82 102 82t90 -62q0 -17 -10 -69l-74 -471q369 255 607 557q32 47 72 47t74 -27q32 -27 32 -59q0 -63 -181 -245
t-358 -312q243 -294 393 -621q22 -49 23 -79z" />
    <glyph glyph-name="Lambda" unicode="&#x39b;" horiz-adv-x="1198" 
d="M80 -14q-112 0 -113 81q0 43 172.5 409t328.5 620t189 281.5t85 27.5t79 -28.5t97.5 -283t121 -586.5t50.5 -433q0 -88 -115 -88q-71 0 -74 71q-48 560 -186 1110q-319 -517 -553 -1108q-32 -73 -82 -73z" />
    <glyph glyph-name="Mu" unicode="&#x39c;" horiz-adv-x="1587" 
d="M1159 47q0 12 10 70l158 997l-434 -610q-47 -66 -118 -66t-97 64l-238 606l-164 -1036q-14 -84 -98 -84t-84 59q0 16 8 59l187 1170q20 129 137 129q76 0 106 -74l269 -698l491 698q52 74 133 74q111 0 111 -94q0 -28 -8 -74l-187 -1165q-14 -84 -98 -84t-84 59z" />
    <glyph glyph-name="Nu" unicode="&#x39d;" horiz-adv-x="1384" 
d="M1012 -12q-80 0 -111 71l-461 1049l-140 -887q-27 -173 -38 -193q-21 -39 -95 -40q-73 0 -73 61q0 1 6 53l187 1170q20 133 141 133q79 0 107 -74l452 -1038l164 1026q9 57 35 71t61 15q88 0 88 -66q0 -10 -8 -61l-188 -1180q-18 -110 -127 -110z" />
    <glyph glyph-name="Xi" unicode="&#x39e;" horiz-adv-x="1047" 
d="M94 0q-84 0 -84 66q0 112 111 112h713q84 0 84 -65q0 -113 -111 -113h-713zM295 631q-84 0 -84 65q0 113 111 113h493q86 0 86 -66q0 -112 -110 -112h-496zM297 1214q-84 0 -84 66q0 113 111 113h663q86 0 86 -66q0 -113 -110 -113h-666z" />
    <glyph glyph-name="Omicron" unicode="&#x39f;" horiz-adv-x="1362" 
d="M782 1243q-219 -1 -351 -199t-132 -489q1 -189 87 -297t249 -108q221 0 347 200t126 494q0 186 -84 292t-242 107zM612 -20q-232 0 -368 153t-135 416q0 366 186 615t506 249q233 0 365 -148t132 -409q0 -368 -183 -622t-503 -254z" />
    <glyph glyph-name="Pi" unicode="&#x3a0;" horiz-adv-x="1352" 
d="M913 49q0 15 9 62l163 1042q5 32 5 35q0 26 -27 26h-557q-37 0 -43 -43l-176 -1099q-13 -84 -103 -84t-90 61q0 20 8 62l177 1112q26 170 192 170h678q141 0 141 -123q0 -33 -8 -80l-178 -1118q-14 -84 -102 -84t-89 61z" />
    <glyph glyph-name="Rho" unicode="&#x3a1;" horiz-adv-x="1108" 
d="M928 997q0 215 -234 215h-192q-34 0 -41 -38l-76 -478h236q149 0 228 80t79 221zM96 47q0 26 8 68l175 1102q28 176 200 176h246q191 0 294 -101q103 -102 103 -302t-132 -336t-380 -136h-252l-69 -448q-13 -84 -103 -84t-90 61z" />
    <glyph glyph-name="Sigma" unicode="&#x3a3;" horiz-adv-x="1010" 
d="M8 100q0 188 481 629q-135 180 -213.5 333.5t-78.5 221.5q0 109 104 109h647q86 0 86 -66q0 -113 -112 -113h-504q61 -162 256 -423q28 -40 28 -75t-38 -71q-359 -320 -437 -467h625q84 0 84 -65q0 -113 -111 -113h-719q-98 0 -98 100z" />
    <glyph glyph-name="Tau" unicode="&#x3a4;" horiz-adv-x="1014" 
d="M324 61q0 19 14 101l168 1050h-291q-84 0 -84 64q0 117 96 117h793q90 0 90 -62q0 -119 -102 -119h-299l-183 -1128q-16 -96 -109 -96t-93 73z" />
    <glyph glyph-name="Upsilon" unicode="&#x3a5;" horiz-adv-x="1038" 
d="M330 53q0 8 6 60l70 428q-254 356 -254 735q0 71 24 100t84 29q80 0 80 -74q0 -116 7 -198t50 -202t123 -233q306 270 393 621q13 51 33 69t66 17q100 0 100 -70q0 -122 -137 -356t-379 -438l-76 -467q-14 -86 -102 -86t-88 65z" />
    <glyph glyph-name="Phi" unicode="&#x3a6;" horiz-adv-x="1362" 
d="M1122 734q0 150 -67.5 223t-202.5 83l-109 -692q181 14 280 125t99 261zM285 657q0 -150 67.5 -223t202.5 -86l109 694q-179 -14 -279 -124.5t-100 -260.5zM506 29q0 19 8 61l14 94q-202 21 -317 141t-115 304q0 244 160.5 401.5t433.5 175.5l21 135q12 84 102 84t90 -61
q0 -19 -8 -61l-16 -99q205 -19 318.5 -138t113.5 -304q0 -247 -162.5 -405t-431.5 -173l-21 -133q-14 -84 -102 -84t-88 62z" />
    <glyph glyph-name="Chi" unicode="&#x3a7;" horiz-adv-x="1116" 
d="M961 147q0 -77 -22 -118t-82 -41q-59 0 -77 20t-18 64q0 131 -36 250t-161 272q-316 -246 -387 -518q-16 -56 -38 -72t-66 -16q-82 0 -82 73q0 121 102 291t352 361q-219 282 -219 565q0 127 113 127q84 0 84 -76q0 -91 4 -145t44 -151q39 -97 126 -216q160 130 242 245
t118 263q13 52 37 66t64 14q92 0 92 -78q-1 -101 -103 -276t-335 -353q248 -288 248 -551z" />
    <glyph glyph-name="Psi" unicode="&#x3a8;" horiz-adv-x="1516" 
d="M582 49q0 20 8 62l33 215q-211 10 -325 115t-114 286q0 72 13 145l71 449q12 84 102 84t89 -62q0 -19 -8 -61l-68 -430q-10 -63 -10 -117q0 -231 278 -243l131 829q12 84 102 84t89 -62q0 -19 -8 -61l-125 -795q322 12 364 281l88 553q12 84 102 84t91 -62q0 -19 -8 -61
l-86 -530q-68 -416 -580 -430l-39 -250q-14 -84 -102 -84t-88 61z" />
    <glyph glyph-name="Omega" unicode="&#x3a9;" horiz-adv-x="1378" 
d="M84 0q-90 0 -90 63q0 117 100 117h166q-151 153 -151 402q0 358 186.5 594.5t513.5 236.5q237 0 373.5 -147t136.5 -402q0 -203 -80 -384.5t-227 -299.5h153q86 0 86 -65q0 -115 -96 -115h-364q-50 0 -69.5 14t-19.5 49q0 87 56 107q166 73 267 257t101 423
q0 181 -87 287t-246 106q-223 0 -358.5 -186t-135.5 -469q0 -142 48.5 -250.5t135.5 -159.5q41 -24 41 -63q0 -115 -96 -115h-344z" />
    <glyph glyph-name="Iotadieresis" unicode="&#x3aa;" horiz-adv-x="537" 
d="M94 51q0 21 8 58l193 1212q12 84 102 84t90 -64l-200 -1267q-13 -86 -103 -86t-90 63zM237 1538q-47 0 -79 32t-32 78t33 79q33 32 79 32q46 -1 77 -33q32 -32 32 -78t-32 -78t-78 -32zM618 1538q-46 0 -78 32t-33 78q0 46 33 79q32 32 78 32q46 -1 78 -33t32 -78
t-32 -78t-78 -32z" />
    <glyph glyph-name="Upsilondieresis" unicode="&#x3ab;" horiz-adv-x="1038" 
d="M330 53q0 8 6 60l70 428q-254 356 -254 735q0 71 24 100t84 29q80 0 80 -74q0 -116 7 -198t50 -202t123 -233q306 270 393 621q13 51 33 69t66 17q100 0 100 -70q0 -122 -137 -356t-379 -438l-76 -467q-14 -86 -102 -86t-88 65zM469 1538q-47 0 -79 32t-32 78t33 79
q33 32 79 32q46 -1 77 -33q32 -32 32 -78t-32 -78t-78 -32zM850 1538q-46 0 -78 32t-33 78q0 46 33 79q32 32 78 32q46 -1 78 -33t32 -78t-32 -78t-78 -32z" />
    <glyph glyph-name="alphatonos" unicode="&#x3ac;" horiz-adv-x="1212" 
d="M803 614q0 279 -219 279q-148 1 -232 -137t-84 -332q0 -126 52 -199t157 -73q155 0 241 142t85 320zM78 410q0 266 140 460t366 195q117 1 204 -57t117 -164q37 90 97 152t102 61q42 0 72 -31q28 -31 28 -62t-43 -67q-194 -163 -194 -451q0 -190 110 -294q35 -35 35 -69
q0 -35 -29 -65t-61 -30q-60 0 -112 59t-76 164q-127 -231 -392 -231q-170 0 -267 116t-97 314zM760 1606q36 0 66 -22t30 -48q0 -27 -23 -68l-124 -215q-29 -51 -65 -51t-64 23q-29 23 -29 47t16 53l123 221q33 60 70 60z" />
    <glyph glyph-name="epsilontonos" unicode="&#x3ad;" horiz-adv-x="905" 
d="M152 745q0 144 110 232t301 88q97 -1 207 -35t111 -94q0 -36 -22 -65t-43 -29t-39 8q-115 49 -215 49q-100 1 -161 -39t-61 -104t52 -100t145 -35h100q80 0 80 -62q0 -102 -90 -102h-111q-139 -1 -212 -49t-73 -125q0 -131 220 -131q120 0 201 36q80 36 108 37t52 -29
t24 -63q0 -61 -133 -107t-297 -46t-262 73t-99 192t73 201t199 103q-165 52 -165 196zM719 1606q37 0 67 -22t29 -48q0 -27 -23 -68l-124 -215q-28 -51 -64 -51t-65 23t-29 47t16 53l123 221q33 60 70 60z" />
    <glyph glyph-name="etatonos" unicode="&#x3ae;" horiz-adv-x="1096" 
d="M715 1065q133 -1 217 -83t84 -222q0 -36 -15 -144l-151 -964q-14 -84 -101 -84t-87 63q0 20 6 54l145 927q8 51 8 109q0 172 -172 172q-105 0 -193 -92t-110 -242l-78 -489q-14 -82 -101 -82t-87 63q0 14 6 47l80 502q20 126 20 196t-12 121t-12 75t31 44q31 21 79 21
q84 0 84 -205q107 213 359 213zM821 1606q37 0 67 -22t29 -48q0 -27 -23 -68l-124 -215q-28 -51 -64 -51t-65 23t-29 47t16 53l123 221q33 60 70 60z" />
    <glyph glyph-name="iotatonos" unicode="&#x3af;" horiz-adv-x="580" 
d="M532 82q0 -102 -226 -102q-94 0 -152 58t-58 140t17 180l98 617q12 82 101 82t89 -62q0 -6 -2 -20t-4 -31l-100 -616q-10 -62 -10 -99q0 -84 67 -84q38 -1 68 11t53 12t41 -28t18 -58zM477 1606q37 0 67 -22t29 -48q0 -27 -23 -68l-124 -215q-28 -51 -64 -51t-65 23
t-29 47t16 53l123 221q33 60 70 60z" />
    <glyph glyph-name="upsilondieresistonos" unicode="&#x3b0;" horiz-adv-x="1090" 
d="M301 324q0 -172 172 -172q157 0 249 138t93 367q0 131 -37 213t-37 111q0 30 33 54t72 24q62 1 110 -117t48 -289q0 -305 -147 -489t-404 -184q-162 0 -253 86t-91 227q0 52 10 102l92 578q12 84 100 84t88 -64q0 -11 -4 -45q-94 -564 -94 -624zM884 1221q-46 0 -78 32
q-32 33 -32 79t33 78t79 32t78 -33t32 -79t-33 -77q-33 -32 -79 -32zM352 1221q-46 0 -78 32t-32 78q0 47 33 79t79 32t77 -32q32 -32 32 -80t-32 -78q-33 -31 -79 -31zM606 1202q-40 0 -64 18t-24 42t9 47l77 219q27 78 84 78q34 0 56 -20t22 -46q0 -27 -12 -57l-84 -217
q-24 -64 -64 -64z" />
    <glyph glyph-name="alpha" unicode="&#x3b1;" horiz-adv-x="1212" 
d="M803 614q0 279 -219 279q-147 0 -231.5 -137.5t-84.5 -331.5q0 -126 52.5 -199t156.5 -73q155 0 240.5 142.5t85.5 319.5zM78 410q0 266 139.5 460.5t366.5 194.5q117 0 204 -57.5t117 -163.5q38 90 97.5 151.5t101.5 61.5t71 -31t29 -62t-43 -67q-194 -163 -194 -451
q0 -190 110 -294q35 -35 35 -69t-29 -64.5t-61 -30.5q-59 0 -111.5 59t-76.5 164q-127 -231 -392 -231q-170 0 -267 115.5t-97 314.5z" />
    <glyph glyph-name="beta" unicode="&#x3b2;" horiz-adv-x="1169" 
d="M645 748h-29q-73 0 -73 63q0 95 106 102q252 12 252 265q0 86 -56 139t-166 53t-158 -62t-62 -109t-45 -238l-57 -353q-27 -163 -27 -213q0 -100 69 -175t199 -75t209.5 95.5t79.5 257.5q0 107 -67 178.5t-175 71.5zM589 -23q-228 0 -302 185l-80 -514q-13 -80 -101 -80
t-88 63q0 14 106 676l134 841q49 253 186 320.5t254 67.5q178 0 286 -95.5t108 -236.5t-76.5 -241t-198.5 -127q262 -72 262 -349q0 -226 -131 -368t-359 -142z" />
    <glyph glyph-name="gamma" unicode="&#x3b3;" horiz-adv-x="936" 
d="M898 1055q38 0 70.5 -25.5t32.5 -55.5t-36 -75q-331 -357 -417 -602t-115 -453t-47.5 -242t-94.5 -34t-76 63q0 30 6 62q45 284 45 489t-59.5 407t-151.5 300q-41 49 -41 81t34 61.5t74 29.5t89.5 -57.5t99.5 -171.5q101 -229 101 -519q68 224 238 483q171 259 248 259z
" />
    <glyph glyph-name="delta" unicode="&#x3b4;" horiz-adv-x="1106" 
d="M266 426q0 -125 63.5 -203t172.5 -78q150 0 237.5 118t87.5 302q0 227 -204 353q-357 -88 -357 -492zM348 1245q0 132 92 211.5t236 79.5t252 -59t108 -111q0 -29 -27 -59.5t-53 -30.5t-105 47t-167 47q-149 0 -149 -108q-1 -80 171 -194t241 -231t69 -270
q0 -258 -141 -422.5t-390 -164.5q-190 0 -298.5 122t-108.5 318q0 460 401 602q-131 91 -131 223z" />
    <glyph glyph-name="epsilon" unicode="&#x3b5;" horiz-adv-x="905" 
d="M152 745q0 144 110 232t301 88q97 0 207.5 -34.5t110.5 -94.5q0 -36 -22 -65t-43 -29t-39 8q-115 49 -215 49t-161 -39.5t-61 -103.5t52 -99.5t145 -35.5h100q80 0 80 -62q0 -102 -90 -102h-111q-139 0 -212 -48.5t-73 -125.5q0 -131 220 -131q120 0 201 36q80 36 108 37
q28 0 52 -29.5t24 -62.5q0 -62 -133 -107.5t-297 -45.5t-262.5 73t-98.5 192t73.5 201.5t198.5 102.5q-165 52 -165 196z" />
    <glyph glyph-name="zeta" unicode="&#x3b6;" horiz-adv-x="825" 
d="M336 1350q-78 0 -78 63q0 103 88 103h522q72 0 72 -62q0 -36 -18 -67t-91 -89q-271 -203 -417 -415t-146 -410q0 -121 56 -171t198 -88t198 -101.5t56 -153.5q0 -156 -160 -274.5t-249 -118.5q-31 0 -51.5 30t-20.5 62t17.5 44.5t95.5 48.5q180 83 180 200
q0 36 -31.5 61.5t-128.5 48.5q-183 45 -266.5 141.5t-83.5 254.5q0 222 163 472t414 421h-319z" />
    <glyph glyph-name="eta" unicode="&#x3b7;" horiz-adv-x="1096" 
d="M715 1065q132 0 216.5 -82.5t84.5 -222.5q0 -36 -15 -144l-151 -964q-14 -84 -101 -84t-87 63q0 20 6 54l145 927q8 51 8 109q0 172 -172 172q-106 0 -193.5 -92t-109.5 -242l-78 -489q-14 -82 -101 -82t-87 63q0 14 6 47l80 502q20 126 20 196t-12 121t-12 75t31 44.5
t79 20.5q84 0 84 -205q107 213 359 213z" />
    <glyph glyph-name="theta" unicode="&#x3b8;" horiz-adv-x="1096" 
d="M293 522q0 -166 50 -271.5t151 -105.5q124 0 208.5 139t114.5 398h-520q-4 -91 -4 -160zM838 987q0 163 -48 273t-151 110q-127 0 -210 -134t-114 -390h516q7 65 7 141zM479 -20q-179 0 -276 147.5t-97 423.5q0 454 145 719.5t402 265.5q178 0 274.5 -152t96.5 -428
q0 -447 -144 -711.5t-401 -264.5z" />
    <glyph glyph-name="iota" unicode="&#x3b9;" horiz-adv-x="580" 
d="M532 82q0 -102 -226 -102q-95 0 -152.5 58t-57.5 140t17 180l98 617q12 82 101 82t89 -62q0 -6 -2 -20t-4 -31l-100 -616q-10 -62 -10 -99q0 -84 67 -84q38 -1 68 11t53 12t41 -27.5t18 -58.5z" />
    <glyph glyph-name="kappa" unicode="&#x3ba;" horiz-adv-x="1053" 
d="M82 51q0 14 6 47l139 877q13 82 101 82t88 -62q0 -17 -6 -51l-58 -334q131 179 323.5 315t268.5 136q38 0 61 -28t23 -62t-20 -49t-60 -33q-217 -103 -377 -260q141 -134 236.5 -320t95.5 -252q0 -32 -31.5 -51.5t-69.5 -19.5t-52.5 16t-26.5 45q-128 306 -274 463
q-86 -83 -136 -166l-43 -274q-14 -82 -101 -82t-87 63z" />
    <glyph glyph-name="lambda" unicode="&#x3bb;" horiz-adv-x="956" 
d="M54 -12q-47 0 -76 24.5t-29 61.5q0 58 156.5 297.5t400.5 525.5q-57 325 -91 385.5t-108 99.5q-35 18 -35 56t23 70t57 32q75 0 160 -88.5t129 -306.5l150 -778q29 -151 85 -205t56 -83q0 -30 -30.5 -60.5t-65.5 -30.5q-66 0 -126 83.5t-89 233.5l-76 381
q-218 -266 -418 -645q-26 -53 -73 -53z" />
    <glyph glyph-name="mu" unicode="&#x3bc;" horiz-adv-x="1143" 
d="M102 -414q-88 0 -88 72q0 16 62 391l152 927q13 81 101 81q87 0 87 -62q0 -3 -6 -55l-84 -528q-9 -57 -9 -88q0 -172 177 -172q110 0 190.5 83.5t103.5 210.5t82 529q14 82 102 82t89 -64q0 -6 -8 -59l-138 -866q-14 -80 -101 -80t-87 61q0 16 4 39l10 51
q-113 -159 -278 -159q-139 0 -195 100l-65 -410q-13 -84 -101 -84z" />
    <glyph glyph-name="nu" unicode="&#x3bd;" horiz-adv-x="1040" 
d="M788 821q0 63 -14 110t-14 69t32 42.5t71 20.5t60 -24t36.5 -82.5t15.5 -149.5t-40.5 -205.5t-126 -238.5t-193.5 -237.5t-128.5 -125.5t-60.5 -12t-60.5 17t-87 185.5t-114 384t-47.5 398.5q0 84 110 84q74 0 78 -74q12 -368 160 -786q323 347 323 624z" />
    <glyph glyph-name="xi" unicode="&#x3be;" horiz-adv-x="866" 
d="M440 1114q0 -168 211 -168h47q78 0 78 -61q0 -103 -88 -103h-96q-138 0 -232 -87t-94 -207t52 -176t198 -96t202 -103.5t56 -153.5q0 -157 -160 -275t-249 -118q-31 0 -51.5 31t-20.5 61t17.5 43.5t95.5 49.5q180 83 180 200q0 46 -41.5 69t-118.5 41q-348 86 -348 396
q0 148 88 262.5t244 154.5q-73 20 -114.5 76.5t-41.5 128.5q0 197 207 275h-193q-69 0 -69 61q0 101 94 101h541q77 0 77 -64q0 -102 -88 -102h-24q-165 0 -262 -63.5t-97 -172.5z" />
    <glyph glyph-name="omicron" unicode="&#x3bf;" horiz-adv-x="1104" 
d="M598 893q-150 1 -240 -133t-90 -328q0 -132 63 -206t175 -74q154 0 242 134t88 328q0 132 -62 206t-176 73zM487 -20q-195 0 -302 123t-107 323q0 271 144 455t394 184q190 1 300 -117t110 -323q0 -273 -143 -459t-396 -186z" />
    <glyph glyph-name="pi" unicode="&#x3c0;" horiz-adv-x="1243" 
d="M965 -20q-224 0 -224 225q0 48 9 100l98 574h-295l-90 -543q-60 -356 -309 -356q-29 0 -49.5 21.5t-20.5 59.5q0 63 55 76q105 25 133 197l93 545h-9q-85 0 -149 -66q-35 -37 -65 -37t-59.5 26t-29.5 56q0 55 91 120.5t300 65.5h791q65 0 65 -65q0 -100 -94 -100h-172
l-94 -555q-10 -59 -10 -91q0 -90 71 -90q29 1 67 17t58 16t39 -23.5t19 -54.5q0 -49 -64 -83.5t-155 -34.5z" />
    <glyph glyph-name="rho" unicode="&#x3c1;" horiz-adv-x="1145" 
d="M649 899q-152 0 -237.5 -137t-85.5 -348q0 -122 59.5 -195.5t167.5 -73.5q151 0 237.5 137t86.5 334q0 135 -60 209t-168 74zM8 -369q0 16 76 493.5t93 539.5q115 401 485 401q187 0 297 -121t110 -319q0 -279 -140.5 -462t-379.5 -183q-89 0 -165 45t-108 125l-79 -500
q-14 -82 -101 -82q-88 0 -88 63z" />
    <glyph glyph-name="sigma1" unicode="&#x3c2;" horiz-adv-x="905" 
d="M776 -41q0 -156 -158.5 -274.5t-248.5 -118.5q-31 0 -51.5 31t-20.5 61t17 43.5t55 30.5q134 63 176.5 112t42.5 101t-41.5 75t-116.5 41q-350 84 -350 418q0 246 148 416t368 170q105 0 205 -38t100 -89q0 -41 -25.5 -71.5t-55.5 -30.5t-88 32t-148 31
q-129 0 -222.5 -116.5t-93.5 -286.5q0 -114 57 -179t197 -103t197 -100.5t57 -154.5z" />
    <glyph glyph-name="sigma" unicode="&#x3c3;" horiz-adv-x="1112" 
d="M819 598q0 283 -221 283q-147 0 -239.5 -125t-92.5 -314q0 -297 230 -297q151 0 237 132.5t86 320.5zM1008 580q0 -255 -144.5 -427.5t-390.5 -172.5q-190 0 -293.5 116t-103.5 316q0 280 154.5 456t418.5 176h432q78 0 78 -63q0 -102 -88 -102h-186q123 -105 123 -299z
" />
    <glyph glyph-name="tau" unicode="&#x3c4;" horiz-adv-x="893" 
d="M469 229q0 -84 68 -84q41 -1 69 11t51 12t41.5 -27t18.5 -59q0 -54 -65.5 -78t-161.5 -24t-152.5 58t-56.5 159q0 49 16 161l84 521h-27q-94 0 -164 -56q-36 -30 -64 -30t-54.5 29t-26.5 59q0 66 117 112q87 51 293 51h374q80 0 80 -63q0 -102 -88 -102h-254l-86 -551
q-12 -77 -12 -99z" />
    <glyph glyph-name="upsilon" unicode="&#x3c5;" horiz-adv-x="1090" 
d="M301 324q0 -172 172 -172q157 0 249.5 137.5t92.5 367.5q0 131 -37 213t-37 111.5t33 53.5t72 24q61 0 109.5 -117.5t48.5 -288.5q0 -304 -147 -488.5t-404 -184.5q-162 0 -253 85.5t-91 227.5q0 52 10 102l92 578q12 84 100 84t88 -64q0 -11 -4 -45q-94 -564 -94 -624z
" />
    <glyph glyph-name="phi" unicode="&#x3c6;" horiz-adv-x="1438" 
d="M1169 582q0 122 -76 199t-225 89l-112 -700q205 11 309 118.5t104 293.5zM270 463q0 -263 299 -291l113 700q-203 -9 -307.5 -116t-104.5 -293zM485 -371q0 13 4 47l52 326q-217 17 -338 141t-121 314q0 258 164.5 418t462.5 167l65 412q12 82 100 82t89 -61
q0 -22 -7 -52l-61 -383q218 -15 340.5 -139.5t122.5 -312.5q0 -260 -165 -420.5t-464 -167.5l-55 -352q-14 -82 -102 -82t-87 63z" />
    <glyph glyph-name="chi" unicode="&#x3c7;" horiz-adv-x="872" 
d="M897 993q0 -149 -412 -671l99 -405q23 -95 54.5 -140.5t81.5 -72.5q50 -26 50 -64t-22.5 -67.5t-57.5 -29.5q-66 0 -138.5 63t-100.5 153t-95 369l-14 56l-141 -188q-141 -188 -207 -393q-19 -60 -74 -60q-34 0 -68 20t-34 52q0 81 84.5 233.5t165.5 251.5l225 297
q-94 376 -126.5 433.5t-76.5 89.5t-45 64q0 33 26.5 63t68.5 30t101 -52t95 -139.5t98 -353.5q225 319 287 467q26 68 82 68q38 0 66 -21.5t28 -52.5z" />
    <glyph glyph-name="psi" unicode="&#x3c8;" horiz-adv-x="1458" 
d="M127 403q0 55 10 107l74 465q12 82 99 82t87 -62q0 -13 -4 -47l-71 -450q-7 -44 -7 -88q0 -228 265 -248l206 1292q12 82 100 82t89 -61q0 -13 -6 -48l-203 -1267q154 6 246 88.5t112 222.5l80 502q12 84 102 84t89 -64q0 -13 -6 -47l-78 -485q-74 -455 -572 -463
l-53 -350q-12 -82 -100 -82t-88 61q0 43 55 373q-426 34 -426 403z" />
    <glyph glyph-name="omega" unicode="&#x3c9;" horiz-adv-x="1624" 
d="M254 416q0 -271 192 -271q99 0 173 99.5t98 255.5l33 217q12 82 100 82t88 -64q0 -17 -6 -49l-27 -178q-10 -66 -10 -111q0 -117 50 -184.5t128 -67.5q129 0 208 115t79 288t-41.5 235.5t-106.5 134.5q-18 20 -18 49t30.5 61.5t61.5 32.5q78 0 170 -144t92 -344
q0 -258 -128 -425.5t-359 -167.5q-108 0 -186.5 63.5t-100.5 169.5q-50 -110 -146 -171.5t-214 -61.5q-164 0 -257.5 110.5t-93.5 310.5q0 280 155.5 470t242.5 190q35 0 64.5 -29.5t29.5 -62.5t-57 -78q-244 -178 -244 -475z" />
    <glyph glyph-name="iotadieresis" unicode="&#x3ca;" horiz-adv-x="580" 
d="M532 82q0 -102 -226 -102q-94 0 -152 58t-58 140t17 180l98 617q12 82 101 82t89 -62q0 -6 -2 -20t-4 -31l-100 -616q-10 -62 -10 -99q0 -84 67 -84q38 -1 68 11t53 12t41 -28t18 -58zM161 1233q-47 0 -79 32q-32 33 -32 79t33 78t79 32t77 -32q32 -32 32 -79
q0 -46 -32 -78t-78 -32zM542 1233q-46 0 -78 32q-32 33 -33 79q0 46 33 78q32 32 78 32t78 -32t32 -79q0 -46 -32 -78t-78 -32z" />
    <glyph glyph-name="upsilondieresis" unicode="&#x3cb;" horiz-adv-x="1090" 
d="M301 324q0 -172 172 -172q157 0 249 138t93 367q0 131 -37 213t-37 111q0 30 33 54t72 24q62 1 110 -117t48 -289q0 -305 -147 -489t-404 -184q-162 0 -253 86t-91 227q0 52 10 102l92 578q12 84 100 84t88 -64q0 -11 -4 -45q-94 -564 -94 -624zM434 1233q-46 0 -78 32
q-32 33 -33 79q0 46 33 78q32 32 78 32t78 -32t32 -79q0 -46 -32 -78t-78 -32zM815 1233q-47 0 -79 32q-32 33 -32 79t33 78t79 32t77 -32q32 -32 32 -79q0 -46 -32 -78t-78 -32z" />
    <glyph glyph-name="omicrontonos" unicode="&#x3cc;" horiz-adv-x="1104" 
d="M598 893q-150 1 -240 -133t-90 -328q0 -132 63 -206t175 -74q154 0 242 134t88 328q0 132 -62 206t-176 73zM487 -20q-195 0 -302 123t-107 323q0 271 144 455t394 184q190 1 300 -117t110 -323q0 -273 -143 -459t-396 -186zM748 1606q36 0 66 -22t30 -48q0 -27 -23 -68
l-124 -215q-29 -51 -65 -51t-64 23q-29 23 -29 47t16 53l123 221q33 60 70 60z" />
    <glyph glyph-name="upsilontonos" unicode="&#x3cd;" horiz-adv-x="1090" 
d="M301 324q0 -172 172 -172q157 0 249 138t93 367q0 131 -37 213t-37 111q0 30 33 54t72 24q62 1 110 -117t48 -289q0 -305 -147 -489t-404 -184q-162 0 -253 86t-91 227q0 52 10 102l92 578q12 84 100 84t88 -64q0 -11 -4 -45q-94 -564 -94 -624zM738 1606q36 0 66 -22
t30 -48q0 -27 -23 -68l-124 -215q-29 -51 -65 -51t-64 23q-29 23 -29 47t16 53l123 221q33 60 70 60z" />
    <glyph glyph-name="omegatonos" unicode="&#x3ce;" horiz-adv-x="1624" 
d="M254 416q0 -271 192 -271q99 -1 173 99t98 256l33 217q12 82 100 82t88 -64q0 -17 -6 -49l-27 -178q-10 -66 -10 -111q0 -117 50 -185t128 -67q129 0 208 115t79 288t-61 265q-22 33 -87 105q-18 20 -18 49t30 61t62 33q78 0 170 -144t92 -344q0 -257 -128 -425
t-359 -168q-109 0 -187 64t-100 169q-50 -109 -146 -171t-214 -62q-164 0 -258 110t-93 311q-1 280 155 470t243 190q35 1 65 -29t29 -63q0 -33 -57 -78q-244 -178 -244 -475zM1028 1606q36 0 66 -22t30 -48q0 -27 -23 -68l-124 -215q-29 -51 -65 -51t-64 23q-29 23 -29 47
t16 53l123 221q33 60 70 60z" />
    <glyph glyph-name="afii10023" unicode="&#x401;" horiz-adv-x="1067" 
d="M248 0q-146 0 -146 123q0 13 11 70l159 1024q26 176 207 176h529q86 0 86 -64q0 -117 -111 -117h-483q-37 0 -41 -38l-58 -359h451q84 0 84 -65q0 -115 -111 -115h-452l-60 -383q-6 -38 -6 -49q0 -23 23 -23h485q84 0 84 -63q0 -117 -111 -117h-540zM527 1538
q-47 0 -79 32t-32 78t33 79q33 32 79 32q46 -1 77 -33q32 -32 32 -78t-32 -78t-78 -32zM908 1538q-46 0 -78 32t-33 78q0 46 33 79q32 32 78 32q46 -1 78 -33t32 -78t-32 -78t-78 -32z" />
    <glyph glyph-name="afii10051" unicode="&#x402;" horiz-adv-x="1358" 
d="M895 870q346 0 346 -288q0 -38 -18 -156l-64 -401q-74 -457 -420 -457q-108 0 -171.5 25t-63.5 67t22.5 73t46.5 31t73 -9t99 -9q99 0 152 75.5t78 233.5l57 371q12 78 12 106q0 101 -45.5 131.5t-134.5 30.5h-276l-96 -622q-14 -84 -104 -84t-89 61q0 20 8 62l172 1103
h-248q-86 0 -86 66q0 113 113 113h782q86 0 86 -66q0 -113 -110 -113h-346l-54 -344h279z" />
    <glyph glyph-name="afii10052" unicode="&#x403;" horiz-adv-x="987" 
d="M944 1212h-440q-33 0 -45 -47l-172 -1091q-13 -86 -103 -86t-90 59q0 9 10 61t141 900l37 230q10 64 54 110t125 45h510q86 0 86 -66q0 -115 -113 -115zM652 1538q-30 0 -54 26t-23 58q0 34 51 74l187 147q50 39 83 39q34 0 58 -25t24 -62t-51 -77l-200 -147
q-45 -33 -75 -33z" />
    <glyph glyph-name="afii10053" unicode="&#x404;" horiz-adv-x="1206" 
d="M303 569q0 -411 336 -411q127 0 272 88q43 26 75 26t57.5 -30t25.5 -68q0 -64 -146 -129t-298 -65q-251 0 -382.5 154.5t-131.5 440.5q0 370 190.5 604t484.5 234q179 0 300.5 -61t121.5 -119q0 -37 -27.5 -75t-57.5 -38t-81 35q-123 82 -256 82q-368 0 -464 -455h534
q86 0 86 -65q0 -113 -111 -113h-528v-35z" />
    <glyph glyph-name="afii10054" unicode="&#x405;" horiz-adv-x="1042" 
d="M477 -20q-167 0 -305 59t-139 125q0 40 27 74t54 34t79 -30q137 -88 281 -88t215 62t71 154t-48 147t-216 117q-170 62 -247 152t-77 218q0 181 124 295t339 114q163 0 291 -58t127 -122q1 -33 -29 -68t-58 -35t-85 35q-119 72 -245 72q-126 -1 -194 -59t-67 -146
t47 -137t174 -96q200 -69 279 -163t79 -235q0 -185 -126 -303t-351 -118z" />
    <glyph glyph-name="afii10055" unicode="&#x406;" horiz-adv-x="537" 
d="M94 51q0 21 8 58l193 1212q12 84 102 84t90 -64l-200 -1267q-13 -86 -103 -86t-90 63z" />
    <glyph glyph-name="afii10056" unicode="&#x407;" horiz-adv-x="537" 
d="M94 51q0 21 8 58l193 1212q12 84 102 84t90 -64l-200 -1267q-13 -86 -103 -86t-90 63zM237 1538q-47 0 -79 32t-32 78t33 79q33 32 79 32q46 -1 77 -33q32 -32 32 -78t-32 -78t-78 -32zM618 1538q-46 0 -78 32t-33 78q0 46 33 79q32 32 78 32q46 -1 78 -33t32 -78
t-32 -78t-78 -32z" />
    <glyph glyph-name="afii10057" unicode="&#x408;" horiz-adv-x="934" 
d="M330 -20q-120 0 -224 55t-104 115q0 36 27 66t57 30t68 -25q95 -65 191 -65q97 0 153 62t88 265l133 840q7 46 29 64t69 18q94 0 94 -66q0 -21 -10 -75l-127 -791q-46 -285 -156 -389t-288 -104z" />
    <glyph glyph-name="afii10058" unicode="&#x409;" horiz-adv-x="1827" 
d="M1556 453q0 190 -237 190h-238l-61 -387q-6 -38 -6 -49q0 -29 28 -29h215q141 0 220 73t79 202zM958 0q-145 0 -145 129q0 32 8 82l152 942q4 25 4 35q0 26 -27 26h-319q-28 0 -37 -36q-35 -148 -123 -423.5t-188.5 -496t-132 -248.5t-67.5 -28t-71 20t-35.5 53t63.5 139
t177.5 411.5t196.5 637.5q42 150 176 150h444q144 0 144 -123q0 -17 -9 -80l-59 -371h205q208 0 322 -95.5t114 -279.5t-135.5 -314t-372.5 -130h-285z" />
    <glyph glyph-name="afii10059" unicode="&#x40a;" horiz-adv-x="1843" 
d="M1573 453q0 190 -238 190h-237l-62 -387q-6 -37 -6 -49q0 -29 29 -29h217q141 0 219 73.5t78 201.5zM94 49q0 20 8 62l193 1210q12 84 101 84t89 -62q0 -19 -8 -61l-74 -463h533l80 502q12 84 102 84t90 -62q0 -19 -8 -61l-74 -463h205q208 0 322 -94.5t114 -280.5
t-135.5 -315t-371.5 -129h-283q-148 0 -148 129q0 33 11 82l67 432h-532l-90 -571q-15 -84 -103 -84t-88 61z" />
    <glyph glyph-name="afii10060" unicode="&#x40b;" horiz-adv-x="1358" 
d="M895 870q346 0 346 -288q0 -38 -18 -156l-58 -354q-14 -84 -102 -84t-88 61q0 20 8 62l49 315q12 77 12 106q0 101 -45.5 131.5t-134.5 30.5h-276l-96 -622q-14 -84 -104 -84t-89 61q0 20 8 62l172 1103h-248q-86 0 -86 66q0 113 113 113h782q86 0 86 -66
q0 -113 -110 -113h-346l-54 -344h279z" />
    <glyph glyph-name="afii10061" unicode="&#x40c;" horiz-adv-x="1083" 
d="M485 1343q0 -19 -8 -61l-74 -465q303 218 545 541q40 49 77 49q37 -1 67 -29t30 -60q0 -71 -225 -292q-225 -220 -344 -295q135 -120 293 -365q158 -246 158 -290t-35 -67t-79 -23t-75 59q-230 415 -436 612l-94 -585q-15 -84 -103 -84t-88 61q0 20 8 62l193 1210
q12 84 101 84t89 -62zM691 1536q-29 0 -53 26t-24 58q0 34 51 74l187 147q50 39 83 39t57 -25t25 -62q0 -37 -51 -77l-200 -147q-45 -33 -75 -33z" />
    <glyph glyph-name="afii10062" unicode="&#x40e;" horiz-adv-x="1180" 
d="M262 1317q0 57 24 77t70 19q88 0 88 -80q0 -166 56 -416t135 -432q319 465 456 854q15 48 33 61t54 13q34 0 67 -19q33 -18 33 -62t-102 -266t-296 -520t-345 -432t-310 -134q-85 0 -152 30t-67 71t22 71t43 30t67 -15t97 -15q128 0 281 184q-116 236 -185 520t-69 461z
M799 1540q-113 0 -199 68t-86 143q0 29 24 51t59 23q35 0 71 -62q52 -74 132 -74t139 93q28 43 62 43q33 0 57 -23t24 -51q0 -75 -86 -143t-197 -68z" />
    <glyph glyph-name="afii10145" unicode="&#x40f;" horiz-adv-x="1354" 
d="M492 -24q0 24 -23 24h-219q-141 0 -141 125q0 32 8 86l178 1108q14 86 102 86t88 -66l-8 -71l-162 -1012q-6 -37 -6 -51q0 -25 23 -25h567q32 0 39 37l174 1102q14 86 104 86t89 -64q0 -16 -11 -73l-174 -1102q-26 -166 -200 -166h-203q-31 0 -37 -37l-25 -153
q-14 -82 -102 -82t-88 61q0 23 6 59l16 89q5 15 5 39z" />
    <glyph glyph-name="afii10017" unicode="&#x410;" horiz-adv-x="1198" 
d="M836 569q-52 350 -123 598q-153 -247 -324 -598h447zM82 -14q-46 0 -80 20t-33 61t159 376t330 625t202 313q30 24 79 24h4q51 -1 79 -31t102 -302t120 -590q46 -316 46 -406t-119 -90q-66 0 -70 71q-11 139 -37 336h-555q-47 -99 -99 -223t-68 -154q-14 -30 -60 -30z
" />
    <glyph glyph-name="afii10018" unicode="&#x411;" horiz-adv-x="1122" 
d="M852 453q0 190 -238 190h-237l-62 -387q-6 -37 -6 -49q0 -29 29 -29h217q141 0 219 73.5t78 201.5zM610 819q209 0 323 -94.5t114 -279.5t-135.5 -315t-372.5 -130h-283q-147 0 -147 129q0 30 10 82l162 1012q26 170 192 170h447q86 0 86 -66q0 -113 -111 -113h-389
q-37 0 -43 -43l-57 -352h204z" />
    <glyph glyph-name="afii10019" unicode="&#x412;" horiz-adv-x="1196" 
d="M864 436q0 203 -250 203h-239l-66 -406q-4 -25 -4 -32q0 -23 31 -23h229q145 0 222 66t77 192zM905 1038q0 174 -211 174h-186q-43 0 -49 -45l-56 -350h244q120 0 189 59t69 162zM1057 428q0 -184 -133 -306t-367 -122h-315q-138 0 -138 123q0 17 4 40t9 60l157 991
q28 179 205 179h248q179 0 277 -84q98 -85 98 -223t-70 -230t-194 -125q219 -64 219 -303z" />
    <glyph glyph-name="afii10020" unicode="&#x413;" horiz-adv-x="987" 
d="M944 1212h-440q-33 0 -45 -47l-172 -1091q-13 -86 -103 -86t-90 59q0 9 10 61t141 900l37 230q10 64 54 110t125 45h510q86 0 86 -66q0 -115 -113 -115z" />
    <glyph glyph-name="afii10021" unicode="&#x414;" horiz-adv-x="1352" 
d="M1055 1188q0 26 -27 26h-317q-30 0 -39 -36q-76 -288 -182.5 -589t-172.5 -411h541q37 0 43 43l150 932q4 25 4 35zM997 0h-870q-35 0 -41 -41l-25 -156q-14 -84 -103 -84t-89 64q0 20 8 63l31 199q11 68 55.5 101.5t145.5 33.5q207 368 383 1063q42 150 176 150h444
q143 0 143 -123q0 -24 -8 -80l-160 -1012q142 0 142 -108q0 -34 -10 -82l-29 -185q-14 -84 -104 -84t-89 64l29 192q0 25 -29 25z" />
    <glyph glyph-name="afii10022" unicode="&#x415;" horiz-adv-x="1067" 
d="M248 0q-146 0 -146 123q0 13 11 70l159 1024q26 176 207 176h529q86 0 86 -64q0 -117 -111 -117h-483q-37 0 -41 -38l-58 -359h451q84 0 84 -65q0 -115 -111 -115h-452l-60 -383q-6 -38 -6 -49q0 -23 23 -23h485q84 0 84 -63q0 -117 -111 -117h-540z" />
    <glyph glyph-name="afii10024" unicode="&#x416;" horiz-adv-x="1593" 
d="M1511 65q0 -32 -35.5 -55.5t-77.5 -23.5t-75 59q-134 247 -224 379t-196 233l-94 -585q-15 -84 -103 -84t-88 61q0 10 9 62l86 542q-257 -184 -559 -604q-46 -63 -86 -63t-73.5 26t-33.5 56q0 62 228 325q229 261 378 352q-129 123 -257 323t-128 257q0 34 35 58t75 24
t62 -49q175 -337 383 -541l82 504q15 84 103 84t88 -62q0 -14 -9 -61l-73 -465q262 186 530 541q38 49 74 49t69 -25.5t33 -57.5q0 -66 -218 -290t-341 -299q116 -102 276 -356t160 -314z" />
    <glyph glyph-name="afii10025" unicode="&#x417;" horiz-adv-x="1026" 
d="M940 420q0 -197 -148 -318.5t-405 -121.5q-138 0 -265.5 47.5t-127.5 103.5q0 38 24 69t54 31t80 -24q122 -55 268 -55t238 73t92 189t-80 166.5t-267 50.5q-94 0 -94 71q0 97 103 103q170 5 270 73.5t100 192.5q0 80 -61.5 125t-168.5 45t-224 -55q-62 -25 -92 -25
t-52 31t-22 65q0 60 128 108t294 48t277.5 -89.5t111.5 -223.5t-82 -233t-223 -136q272 -64 272 -311z" />
    <glyph glyph-name="afii10026" unicode="&#x418;" horiz-adv-x="1384" 
d="M203 -12q-105 0 -105 92q0 15 4 37l193 1204q14 86 98 86t84 -64q0 -14 -8 -59l-158 -999l768 1046q54 74 138 74q112 0 112 -94q0 -13 -6 -49l-188 -1188q-13 -86 -99 -86t-86 65q0 30 8 70l162 995l-780 -1050q-59 -80 -137 -80z" />
    <glyph glyph-name="afii10027" unicode="&#x419;" horiz-adv-x="1384" 
d="M203 -12q-105 0 -105 92q0 15 4 37l193 1204q14 86 98 86t84 -64q0 -14 -8 -59l-158 -999l768 1046q54 74 138 74q112 0 112 -94q0 -13 -6 -49l-188 -1188q-13 -86 -99 -86t-86 65q0 30 8 70l162 995l-780 -1050q-59 -80 -137 -80zM850 1491q-112 0 -198 68t-87 143
q0 30 24 52t59 22t71 -62q51 -74 131 -74t140 93q28 43 62 43t58 -23t23 -51q1 -76 -85 -144t-198 -67z" />
    <glyph glyph-name="afii10028" unicode="&#x41a;" horiz-adv-x="1083" 
d="M485 1343q0 -19 -8 -61l-74 -465q303 218 545 541q40 49 77 49t67 -28.5t30 -60.5q0 -71 -225 -292q-225 -220 -344 -295q134 -120 292.5 -365.5t158.5 -289.5t-35 -67t-79 -23t-75 59q-230 415 -436 612l-94 -585q-15 -84 -103 -84t-88 61q0 20 8 62l193 1210
q12 84 101 84t89 -62z" />
    <glyph glyph-name="afii10029" unicode="&#x41b;" horiz-adv-x="1247" 
d="M803 49q0 20 8 62l166 1042q4 25 4 35q0 26 -27 26h-317q-30 0 -39 -36q-35 -148 -123 -423.5t-188.5 -496t-131.5 -248.5t-67 -28t-71 20t-35 54t64 141t176.5 407t195.5 639q42 150 176 150h444q144 0 144 -123q0 -24 -8 -80l-179 -1118q-14 -84 -103 -84t-89 61z" />
    <glyph glyph-name="afii10030" unicode="&#x41c;" horiz-adv-x="1587" 
d="M1159 47q0 12 10 70l158 997l-434 -610q-47 -66 -118 -66t-97 64l-238 606l-164 -1036q-14 -84 -98 -84t-84 59q0 16 8 59l187 1170q20 129 137 129q76 0 106 -74l269 -698l491 698q52 74 133 74q111 0 111 -94q0 -28 -8 -74l-187 -1165q-14 -84 -98 -84t-84 59z" />
    <glyph glyph-name="afii10031" unicode="&#x41d;" horiz-adv-x="1356" 
d="M913 53q0 19 7 58l84 514h-629l-88 -551q-13 -86 -103 -86t-90 63q0 18 8 60l193 1210q12 84 102 84t90 -64v-6q0 -12 -8 -65l-76 -467h627l82 518q12 84 102 84t91 -64q0 -25 -9 -69l-190 -1198q-14 -86 -104 -86t-89 65z" />
    <glyph glyph-name="afii10032" unicode="&#x41e;" horiz-adv-x="1362" 
d="M782 1243q-219 -1 -351 -199t-132 -489q1 -189 87 -297t249 -108q221 0 347 200t126 494q0 186 -84 292t-242 107zM612 -20q-232 0 -368 153t-135 416q0 366 186 615t506 249q233 0 365 -148t132 -409q0 -368 -183 -622t-503 -254z" />
    <glyph glyph-name="afii10033" unicode="&#x41f;" horiz-adv-x="1356" 
d="M913 53q0 10 9 60l163 1042q5 32 5 33q0 26 -23 26h-567q-30 0 -37 -36l-176 -1104q-13 -86 -103 -86t-90 63q0 18 8 60l177 1112q26 170 198 170h672q141 0 141 -123q0 -33 -8 -80l-176 -1116q-14 -86 -104 -86t-89 65z" />
    <glyph glyph-name="afii10034" unicode="&#x420;" horiz-adv-x="1108" 
d="M928 997q0 215 -234 215h-192q-34 0 -41 -38l-76 -478h236q149 0 228 80t79 221zM96 47q0 26 8 68l175 1102q28 176 200 176h246q191 0 294 -101q103 -102 103 -302t-132 -336t-380 -136h-252l-69 -448q-13 -84 -103 -84t-90 61z" />
    <glyph glyph-name="afii10035" unicode="&#x421;" horiz-adv-x="1206" 
d="M1208 1184q0 -28 -28 -60t-60 -32t-78 38q-113 107 -260 107q-227 1 -353 -191t-126 -473q-1 -199 87 -307t236 -108t294 100q40 29 70 29t54 -31q25 -31 25 -63q0 -63 -143 -138t-303 -75q-246 0 -379 158t-133 425q0 367 184 609t500 241q159 0 286 -78t127 -151z" />
    <glyph glyph-name="afii10036" unicode="&#x422;" horiz-adv-x="1014" 
d="M324 61q0 19 14 101l168 1050h-291q-84 0 -84 64q0 117 96 117h793q90 0 90 -62q0 -119 -102 -119h-299l-183 -1128q-16 -96 -109 -96t-93 73z" />
    <glyph glyph-name="afii10037" unicode="&#x423;" horiz-adv-x="1171" 
d="M254 1317q0 57 24 76.5t70 19.5q88 0 88 -80q0 -166 55.5 -416t135.5 -432q319 465 456 854q15 48 34 61t53 13t67 -18.5t33 -62.5t-102.5 -266.5t-296 -519.5t-344.5 -431.5t-310 -134.5q-85 0 -152 29.5t-67 71.5t22 71.5t43 29.5t67 -15t97 -15q128 0 281 184
q-116 236 -185 519.5t-69 461.5z" />
    <glyph glyph-name="afii10038" unicode="&#x424;" horiz-adv-x="1362" 
d="M1122 734q0 150 -68 224q-68 72 -202 82l-109 -692q181 14 280 125t99 261zM285 657q-1 -150 67 -223t203 -86l109 694q-179 -14 -279 -124t-100 -261zM506 29q0 19 8 61l14 94q-202 21 -317 141t-115 304q0 243 160 401t434 176l21 135q12 84 102 84t90 -61
q0 -19 -8 -61l-16 -99q205 -19 319 -138t113 -304q-1 -247 -163 -405t-431 -173l-21 -133q-14 -84 -102 -84t-88 62z" />
    <glyph glyph-name="afii10039" unicode="&#x425;" horiz-adv-x="1116" 
d="M961 147q0 -77 -22 -118t-82 -41q-59 0 -77 20t-18 64q0 131 -36 250t-161 272q-316 -246 -387 -518q-16 -56 -38 -72t-66 -16q-82 0 -82 73q0 121 102 291t352 361q-219 282 -219 565q0 127 113 127q84 0 84 -76q0 -91 4 -145t44 -151q39 -97 126 -216q160 130 242 245
t118 263q13 52 37 66t64 14q92 0 92 -78q-1 -101 -103 -276t-335 -353q248 -288 248 -551z" />
    <glyph glyph-name="afii10040" unicode="&#x426;" horiz-adv-x="1374" 
d="M1241 70q1 -10 -3 -34t-7 -48l-31 -185q-14 -84 -102 -84t-88 64q0 31 6 63l20 114q4 40 -26 40h-764q-144 0 -144 123q0 17 9 80l178 1118q12 84 101 84t89 -62q0 -8 -6 -61l-166 -1042q-4 -25 -4 -35q0 -27 27 -27h559q32 0 43 43l176 1100q12 84 101 84t89 -62
q0 -19 -8 -61l-174 -1104q125 0 125 -108z" />
    <glyph glyph-name="afii10041" unicode="&#x427;" horiz-adv-x="1176" 
d="M346 782q0 -157 197 -157q137 0 293 69l100 627q12 84 101 84t89 -62q0 -19 -8 -61l-192 -1210q-14 -84 -102 -84t-89 61q0 20 8 62l62 399q-167 -61 -319 -61t-243 80.5t-91 230.5q0 42 14 135l65 426q11 84 101 84t90 -62q0 -19 -8 -61l-52 -344q-16 -106 -16 -156z
" />
    <glyph glyph-name="afii10042" unicode="&#x428;" horiz-adv-x="1888" 
d="M1159 1343q0 -8 -6 -61l-176 -1104h453q34 0 43 43l176 1100q12 84 101 84t89 -62q0 -19 -8 -61l-174 -1112q-28 -170 -195 -170h-1216q-144 0 -144 123q0 17 9 80l178 1118q12 84 101 84t89 -62q0 -8 -6 -61l-166 -1042q-4 -25 -4 -35q0 -27 27 -27h456l183 1143
q12 84 101 84t89 -62z" />
    <glyph glyph-name="afii10043" unicode="&#x429;" horiz-adv-x="1915" 
d="M1782 70q0 -34 -10 -82l-31 -185q-15 -84 -103 -84t-88 64q0 14 9 63l14 95q4 27 4 34q0 25 -27 25h-1304q-144 0 -144 123q0 17 9 80l178 1118q12 84 101 84t89 -62q0 -8 -6 -61l-166 -1042q-4 -25 -4 -35q0 -27 27 -27h456l183 1143q12 84 101 84t89 -62q0 -8 -6 -61
l-176 -1104h453q34 0 43 43l176 1100q12 84 101 84t89 -62q0 -19 -8 -61l-174 -1104q125 0 125 -108z" />
    <glyph glyph-name="afii10044" unicode="&#x42a;" horiz-adv-x="1366" 
d="M1090 453q0 190 -238 190h-238l-61 -387q-6 -38 -6 -49q0 -29 28 -29h216q141 0 220 74t79 201zM848 819q208 0 322 -95.5t114 -279.5t-135.5 -314t-372.5 -130h-284q-146 0 -146 129q0 32 8 82l152 942q4 25 4 35q0 24 -27 24h-274q-86 0 -86 66q0 115 110 115h334
q144 0 144 -123q0 -17 -9 -80l-59 -371h205z" />
    <glyph glyph-name="afii10045" unicode="&#x42b;" horiz-adv-x="1602" 
d="M807 453q0 190 -238 190h-192l-62 -387q-6 -37 -6 -49q0 -29 29 -29h172q141 0 219 73.5t78 201.5zM565 819q208 0 322 -94.5t114 -280.5t-135.5 -315t-371.5 -129h-238q-147 0 -147 129q0 30 10 82l178 1110q12 84 101 84t89 -62q0 -19 -8 -61l-73 -463h159zM1159 49
q0 20 8 62l193 1210q12 84 101 84t89 -62q0 -19 -8 -61l-192 -1210q-14 -84 -102 -84t-89 61z" />
    <glyph glyph-name="afii10046" unicode="&#x42c;" horiz-adv-x="1130" 
d="M852 453q0 190 -238 190h-237l-62 -387q-6 -37 -6 -49q0 -29 29 -29h217q141 0 219 73.5t78 201.5zM610 819q209 0 323 -94.5t114 -279.5t-135.5 -315t-372.5 -130h-283q-147 0 -147 129q0 30 10 82l178 1110q12 84 101 84t89 -62q0 -19 -8 -61l-73 -463h204z" />
    <glyph glyph-name="afii10047" unicode="&#x42d;" horiz-adv-x="1206" 
d="M395 614q-84 0 -84 66q0 113 109 113h532v36q0 185 -83 295.5t-255 110.5q-138 0 -278 -98q-38 -27 -68 -27t-57 27.5t-27 64.5q0 61 148 136t301 75q245 0 378.5 -152.5t133.5 -431.5q0 -380 -187.5 -614.5t-494.5 -234.5q-176 0 -297 82.5t-121 144.5q0 32 29.5 63
t62.5 31t74 -39q117 -106 283 -106t279 114.5t159 343.5h-537z" />
    <glyph glyph-name="afii10048" unicode="&#x42e;" horiz-adv-x="1810" 
d="M1280 1243q-197 0 -312.5 -197t-115.5 -491q0 -189 73.5 -297t213.5 -108q193 0 305 198.5t112 495.5q0 188 -71 293.5t-205 105.5zM94 53q0 6 4 26q3 20 6 48l191 1196q8 53 34.5 67.5t67.5 14.5q90 0 90 -64q0 -8 -8 -67l-76 -471h281q60 292 220 451t382 159
t342.5 -148t120.5 -409q0 -368 -168.5 -622t-464.5 -254q-173 0 -286.5 103.5t-142 235t-25.5 306.5h-287l-88 -551q-13 -86 -103 -86t-90 65z" />
    <glyph glyph-name="afii10049" unicode="&#x42f;" horiz-adv-x="1174" 
d="M383 977q0 -207 250 -207h211l61 383q4 25 4 35q0 26 -26 26h-203q-144 0 -220.5 -63t-76.5 -174zM731 592q-140 0 -257 -125.5t-277 -421.5q-33 -59 -81 -59t-78 22t-30 53q0 57 154 295.5t305 298.5q-129 19 -201.5 105t-72.5 219q0 187 136.5 300.5t372.5 113.5h267
q141 0 141 -123q0 -33 -8 -80l-178 -1118q-14 -84 -102 -84t-89 61q0 10 6 62l78 481h-86z" />
    <glyph glyph-name="afii10065" unicode="&#x430;" horiz-adv-x="1133" 
d="M811 696q-1 86 -57 142t-152 55q-156 0 -246 -142t-90 -337q0 -130 60 -197t168 -67q110 0 186 82t96 210l29 174q6 36 6 80zM430 -20q-160 0 -256 114t-96 314q0 282 142 470t356 187q214 0 280 -152l10 62q12 82 98 82t85 -60q0 -2 -9 -71l-135 -852q-9 -58 -35 -72
t-67 -14q-80 0 -80 59q0 11 6 53l10 62q-102 -182 -309 -182z" />
    <glyph glyph-name="afii10066" unicode="&#x431;" horiz-adv-x="1100" 
d="M600 844q-148 0 -243 -113.5t-95 -296.5q0 -136 63.5 -212.5t176.5 -76.5q153 0 240 130t87 309q0 118 -60.5 189t-168.5 71zM636 1008q178 0 280 -110t102 -302q0 -265 -144 -440.5t-389 -175.5q-193 0 -299 119.5t-106 351.5t71.5 449.5t162 324.5t192.5 148.5
t248 65.5t206 44t90 20t50 -28t20 -68q0 -89 -262 -127q-177 -26 -263.5 -59t-155 -116.5t-120.5 -250.5q139 154 317 154z" />
    <glyph glyph-name="afii10067" unicode="&#x432;" horiz-adv-x="1051" 
d="M262 397q0 -247 240 -247q103 0 163 44t60 121t-64.5 113.5t-242.5 36.5q-76 0 -152 -4q-4 -40 -4 -64zM416 614q375 0 375 170q0 50 -43.5 83.5t-114.5 33.5q-256 0 -338 -283q58 -4 121 -4zM913 311q0 -148 -119.5 -239.5t-307.5 -91.5t-298 112t-110 297
q0 294 153 485t406 191q157 0 249.5 -72t92.5 -182t-70.5 -182t-199.5 -90q99 -20 151.5 -81.5t52.5 -146.5z" />
    <glyph glyph-name="afii10068" unicode="&#x433;" horiz-adv-x="932" 
d="M541 899q-110 0 -183 -41q-74 -41 -102 -41t-49 28.5t-21 63.5q0 60 121 108t265 48t232.5 -75t88.5 -201t-84.5 -213t-312.5 -140q-163 -39 -215 -72t-52 -102q0 -117 174 -117q121 0 242 64q51 24 76 24t46 -28.5t21 -59.5q0 -62 -128.5 -113.5t-284.5 -51.5t-244 70.5
t-88 190.5t71.5 208.5t354.5 152.5q238 56 238 176.5t-166 120.5z" />
    <glyph glyph-name="afii10069" unicode="&#x434;" horiz-adv-x="1096" 
d="M268 424q0 -124 62.5 -201.5t175.5 -77.5q145 0 231 129.5t86 298.5q0 122 -66.5 193.5t-194.5 71.5t-211 -118t-83 -296zM555 1001q211 0 299 -157q-3 234 -102.5 342t-364.5 108q-82 0 -82 70q0 98 107 98q336 0 479 -157.5t143 -487.5q0 -391 -139 -614t-403 -223
q-192 0 -301 123.5t-109 318.5q0 241 131 410t342 169z" />
    <glyph glyph-name="afii10070" unicode="&#x435;" horiz-adv-x="1001" 
d="M420 571q338 0 338 193q0 60 -41 98t-113 37q-116 -1 -203 -87t-120 -241h139zM266 418v-39q0 -107 59 -167t165 -60t222 72q26 16 53 16t52 -30t25 -58q0 -60 -114 -116t-259 -56q-187 0 -289 108t-102 301q0 297 158 487t380 189q152 0 238 -78t86 -211
q0 -166 -141 -262t-387 -96h-146z" />
    <glyph glyph-name="afii10072" unicode="&#x436;" horiz-adv-x="1348" 
d="M1251 63q0 -35 -31.5 -56t-73.5 -21t-75 61q-151 287 -305 430l-66 -407q-14 -82 -101 -82t-87 61q0 17 6 51l60 375q-203 -135 -416 -434q-28 -37 -42 -45t-42 -8t-58 21.5t-30 53.5q0 65 163 244t291 256q-119 103 -210 233t-91 170t36 66.5t73 26.5t70 -53
q130 -250 280 -373l55 342q13 82 101 82t88 -62q0 -17 -6 -51l-49 -311q191 109 393 383q34 43 70 43t69 -25.5t33 -54.5q0 -57 -147 -205t-285 -223q95 -83 211 -252.5t116 -235.5z" />
    <glyph glyph-name="afii10073" unicode="&#x437;" horiz-adv-x="913" 
d="M791 311q0 -151 -113 -241t-332 -90q-117 0 -235.5 35.5t-118.5 93.5q0 38 22 68t50 30t63 -14q113 -48 238 -48q237 0 237 177q0 68 -65 96t-201 28h-21q-73 0 -73 66q0 100 94 100h24q273 0 273 164q0 123 -187 123q-86 -1 -160 -31t-100 -30t-45.5 30.5t-19.5 62.5
t30.5 55.5t120.5 51t191 27.5q173 0 265.5 -72t92.5 -198q0 -197 -225 -265q195 -40 195 -219z" />
    <glyph glyph-name="afii10074" unicode="&#x438;" horiz-adv-x="1126" 
d="M109 276q0 55 10 119l92 578q12 84 100 84t88 -64q0 -7 -6 -53l-84 -532q-10 -63 -10 -89q0 -167 174 -167q111 0 197 90t108 241l76 492q12 82 101 82t89 -64l-145 -925q-14 -80 -101 -80t-87 61q0 17 6 41l8 53q-117 -163 -313 -163q-141 0 -222 78t-81 218z" />
    <glyph glyph-name="afii10075" unicode="&#x439;" horiz-adv-x="1126" 
d="M109 276q0 55 10 119l92 578q12 84 100 84t88 -64q0 -7 -6 -53l-84 -532q-10 -63 -10 -89q0 -167 174 -167q111 0 197 90t108 241l76 492q12 82 101 82t89 -64l-145 -925q-14 -80 -101 -80t-87 61q0 17 6 41l8 53q-117 -163 -313 -163q-141 0 -222 78t-81 218zM668 1193
q-112 0 -198 68t-87 143q0 30 24 52t59 22t71 -62q51 -74 131 -74t140 93q28 43 62 43t58 -23t23 -51q1 -76 -85 -144t-198 -67z" />
    <glyph glyph-name="afii10076" unicode="&#x43a;" horiz-adv-x="903" 
d="M821 59q0 -33 -31 -53t-75 -20t-72 61q-151 288 -307 430l-66 -407q-14 -82 -101 -82t-87 61q0 17 6 51l139 875q11 82 101 82t90 -62q0 -6 -2 -20t-4 -31l-52 -311q184 102 396 383q34 43 70 43t67 -27t31 -55q0 -69 -159 -220t-273 -210q104 -90 216.5 -256.5
t112.5 -231.5z" />
    <glyph glyph-name="afii10077" unicode="&#x43b;" horiz-adv-x="1044" 
d="M637 49q0 17 6 51l111 693q6 37 6 61t-25 25h-184q-33 0 -45 -39q-106 -411 -209 -614.5t-126.5 -223.5t-57.5 -20t-68.5 23t-34.5 53t62 137q130 224 266 712q40 137 201 137h272q145 0 145 -126q0 -27 -10 -80l-121 -768q-14 -82 -101 -82t-87 61z" />
    <glyph glyph-name="afii10078" unicode="&#x43c;" horiz-adv-x="1307" 
d="M952 47q0 12 15 90l106 658l-315 -455q-47 -68 -114 -68t-97 68l-174 455l-117 -732q-12 -75 -95 -75t-83 59q0 12 5 38q4 26 7 54l127 795q20 123 133 123q48 0 74.5 -27t50.5 -90l187 -494l344 506q71 105 161 105q103 0 103 -105q0 -38 -15 -118l-122 -771
q-12 -75 -96 -75q-85 0 -85 59z" />
    <glyph glyph-name="afii10079" unicode="&#x43d;" horiz-adv-x="1133" 
d="M719 49q0 4 8 57l57 377h-450l-66 -413q-14 -82 -101 -82t-87 61q0 17 6 57l139 871q13 80 101 80t88 -62q0 -13 -6 -57l-48 -289h451l53 328q12 80 102 80t89 -62l-146 -925q-14 -82 -102 -82t-88 61z" />
    <glyph glyph-name="afii10080" unicode="&#x43e;" horiz-adv-x="1104" 
d="M598 893q-150 1 -240 -133t-90 -328q0 -132 63 -206t175 -74q154 0 242 134t88 328q0 132 -62 206t-176 73zM487 -20q-195 0 -302 123t-107 323q0 271 144 455t394 184q190 1 300 -117t110 -323q0 -273 -143 -459t-396 -186z" />
    <glyph glyph-name="afii10081" unicode="&#x43f;" horiz-adv-x="1130" 
d="M80 51q0 15 6 49l123 774q26 170 194 170h492q145 0 145 -126q0 -27 -10 -80l-121 -764q-14 -86 -101 -86t-87 65q0 15 6 49l111 693q6 37 6 61t-27 23h-385q-36 0 -41 -37l-123 -768q-14 -86 -101 -86t-87 63z" />
    <glyph glyph-name="afii10082" unicode="&#x440;" horiz-adv-x="1128" 
d="M315 356q0 -92 56 -148t159 -56q152 0 239 141t87 338q0 130 -59 197t-167 67q-108 1 -185 -79t-97 -214l-26 -160q-7 -43 -7 -86zM543 -20q-193 0 -267 149l-77 -477q-7 -50 -33 -67t-74 -17q-82 0 -82 59q0 14 49 324l145 929q21 128 32 144q22 32 93 33q72 0 72 -60
q0 -17 -5 -41t-7 -43l-4 -32q104 184 307 184q162 -1 258 -115t97 -313q1 -273 -137 -465t-367 -192z" />
    <glyph glyph-name="afii10083" unicode="&#x441;" horiz-adv-x="965" 
d="M270 422q0 -266 226 -266q104 0 194 61q42 27 72 27t54 -30q26 -30 26 -60q0 -58 -106 -116t-276 -58t-276 118t-106 316q0 287 148 469t386 182q124 0 226 -55t102 -121q0 -33 -27 -63t-59 -31q-32 0 -76 34q-80 64 -174 64q-142 0 -238 -131t-96 -340z" />
    <glyph glyph-name="afii10084" unicode="&#x442;" horiz-adv-x="1708" 
d="M706 1065q193 0 250 -180q126 180 340 180q143 -1 222 -79t79 -216q0 -49 -10 -113l-92 -585q-14 -84 -102 -84t-88 63q0 11 6 39l80 524q12 79 12 113q0 162 -164 162q-107 0 -181 -85t-95 -222l-80 -510q-13 -84 -101 -84t-88 61q0 26 4 45l80 524q13 85 13 103
q0 168 -160 168q-107 0 -185 -90t-100 -234l-78 -495q-14 -82 -101 -82t-87 63q0 11 4 33l141 893q13 80 101 80t88 -58q0 -29 -6 -49l-9 -43q115 158 307 158z" />
    <glyph glyph-name="afii10085" unicode="&#x443;" horiz-adv-x="1018" 
d="M111 969q0 88 110 88q70 0 76 -80q17 -359 168 -782q237 352 387 786q23 76 82 76q37 0 70.5 -19t33.5 -47q0 -76 -141 -377.5t-343 -589.5t-330 -372t-264 -84t-136 80q0 98 74 98l92 -8q139 0 350 285q-95 207 -162 485t-67 461z" />
    <glyph glyph-name="afii10086" unicode="&#x444;" horiz-adv-x="1405" 
d="M1128 600q0 119 -72 200.5t-204 96.5l-119 -750q189 11 292 132.5t103 320.5zM274 449q0 -120 71.5 -201t201.5 -98l119 751q-188 -11 -290 -133t-102 -319zM465 -371q0 18 6 52l49 309q-206 22 -321 149t-115 307q0 262 162.5 434t443.5 183l62 375q14 82 101 82t87 -62
q0 -17 -6 -51l-55 -346q203 -23 320.5 -151.5t117.5 -307.5q0 -262 -163.5 -434.5t-446.5 -181.5l-54 -336q-14 -82 -101 -82t-87 61z" />
    <glyph glyph-name="afii10087" unicode="&#x445;" horiz-adv-x="969" 
d="M848 106q0 -118 -105 -118q-84 0 -84 85q0 173 -180 361q-275 -181 -321 -364q-15 -54 -36 -68t-63 -14q-84 0 -84 78q0 210 385 471q-202 214 -202 405q0 115 104 115q78 -1 78 -83q0 -172 172 -343q237 167 291 346q23 80 107 80t83 -66q-1 -95 -95 -219t-267 -248
q217 -215 217 -418z" />
    <glyph glyph-name="afii10088" unicode="&#x446;" horiz-adv-x="1143" 
d="M299 303q0 -158 156 -158q144 0 208 92t81.5 150.5t44.5 234.5l55 353q10 82 99 82t89 -62q0 -21 -20 -147l-96 -583q-9 -50 -9 -79q0 -20 27 -20h33q125 0 125 -109q0 -38 -14 -125t-24 -150t-98 -63t-88 64l27 194q0 23 -25 23h-43q-102 0 -102 104q0 24 4 37
q-115 -161 -330 -161q-142 0 -216 77t-74 219q0 76 74 525l28 174q14 82 101 82t87 -62q0 -19 -6 -51l-74 -453q-20 -116 -20 -188z" />
    <glyph glyph-name="afii10089" unicode="&#x447;" horiz-adv-x="999" 
d="M111 590q0 48 12 110l43 275q12 82 100 82t88 -62q0 -19 -6 -51l-37 -229q-10 -62 -10 -107q0 -131 137 -131q94 0 162.5 60t89.5 184l41 254q13 82 101 82t88 -62q0 -23 -7 -51l-137 -874q-14 -82 -102 -82t-88 61q0 6 2 20t4 31l51 326q-93 -113 -243 -113
q-149 0 -219 73.5t-70 203.5z" />
    <glyph glyph-name="afii10090" unicode="&#x448;" horiz-adv-x="1642" 
d="M106 270q0 67 15 142l88 563q12 82 100 82t88 -62q0 -19 -6 -51l-84 -536q-8 -51 -8 -105q0 -158 139 -158q103 0 176.5 85.5t98.5 252.5l78 492q12 82 100 82t88 -62q0 -19 -6 -51l-84 -534q-10 -64 -10 -105q0 -160 141 -160q103 0 176.5 86t97.5 252l76 492
q12 82 102 82t89 -62l-146 -925q-14 -82 -101 -82t-87 61q0 41 12 78q-105 -147 -289 -147q-183 0 -233 178q-114 -178 -330 -178q-137 0 -209 76.5t-72 213.5z" />
    <glyph glyph-name="afii10091" unicode="&#x449;" horiz-adv-x="1669" 
d="M387 -20q-135 0 -208 76t-73 214q0 30 15 142l88 563q12 82 101 82t89 -62q0 -3 -6 -51l-86 -536q-8 -50 -8 -105q0 -158 139 -158q106 0 179 88t98 250l76 492q12 82 101 82t89 -62q0 -3 -6 -51l-86 -534q-8 -50 -8 -105q0 -160 139 -160q103 0 176.5 86t97.5 252
l78 492q12 82 100 82t89 -62q0 -23 -7 -51l-110 -690q-8 -50 -8 -69t24 -19h21q139 0 139 -123q0 -21 -15 -116l-22 -133q-12 -75 -100 -75t-88 64q0 6 2 20t4 31l18 103q4 23 4 36q0 27 -26 27h-41q-101 0 -101 104q0 14 5 37q-107 -161 -300 -161t-243 178
q-112 -178 -330 -178z" />
    <glyph glyph-name="afii10092" unicode="&#x44a;" horiz-adv-x="1098" 
d="M831 362q0 136 -176 136h-196l-37 -244q-8 -53 -8 -64q0 -24 22 -24h170q225 0 225 196zM672 662q348 0 348 -287q0 -159 -107.5 -267t-296.5 -108h-251q-146 0 -146 131q0 36 10 88l90 574q7 45 7 61q0 25 -27 25h-162q-80 0 -80 63q0 102 93 102h227q145 0 145 -126
q0 -16 -10 -80l-27 -176h187z" />
    <glyph glyph-name="afii10093" unicode="&#x44b;" horiz-adv-x="1423" 
d="M1010 49q0 17 6 51l139 875q11 82 101 82t90 -62l-148 -925q-14 -82 -101 -82t-87 61zM674 362q0 136 -178 136h-162l-37 -244q-8 -53 -8 -64q0 -24 22 -24h138q225 0 225 196zM512 662q350 0 350 -287q0 -157 -107.5 -266t-295.5 -109h-219q-146 0 -146 131q0 36 10 88
l119 756q13 82 101 82t88 -62q0 -19 -6 -51l-46 -282h152z" />
    <glyph glyph-name="afii10094" unicode="&#x44c;" horiz-adv-x="973" 
d="M707 362q0 136 -177 136h-196l-37 -244q-8 -53 -8 -64q0 -24 22 -24h170q108 0 167 51t59 145zM547 662q348 0 348 -287q0 -159 -107 -267t-296 -108h-252q-146 0 -146 131q0 36 10 88l119 756q13 82 101 82t88 -62q0 -19 -6 -51l-46 -282h187z" />
    <glyph glyph-name="afii10095" unicode="&#x44d;" horiz-adv-x="965" 
d="M694 631q0 258 -227 258q-97 0 -191 -60q-40 -26 -72 -26t-57.5 28.5t-25.5 61.5q0 58 115 115t253 57q191 0 294.5 -116t103.5 -322q0 -295 -150.5 -471t-384.5 -176q-131 0 -230 54.5t-99 115.5q0 35 28.5 66.5t58.5 31.5t96 -48t173 -48q106 0 182.5 73t114.5 219
h-371q-80 0 -80 64q0 102 92 102h377v21z" />
    <glyph glyph-name="afii10096" unicode="&#x44e;" horiz-adv-x="1520" 
d="M1253 600q0 299 -231 299q-145 0 -232.5 -130t-87.5 -323q0 -301 228 -301q148 0 235.5 132.5t87.5 322.5zM520 463h-190l-62 -391q-14 -84 -101 -84t-87 61q0 13 6 55l137 871q11 82 101 82t90 -62l-58 -366h185q49 207 179 321.5t318 114.5t296 -123.5t108 -331.5
q0 -257 -140.5 -443.5t-388.5 -186.5q-174 0 -277 107t-116 294v82z" />
    <glyph glyph-name="afii10097" unicode="&#x44f;" horiz-adv-x="1014" 
d="M350 723q0 -133 170 -133h168l33 203q6 37 6 61t-27 25h-143q-207 0 -207 -156zM598 424q-166 0 -414 -391q-24 -45 -64 -45t-73 21.5t-33 49.5q0 51 115.5 203t228.5 213q-89 17 -142.5 84t-53.5 154q0 155 108.5 243t300.5 88h207q146 0 146 -126q0 -10 -11 -80
l-120 -768q-13 -82 -101 -82t-88 61q0 17 6 51l49 324h-61z" />
    <glyph glyph-name="afii10071" unicode="&#x451;" horiz-adv-x="1001" 
d="M420 571q338 0 338 193q0 60 -41 98t-113 37q-116 -1 -203 -87t-120 -241h139zM266 418v-39q0 -107 59 -167t165 -60t222 72q26 16 53 16t52 -30t25 -58q0 -60 -114 -116t-259 -56q-187 0 -289 108t-102 301q0 297 158 487t380 189q152 0 238 -78t86 -211
q0 -166 -141 -262t-387 -96h-146zM449 1233q-47 0 -79 32q-32 33 -32 79t33 78t79 32t77 -32q32 -32 32 -79q0 -46 -32 -78t-78 -32zM830 1233q-46 0 -78 32q-32 33 -33 79q0 46 33 78q32 32 78 32t78 -32t32 -79q0 -46 -32 -78t-78 -32z" />
    <glyph glyph-name="afii10099" unicode="&#x452;" horiz-adv-x="1126" 
d="M707 1065q142 0 220.5 -75t78.5 -222q0 -57 -12 -119l-115 -723q-31 -192 -124 -273t-255 -81q-53 0 -127 21.5t-74 70.5q0 41 22 68.5t48 27.5t65 -11t93 -11t97 37t55.5 96t74 446t61.5 424q0 158 -157 158t-225 -112t-83.5 -203t-41.5 -269l-40 -256q-12 -71 -100 -71
t-88 61q0 17 6 51l170 1092h-71q-80 0 -80 63q0 103 92 103h86q15 115 36 146.5t95 31.5t74 -61q0 -26 -6 -52l-11 -65h240q80 0 80 -64q0 -102 -92 -102h-254l-45 -287q110 160 307 160z" />
    <glyph glyph-name="afii10100" unicode="&#x453;" horiz-adv-x="932" 
d="M541 899q-110 0 -183 -41q-74 -41 -102 -41q-28 1 -49 29t-21 63q0 60 121 108t265 48t232 -75q89 -75 89 -201q-1 -126 -85 -213t-312 -140q-163 -39 -215 -72t-52 -102q0 -117 174 -117q121 0 242 64q51 24 76 24q25 -1 46 -29t21 -59q0 -61 -128 -113t-285 -52
q-156 0 -244 70t-88 191q-1 121 71 209t355 152q238 56 238 176t-166 121zM498 1231q-30 -1 -54 25t-23 60q0 34 51 73l187 147q50 39 83 39q34 0 58 -25t24 -62t-51 -77l-200 -147q-45 -33 -75 -33z" />
    <glyph glyph-name="afii10101" unicode="&#x454;" horiz-adv-x="965" 
d="M270 414q0 -258 226 -258q97 0 192 59q42 27 72 27t56 -26.5t26 -61.5q0 -61 -112 -117.5t-253 -56.5q-191 0 -295 116.5t-104 319.5q0 296 148 472.5t386 176.5q125 0 227.5 -53.5t102.5 -116.5q0 -34 -29 -66t-61 -32t-76 34q-84 62 -190 62t-181 -70t-112 -209h371
q79 0 79 -61q0 -102 -92 -102h-381v-37z" />
    <glyph glyph-name="afii10102" unicode="&#x455;" horiz-adv-x="922" 
d="M418 137q198 0 198 152q0 53 -34 89t-179 77q-146 41 -207 111t-61 175q0 150 99 237t282 87q99 0 186 -29q166 -55 166 -125q0 -33 -25 -65t-51 -31q-26 0 -109 45q-84 45 -176 45t-140 -41t-48 -98q-1 -58 31 -92t148 -70q192 -56 248 -126t55 -167q0 -155 -101 -243
t-290 -88q-134 0 -250 53t-117 108q-1 39 25 69t49 30t69 -27q121 -76 232 -76z" />
    <glyph glyph-name="afii10103" unicode="&#x456;" horiz-adv-x="489" 
d="M76 49q0 21 8 66l137 862q13 80 101 80t88 -62q0 -8 -11 -69l-135 -854q-14 -84 -101 -84t-87 61zM266 1362q0 47 32 79t78 32q45 -1 78 -33t33 -78t-33 -77q-32 -32 -78 -32t-78 31t-32 78z" />
    <glyph glyph-name="afii10104" unicode="&#x457;" horiz-adv-x="489" 
d="M76 49q0 21 8 66l137 862q13 80 101 80t88 -62q0 -8 -11 -69l-135 -854q-14 -84 -101 -84t-87 61zM175 1233q-47 0 -79 32q-32 33 -32 79t33 78t79 32t77 -32q32 -32 32 -79q0 -46 -32 -78t-78 -32zM556 1233q-46 0 -78 32q-32 33 -33 79q0 46 33 78q32 32 78 32t78 -32
t32 -79q0 -46 -32 -78t-78 -32z" />
    <glyph glyph-name="afii10105" unicode="&#x458;" horiz-adv-x="489" 
d="M-113 -428q-72 0 -129 24t-57 68q1 44 23 71t44 27t56 -10q36 -10 63 -10q140 0 166 178l168 1057q11 80 99 80t88 -60q0 -7 -13 -98l-153 -979q-28 -180 -114 -264t-241 -84zM266 1362q0 47 32 79t78 32q45 -1 78 -33t33 -78t-33 -77q-32 -32 -78 -32t-78 31t-32 78z
" />
    <glyph glyph-name="afii10106" unicode="&#x459;" horiz-adv-x="1526" 
d="M1264 358q0 136 -177 136h-194l-39 -244q-6 -38 -6 -63t22 -25h170q224 0 224 196zM1104 657q350 0 350 -286q0 -157 -107.5 -266t-295.5 -109h-254q-146 0 -146 131q0 31 11 88l92 578q6 38 6 62t-25 24h-184q-33 0 -45 -39q-106 -411 -209 -614.5t-126.5 -223.5
t-57.5 -20t-68.5 23t-34.5 53t62 137q130 224 266 712q40 137 201 137h272q145 0 145 -126q0 -27 -10 -80l-28 -181h186z" />
    <glyph glyph-name="afii10107" unicode="&#x45a;" horiz-adv-x="1556" 
d="M1294 362q0 136 -176 136h-194l-39 -244q-8 -50 -8 -64q0 -24 22 -24h170q225 0 225 196zM1135 662q348 0 348 -287q0 -159 -107.5 -267t-296.5 -108h-252q-145 0 -145 131q0 36 10 88l43 279h-399l-68 -428q-14 -82 -101 -82t-87 61q0 17 6 51l139 875q13 82 101 82
t88 -62q0 -17 -6 -51l-46 -282h398l51 313q12 82 100 82t88 -62q0 -19 -6 -51l-45 -282h187z" />
    <glyph glyph-name="afii10108" unicode="&#x45b;" horiz-adv-x="1126" 
d="M815 741q0 158 -157 158q-119 0 -204 -92t-108 -246l-77 -491q-13 -82 -101 -82t-88 61q0 17 6 51l170 1092h-71q-80 0 -80 63q0 103 92 103h86q15 115 36 146.5t95 31.5t74 -61q0 -26 -6 -52l-11 -65h240q80 0 80 -64q0 -102 -92 -102h-254l-45 -287q110 160 307 160
q142 0 220.5 -75t78.5 -222q0 -57 -12 -119l-92 -579q-14 -82 -102 -82t-87 61q0 17 6 51l86 537q10 62 10 104z" />
    <glyph glyph-name="afii10109" unicode="&#x45c;" horiz-adv-x="903" 
d="M821 59q0 -33 -31 -53t-75 -20t-72 61q-151 288 -307 430l-66 -407q-14 -82 -101 -82t-87 61q0 17 6 51l139 875q11 82 101 82t90 -62q0 -6 -2 -20t-4 -31l-52 -311q184 102 396 383q34 43 70 43t67 -27t31 -55q0 -69 -159 -220t-273 -210q104 -91 216 -257t113 -231z
M562 1231q-30 -1 -54 25t-23 60q0 34 51 73l187 147q50 39 83 39q34 0 58 -25t24 -62t-51 -77l-200 -147q-45 -33 -75 -33z" />
    <glyph glyph-name="afii10110" unicode="&#x45e;" horiz-adv-x="1018" 
d="M111 969q0 88 110 88q70 0 76 -80q17 -359 168 -782q237 352 387 786q23 76 82 76q36 0 70 -19t34 -47q0 -75 -141 -377t-343 -590t-330 -372t-264 -84t-136 80q0 98 74 98l92 -8q139 0 350 285q-95 207 -162 485t-67 461zM614 1233q-112 0 -198 68t-87 143q0 30 24 52
t59 22t71 -62q51 -74 131 -74t140 93q28 43 62 43t58 -23t23 -51q1 -76 -85 -144t-198 -67z" />
    <glyph glyph-name="afii10193" unicode="&#x45f;" horiz-adv-x="1114" 
d="M299 303q0 -158 156 -158q120 0 204.5 92.5t106.5 245.5l78 492q12 82 100 82t88 -64q0 -13 -6 -59l-137 -864q-13 -82 -101 -82t-88 61q0 24 7 49l6 33q-59 -82 -146 -117q-29 -14 -30 -45q-1 -3 -15 -79t-14 -78q-12 -84 -100 -84t-89 61q0 18 7 51l14 88q4 25 4 33
q0 20 -22 25q-100 18 -156.5 92.5t-56.5 197.5q0 55 10 119l92 578q12 84 100 84t88 -64q0 -20 -8 -55l-82 -530q-10 -65 -10 -105z" />
    <glyph glyph-name="afii10050" unicode="&#x490;" horiz-adv-x="1008" 
d="M504 1214q-34 0 -45 -43l-172 -1099q-13 -84 -103 -84t-90 61q0 20 8 62l174 1112q26 170 195 170h367q34 0 45 43l35 223q12 84 102 84t90 -62q0 -19 -8 -61l-39 -236q-28 -170 -193 -170h-366z" />
    <glyph glyph-name="afii10098" unicode="&#x491;" horiz-adv-x="899" 
d="M432 879q-36 0 -41 -37l-123 -772q-14 -82 -101 -82t-87 61q0 8 6 60l123 765q26 170 194 170h308q36 0 43 35l30 195q12 84 100 84t89 -64q0 -13 -6 -53l-31 -192q-28 -170 -199 -170h-305z" />
    <glyph glyph-name="figuredash" unicode="&#x2012;" horiz-adv-x="1026" 
d="M856 467h-686q-94 0 -94 86t94 86h686q94 0 94 -86t-94 -86z" />
    <glyph glyph-name="endash" unicode="&#x2013;" horiz-adv-x="999" 
d="M846 467h-684q-86 0 -86 74q0 98 86 98h684q84 0 84 -72q0 -100 -84 -100z" />
    <glyph glyph-name="emdash" unicode="&#x2014;" horiz-adv-x="1602" 
d="M1448 467h-1286q-86 0 -86 72q0 100 86 100h1286q84 0 84 -74q0 -98 -84 -98z" />
    <glyph glyph-name="quoteleft" unicode="&#x2018;" horiz-adv-x="412" 
d="M365 1409q77 0 77 -70q0 -26 -22 -73q-64 -138 -64 -260q0 -91 -86 -91q-94 0 -94 101t61 247t128 146z" />
    <glyph glyph-name="quoteright" unicode="&#x2019;" horiz-adv-x="412" 
d="M240 913q-35 0 -56.5 20.5t-21.5 49.5t22 76q64 138 64 260q0 88 86 88q94 1 94 -103t-63 -247.5t-125 -143.5z" />
    <glyph glyph-name="quotesinglbase" unicode="&#x201a;" horiz-adv-x="422" 
d="M68 -260q-36 0 -58 21t-22 49t22 75q64 128 64 260q0 88 90 88t90 -103t-61 -246.5t-125 -143.5z" />
    <glyph glyph-name="quotedblleft" unicode="&#x201c;" horiz-adv-x="764" 
d="M713 1409q78 0 78 -70q0 -24 -23 -73q-63 -136 -63 -260q0 -91 -87 -91q-94 0 -94 101t61 247t128 146zM360 1409q80 0 80 -70q0 -22 -24 -73q-64 -138 -64 -260q0 -91 -86 -91q-94 -1 -94 101t61 247.5t127 145.5z" />
    <glyph glyph-name="quotedblright" unicode="&#x201d;" horiz-adv-x="764" 
d="M244 913q-35 0 -57.5 20.5t-22.5 47.5t24 78q64 138 64 260q0 88 86 88q92 1 92 -103t-61.5 -247.5t-124.5 -143.5zM596 913q-35 0 -57.5 20.5t-22.5 48.5t23 77q63 126 63 260q0 88 90 88q90 1 90 -103t-61 -247.5t-125 -143.5z" />
    <glyph glyph-name="quotedblbase" unicode="&#x201e;" horiz-adv-x="762" 
d="M51 -260q-34 0 -56 19t-22 47t23 77q63 126 63 260q0 88 86 88q95 -1 95 -101t-61 -245t-128 -145zM403 -260q-77 0 -77 70q0 26 22 73q64 138 64 260q0 88 86 88q94 1 94 -101t-61.5 -246t-127.5 -144z" />
    <glyph glyph-name="dagger" unicode="&#x2020;" horiz-adv-x="977" 
d="M279 -170q0 9 8 68l170 999h-217q-84 0 -84 59q0 111 112 111h217l62 360q14 89 97 89t83 -62q0 -20 -4 -45l-59 -342h219q82 0 82 -59q0 -111 -113 -111h-217l-176 -1040q-16 -90 -98 -90t-82 63z" />
    <glyph glyph-name="daggerdbl" unicode="&#x2021;" horiz-adv-x="977" 
d="M279 -172q0 30 12 82l47 278h-219q-84 0 -84 60q0 110 112 110h220l98 578h-217q-86 0 -86 61q0 111 114 111h218l53 319q14 89 97 89t83 -62q0 -11 -6 -51l-49 -295h219q82 0 82 -61q0 -111 -113 -111h-217l-98 -578h217q82 0 82 -59q0 -116 -113 -111h-215l-57 -331
q-16 -90 -98 -90t-82 61z" />
    <glyph glyph-name="bullet" unicode="&#x2022;" horiz-adv-x="965" 
d="M511 338q-134 0 -230.5 95t-96.5 231t98 231.5t230 95.5t229 -96.5t97 -230.5t-96.5 -230t-230.5 -96z" />
    <glyph glyph-name="onedotenleader" unicode="&#x2024;" horiz-adv-x="999" 
d="M438 -20q-54 0 -90.5 35t-36.5 91t36.5 91.5t90.5 35.5t90.5 -37.5t36.5 -89.5t-36.5 -89t-90.5 -37z" />
    <glyph glyph-name="twodotenleader" unicode="&#x2025;" horiz-adv-x="987" 
d="M678 -20q-54 0 -90.5 35t-36.5 91t36.5 91.5t90.5 35.5t91.5 -36.5t37.5 -90.5t-37.5 -90t-91.5 -36zM184 -20q-54 0 -90.5 35t-36.5 91t36.5 91.5t90.5 35.5t91.5 -36.5t37.5 -90.5t-37.5 -90t-91.5 -36z" />
    <glyph glyph-name="ellipsis" unicode="&#x2026;" horiz-adv-x="1266" 
d="M130 -20q-54 0 -87 34t-33 87t34 88.5t88 35.5t89 -36.5t35 -87.5t-36 -86t-90 -35zM582 -20q-52 0 -87.5 33.5t-35.5 87.5t35.5 89t87.5 35t87.5 -36.5t35.5 -88.5t-35.5 -86t-87.5 -34zM1031 -20q-52 0 -87 33.5t-35 87.5t35.5 89t87.5 35t87.5 -36.5t35.5 -87.5
t-36 -86t-88 -35z" />
    <glyph glyph-name="perthousand" unicode="&#x2030;" horiz-adv-x="2650" 
d="M2068 309q0 -192 142 -192q94 0 148.5 103.5t54.5 246.5q0 190 -140 190q-95 0 -150 -104t-55 -244zM1905 311q0 208 102.5 345t280.5 137q135 0 211.5 -81.5t76.5 -238.5q0 -215 -100.5 -353t-282.5 -138q-134 0 -211 87.5t-77 241.5zM1268 309q0 -192 141 -192
q93 0 148 101.5t55 248.5q0 190 -139 190q-95 0 -150 -102.5t-55 -245.5zM1104 311q0 207 103.5 344.5t279.5 137.5q135 0 212 -81.5t77 -238.5q0 -215 -100.5 -353t-282.5 -138q-135 0 -212 88.5t-77 240.5zM291 928q0 -191 141 -191q94 0 148.5 103.5t54.5 246.5
q0 189 -139 189q-94 0 -149.5 -102t-55.5 -246zM125 932q0 208 101 344.5t284 136.5q135 0 212 -82.5t77 -238.5q0 -215 -101.5 -353.5t-281.5 -138.5q-138 0 -214.5 90t-76.5 242zM421 -25q-31 0 -58 24t-27 45t6.5 34t218.5 271l738 896q130 159 144.5 166.5t37.5 7.5
t50.5 -22.5t27.5 -48.5t-27 -58l-1043 -1270q-37 -45 -68 -45z" />
    <glyph glyph-name="guilsinglleft" unicode="&#x2039;" horiz-adv-x="724" 
d="M580 181q0 -32 -29 -58.5t-58 -26.5t-48 13t-111 108l-183 190q-91 95 -102.5 111.5t-11.5 48.5t41 62l436 346q30 24 64 24t62 -26t28 -58t-43 -69l-369 -293l289 -303q35 -37 35 -69z" />
    <glyph glyph-name="guilsinglright" unicode="&#x203a;" horiz-adv-x="724" 
d="M139 914q0 32 28.5 58.5t58.5 26.5t49 -13t109 -107l182 -190q91 -94 103.5 -112t12.5 -48t-41 -62l-436 -346q-33 -25 -67 -25t-60.5 26.5t-26.5 59.5t43 70l369 291l-289 303q-35 36 -35 68z" />
    <glyph glyph-name="fraction" unicode="&#x2044;" horiz-adv-x="279" 
d="M-386 -25q-34 0 -58.5 21.5t-24.5 49.5t31 67l1044 1269q30 37 64 37t59 -21t25 -48t-27 -60l-1042 -1270q-37 -45 -71 -45z" />
    <glyph glyph-name="zerosuperior" unicode="&#x2070;" 
d="M618 1097q0 179 -113 179q-90 0 -148.5 -121t-58.5 -299t117 -178q89 0 146 120t57 299zM397 541q-117 0 -184.5 86t-67.5 237q0 242 102 395.5t269 153.5q124 0 191 -83.5t67 -235.5q0 -244 -103 -398.5t-274 -154.5z" />
    <glyph glyph-name="foursuperior" unicode="&#x2074;" 
d="M519.5 588q-2.5 28 -2.5 43l19 111h-270q-107 0 -107 88q0 46 35 96l274 445q26 43 60 43t58 -20t24 -43t-29 -70l-254 -404h229l43 268q10 70 79 70t69 -57l-45 -281h47q53 0 53 -48q0 -87 -72 -87h-49l-18 -113q-12 -69 -76.5 -69t-67 28z" />
    <glyph glyph-name="fivesuperior" unicode="&#x2075;" 
d="M565 838q0 123 -142 123q-36 -1 -78 -11t-59 -10q-67 0 -67 61q0 13 5 33l7 37q47 237 78 279.5t110 42.5h275q65 0 65 -58q0 -80 -78 -80h-243q-16 0 -19 -14l-37 -158q30 11 78 11q118 0 187 -65t69 -191t-86.5 -211.5t-243.5 -85.5q-91 0 -172 36t-81 80q0 74 63 74
q24 0 51 -20q67 -39 145 -39t125.5 45.5t47.5 120.5z" />
    <glyph glyph-name="sixsuperior" unicode="&#x2076;" 
d="M593 848q0 129 -125 129q-76 0 -119.5 -49t-43.5 -113q0 -143 131 -143q74 0 115.5 50t41.5 126zM504 1108q114 0 178.5 -66t64.5 -190t-85.5 -217.5t-225.5 -93.5t-212.5 84.5t-72.5 228.5q0 253 121 406t332 153q168 0 168 -74q0 -29 -19 -53t-39 -24t-52 8
q-33 8 -67 8q-214 0 -278 -250q73 80 187 80z" />
    <glyph glyph-name="sevensuperior" unicode="&#x2077;" 
d="M561 1253h-293q-54 0 -54 58q0 82 60 82h407q97 0 97 -86q0 -50 -49 -109q-225 -266 -351 -598q-15 -57 -69 -57q-78 0 -78 60t85 233t249 381q14 19 14 27t-18 9z" />
    <glyph glyph-name="eightsuperior" unicode="&#x2078;" 
d="M446 944q-68 0 -113 -40.5t-45 -106.5q0 -125 142 -125q74 0 116.5 40.5t42.5 99.5t-37.5 95.5t-105.5 36.5zM492 1282q-57 0 -92.5 -31t-35.5 -78t31 -75.5t87 -28.5t90 34.5t34 78.5t-28.5 72t-85.5 28zM741 824q0 -124 -86.5 -203.5t-224.5 -79.5t-216.5 69.5
t-78.5 167.5q0 177 163 244q-81 59 -81 159t74.5 166t198.5 66t193.5 -58.5t69.5 -148.5q0 -145 -123 -205q111 -53 111 -177z" />
    <glyph glyph-name="ninesuperior" unicode="&#x2079;" 
d="M610 1141q0 141 -131 141q-75 0 -117.5 -47.5t-42.5 -109.5q0 -142 129 -142q75 0 118.5 45.5t43.5 112.5zM412 852q-112 0 -178.5 66t-66.5 190t87 214.5t224 90.5t211 -82.5t74 -228.5q0 -258 -121 -409.5t-331 -151.5q-168 0 -168 73q0 27 17.5 53.5t35.5 26.5t52 -8
t73 -8q206 0 276 248q-73 -74 -185 -74z" />
    <glyph glyph-name="parenleftsuperior" unicode="&#x207d;" horiz-adv-x="385" 
d="M287 717q0 -101 10 -162t10 -80q0 -63 -80 -63q-55 0 -70.5 93t-15.5 251t41 325.5t89 284t72.5 140.5t54.5 24t50.5 -14t20.5 -36t-25 -67q-157 -314 -157 -696z" />
    <glyph glyph-name="parenrightsuperior" unicode="&#x207e;" horiz-adv-x="385" 
d="M118 412q-31 0 -51 14.5t-20 34.5t25 65q157 324 157 697q0 118 -10 171t-10 72q0 64 82 64q55 0 70.5 -99t15.5 -254t-42.5 -326.5t-92 -284t-71.5 -133.5t-53 -21z" />
    <glyph glyph-name="nsuperior" unicode="&#x207f;" horiz-adv-x="793" 
d="M625 1032q0 105 -107 105q-70 0 -126.5 -55t-72.5 -156l-51 -320q-10 -57 -80 -57q-71 0 -71 45q0 11 6 45l90 569q8 56 80 56t72 -45q0 -3 -7 -50q82 101 192 101t169 -54t59 -147q0 -52 -31 -228.5t-32.5 -212.5t-17.5 -57.5t-64 -21.5q-74 0 -74 45q0 15 4 37l55 342
q7 44 7 59z" />
    <glyph glyph-name="zeroinferior" unicode="&#x2080;" 
d="M526 536q0 179 -113 179q-91 0 -149 -121t-58 -299t117 -178q89 0 146 120t57 299zM305 -20q-117 0 -185 86t-67 237q0 241 102 395t269 154q124 0 191 -84t67 -235q0 -245 -103 -399t-274 -154z" />
    <glyph glyph-name="oneinferior" unicode="&#x2081;" 
d="M220 613q-22 1 -40 21t-17 52q0 32 52 58l172 86q32 16 61 16q82 0 82 -65q0 -2 -6 -52l-96 -598h104q64 0 64 -51q0 -80 -70 -80h-377q-61 0 -61 54q0 37 20 57t47 20h125l88 549l-92 -49q-34 -18 -56 -18z" />
    <glyph glyph-name="twoinferior" unicode="&#x2082;" 
d="M518 617q0 96 -102 96q-66 0 -118 -40t-76 -40t-42 23q-20 23 -20 51q0 47 86 95t189 48q105 0 171 -60t66 -158q0 -96 -62 -168t-196 -146q-195 -113 -211 -178h307q63 0 63 -56q0 -84 -82 -84h-329q-113 0 -113 95q-1 87 69 163t202 158t165 118q33 35 33 83z" />
    <glyph glyph-name="threeinferior" unicode="&#x2083;" 
d="M458 268q0 119 -148 119q-69 0 -69 58q0 30 45 75l176 176h-252q-62 0 -62 56q0 32 20 57t56 25h330q100 0 100 -84q0 -48 -57 -105l-160 -155q172 -44 172 -209q0 -129 -85 -215t-234 -86q-90 0 -170 38t-80 85q0 27 19 50t43 23t69 -34q46 -34 121 -33q74 0 120 44
t46 115z" />
    <glyph glyph-name="fourinferior" unicode="&#x2084;" 
d="M137 170q-107 0 -107 88q0 46 35 96l274 445q25 43 59 43t58 -20t25 -43q0 -23 -29 -70l-254 -404h229l43 268q10 70 79 70t69 -57l-45 -281h47q53 0 53 -48q0 -87 -72 -87h-49l-18 -113q-12 -69 -78 -69q-62 0 -66 40q-2 16 -2 31l19 111h-270z" />
    <glyph glyph-name="fiveinferior" unicode="&#x2085;" 
d="M472 277q0 123 -142 123q-36 0 -78 -10t-59 -11q-67 0 -67 61q0 13 5 33l7 37q47 238 78 280t110 42h275q65 0 65 -58q0 -80 -78 -80h-243q-16 0 -19 -14l-37 -158q30 11 78 11q118 1 187 -65t69 -192q-1 -126 -87 -210q-86 -86 -243 -86q-91 0 -172 36t-81 80
q0 74 63 74q24 0 51 -20q68 -39 146 -39q78 -1 124 45q48 46 48 121z" />
    <glyph glyph-name="sixinferior" unicode="&#x2086;" 
d="M511 287q0 129 -125 129q-76 0 -120 -49t-43 -113q0 -143 131 -143q74 0 116 50t41 126zM422 547q114 1 178 -65t65 -190q0 -124 -86 -218q-85 -94 -225 -94t-212 84t-73 229q0 253 121 406t332 153q168 0 168 -74q0 -29 -19 -53t-39 -24t-52 8q-33 8 -67 8
q-214 0 -278 -250q73 80 187 80z" />
    <glyph glyph-name="seveninferior" unicode="&#x2087;" 
d="M469 692h-293q-54 0 -54 58q0 82 60 82h407q97 0 97 -86q0 -50 -49 -109q-225 -266 -351 -598q-15 -57 -69 -57q-78 0 -78 60t85 233t249 381q14 20 14 28t-18 8z" />
    <glyph glyph-name="eightinferior" unicode="&#x2088;" 
d="M354 383q-68 -1 -113 -41t-45 -106q0 -125 142 -125q74 1 116 41t43 99q0 59 -38 95q-37 36 -105 37zM400 721q-56 0 -92 -31t-36 -78q0 -48 30 -76t88 -28q56 0 90 34t34 79q0 44 -28 72t-86 28zM649 264q0 -124 -86 -204q-87 -80 -225 -80t-216 70t-79 167
q0 177 163 244q-81 59 -81 159t74 166q75 66 199 66t194 -58t69 -149q0 -145 -123 -205q111 -52 111 -176z" />
    <glyph glyph-name="nineinferior" unicode="&#x2089;" 
d="M518 580q0 141 -131 141q-75 1 -117 -47t-43 -110q0 -142 129 -142q74 0 118 46t44 112zM320 291q-112 0 -178 66q-66 67 -67 191q0 124 87 214t224 90t211 -82t74 -229q0 -257 -121 -409t-331 -152q-168 0 -168 73q-1 27 17 53t36 27q18 0 52 -8t73 -8q206 0 276 248
q-73 -74 -185 -74z" />
    <glyph glyph-name="parenleftinferior" unicode="&#x208d;" horiz-adv-x="385" 
d="M195 156q0 -101 10 -162t10 -80q0 -63 -80 -63q-55 1 -71 93t-15 250q0 158 41 326t89 284q49 116 73 141q24 24 54 24q30 -1 51 -15q20 -14 20 -36t-25 -66q-157 -314 -157 -696z" />
    <glyph glyph-name="parenrightinferior" unicode="&#x208e;" horiz-adv-x="385" 
d="M26 -149q-31 1 -51 15t-20 34t25 65q157 324 157 697q0 118 -10 171t-10 72q0 64 82 64q55 0 71 -99t15 -254q-1 -154 -43 -326t-92 -284t-71 -134q-22 -21 -53 -21z" />
    <glyph glyph-name="colonmonetary" unicode="&#x20a1;" horiz-adv-x="1085" 
d="M274 600q0 -194 50 -291l276 897q-154 -56 -240 -234t-86 -372zM868 1219q-33 9 -69 12l-28 2h-30l-313 -1024q47 -32 119 -45zM964 285q28 0 52 -31t24 -64q0 -51 -92 -110t-188.5 -77.5t-130.5 -18.5l-31 -103q-13 -44 -32.5 -54.5t-45.5 -10.5q-59 0 -59 45
q0 17 10 49l27 80q-76 13 -121 35l-47 -144q-11 -34 -26 -49.5t-52 -15.5q-57 0 -57 45q0 17 10 49l57 182q-178 154 -178 476t150.5 558.5t420.5 276.5l31 104q19 64 78 64t59 -49q0 -19 -8 -43l-22 -68q60 -3 125 -18l36 114q20 64 78 64t58 -49q0 -16 -9 -43l-43 -133
q144 -88 144 -160q0 -29 -28 -60.5t-61 -31.5t-106 65l-305 -987q103 12 213 88q41 25 69 25z" />
    <glyph glyph-name="Euro" unicode="&#x20ac;" horiz-adv-x="1161" 
d="M980 248q28 0 53.5 -28t25.5 -60q0 -64 -133 -122t-275 -58q-198 0 -317 125t-133 346h-111q-78 0 -78 61q0 98 97 98h88q8 107 24 172h-76q-75 0 -75 62q0 100 96 100h94q82 223 243 346t371 123q151 0 262 -52t111 -108q0 -34 -26.5 -67t-54.5 -33t-79 29
q-97 59 -223 59q-260 0 -397 -297h477q80 0 80 -61q0 -101 -96 -101h-512q-22 -80 -29 -172h416q78 0 78 -61q0 -98 -99 -98h-389q22 -299 281 -299q126 0 227 63q51 33 79 33z" />
    <glyph glyph-name="afii61352" unicode="&#x2116;" horiz-adv-x="2081" 
d="M1847 463h-434q-78 0 -78 67q0 93 95 93h440q78 0 78 -64q0 -39 -26 -67.5t-75 -28.5zM1182 1405q86 0 86 -66q0 -2 -8 -63l-189 -1178q-18 -110 -127 -110q-85 0 -110 71l-394 1049l-166 -1036q-14 -84 -97 -84t-83 61l193 1223q20 133 141 133q84 0 111 -74l383 -1034
l161 1022q13 86 99 86zM1874 1102q0 158 -135 158q-90 0 -141.5 -75.5t-51.5 -185.5q0 -157 137 -157q90 0 140.5 73.5t50.5 186.5zM2048 1118q0 -182 -102.5 -305t-282.5 -123q-139 0 -216 80t-77 217q0 179 103.5 301.5t281.5 122.5q137 0 215 -77t78 -216z" />
    <glyph glyph-name="trademark" unicode="&#x2122;" horiz-adv-x="1663" 
d="M477 1262v-627q1 -68 -73 -68t-74 68v627h-160q-72 0 -72 68t72 67h469q40 0 54 -15.5t14 -52.5q0 -67 -68 -67h-162zM1581 635q-1 -68 -71 -68t-70 68v520h-4l-152 -270q-28 -49 -80 -49t-80 49l-145 264h-4v-514q0 -68 -72 -68t-72 68v674q0 92 87 92q52 0 83 -53
l205 -359l209 361q30 51 82 51q84 0 84 -92v-674z" />
    <glyph glyph-name="Ohm" unicode="&#x2126;" horiz-adv-x="1573" 
d="M150 822q0 176 79.5 340.5t231 252.5t347.5 88q336 0 516 -254q131 -186 131 -448q0 -312 -195 -520q-53 -58 -149 -121l364 6v-166h-575v177q80 39 138 89t133.5 177t75.5 334q0 138 -49.5 277.5t-150 212.5t-243.5 73q-191 0 -296 -120q-146 -169 -146 -440
q0 -217 91 -372.5t251 -227.5v-180h-577v168l369 -8q-108 67 -165 130q-181 200 -181 532z" />
    <glyph glyph-name="onethird" unicode="&#x2153;" horiz-adv-x="1855" 
d="M265 1182q-21 0 -39 20t-18 53q0 32 52 58l172 86q32 16 61 16q82 0 82 -65q0 -2 -6 -52l-96 -598h104q64 0 64 -51q0 -80 -70 -80h-377q-61 0 -61 54q1 37 21 57t46 20h125l88 549l-92 -49q-34 -18 -56 -18zM416 -25q-34 0 -58 21q-24 22 -24 50t31 67l1044 1269
q31 37 65 37t58 -21t25 -48q0 -27 -27 -60l-1042 -1270q-38 -45 -72 -45zM1553 268q0 119 -148 119q-69 0 -69 58q0 30 45 75l176 176h-252q-62 0 -62 56q0 32 20 57t56 25h330q100 0 100 -84q0 -48 -57 -105l-160 -155q172 -44 172 -209q0 -129 -85 -215t-234 -86
q-90 0 -170 38t-80 85q0 27 19 50q18 23 42 23t70 -34t121 -33q75 0 121 44t45 115z" />
    <glyph glyph-name="twothirds" unicode="&#x2154;" horiz-adv-x="1855" 
d="M575 1186q0 96 -102 96q-65 0 -117 -40t-76 -40t-44 23t-19 51q-1 46 85 94t190 49q104 -1 170 -61t67 -156q0 -96 -62 -170q-62 -72 -196 -145q-195 -113 -211 -178h307q63 0 63 -56q0 -84 -82 -84h-329q-113 0 -113 95q0 86 70 162t201 160q132 82 165 117t33 83z
M416 -25q-34 0 -58 21q-24 22 -24 50t31 67l1044 1269q31 37 65 37t58 -21t25 -48q0 -27 -27 -60l-1042 -1270q-38 -45 -72 -45zM1553 268q0 119 -148 119q-69 0 -69 58q0 30 45 75l176 176h-252q-62 0 -62 56q0 32 20 57t56 25h330q100 0 100 -84q0 -48 -57 -105l-160 -155
q172 -44 172 -209q0 -129 -85 -215t-234 -86q-90 0 -170 38t-80 85q0 27 19 50q18 23 42 23t70 -34t121 -33q75 0 121 44t45 115z" />
    <glyph glyph-name="oneeighth" unicode="&#x215b;" horiz-adv-x="1845" 
d="M265 1182q-21 0 -39 20t-18 53q0 32 52 58l172 86q32 16 61 16q82 0 82 -65q0 -2 -6 -52l-96 -598h104q64 0 64 -51q0 -80 -70 -80h-377q-61 0 -61 54q1 37 21 57t46 20h125l88 549l-92 -49q-34 -18 -56 -18zM416 -25q-34 0 -58 21q-24 22 -24 50t31 67l1044 1269
q31 37 65 37t58 -21t25 -48q0 -27 -27 -60l-1042 -1270q-38 -45 -72 -45zM1446 383q-68 -1 -113 -41t-45 -106q0 -125 142 -125q74 1 116 41t43 99q0 59 -38 95q-37 36 -105 37zM1492 721q-56 0 -92 -31t-36 -78q0 -48 30 -76t88 -28q56 0 90 34t34 79q0 44 -28 72t-86 28z
M1741 264q0 -124 -86 -204q-87 -80 -225 -80t-216 70t-79 167q0 177 163 244q-81 59 -81 159t74 166q75 66 199 66t194 -58t69 -149q0 -145 -123 -205q111 -52 111 -176z" />
    <glyph glyph-name="threeeighths" unicode="&#x215c;" horiz-adv-x="1862" 
d="M516 829q0 119 -148 119q-69 0 -69 58q0 30 45 75l176 176h-252q-62 0 -62 56q0 32 20 57t56 25h330q100 0 100 -84q0 -48 -57 -105l-160 -155q172 -44 172 -209q0 -128 -85 -214t-234 -87q-90 -1 -170 37t-80 86q0 27 19 50t43 23q24 1 69 -33q46 -34 121 -34
q74 0 120 44t46 115zM416 -25q-34 0 -58 21q-24 22 -24 50t31 67l1044 1269q31 37 65 37t58 -21t25 -48q0 -27 -27 -60l-1042 -1270q-38 -45 -72 -45zM1462 383q-68 -1 -113 -41t-45 -106q0 -125 142 -125q74 1 116 41t43 99q0 59 -38 95q-37 36 -105 37zM1508 721
q-56 0 -92 -31t-36 -78q0 -48 30 -76t88 -28q56 0 90 34t34 79q0 44 -28 72t-86 28zM1757 264q0 -124 -86 -204q-87 -80 -225 -80t-216 70t-79 167q0 177 163 244q-81 59 -81 159t74 166q75 66 199 66t194 -58t69 -149q0 -145 -123 -205q111 -52 111 -176z" />
    <glyph glyph-name="fiveeighths" unicode="&#x215d;" horiz-adv-x="1862" 
d="M530 838q0 123 -142 123q-36 -1 -78 -11t-59 -10q-67 0 -67 61q0 13 5 33l7 37q47 237 78 279t110 43h275q65 0 65 -58q0 -80 -78 -80h-243q-16 0 -19 -14l-37 -158q30 11 78 11q118 0 187 -66t69 -190q-1 -126 -87 -212t-243 -85q-91 0 -172 36t-81 80q0 74 63 74
q24 0 51 -20q68 -39 146 -39t124 46q48 46 48 120zM416 -25q-34 0 -58 21q-24 22 -24 50t31 67l1044 1269q31 37 65 37t58 -21t25 -48q0 -27 -27 -60l-1042 -1270q-38 -45 -72 -45zM1462 383q-68 -1 -113 -41t-45 -106q0 -125 142 -125q74 1 116 41t43 99q0 59 -38 95
q-37 36 -105 37zM1508 721q-56 0 -92 -31t-36 -78q0 -48 30 -76t88 -28q56 0 90 34t34 79q0 44 -28 72t-86 28zM1757 264q0 -124 -86 -204q-87 -80 -225 -80t-216 70t-79 167q0 177 163 244q-81 59 -81 159t74 166q75 66 199 66t194 -58t69 -149q0 -145 -123 -205
q111 -52 111 -176z" />
    <glyph glyph-name="seveneighths" unicode="&#x215e;" horiz-adv-x="1751" 
d="M527 1253h-293q-54 0 -54 58q0 82 60 82h407q97 0 97 -86q0 -50 -49 -109q-225 -266 -351 -598q-15 -57 -69 -57q-78 0 -78 60t85 233t249 381q14 19 14 27t-18 9zM306 -25q-34 0 -59 21q-24 22 -24 50t31 67l1044 1269q30 37 64 37t60 -21q24 -21 24 -48t-27 -60
l-1042 -1270q-37 -45 -71 -45zM1350 383q-68 -1 -112 -41q-45 -40 -45 -106q0 -125 142 -125q75 1 117 41t42 99t-38 95t-106 37zM1397 721q-57 0 -93 -31t-35 -78q1 -48 31 -76t86 -28t91 34q34 34 34 79q-1 44 -29 72t-85 28zM1646 264q0 -124 -86 -204t-224 -80t-218 70
q-78 70 -78 167q0 177 163 244q-81 59 -81 159t74 166t198 66t194 -58t70 -149q0 -145 -123 -205q111 -52 111 -176z" />
    <glyph glyph-name="partialdiff" unicode="&#x2202;" horiz-adv-x="1012" 
d="M236 324q0 -104 51 -158t123 -54t156 55q240 156 288 629q-244 -14 -357.5 -68t-187 -177t-73.5 -227zM653 1363q-143 0 -227 -225l-135 60q70 157 168 225t183 68q161 0 246 -142q85 -143 85 -427t-86.5 -508.5t-233.5 -331.5t-287 -107t-225 91t-85 256q0 226 153 387
q197 207 649 215q-4 168 -24 256t-68 135.5t-113 47.5z" />
    <glyph glyph-name="uni2206" unicode="&#x2206;" horiz-adv-x="1253" 
d="M991 82l-399 967l-440 -967h839zM1227 0h-1200l628 1386z" />
    <glyph glyph-name="product" unicode="&#x220f;" horiz-adv-x="1686" 
d="M161 1491h1362v-1922h-191v1748h-978v-1748h-193v1922z" />
    <glyph glyph-name="summation" unicode="&#x2211;" horiz-adv-x="1460" 
d="M139 1491h1237v-164h-988l607 -775l-649 -822h1040v-161h-1264v187l620 788l-603 772v175z" />
    <glyph glyph-name="minus" unicode="&#x2212;" horiz-adv-x="1161" 
d="M993 436h-813q-44 0 -68 16t-24 68t22 69t70 17h813q54 0 73 -18.5t19 -64.5t-19.5 -66.5t-72.5 -20.5z" />
    <glyph glyph-name="radical" unicode="&#x221a;" horiz-adv-x="1124" 
d="M1124 1870l-311 -1948l-496 1022l-198 -92l-35 63l301 152l403 -823h5l258 1626h73z" />
    <glyph glyph-name="infinity" unicode="&#x221e;" horiz-adv-x="1460" 
d="M393 873q-51 0 -89.5 -40.5t-38.5 -112.5t40 -114.5t97 -42.5q101 0 218 153q-80 100 -128 128.5t-99 28.5zM1030 499q66 0 117.5 56t51.5 160t-52.5 160t-116.5 56q-64 1 -114 -33t-158 -181q87 -135 159 -185q47 -33 113 -33zM1030 1044q97 0 188.5 -76t91.5 -245
q0 -118 -34 -185.5t-106 -108.5t-154 -41t-152 50t-175 182q-136 -171 -289 -171q-101 0 -173.5 76.5t-72.5 190.5t72.5 190.5t173.5 76.5q153 0 289 -171q105 132 175 182t166 50z" />
    <glyph glyph-name="integral" unicode="&#x222b;" horiz-adv-x="561" 
d="M561 1754q0 -28 -19 -64.5t-65 -36.5q-46 -1 -76 27t-49 28q-41 0 -41 -54q-1 -54 23 -301q24 -246 24 -519l-2 -121l-14 -471q-11 -338 -87 -399.5t-133 -61.5t-89.5 33.5t-32.5 82.5t25 76t66 27t69 -32t49 -31q39 0 39 61q0 37 -15 163t-23 359t-9 375l16 553
q6 191 66 317q19 40 63.5 69.5t81.5 29.5t67.5 -15t48 -41t17.5 -54z" />
    <glyph glyph-name="approxequal" unicode="&#x2248;" horiz-adv-x="1124" 
d="M797 378q-60 0 -114 14t-172.5 67t-190.5 53t-128.5 -27.5t-140.5 -108.5v205q106 120 278 120q111 0 247 -58t170.5 -67t84.5 -9t119.5 39t123.5 98v-212q-122 -114 -277 -114zM797 740q-60 0 -114 13.5t-172.5 67t-190.5 53.5t-128.5 -27.5t-140.5 -108.5v205
q106 120 278 120q112 -1 248 -59q135 -58 169.5 -66.5t84.5 -8.5t119.5 39t123.5 98v-212q-122 -114 -277 -114z" />
    <glyph glyph-name="notequal" unicode="&#x2260;" horiz-adv-x="1124" 
d="M78 417v168h356l122 277h-478v168h551l196 444h134l-195 -444h282v-168h-356l-121 -277h477v-168h-551l-194 -445h-136l195 445h-282z" />
    <glyph glyph-name="lessequal" unicode="&#x2264;" horiz-adv-x="1124" 
d="M1046 106h-968v167h968v-167zM77 762v168l971 410v-180l-770 -315l770 -319v-179z" />
    <glyph glyph-name="greaterequal" unicode="&#x2265;" horiz-adv-x="1124" 
d="M1046 106h-968v167h968v-167zM1048 762l-971 -415v179l769 319l-769 315v180l971 -410v-168z" />
    <glyph glyph-name="lozenge" unicode="&#x25ca;" horiz-adv-x="1012" 
d="M495 1325l-340 -616l340 -615l359 615zM549 1422l418 -713l-418 -709h-111l-391 709l391 713h111z" />
    <glyph glyph-name="uniF001" unicode="&#xf001;" horiz-adv-x="1112" 
d="M123 47v8q0 12 8 68l121 760h-86q-76 0 -76 59q0 102 90 102h96l13 72q76 422 471 422q124 0 230 -43t106 -92q0 -39 -27 -73t-55 -34t-72 21q-86 47 -196 47t-180 -66q-72 -66 -95 -200l-8 -54h493q76 0 76 -61q0 -24 -14 -98l-129 -815q-13 -82 -101 -82t-88 61
q0 14 6 40l123 794h-391l-127 -813q-14 -82 -101 -82t-87 59z" />
    <glyph glyph-name="uniF002" unicode="&#xf002;" horiz-adv-x="1112" 
d="M700 49q0 16 54 358l147 934q-77 25 -175 25t-164 -58t-85 -171l-14 -93h162q75 0 75 -59q0 -102 -94 -102h-168l-126 -808q-8 -47 -34 -67t-73 -20q-84 0 -84 57l131 838h-86q-76 0 -76 59q0 102 94 102h92l21 123q62 371 453 371q106 0 226 -26t120 -101v-19
q0 -12 -2 -20l-205 -1302q-13 -82 -101 -82t-88 61z" />
    <glyph glyph-name="pi1" unicode="&#xf006;" horiz-adv-x="1243" 
d="M965 -20q-224 0 -224 225q0 48 9 100l98 574h-295l-90 -543q-60 -356 -309 -356q-30 0 -50 22t-20 59q0 63 55 76q105 25 133 197l93 545h-9q-85 0 -149 -66q-35 -37 -65 -37t-60 26t-29 56q0 54 91 120t300 66h791q65 0 65 -65q0 -100 -94 -100h-172l-94 -555
q-10 -59 -10 -91q0 -90 71 -90q29 1 67 17t58 16t38 -24q20 -24 20 -54q0 -50 -64 -84t-155 -34z" />
    <glyph glyph-name="commaaccent" unicode="&#xf6c3;" horiz-adv-x="940" 
d="M436 -473q-80 0 -80 72q0 13 22 54t23 139q-1 98 89 97q90 0 90 -110q0 -76 -40.5 -164t-103.5 -88z" />
    <glyph glyph-name="onefitted" unicode="&#xf6dc;" horiz-adv-x="911" 
d="M260 1073q-30 0 -52 29.5t-22 70.5t68 72l295 137q71 33 96 33q92 0 92 -92q0 -20 -6 -59l-172 -1094h205q80 0 80 -72q0 -98 -90 -98h-617q-80 0 -80 74q0 96 90 96h226l159 1022l-186 -92q-56 -27 -86 -27z" />
    <glyph glyph-name="rupiah" unicode="&#xf6dd;" horiz-adv-x="2071" 
d="M1798 631q0 264 -209 264q-112 0 -182.5 -77t-91.5 -216l-27 -160q-6 -36 -6 -86q0 -96 52.5 -150t150.5 -54q149 0 231 138t82 341zM1497 -20q-182 0 -254 149l-76 -477q-14 -84 -102 -84t-88 59q0 11 8 64l203 1284q8 51 32.5 66.5t67.5 15.5q80 0 80 -60
q0 -30 -16 -116q102 184 295 184q160 0 251 -113t91 -315q0 -283 -133.5 -470t-358.5 -187zM868 1028q0 191 -233 191h-131q-34 0 -41 -39l-64 -408h174q139 0 217 66t78 190zM668 1393q397 0 397 -344q0 -168 -102.5 -278.5t-286.5 -129.5q102 -49 188 -283t86 -299
q0 -32 -32 -53.5t-74 -21.5t-55.5 18.5t-24.5 52.5q-103 333 -169.5 437t-199.5 104h-24l-67 -433q-18 -117 -36 -146t-95 -29t-77 61q0 22 8 62l175 1106q28 176 200 176h189z" />
    <glyph glyph-name="threequartersemdash" unicode="&#xf6de;" horiz-adv-x="1602" 
d="M1419 467h-1237q-90 0 -90 86t90 86h1237q90 0 90 -86t-90 -86z" />
    </font>
</defs>
</svg>
