<?xml version="1.0" standalone="no"?>
<!DOCTYPE svg PUBLIC "-//W3C//DTD SVG 1.1//EN" "http://www.w3.org/Graphics/SVG/1.1/DTD/svg11.dtd" >
<svg xmlns="http://www.w3.org/2000/svg">
<metadata>
Created by FontPrep 20130207 at Tue Jan 13 16:51:01 2015
 By Rogerson, John (GE Global Research)
Digitized data (C) 2004 Monotype Imaging Inc. All rights reserved. GE Inspira is a trademark of the General Electric Company.
</metadata>
<defs>
<font id="d01f3ddf4dc2fa12e3994ccc8548d9d7" horiz-adv-x='1024' >
  <font-face 
    font-family="GEInspira-BoldItalic"
    font-weight="700"
    font-style="italic"
    font-stretch="normal"
    units-per-em="2048"
    panose-1="2 15 8 3 3 4 0 9 2 3"
    ascent="1638"
    descent="-410"
    x-height="1044"
    cap-height="1393"
    bbox="-465.034 -520 2718 2019"
    underline-thickness="198"
    underline-position="-164"
    slope="-9"
    unicode-range="U+0020-FB04"
  />
<missing-glyph horiz-adv-x="2048" 
d="M1608 111v1413h-1170v-1413h1170zM1661 1634q59 0 59 -57v-1524q0 -26 -18.5 -39.5t-44.5 -13.5h-1272q-59 0 -59 57v1514q0 63 53 63h1282z" />
    <glyph glyph-name=".notdef" horiz-adv-x="2048" 
d="M1608 111v1413h-1170v-1413h1170zM1661 1634q59 0 59 -57v-1524q0 -26 -18.5 -39.5t-44.5 -13.5h-1272q-59 0 -59 57v1514q0 63 53 63h1282z" />
    <glyph glyph-name=".null" horiz-adv-x="0" 
 />
    <glyph glyph-name="nonmarkingreturn" horiz-adv-x="485" 
 />
    <glyph glyph-name="space" unicode=" " horiz-adv-x="475" 
 />
    <glyph glyph-name="exclam" unicode="!" horiz-adv-x="514" 
d="M192 -20q-64 0 -103.5 40t-39.5 104t39.5 104t103.5 40t105 -41t41 -103t-41 -103t-105 -41zM225 369q-102 0 -102 71q0 10 6 49l133 828q14 90 120 90t105 -76q0 -29 -6 -53l-131 -815q-8 -51 -33 -72.5t-92 -21.5z" />
    <glyph glyph-name="quotedbl" unicode="&#x22;" horiz-adv-x="639" 
d="M188 874q-105 0 -105 85q0 10 2 22l51 322q16 104 122 104t106 -79q0 -12 -2 -25l-52 -322q-17 -107 -122 -107zM582 874q-106 0 -106 85q0 10 2 22l52 322q17 104 122 104t105 -79q0 -12 -2 -25l-51 -322q-16 -107 -122 -107z" />
    <glyph glyph-name="numbersign" unicode="#" horiz-adv-x="1286" 
d="M713 537q1 0 54 163l54 164h-246l-108 -327h246zM244 864q-99 0 -99 76q0 61 26.5 90t111.5 29h141l90 258q19 54 45 74t74 20t73.5 -19.5t25.5 -43.5t-5 -39l-88 -250h244l90 258q19 55 50 74.5t77 19.5q92 0 92 -64q0 -19 -8 -42l-86 -246h121q98 0 98 -76
q0 -56 -30.5 -87.5t-84.5 -31.5h-166l-108 -327h116q99 0 99 -78q0 -117 -115 -117h-166l-92 -268q-18 -51 -43 -72.5t-76 -21.5q-97 0 -97 77q0 18 7 39l86 246h-244l-92 -268q-18 -53 -40 -73.5t-74 -20.5q-101 0 -101 75q0 21 6 41l86 246h-116q-50 0 -74.5 17.5
t-24.5 64.5q0 113 119 113h160l108 327h-116z" />
    <glyph glyph-name="dollar" unicode="$" horiz-adv-x="1085" 
d="M748 391q0 59 -30.5 98.5t-96.5 71.5l-60 -375q187 30 187 205zM362 1004q0 -93 119 -154l56 356q-175 -26 -175 -202zM330 -128q0 26 2 36l12 80q-124 13 -230 64.5t-106 113.5q0 42 32.5 82.5t63.5 40.5q32 1 108 -45t163 -56l69 439q-311 112 -311 360
q0 180 114.5 296t321.5 128l11 59q12 63 37.5 79t66.5 16q84 0 84 -68q0 -18 -6 -51l-8 -45q143 -29 209.5 -77.5t76 -64.5t9.5 -47t-32.5 -73.5t-66.5 -42.5t-91 38q-56 38 -138 60l-66 -410q165 -60 237.5 -148.5t72.5 -217.5q0 -182 -111 -300t-326 -134l-10 -74
q-12 -94 -100 -94t-88 56z" />
    <glyph glyph-name="percent" unicode="%" horiz-adv-x="1968" 
d="M1378 324q0 -191 144 -191q86 0 137 92.5t51 220.5q0 195 -139 195q-90 0 -141.5 -94.5t-51.5 -222.5zM1907 455q0 -210 -104 -341.5t-300 -131.5q-151 0 -236 93t-85 273t104.5 312.5t298.5 132.5q154 0 238 -88t84 -250zM315 944q0 -190 144 -190q86 0 137 92.5
t51 220.5q0 195 -139 195q-89 0 -141 -94.5t-52 -223.5zM844 1075q0 -210 -104 -341.5t-300 -131.5q-151 0 -236 93t-85 274t104.5 312.5t298.5 131.5q154 0 238 -88t84 -250zM500 -20q-32 0 -65.5 30.5t-33.5 61.5t23 58l1014 1240q37 45 75 45t71.5 -28t33.5 -60t-31 -67
l-999 -1225q-18 -22 -37 -38.5t-51 -16.5z" />
    <glyph glyph-name="ampersand" unicode="&#x26;" horiz-adv-x="1253" 
d="M272 379q0 -89 62.5 -148t167.5 -59q156 0 258 123l-153 153q-71 71 -169 173q-78 -27 -122 -90t-44 -152zM47 365q0 283 264 403q-92 128 -92 254q0 172 116.5 281.5t287.5 109.5t284 -66t113 -133q0 -38 -33 -74t-70 -36t-82 38q-98 81 -193 81t-146.5 -53.5
t-51.5 -125.5t28 -128.5t71 -105.5t329 -341q46 130 46 276q0 91 108 91q49 0 74.5 -23t25.5 -61q0 -89 -28 -212t-76 -218l125 -127q55 -55 55 -93t-34 -74t-68 -36t-60 17.5t-72 67.5t-75 79q-172 -176 -418 -176q-197 0 -312.5 112.5t-115.5 272.5z" />
    <glyph glyph-name="quotesingle" unicode="'" horiz-adv-x="350" 
d="M234 874q-104 0 -104 85q0 10 2 22l51 322q16 104 121 104t105 -79q0 -12 -2 -25l-52 -322q-17 -107 -121 -107z" />
    <glyph glyph-name="parenleft" unicode="(" horiz-adv-x="434" 
d="M287 391q0 -233 32 -423q3 -17 3 -31q0 -43 -32 -66t-72 -23t-59.5 18.5t-50 137t-30.5 375.5t49.5 492t127.5 402.5t112.5 201.5t76.5 34t71.5 -27t29.5 -56t-43 -115q-215 -438 -215 -920z" />
    <glyph glyph-name="parenright" unicode=")" horiz-adv-x="434" 
d="M205 972q0 234 -27 384q-8 48 -8 80t32 53.5t76 21.5t63.5 -27.5t46 -156.5t26.5 -344t-34.5 -413.5t-86 -338t-100 -236.5t-80 -121t-69.5 -24t-67.5 28t-29.5 58t43 113q215 440 215 923z" />
    <glyph glyph-name="asterisk" unicode="*" horiz-adv-x="885" 
d="M358 716q-36 0 -73 30.5t-37 60.5t27 59l125 135l-175 37q-18 4 -42 22.5t-24 51.5t19.5 72t49.5 39t53 -11l166 -77l-17 182v6q0 84 92 84t92 -76q0 -7 -1 -14l-23 -182l168 73q19 8 50 8t51.5 -40t20.5 -74q0 -53 -67 -68l-180 -35l121 -135q24 -28 24 -60t-39 -62.5
t-73 -30.5t-60 47l-90 160l-94 -158q-28 -44 -64 -44z" />
    <glyph glyph-name="plus" unicode="+" horiz-adv-x="1208" 
d="M711 422v-295q0 -53 -24.5 -78.5t-82.5 -25.5t-82 25.5t-24 78.5v295h-285q-115 0 -115 102t115 101h285v293q0 57 25.5 80.5t81.5 23.5t81 -24t25 -80v-293h284q115 1 115 -101t-115 -102h-284z" />
    <glyph glyph-name="comma" unicode="," horiz-adv-x="471" 
d="M166 270q129 0 129 -192q0 -102 -61.5 -227t-139.5 -125q-40 0 -63 20t-23 54t30 96t30 139l-7 117q0 118 105 118z" />
    <glyph glyph-name="hyphen" unicode="-" horiz-adv-x="750" 
d="M575 442h-421q-93 0 -93 86q0 50 27.5 88.5t79.5 38.5h430q92 0 92 -86q0 -49 -29.5 -88t-85.5 -39z" />
    <glyph glyph-name="hyphen" unicode="&#x2010;" horiz-adv-x="750" 
d="M575 442h-421q-93 0 -93 86q0 50 27.5 88.5t79.5 38.5h430q92 0 92 -86q0 -49 -29.5 -88t-85.5 -39z" />
    <glyph glyph-name="period" unicode="." horiz-adv-x="494" 
d="M208 -20q-64 0 -103 40t-39 104t39 104t103 40t105 -41t41 -103t-41 -103t-105 -41z" />
    <glyph glyph-name="slash" unicode="/" horiz-adv-x="774" 
d="M72 -145q-51 0 -94.5 30t-43.5 64t27 90l737 1444q32 61 86 61t94 -27t40 -61t-27 -90l-739 -1454q-29 -57 -80 -57z" />
    <glyph glyph-name="zero" unicode="0" horiz-adv-x="1085" 
d="M307 498q0 -152 51.5 -233t147.5 -81q163 0 253.5 212t90.5 512t-191 300q-153 0 -252.5 -209.5t-99.5 -500.5zM1067 910q0 -242 -67 -463.5t-198.5 -344t-317.5 -122.5t-295 137t-109 383q0 392 161.5 652.5t428.5 260.5q195 0 296 -130.5t101 -372.5z" />
    <glyph glyph-name="one" unicode="1" horiz-adv-x="952" 
d="M259 1044q-30 0 -55.5 37.5t-25.5 75.5q0 59 74 92l297 133q74 33 115 33t69.5 -28t28.5 -64t-8 -86l-164 -1034h182q49 0 72.5 -19t23.5 -70t-29.5 -82.5t-76.5 -31.5h-604q-52 0 -74.5 21t-22.5 67q0 115 107 115h199l147 946q-157 -79 -191 -92t-64 -13z" />
    <glyph glyph-name="two" unicode="2" horiz-adv-x="1001" 
d="M772 211q82 0 82 -82t-41.5 -105.5t-77.5 -23.5h-559q-78 0 -120 40t-42 108t35.5 181t439.5 365q166 105 231.5 181t65.5 179q0 102 -67.5 128t-122.5 26q-92 0 -193 -86q-23 -21 -43 -36t-45 -15q-46 0 -79 35t-33 70t15.5 60t69.5 70t139.5 76t183.5 31q193 0 298 -92
t105 -264q0 -228 -154 -347.5t-266 -187.5q-204 -125 -276 -194t-72 -99q0 -18 24 -18h502z" />
    <glyph glyph-name="three" unicode="3" horiz-adv-x="999" 
d="M291 1186q-94 0 -94 68q0 59 26.5 99t87.5 40h525q69 0 114 -33.5t45 -89.5t-19 -92.5t-56 -71.5l-297 -279q222 -37 266.5 -162.5t44.5 -206.5t-31.5 -168.5t-137 -198.5t-359.5 -111q-188 0 -326 108q-51 39 -51 100t40.5 84t56.5 23t26 -2.5t19.5 -7t19 -12
t25.5 -18.5q100 -71 211 -71q129 0 202 71.5t73 190.5q0 146 -92.5 178.5t-144.5 32.5q-79 0 -109 31t-30 78t65 106l281 258q12 13 20 20.5t8 16.5q0 19 -24 19h-385z" />
    <glyph glyph-name="four" unicode="4" horiz-adv-x="1071" 
d="M952 494q88 0 88 -76q0 -84 -35 -106.5t-67 -22.5h-82l-31 -199q-9 -54 -38.5 -80t-87.5 -26q-117 0 -99 106l31 199h-395q-133 0 -158 61.5t-25 113.5t56 136l475 737q47 72 85 72q59 0 97.5 -28t38.5 -63q0 -34 -33 -81l-453 -688q-22 -36 -12 -46.5t35 -10.5h322
l73 464q8 53 35 79t88 26q118 0 103 -105l-74 -462h63z" />
    <glyph glyph-name="five" unicode="5" horiz-adv-x="1026" 
d="M566 889q171 0 270.5 -103t99.5 -307q0 -205 -131.5 -352t-386.5 -147q-141 0 -267 60t-126 132q0 41 30.5 77t60.5 36q31 0 45.5 -7.5t44.5 -24.5q67 -38 115.5 -53.5t109.5 -15.5q126 0 202 78t76 215q0 90 -56 149.5t-161 59.5q-60 0 -130 -17.5t-104 -17.5t-62 23.5
t-28 66.5t25 146l81 352q36 154 213 154h435q98 0 98 -76q0 -88 -47 -107.5t-80 -19.5h-381q-28 0 -37 -31l-67 -289q76 19 158 19z" />
    <glyph glyph-name="six" unicode="6" horiz-adv-x="1085" 
d="M805 466q1 230 -217 230q-110 0 -178 -80t-68 -194t56 -179t165 -65t175.5 88t66.5 200zM654 901q186 0 283 -107t97 -306t-132 -353.5t-348 -154.5t-332 132.5t-116 372.5q0 420 193.5 674t523.5 254q77 0 145 -14.5t92.5 -37.5t24.5 -64t-25 -78t-58 -37q-34 0 -84 13
t-107 13q-171 0 -290.5 -118.5t-164.5 -339.5q112 151 298 151z" />
    <glyph glyph-name="seven" unicode="7" horiz-adv-x="1085" 
d="M799 1190h-473q-47 0 -65.5 17t-18.5 65t24.5 84.5t67.5 36.5h629q70 0 110.5 -40t40.5 -117t-88 -185q-399 -511 -559 -992q-17 -49 -38 -64t-68 -15t-81 24.5t-34 61.5q0 115 151.5 411t415.5 653q18 24 18 42t-32 18z" />
    <glyph glyph-name="eight" unicode="8" horiz-adv-x="1085" 
d="M313 402q0 -102 58.5 -160t169.5 -58t176 71t65 170t-59 156.5t-164 57.5t-175.5 -67.5t-70.5 -169.5zM440 1012q0 -80 45 -128t133 -48t141.5 61t53.5 140t-45.5 125t-131.5 46t-141 -58t-55 -138zM1012 442q0 -194 -135 -328t-351 -134t-329 113t-113 263
q0 301 270 406q-63 35 -100 103t-37 149q0 174 118.5 286.5t306.5 112.5t295 -93t107 -241q0 -259 -223 -346q88 -37 139.5 -117.5t51.5 -173.5z" />
    <glyph glyph-name="nine" unicode="9" horiz-adv-x="1085" 
d="M362 926q0 -230 217 -230q110 0 178 80t68 194t-55.5 179t-165.5 65t-176 -88t-66 -200zM500 492q-171 0 -269 106t-98 306t132.5 354.5t349.5 154.5t331.5 -133t114.5 -373q0 -420 -193.5 -673.5t-523.5 -253.5q-103 0 -184.5 26t-81.5 88q0 47 25 84t53 37t78 -15.5
t122 -15.5q172 0 291.5 120t163.5 339q-52 -72 -133.5 -111.5t-177.5 -39.5z" />
    <glyph glyph-name="colon" unicode=":" horiz-adv-x="471" 
d="M178 -20q-64 0 -103.5 40t-39.5 104t39.5 104t103.5 40t105 -41.5t41 -102.5t-41 -102.5t-105 -41.5zM286 700q-64 0 -103.5 40t-39.5 104t39.5 104.5t103.5 40.5t105 -41t41 -103t-41 -103.5t-105 -41.5z" />
    <glyph glyph-name="semicolon" unicode=";" horiz-adv-x="471" 
d="M166 270q129 0 129 -192q0 -102 -61.5 -227t-139.5 -125q-40 0 -63 20t-23 54t30 96t30 139l-7 117q0 118 105 118zM286 702q-64 0 -103.5 40t-39.5 104t39.5 104.5t103.5 40.5t105 -41t41 -103t-41 -103.5t-105 -41.5z" />
    <glyph glyph-name="less" unicode="&#x3c;" horiz-adv-x="1208" 
d="M1081 138q0 -44 -25.5 -79.5t-65.5 -35.5t-77 18l-716 387q-70 38 -70 98t72 92l698 377q50 27 89 27t67 -33t28 -79t-63 -81l-578 -307l578 -307q63 -33 63 -77z" />
    <glyph glyph-name="equal" unicode="=" horiz-adv-x="1208" 
d="M995 217h-782q-115 -1 -115 101t115 102h782q115 0 115 -102t-115 -101zM995 614h-782q-115 0 -115 101q0 53 27.5 77.5t87.5 24.5h782q60 0 87.5 -24.5t27.5 -77.5q0 -101 -115 -101z" />
    <glyph glyph-name="greater" unicode="&#x3e;" horiz-adv-x="1208" 
d="M129 904q0 44 26 80t66 36t76 -19l717 -387q69 -38 69 -96t-71 -94l-699 -377q-50 -27 -89 -27t-67 33.5t-28 79.5t64 80l577 307l-577 307q-64 33 -64 77z" />
    <glyph glyph-name="question" unicode="?" horiz-adv-x="903" 
d="M328 -20q-64 0 -104 40t-40 104t39.5 104t103.5 40t105 -41t41 -103t-40.5 -103t-104.5 -41zM356 369q-100 0 -100 75q0 253 238 383q127 69 171 120.5t44 116.5t-41.5 104.5t-109.5 39.5t-115 -22.5t-101 -63.5t-92 -41t-69 33.5t-31 71.5t21.5 68.5t122 94.5t272.5 64
q173 0 273.5 -89.5t100.5 -223.5t-66.5 -230.5t-220.5 -183.5q-71 -41 -115.5 -79.5t-60.5 -147.5q-7 -47 -34.5 -68.5t-86.5 -21.5z" />
    <glyph glyph-name="at" unicode="@" horiz-adv-x="1681" 
d="M672 586q0 -174 133 -174q69 0 122 56t64 132l21 121q4 23 4 65t-36 75.5t-97 33.5q-100 0 -155.5 -93t-55.5 -216zM737 244q-117 0 -190.5 88t-73.5 241q0 211 108 351.5t275 140.5q135 0 191 -113l6 39q6 39 28 54.5t72 15.5q84 0 84 -62q0 -23 -12 -81l-47 -283
q-15 -90 -15 -125q0 -88 58 -88t109.5 84t51.5 229q0 219 -139 354.5t-369 135.5t-377 -156.5t-147 -406.5t138 -396.5t358 -146.5q114 -1 199 35t114 36t55.5 -35t26.5 -75q0 -64 -124 -109t-277 -45q-310 0 -507.5 204.5t-197.5 531.5t207.5 540t531.5 213t522.5 -189.5
t198.5 -492.5q0 -224 -117 -356.5t-294 -132.5q-83 0 -135 39t-64 108q-91 -147 -248 -147z" />
    <glyph glyph-name="A" unicode="A" horiz-adv-x="1214" 
d="M721 1126q-156 -268 -283 -536h387q-43 310 -104 536zM1122 84q0 -104 -143 -104q-48 0 -64.5 21.5t-24.5 126.5t-30 255h-516q-45 -91 -76.5 -165t-51.5 -120q-32 -76 -50.5 -97t-48.5 -21q-59 0 -101.5 24.5t-42.5 58.5q0 72 205 491t424 755q30 49 61.5 74.5
t84.5 25.5h16q82 0 129 -112t117.5 -456.5t86.5 -486.5q16 -141 20.5 -179t4.5 -91z" />
    <glyph glyph-name="B" unicode="B" horiz-adv-x="1208" 
d="M887 1019q0 85 -45 123t-152 38h-147q-19 0 -32.5 -13.5t-16.5 -31.5l-48 -301h216q154 0 189.5 70.5t35.5 114.5zM846 442q0 183 -219 183h-215l-60 -373q0 -17 6.5 -28t28.5 -11h195q198 0 231 89t33 140zM1079 424q0 -182 -135 -303t-377 -121h-311q-147 0 -147 133
q0 25 5 55t11 72l149 940q31 193 224 193h231q212 0 303.5 -89.5t91.5 -230.5q0 -198 -104 -262.5t-160 -79.5q219 -68 219 -307z" />
    <glyph glyph-name="C" unicode="C" horiz-adv-x="1233" 
d="M635 -20q-252 0 -387 159t-135 428q0 368 186.5 607t503.5 239q195 0 286 -71.5t114.5 -104t23.5 -68.5t-34.5 -74t-76.5 -38t-96 52q-99 93 -227 93q-214 0 -332.5 -179.5t-118.5 -442.5q0 -186 81.5 -286.5t225.5 -100.5t286 106q27 20 62 20t65 -35.5t30 -76.5
q0 -71 -147.5 -149t-309.5 -78z" />
    <glyph glyph-name="D" unicode="D" horiz-adv-x="1382" 
d="M381 213h201q230 0 349.5 169.5t119.5 453.5q0 163 -85.5 253.5t-244.5 90.5h-191q-15 0 -24.5 -11t-9.5 -28l-144 -895q0 -33 29 -33zM559 0h-309q-67 0 -103 38t-36 109q0 22 14 119l154 969q12 76 64.5 117t135.5 41h242q278 0 419.5 -142.5t141.5 -414.5
q0 -367 -185.5 -601.5t-537.5 -234.5z" />
    <glyph glyph-name="E" unicode="E" horiz-adv-x="1087" 
d="M827 213q103 0 103 -54q0 -129 -50 -144t-85 -15h-529q-75 0 -117.5 34.5t-42.5 100.5q0 9 2.5 23t8.5 51l155 993q31 191 226 191h516q57 0 79.5 -17.5t22.5 -43.5t-4 -48q-10 -54 -36 -79t-95 -25h-446q-16 0 -27.5 -11t-13.5 -28l-50 -310h418q59 0 80 -19t21 -43
q-1 -24 -5 -47q-11 -54 -37.5 -79t-93.5 -25h-417l-52 -331q-2 -14 -4 -27t-2 -24q0 -23 23 -23h452z" />
    <glyph glyph-name="F" unicode="F" horiz-adv-x="1024" 
d="M1001 1393q103 0 103 -70q0 -80 -33 -111.5t-102 -31.5h-434q-16 0 -27.5 -11t-13.5 -28l-54 -330h383q59 0 80 -19.5t21 -41.5v-29q0 -123 -133 -123h-383l-82 -514q-10 -56 -43 -78t-87 -22t-78 16.5t-24 46.5t6 64l172 1091q31 191 226 191h503z" />
    <glyph glyph-name="G" unicode="G" horiz-adv-x="1356" 
d="M754 561q-88 1 -88 65q0 58 24.5 103t77.5 45h367q96 0 96 -78v-12t-2 -14l-68 -422q-20 -135 -147 -193q-164 -75 -359 -75q-247 0 -398 157t-151 418q0 368 198 613t550 245q201 0 352 -90q80 -48 80 -93q0 -46 -33 -88t-64 -42t-51.5 10.5t-59.5 31.5q-108 58 -214 58
q-107 0 -179 -24.5t-155 -88t-139.5 -207t-56.5 -309.5q0 -279 134 -333t222 -54t150 24t79.5 40.5t22.5 44.5l43 268h-231z" />
    <glyph glyph-name="H" unicode="H" horiz-adv-x="1364" 
d="M1000 -16q-54 0 -81.5 16.5t-27.5 47.5t6 63l80 497h-567l-84 -524q-10 -56 -40 -78t-84 -22t-81 15.5t-27 57.5q0 9 6 49l191 1207q10 57 36.5 76.5t81.5 19.5t84 -14t29 -58v-7q0 -3 -1 -10.5t-2.5 -20t-4.5 -33.5l-72 -445h568l77 492q10 56 37 76t82 20t84 -14
t29 -58v-10q0 -10 -10 -65l-187 -1178q-9 -56 -38.5 -78t-83.5 -22z" />
    <glyph glyph-name="I" unicode="I" horiz-adv-x="567" 
d="M202 -16q-54 0 -81 15.5t-27 57.5q0 7 2.5 25t5.5 41l189 1190q10 57 36.5 76.5t81.5 19.5t84 -14.5t29 -48.5t-10 -86l-186 -1176q-10 -56 -40 -78t-84 -22z" />
    <glyph glyph-name="J" unicode="J" horiz-adv-x="961" 
d="M372 -20q-130 0 -238.5 55t-108.5 121q0 44 31.5 81t57.5 37t36.5 -3t52.5 -23q95 -55 175 -55t130 53.5t82 245.5l131 823q9 57 32.5 75.5t82.5 18.5q116 0 116 -76q0 -24 -12 -86l-123 -768q-28 -172 -78.5 -277.5t-143.5 -163.5t-223 -58z" />
    <glyph glyph-name="K" unicode="K" horiz-adv-x="1180" 
d="M415 1409q107 0 107 -61q0 -30 -8 -74l-72 -457q147 108 300 254t262 283q46 57 92 57q45 0 86 -34.5t41 -76.5q0 -18 -8 -37t-72 -98t-188 -196t-257 -224q184 -235 275.5 -413.5t99.5 -205t8 -42.5q0 -42 -47 -72t-88 -30t-56 13.5t-36 53.5q-168 333 -348 569l-50 -33
q-27 -16 -57 -36l-73 -465q-9 -56 -42 -78t-86 -22t-78.5 16t-25.5 57v7q0 4 6 55l191 1194q8 51 37 73.5t87 22.5z" />
    <glyph glyph-name="L" unicode="L" horiz-adv-x="1022" 
d="M295 1323q20 86 124 86q103 0 103 -69q0 -34 -8 -74l-158 -992q-4 -25 -4 -34q0 -27 23 -27h444q90 0 90 -74q0 -59 -30 -99t-84 -40h-527q-75 0 -117 34.5t-42 102.5q0 28 24 180z" />
    <glyph glyph-name="M" unicode="M" horiz-adv-x="1608" 
d="M1444 1409q121 0 121 -98q0 -12 -9 -70l-184 -1159q-9 -54 -34.5 -76t-88.5 -22q-96 0 -96 69q0 23 6 60l148 923l-375 -516q-54 -74 -144 -74q-41 0 -67.5 13t-46.5 59l-209 518l-152 -954q-9 -57 -36.5 -77.5t-83.5 -20.5q-99 0 -99 69q0 22 6 56l185 1161
q12 76 39.5 107.5t89.5 31.5t87 -17.5t44 -66.5l266 -672l475 672q58 84 158 84z" />
    <glyph glyph-name="N" unicode="N" horiz-adv-x="1405" 
d="M965 3.5q-26 19.5 -44 57.5l-456 976l-152 -955q-9 -56 -37 -77t-80 -21t-77 15.5t-25 46.5t6 65l183 1151q24 147 147 147q82 0 112 -78l445 -963l150 941q9 58 36 79t79 21t80 -16t28 -60q0 -14 -8 -67l-185 -1162q-11 -65 -44.5 -92.5t-82.5 -27.5t-75 19.5z" />
    <glyph glyph-name="O" unicode="O" horiz-adv-x="1380" 
d="M793 1210q-81 0 -145.5 -27t-137.5 -94t-122.5 -215t-49.5 -307q0 -260 110 -322.5t196 -62.5t150.5 28t135.5 96t118.5 216t47.5 265q0 116 -16.5 185.5t-53 122t-94.5 84t-139 31.5zM808 1413q242 0 379.5 -146t137.5 -419q0 -335 -138 -547t-287.5 -266.5
t-275.5 -54.5q-246 0 -380.5 158t-134.5 417q0 337 138.5 545t288.5 260.5t272 52.5z" />
    <glyph glyph-name="P" unicode="P" horiz-adv-x="1108" 
d="M633 715q134 0 204 73.5t70 194.5q0 197 -215 197h-160q-14 0 -25.5 -11t-14.5 -28l-68 -426h209zM203 -16q-107 0 -107 73q0 19 8 66l170 1079q30 191 218 191h241q201 0 305.5 -103.5t104.5 -305.5t-133 -342t-385 -140h-232l-65 -420q-7 -48 -32 -73t-93 -25z" />
    <glyph glyph-name="Q" unicode="Q" horiz-adv-x="1380" 
d="M338 567q0 -180 79.5 -282.5t231.5 -102.5q208 0 327.5 188.5t119.5 456.5q0 177 -79 280t-226 103q-209 0 -331 -187t-122 -456zM1004 -212q0 -44 -31.5 -81t-81.5 -37q-149 0 -240.5 82.5t-101.5 231.5q-208 22 -324 175.5t-116 395.5q0 366 186.5 612t517.5 246
q239 0 375.5 -148.5t136.5 -416.5q0 -321 -148.5 -563t-422.5 -293q23 -108 151 -119q52 -3 75.5 -22t23.5 -63z" />
    <glyph glyph-name="R" unicode="R" horiz-adv-x="1194" 
d="M915 1031q0 75 -54.5 116t-164.5 41h-159q-14 0 -26 -11t-15 -28l-58 -367h209q191 0 229.5 87t38.5 162zM451 575h-45l-78 -493q-10 -56 -37.5 -77t-82.5 -21q-56 0 -84 15.5t-28 47.5t8 76l170 1079q31 191 218 191h241q333 0 375.5 -138.5t42.5 -212.5
q0 -160 -100 -274t-281 -133q75 -49 126 -140t98 -240q48 -150 48 -189t-43 -62.5t-91 -23.5t-62.5 17t-24.5 46q-99 330 -165.5 419t-116.5 101t-88 12z" />
    <glyph glyph-name="S" unicode="S" horiz-adv-x="1049" 
d="M965 439q0 -71 -11.5 -123.5t-51 -129.5t-151 -141.5t-286.5 -64.5q-252 0 -393 110q-43 34 -43 79t30.5 86.5t58.5 41.5q29 0 45.5 -8t56.5 -32q118 -71 255 -71q191 0 222.5 81t31.5 125q0 84 -51 128.5t-158 82.5q-187 66 -269.5 156.5t-82.5 227.5q0 187 129 306.5
t356 119.5t367 -113q47 -38 47 -67q0 -50 -34.5 -91.5t-65.5 -41.5t-52 11.5t-46 25.5q-120 67 -201 67q-131 0 -190.5 -54t-59.5 -153q0 -98 72 -134t135 -57t127 -51t111 -74.5t74.5 -107.5t27.5 -134z" />
    <glyph glyph-name="T" unicode="T" horiz-adv-x="1040" 
d="M238 1180q-103 0 -103 71q0 89 37.5 115.5t73.5 26.5h782q62 0 86.5 -15t24.5 -55q0 -143 -121 -143h-273l-174 -1082q-19 -114 -134 -114t-115 90q0 13 18 127l158 979h-260z" />
    <glyph glyph-name="U" unicode="U" horiz-adv-x="1319" 
d="M1178 1409q106 0 106 -80q0 -10 -2 -22t-3 -21.5t-3 -17.5l-129 -815q-79 -473 -565 -473q-309 0 -376 151t-67 232t11 151l126 795q10 54 37.5 77t85.5 23q109 0 109 -80q0 -14 -8 -59l-123 -783q-8 -38 -8 -96q0 -100 62.5 -152.5t158.5 -52.5q163 0 235 68.5t93 198.5
l135 856q8 54 37 77t88 23z" />
    <glyph glyph-name="V" unicode="V" horiz-adv-x="1165" 
d="M314 1413q35 0 49.5 -20.5t16.5 -90.5q13 -603 124 -1040q271 440 504 1059q19 51 37 71.5t52 20.5q65 0 106.5 -23t41.5 -62t-24 -101.5t-55 -142.5q-84 -216 -246 -518.5t-316 -516.5q-46 -65 -133 -65h-16q-87 0 -111 67q-156 431 -173 801t-17 424t18 95.5t142 41.5z
" />
    <glyph glyph-name="W" unicode="W" horiz-adv-x="1884" 
d="M432 -16q-39 0 -64 14t-37 44.5t-45 167t-73.5 432t-40.5 663.5q0 60 35 83t93 23t75.5 -23.5t17.5 -72.5q0 -634 85 -1059q196 338 468 1069q17 45 45.5 65.5t79.5 20.5q113 0 113 -90v-39q0 -191 31.5 -527t70.5 -491q125 220 249 510t206 541q21 62 43 79t72 17
t86 -26.5t36 -64.5t-92 -266.5t-222.5 -491.5t-219 -399.5t-118 -157.5t-89.5 -21t-87 43t-76.5 317.5t-68.5 631.5q-167 -454 -302 -684.5t-160 -259t-48.5 -38.5t-62.5 -10z" />
    <glyph glyph-name="X" unicode="X" horiz-adv-x="1110" 
d="M969 154q0 -90 -29.5 -130t-96.5 -40t-88.5 21.5t-23.5 84.5q-5 264 -170 479q-273 -227 -352 -479q-22 -65 -44 -85.5t-83 -20.5q-98 0 -98 90q0 136 109.5 302.5t322.5 334.5q-107 153 -154 291t-47 294q0 113 135 113q53 0 76 -19t23 -73q0 -245 149 -479
q148 129 217 236t96 201t50.5 114t82.5 20q111 0 111 -92q0 -118 -113 -294t-301 -325q228 -279 228 -544z" />
    <glyph glyph-name="Y" unicode="Y" horiz-adv-x="1053" 
d="M422 -16q-105 0 -105 73q0 18 9 66l65 414q-133 197 -187 373t-54 376q0 67 29 95t90 28t82.5 -20t21.5 -68q0 -340 157 -594q264 255 355 582q17 65 40 82.5t77 17.5t89 -21t35 -57q0 -118 -132.5 -350t-372.5 -444l-72 -453q-8 -52 -37 -76t-90 -24z" />
    <glyph glyph-name="Z" unicode="Z" horiz-adv-x="1083" 
d="M854 229q45 0 65.5 -18t20.5 -71t-33 -96.5t-88 -43.5h-723q-116 0 -116 123q0 105 107 254.5t421 432.5t340 353h-559q-86 0 -86 86q0 62 33 103t88 41h677q138 0 138 -121q0 -128 -114 -260t-358 -354q-371 -338 -403 -429h590z" />
    <glyph glyph-name="bracketleft" unicode="[" horiz-adv-x="561" 
d="M379 47q66 0 87 -17.5t21 -71.5t-34.5 -87t-94.5 -33h-131q-157 0 -157 139q0 21 14 119l199 1256q26 164 194 164h133q57 0 82 -20t25 -74t-33.5 -84.5t-93.5 -30.5h-94l-201 -1260h84z" />
    <glyph glyph-name="backslash" unicode="\" horiz-adv-x="774" 
d="M186 1417q0 48 34.5 73.5t88.5 25.5q83 0 99 -78l260 -1411q14 -77 14 -113t-29.5 -63t-85.5 -27q-91 0 -106 76l-262 1429q-13 71 -13 88z" />
    <glyph glyph-name="bracketright" unicode="]" horiz-adv-x="561" 
d="M225 1307q-70 0 -90 17.5t-20 69.5t34 85.5t95 33.5h143q75 0 110 -33t35 -106q0 -29 -14 -119l-199 -1255q-26 -164 -194 -164h-133q-58 0 -82.5 20t-24.5 74t34 84.5t93 30.5h94l201 1262h-82z" />
    <glyph glyph-name="asciicircum" unicode="^" horiz-adv-x="1208" 
d="M244 643q-30 0 -67.5 30.5t-37.5 61.5t23 72t163 238l206 290q38 53 59.5 65.5t55.5 12.5t55.5 -10.5t43.5 -42.5l381 -547q29 -43 29 -75t-34 -63.5t-69 -31.5t-48.5 5.5t-25 16.5t-65.5 87l-266 370l-262 -366q-43 -60 -60.5 -80t-34 -26.5t-46.5 -6.5z" />
    <glyph glyph-name="underscore" unicode="_" horiz-adv-x="1024" 
d="M1020 -362h-1016q-84 0 -84 99t84 99h1016q84 0 84 -99t-84 -99z" />
    <glyph glyph-name="grave" unicode="`" horiz-adv-x="530" 
d="M588 1328q0 -39 -25 -69t-63 -30t-84 35l-201 143q-57 41 -57 85t28.5 74.5t68.5 30.5t95 -43l182 -143q56 -44 56 -83z" />
    <glyph glyph-name="a" unicode="a" horiz-adv-x="1157" 
d="M72 414q0 277 141 464t356 187t277 -150l8 52q10 56 38 75t80 19t75.5 -15t23.5 -45t-10 -90l-131 -833q-8 -54 -34.5 -74t-78.5 -20q-51 0 -77.5 12.5t-26.5 52.5q0 8 6 53l10 60q-101 -182 -307 -182q-150 0 -250 111t-100 323zM797 689q0 74 -49.5 123.5t-125.5 49.5
t-120.5 -21t-92.5 -70.5t-79 -150t-31 -208.5t53 -170t158 -62t169.5 76t82.5 188l29 172q6 38 6 73z" />
    <glyph glyph-name="b" unicode="b" horiz-adv-x="1126" 
d="M410 913q106 152 288 152t269.5 -113t87.5 -297q0 -244 -114 -414t-239 -215.5t-229 -45.5q-191 0 -279 101.5t-88 254.5q0 41 17 166l147 940q10 58 36 76t83 18q56 0 82.5 -13.5t26.5 -43.5t-11 -88zM827 614q0 254 -196 254q-160 0 -208.5 -104.5t-57.5 -171.5
l-23 -141q-10 -50 -10 -116t44.5 -108.5t116.5 -42.5t119 22t98.5 75t84 156.5t32.5 176.5z" />
    <glyph glyph-name="c" unicode="c" horiz-adv-x="987" 
d="M469 -20q-178 0 -287.5 120t-109.5 320q0 291 146.5 468t387.5 177q137 0 244.5 -58.5t107.5 -132.5q0 -40 -34 -78t-64 -38t-46 7t-54 37q-76 58 -164 58q-126 0 -209.5 -117t-83.5 -313q0 -119 52.5 -180.5t146.5 -61.5t182 62q42 31 78 31t68 -35.5t32 -73.5
q0 -61 -107.5 -126.5t-285.5 -65.5z" />
    <glyph glyph-name="d" unicode="d" horiz-adv-x="1139" 
d="M422 -20q-156 0 -253 115t-97 319q0 281 142 466t364 185q188 0 258 -141l84 518q9 53 36.5 73.5t92.5 20.5q98 0 98 -70q0 -19 -6 -51l-211 -1337q-9 -58 -37 -76t-86 -18q-94 0 -94 65q0 19 6 47l10 66q-103 -182 -307 -182zM506 180q101 0 169 71t87 193l29 172
q6 36 6 74q0 76 -52 124t-141 48q-143 0 -224 -133t-81 -307q0 -117 53 -179.5t154 -62.5z" />
    <glyph glyph-name="e" unicode="e" horiz-adv-x="1008" 
d="M174 94.5q-102 114.5 -102 292.5q0 324 162.5 501t393.5 177q232 0 277 -112t45 -187q0 -161 -141 -257.5t-389 -96.5h-125q0 -113 45.5 -178t144.5 -65t199 55q46 27 69 27q43 0 72 -28t29 -68t-62 -83q-132 -92 -324 -92t-294 114.5zM737 766q0 46 -36.5 81t-98.5 35
q-114 0 -189.5 -80.5t-103.5 -211.5h103q246 0 285.5 65t39.5 111z" />
    <glyph glyph-name="f" unicode="f" horiz-adv-x="647" 
d="M172 854q-90 0 -90 66q0 59 25 91.5t94 32.5h67l25 148q27 173 112.5 258.5t256.5 85.5q93 0 143 -22q49 -22 58 -39t9 -47.5t-28 -69.5t-54 -39t-61 11t-69 11q-63 0 -96 -36.5t-48 -124.5l-22 -136h124q53 0 71 -17t18 -37v-68q0 -68 -117 -68h-125l-123 -776
q-9 -54 -42 -74t-84 -20t-76 14.5t-25 46.5t8 78l117 731h-68z" />
    <glyph glyph-name="g" unicode="g" horiz-adv-x="1157" 
d="M979 1061q94 0 94 -66q0 -12 -4 -28l-143 -910q-37 -238 -157 -363.5t-378 -125.5q-174 0 -309 70q-70 37 -70 81t20 69t37 35t37 10t37.5 -8.5t85.5 -36.5t152 -28q158 0 230 66.5t102 245.5l14 93q-36 -64 -114 -114.5t-168 -50.5q-171 0 -272 111.5t-101 302.5
q0 277 141 464t356 187t277 -150l8 52q10 56 38 75t87 19zM502 197q167 0 209 100.5t51 146.5l29 172q6 38 6 73q0 74 -49.5 123.5t-125.5 49.5t-120.5 -20.5t-92.5 -69t-79 -149t-31 -203.5q0 -102 53 -162.5t150 -60.5z" />
    <glyph glyph-name="h" unicode="h" horiz-adv-x="1145" 
d="M434 911q124 154 284 154q153 0 234.5 -76.5t81.5 -226.5q0 -55 -10 -113l-90 -571q-9 -54 -39.5 -74t-81.5 -20q-106 0 -106 71q0 11 6 51l82 519q6 39 6 71q0 158 -150 158q-144 0 -202.5 -107.5t-73.5 -203.5l-72 -465q-8 -54 -41 -74t-84 -20q-102 0 -102 71
q0 9 3 30l214 1359q11 92 119 92t108 -72q-6 -48 -10 -73z" />
    <glyph glyph-name="i" unicode="i" horiz-adv-x="518" 
d="M296 1255.5q-36 34.5 -36 76.5q0 68 36 104.5t76 36.5q65 0 102.5 -36t37.5 -77q0 -40 -10 -63t-36.5 -49.5t-80 -26.5t-89.5 34.5zM350 1061q90 0 90 -70q0 -19 -8 -65l-135 -848q-16 -94 -131 -94q-45 0 -70.5 14.5t-25.5 45.5t8 75l135 852q11 74 56 82t81 8z" />
    <glyph glyph-name="j" unicode="j" horiz-adv-x="518" 
d="M338 1061q102 0 102 -62q0 -28 -14 -106l-156 -979q-29 -184 -117.5 -265t-246.5 -81q-89 0 -150 26t-61 77t26 85.5t60 34.5l119 -20q123 0 145 143l168 1057q8 49 37.5 69.5t87.5 20.5zM260 1346q0 54 36.5 90.5t89.5 36.5t89.5 -37.5t36.5 -89.5t-38 -88.5t-90 -36.5
t-88 35.5t-36 89.5z" />
    <glyph glyph-name="k" unicode="k" horiz-adv-x="1006" 
d="M891 1063q37 0 73.5 -33t36.5 -62t-11.5 -51t-95 -113.5t-269.5 -219.5q105 -121 194.5 -280t89.5 -232q0 -40 -38.5 -65t-83.5 -25t-61.5 13.5t-33.5 51.5q-103 244 -248 422q-36 -24 -96 -57l-51 -334q-15 -94 -121 -94t-106 69q0 17 4 39l213 1354q7 46 36 68t91 22
q100 0 100 -68q0 -14 -8 -61l-119 -752q242 171 408 357q28 31 43.5 41t52.5 10z" />
    <glyph glyph-name="l" unicode="l" horiz-adv-x="518" 
d="M176 -16q-106 0 -106 69q0 16 8 66l209 1327q8 51 37.5 70.5t87.5 19.5t80 -17t22 -38t-8 -76l-209 -1327q-15 -94 -121 -94z" />
    <glyph glyph-name="m" unicode="m" horiz-adv-x="1722" 
d="M1376 714q0 140 -133 140q-105 0 -173 -85t-87 -210l-76 -481q-9 -54 -39.5 -74t-81.5 -20q-106 0 -106 71v9q0 8 2 14l82 534q8 59 8 88q0 83 -36 118.5t-90 35.5q-102 0 -175.5 -85t-93.5 -216l-74 -475q-9 -54 -41.5 -74t-83.5 -20q-102 0 -102 71v9q0 8 2 14l141 893
q8 53 38.5 71.5t82.5 18.5q106 0 106 -68q0 -23 -6 -49l-6 -35q120 156 304 156t239 -178q139 178 343 178t248 -112.5t44 -174.5t-10 -125l-91 -575q-9 -54 -39 -74t-81 -20q-107 0 -107 71v9q0 8 2 14l82 534q8 61 8 102z" />
    <glyph glyph-name="n" unicode="n" horiz-adv-x="1145" 
d="M432 907q118 158 316 158q197 0 241.5 -112.5t44.5 -178.5t-10 -125l-90 -571q-9 -54 -39.5 -74t-81.5 -20q-106 0 -106 71q0 13 10 76l78 494q6 39 6 71q0 158 -150 158q-144 0 -202.5 -107.5t-73.5 -203.5l-72 -465q-8 -54 -41 -74t-84 -20q-102 0 -102 71q0 12 10 74
l133 842q8 53 38.5 71.5t79.5 18.5t79 -14t30 -56q0 -16 -6 -45z" />
    <glyph glyph-name="o" unicode="o" horiz-adv-x="1120" 
d="M590 860q-66 0 -123 -37t-111.5 -126t-54.5 -260q0 -172 81.5 -212.5t149.5 -40.5t124 37t109.5 125.5t53.5 262.5t-81.5 212.5t-147.5 38.5zM622 1065q205 0 316 -125t111 -351t-135.5 -417.5t-413.5 -191.5q-213 0 -320.5 132.5t-107.5 345.5q0 214 103 369t222 196.5
t225 41.5z" />
    <glyph glyph-name="p" unicode="p" horiz-adv-x="1141" 
d="M334 1061q94 0 94 -66q0 -9 -6 -47l-10 -65q103 182 307 182q156 0 253 -115.5t97 -318.5q0 -281 -142 -466t-364 -185q-187 0 -258 133l-74 -451q-9 -53 -36.5 -73.5t-92.5 -20.5q-98 0 -98 70q0 18 8 63l199 1266q9 57 36.5 75.5t86.5 18.5zM537 182q143 0 224 134
t81 307q0 116 -52 178.5t-154 62.5t-170.5 -71.5t-86.5 -192.5l-29 -172q-6 -36 -6 -74q0 -75 52 -123.5t141 -48.5z" />
    <glyph glyph-name="q" unicode="q" horiz-adv-x="1139" 
d="M431 -20q-167 0 -263 115t-96 319q0 280 143 465.5t355 185.5t276 -150l8 52q7 48 31.5 71t93.5 23q92 0 92 -68q0 -18 -6 -53l-203 -1278q-8 -48 -34.5 -71t-94.5 -23q-98 0 -98 67q0 12 3 27l75 469q-115 -151 -282 -151zM506 180q101 0 169 71t87 193l29 172
q6 36 6 74q0 76 -52 124t-141 48q-143 0 -224 -133t-81 -307q0 -117 53 -179.5t154 -62.5z" />
    <glyph glyph-name="r" unicode="r" horiz-adv-x="788" 
d="M686 1065q72 0 113 -27t41 -59q0 -56 -29 -97.5t-55 -41.5t-56 7t-73 7q-91 0 -158.5 -78t-91.5 -225l-74 -471q-9 -57 -38 -76.5t-85 -19.5q-104 0 -104 75q0 13 6 47l135 863q9 55 40.5 73.5t84.5 18.5q100 0 100 -72q0 -19 -4 -39l-4 -28q85 143 252 143z" />
    <glyph glyph-name="s" unicode="s" horiz-adv-x="950" 
d="M416 -20q-190 0 -322 83q-57 38 -57 83t28 79.5t58 34.5t79 -28q121 -68 218 -68q135 0 155.5 52t20.5 79q0 53 -37 81t-109 47q-162 45 -244.5 107t-82.5 197q0 238 146.5 288t224.5 50q200 0 318 -76q43 -28 57 -46t14 -41q0 -44 -30 -82t-60 -38q-29 0 -111.5 49.5
t-166.5 49.5q-85 0 -127 -36.5t-42 -80.5q0 -69 44 -96.5t119 -47.5q154 -42 232 -108t78 -182q0 -255 -152.5 -302.5t-250.5 -47.5z" />
    <glyph glyph-name="t" unicode="t" horiz-adv-x="731" 
d="M678 1044q78 0 78 -65v-23q0 -23 -11 -48.5t-28.5 -39.5t-67.5 -14h-188l-84 -518q-10 -58 -10 -86q0 -80 69 -80q42 0 83 20.5t57 20.5q33 0 57 -29t24 -64q0 -36 -19.5 -55t-57.5 -39q-85 -44 -200 -44q-114 0 -177.5 56.5t-63.5 168.5q0 53 13 127l84 522h-72
q-88 0 -88 59q0 115 43.5 123t73.5 8h71l35 213q8 54 35 74.5t85 20.5q59 0 86 -19.5t19 -75.5l-35 -213h189z" />
    <glyph glyph-name="u" unicode="u" horiz-adv-x="1145" 
d="M797 -16q-107 0 -107 69q0 13 4 33l8 47q-118 -153 -314 -153q-195 0 -240.5 112.5t-45.5 175.5t11 127l90 572q9 54 39.5 74t81.5 20q106 0 106 -72v-8l-88 -561q-8 -53 -8 -78q0 -156 151 -156q142 0 202 110t75 206l72 465q8 54 40.5 74t83.5 20q103 0 103 -72
q0 -13 -6 -51l-137 -864q-8 -54 -38.5 -72t-82.5 -18z" />
    <glyph glyph-name="v" unicode="v" horiz-adv-x="1034" 
d="M113 973q0 94 139 94q44 0 59 -22.5t17 -89.5q6 -159 39 -398t66 -356q63 99 165.5 287t148 293t68.5 165q34 87 49.5 104t49.5 17q61 0 100 -24t39 -64q0 -78 -164 -385q-164 -308 -371 -561q-39 -49 -92 -49h-27q-73 0 -97 55q-49 112 -97.5 307.5t-70 381.5t-21.5 245
z" />
    <glyph glyph-name="w" unicode="w" horiz-adv-x="1522" 
d="M374 -16q-38 0 -68 14.5t-39 34t-36 122.5t-54.5 253.5t-45.5 309.5t-18 229t32.5 95t112.5 25t82 -88q12 -439 74 -764q174 362 309 766q15 45 42 65.5t75 20.5q110 0 112 -86q10 -361 78 -766q129 240 299 766q19 50 39.5 68t68.5 18t86 -24.5t38 -60.5t-71 -226
t-229 -506q-107 -182 -136 -211q-55 -55 -133 -55t-103 74t-55.5 295t-39.5 357q-117 -337 -206.5 -502.5t-107.5 -185.5t-43 -29t-63 -9z" />
    <glyph glyph-name="x" unicode="x" horiz-adv-x="965" 
d="M999 987q0 -198 -342 -463q203 -205 203 -405q0 -135 -127 -135q-54 0 -77 22t-23 94q0 142 -160 316q-241 -171 -289 -336q-16 -56 -38 -76t-77 -20t-78.5 21.5t-23.5 70.5q0 112 96 225.5t269 235.5q-191 207 -191 389q0 72 29.5 103.5t87.5 31.5t80 -18t22 -68
q0 -159 152 -328q214 172 258 316q18 58 45 78t80 20q104 0 104 -74z" />
    <glyph glyph-name="y" unicode="y" horiz-adv-x="1034" 
d="M921 1067q46 0 81 -23.5t35 -62.5q0 -93 -226 -545.5t-453 -661t-392 -208.5q-76 0 -76 99q0 40 21 62.5t80 39.5q166 48 328 262q-91 225 -154.5 527.5t-63.5 416.5q0 94 136 94q78 0 82 -88q16 -352 143 -772q193 301 360 778q17 49 35 65.5t64 16.5z" />
    <glyph glyph-name="z" unicode="z" horiz-adv-x="874" 
d="M709 195q52 0 75 -17t23 -63t-29.5 -80.5t-79.5 -34.5h-587q-67 0 -103.5 36t-36.5 96t40.5 126.5t113.5 141t271 230.5t229 220h-437q-100 0 -100 78q0 49 30 82.5t77 33.5h571q129 0 129 -110q0 -60 -65.5 -161t-279.5 -276t-266 -224.5t-59 -77.5h484z" />
    <glyph glyph-name="braceleft" unicode="{" horiz-adv-x="623" 
d="M63 670v2q0 68 61 96t108 67.5t69 178.5l25 164q25 166 97.5 252t225.5 86q115 0 115 -82q0 -117 -117 -117q-43 0 -64 -27.5t-34 -101.5l-25 -148q-28 -165 -78 -248t-141 -116q119 -61 119 -221q0 -56 -22 -191t-21 -163q0 -28 13.5 -40.5t61.5 -22.5t63.5 -29.5
t15.5 -47.5q0 -121 -129 -121t-187.5 56.5t-58.5 171.5q0 62 24 203q23 141 23 188q0 85 -62 114q-29 18 -55.5 33.5t-26.5 63.5z" />
    <glyph glyph-name="bar" unicode="|" horiz-adv-x="504" 
d="M358 -375q0 -102 -106 -102t-107 102v1915q0 54 25.5 78t81.5 24t81 -24t25 -78v-1915z" />
    <glyph glyph-name="braceright" unicode="}" horiz-adv-x="623" 
d="M651 688v-2q0 -68 -63 -96t-108 -71.5t-66 -174.5l-25 -166q-25 -165 -97 -251.5t-226 -86.5q-115 0 -115 82q0 117 117 117q43 0 64 27.5t34 101.5l24 149q25 154 74.5 242t145.5 123q-119 61 -119 221q-1 55 21 189t22 164q0 28 -13.5 40t-60.5 22t-63.5 28.5
t-16.5 48.5q0 121 129 121t187.5 -56.5t58.5 -171.5q1 -61 -23 -202q-24 -140 -24 -186t14 -73.5t56 -46.5q73 -38 73 -92z" />
    <glyph glyph-name="asciitilde" unicode="~" horiz-adv-x="1165" 
d="M780 338q-58 0 -107.5 19.5t-126.5 74.5t-117 55t-62 -15.5t-43 -55.5q-31 -60 -80 -60t-81 28t-32 69q0 83 81 165t218 82q56 0 108.5 -20.5t135.5 -75.5q74 -53 110 -53t53 13.5t37 50.5t38.5 51t60.5 14t73 -25t31 -67q0 -84 -83 -167t-214 -83z" />
    <glyph glyph-name="uni00A0" unicode="&#xa0;" horiz-adv-x="475" 
 />
    <glyph glyph-name="exclamdown" unicode="&#xa1;" horiz-adv-x="557" 
d="M313 676q103 0 103 -72q0 -8 -6 -49l-134 -827q-15 -90 -120 -90t-105 75l6 54l131 815q8 47 32.5 70.5t92.5 23.5zM347 1065q63 0 102.5 -40t39.5 -104t-39.5 -104.5t-103.5 -40.5t-104.5 41.5t-40.5 103.5t41.5 103t104.5 41z" />
    <glyph glyph-name="cent" unicode="&#xa2;" horiz-adv-x="973" 
d="M303 422q0 -164 98 -215l113 641q-96 -34 -153.5 -148t-57.5 -278zM958 881q0 -42 -30 -75.5t-62 -33.5t-48 6t-48 30t-84 42l-117 -662q65 20 113 54t90 34t66 -28.5t24 -73.5q0 -68 -102.5 -127.5t-227.5 -64.5l-16 -93q-16 -94 -94 -94t-78 64q0 18 2 28l19 111
q-138 27 -215.5 141.5t-77.5 280.5q0 260 130.5 437t350.5 204l16 94q8 46 29 70t70 24q75 0 75 -67q0 -17 -6 -52l-14 -77q80 -16 157.5 -61.5t77.5 -110.5z" />
    <glyph glyph-name="sterling" unicode="&#xa3;" horiz-adv-x="1085" 
d="M813 203q105 0 105 -64q0 -30 -3 -39q-8 -50 -35.5 -75t-88.5 -25h-605q-60 0 -93.5 30t-33.5 76t19.5 79t91.5 84q152 109 152 272q0 31 -3 47h-116q-62 0 -83.5 16.5t-21.5 54.5q0 132 119 132h64q-19 83 -19 149q0 220 126 347.5t329 127.5q139 0 248.5 -70.5
t109.5 -134.5q0 -40 -37 -78t-73 -38t-64 25q-56 51 -96 71t-96 20q-100 0 -160 -70t-60 -192q0 -76 19 -157h252q56 0 79 -16.5t23 -66.5t-26.5 -85t-104.5 -35h-182v-37q0 -218 -182 -348h446z" />
    <glyph glyph-name="currency" unicode="&#xa4;" horiz-adv-x="1085" 
d="M551 311q82 0 140.5 60.5t58.5 146.5t-58.5 146.5t-140.5 60.5t-140.5 -60.5t-58.5 -146.5t58.5 -146.5t140.5 -60.5zM546 125q-112 0 -194 49l-57 -57q-39 -39 -83 -39t-76 33t-32 69t39 76l62 61q-55 94 -55 199t57 201l-66 65q-39 38 -39 76t32 71.5t74 33.5t87 -39
l61 -64q94 51 200 51t189 -51l68 68q35 35 75 35t75.5 -30.5t35.5 -69.5t-38 -79l-66 -67q57 -102 57 -204t-55 -194q20 -15 61 -58t41 -81t-32.5 -70t-76.5 -32t-83 37l-59 59q-90 -49 -202 -49z" />
    <glyph glyph-name="yen" unicode="&#xa5;" horiz-adv-x="1085" 
d="M913 434q91 0 91 -60q0 -30 -3 -36q-8 -51 -35.5 -71.5t-82.5 -20.5h-262l-27 -164q-16 -98 -122 -98t-107 88q0 13 8 61l18 113h-258q-90 0 -90 67q0 56 25.5 88.5t95.5 32.5h256l29 180h-265q-90 0 -90 68q0 54 24.5 87.5t102.5 33.5h133q-129 243 -129 467
q0 80 30.5 105.5t88.5 25.5t82 -22t28 -114t41 -225.5t93 -236.5q226 236 325 512q20 51 46.5 68.5t78.5 17.5q104 0 105 -88q0 -67 -85 -218t-210 -292h117q90 0 90 -68q0 -53 -24.5 -87t-96.5 -34h-256l-29 -180h264z" />
    <glyph glyph-name="brokenbar" unicode="&#xa6;" horiz-adv-x="504" 
d="M389 -373q-1 -102 -107 -102t-106 102v637q0 54 25 77.5t81 23.5t81.5 -23.5t25.5 -77.5v-637zM389 905q-1 -102 -107 -102t-106 102v635q0 54 25 78t81 24t81.5 -24t25.5 -78v-635z" />
    <glyph glyph-name="section" unicode="&#xa7;" horiz-adv-x="1018" 
d="M322 571q0 -64 43.5 -105.5t175.5 -94.5q24 -10 47 -23q108 61 108 187q0 47 -30.5 83t-109.5 70t-116 55q-118 -63 -118 -172zM246 1049q0 164 116 268t277 104t271 -52.5t110 -113.5q0 -41 -31 -84t-67 -43t-79 27q-99 62 -185 62q-87 0 -134 -44.5t-47 -102.5
t35.5 -100t139.5 -90t190 -110t86 -225q0 -88 -52 -171.5t-149 -146.5q53 -77 53 -176q0 -165 -111.5 -273t-289.5 -108t-270.5 58t-108.5 80.5t-16 57.5t31.5 76.5t61.5 41.5t59 -19l62 -41q79 -49 168 -49t138 44.5t49 109.5t-34.5 98t-137.5 79t-194 111t-91 241t199 302
q-49 72 -49 189z" />
    <glyph glyph-name="dieresis" unicode="&#xa8;" horiz-adv-x="813" 
d="M738 1485q52 0 89 -37.5t37 -89.5t-37.5 -88.5t-89.5 -36.5t-88.5 36.5t-36.5 88.5t37 89.5t89 37.5zM344 1485q52 0 89.5 -37.5t37.5 -89.5t-37.5 -88.5t-89.5 -36.5t-88.5 36.5t-36.5 88.5t36.5 89.5t88.5 37.5z" />
    <glyph glyph-name="copyright" unicode="&#xa9;" horiz-adv-x="1591" 
d="M842 281q-158 0 -267.5 111.5t-109.5 298.5t106 308t287 121q108 0 191.5 -52t83.5 -99q0 -31 -25.5 -61.5t-45.5 -30.5t-30 4.5t-60 40.5t-114 36q-103 0 -158 -69.5t-55 -190.5t57 -192.5t147 -71.5t169 66q25 20 50 20t50 -29.5t25 -54.5q0 -52 -92.5 -103.5
t-208.5 -51.5zM836 139q232 0 396.5 164t164.5 396t-164.5 396.5t-396.5 164.5t-396 -164.5t-164 -396.5t164 -396t396 -164zM836 1413q192 0 357.5 -95.5t261 -260.5t95.5 -357t-95 -357.5t-260.5 -261t-358.5 -95.5t-358.5 96t-260 261t-94.5 357t95.5 357.5t260.5 260.5
t357 95z" />
    <glyph glyph-name="ordfeminine" unicode="&#xaa;" horiz-adv-x="770" 
d="M627 1143q0 56 -32 90.5t-91 34.5q-91 0 -147 -86.5t-56 -202.5q0 -150 125 -150q70 0 118.5 48t59.5 116l19 109q4 23 4 41zM358 686q-100 0 -165.5 74t-65.5 190q0 199 99.5 330t239.5 131t196 -90l4 22q12 66 91 66t79 -51q0 -6 -3 -21l-102 -581q-12 -68 -92 -68
t-80 49q0 7 4 27l4 24q-71 -102 -209 -102z" />
    <glyph glyph-name="guillemotleft" unicode="&#xab;" horiz-adv-x="1311" 
d="M600 189q0 -30 -34 -62.5t-78 -32.5t-91 45l-325 340q-43 45 -43 87t47 79l405 328q35 28 77 28t75 -31.5t33 -69.5t-50 -83l-323 -262l268 -281q23 -24 31 -39.5t8 -45.5zM1176 195q0 -36 -35 -68.5t-77 -32.5t-87 43l-328 342q-45 47 -45 87t49 79l404 328q34 28 76 28
t75 -31.5t33 -71.5t-49 -81l-324 -262l269 -281q39 -43 39 -79z" />
    <glyph glyph-name="logicalnot" unicode="&#xac;" horiz-adv-x="1208" 
d="M1110 303q0 -106 -106 -106q-56 0 -81.5 24t-25.5 82v291h-684q-115 0 -115 104q0 51 27 75t88 24h782q65 0 90 -20t25 -79v-395z" />
    <glyph glyph-name="uni00AD" unicode="&#xad;" horiz-adv-x="750" 
d="M575 442h-421q-93 0 -93 86q-1 50 27 88t80 39h430q92 0 92 -86q0 -49 -30 -88t-85 -39z" />
    <glyph glyph-name="registered" unicode="&#xae;" horiz-adv-x="1591" 
d="M950 858q0 119 -135 119h-100v-234h92q70 0 106.5 31t36.5 84zM715 608v-256q0 -67 -82 -67t-82 67v645q0 54 32.5 86.5t96.5 32.5h143q138 0 214.5 -67t76.5 -187q0 -72 -42.5 -129t-119.5 -78q59 -20 116.5 -137t57.5 -170q0 -26 -31.5 -44.5t-74.5 -18.5t-59 47
q-50 147 -90.5 211.5t-108.5 64.5h-47zM828 139q232 0 396.5 164.5t164.5 396.5t-164.5 396t-396.5 164t-396 -164.5t-164 -396.5t164 -396t396 -164zM828 1413q190 0 355.5 -94t262 -260.5t96.5 -358.5t-95.5 -358t-261 -261t-357.5 -95t-357.5 95t-260.5 260.5t-95 358.5
t96.5 359t261.5 260t355 94z" />
    <glyph glyph-name="uni00AF" unicode="&#xaf;" horiz-adv-x="1024" 
d="M1020 1557h-1016q-84 0 -84 99t84 99h1016q84 0 84 -99t-84 -99z" />
    <glyph glyph-name="degree" unicode="&#xb0;" horiz-adv-x="731" 
d="M452 1227q-48 0 -83 -36.5t-35 -88.5t35 -87.5t83 -35.5t82.5 35.5t34.5 87.5t-34.5 88.5t-82.5 36.5zM452 793q-124 0 -214.5 91.5t-90.5 217.5t90.5 218.5t214.5 92.5t214 -92.5t90 -218.5t-90 -217.5t-214 -91.5z" />
    <glyph glyph-name="plusminus" unicode="&#xb1;" horiz-adv-x="1208" 
d="M995 0h-782q-115 0 -115 102t115 101h782q115 1 115 -101t-115 -102zM711 575v-186q0 -53 -24.5 -78.5t-82.5 -25.5t-82 25.5t-24 78.5v186h-285q-115 0 -115 101q0 53 27.5 77.5t87.5 24.5h285v180q0 58 26 81.5t82 23.5t80.5 -25.5t24.5 -79.5v-180h284
q60 0 87.5 -24.5t27.5 -77.5q0 -101 -115 -101h-284z" />
    <glyph glyph-name="twosuperior" unicode="&#xb2;" 
d="M576 729q73 0 73 -63q0 -41 -23.5 -69t-70.5 -28h-332q-120 0 -120 107q0 84 70.5 156t194.5 144t159.5 109t35.5 81t-23.5 67.5t-61.5 23.5t-65.5 -11.5t-63.5 -37.5q-37 -26 -65 -26t-50.5 26t-22.5 58q0 57 91 103t194 46t175.5 -65.5t72.5 -165.5t-60.5 -173
t-185.5 -138t-166 -93t-51 -51h295z" />
    <glyph glyph-name="threesuperior" unicode="&#xb3;" 
d="M283 1237q-74 0 -74 61q0 39 22.5 67t65.5 28h328q106 0 106 -93q0 -52 -53 -102l-158 -143q174 -52 174 -209q0 -132 -86 -218.5t-230 -86.5t-235 73q-5 6 -19 20t-13 43q0 29 21.5 55t45.5 26t44 -14q77 -56 146 -56t107.5 38t38.5 96q0 116 -133 116q-84 0 -84 68
q0 20 9.5 36t41.5 50l154 145h-219z" />
    <glyph glyph-name="acute" unicode="&#xb4;" horiz-adv-x="530" 
d="M300 1229q-30 0 -55.5 30t-25.5 59t11.5 48t43.5 45l183 143q55 43 95 43t68.5 -30t28.5 -74t-57 -86l-201 -143q-28 -20 -44.5 -27.5t-46.5 -7.5z" />
    <glyph glyph-name="uni00B5" unicode="&#xb5;" horiz-adv-x="1157" 
d="M346 342q0 -156 152 -156q95 0 173.5 80.5t102.5 235.5l72 465q15 94 121 94t106 -72q0 -13 -6 -51l-137 -864q-8 -52 -36 -71t-85 -19q-107 0 -107 69q0 14 5 33l8 47q-70 -90 -129.5 -121.5t-130.5 -31.5q-121 0 -166 86l-58 -371q-15 -98 -121 -98t-106 86q0 22 12 90
l199 1194q15 94 121 94t106 -72q0 -5 -6 -49l-82 -520q-8 -51 -8 -78z" />
    <glyph glyph-name="paragraph" unicode="&#xb6;" horiz-adv-x="1151" 
d="M715 -193q-107 0 -107 95q0 6 10 78l191 1208h-164l-203 -1280q-16 -101 -120 -101q-52 0 -79.5 24.5t-27.5 52.5t3 50q3 20 5 37l129 817q-102 24 -159.5 100t-57.5 201t95.5 218.5t252.5 93.5h647q51 0 77 -18.5t26 -69.5t-30 -88t-81 -37h-86l-196 -1266
q-18 -115 -125 -115z" />
    <glyph glyph-name="uni00B7" unicode="&#xb7;" horiz-adv-x="494" 
d="M270 496q-64 0 -103.5 40t-39.5 104t39.5 104t103.5 40t105 -41.5t41 -102.5t-41 -102.5t-105 -41.5z" />
    <glyph glyph-name="cedilla" unicode="&#xb8;" horiz-adv-x="885" 
d="M401 -72q156 0 156 -168q0 -84 -63.5 -145t-163.5 -61t-146.5 24t-46.5 56t17 56.5t37 24.5t55 -11t69 -11t54 19t20 48q0 62 -72 62l-65 -2q-55 0 -55 51q0 23 28 66l58 83h116l-39 -96q24 4 41 4z" />
    <glyph glyph-name="onesuperior" unicode="&#xb9;" 
d="M288 1165q-26 0 -45.5 24.5t-19.5 51.5t12.5 41.5t40.5 28.5l168 82q41 20 76 20q89 0 89 -74q0 -9 -1 -18l-96 -604h94q71 0 71 -60q0 -38 -20 -63t-53 -25h-381q-70 0 -70 60q0 38 21 63t53 25h115l84 510l-78 -43q-34 -19 -60 -19z" />
    <glyph glyph-name="ordmasculine" unicode="&#xba;" horiz-adv-x="793" 
d="M303 1021q0 -185 152 -185q75 0 129.5 79t54.5 170q0 183 -141 183q-85 0 -140 -77.5t-55 -169.5zM809 1112q0 -181 -101.5 -300.5t-277.5 -119.5q-133 0 -215 87t-82 218q0 179 102 297.5t279 118.5q140 0 217.5 -82.5t77.5 -218.5z" />
    <glyph glyph-name="guillemotright" unicode="&#xbb;" horiz-adv-x="1311" 
d="M711 898q0 38 34.5 69.5t79.5 31.5t88 -45l326 -340q43 -46 43 -88t-47 -77l-406 -328q-36 -29 -77 -29t-74 32t-33 71t49 81l324 263l-268 280q-39 41 -39 79zM135 898q0 38 34 69.5t78 31.5t87 -43l328 -342q45 -48 45 -88t-50 -77l-403 -328q-36 -29 -77 -29t-74 32
t-33 73t49 79l323 263l-268 280q-39 41 -39 79z" />
    <glyph glyph-name="onequarter" unicode="&#xbc;" horiz-adv-x="1851" 
d="M268 1165q-26 1 -46 25q-19 24 -19 51q1 27 13 41t40 29l168 82q41 20 76 20q89 0 89 -74q0 -9 -1 -18l-96 -604h94q71 0 71 -60q0 -38 -20 -63t-53 -25h-381q-70 0 -70 60q0 38 21 63t53 25h115l84 510l-78 -43q-34 -19 -60 -19zM453 -20q-33 0 -61 26t-27 61
q0 34 35 78l1008 1231q31 39 75 39q43 1 71 -25t28 -54t-6 -40q-6 -14 -25 -36l-1000 -1225q-25 -31 -45 -43t-53 -12zM1632 648q78 0 79 -66q0 -9 -2 -20l-39 -246h51q57 0 57 -56q0 -40 -20 -70t-57 -30h-56l-16 -92q-9 -50 -31 -65t-57 -15q-82 0 -82 64q0 9 2 20l14 88
h-264q-60 0 -85 24t-25 72t36 103l256 436q29 47 67 47t66 -22t29 -48q0 -28 -35 -88l-217 -370h197l41 254q13 80 91 80z" />
    <glyph glyph-name="onehalf" unicode="&#xbd;" horiz-adv-x="1851" 
d="M268 1165q-26 1 -46 25q-19 24 -19 51q1 27 13 41t40 29l168 82q41 20 76 20q89 0 89 -74q0 -9 -1 -18l-96 -604h94q71 0 71 -60q0 -38 -20 -63t-53 -25h-381q-70 0 -70 60q0 38 21 63t53 25h115l84 510l-78 -43q-34 -19 -60 -19zM448 -20q-32 0 -60 26t-28 61
q0 34 35 78l1008 1231q31 39 75 39q43 1 71 -25t28 -54t-6 -40q-6 -14 -25 -36l-1000 -1225q-26 -31 -46 -43t-52 -12zM1636 160q73 0 73 -63q1 -41 -23 -69t-71 -28h-332q-120 0 -120 107q1 84 71 156q70 73 194 145t160 108t35 81q1 43 -23 67t-62 24t-66 -11t-63 -37
q-37 -26 -65 -27q-28 0 -50 26t-23 58q0 57 91 103t194 46q104 0 176 -66t72 -165q0 -100 -60 -173t-186 -138q-125 -65 -166 -93t-51 -51h295z" />
    <glyph glyph-name="threequarters" unicode="&#xbe;" horiz-adv-x="1851" 
d="M283 1237q-74 0 -74 61q1 39 23 67t65 28h328q106 0 106 -93q0 -52 -53 -102l-158 -143q174 -52 174 -209q0 -132 -86 -218t-230 -87q-144 0 -235 73q-5 6 -19 20t-13 43q-1 29 21 55t46 26t44 -14q77 -56 146 -56q70 0 108 38t38 96q0 116 -133 116q-84 0 -84 68
q-1 20 9 36t42 50l154 145h-219zM440 -20q-32 0 -60 26t-28 61q0 34 35 78l1008 1231q31 39 75 39q43 1 71 -25t28 -54t-6 -40q-6 -14 -25 -36l-1000 -1225q-26 -31 -46 -43t-52 -12zM1618 648q78 0 79 -66q0 -9 -2 -20l-39 -246h51q57 0 57 -56q0 -40 -20 -70t-57 -30h-56
l-16 -92q-9 -50 -31 -65t-57 -15q-82 0 -82 64q0 9 2 20l14 88h-264q-60 0 -85 24t-25 72t36 103l256 436q29 47 67 47t66 -22t29 -48q0 -28 -35 -88l-217 -370h197l41 254q13 80 91 80z" />
    <glyph glyph-name="questiondown" unicode="&#xbf;" horiz-adv-x="903" 
d="M576 1065q64 0 103.5 -40t39.5 -104t-39.5 -104.5t-103.5 -40.5t-105 41.5t-41 103.5t41 103t105 41zM547 676q100 0 100 -76q0 -250 -237 -383q-124 -66 -169.5 -118t-45.5 -117t41.5 -105.5t129.5 -40.5t193 84q33 26 50.5 34.5t49.5 8.5t63.5 -33.5t31.5 -70.5
t-19 -65.5t-121 -95.5t-276 -67t-274.5 89.5t-100.5 225.5t69 232t218 180q74 44 117 81t59 147q9 51 37.5 70.5t83.5 19.5z" />
    <glyph glyph-name="Agrave" unicode="&#xc0;" horiz-adv-x="1214" 
d="M721 1126q-156 -268 -283 -536h387q-43 310 -104 536zM1122 84q0 -104 -143 -104q-49 0 -65 22t-24 126q-8 105 -30 255h-516q-44 -91 -76 -165t-52 -120q-32 -76 -51 -97t-48 -21q-59 0 -101 24q-43 24 -43 59q0 72 205 491t424 755q30 49 62 75q31 25 84 25h16
q82 1 112 -71q64 -153 134 -498q70 -344 87 -486q17 -141 19 -162q6 -55 6 -108zM903 1635q1 -39 -25 -69t-64 -30t-83 35l-201 143q-57 42 -57 86q1 44 29 74t68 30t95 -43l182 -143q56 -44 56 -83z" />
    <glyph glyph-name="Aacute" unicode="&#xc1;" horiz-adv-x="1214" 
d="M721 1126q-156 -268 -283 -536h387q-43 310 -104 536zM1122 84q0 -104 -143 -104q-49 0 -65 22t-24 126q-8 105 -30 255h-516q-44 -91 -76 -165t-52 -120q-32 -76 -51 -97t-48 -21q-59 0 -101 24q-43 24 -43 59q0 72 205 491t424 755q30 49 62 75q31 25 84 25h16
q82 1 112 -71q64 -153 134 -498q70 -344 87 -486q17 -141 19 -162q6 -55 6 -108zM622 1536q-30 0 -56 30t-25 59q-1 29 11 48t44 45l183 143q55 43 95 43t68 -30t29 -74q0 -44 -57 -86l-201 -143q-29 -19 -45 -27t-46 -8z" />
    <glyph glyph-name="Acircumflex" unicode="&#xc2;" horiz-adv-x="1214" 
d="M721 1126q-156 -268 -283 -536h387q-43 310 -104 536zM1122 84q0 -104 -143 -104q-49 0 -65 22t-24 126q-8 105 -30 255h-516q-44 -91 -76 -165t-52 -120q-32 -76 -51 -97t-48 -21q-59 0 -101 24q-43 24 -43 59q0 72 205 491t424 755q30 49 62 75q31 25 84 25h16
q82 1 112 -71q64 -153 134 -498q70 -344 87 -486q17 -141 19 -162q6 -55 6 -108zM483 1540q-33 0 -57 30t-24 64t14 53t53 39l195 105q52 28 101 28t89 -28l142 -99q41 -29 54 -48q13 -18 13 -50t-32 -63t-66 -31t-80 35l-129 100l-191 -108q-48 -27 -82 -27z" />
    <glyph glyph-name="Atilde" unicode="&#xc3;" horiz-adv-x="1214" 
d="M721 1126q-156 -268 -283 -536h387q-43 310 -104 536zM1122 84q0 -104 -143 -104q-49 0 -65 22t-24 126q-8 105 -30 255h-516q-44 -91 -76 -165t-52 -120q-32 -76 -51 -97t-48 -21q-59 0 -101 24q-43 24 -43 59q0 72 205 491t424 755q30 49 62 75q31 25 84 25h16
q82 1 112 -71q64 -153 134 -498q70 -344 87 -486q17 -141 19 -162q6 -55 6 -108zM875 1546q-79 0 -147 41t-98 41t-48 -11t-47 -42q-30 -31 -59 -31t-52 26t-23 60q0 60 68 113q67 53 151 53t142 -34t76 -40q18 -8 46 -8q30 0 54 40t58 40t58 -21t23 -69q0 -48 -62 -103
t-140 -55z" />
    <glyph glyph-name="Adieresis" unicode="&#xc4;" horiz-adv-x="1214" 
d="M721 1126q-156 -268 -283 -536h387q-43 310 -104 536zM1122 84q0 -104 -143 -104q-49 0 -65 22t-24 126q-8 105 -30 255h-516q-44 -91 -76 -165t-52 -120q-32 -76 -51 -97t-48 -21q-59 0 -101 24q-43 24 -43 59q0 72 205 491t424 755q30 49 62 75q31 25 84 25h16
q82 1 112 -71q64 -153 134 -498q70 -344 87 -486q17 -141 19 -162q6 -55 6 -108zM962 1792q52 0 90 -38t37 -89q1 -53 -37 -89t-90 -36t-88 36t-37 89q0 51 37 89q36 38 88 38zM570 1792q52 0 88 -38q38 -38 38 -89q0 -53 -38 -89t-89 -36q-53 0 -89 36t-36 89q0 51 37 89
t89 38z" />
    <glyph glyph-name="Aring" unicode="&#xc5;" horiz-adv-x="1214" 
d="M721 1126q-139 -238 -283 -536h387q-51 340 -104 536zM774 1602q-41 0 -70.5 -30t-29.5 -71t29.5 -70.5t70.5 -29.5t70.5 29.5t29.5 70.5t-29.5 71t-70.5 30zM1122 84q0 -104 -143 -104q-42 0 -61 17.5t-23 70.5q-16 189 -35 315h-516q-46 -97 -104 -231t-76 -153
t-63 -19t-86.5 25t-41.5 63t41 137t177.5 376t273 505.5t156.5 250.5q-72 66 -72 161t66.5 161.5t158.5 66.5t158.5 -66.5t66.5 -158.5q0 -122 -112 -194q103 -310 169 -699.5t66 -523.5z" />
    <glyph glyph-name="AE" unicode="&#xc6;" horiz-adv-x="1724" 
d="M887 1042q-187 -236 -355 -481h279zM100 -20q-46 0 -80 35t-34 74t71.5 157.5t288 424.5t361.5 487t186 208t90 27h668q55 0 78.5 -16.5t23.5 -58.5t-22 -90t-113 -48h-447q-15 0 -26.5 -11t-14.5 -28l-49 -310h418q53 0 76.5 -16.5t23.5 -68.5t-28 -90t-107 -38h-417
l-52 -331q-6 -38 -6 -51q0 -23 23 -23h452q56 0 79.5 -14.5t23.5 -58.5t-23 -92t-112 -48h-529q-75 0 -117.5 34.5t-42.5 100.5q0 16 11 74l22 147h-379q-80 -115 -188 -305q-25 -42 -44 -56.5t-65 -14.5z" />
    <glyph glyph-name="Ccedilla" unicode="&#xc7;" horiz-adv-x="1233" 
d="M621 -72q155 0 155 -168q0 -84 -63.5 -145t-163.5 -61t-146.5 24t-46.5 56t17 56.5t37 24.5t55 -11t69 -11t54 19t20 48q0 62 -71 62l-66 -2q-55 0 -55 51q0 23 28 66l41 59q-181 42 -276.5 193.5t-95.5 377.5q0 368 186.5 607t503.5 239q195 0 286 -71.5t114.5 -104
t23.5 -68.5t-34.5 -74t-76.5 -38t-96 52q-99 93 -227 93q-214 0 -332.5 -179.5t-118.5 -442.5q0 -186 81.5 -286.5t225.5 -100.5t286 106q27 20 62 20t65 -35.5t30 -76.5q0 -71 -147.5 -149t-309.5 -78q-24 0 -33 2l-22 -58q21 4 41 4z" />
    <glyph glyph-name="Egrave" unicode="&#xc8;" horiz-adv-x="1087" 
d="M827 213q103 0 103 -54q0 -129 -76 -152q-24 -7 -59 -7h-529q-76 0 -118 34t-42 101q0 9 2 23t9 51l155 993q31 191 226 191h516q58 1 80 -17t22 -44t-4 -48q-10 -54 -36 -79t-95 -25h-446q-15 0 -27 -11t-14 -28l-50 -310h418q59 0 80 -19t21 -43q-1 -24 -5 -47
q-11 -54 -37 -79q-27 -25 -94 -25h-417l-52 -331q-2 -14 -4 -27t-2 -24q0 -23 23 -23h452zM928 1635q0 -39 -26 -69t-62 -30q-38 0 -84 35l-201 143q-57 42 -57 86t28 74t69 30q40 0 95 -43l182 -143q56 -44 56 -83z" />
    <glyph glyph-name="Eacute" unicode="&#xc9;" horiz-adv-x="1087" 
d="M827 213q103 0 103 -54q0 -129 -76 -152q-24 -7 -59 -7h-529q-76 0 -118 34t-42 101q0 9 2 23t9 51l155 993q31 191 226 191h516q58 1 80 -17t22 -44t-4 -48q-10 -54 -36 -79t-95 -25h-446q-15 0 -27 -11t-14 -28l-50 -310h418q59 0 80 -19t21 -43q-1 -24 -5 -47
q-11 -54 -37 -79q-27 -25 -94 -25h-417l-52 -331q-2 -14 -4 -27t-2 -24q0 -23 23 -23h452zM662 1536q-30 0 -56 30t-25 59q-1 29 11 48t44 45l183 143q55 43 95 43t68 -30t29 -74q0 -44 -57 -86l-201 -143q-29 -19 -45 -27t-46 -8z" />
    <glyph glyph-name="Ecircumflex" unicode="&#xca;" horiz-adv-x="1087" 
d="M827 213q103 0 103 -54q0 -129 -76 -152q-24 -7 -59 -7h-529q-76 0 -118 34t-42 101q0 9 2 23t9 51l155 993q31 191 226 191h516q58 1 80 -17t22 -44t-4 -48q-10 -54 -36 -79t-95 -25h-446q-15 0 -27 -11t-14 -28l-50 -310h418q59 0 80 -19t21 -43q-1 -24 -5 -47
q-11 -54 -37 -79q-27 -25 -94 -25h-417l-52 -331q-2 -14 -4 -27t-2 -24q0 -23 23 -23h452zM487 1540q-33 0 -57 30t-24 64t14 53t53 39l195 105q52 28 101 28t89 -28l142 -99q41 -29 54 -48q13 -18 13 -50t-32 -63t-66 -31t-80 35l-129 100l-191 -108q-48 -27 -82 -27z" />
    <glyph glyph-name="Edieresis" unicode="&#xcb;" horiz-adv-x="1087" 
d="M827 213q103 0 103 -54q0 -129 -76 -152q-24 -7 -59 -7h-529q-76 0 -118 34t-42 101q0 9 2 23t9 51l155 993q31 191 226 191h516q58 1 80 -17t22 -44t-4 -48q-10 -54 -36 -79t-95 -25h-446q-15 0 -27 -11t-14 -28l-50 -310h418q59 0 80 -19t21 -43q-1 -24 -5 -47
q-11 -54 -37 -79q-27 -25 -94 -25h-417l-52 -331q-2 -14 -4 -27t-2 -24q0 -23 23 -23h452zM930 1792q52 0 90 -38t37 -89q1 -53 -37 -89t-90 -36t-88 36t-37 89q0 51 37 89q36 38 88 38zM538 1792q52 0 88 -38q38 -38 38 -89q0 -53 -38 -89t-89 -36q-53 0 -89 36t-36 89
q0 51 37 89t89 38z" />
    <glyph glyph-name="Igrave" unicode="&#xcc;" horiz-adv-x="567" 
d="M202 -16q-54 0 -81 16t-27 57q0 7 2 25t6 41l189 1190q10 57 37 77q27 19 81 19q55 0 84 -14q29 -15 29 -49t-10 -86l-186 -1176q-10 -56 -40 -78t-84 -22zM623 1635q1 -39 -25 -69t-64 -30t-83 35l-201 143q-57 42 -57 86q1 44 29 74t68 30t95 -43l182 -143
q56 -44 56 -83z" />
    <glyph glyph-name="Iacute" unicode="&#xcd;" horiz-adv-x="567" 
d="M202 -16q-54 0 -81 16t-27 57q0 7 2 25t6 41l189 1190q10 57 37 77q27 19 81 19q55 0 84 -14q29 -15 29 -49t-10 -86l-186 -1176q-10 -56 -40 -78t-84 -22zM335 1536q-29 0 -55 30t-26 59t12 48t43 45l183 143q55 43 95 43q41 0 69 -30t28 -74t-57 -86l-201 -143
q-28 -19 -44 -27t-47 -8z" />
    <glyph glyph-name="Icircumflex" unicode="&#xce;" horiz-adv-x="567" 
d="M202 -16q-54 0 -81 16t-27 57q0 7 2 25t6 41l189 1190q10 57 37 77q27 19 81 19q55 0 84 -14q29 -15 29 -49t-10 -86l-186 -1176q-10 -56 -40 -78t-84 -22zM189 1540q-33 0 -57 30t-24 64t14 53t53 39l195 105q52 28 101 28t89 -28l142 -99q41 -29 54 -48q13 -18 13 -50
t-32 -63t-66 -31t-80 35l-129 100l-191 -108q-48 -27 -82 -27z" />
    <glyph glyph-name="Idieresis" unicode="&#xcf;" horiz-adv-x="567" 
d="M202 -16q-54 0 -81 16t-27 57q0 7 2 25t6 41l189 1190q10 57 37 77q27 19 81 19q55 0 84 -14q29 -15 29 -49t-10 -86l-186 -1176q-10 -56 -40 -78t-84 -22zM634 1792q52 0 90 -38t37 -89q1 -53 -37 -89t-90 -36t-88 36t-37 89q0 51 37 89q36 38 88 38zM242 1792
q52 0 88 -38q38 -38 38 -89q0 -53 -38 -89t-89 -36q-53 0 -89 36t-36 89q0 51 37 89t89 38z" />
    <glyph glyph-name="Eth" unicode="&#xd0;" horiz-adv-x="1382" 
d="M381 213h201q230 0 349.5 169.5t119.5 453.5q0 163 -85.5 253.5t-244.5 90.5h-191q-15 0 -24.5 -11t-9.5 -28l-52 -310h199q100 0 100 -79q0 -64 -31 -99t-89 -35h-211l-60 -372q0 -33 29 -33zM250 0q-67 0 -103 38t-36 109q0 22 14 119l55 352h-74q-94 0 -94 80
q0 133 125 133h78l64 404q12 76 64.5 117t135.5 41h242q278 0 419.5 -142.5t141.5 -414.5q0 -367 -185.5 -601.5t-537.5 -234.5h-309z" />
    <glyph glyph-name="Ntilde" unicode="&#xd1;" horiz-adv-x="1405" 
d="M965 3q-26 19 -44 58l-456 976l-152 -955q-9 -56 -37 -77t-80 -21t-77 16t-25 46q0 31 6 65l183 1151q24 147 147 147q82 0 112 -78l445 -963l150 941q9 58 36 79t79 21t80 -16t28 -60q0 -14 -8 -67l-185 -1162q-11 -64 -45 -92t-82 -28q-49 0 -75 19zM998 1546
q-78 0 -146 41t-99 41q-29 0 -47 -11t-48 -42t-59 -31t-52 26t-23 60q0 60 68 113t152 53t141 -34t75 -40q18 -8 47 -8t53 40t59 40q33 0 57 -21t24 -69t-62 -103t-140 -55z" />
    <glyph glyph-name="Ograve" unicode="&#xd2;" horiz-adv-x="1380" 
d="M793 1210q-81 0 -145 -27t-116 -73q-95 -88 -144 -236q-50 -148 -50 -307q0 -260 161 -351q59 -34 145 -34t150 28t115 76q92 88 139 236q48 148 48 265q0 115 -16 185t-54 122q-36 52 -94 84t-139 32zM808 1413q242 0 379 -146q138 -146 138 -419q1 -334 -159 -580
q-116 -179 -314 -251q-102 -37 -228 -37q-246 0 -381 158q-134 158 -134 417q-1 337 161 579q114 174 314 244q102 36 224 35zM1028 1635q0 -39 -26 -69t-62 -30q-38 0 -84 35l-201 143q-57 42 -57 86t28 74t69 30q40 0 95 -43l182 -143q56 -44 56 -83z" />
    <glyph glyph-name="Oacute" unicode="&#xd3;" horiz-adv-x="1380" 
d="M793 1210q-81 0 -145 -27t-116 -73q-95 -88 -144 -236q-50 -148 -50 -307q0 -260 161 -351q59 -34 145 -34t150 28t115 76q92 88 139 236q48 148 48 265q0 115 -16 185t-54 122q-36 52 -94 84t-139 32zM808 1413q242 0 379 -146q138 -146 138 -419q1 -334 -159 -580
q-116 -179 -314 -251q-102 -37 -228 -37q-246 0 -381 158q-134 158 -134 417q-1 337 161 579q114 174 314 244q102 36 224 35zM740 1536q-30 0 -56 30t-25 59q-1 29 11 48t44 45l183 143q55 43 95 43t68 -30t29 -74q0 -44 -57 -86l-201 -143q-29 -19 -45 -27t-46 -8z" />
    <glyph glyph-name="Ocircumflex" unicode="&#xd4;" horiz-adv-x="1380" 
d="M793 1210q-81 0 -145 -27t-116 -73q-95 -88 -144 -236q-50 -148 -50 -307q0 -260 161 -351q59 -34 145 -34t150 28t115 76q92 88 139 236q48 148 48 265q0 115 -16 185t-54 122q-36 52 -94 84t-139 32zM808 1413q242 0 379 -146q138 -146 138 -419q1 -334 -159 -580
q-116 -179 -314 -251q-102 -37 -228 -37q-246 0 -381 158q-134 158 -134 417q-1 337 161 579q114 174 314 244q102 36 224 35zM583 1540q-33 0 -57 30t-24 64t14 53t53 39l195 105q52 28 101 28t89 -28l142 -99q41 -29 54 -48q13 -18 13 -50t-32 -63t-66 -31t-80 35
l-129 100l-191 -108q-48 -27 -82 -27z" />
    <glyph glyph-name="Otilde" unicode="&#xd5;" horiz-adv-x="1380" 
d="M793 1210q-81 0 -145 -27t-116 -73q-95 -88 -144 -236q-50 -148 -50 -307q0 -260 161 -351q59 -34 145 -34t150 28t115 76q92 88 139 236q48 148 48 265q0 115 -16 185t-54 122q-36 52 -94 84t-139 32zM808 1413q242 0 379 -146q138 -146 138 -419q1 -334 -159 -580
q-116 -179 -314 -251q-102 -37 -228 -37q-246 0 -381 158q-134 158 -134 417q-1 337 161 579q114 174 314 244q102 36 224 35zM986 1546q-78 0 -146 41t-99 41q-29 0 -47 -11t-48 -42t-59 -31t-52 26t-23 60q0 60 68 113t152 53t141 -34t75 -40q18 -8 47 -8t53 40t59 40
q33 0 57 -21t24 -69t-62 -103t-140 -55z" />
    <glyph glyph-name="Odieresis" unicode="&#xd6;" horiz-adv-x="1380" 
d="M793 1210q-81 0 -145 -27t-116 -73q-95 -88 -144 -236q-50 -148 -50 -307q0 -260 161 -351q59 -34 145 -34t150 28t115 76q92 88 139 236q48 148 48 265q0 115 -16 185t-54 122q-36 52 -94 84t-139 32zM808 1413q242 0 379 -146q138 -146 138 -419q1 -334 -159 -580
q-116 -179 -314 -251q-102 -37 -228 -37q-246 0 -381 158q-134 158 -134 417q-1 337 161 579q114 174 314 244q102 36 224 35zM1032 1792q52 0 90 -38t37 -89q1 -53 -37 -89t-90 -36t-88 36t-37 89q0 51 37 89q36 38 88 38zM640 1792q52 0 88 -38q38 -38 38 -89
q0 -53 -38 -89t-89 -36q-53 0 -89 36t-36 89q0 51 37 89t89 38z" />
    <glyph glyph-name="multiply" unicode="&#xd7;" horiz-adv-x="1085" 
d="M109 846q0 32 37.5 72t71.5 40t79 -45l244 -241l243 241q45 45 78 45t73 -37t40 -69t-47 -82l-244 -240l250 -245q41 -40 41 -73t-39.5 -71.5t-71.5 -38.5t-80 45l-243 240l-244 -240q-47 -45 -79 -45t-70.5 39t-38.5 72t45 78l243 239l-243 240q-45 44 -45 76z" />
    <glyph glyph-name="Oslash" unicode="&#xd8;" horiz-adv-x="1380" 
d="M649 182q208 0 327.5 188.5t119.5 456.5q0 119 -43 217l-586 -808q73 -54 182 -54zM791 1210q-209 0 -331 -187t-122 -456q0 -86 20 -159l564 774q-58 28 -131 28zM1208 1518q42 0 72.5 -26t30.5 -59t-27 -71l-82 -113q123 -151 123 -393t-84 -446t-242.5 -317
t-377.5 -113q-168 0 -285 75l-64 -86q-41 -55 -58.5 -69.5t-49.5 -14.5t-63 26.5t-31 63.5t26 74l105 144q-92 142 -92 362q0 366 186.5 612t517.5 246q136 0 240 -49l77 104q36 50 78 50z" />
    <glyph glyph-name="Ugrave" unicode="&#xd9;" horiz-adv-x="1319" 
d="M1178 1409q106 0 106 -80q0 -10 -2 -22q-2 -11 -3 -21t-3 -18l-129 -815q-79 -473 -565 -473q-309 0 -409 226q-34 76 -34 157t11 151l126 795q10 54 38 77t85 23q109 0 109 -80q0 -14 -8 -59l-123 -783q-8 -38 -8 -96q0 -101 63 -153q62 -52 158 -52q163 0 235 69
t93 198l135 856q8 54 37 77t88 23zM977 1635q1 -39 -25 -69t-64 -30t-83 35l-201 143q-57 42 -57 86q1 44 29 74t68 30t95 -43l182 -143q56 -44 56 -83z" />
    <glyph glyph-name="Uacute" unicode="&#xda;" horiz-adv-x="1319" 
d="M1178 1409q106 0 106 -80q0 -10 -2 -22q-2 -11 -3 -21t-3 -18l-129 -815q-79 -473 -565 -473q-309 0 -409 226q-34 76 -34 157t11 151l126 795q10 54 38 77t85 23q109 0 109 -80q0 -14 -8 -59l-123 -783q-8 -38 -8 -96q0 -101 63 -153q62 -52 158 -52q163 0 235 69
t93 198l135 856q8 54 37 77t88 23zM716 1536q-30 0 -56 30t-25 59q-1 29 11 48t44 45l183 143q55 43 95 43t68 -30t29 -74q0 -44 -57 -86l-201 -143q-29 -19 -45 -27t-46 -8z" />
    <glyph glyph-name="Ucircumflex" unicode="&#xdb;" horiz-adv-x="1319" 
d="M1178 1409q106 0 106 -80q0 -10 -2 -22q-2 -11 -3 -21t-3 -18l-129 -815q-79 -473 -565 -473q-309 0 -409 226q-34 76 -34 157t11 151l126 795q10 54 38 77t85 23q109 0 109 -80q0 -14 -8 -59l-123 -783q-8 -38 -8 -96q0 -101 63 -153q62 -52 158 -52q163 0 235 69
t93 198l135 856q8 54 37 77t88 23zM540 1540q-34 0 -58 30t-23 64t15 53t52 39l195 105q52 28 101 28t89 -28l142 -99q41 -29 54 -48q13 -18 13 -50t-32 -63t-66 -31t-80 35l-129 100l-191 -108q-48 -27 -82 -27z" />
    <glyph glyph-name="Udieresis" unicode="&#xdc;" horiz-adv-x="1319" 
d="M1178 1409q106 0 106 -80q0 -10 -2 -22q-2 -11 -3 -21t-3 -18l-129 -815q-79 -473 -565 -473q-309 0 -409 226q-34 76 -34 157t11 151l126 795q10 54 38 77t85 23q109 0 109 -80q0 -14 -8 -59l-123 -783q-8 -38 -8 -96q0 -101 63 -153q62 -52 158 -52q163 0 235 69
t93 198l135 856q8 54 37 77t88 23zM1004 1792q52 0 88 -38q38 -38 38 -89q0 -53 -38 -89t-89 -36q-53 0 -89 36t-36 89q0 51 37 89t89 38zM610 1792q52 0 90 -38t37 -89q1 -53 -37 -89t-90 -36t-88 36t-37 89q0 51 37 89q36 38 88 38z" />
    <glyph glyph-name="Yacute" unicode="&#xdd;" horiz-adv-x="1053" 
d="M422 -16q-105 0 -105 73q0 18 9 66l65 414q-133 197 -187 373t-54 376q0 67 29 95t90 28t83 -20t21 -68q0 -340 157 -594q264 255 355 582q17 65 40 83t77 17q54 0 90 -21q34 -21 34 -57q0 -118 -132 -350t-373 -444l-72 -453q-8 -52 -37 -76t-90 -24zM589 1536
q-29 0 -55 30t-26 59t12 48t43 45l183 143q55 43 95 43q41 0 69 -30t28 -74t-57 -86l-201 -143q-28 -19 -44 -27t-47 -8z" />
    <glyph glyph-name="Thorn" unicode="&#xde;" horiz-adv-x="1096" 
d="M594 475q134 0 204 73.5t70 194.5q0 197 -215 197h-190l-74 -465h205zM413 1409q109 0 109 -66q0 -31 -10 -83l-16 -107h198q200 0 305 -102.5t105 -306.5t-133.5 -343t-384.5 -139h-232l-28 -178q-16 -100 -122 -100q-56 0 -83 16t-27 57q0 3 8 66l189 1190
q9 54 34.5 75t87.5 21z" />
    <glyph glyph-name="germandbls" unicode="&#xdf;" horiz-adv-x="1059" 
d="M1028 467q0 -194 -125.5 -339.5t-349.5 -145.5q-101 0 -158 29.5t-57 76.5t29 83t61 36q32 -1 66 -11t63 -10q115 0 179.5 81t64.5 185t-55 160.5t-130 62.5t-101 23t-26 56q0 108 109 129q236 56 236 274q0 73 -42 120.5t-124 47.5q-181 0 -224 -256l-157 -987
q-16 -98 -121 -98t-105 90q0 19 9 76l149 944q32 205 150.5 320.5t306.5 115.5t287.5 -98.5t99.5 -270.5q0 -115 -72 -227t-178 -146q106 -41 160.5 -124.5t54.5 -196.5z" />
    <glyph glyph-name="agrave" unicode="&#xe0;" horiz-adv-x="1157" 
d="M72 414q0 277 141 464t356 187t277 -150l8 52q10 56 38 75t80 19t76 -15t23 -45q0 -30 -10 -90l-131 -833q-8 -54 -35 -74q-26 -20 -78 -20q-51 0 -77 12t-27 53q0 8 6 53l10 60q-101 -182 -307 -182q-150 0 -250 111t-100 323zM797 689q1 73 -49 123t-126 50t-120 -21
q-45 -21 -79 -56q-62 -64 -93 -165t-31 -208q0 -108 53 -170t158 -62t169 76q65 76 83 188l29 172q6 38 6 73zM846 1328q0 -39 -26 -69t-62 -30q-38 0 -84 35l-201 143q-57 41 -57 85t28 75q28 30 69 30q40 0 95 -43l182 -143q56 -44 56 -83z" />
    <glyph glyph-name="aacute" unicode="&#xe1;" horiz-adv-x="1157" 
d="M72 414q0 277 141 464t356 187t277 -150l8 52q10 56 38 75t80 19t76 -15t23 -45q0 -30 -10 -90l-131 -833q-8 -54 -35 -74q-26 -20 -78 -20q-51 0 -77 12t-27 53q0 8 6 53l10 60q-101 -182 -307 -182q-150 0 -250 111t-100 323zM797 689q1 73 -49 123t-126 50t-120 -21
q-45 -21 -79 -56q-62 -64 -93 -165t-31 -208q0 -108 53 -170t158 -62t169 76q65 76 83 188l29 172q6 38 6 73zM560 1229q-30 0 -56 30t-25 59q-1 29 11 48t44 45l183 143q55 43 95 43t68 -30t29 -74q0 -44 -57 -86l-201 -143q-29 -20 -45 -28t-46 -7z" />
    <glyph glyph-name="acircumflex" unicode="&#xe2;" horiz-adv-x="1157" 
d="M72 414q0 277 141 464t356 187t277 -150l8 52q10 56 38 75t80 19t76 -15t23 -45q0 -30 -10 -90l-131 -833q-8 -54 -35 -74q-26 -20 -78 -20q-51 0 -77 12t-27 53q0 8 6 53l10 60q-101 -182 -307 -182q-150 0 -250 111t-100 323zM797 689q1 73 -49 123t-126 50t-120 -21
q-45 -21 -79 -56q-62 -64 -93 -165t-31 -208q0 -108 53 -170t158 -62t169 76q65 76 83 188l29 172q6 38 6 73zM440 1233q-34 1 -58 31t-23 64t15 52q14 19 52 39l195 105q52 28 101 28t89 -28l142 -99q41 -29 54 -48t13 -51t-32 -62q-32 -31 -66 -31t-80 35l-129 100
l-191 -108q-48 -27 -82 -27z" />
    <glyph glyph-name="atilde" unicode="&#xe3;" horiz-adv-x="1157" 
d="M72 414q0 277 141 464t356 187t277 -150l8 52q10 56 38 75t80 19t76 -15t23 -45q0 -30 -10 -90l-131 -833q-8 -54 -35 -74q-26 -20 -78 -20q-51 0 -77 12t-27 53q0 8 6 53l10 60q-101 -182 -307 -182q-150 0 -250 111t-100 323zM797 689q1 73 -49 123t-126 50t-120 -21
q-45 -21 -79 -56q-62 -64 -93 -165t-31 -208q0 -108 53 -170t158 -62t169 76q65 76 83 188l29 172q6 38 6 73zM838 1239q-78 0 -146 41t-99 41q-29 0 -47 -11t-48 -42t-59 -31q-29 -1 -52 25t-23 61q0 60 68 113t152 53q84 1 141 -33t75 -42t47 -7q29 0 53 40t59 40
q33 0 57 -21t24 -69t-62 -103t-140 -55z" />
    <glyph glyph-name="adieresis" unicode="&#xe4;" horiz-adv-x="1157" 
d="M72 414q0 277 141 464t356 187t277 -150l8 52q10 56 38 75t80 19t76 -15t23 -45q0 -30 -10 -90l-131 -833q-8 -54 -35 -74q-26 -20 -78 -20q-51 0 -77 12t-27 53q0 8 6 53l10 60q-101 -182 -307 -182q-150 0 -250 111t-100 323zM797 689q1 73 -49 123t-126 50t-120 -21
q-45 -21 -79 -56q-62 -64 -93 -165t-31 -208q0 -108 53 -170t158 -62t169 76q65 76 83 188l29 172q6 38 6 73zM876 1485q52 1 90 -37t37 -90q1 -52 -37 -88t-90 -37q-52 1 -88 37t-37 88q0 52 37 90q36 38 88 37zM484 1485q52 1 88 -37q38 -38 38 -90t-38 -88t-89 -37
q-53 1 -89 37t-36 88t37 90t89 37z" />
    <glyph glyph-name="aring" unicode="&#xe5;" horiz-adv-x="1157" 
d="M72 414q0 277 141 464t356 187t277 -150l8 52q10 56 38 75t80 19t76 -15t23 -45q0 -30 -10 -90l-131 -833q-8 -54 -35 -74q-26 -20 -78 -20q-51 0 -77 12t-27 53q0 8 6 53l10 60q-101 -182 -307 -182q-150 0 -250 111t-100 323zM797 689q1 73 -49 123t-126 50t-120 -21
q-45 -21 -79 -56q-62 -64 -93 -165t-31 -208q0 -108 53 -170t158 -62t169 76q65 76 83 188l29 172q6 38 6 73zM676 1559q-42 0 -72 -30t-29 -71q-1 -40 29 -70t72 -30t70 30q30 30 30 70q0 41 -30 71q-28 30 -70 30zM676 1233q-92 0 -160 67q-66 67 -66 158t66 158t160 67
q92 -1 158 -67t67 -158q-1 -92 -67 -158t-158 -67z" />
    <glyph glyph-name="ae" unicode="&#xe6;" horiz-adv-x="1642" 
d="M258 279q0 -48 35.5 -78.5t93.5 -30.5q113 0 194 73.5t119 213.5q-442 0 -442 -178zM1053 618q166 0 242.5 31t76.5 107q0 51 -38 83.5t-99 32.5q-102 0 -177 -67t-108 -187h103zM604 1065q219 0 297 -180q61 86 153.5 133t196.5 47q157 0 245.5 -77t88.5 -212
q0 -164 -133 -250t-391 -86h-131v-19q0 -129 52.5 -184t152.5 -55t208 73q29 19 61 19t60.5 -32.5t28.5 -71.5q0 -63 -115 -126.5t-256 -63.5t-233.5 61t-124.5 170q-84 -120 -183 -175.5t-233 -55.5t-219.5 78.5t-85.5 203.5q0 184 159.5 278.5t530.5 94.5q6 33 6 70
q0 75 -43.5 116t-111.5 41t-110 -13t-102 -47t-90 -34t-57.5 32.5t-27.5 73.5q0 69 136.5 130t270.5 61z" />
    <glyph glyph-name="ccedilla" unicode="&#xe7;" horiz-adv-x="987" 
d="M487 -72q156 0 156 -168q0 -84 -63.5 -145t-163.5 -61t-146.5 24t-46.5 56t17 56.5t37 24.5t55 -11t69 -11t54 19t20 48q0 62 -72 62l-65 -2q-55 0 -55 51q0 23 28 66l41 59q-133 37 -206.5 149t-73.5 275q0 291 146.5 468t387.5 177q137 0 244.5 -58.5t107.5 -132.5
q0 -42 -30 -78t-62 -36t-49 6.5t-59 38.5q-73 55 -162 55q-126 0 -209.5 -117t-83.5 -313q-1 -242 191 -242q92 0 186 66q44 31 85 31t69 -33.5t28 -77.5q0 -69 -109.5 -131.5t-269.5 -62.5h-14l-23 -56q24 4 41 4z" />
    <glyph glyph-name="egrave" unicode="&#xe8;" horiz-adv-x="1008" 
d="M174 94q-102 114 -102 293q0 324 162 501t394 177q232 -1 300 -171q22 -54 22 -128q0 -161 -141 -257q-141 -97 -389 -97h-125q-1 -113 31 -158q59 -85 159 -85q99 0 199 55q46 27 69 27q43 0 72 -28t29 -68t-62 -83q-132 -92 -323 -92q-193 0 -295 114zM737 766
q0 46 -37 80q-36 36 -98 36q-114 0 -189 -80t-104 -212h103q246 0 306 100q18 30 19 76zM801 1328q1 -39 -25 -69t-64 -30t-83 35l-201 143q-57 41 -57 85q1 44 29 75q28 30 68 30t95 -43l182 -143q56 -44 56 -83z" />
    <glyph glyph-name="eacute" unicode="&#xe9;" horiz-adv-x="1008" 
d="M174 94q-102 114 -102 293q0 324 162 501t394 177q232 -1 300 -171q22 -54 22 -128q0 -161 -141 -257q-141 -97 -389 -97h-125q-1 -113 31 -158q59 -85 159 -85q99 0 199 55q46 27 69 27q43 0 72 -28t29 -68t-62 -83q-132 -92 -323 -92q-193 0 -295 114zM737 766
q0 46 -37 80q-36 36 -98 36q-114 0 -189 -80t-104 -212h103q246 0 306 100q18 30 19 76zM536 1229q-30 0 -56 30t-25 59q-1 29 11 48t44 45l183 143q55 43 95 43t68 -30t29 -74q0 -44 -57 -86l-201 -143q-29 -20 -45 -28t-46 -7z" />
    <glyph glyph-name="ecircumflex" unicode="&#xea;" horiz-adv-x="1008" 
d="M174 94q-102 114 -102 293q0 324 162 501t394 177q232 -1 300 -171q22 -54 22 -128q0 -161 -141 -257q-141 -97 -389 -97h-125q-1 -113 31 -158q59 -85 159 -85q99 0 199 55q46 27 69 27q43 0 72 -28t29 -68t-62 -83q-132 -92 -323 -92q-193 0 -295 114zM737 766
q0 46 -37 80q-36 36 -98 36q-114 0 -189 -80t-104 -212h103q246 0 306 100q18 30 19 76zM374 1233q-34 1 -58 31t-23 64t15 52q14 19 52 39l195 105q52 28 101 28t89 -28l142 -99q41 -29 54 -48t13 -51t-32 -62q-32 -31 -66 -31t-80 35l-129 100l-191 -108q-48 -27 -82 -27z
" />
    <glyph glyph-name="edieresis" unicode="&#xeb;" horiz-adv-x="1008" 
d="M174 94q-102 114 -102 293q0 324 162 501t394 177q232 -1 300 -171q22 -54 22 -128q0 -161 -141 -257q-141 -97 -389 -97h-125q-1 -113 31 -158q59 -85 159 -85q99 0 199 55q46 27 69 27q43 0 72 -28t29 -68t-62 -83q-132 -92 -323 -92q-193 0 -295 114zM737 766
q0 46 -37 80q-36 36 -98 36q-114 0 -189 -80t-104 -212h103q246 0 306 100q18 30 19 76zM836 1485q52 1 88 -37q38 -38 38 -90t-38 -88t-89 -37q-53 1 -89 37t-36 88t37 90t89 37zM442 1485q52 1 90 -37t37 -90q1 -52 -37 -88t-90 -37q-52 1 -88 37t-37 88q0 52 37 90
q36 38 88 37z" />
    <glyph glyph-name="igrave" unicode="&#xec;" horiz-adv-x="518" 
d="M338 1061q102 -1 102 -59q0 -24 -8 -76l-135 -848q-15 -94 -121 -94t-106 69q0 16 8 66l135 852q7 49 37 69t88 21zM556 1328q0 -39 -26 -69t-62 -30q-38 0 -84 35l-201 143q-57 41 -57 85t28 75q28 30 69 30q40 0 95 -43l182 -143q56 -44 56 -83z" />
    <glyph glyph-name="iacute" unicode="&#xed;" horiz-adv-x="518" 
d="M338 1061q102 -1 102 -59q0 -24 -8 -76l-135 -848q-15 -94 -121 -94t-106 69q0 16 8 66l135 852q7 49 37 69t88 21zM266 1229q-30 0 -56 30t-25 59q-1 29 11 48t44 45l183 143q55 43 95 43t68 -30t29 -74q0 -44 -57 -86l-201 -143q-29 -20 -45 -28t-46 -7z" />
    <glyph glyph-name="icircumflex" unicode="&#xee;" horiz-adv-x="518" 
d="M338 1061q102 -1 102 -59q0 -24 -8 -76l-135 -848q-15 -94 -121 -94t-106 69q0 16 8 66l135 852q7 49 37 69t88 21zM134 1233q-34 1 -58 31t-23 64t15 52q14 19 52 39l195 105q52 28 101 28t89 -28l142 -99q41 -29 54 -48t13 -51t-32 -62q-32 -31 -66 -31t-80 35
l-129 100l-191 -108q-48 -27 -82 -27z" />
    <glyph glyph-name="idieresis" unicode="&#xef;" horiz-adv-x="518" 
d="M338 1061q102 -1 102 -59q0 -24 -8 -76l-135 -848q-15 -94 -121 -94t-106 69q0 16 8 66l135 852q7 49 37 69t88 21zM576 1485q52 1 90 -37t37 -90q1 -52 -37 -88t-90 -37q-52 1 -88 37t-37 88q0 52 37 90q36 38 88 37zM184 1485q52 1 88 -37q38 -38 38 -90t-38 -88
t-89 -37q-53 1 -89 37t-36 88t37 90t89 37z" />
    <glyph glyph-name="eth" unicode="&#xf0;" horiz-adv-x="1120" 
d="M301 460q0 -276 221 -276q135 0 210 115t75 251q0 260 -215 261q-135 0 -213 -104.5t-78 -246.5zM1040 631q0 -279 -139.5 -465t-400.5 -186q-204 0 -316 122t-112 346t130.5 395t352.5 171q138 0 223 -96q-54 155 -168 262q-29 -16 -61 -34q-31 -18 -73 -42t-77 -24.5
t-60.5 31.5t-25.5 74t60 77l86 47q-21 11 -69 33t-63.5 36t-15.5 52t30.5 72t74.5 34t112.5 -32.5t122.5 -73.5l129 79q30 18 40.5 22.5t39.5 4.5t56.5 -35t27.5 -67t-14.5 -49.5t-44.5 -36.5l-84 -50q239 -237 239 -667z" />
    <glyph glyph-name="ntilde" unicode="&#xf1;" horiz-adv-x="1145" 
d="M432 907q118 158 316 158t264 -168q22 -57 22 -123t-10 -125l-90 -571q-10 -54 -40 -74t-81 -20q-106 0 -106 71q0 13 10 76l78 494q6 39 6 71q0 158 -150 158q-144 0 -228 -154q-33 -60 -48 -157l-72 -465q-8 -54 -41 -74t-84 -20q-102 0 -102 71q0 12 10 74l133 842
q9 53 39 71t79 19q49 0 79 -14t30 -56q0 -16 -6 -45zM836 1239q-78 0 -146 41t-99 41q-29 0 -47 -11t-48 -42t-59 -31q-29 -1 -52 25t-23 61q0 60 68 113t152 53q84 1 141 -33t75 -42t47 -7q29 0 53 40t59 40q33 0 57 -21t24 -69t-62 -103t-140 -55z" />
    <glyph glyph-name="ograve" unicode="&#xf2;" horiz-adv-x="1120" 
d="M590 860q-66 0 -124 -37q-56 -37 -92 -97q-72 -118 -73 -289q1 -173 123 -233q42 -20 108 -20q68 0 124 37t92 97q71 117 71 291q0 173 -122 231q-41 20 -107 20zM622 1065q205 0 316 -125t111 -351q1 -227 -123 -401q-147 -209 -426 -208q-213 0 -321 132
q-107 132 -107 346t118 391q88 133 246 187q80 28 186 29zM856 1328q0 -39 -26 -69t-62 -30q-38 0 -84 35l-201 143q-57 41 -57 85t28 75q28 30 69 30q40 0 95 -43l182 -143q56 -44 56 -83z" />
    <glyph glyph-name="oacute" unicode="&#xf3;" horiz-adv-x="1120" 
d="M590 860q-66 0 -124 -37q-56 -37 -92 -97q-72 -118 -73 -289q1 -173 123 -233q42 -20 108 -20q68 0 124 37t92 97q71 117 71 291q0 173 -122 231q-41 20 -107 20zM622 1065q205 0 316 -125t111 -351q1 -227 -123 -401q-147 -209 -426 -208q-213 0 -321 132
q-107 132 -107 346t118 391q88 133 246 187q80 28 186 29zM558 1229q-30 0 -56 30t-25 59q-1 29 11 48t44 45l183 143q55 43 95 43t68 -30t29 -74q0 -44 -57 -86l-201 -143q-29 -20 -45 -28t-46 -7z" />
    <glyph glyph-name="ocircumflex" unicode="&#xf4;" horiz-adv-x="1120" 
d="M590 860q-66 0 -124 -37q-56 -37 -92 -97q-72 -118 -73 -289q1 -173 123 -233q42 -20 108 -20q68 0 124 37t92 97q71 117 71 291q0 173 -122 231q-41 20 -107 20zM622 1065q205 0 316 -125t111 -351q1 -227 -123 -401q-147 -209 -426 -208q-213 0 -321 132
q-107 132 -107 346t118 391q88 133 246 187q80 28 186 29zM417 1233q-33 1 -57 31t-24 64t14 52q14 19 53 39l195 105q52 28 101 28t89 -28l142 -99q41 -29 54 -48t13 -51t-32 -62q-32 -31 -66 -31t-80 35l-129 100l-191 -108q-48 -27 -82 -27z" />
    <glyph glyph-name="otilde" unicode="&#xf5;" horiz-adv-x="1120" 
d="M590 860q-66 0 -124 -37q-56 -37 -92 -97q-72 -118 -73 -289q1 -173 123 -233q42 -20 108 -20q68 0 124 37t92 97q71 117 71 291q0 173 -122 231q-41 20 -107 20zM622 1065q205 0 316 -125t111 -351q1 -227 -123 -401q-147 -209 -426 -208q-213 0 -321 132
q-107 132 -107 346t118 391q88 133 246 187q80 28 186 29zM808 1239q-78 0 -146 41t-99 41q-29 0 -47 -11t-48 -42t-59 -31q-29 -1 -52 25t-23 61q0 60 68 113t152 53q84 1 141 -33t75 -42t47 -7q29 0 53 40t59 40q33 0 57 -21t24 -69t-62 -103t-140 -55z" />
    <glyph glyph-name="odieresis" unicode="&#xf6;" horiz-adv-x="1120" 
d="M590 860q-66 0 -124 -37q-56 -37 -92 -97q-72 -118 -73 -289q1 -173 123 -233q42 -20 108 -20q68 0 124 37t92 97q71 117 71 291q0 173 -122 231q-41 20 -107 20zM622 1065q205 0 316 -125t111 -351q1 -227 -123 -401q-147 -209 -426 -208q-213 0 -321 132
q-107 132 -107 346t118 391q88 133 246 187q80 28 186 29zM866 1485q52 1 90 -37t37 -90q1 -52 -37 -88t-90 -37q-52 1 -88 37t-37 88q0 52 37 90q36 38 88 37zM474 1485q52 1 88 -37q38 -38 38 -90t-38 -88t-89 -37q-53 1 -89 37t-36 88t37 90t89 37z" />
    <glyph glyph-name="divide" unicode="&#xf7;" horiz-adv-x="1208" 
d="M604 33q-55 0 -92 37.5t-37 92.5t37.5 91.5t91.5 36.5t91.5 -38t37.5 -91t-37 -91t-92 -38zM995 422h-782q-115 0 -115 102t115 101h782q115 1 115 -101t-115 -102zM604 756q-55 0 -92 38t-37 92t37.5 91t91.5 37t91.5 -38t37.5 -91t-37 -91t-92 -38z" />
    <glyph glyph-name="oslash" unicode="&#xf8;" horiz-adv-x="1120" 
d="M537 184q137 0 217 120.5t80 291.5q0 34 -7 78l-407 -461q50 -29 117 -29zM614 860q-136 0 -217.5 -121.5t-81.5 -289.5q0 -61 11 -93l413 469q-48 35 -125 35zM1062 1153q34 0 59.5 -23.5t25.5 -57.5t-31 -68l-115 -132q62 -110 62 -262q0 -268 -145 -449t-404 -181
q-143 0 -242 63l-90 -102q-37 -42 -52.5 -53t-45.5 -11t-56 24.5t-26 52.5t17 50q17 21 22 29l115 131q-70 116 -70 278q0 257 143.5 440t405.5 183q150 0 254 -70l94 107q45 51 79 51z" />
    <glyph glyph-name="ugrave" unicode="&#xf9;" horiz-adv-x="1145" 
d="M797 -16q-107 0 -107 69q0 13 4 33l8 47q-118 -153 -314 -153q-195 0 -263 168q-23 57 -23 120t11 127l90 572q9 54 39 74t82 20q106 0 106 -72q0 -5 -2 -16l-86 -553q-8 -53 -8 -78q0 -156 151 -156q143 0 229 158q34 62 48 158l72 465q8 54 40 74t84 20q103 0 103 -72
q0 -13 -6 -51l-137 -864q-8 -54 -38 -72t-83 -18zM856 1328q0 -39 -26 -69t-62 -30q-38 0 -84 35l-201 143q-57 41 -57 85t28 75q28 30 69 30q40 0 95 -43l182 -143q56 -44 56 -83z" />
    <glyph glyph-name="uacute" unicode="&#xfa;" horiz-adv-x="1145" 
d="M797 -16q-107 0 -107 69q0 13 4 33l8 47q-118 -153 -314 -153q-195 0 -263 168q-23 57 -23 120t11 127l90 572q9 54 39 74t82 20q106 0 106 -72q0 -5 -2 -16l-86 -553q-8 -53 -8 -78q0 -156 151 -156q143 0 229 158q34 62 48 158l72 465q8 54 40 74t84 20q103 0 103 -72
q0 -13 -6 -51l-137 -864q-8 -54 -38 -72t-83 -18zM576 1229q-30 0 -56 30t-25 59q-1 29 11 48t44 45l183 143q55 43 95 43t68 -30t29 -74q0 -44 -57 -86l-201 -143q-29 -20 -45 -28t-46 -7z" />
    <glyph glyph-name="ucircumflex" unicode="&#xfb;" horiz-adv-x="1145" 
d="M797 -16q-107 0 -107 69q0 13 4 33l8 47q-118 -153 -314 -153q-195 0 -263 168q-23 57 -23 120t11 127l90 572q9 54 39 74t82 20q106 0 106 -72q0 -5 -2 -16l-86 -553q-8 -53 -8 -78q0 -156 151 -156q143 0 229 158q34 62 48 158l72 465q8 54 40 74t84 20q103 0 103 -72
q0 -13 -6 -51l-137 -864q-8 -54 -38 -72t-83 -18zM432 1233q-34 1 -58 31t-23 64t15 52q14 19 52 39l195 105q52 28 101 28t89 -28l142 -99q41 -29 54 -48t13 -51t-32 -62q-32 -31 -66 -31t-80 35l-129 100l-191 -108q-48 -27 -82 -27z" />
    <glyph glyph-name="udieresis" unicode="&#xfc;" horiz-adv-x="1145" 
d="M797 -16q-107 0 -107 69q0 13 4 33l8 47q-118 -153 -314 -153q-195 0 -263 168q-23 57 -23 120t11 127l90 572q9 54 39 74t82 20q106 0 106 -72q0 -5 -2 -16l-86 -553q-8 -53 -8 -78q0 -156 151 -156q143 0 229 158q34 62 48 158l72 465q8 54 40 74t84 20q103 0 103 -72
q0 -13 -6 -51l-137 -864q-8 -54 -38 -72t-83 -18zM880 1485q52 1 90 -37t37 -90q1 -52 -37 -88t-90 -37q-52 1 -88 37t-37 88q0 52 37 90q36 38 88 37zM488 1485q52 1 88 -37q38 -38 38 -90t-38 -88t-89 -37q-53 1 -89 37t-36 88t37 90t89 37z" />
    <glyph glyph-name="yacute" unicode="&#xfd;" horiz-adv-x="1034" 
d="M921 1067q46 1 81 -23t35 -63q0 -93 -226 -545t-453 -662q-227 -208 -392 -208q-76 0 -76 99q0 41 21 63t80 39q166 48 328 262q-91 225 -155 527t-63 417q0 94 136 94q78 0 82 -88q16 -352 143 -772q193 301 360 778q17 49 35 65t64 17zM535 1229q-29 0 -55 30t-26 59
t12 48t43 45l183 143q55 43 95 43q41 0 69 -30t28 -74t-57 -86l-201 -143q-28 -20 -44 -28t-47 -7z" />
    <glyph glyph-name="thorn" unicode="&#xfe;" horiz-adv-x="1141" 
d="M563 -20q-187 0 -258 133l-74 -451q-9 -53 -36.5 -73.5t-92.5 -20.5q-98 0 -98 70q0 18 8 63l275 1747q7 49 39 68.5t88 19.5t78 -17t22 -38t-8 -76l-78 -494q104 154 291 154q156 0 253 -115.5t97 -318.5q0 -281 -142 -466t-364 -185zM537 182q143 0 224 134t81 307
q0 116 -52 178.5t-154 62.5t-170.5 -71.5t-86.5 -192.5l-29 -172q-6 -36 -6 -74q0 -75 52 -123.5t141 -48.5z" />
    <glyph glyph-name="ydieresis" unicode="&#xff;" horiz-adv-x="1034" 
d="M921 1067q46 1 81 -23t35 -63q0 -93 -226 -545t-453 -662q-227 -208 -392 -208q-76 0 -76 99q0 41 21 63t80 39q166 48 328 262q-91 225 -155 527t-63 417q0 94 136 94q78 0 82 -88q16 -352 143 -772q193 301 360 778q17 49 35 65t64 17zM810 1485q52 1 88 -37
q38 -38 38 -90t-38 -88t-89 -37q-53 1 -89 37t-36 88t37 90t89 37zM416 1485q52 1 90 -37t37 -90q1 -52 -37 -88t-90 -37q-52 1 -88 37t-37 88q0 52 37 90q36 38 88 37z" />
    <glyph glyph-name="Amacron" unicode="&#x100;" horiz-adv-x="1214" 
d="M721 1126q-156 -268 -283 -536h387q-43 310 -104 536zM1122 84q0 -104 -143 -104q-49 0 -65 22t-24 126q-8 105 -30 255h-516q-44 -91 -76 -165t-52 -120q-32 -76 -51 -97t-48 -21q-59 0 -101 24q-43 24 -43 59q0 72 205 491t424 755q30 49 62 75q31 25 84 25h16
q82 1 112 -71q64 -153 134 -498q70 -344 87 -486q17 -141 19 -162q6 -55 6 -108zM964 1542h-399q-61 0 -91 20t-30 80q0 59 30 80t91 21h399q64 0 94 -21t29 -79q0 -57 -30 -79t-93 -22z" />
    <glyph glyph-name="amacron" unicode="&#x101;" horiz-adv-x="1157" 
d="M72 414q0 277 141 464t356 187t277 -150l8 52q10 56 38 75t80 19t76 -15t23 -45q0 -30 -10 -90l-131 -833q-8 -54 -35 -74q-26 -20 -78 -20q-51 0 -77 12t-27 53q0 8 6 53l10 60q-101 -182 -307 -182q-150 0 -250 111t-100 323zM797 689q1 73 -49 123t-126 50t-120 -21
q-45 -21 -79 -56q-62 -64 -93 -165t-31 -208q0 -108 53 -170t158 -62t169 76q65 76 83 188l29 172q6 38 6 73zM876 1235h-399q-61 1 -91 21t-30 79t30 80t91 21h399q64 0 94 -21t29 -79q0 -58 -30 -80t-93 -21z" />
    <glyph glyph-name="Abreve" unicode="&#x102;" horiz-adv-x="1214" 
d="M721 1126q-156 -268 -283 -536h387q-43 310 -104 536zM1122 84q0 -104 -143 -104q-49 0 -65 22t-24 126q-8 105 -30 255h-516q-44 -91 -76 -165t-52 -120q-32 -76 -51 -97t-48 -21q-59 0 -101 24q-43 24 -43 59q0 72 205 491t424 755q30 49 62 75q31 25 84 25h16
q82 1 112 -71q64 -153 134 -498q70 -344 87 -486q17 -141 19 -162q6 -55 6 -108zM774 1540q-118 0 -212 72q-93 72 -93 155q-1 33 29 61t69 27q39 0 69 -51q54 -90 139 -90q84 0 136 94q26 47 67 47t70 -28t29 -60q-1 -83 -93 -155t-210 -72z" />
    <glyph glyph-name="abreve" unicode="&#x103;" horiz-adv-x="1157" 
d="M72 414q0 277 141 464t356 187t277 -150l8 52q10 56 38 75t80 19t76 -15t23 -45q0 -30 -10 -90l-131 -833q-8 -54 -35 -74q-26 -20 -78 -20q-51 0 -77 12t-27 53q0 8 6 53l10 60q-101 -182 -307 -182q-150 0 -250 111t-100 323zM797 689q1 73 -49 123t-126 50t-120 -21
q-45 -21 -79 -56q-62 -64 -93 -165t-31 -208q0 -108 53 -170t158 -62t169 76q65 76 83 188l29 172q6 38 6 73zM688 1233q-118 1 -212 73q-93 72 -93 154q-1 32 29 60t69 28t69 -51q54 -90 139 -90q84 0 136 94q26 47 67 47t70 -28t29 -60q-1 -84 -93 -156t-210 -71z" />
    <glyph glyph-name="Aogonek" unicode="&#x104;" horiz-adv-x="1214" 
d="M715 1110q-143 -241 -277 -520h387q-37 252 -110 520zM101 -20q-45 0 -86.5 25t-41.5 63q1 38 51 160q50 121 174 363t256 467q132 226 164 268q34 42 61 54.5t62 12.5h17q70 0 101 -51t104.5 -332.5t116 -551t42.5 -374.5q0 -40 -24 -68q-99 -109 -99 -202
q0 -30 18.5 -49t48.5 -19t64 18q36 18 58 17q22 0 39.5 -23.5t17.5 -61.5t-65.5 -75t-159.5 -37t-151.5 49.5t-57.5 130.5q0 110 109 232q-22 13 -25 72q-16 189 -35 315h-516q-46 -97 -104 -231t-76 -153t-63 -19z" />
    <glyph glyph-name="aogonek" unicode="&#x105;" horiz-adv-x="1157" 
d="M797 690q0 76 -52 124t-141 48q-143 0 -224 -133t-81 -307q0 -117 53 -179.5t154 -62.5t169 71t87 193l29 172q6 36 6 74zM713 36q0 22 6 66l10 60q-103 -182 -307 -182q-156 0 -253 115t-97 319q0 280 143 465.5t355 185.5t276 -150l8 52q7 48 31.5 71t93.5 23
q92 0 92 -68q0 -36 -10 -82l-131 -833q-8 -49 -31 -72q-92 -92 -92 -192q0 -30 18.5 -49t47.5 -19t65 18t57 17q22 0 40 -23.5t18 -61.5t-65.5 -75t-159.5 -37t-152 49t-58 131q0 111 115 236q-20 14 -20 36z" />
    <glyph glyph-name="Cacute" unicode="&#x106;" horiz-adv-x="1233" 
d="M635 -20q-252 0 -387 159t-135 428q1 368 187 607t503 239q195 1 319 -97q58 -46 82 -78t23 -69q-1 -36 -35 -74t-76 -38t-96 52q-99 93 -227 93q-215 0 -333 -180t-118 -442q0 -186 82 -286t225 -101q144 0 286 106q27 20 62 20q35 1 65 -35t30 -77q0 -71 -148 -149
t-309 -78zM767 1536q-29 0 -55 30t-26 59t12 48t43 45l183 143q55 43 95 43q41 0 69 -30t28 -74t-57 -86l-201 -143q-28 -19 -44 -27t-47 -8z" />
    <glyph glyph-name="cacute" unicode="&#x107;" horiz-adv-x="987" 
d="M469 -20q-177 0 -287 120t-110 320q0 291 146 468t388 177q136 -1 244 -59t108 -132q0 -40 -34 -78t-64 -38t-46 7t-54 37q-76 58 -164 58q-126 0 -210 -117t-83 -313q0 -118 52 -180q53 -62 147 -62t182 62q42 31 78 31q36 1 68 -35t32 -74q0 -60 -108 -126t-285 -66z
M558 1229q-30 0 -56 30t-25 59q-1 29 11 48t44 45l183 143q55 43 95 43t68 -30t29 -74q0 -44 -57 -86l-201 -143q-29 -20 -45 -28t-46 -7z" />
    <glyph glyph-name="Ccaron" unicode="&#x10c;" horiz-adv-x="1233" 
d="M635 -20q-252 0 -387 159t-135 428q1 368 187 607t503 239q195 1 319 -97q58 -46 82 -78t23 -69q-1 -36 -35 -74t-76 -38t-96 52q-99 93 -227 93q-215 0 -333 -180t-118 -442q0 -186 82 -286t225 -101q144 0 286 106q27 20 62 20q35 1 65 -35t30 -77q0 -71 -148 -149
t-309 -78zM1105 1859q35 -1 59 -31t24 -63t-14 -51t-53 -41l-195 -104q-54 -29 -102 -29t-88 29l-142 98q-41 27 -54 47t-13 52t32 62q32 31 65 31t81 -34l129 -101l190 109q45 26 81 26z" />
    <glyph glyph-name="ccaron" unicode="&#x10d;" horiz-adv-x="987" 
d="M469 -20q-177 0 -287 120t-110 320q0 291 146 468t388 177q136 -1 244 -59t108 -132q0 -40 -34 -78t-64 -38t-46 7t-54 37q-76 58 -164 58q-126 0 -210 -117t-83 -313q0 -118 52 -180q53 -62 147 -62t182 62q42 31 78 31q36 1 68 -35t32 -74q0 -60 -108 -126t-285 -66z
M910 1552q36 0 60 -30t23 -64q1 -34 -13 -52t-54 -40l-195 -104q-55 -29 -103 -29t-87 29l-142 98q-41 28 -54 48t-13 50q0 32 32 63t65 31t81 -34l129 -101l190 109q45 26 81 26z" />
    <glyph glyph-name="Dcaron" unicode="&#x10e;" horiz-adv-x="1382" 
d="M381 213h201q230 -1 350 169t119 454q1 164 -85 254t-245 90h-191q-14 0 -24 -11t-10 -28l-144 -895q0 -33 29 -33zM559 0h-309q-67 0 -103 38t-36 109q0 22 14 119l154 969q13 76 65 117t135 41h242q277 -1 419 -143t142 -414q0 -368 -186 -602t-537 -234zM1064 1859
q36 -1 60 -31t23 -63q1 -33 -13 -51t-54 -41l-195 -104q-55 -29 -103 -29t-87 29l-142 98q-41 27 -54 47t-13 52t32 62q32 31 65 31t81 -34l129 -101l190 109q45 26 81 26z" />
    <glyph glyph-name="dcaron" unicode="&#x10f;" horiz-adv-x="1303" 
d="M422 -20q-156 0 -253 115t-97 319q0 281 142 466t364 185q188 0 258 -141l84 518q8 54 36 74t93 20q98 0 98 -70q0 -19 -6 -51l-211 -1337q-9 -58 -37 -76t-86 -18q-94 0 -94 65q0 19 6 47l10 66q-103 -182 -307 -182zM506 180q101 0 169 71t87 193l29 172q6 36 6 74
q0 76 -52 124t-141 48q-143 0 -224 -133t-81 -307q0 -118 53 -180t154 -62zM1325 999q-42 -1 -69 23t-27 57q-1 33 23 89q50 120 51 260q0 50 27 78t81 28q107 0 107 -114t-57 -268q-57 -153 -136 -153z" />
    <glyph glyph-name="Dcroat" unicode="&#x110;" horiz-adv-x="1382" 
d="M381 213h201q230 -1 350 169t119 454q1 164 -85 254t-245 90h-191q-14 0 -24 -11t-10 -28l-52 -310h199q100 0 100 -79q0 -64 -31 -99t-89 -35h-211l-60 -372q0 -33 29 -33zM250 0q-67 0 -103 38t-36 109q0 22 14 119l55 352h-74q-94 0 -94 80q0 133 125 133h78l64 404
q13 76 65 117t135 41h242q277 -1 419 -143t142 -414q0 -368 -186 -602t-537 -234h-309z" />
    <glyph glyph-name="dcroat" unicode="&#x111;" horiz-adv-x="1139" 
d="M797 690q0 76 -52 124t-141 48q-143 0 -224 -133t-81 -307q0 -117 53 -179.5t154 -62.5t169 71t87 193l29 172q6 36 6 74zM1210 1362q101 0 101 -82q0 -55 -26 -89t-73 -34h-112l-170 -1079q-9 -58 -37 -76t-86 -18q-94 0 -94 65q0 19 6 47l10 66q-103 -182 -307 -182
q-156 0 -253 115t-97 319q0 281 142 466t364 185q188 0 258 -141l36 233h-241q-53 0 -77 19.5t-24 69.5t26.5 83t74.5 33h274l15 80q11 60 40.5 77t88.5 17q98 0 98 -70q0 -19 -6 -51l-8 -53h77z" />
    <glyph glyph-name="Emacron" unicode="&#x112;" horiz-adv-x="1087" 
d="M827 213q103 0 103 -54q0 -129 -76 -152q-24 -7 -59 -7h-529q-76 0 -118 34t-42 101q0 9 2 23t9 51l155 993q31 191 226 191h516q58 1 80 -17t22 -44t-4 -48q-10 -54 -36 -79t-95 -25h-446q-15 0 -27 -11t-14 -28l-50 -310h418q59 0 80 -19t21 -43q-1 -24 -5 -47
q-11 -54 -37 -79q-27 -25 -94 -25h-417l-52 -331q-2 -14 -4 -27t-2 -24q0 -23 23 -23h452zM927 1542h-399q-60 0 -90 20t-31 80q0 59 30 80t91 21h399q63 0 93 -21t30 -79q0 -57 -30 -79t-93 -22z" />
    <glyph glyph-name="emacron" unicode="&#x113;" horiz-adv-x="1008" 
d="M174 94q-102 114 -102 293q0 324 162 501t394 177q232 -1 300 -171q22 -54 22 -128q0 -161 -141 -257q-141 -97 -389 -97h-125q-1 -113 31 -158q59 -85 159 -85q99 0 199 55q46 27 69 27q43 0 72 -28t29 -68t-62 -83q-132 -92 -323 -92q-193 0 -295 114zM737 766
q0 46 -37 80q-36 36 -98 36q-114 0 -189 -80t-104 -212h103q246 0 306 100q18 30 19 76zM829 1235h-399q-60 1 -90 21t-31 79q0 59 30 80t91 21h399q63 0 93 -21t30 -79t-30 -80t-93 -21z" />
    <glyph glyph-name="Ebreve" unicode="&#x114;" horiz-adv-x="1087" 
d="M827 213q103 0 103 -54q0 -129 -76 -152q-24 -7 -59 -7h-529q-76 0 -118 34t-42 101q0 9 2 23t9 51l155 993q31 191 226 191h516q58 1 80 -17t22 -44t-4 -48q-10 -54 -36 -79t-95 -25h-446q-15 0 -27 -11t-14 -28l-50 -310h418q59 0 80 -19t21 -43q-1 -24 -5 -47
q-11 -54 -37 -79q-27 -25 -94 -25h-417l-52 -331q-2 -14 -4 -27t-2 -24q0 -23 23 -23h452zM760 1540q-118 0 -212 72q-93 72 -93 155q-1 33 29 61t69 27q39 0 69 -51q54 -90 139 -90q84 0 136 94q26 47 67 47t70 -28t29 -60q-1 -83 -93 -155t-210 -72z" />
    <glyph glyph-name="ebreve" unicode="&#x115;" horiz-adv-x="1008" 
d="M174 94q-102 114 -102 293q0 324 162 501t394 177q232 -1 300 -171q22 -54 22 -128q0 -161 -141 -257q-141 -97 -389 -97h-125q-1 -113 31 -158q59 -85 159 -85q99 0 199 55q46 27 69 27q43 0 72 -28t29 -68t-62 -83q-132 -92 -323 -92q-193 0 -295 114zM737 766
q0 46 -37 80q-36 36 -98 36q-114 0 -189 -80t-104 -212h103q246 0 306 100q18 30 19 76zM646 1233q-118 1 -211 73t-93 154q0 32 30 60t68 28q40 0 70 -51q54 -90 138 -90t136 94q26 47 67 47t70 -28t29 -60q0 -84 -92 -156q-94 -72 -212 -71z" />
    <glyph glyph-name="Edotaccent" unicode="&#x116;" horiz-adv-x="1087" 
d="M827 213q103 0 103 -54q0 -129 -76 -152q-24 -7 -59 -7h-529q-76 0 -118 34t-42 101q0 9 2 23t9 51l155 993q31 191 226 191h516q58 1 80 -17t22 -44t-4 -48q-10 -54 -36 -79t-95 -25h-446q-15 0 -27 -11t-14 -28l-50 -310h418q59 0 80 -19t21 -43q-1 -24 -5 -47
q-11 -54 -37 -79q-27 -25 -94 -25h-417l-52 -331q-2 -14 -4 -27t-2 -24q0 -23 23 -23h452zM768 1818q58 0 100 -42t42 -98q0 -58 -42 -99t-100 -41t-98 41t-41 99q1 58 41 98q40 42 98 42z" />
    <glyph glyph-name="edotaccent" unicode="&#x117;" horiz-adv-x="1008" 
d="M174 94q-102 114 -102 293q0 324 162 501t394 177q232 -1 300 -171q22 -54 22 -128q0 -161 -141 -257q-141 -97 -389 -97h-125q-1 -113 31 -158q59 -85 159 -85q99 0 199 55q46 27 69 27q43 0 72 -28t29 -68t-62 -83q-132 -92 -323 -92q-193 0 -295 114zM737 766
q0 46 -37 80q-36 36 -98 36q-114 0 -189 -80t-104 -212h103q246 0 306 100q18 30 19 76zM654 1511q58 1 100 -41t41 -100q1 -58 -41 -98q-42 -41 -100 -41t-100 41q-40 40 -40 98t40 100q42 42 100 41z" />
    <glyph glyph-name="Eogonek" unicode="&#x118;" horiz-adv-x="1087" 
d="M827 213q103 0 103 -57q0 -84 -35 -125q-113 -129 -113 -217q0 -30 18 -49t48 -19t66 18t56 17q22 0 40 -23.5t18 -61.5t-66 -75t-160 -37t-151 49.5t-57 130.5q0 113 113 236h-441q-75 0 -117.5 34.5t-42.5 100.5q0 10 3 23l163 1044q14 92 71.5 141.5t154.5 49.5h516
q54 0 78 -16.5t24 -58.5t-22 -90t-113 -48h-446q-16 0 -27.5 -11t-13.5 -28l-50 -310h418q52 0 76.5 -16.5t24.5 -67.5t-27.5 -90t-108.5 -39h-417l-52 -331q-6 -38 -6 -51q0 -23 23 -23h452z" />
    <glyph glyph-name="eogonek" unicode="&#x119;" horiz-adv-x="1008" 
d="M295 412q0 -230 207 -230q92 0 201 69q27 17 59 17t62 -35t30 -69t-24 -59t-74.5 -56.5t-100.5 -44.5q-90 -112 -90 -190q0 -30 18.5 -49t48.5 -19t64 18q36 18 58 17q22 0 39.5 -23.5t17.5 -61.5t-65.5 -75t-159.5 -37t-151.5 50t-57.5 144t96 202q-192 1 -296.5 112
t-104.5 311q0 297 158.5 479.5t385.5 182.5q157 0 245.5 -77t88.5 -212q0 -170 -140.5 -267t-389.5 -97h-125zM737 756q0 51 -38 83.5t-99 32.5q-107 0 -183.5 -74.5t-107.5 -207.5h103q160 0 242.5 43t82.5 123z" />
    <glyph glyph-name="Ecaron" unicode="&#x11a;" horiz-adv-x="1087" 
d="M827 213q103 0 103 -54q0 -129 -76 -152q-24 -7 -59 -7h-529q-76 0 -118 34t-42 101q0 9 2 23t9 51l155 993q31 191 226 191h516q58 1 80 -17t22 -44t-4 -48q-10 -54 -36 -79t-95 -25h-446q-15 0 -27 -11t-14 -28l-50 -310h418q59 0 80 -19t21 -43q-1 -24 -5 -47
q-11 -54 -37 -79q-27 -25 -94 -25h-417l-52 -331q-2 -14 -4 -27t-2 -24q0 -23 23 -23h452zM1006 1859q36 -1 60 -31t23 -63q1 -33 -13 -51t-54 -41l-195 -104q-55 -29 -103 -29t-87 29l-142 98q-41 27 -54 47t-13 52t32 62q32 31 65 31t81 -34l129 -101l190 109q45 26 81 26
z" />
    <glyph glyph-name="ecaron" unicode="&#x11b;" horiz-adv-x="1008" 
d="M174 94q-102 114 -102 293q0 324 162 501t394 177q232 -1 300 -171q22 -54 22 -128q0 -161 -141 -257q-141 -97 -389 -97h-125q-1 -113 31 -158q59 -85 159 -85q99 0 199 55q46 27 69 27q43 0 72 -28t29 -68t-62 -83q-132 -92 -323 -92q-193 0 -295 114zM737 766
q0 46 -37 80q-36 36 -98 36q-114 0 -189 -80t-104 -212h103q246 0 306 100q18 30 19 76zM885 1552q35 0 59 -30t24 -64t-14 -52t-53 -40l-195 -104q-54 -29 -102 -29t-88 29l-142 98q-41 28 -54 48t-13 50q0 32 32 63t65 31t81 -34l129 -101l190 109q45 26 81 26z" />
    <glyph glyph-name="Gbreve" unicode="&#x11e;" horiz-adv-x="1356" 
d="M754 561q-88 1 -88 65q0 58 25 103t77 45h367q96 0 96 -78v-12t-2 -14l-68 -422q-20 -135 -147 -193q-164 -75 -359 -75q-247 0 -398 157t-151 418q0 368 198 613t550 245q201 0 352 -90q80 -48 80 -93q0 -46 -33 -88t-64 -42t-52 10q-20 10 -59 32q-108 58 -214 58
q-107 0 -179 -24q-73 -24 -129 -68q-109 -84 -165 -228q-57 -143 -57 -309q0 -279 200 -360q66 -27 156 -27q88 0 150 24t80 40q17 17 22 45l43 268h-231zM880 1540q-118 0 -211 72t-93 155q0 33 30 61t68 27q40 0 70 -51q54 -90 138 -90t136 94q26 47 67 47t70 -28t29 -60
q0 -83 -92 -155q-94 -72 -212 -72z" />
    <glyph glyph-name="gbreve" unicode="&#x11f;" horiz-adv-x="1157" 
d="M979 1061q94 0 94 -66q0 -12 -4 -28l-143 -910q-36 -239 -146 -353q-130 -137 -389 -136q-174 0 -309 70q-70 37 -70 81t20 69t37 35t37 10t38 -8q18 -9 85 -37q68 -28 152 -28q158 0 230 67t102 245l14 93q-36 -64 -114 -115q-78 -50 -168 -50q-171 0 -272 111t-101 303
q0 277 141 464t356 187t277 -150l8 52q10 56 38 75t87 19zM502 197q167 -1 232 155q19 46 28 92l29 172q6 38 6 73q1 73 -49 123t-126 50t-120 -20q-45 -20 -79 -56q-62 -63 -93 -163t-31 -203q0 -102 53 -162t150 -61zM694 1233q-118 1 -211 73t-93 154q0 32 30 60t68 28
q40 0 70 -51q54 -90 138 -90t136 94q26 47 67 47t70 -28t29 -60q0 -84 -92 -156q-94 -72 -212 -71z" />
    <glyph glyph-name="Gcommaaccent" unicode="&#x122;" horiz-adv-x="1356" 
d="M754 561q-88 1 -88 65q0 58 25 103t77 45h367q96 0 96 -78v-12t-2 -14l-68 -422q-20 -135 -147 -193q-164 -75 -359 -75q-247 0 -398 157t-151 418q0 368 198 613t550 245q201 0 352 -90q80 -48 80 -93q0 -46 -33 -88t-64 -42t-52 10q-20 10 -59 32q-108 58 -214 58
q-107 0 -179 -24q-73 -24 -129 -68q-109 -84 -165 -228q-57 -143 -57 -309q0 -279 200 -360q66 -27 156 -27q88 0 150 24t80 40q17 17 22 45l43 268h-231zM575 -520q-42 0 -69 24t-27 52q1 28 25 86t24 145q0 107 111 107q104 0 104 -113q0 -81 -48 -191t-120 -110z" />
    <glyph glyph-name="gcommaaccent" unicode="&#x123;" horiz-adv-x="1157" 
d="M979 1061q94 0 94 -66q0 -12 -4 -28l-143 -910q-36 -239 -146 -353q-130 -137 -389 -136q-174 0 -309 70q-70 37 -70 81t20 69t37 35t37 10t38 -8q18 -9 85 -37q68 -28 152 -28q158 0 230 67t102 245l14 93q-36 -64 -114 -115q-78 -50 -168 -50q-171 0 -272 111t-101 303
q0 277 141 464t356 187t277 -150l8 52q10 56 38 75t87 19zM502 197q167 -1 232 155q19 46 28 92l29 172q6 38 6 73q1 73 -49 123t-126 50t-120 -20q-45 -20 -79 -56q-62 -63 -93 -163t-31 -203q0 -102 53 -162t150 -61zM697 1556q43 0 69 -23t27 -53q0 -30 -11 -51
q-38 -78 -38 -182t-111 -104q-104 0 -104 112q0 89 48 195t120 106z" />
    <glyph glyph-name="Imacron" unicode="&#x12a;" horiz-adv-x="567" 
d="M202 -16q-54 0 -81 16t-27 57q0 7 2 25t6 41l189 1190q10 57 37 77q27 19 81 19q55 0 84 -14q29 -15 29 -49t-10 -86l-186 -1176q-10 -56 -40 -78t-84 -22zM621 1542h-399q-60 0 -90 20t-31 80q0 59 30 80t91 21h399q63 0 93 -21t30 -79q0 -57 -30 -79t-93 -22z" />
    <glyph glyph-name="imacron" unicode="&#x12b;" horiz-adv-x="518" 
d="M338 1061q102 -1 102 -59q0 -24 -8 -76l-135 -848q-15 -94 -121 -94t-106 69q0 16 8 66l135 852q7 49 37 69t88 21zM545 1235h-399q-60 1 -90 21t-31 79q0 59 30 80t91 21h399q63 0 93 -21t30 -79t-30 -80t-93 -21z" />
    <glyph glyph-name="Iogonek" unicode="&#x12e;" horiz-adv-x="567" 
d="M413 1409q109 0 109 -66q0 -31 -10 -83l-186 -1176q-10 -64 -50 -84q-86 -108 -86 -186q0 -30 18 -49t48 -19t66 18t56 17q22 0 40 -23.5t18 -61.5t-66 -75t-160 -37t-151 49.5t-57 130.5q0 113 115 238q-23 16 -23 55q0 3 8 66l189 1190q9 54 34.5 75t87.5 21z" />
    <glyph glyph-name="iogonek" unicode="&#x12f;" horiz-adv-x="518" 
d="M260 1346q0 54 36.5 90.5t89.5 36.5t89.5 -37.5t36.5 -89.5t-38 -88.5t-90 -36.5t-88 35.5t-36 89.5zM338 1061q102 -1 102 -59q0 -24 -8 -76l-135 -848q-9 -57 -55 -80q-84 -108 -84 -184q0 -31 18.5 -49.5t47.5 -18.5q28 0 64 18t58 17q22 0 39.5 -23.5t17.5 -61.5
t-65.5 -75t-159.5 -37t-151.5 49.5t-57.5 130.5q0 114 119 240q-18 15 -18 40t8 75l135 852q8 49 37.5 69.5t87.5 20.5z" />
    <glyph glyph-name="Idotaccent" unicode="&#x130;" horiz-adv-x="567" 
d="M202 -16q-54 0 -81 16t-27 57q0 7 2 25t6 41l189 1190q10 57 37 77q27 19 81 19q55 0 84 -14q29 -15 29 -49t-10 -86l-186 -1176q-10 -56 -40 -78t-84 -22zM446 1818q58 0 100 -42t42 -98q0 -58 -42 -99t-100 -41t-98 41t-41 99q1 58 41 98q40 42 98 42z" />
    <glyph glyph-name="dotlessi" unicode="&#x131;" horiz-adv-x="518" 
d="M338 1061q102 -1 102 -59q0 -24 -8 -76l-135 -848q-15 -94 -121 -94t-106 69q0 16 8 66l135 852q8 49 37.5 69.5t87.5 20.5z" />
    <glyph glyph-name="Kcommaaccent" unicode="&#x136;" horiz-adv-x="1180" 
d="M415 1409q107 0 107 -61q0 -30 -8 -74l-72 -457q147 108 300 254t262 283q46 57 92 57q45 -1 86 -35t41 -76q0 -18 -8 -37t-72 -98t-188 -196t-257 -224q184 -235 306 -474q60 -119 69 -145q8 -26 8 -42q0 -42 -47 -72t-88 -30t-56 14t-36 53q-168 333 -348 569l-50 -33
q-27 -16 -57 -36l-73 -465q-9 -56 -42 -78t-86 -22q-52 0 -78 16t-26 57v7q0 4 6 55l191 1194q8 51 37 73t87 23zM502 -520q-42 0 -69 24t-27 52t24 86t25 145q0 107 111 107q104 0 104 -113q0 -81 -48 -191t-120 -110z" />
    <glyph glyph-name="kcommaaccent" unicode="&#x137;" horiz-adv-x="1006" 
d="M891 1063q37 0 73 -33t37 -62t-11 -51q-12 -23 -58 -73q-121 -133 -307 -260q105 -121 195 -280t89 -232q-1 -40 -39 -65t-83 -25t-61 14t-34 51q-103 244 -248 422q-36 -24 -96 -57l-51 -334q-15 -94 -121 -94t-106 69q0 17 4 39l213 1354q7 46 36 68t91 22
q100 0 100 -68q0 -14 -8 -61l-119 -752q242 171 408 357q27 31 43 41t53 10zM411 -520q-42 0 -69 24t-27 52q1 28 25 86t24 145q0 107 111 107q104 0 104 -113q0 -81 -48 -191t-120 -110z" />
    <glyph glyph-name="Lacute" unicode="&#x139;" horiz-adv-x="1022" 
d="M295 1323q20 86 124 86q103 0 103 -69q0 -34 -8 -74l-158 -992q-4 -25 -4 -34q0 -27 23 -27h444q90 0 90 -74q0 -59 -30 -99t-84 -40h-527q-75 0 -117 34t-42 103q0 28 24 180zM411 1536q-29 0 -55 30t-26 59t12 48t43 45l183 143q55 43 95 43q41 0 69 -30t28 -74
t-57 -86l-201 -143q-28 -19 -44 -27t-47 -8z" />
    <glyph glyph-name="lacute" unicode="&#x13a;" horiz-adv-x="518" 
d="M176 -16q-106 0 -106 69q0 16 8 66l209 1327q8 50 38 70q29 20 87 20t80 -17t22 -38t-8 -76l-209 -1327q-15 -94 -121 -94zM339 1651q-29 0 -55 30t-26 59t12 48t43 45l183 143q55 43 95 43q41 0 69 -30t28 -74t-57 -86l-201 -143q-28 -20 -44 -28t-47 -7z" />
    <glyph glyph-name="Lcommaaccent" unicode="&#x13b;" horiz-adv-x="1022" 
d="M295 1323q20 86 124 86q103 0 103 -69q0 -34 -8 -74l-158 -992q-4 -25 -4 -34q0 -27 23 -27h444q90 0 90 -74q0 -59 -30 -99t-84 -40h-527q-75 0 -117 34t-42 103q0 28 24 180zM429 -520q-42 0 -69 24t-27 52q1 28 25 86t24 145q0 107 111 107q104 0 104 -113
q0 -81 -48 -191t-120 -110z" />
    <glyph glyph-name="lcommaaccent" unicode="&#x13c;" horiz-adv-x="518" 
d="M176 -16q-106 0 -106 69q0 16 8 66l209 1327q8 50 38 70q29 20 87 20t80 -17t22 -38t-8 -76l-209 -1327q-15 -94 -121 -94zM79 -520q-42 0 -69 24t-27 52q1 28 25 86t24 145q0 107 111 107q104 0 104 -113q0 -81 -48 -191t-120 -110z" />
    <glyph glyph-name="Lcaron" unicode="&#x13d;" horiz-adv-x="1022" 
d="M295 1323q20 86 124 86q103 0 103 -69q0 -34 -8 -74l-158 -992q-4 -25 -4 -34q0 -27 23 -27h444q90 0 90 -74q0 -59 -30 -99t-84 -40h-527q-75 0 -117 34t-42 103q0 28 24 180zM790 1000q-42 0 -69 24t-27 52t24 86t25 145q0 107 111 107q104 0 104 -113q0 -81 -48 -191
t-120 -110z" />
    <glyph glyph-name="lcaron" unicode="&#x13e;" horiz-adv-x="682" 
d="M176 -16q-106 0 -106 69q0 16 8 66l209 1327q8 50 38 70q29 20 87 20t80 -17t22 -38t-8 -76l-209 -1327q-15 -94 -121 -94zM696 1120q-42 0 -69 24t-27 52t24 86t25 145q0 107 111 107q104 0 104 -113q0 -81 -48 -191t-120 -110z" />
    <glyph glyph-name="Lslash" unicode="&#x141;" horiz-adv-x="1001" 
d="M522 1344q0 -30 -2 -41l-71 -449l163 72q28 12 60 12t57 -35t25 -80q0 -63 -80 -100l-264 -115l-58 -362v-6q0 -27 23 -27h450q44 0 63 -16.5t19 -69.5t-29.5 -90t-74.5 -37h-535q-76 0 -117.5 36t-41.5 90t53 374l-60 -25q-35 -14 -52 -14h-7q-39 0 -62.5 36.5
t-23.5 90.5t80 88l164 72l91 563q17 98 123 98q107 1 107 -65z" />
    <glyph glyph-name="lslash" unicode="&#x142;" horiz-adv-x="512" 
d="M414 1536q100 0 100 -68q0 -9 -1 -16l-81 -508l78 35q27 12 58 12t57 -35.5t26 -78.5q0 -65 -80 -101l-178 -78l-96 -620q-15 -94 -121 -94t-106 69q0 17 2 25l80 516l-54 -23q-34 -14 -52 -14h-7q-39 0 -62.5 36.5t-23.5 90.5t80 88l157 68l97 606q7 47 36 68.5t91 21.5
z" />
    <glyph glyph-name="Nacute" unicode="&#x143;" horiz-adv-x="1405" 
d="M965 3q-26 19 -44 58l-456 976l-152 -955q-9 -56 -37 -77t-80 -21t-77 16t-25 46q0 31 6 65l183 1151q24 147 147 147q82 0 112 -78l445 -963l150 941q9 58 36 79t79 21t80 -16t28 -60q0 -14 -8 -67l-185 -1162q-11 -64 -45 -92t-82 -28q-49 0 -75 19zM783 1536
q-29 0 -55 30t-26 59t12 48t43 45l183 143q55 43 95 43q41 0 69 -30t28 -74t-57 -86l-201 -143q-28 -19 -44 -27t-47 -8z" />
    <glyph glyph-name="nacute" unicode="&#x144;" horiz-adv-x="1145" 
d="M432 907q118 158 316 158t264 -168q22 -57 22 -123t-10 -125l-90 -571q-10 -54 -40 -74t-81 -20q-106 0 -106 71q0 13 10 76l78 494q6 39 6 71q0 158 -150 158q-144 0 -228 -154q-33 -60 -48 -157l-72 -465q-8 -54 -41 -74t-84 -20q-102 0 -102 71q0 12 10 74l133 842
q9 53 39 71t79 19q49 0 79 -14t30 -56q0 -16 -6 -45zM593 1229q-29 0 -55 30t-26 59t12 48t43 45l183 143q55 43 95 43q41 0 69 -30t28 -74t-57 -86l-201 -143q-28 -20 -44 -28t-47 -7z" />
    <glyph glyph-name="Ncommaaccent" unicode="&#x145;" horiz-adv-x="1405" 
d="M965 3q-26 19 -44 58l-456 976l-152 -955q-9 -56 -37 -77t-80 -21t-77 16t-25 46q0 31 6 65l183 1151q24 147 147 147q82 0 112 -78l445 -963l150 941q9 58 36 79t79 21t80 -16t28 -60q0 -14 -8 -67l-185 -1162q-11 -64 -45 -92t-82 -28q-49 0 -75 19zM545 -520
q-42 0 -69 24t-27 52q1 28 25 86t24 145q0 107 111 107q104 0 104 -113q0 -81 -48 -191t-120 -110z" />
    <glyph glyph-name="ncommaaccent" unicode="&#x146;" horiz-adv-x="1145" 
d="M432 907q118 158 316 158t264 -168q22 -57 22 -123t-10 -125l-90 -571q-10 -54 -40 -74t-81 -20q-106 0 -106 71q0 13 10 76l78 494q6 39 6 71q0 158 -150 158q-144 0 -228 -154q-33 -60 -48 -157l-72 -465q-8 -54 -41 -74t-84 -20q-102 0 -102 71q0 12 10 74l133 842
q9 53 39 71t79 19q49 0 79 -14t30 -56q0 -16 -6 -45zM425 -520q-42 0 -69 24t-27 52q1 28 25 86t24 145q0 107 111 107q104 0 104 -113q0 -81 -48 -191t-120 -110z" />
    <glyph glyph-name="Ncaron" unicode="&#x147;" horiz-adv-x="1405" 
d="M965 3q-26 19 -44 58l-456 976l-152 -955q-9 -56 -37 -77t-80 -21t-77 16t-25 46q0 31 6 65l183 1151q24 147 147 147q82 0 112 -78l445 -963l150 941q9 58 36 79t79 21t80 -16t28 -60q0 -14 -8 -67l-185 -1162q-11 -64 -45 -92t-82 -28q-49 0 -75 19zM1121 1859
q35 -1 59 -31t24 -63t-14 -51t-53 -41l-195 -104q-54 -29 -102 -29t-88 29l-142 98q-41 27 -54 47t-13 52t32 62q32 31 65 31t81 -34l129 -101l190 109q45 26 81 26z" />
    <glyph glyph-name="ncaron" unicode="&#x148;" horiz-adv-x="1145" 
d="M432 907q118 158 316 158t264 -168q22 -57 22 -123t-10 -125l-90 -571q-10 -54 -40 -74t-81 -20q-106 0 -106 71q0 13 10 76l78 494q6 39 6 71q0 158 -150 158q-144 0 -228 -154q-33 -60 -48 -157l-72 -465q-8 -54 -41 -74t-84 -20q-102 0 -102 71q0 12 10 74l133 842
q9 53 39 71t79 19q49 0 79 -14t30 -56q0 -16 -6 -45zM947 1552q35 0 59 -30t24 -64t-14 -52t-53 -40l-195 -104q-54 -29 -102 -29t-88 29l-142 98q-41 28 -54 48t-13 50q0 32 32 63t65 31t81 -34l129 -101l190 109q45 26 81 26z" />
    <glyph glyph-name="Omacron" unicode="&#x14c;" horiz-adv-x="1380" 
d="M793 1210q-81 0 -145 -27t-116 -73q-95 -88 -144 -236q-50 -148 -50 -307q0 -260 161 -351q59 -34 145 -34t150 28t115 76q92 88 139 236q48 148 48 265q0 115 -16 185t-54 122q-36 52 -94 84t-139 32zM808 1413q242 0 379 -146q138 -146 138 -419q1 -334 -159 -580
q-116 -179 -314 -251q-102 -37 -228 -37q-246 0 -381 158q-134 158 -134 417q-1 337 161 579q114 174 314 244q102 36 224 35zM1040 1542h-399q-61 0 -91 20t-30 80q0 59 30 80t91 21h399q64 0 94 -21t29 -79q0 -57 -30 -79t-93 -22z" />
    <glyph glyph-name="omacron" unicode="&#x14d;" horiz-adv-x="1120" 
d="M590 860q-66 0 -124 -37q-56 -37 -92 -97q-72 -118 -73 -289q1 -173 123 -233q42 -20 108 -20q68 0 124 37t92 97q71 117 71 291q0 173 -122 231q-41 20 -107 20zM622 1065q205 0 316 -125t111 -351q1 -227 -123 -401q-147 -209 -426 -208q-213 0 -321 132
q-107 132 -107 346t118 391q88 133 246 187q80 28 186 29zM864 1235h-399q-61 1 -91 21t-30 79t30 80t91 21h399q64 0 94 -21t29 -79q0 -58 -30 -80t-93 -21z" />
    <glyph glyph-name="Obreve" unicode="&#x14e;" horiz-adv-x="1380" 
d="M793 1210q-81 0 -145 -27t-116 -73q-95 -88 -144 -236q-50 -148 -50 -307q0 -260 161 -351q59 -34 145 -34t150 28t115 76q92 88 139 236q48 148 48 265q0 115 -16 185t-54 122q-36 52 -94 84t-139 32zM808 1413q242 0 379 -146q138 -146 138 -419q1 -334 -159 -580
q-116 -179 -314 -251q-102 -37 -228 -37q-246 0 -381 158q-134 158 -134 417q-1 337 161 579q114 174 314 244q102 36 224 35zM856 1540q-118 0 -212 72q-93 72 -93 155q-1 33 29 61t69 27q39 0 69 -51q54 -90 139 -90q84 0 136 94q26 47 67 47t70 -28t29 -60
q-1 -83 -93 -155t-210 -72z" />
    <glyph glyph-name="obreve" unicode="&#x14f;" horiz-adv-x="1120" 
d="M590 860q-66 0 -124 -37q-56 -37 -92 -97q-72 -118 -73 -289q1 -173 123 -233q42 -20 108 -20q68 0 124 37t92 97q71 117 71 291q0 173 -122 231q-41 20 -107 20zM622 1065q205 0 316 -125t111 -351q1 -227 -123 -401q-147 -209 -426 -208q-213 0 -321 132
q-107 132 -107 346t118 391q88 133 246 187q80 28 186 29zM670 1233q-118 1 -212 73q-93 72 -93 154q-1 32 29 60t69 28t69 -51q54 -90 139 -90q84 0 136 94q26 47 67 47t70 -28t29 -60q-1 -84 -93 -156t-210 -71z" />
    <glyph glyph-name="Ohungarumlaut" unicode="&#x150;" horiz-adv-x="1380" 
d="M793 1210q-81 0 -145 -27t-116 -73q-95 -88 -144 -236q-50 -148 -50 -307q0 -260 161 -351q59 -34 145 -34t150 28t115 76q92 88 139 236q48 148 48 265q0 115 -16 185t-54 122q-36 52 -94 84t-139 32zM808 1413q242 0 379 -146q138 -146 138 -419q1 -334 -159 -580
q-116 -179 -314 -251q-102 -37 -228 -37q-246 0 -381 158q-134 158 -134 417q-1 337 161 579q114 174 314 244q102 36 224 35zM610 1532q-30 0 -58 26t-28 67q0 40 31 81l100 135q29 37 47 51t52 14t64 -26q32 -26 32 -62t-39 -88l-111 -143q-22 -27 -41 -41t-49 -14z
M1006 1532q-30 0 -58 26t-27 66q0 39 31 82l100 135q28 37 47 51t53 14t64 -26q31 -26 31 -63t-39 -87l-111 -143q-22 -27 -41 -41q-20 -14 -50 -14z" />
    <glyph glyph-name="ohungarumlaut" unicode="&#x151;" horiz-adv-x="1120" 
d="M590 860q-66 0 -124 -37q-56 -37 -92 -97q-72 -118 -73 -289q1 -173 123 -233q42 -20 108 -20q68 0 124 37t92 97q71 117 71 291q0 173 -122 231q-41 20 -107 20zM622 1065q205 0 316 -125t111 -351q1 -227 -123 -401q-147 -209 -426 -208q-213 0 -321 132
q-107 132 -107 346t118 391q88 133 246 187q80 28 186 29zM418 1225q-30 1 -58 27t-28 66t31 81l100 135q29 38 47 52t52 13q34 0 64 -26q32 -25 32 -61t-39 -89l-111 -143q-22 -28 -41 -42t-49 -13zM814 1225q-30 1 -58 27t-27 65q0 39 31 82l100 135q28 38 47 52t53 13
q34 0 64 -26q31 -26 31 -63t-39 -87l-111 -143q-22 -28 -41 -42q-20 -14 -50 -13z" />
    <glyph glyph-name="OE" unicode="&#x152;" horiz-adv-x="1880" 
d="M1028 1008q0 68 -69 135t-168 67q-209 0 -331 -187t-122 -456q0 -180 79.5 -282.5t231.5 -102.5q110 0 194 68.5t101 181.5l70 445q14 89 14 131zM584 -20q-212 0 -343.5 158t-131.5 417q0 374 185 616t472 242q240 0 326 -131q49 111 198 111h516q56 0 79.5 -16.5
t23.5 -56.5t-21.5 -90t-113.5 -50h-447q-15 0 -27 -11t-14 -28l-49 -310h418q53 0 76.5 -16.5t23.5 -68.5t-28 -90t-107 -38h-418l-55 -358q-2 -13 -2 -24q0 -23 22 -23h453q57 0 79.5 -14.5t22.5 -60.5t-23.5 -92t-111.5 -46h-528q-113 0 -148 74q-115 -94 -327 -94z" />
    <glyph glyph-name="oe" unicode="&#x153;" horiz-adv-x="1743" 
d="M301 472q0 -145 58 -216.5t163 -71.5q136 0 216.5 119.5t80.5 267.5q0 289 -219 289q-137 0 -218 -121.5t-81 -266.5zM1147 590q160 0 243 43t83 123q0 51 -38 83.5t-100 32.5q-106 0 -183 -74t-108 -208h103zM1030 412q0 -230 207 -230q93 0 182 60q39 26 81 26
t66.5 -31.5t24.5 -74.5q0 -68 -108.5 -125t-248.5 -57t-218 43t-131 143q-144 -186 -385 -186q-203 0 -315.5 127t-112.5 335q0 254 140.5 438.5t391.5 184.5q107 0 199.5 -53.5t150.5 -147.5q136 201 385 201q165 0 256 -76t91 -213q0 -169 -141 -266.5t-390 -97.5h-125z
" />
    <glyph glyph-name="Racute" unicode="&#x154;" horiz-adv-x="1194" 
d="M915 1031q-1 75 -55 116t-164 41h-159q-14 0 -26 -11t-15 -28l-58 -367h209q191 0 248 129q20 45 20 120zM451 575h-45l-78 -493q-10 -56 -37 -77t-83 -21t-84 16t-28 47q0 32 8 76l170 1079q31 191 218 191h241q333 -1 399 -213q20 -64 19 -138q0 -160 -100 -273
q-100 -114 -281 -134q75 -49 114 -118q63 -112 110 -262q48 -150 48 -189t-43 -62q-43 -24 -91 -24t-62 17t-25 46q-99 329 -178 435q-54 72 -121 89q-33 8 -71 8zM644 1536q-30 0 -56 30t-25 59q-1 29 11 48t44 45l183 143q55 43 95 43t68 -30t29 -74q0 -44 -57 -86
l-201 -143q-29 -19 -45 -27t-46 -8z" />
    <glyph glyph-name="racute" unicode="&#x155;" horiz-adv-x="788" 
d="M686 1065q72 0 113 -27t41 -59q0 -56 -29 -97q-29 -42 -55 -42t-56 7t-73 7q-91 0 -159 -78t-91 -225l-74 -471q-9 -56 -38 -76t-85 -20q-104 0 -104 75q0 13 6 47l135 863q9 55 41 73t84 19q100 0 100 -72q0 -19 -4 -39l-4 -28q85 143 252 143zM454 1229q-30 0 -56 30
t-25 59q-1 29 11 48t44 45l183 143q55 43 95 43t68 -30t29 -74q0 -44 -57 -86l-201 -143q-29 -20 -45 -28t-46 -7z" />
    <glyph glyph-name="Rcommaaccent" unicode="&#x156;" horiz-adv-x="1194" 
d="M915 1031q-1 75 -55 116t-164 41h-159q-14 0 -26 -11t-15 -28l-58 -367h209q191 0 248 129q20 45 20 120zM451 575h-45l-78 -493q-10 -56 -37 -77t-83 -21t-84 16t-28 47q0 32 8 76l170 1079q31 191 218 191h241q333 -1 399 -213q20 -64 19 -138q0 -160 -100 -273
q-100 -114 -281 -134q75 -49 114 -118q63 -112 110 -262q48 -150 48 -189t-43 -62q-43 -24 -91 -24t-62 17t-25 46q-99 329 -178 435q-54 72 -121 89q-33 8 -71 8zM491 -520q-42 0 -69 24t-27 52q1 28 25 86t24 145q0 107 111 107q104 0 104 -113q0 -81 -48 -191t-120 -110z
" />
    <glyph glyph-name="rcommaaccent" unicode="&#x157;" horiz-adv-x="788" 
d="M686 1065q72 0 113 -27t41 -59q0 -56 -29 -97q-29 -42 -55 -42t-56 7t-73 7q-91 0 -159 -78t-91 -225l-74 -471q-9 -56 -38 -76t-85 -20q-104 0 -104 75q0 13 6 47l135 863q9 55 41 73t84 19q100 0 100 -72q0 -19 -4 -39l-4 -28q85 143 252 143zM93 -520q-42 0 -69 24
t-27 52q1 28 25 86t24 145q0 107 111 107q104 0 104 -113q0 -81 -48 -191t-120 -110z" />
    <glyph glyph-name="Rcaron" unicode="&#x158;" horiz-adv-x="1194" 
d="M915 1031q-1 75 -55 116t-164 41h-159q-14 0 -26 -11t-15 -28l-58 -367h209q191 0 248 129q20 45 20 120zM451 575h-45l-78 -493q-10 -56 -37 -77t-83 -21t-84 16t-28 47q0 32 8 76l170 1079q31 191 218 191h241q333 -1 399 -213q20 -64 19 -138q0 -160 -100 -273
q-100 -114 -281 -134q75 -49 114 -118q63 -112 110 -262q48 -150 48 -189t-43 -62q-43 -24 -91 -24t-62 17t-25 46q-99 329 -178 435q-54 72 -121 89q-33 8 -71 8zM992 1859q36 -1 60 -31t23 -63q1 -33 -13 -51t-54 -41l-195 -104q-55 -29 -103 -29t-87 29l-142 98
q-41 27 -54 47t-13 52t32 62q32 31 65 31t81 -34l129 -101l190 109q45 26 81 26z" />
    <glyph glyph-name="rcaron" unicode="&#x159;" horiz-adv-x="788" 
d="M686 1065q72 0 113 -27t41 -59q0 -56 -29 -97q-29 -42 -55 -42t-56 7t-73 7q-91 0 -159 -78t-91 -225l-74 -471q-9 -56 -38 -76t-85 -20q-104 0 -104 75q0 13 6 47l135 863q9 55 41 73t84 19q100 0 100 -72q0 -19 -4 -39l-4 -28q85 143 252 143zM802 1552q36 0 60 -30
t23 -64q1 -34 -13 -52t-54 -40l-195 -104q-55 -29 -103 -29t-87 29l-142 98q-41 28 -54 48t-13 50q0 32 32 63t65 31t81 -34l129 -101l190 109q45 26 81 26z" />
    <glyph glyph-name="Sacute" unicode="&#x15a;" horiz-adv-x="1049" 
d="M965 439q1 -71 -11 -123t-37 -102q-54 -105 -165 -169q-112 -65 -287 -65q-252 0 -393 110q-43 34 -43 67q0 57 30 99q30 41 59 41q30 0 46 -8t56 -32q118 -71 255 -71q191 0 239 124q14 38 15 82q0 84 -51 129t-158 82q-187 66 -269 157q-83 90 -83 227q0 187 129 306
q129 120 356 120t367 -113q47 -38 47 -67q-1 -50 -35 -92q-34 -41 -65 -41t-52 12t-46 25q-120 67 -201 67q-131 0 -191 -54q-59 -54 -59 -153q0 -98 106 -151q38 -19 101 -40t127 -51q64 -31 111 -75t75 -107t27 -134zM585 1536q-29 0 -55 30t-26 59t12 48t43 45l183 143
q55 43 95 43q41 0 69 -30t28 -74t-57 -86l-201 -143q-28 -19 -44 -27t-47 -8z" />
    <glyph glyph-name="sacute" unicode="&#x15b;" horiz-adv-x="950" 
d="M416 -20q-190 0 -322 83q-57 38 -57 83t28 80q28 34 58 34t79 -28q121 -68 218 -68q135 0 167 81q9 23 9 50q0 53 -37 81t-109 47q-162 45 -226 93q-100 76 -101 211q0 239 218 313q75 26 153 25q200 0 318 -76q43 -28 57 -46t14 -41q0 -44 -30 -82t-60 -38q-29 0 -53 14
q-141 84 -225 85q-85 0 -127 -37t-42 -80q0 -69 44 -96q44 -28 119 -48q154 -42 232 -108t78 -182q1 -255 -227 -326q-78 -24 -176 -24zM474 1229q-30 0 -56 30t-25 59q-1 29 11 48t44 45l183 143q55 43 95 43t68 -30t29 -74q0 -44 -57 -86l-201 -143q-29 -20 -45 -28
t-46 -7z" />
    <glyph glyph-name="Scedilla" unicode="&#x15e;" horiz-adv-x="1049" 
d="M516 -72q156 0 156 -168q0 -84 -63.5 -145t-163.5 -61t-146.5 24t-46.5 57t17 56.5t37 23.5t55 -11t69 -11t54 19.5t20 47.5q0 62 -72 62l-65 -2q-56 0 -56 51q0 22 29 66l33 49q-108 9 -226 59.5t-118 120.5q0 48 30.5 89.5t56.5 41.5t42.5 -6.5t52.5 -28.5
q128 -76 258 -76t195 54t65 141t-40.5 131t-202.5 103t-240 150t-78 222q0 189 130.5 307.5t346.5 118.5q167 0 294.5 -62.5t127.5 -127.5q0 -40 -35 -81.5t-67 -41.5q-31 0 -97 38q-111 66 -221 66t-169.5 -54.5t-59.5 -136.5t44.5 -125.5t153.5 -78.5q205 -68 277 -160.5
t72 -228.5q0 -182 -120.5 -306t-346.5 -134l-23 -56q22 4 41 4z" />
    <glyph glyph-name="scedilla" unicode="&#x15f;" horiz-adv-x="950" 
d="M469 -72q156 0 156 -168q0 -84 -63.5 -145t-163.5 -61t-146.5 24t-46.5 57t16.5 56.5t36.5 23.5t55 -11t69 -11t54.5 19.5t20.5 47.5q0 62 -72 62l-66 -2q-55 0 -55 51q0 22 29 66l33 49q-101 12 -195 56.5t-94 96.5t28 86.5t56 34.5t54 -15q145 -81 237 -81t138 34.5
t46 88.5t-30.5 83.5t-131.5 57.5q-180 47 -245.5 120t-65.5 179q0 160 102.5 249t294.5 89q110 0 236.5 -48t126.5 -118q0 -41 -30.5 -79t-59.5 -38t-65 21q-132 78 -214 78t-125 -36.5t-43 -88.5t35.5 -80.5t134.5 -57.5q163 -45 233 -113.5t70 -174.5q0 -161 -93.5 -250
t-274.5 -98l-23 -58q22 4 41 4z" />
    <glyph glyph-name="Scaron" unicode="&#x160;" horiz-adv-x="1049" 
d="M965 439q1 -71 -11 -123t-37 -102q-54 -105 -165 -169q-112 -65 -287 -65q-252 0 -393 110q-43 34 -43 67q0 57 30 99q30 41 59 41q30 0 46 -8t56 -32q118 -71 255 -71q191 0 239 124q14 38 15 82q0 84 -51 129t-158 82q-187 66 -269 157q-83 90 -83 227q0 187 129 306
q129 120 356 120t367 -113q47 -38 47 -67q-1 -50 -35 -92q-34 -41 -65 -41t-52 12t-46 25q-120 67 -201 67q-131 0 -191 -54q-59 -54 -59 -153q0 -98 106 -151q38 -19 101 -40t127 -51q64 -31 111 -75t75 -107t27 -134zM959 1859q35 -1 59 -31t24 -63t-14 -51t-53 -41
l-195 -104q-54 -29 -102 -29t-88 29l-142 98q-41 27 -54 47t-13 52t32 62q32 31 65 31t81 -34l129 -101l190 109q45 26 81 26z" />
    <glyph glyph-name="scaron" unicode="&#x161;" horiz-adv-x="950" 
d="M416 -20q-190 0 -322 83q-57 38 -57 83t28 80q28 34 58 34t79 -28q121 -68 218 -68q135 0 167 81q9 23 9 50q0 53 -37 81t-109 47q-162 45 -226 93q-100 76 -101 211q0 239 218 313q75 26 153 25q200 0 318 -76q43 -28 57 -46t14 -41q0 -44 -30 -82t-60 -38q-29 0 -53 14
q-141 84 -225 85q-85 0 -127 -37t-42 -80q0 -69 44 -96q44 -28 119 -48q154 -42 232 -108t78 -182q1 -255 -227 -326q-78 -24 -176 -24zM831 1552q35 0 59 -30t24 -64t-14 -52t-53 -40l-195 -104q-54 -29 -102 -29t-88 29l-142 98q-41 28 -54 48t-13 50q0 32 32 63t65 31
t81 -34l129 -101l190 109q45 26 81 26z" />
    <glyph glyph-name="Tcommaaccent" unicode="&#x162;" horiz-adv-x="1040" 
d="M238 1180q-103 0 -103 71q0 89 53 127q22 16 58 15h782q62 0 86 -15t25 -55q0 -143 -121 -143h-273l-174 -1082q-19 -114 -134 -114t-115 90q0 13 18 127l158 979h-260zM345 -520q-42 0 -69 24t-27 52q1 28 25 86t24 145q0 107 111 107q104 0 104 -113q0 -81 -48 -191
t-120 -110z" />
    <glyph glyph-name="tcommaaccent" unicode="&#x163;" horiz-adv-x="731" 
d="M678 1044q78 0 78 -65v-17q0 -29 -11 -54q-11 -26 -29 -40t-67 -14h-188l-84 -518q-10 -58 -10 -86q0 -80 69 -80q42 0 83 20t57 21q33 0 57 -29t24 -64q1 -36 -19 -55t-58 -39q-85 -44 -200 -44q-114 0 -178 56t-63 169q0 53 13 127l84 522h-72q-88 0 -88 59
q0 115 68 127q20 4 49 4h71l35 213q8 54 35 74q27 21 85 21q59 0 86 -20t19 -75l-35 -213h189zM290 -520q-42 0 -69 24t-27 52t24 86t25 145q0 107 111 107q104 0 104 -113q0 -81 -48 -191t-120 -110z" />
    <glyph glyph-name="Tcaron" unicode="&#x164;" horiz-adv-x="1040" 
d="M238 1180q-103 0 -103 71q0 89 53 127q22 16 58 15h782q62 0 86 -15t25 -55q0 -143 -121 -143h-273l-174 -1082q-19 -114 -134 -114t-115 90q0 13 18 127l158 979h-260zM937 1859q35 -1 59 -31t24 -63t-14 -51t-53 -41l-195 -104q-54 -29 -102 -29t-88 29l-142 98
q-41 27 -54 47t-13 52t32 62q32 31 65 31t81 -34l129 -101l190 109q45 26 81 26z" />
    <glyph glyph-name="tcaron" unicode="&#x165;" horiz-adv-x="778" 
d="M678 1044q78 0 78 -65v-17q0 -29 -11 -54q-11 -26 -29 -40t-67 -14h-188l-84 -518q-10 -58 -10 -86q0 -80 69 -80q42 0 83 20t57 21q33 0 57 -29t24 -64q1 -36 -19 -55t-58 -39q-85 -44 -200 -44q-114 0 -178 56t-63 169q0 53 13 127l84 522h-72q-88 0 -88 59
q0 115 68 127q20 4 49 4h71l35 213q8 54 35 74q27 21 85 21q59 0 86 -20t19 -75l-35 -213h189zM788 1194q-42 0 -69 24t-27 52t24 86t25 145q0 107 111 107q104 0 104 -113q0 -81 -48 -191t-120 -110z" />
    <glyph glyph-name="Umacron" unicode="&#x16a;" horiz-adv-x="1319" 
d="M1178 1409q106 0 106 -80q0 -10 -2 -22q-2 -11 -3 -21t-3 -18l-129 -815q-79 -473 -565 -473q-309 0 -409 226q-34 76 -34 157t11 151l126 795q10 54 38 77t85 23q109 0 109 -80q0 -14 -8 -59l-123 -783q-8 -38 -8 -96q0 -101 63 -153q62 -52 158 -52q163 0 235 69
t93 198l135 856q8 54 37 77t88 23zM999 1542h-399q-60 0 -90 20t-31 80q0 59 30 80t91 21h399q63 0 93 -21t30 -79q0 -57 -30 -79t-93 -22z" />
    <glyph glyph-name="umacron" unicode="&#x16b;" horiz-adv-x="1145" 
d="M797 -16q-107 0 -107 69q0 13 4 33l8 47q-118 -153 -314 -153q-195 0 -263 168q-23 57 -23 120t11 127l90 572q9 54 39 74t82 20q106 0 106 -72q0 -5 -2 -16l-86 -553q-8 -53 -8 -78q0 -156 151 -156q143 0 229 158q34 62 48 158l72 465q8 54 40 74t84 20q103 0 103 -72
q0 -13 -6 -51l-137 -864q-8 -54 -38 -72t-83 -18zM860 1235h-399q-61 1 -91 21t-30 79t30 80t91 21h399q64 0 94 -21t29 -79q0 -58 -30 -80t-93 -21z" />
    <glyph glyph-name="Uring" unicode="&#x16e;" horiz-adv-x="1319" 
d="M1178 1409q106 0 106 -80q0 -10 -2 -22q-2 -11 -3 -21t-3 -18l-129 -815q-79 -473 -565 -473q-309 0 -409 226q-34 76 -34 157t11 151l126 795q10 54 38 77t85 23q109 0 109 -80q0 -14 -8 -59l-123 -783q-8 -38 -8 -96q0 -101 63 -153q62 -52 158 -52q163 0 235 69
t93 198l135 856q8 54 37 77t88 23zM816 1866q-42 0 -70 -30q-30 -30 -30 -71t30 -71t70 -29q42 -1 72 29t29 71q1 41 -29 71t-72 30zM816 1540q-92 0 -158 67t-67 158q1 91 67 158t158 67t160 -66q66 -66 66 -159t-66 -159q-68 -66 -160 -66z" />
    <glyph glyph-name="uring" unicode="&#x16f;" horiz-adv-x="1145" 
d="M797 -16q-107 0 -107 69q0 13 4 33l8 47q-118 -153 -314 -153q-195 0 -263 168q-23 57 -23 120t11 127l90 572q9 54 39 74t82 20q106 0 106 -72q0 -5 -2 -16l-86 -553q-8 -53 -8 -78q0 -156 151 -156q143 0 229 158q34 62 48 158l72 465q8 54 40 74t84 20q103 0 103 -72
q0 -13 -6 -51l-137 -864q-8 -54 -38 -72t-83 -18zM678 1559q-42 0 -72 -30t-29 -71q-1 -40 29 -70t72 -30t70 30q30 30 30 70q0 41 -30 71q-28 30 -70 30zM678 1233q-92 0 -160 67q-66 67 -66 158t66 158t160 67q92 -1 158 -67t67 -158q-1 -92 -67 -158t-158 -67z" />
    <glyph glyph-name="Uhungarumlaut" unicode="&#x170;" horiz-adv-x="1319" 
d="M1178 1409q106 0 106 -80q0 -10 -2 -22q-2 -11 -3 -21t-3 -18l-129 -815q-79 -473 -565 -473q-309 0 -409 226q-34 76 -34 157t11 151l126 795q10 54 38 77t85 23q109 0 109 -80q0 -14 -8 -59l-123 -783q-8 -38 -8 -96q0 -101 63 -153q62 -52 158 -52q163 0 235 69
t93 198l135 856q8 54 37 77t88 23zM592 1532q-30 0 -58 26t-28 67q0 40 31 81l100 135q29 37 47 51t52 14t64 -26q32 -26 32 -62t-39 -88l-111 -143q-22 -27 -41 -41t-49 -14zM988 1532q-30 0 -58 26t-27 66q0 39 31 82l100 135q28 37 47 51t53 14t64 -26q31 -26 31 -63
t-39 -87l-111 -143q-22 -27 -41 -41q-20 -14 -50 -14z" />
    <glyph glyph-name="uhungarumlaut" unicode="&#x171;" horiz-adv-x="1145" 
d="M797 -16q-107 0 -107 69q0 13 4 33l8 47q-118 -153 -314 -153q-195 0 -263 168q-23 57 -23 120t11 127l90 572q9 54 39 74t82 20q106 0 106 -72q0 -5 -2 -16l-86 -553q-8 -53 -8 -78q0 -156 151 -156q143 0 229 158q34 62 48 158l72 465q8 54 40 74t84 20q103 0 103 -72
q0 -13 -6 -51l-137 -864q-8 -54 -38 -72t-83 -18zM450 1225q-30 1 -58 27t-28 66t31 81l100 135q29 38 47 52t52 13q34 0 64 -26q32 -25 32 -61t-39 -89l-111 -143q-22 -28 -41 -42t-49 -13zM846 1225q-30 1 -58 27t-27 65q0 39 31 82l100 135q28 38 47 52t53 13
q34 0 64 -26q31 -26 31 -63t-39 -87l-111 -143q-22 -28 -41 -42q-20 -14 -50 -13z" />
    <glyph glyph-name="Uogonek" unicode="&#x172;" horiz-adv-x="1319" 
d="M582 -20q-205 0 -324 106t-119 299q0 64 11 129l126 795q8 48 35 74t88 26q109 0 109 -80q0 -14 -8 -59l-123 -783q-8 -51 -8 -96q0 -98 62.5 -151.5t188.5 -53.5q256 0 298 267l135 856q9 56 39 78t86 22q106 0 106 -80q0 -21 -8 -61l-129 -815q-59 -369 -373 -451
q-88 -110 -88 -188q0 -30 18.5 -49t47 -19t64.5 18t58 17q22 0 40 -23.5t18 -61.5t-66 -75t-160 -37t-151 50t-57 144t96 202h-12z" />
    <glyph glyph-name="uogonek" unicode="&#x173;" horiz-adv-x="1145" 
d="M334 342q0 -156 151 -156q96 0 174.5 81t102.5 235l72 465q15 94 121 94t106 -72q0 -13 -6 -51l-137 -864q-6 -37 -27 -64q-94 -110 -94 -196q0 -31 18.5 -49.5t47.5 -18.5t65 18t56 17q22 0 40 -23.5t18 -61.5t-66 -75t-160 -37t-151 49.5t-57 130.5q0 113 111 234
q-29 15 -29 55q0 13 4 33l8 47q-124 -153 -305 -153q-136 0 -215.5 79.5t-79.5 223.5q0 53 11 112l90 572q15 94 121 94t106 -72q0 -5 -6 -49l-82 -520q-8 -51 -8 -78z" />
    <glyph glyph-name="Ydieresis" unicode="&#x178;" horiz-adv-x="1053" 
d="M422 -16q-105 0 -105 73q0 18 9 66l65 414q-133 197 -187 373t-54 376q0 67 29 95t90 28t83 -20t21 -68q0 -340 157 -594q264 255 355 582q17 65 40 83t77 17q54 0 90 -21q34 -21 34 -57q0 -118 -132 -350t-373 -444l-72 -453q-8 -52 -37 -76t-90 -24zM852 1792
q52 0 90 -38t37 -89q1 -53 -37 -89t-90 -36t-88 36t-37 89q0 51 37 89q36 38 88 38zM460 1792q52 0 88 -38q38 -38 38 -89q0 -53 -38 -89t-89 -36q-53 0 -89 36t-36 89q0 51 37 89t89 38z" />
    <glyph glyph-name="Zacute" unicode="&#x179;" horiz-adv-x="1083" 
d="M854 229q46 0 66 -18t20 -71q0 -52 -33 -96t-88 -44h-723q-116 0 -116 123q0 105 107 255t421 432q314 283 340 353h-559q-86 0 -86 86q0 62 33 103t88 41h677q138 0 138 -121q0 -128 -148 -300q-80 -92 -324 -314q-371 -338 -403 -429h590zM624 1536q-30 0 -56 30
t-25 59q-1 29 11 48t44 45l183 143q55 43 95 43t68 -30t29 -74q0 -44 -57 -86l-201 -143q-29 -19 -45 -27t-46 -8z" />
    <glyph glyph-name="zacute" unicode="&#x17a;" horiz-adv-x="874" 
d="M709 195q52 0 75 -17t23 -63q1 -47 -29 -81t-80 -34h-587q-67 0 -103 36t-37 96q1 60 41 126t113 142q73 74 271 230t229 220h-437q-100 0 -100 78q0 48 30 82t77 34h571q129 0 129 -110q1 -60 -65 -161t-280 -276t-266 -225t-59 -77h484zM458 1229q-30 0 -56 30t-25 59
q-1 29 11 48t44 45l183 143q55 43 95 43t68 -30t29 -74q0 -44 -57 -86l-201 -143q-29 -20 -45 -28t-46 -7z" />
    <glyph glyph-name="Zdotaccent" unicode="&#x17b;" horiz-adv-x="1083" 
d="M854 229q46 0 66 -18t20 -71q0 -52 -33 -96t-88 -44h-723q-116 0 -116 123q0 105 107 255t421 432q314 283 340 353h-559q-86 0 -86 86q0 62 33 103t88 41h677q138 0 138 -121q0 -128 -148 -300q-80 -92 -324 -314q-371 -338 -403 -429h590zM702 1818q58 0 100 -42
t42 -98q0 -58 -42 -99t-100 -41t-98 41t-41 99q1 58 41 98q40 42 98 42z" />
    <glyph glyph-name="zdotaccent" unicode="&#x17c;" horiz-adv-x="874" 
d="M709 195q52 0 75 -17t23 -63q1 -47 -29 -81t-80 -34h-587q-67 0 -103 36t-37 96q1 60 41 126t113 142q73 74 271 230t229 220h-437q-100 0 -100 78q0 48 30 82t77 34h571q129 0 129 -110q1 -60 -65 -161t-280 -276t-266 -225t-59 -77h484zM532 1511q58 1 100 -41t42 -100
t-42 -98q-42 -41 -100 -41t-98 41q-40 40 -41 98q1 58 41 100t98 41z" />
    <glyph glyph-name="Zcaron" unicode="&#x17d;" horiz-adv-x="1083" 
d="M854 229q46 0 66 -18t20 -71q0 -52 -33 -96t-88 -44h-723q-116 0 -116 123q0 105 107 255t421 432q314 283 340 353h-559q-86 0 -86 86q0 62 33 103t88 41h677q138 0 138 -121q0 -128 -148 -300q-80 -92 -324 -314q-371 -338 -403 -429h590zM959 1859q35 -1 59 -31
t24 -63t-14 -51t-53 -41l-195 -104q-54 -29 -102 -29t-88 29l-142 98q-41 27 -54 47t-13 52t32 62q32 31 65 31t81 -34l129 -101l190 109q45 26 81 26z" />
    <glyph glyph-name="zcaron" unicode="&#x17e;" horiz-adv-x="874" 
d="M709 195q52 0 75 -17t23 -63q1 -47 -29 -81t-80 -34h-587q-67 0 -103 36t-37 96q1 60 41 126t113 142q73 74 271 230t229 220h-437q-100 0 -100 78q0 48 30 82t77 34h571q129 0 129 -110q1 -60 -65 -161t-280 -276t-266 -225t-59 -77h484zM825 1552q35 0 59 -30t24 -64
t-14 -52t-53 -40l-195 -104q-54 -29 -102 -29t-88 29l-142 98q-41 28 -54 48t-13 50q0 32 32 63t65 31t81 -34l129 -101l190 109q45 26 81 26z" />
    <glyph glyph-name="florin" unicode="&#x192;" horiz-adv-x="1006" 
d="M231 782q0 131 121 131h64l30 181q52 321 351 321q76 0 143.5 -26.5t67.5 -88.5q0 -40 -28 -75t-64 -35t-64 10t-55 10q-101 0 -125 -139l-29 -158h96q58 0 82.5 -15.5t24.5 -61.5t-24.5 -85.5t-104.5 -39.5h-109l-141 -779q-31 -168 -113 -251.5t-231 -83.5
q-83 0 -140 28.5t-57 78.5t27 82t74 32q17 0 49 -10t64 -11q71 0 104 182l135 732h-51q-51 0 -74 16t-23 55z" />
    <glyph glyph-name="Scommaaccent" unicode="&#x218;" horiz-adv-x="1049" 
d="M965 439q1 -71 -11 -123t-37 -102q-54 -105 -165 -169q-112 -65 -287 -65q-252 0 -393 110q-43 34 -43 67q0 57 30 99q30 41 59 41q30 0 46 -8t56 -32q118 -71 255 -71q191 0 239 124q14 38 15 82q0 84 -51 129t-158 82q-187 66 -269 157q-83 90 -83 227q0 187 129 306
q129 120 356 120t367 -113q47 -38 47 -67q-1 -50 -35 -92q-34 -41 -65 -41t-52 12t-46 25q-120 67 -201 67q-131 0 -191 -54q-59 -54 -59 -153q0 -98 106 -151q38 -19 101 -40t127 -51q64 -31 111 -75t75 -107t27 -134zM378 -520q-42 0 -69 24t-27 52t24 86t25 145
q0 107 111 107q104 0 104 -113q0 -81 -48 -191t-120 -110z" />
    <glyph glyph-name="scommaaccent" unicode="&#x219;" horiz-adv-x="950" 
d="M416 -20q-190 0 -322 83q-57 38 -57 83t28 80q28 34 58 34t79 -28q121 -68 218 -68q135 0 167 81q9 23 9 50q0 53 -37 81t-109 47q-162 45 -226 93q-100 76 -101 211q0 239 218 313q75 26 153 25q200 0 318 -76q43 -28 57 -46t14 -41q0 -44 -30 -82t-60 -38q-29 0 -53 14
q-141 84 -225 85q-85 0 -127 -37t-42 -80q0 -69 44 -96q44 -28 119 -48q154 -42 232 -108t78 -182q1 -255 -227 -326q-78 -24 -176 -24zM337 -520q-42 0 -69 24t-27 52q1 28 25 86t24 145q0 107 111 107q104 0 104 -113q0 -81 -48 -191t-120 -110z" />
    <glyph glyph-name="circumflex" unicode="&#x2c6;" horiz-adv-x="954" 
d="M364 1233q-34 0 -57.5 30.5t-23.5 64.5t14.5 52.5t52.5 38.5l195 105q52 28 101 28t89 -28l142 -99q41 -29 54 -48t13 -51t-32 -62.5t-66 -30.5t-80 35l-129 100l-191 -108q-48 -27 -82 -27z" />
    <glyph glyph-name="caron" unicode="&#x2c7;" horiz-adv-x="954" 
d="M869 1552q36 0 59.5 -30.5t23.5 -63.5t-13.5 -51.5t-53.5 -40.5l-195 -104q-54 -29 -102 -29t-88 29l-142 98q-41 28 -54 47t-13 51t32 63t65 31t81 -34l129 -101l190 109q45 26 81 26z" />
    <glyph glyph-name="macron" unicode="&#x2c9;" horiz-adv-x="930" 
d="M786 1235h-399q-60 0 -90.5 20.5t-30.5 79.5t30 80t91 21h399q64 0 93.5 -21t29.5 -79t-30 -79.5t-93 -21.5z" />
    <glyph glyph-name="breve" unicode="&#x2d8;" horiz-adv-x="874" 
d="M542 1233q-118 0 -211 72.5t-93 154.5q0 33 29.5 60.5t68.5 27.5q40 0 70 -51q54 -90 138 -90t136 94q26 47 67 47t70 -28t29 -60q0 -84 -93 -155.5t-211 -71.5z" />
    <glyph glyph-name="dotaccent" unicode="&#x2d9;" horiz-adv-x="567" 
d="M400 1511q58 0 99.5 -41.5t41.5 -99.5t-41.5 -98.5t-99.5 -40.5t-99 40.5t-41 98.5t41 99.5t99 41.5z" />
    <glyph glyph-name="ring" unicode="&#x2da;" horiz-adv-x="737" 
d="M498 1559q-42 0 -71.5 -30t-29.5 -71t29.5 -70.5t71.5 -29.5t71 29.5t29 70.5t-29 71t-71 30zM498 1233q-92 0 -159 67t-67 158t67 158t159 67t158.5 -66.5t66.5 -158.5t-66.5 -158.5t-158.5 -66.5z" />
    <glyph glyph-name="ogonek" unicode="&#x2db;" horiz-adv-x="885" 
d="M362 -186q0 -30 18 -49t48 -19t66 18t56 17q22 0 40 -23.5t18 -61.5t-66 -75t-160 -37t-151 49.5t-57 130.5q0 126 154 277h155q-121 -137 -121 -227z" />
    <glyph glyph-name="tilde" unicode="&#x2dc;" horiz-adv-x="946" 
d="M740 1239q-78 0 -146 41t-99 41q-30 0 -47.5 -11t-47.5 -42t-59 -31t-52 25.5t-23 60.5q0 60 68 113t152 53q84 1 141 -33q58 -34 75.5 -41.5t46.5 -7.5t53 40t59 40q34 0 57.5 -21t23.5 -69t-62 -103t-140 -55z" />
    <glyph glyph-name="hungarumlaut" unicode="&#x2dd;" horiz-adv-x="997" 
d="M386 1225q-30 0 -57.5 26.5t-27.5 66.5t31 81l100 135q28 38 46 51.5t52 13.5t65.5 -25.5t31.5 -61.5t-39 -89l-111 -143q-22 -28 -41.5 -41.5t-49.5 -13.5zM784 1225q-30 0 -58 26.5t-28 65.5t31 82l100 135q28 38 46.5 51.5t52.5 13.5t65 -26t31 -63t-39 -87l-111 -143
q-22 -28 -41 -41.5t-49 -13.5z" />
    <glyph glyph-name="tonos" unicode="&#x384;" horiz-adv-x="530" 
d="M455 1589q96 0 96 -55q0 -19 -6 -37l-103 -231q-24 -53 -52 -74t-73 -21q-92 0 -92 54q0 14 8 41l99 231q21 50 50 71t73 21z" />
    <glyph glyph-name="dieresistonos" unicode="&#x385;" horiz-adv-x="954" 
d="M668 1589q86 0 86 -55q0 -19 -6 -37l-103 -231q-24 -55 -48 -75t-73 -20q-75 0 -75 54q0 14 8 41l98 231q22 52 46.5 72t66.5 20zM760 1337q0 26 9.5 49.5t26.5 40.5t40 27t49 10t49 -10t40.5 -27t27.5 -40.5t10 -49.5t-10 -48.5t-27.5 -39.5t-40.5 -27t-49 -10t-49 10
t-40 27t-26.5 39.5t-9.5 48.5zM172 1337q0 26 9.5 49.5t26.5 40.5t40 27t49 10t49.5 -10t40.5 -27t27 -40.5t10 -49.5t-10 -48.5t-27 -39.5t-40.5 -27t-49.5 -10t-49 10t-40 27t-26.5 39.5t-9.5 48.5z" />
    <glyph glyph-name="Alphatonos" unicode="&#x386;" horiz-adv-x="1214" 
d="M721 1126q-156 -268 -283 -536h387q-43 310 -104 536zM1122 84q0 -104 -143 -104q-49 0 -65 22t-24 126q-8 105 -30 255h-516q-44 -91 -76 -165t-52 -120q-32 -76 -51 -97t-48 -21q-59 0 -101 24q-43 24 -43 59q0 72 205 491t424 755q30 49 62 75q31 25 84 25h16
q82 1 112 -71q64 -153 134 -498q70 -344 87 -486q17 -141 19 -162q6 -55 6 -108zM298 1410q96 0 96 -55q0 -19 -6 -37l-103 -231q-24 -53 -52 -74t-73 -21q-92 0 -92 54q0 14 8 41l99 231q21 50 50 71t73 21z" />
    <glyph glyph-name="anoteleia" unicode="&#x387;" horiz-adv-x="524" 
d="M104 731q0 66 47 112t113 46t111 -46t45 -112t-45 -113t-111 -47t-113 47t-47 113z" />
    <glyph glyph-name="Epsilontonos" unicode="&#x388;" horiz-adv-x="1231" 
d="M970 213q103 0 103 -54q-1 -129 -77 -152q-24 -7 -58 -7h-529q-75 0 -117 34t-43 101q1 9 3 23t8 51l155 993q31 191 226 191h516q57 1 79 -17t23 -44q0 -26 -4 -48q-10 -54 -36 -79t-95 -25h-446q-16 0 -28 -11t-13 -28l-50 -310h418q59 0 80 -19t21 -43t-4 -47
q-11 -54 -38 -79t-94 -25h-417l-52 -331q-2 -14 -4 -27t-2 -24q0 -23 23 -23h452zM257 1410q96 0 96 -55q0 -19 -6 -37l-103 -231q-24 -53 -52 -74t-73 -21q-92 0 -92 54q0 14 8 41l99 231q21 50 50 71t73 21z" />
    <glyph glyph-name="Etatonos" unicode="&#x389;" horiz-adv-x="1530" 
d="M1166 -16q-54 0 -82 16t-27 48q0 31 6 63l80 497h-567l-84 -524q-10 -56 -40 -78t-84 -22t-81 16t-27 57q0 9 6 49l191 1207q10 57 37 77q27 19 81 19q55 0 84 -14t29 -58v-7q0 -2 -1 -10t-3 -20t-4 -34l-72 -445h568l77 492q10 56 37 76t82 20t84 -14t29 -58v-7
q0 -13 -10 -68l-187 -1178q-8 -56 -38 -78t-84 -22zM257 1410q96 0 96 -55q0 -19 -6 -37l-103 -231q-24 -53 -52 -74t-73 -21q-92 0 -92 54q0 14 8 41l99 231q21 50 50 71t73 21z" />
    <glyph glyph-name="Iotatonos" unicode="&#x38a;" horiz-adv-x="733" 
d="M368 -16q-54 0 -81 16t-27 57q0 7 2 25t6 41l189 1190q10 57 37 77q27 19 81 19q55 0 84 -14q29 -15 29 -49t-10 -86l-186 -1176q-10 -56 -40 -78t-84 -22zM257 1410q96 0 96 -55q0 -19 -6 -37l-103 -231q-24 -53 -52 -74t-73 -21q-92 0 -92 54q0 14 8 41l99 231
q21 50 50 71t73 21z" />
    <glyph glyph-name="Omicrontonos" unicode="&#x38c;" horiz-adv-x="1546" 
d="M959 1210q-81 0 -145 -27t-116 -73q-95 -88 -144 -236q-50 -148 -50 -307q0 -260 161 -351q59 -34 145 -34t150 28t115 76q92 88 139 236q48 148 48 265q0 115 -16 185t-54 122q-36 52 -94 84t-139 32zM974 1413q242 0 379 -146q138 -146 138 -419q1 -334 -159 -580
q-116 -179 -314 -251q-102 -37 -228 -37q-246 0 -381 158q-134 158 -134 417q-1 337 161 579q114 174 314 244q102 36 224 35zM257 1410q96 0 96 -55q0 -19 -6 -37l-103 -231q-24 -53 -52 -74t-73 -21q-92 0 -92 54q0 14 8 41l99 231q21 50 50 71t73 21z" />
    <glyph glyph-name="Upsilontonos" unicode="&#x38e;" horiz-adv-x="1331" 
d="M701 -16q-105 0 -105 73q0 18 9 66l65 414q-133 197 -187 373t-54 376q0 67 29 95t90 28q60 0 82 -20t22 -68q0 -340 157 -594q264 255 355 582q17 65 40 83q24 18 78 17q54 0 88 -21t35 -57q-1 -118 -133 -350t-372 -444l-72 -453q-8 -52 -37 -76t-90 -24zM257 1410
q96 0 96 -55q0 -19 -6 -37l-103 -231q-24 -53 -52 -74t-73 -21q-92 0 -92 54q0 14 8 41l99 231q21 50 50 71t73 21z" />
    <glyph glyph-name="Omegatonos" unicode="&#x38f;" horiz-adv-x="1546" 
d="M160 70q0 143 121 143h110q-116 143 -116 360q-1 337 161 571q185 268 543 269q236 0 374 -146q138 -147 138 -427t-144 -498q-48 -72 -112 -129h115q102 0 102 -72q0 -89 -52 -126q-22 -15 -58 -15h-357q-62 0 -86 14t-24 48q0 116 67 141q136 49 228 219t92 405
q0 168 -70 267q-80 116 -232 116q-295 0 -409 -328q-47 -135 -47 -284q0 -317 166 -393q41 -20 41 -64q0 -90 -53 -126q-22 -15 -58 -15h-330q-110 0 -110 70zM257 1410q96 0 96 -55q0 -19 -6 -37l-103 -231q-24 -53 -52 -74t-73 -21q-92 0 -92 54q0 14 8 41l99 231
q21 50 50 71t73 21z" />
    <glyph glyph-name="iotadieresistonos" unicode="&#x390;" horiz-adv-x="602" 
d="M313 248q0 -76 56 -76q26 0 65 18t63 19q24 0 44 -30t20 -63q0 -56 -76 -96q-75 -40 -177 -40t-161 61t-59 162q0 61 18 190l91 572q9 55 40 75q31 21 83 21t79 -14t27 -44t-8 -77l-90 -570q-15 -86 -15 -108zM458 1589q86 0 86 -55q0 -19 -6 -37l-103 -231
q-24 -55 -48 -75t-73 -20q-75 0 -75 54q0 14 8 41l98 231q22 52 47 72q24 20 66 20zM550 1337q0 25 10 49t26 41q17 17 40 27t49 10t49 -10q22 -10 40 -27t28 -41t10 -49q0 -27 -10 -49t-28 -39t-40 -27q-23 -10 -49 -10t-49 10t-40 27q-16 17 -26 39t-10 49zM-38 1337
q0 25 10 49t26 41q17 17 40 27t49 10q25 0 49 -10t41 -27t27 -41t10 -49q0 -27 -10 -49t-27 -39t-41 -27t-49 -10q-26 0 -49 10t-40 27q-16 17 -26 39t-10 49z" />
    <glyph glyph-name="Alpha" unicode="&#x391;" horiz-adv-x="1214" 
d="M721 1126q-156 -268 -283 -536h387q-43 310 -104 536zM1122 84q0 -104 -143 -104q-49 0 -65 22t-24 126q-8 105 -30 255h-516q-44 -91 -76 -165t-52 -120q-32 -76 -51 -97t-48 -21q-59 0 -101 24q-43 24 -43 59q0 72 205 491t424 755q30 49 62 75q31 25 84 25h16
q82 1 112 -71q64 -153 134 -498q70 -344 87 -486q17 -141 19 -162q6 -55 6 -108z" />
    <glyph glyph-name="Beta" unicode="&#x392;" horiz-adv-x="1208" 
d="M887 1019q0 85 -45 123t-152 38h-147q-19 0 -33 -14t-16 -31l-48 -301h216q154 0 206 104q18 37 19 81zM846 442q0 183 -219 183h-215l-60 -373q0 -17 6 -28t29 -11h195q198 0 248 136q16 42 16 93zM1079 424q0 -182 -135 -303t-377 -121h-311q-147 0 -147 133q0 25 5 55
t11 72l149 940q31 193 224 193h231q213 -1 313 -99q82 -81 82 -221q0 -198 -160 -297q-48 -30 -104 -45q219 -68 219 -307z" />
    <glyph glyph-name="Gamma" unicode="&#x393;" horiz-adv-x="1022" 
d="M993 1393q90 0 90 -74q0 -91 -41 -115t-73 -24h-434q-34 0 -41 -39l-168 -1057q-10 -56 -40 -78t-84 -22t-81 15.5t-27 57.5q0 10 4 35t6.5 41t4.5 25l163 1044q31 191 226 191h495z" />
    <glyph glyph-name="Delta" unicode="&#x394;" horiz-adv-x="1245" 
d="M924 213q-28 216 -72 419t-111 494q-167 -296 -279 -502t-204 -411h666zM125 0q-143 0 -143 94q0 60 47 166q200 450 594 1049q39 57 69 79t90 21q60 0 86 -29q28 -29 45 -88q190 -576 220 -859t30 -325t-33 -75t-110 -33h-895z" />
    <glyph glyph-name="Epsilon" unicode="&#x395;" horiz-adv-x="1087" 
d="M827 213q103 0 103 -54q0 -129 -76 -152q-24 -7 -59 -7h-529q-76 0 -118 34t-42 101q0 9 2 23t9 51l155 993q31 191 226 191h516q58 1 80 -17t22 -44t-4 -48q-10 -54 -36 -79t-95 -25h-446q-15 0 -27 -11t-14 -28l-50 -310h418q59 0 80 -19t21 -43q-1 -24 -5 -47
q-11 -54 -37 -79q-27 -25 -94 -25h-417l-52 -331q-2 -14 -4 -27t-2 -24q0 -23 23 -23h452z" />
    <glyph glyph-name="Zeta" unicode="&#x396;" horiz-adv-x="1083" 
d="M854 229q46 0 66 -18t20 -71q0 -52 -33 -96t-88 -44h-723q-116 0 -116 123q0 105 107 255t421 432q314 283 340 353h-559q-86 0 -86 86q0 62 33 103t88 41h677q138 0 138 -121q0 -128 -148 -300q-80 -92 -324 -314q-371 -338 -403 -429h590z" />
    <glyph glyph-name="Eta" unicode="&#x397;" horiz-adv-x="1364" 
d="M1000 -16q-54 0 -82 16t-27 48q0 31 6 63l80 497h-567l-84 -524q-10 -56 -40 -78t-84 -22t-81 16t-27 57q0 9 6 49l191 1207q10 57 37 77q27 19 81 19q55 0 84 -14t29 -58v-7q0 -2 -1 -10t-3 -20t-4 -34l-72 -445h568l77 492q10 56 37 76t82 20t84 -14t29 -58v-7
q0 -13 -10 -68l-187 -1178q-8 -56 -38 -78t-84 -22z" />
    <glyph glyph-name="Theta" unicode="&#x398;" horiz-adv-x="1380" 
d="M868 821q101 0 101 -80q0 -90 -45.5 -111.5t-83.5 -21.5h-279q-94 0 -94 80q0 133 125 133h276zM793 1210q-81 0 -145.5 -27t-137.5 -94t-122.5 -215t-49.5 -307q0 -260 110 -322.5t196 -62.5t150.5 28t135.5 96t118.5 216t47.5 265q0 116 -16.5 185.5t-53 122t-94.5 84
t-139 31.5zM808 1413q242 0 379.5 -146t137.5 -419q0 -335 -138 -547t-287.5 -266.5t-275.5 -54.5q-246 0 -380.5 158t-134.5 417q0 337 138.5 545t288.5 260.5t272 52.5z" />
    <glyph glyph-name="Iota" unicode="&#x399;" horiz-adv-x="567" 
d="M202 -16q-54 0 -81 16t-27 57q0 7 2 25t6 41l189 1190q10 57 37 77q27 19 81 19q55 0 84 -14q29 -15 29 -49t-10 -86l-186 -1176q-10 -56 -40 -78t-84 -22z" />
    <glyph glyph-name="Kappa" unicode="&#x39a;" horiz-adv-x="1180" 
d="M415 1409q107 0 107 -61q0 -30 -8 -74l-72 -457q147 108 300 254t262 283q46 57 92 57q45 -1 86 -35t41 -76q0 -18 -8 -37t-72 -98t-188 -196t-257 -224q184 -235 306 -474q60 -119 69 -145q8 -26 8 -42q0 -42 -47 -72t-88 -30t-56 14t-36 53q-168 333 -348 569l-50 -33
q-27 -16 -57 -36l-73 -465q-9 -56 -42 -78t-86 -22q-52 0 -78 16t-26 57v7q0 4 6 55l191 1194q8 51 37 73t87 23z" />
    <glyph glyph-name="Lambda" unicode="&#x39b;" horiz-adv-x="1214" 
d="M1122 84q0 -104 -143 -104q-48 0 -64.5 21.5t-19.5 66.5q-46 502 -174 1058q-260 -451 -514 -1050q-24 -54 -42 -75q-19 -21 -63 -21t-86 24t-43 66t87 240t244 490t298 509q36 55 68 77t91 23q59 0 85 -28t47 -89q69 -214 129 -505t75 -433q16 -142 20.5 -179.5
t4.5 -90.5z" />
    <glyph glyph-name="Mu" unicode="&#x39c;" horiz-adv-x="1608" 
d="M1444 1409q121 0 121 -98q0 -12 -9 -70l-184 -1159q-8 -54 -34 -76t-89 -22q-96 0 -96 69q0 23 6 60l148 923l-375 -516q-54 -74 -144 -74q-42 0 -68 13t-46 59l-209 518l-152 -954q-9 -58 -37 -78t-83 -20q-99 0 -99 69q0 22 6 56l185 1161q12 76 40 108q27 32 89 31
q62 1 87 -17t44 -67l266 -672l475 672q58 84 158 84z" />
    <glyph glyph-name="Nu" unicode="&#x39d;" horiz-adv-x="1405" 
d="M965 3q-26 19 -44 58l-456 976l-152 -955q-9 -56 -37 -77t-80 -21t-77 16t-25 46q0 31 6 65l183 1151q24 147 147 147q82 0 112 -78l445 -963l150 941q9 58 36 79t79 21t80 -16t28 -60q0 -14 -8 -67l-185 -1162q-11 -64 -45 -92t-82 -28q-49 0 -75 19z" />
    <glyph glyph-name="Xi" unicode="&#x39e;" horiz-adv-x="1053" 
d="M807 831q111 0 111 -69q0 -144 -121 -144h-484q-110 0 -110 70q0 143 121 143h483zM836 213q110 0 110 -70q0 -143 -121 -143h-694q-111 0 -111 70q0 143 121 143h695zM971 1393q110 0 110 -70q0 -143 -120 -143h-633q-111 0 -111 69q0 144 121 144h633z" />
    <glyph glyph-name="Omicron" unicode="&#x39f;" horiz-adv-x="1380" 
d="M793 1210q-81 0 -145 -27t-116 -73q-95 -88 -144 -236q-50 -148 -50 -307q0 -260 161 -351q59 -34 145 -34t150 28t115 76q92 88 139 236q48 148 48 265q0 115 -16 185t-54 122q-36 52 -94 84t-139 32zM808 1413q242 0 379 -146q138 -146 138 -419q1 -334 -159 -580
q-116 -179 -314 -251q-102 -37 -228 -37q-246 0 -381 158q-134 158 -134 417q-1 337 161 579q114 174 314 244q102 36 224 35z" />
    <glyph glyph-name="Pi" unicode="&#x3a0;" horiz-adv-x="1364" 
d="M1147 1393q158 0 158 -138q0 -25 -9 -75l-174 -1096q-9 -56 -37.5 -78t-84.5 -22t-82.5 16.5t-26.5 58.5q0 8 6 52l160 1007q4 22 4 35q0 27 -23 27h-503q-34 0 -41 -39l-168 -1057q-10 -56 -40 -78t-84 -22t-81 15.5t-27 57.5q0 9 6 49l172 1096q31 191 226 191h649z
" />
    <glyph glyph-name="Rho" unicode="&#x3a1;" horiz-adv-x="1108" 
d="M633 715q134 -1 204 73t70 195q0 197 -215 197h-160q-14 0 -26 -11t-14 -28l-68 -426h209zM203 -16q-107 0 -107 73q0 19 8 66l170 1079q30 191 218 191h241q201 1 305 -103t105 -306q0 -202 -133 -342t-385 -140h-232l-65 -420q-7 -48 -32 -73t-93 -25z" />
    <glyph glyph-name="Sigma" unicode="&#x3a3;" horiz-adv-x="1077" 
d="M950 143q0 -143 -121 -143h-702q-117 0 -117 119t129 287q101 126 324 329q-190 263 -259 444q-22 58 -22 91q0 123 115 123h698q111 0 111 -70q0 -143 -121 -143h-524q86 -200 209 -353q33 -41 45 -61.5t12 -55.5t-47 -73q-172 -149 -272 -253t-119 -171h551
q110 0 110 -70z" />
    <glyph glyph-name="Tau" unicode="&#x3a4;" horiz-adv-x="1040" 
d="M238 1180q-103 0 -103 71q0 89 53 127q22 16 58 15h782q62 0 86 -15t25 -55q0 -143 -121 -143h-273l-174 -1082q-19 -114 -134 -114t-115 90q0 13 18 127l158 979h-260z" />
    <glyph glyph-name="Upsilon" unicode="&#x3a5;" horiz-adv-x="1053" 
d="M422 -16q-105 0 -105 73q0 18 9 66l65 414q-133 197 -187 373t-54 376q0 67 29 95t90 28t83 -20t21 -68q0 -340 157 -594q264 255 355 582q17 65 40 83t77 17q54 0 90 -21q34 -21 34 -57q0 -118 -132 -350t-373 -444l-72 -453q-8 -52 -37 -76t-90 -24z" />
    <glyph glyph-name="Phi" unicode="&#x3a6;" horiz-adv-x="1466" 
d="M1200 747q0 115 -70 184.5t-206 82.5l-99 -625q285 31 330 164.5t45 193.5zM596 389l98 625q-191 -21 -283 -120t-92 -226q0 -252 277 -279zM1430 778q0 -70 -12.5 -130.5t-60 -159t-188 -189.5t-374.5 -106l-19 -109q-9 -56 -39.5 -78t-84.5 -22t-80.5 15.5t-26.5 57.5
q0 7 2.5 25t5.5 41l10 70q-242 17 -357.5 139.5t-115.5 314.5t115.5 329.5t255 182t264.5 51.5l16 103q10 56 37 76t82 20t84 -14t29 -58q0 -6 -3.5 -31t-6.5 -51l-7 -45q241 -17 331.5 -112t116.5 -172.5t26 -147.5z" />
    <glyph glyph-name="Chi" unicode="&#x3a7;" horiz-adv-x="1110" 
d="M969 154q1 -90 -29 -130t-97 -40t-89 22t-23 84q-5 264 -170 479q-273 -227 -352 -479q-22 -66 -44 -86t-83 -20q-98 0 -98 90q0 136 110 302t322 335q-107 153 -154 291t-47 294q0 113 135 113q53 0 76 -19t23 -73q0 -245 149 -479q148 129 217 236t96 201t51 114t82 20
q111 0 111 -92q0 -118 -113 -294t-301 -325q228 -279 228 -544z" />
    <glyph glyph-name="Psi" unicode="&#x3a8;" horiz-adv-x="1561" 
d="M1434 1409q106 0 106 -80q0 -13 -8 -61l-82 -520q-34 -209 -190.5 -323t-409.5 -120l-35 -221q-9 -56 -39.5 -78t-84.5 -22t-80.5 15.5t-26.5 57.5q0 7 2.5 25t5.5 41l29 182q-195 4 -326 105t-131 290q0 65 10 129l78 480q9 54 36.5 77t86.5 23q108 0 108 -80
q0 -14 -8 -59l-74 -467q-8 -40 -8 -92q0 -95 72.5 -149t185.5 -60l129 811q10 56 37 76t82 20t84 -14t29 -46t-11 -89l-120 -758q214 6 272.5 97t67.5 149l88 561q8 54 37 77t88 23z" />
    <glyph glyph-name="Omega" unicode="&#x3a9;" horiz-adv-x="1380" 
d="M-6 70q0 143 121 143h110q-116 143 -116 360q0 337 173.5 588.5t530.5 251.5q236 0 374 -146q138 -147 138 -427t-96 -425t-160 -202h115q102 0 102 -72q0 -89 -37 -115t-73 -26h-357q-62 0 -86 15t-24 47q0 116 67 141q136 49 228 219t92 405q0 168 -70 267
q-80 116 -232 116q-295 0 -409 -328q-47 -135 -47 -284q0 -317 166 -393q41 -20 41 -64q0 -90 -37.5 -115.5t-73.5 -25.5h-330q-110 0 -110 70z" />
    <glyph glyph-name="Iotadieresis" unicode="&#x3aa;" horiz-adv-x="567" 
d="M202 -16q-54 0 -81 16t-27 57q0 7 2 25t6 41l189 1190q10 57 37 77q27 19 81 19q55 0 84 -14q29 -15 29 -49t-10 -86l-186 -1176q-10 -56 -40 -78t-84 -22zM634 1792q52 0 90 -38t37 -89q1 -53 -37 -89t-90 -36t-88 36t-37 89q0 51 37 89q36 38 88 38zM242 1792
q52 0 88 -38q38 -38 38 -89q0 -53 -38 -89t-89 -36q-53 0 -89 36t-36 89q0 51 37 89t89 38z" />
    <glyph glyph-name="Upsilondieresis" unicode="&#x3ab;" horiz-adv-x="1053" 
d="M422 -16q-105 0 -105 73q0 18 9 66l65 414q-133 197 -187 373t-54 376q0 67 29 95t90 28t83 -20t21 -68q0 -340 157 -594q264 255 355 582q17 65 40 83t77 17q54 0 90 -21q34 -21 34 -57q0 -118 -132 -350t-373 -444l-72 -453q-8 -52 -37 -76t-90 -24zM852 1792
q52 0 90 -38t37 -89q1 -53 -37 -89t-90 -36t-88 36t-37 89q0 51 37 89q36 38 88 38zM460 1792q52 0 88 -38q38 -38 38 -89q0 -53 -38 -89t-89 -36q-53 0 -89 36t-36 89q0 51 37 89t89 38z" />
    <glyph glyph-name="alphatonos" unicode="&#x3ac;" horiz-adv-x="1272" 
d="M301 438q0 -254 188 -254q141 0 217 126t76 268q0 282 -194 282q-133 0 -210 -130t-77 -292zM440 -20q-188 0 -278 122t-90 292t52 318t170 250q120 102 310 103q109 -1 184 -57t107 -142q105 148 213 187q22 8 46 8q46 0 77 -42t31 -82q0 -39 -18 -59t-82 -56t-103 -99
q-62 -103 -62 -263t60 -234q21 -25 57 -54t37 -61q0 -51 -37 -89q-70 -72 -155 -13t-132 181q-127 -210 -387 -210zM762 1589q96 0 96 -55q0 -19 -6 -37l-103 -231q-24 -53 -52 -74t-73 -21q-92 0 -92 54q0 14 8 41l99 231q21 50 50 71t73 21z" />
    <glyph glyph-name="epsilontonos" unicode="&#x3ad;" horiz-adv-x="981" 
d="M295 557q-131 42 -131 180t112 233t312 95q133 0 257 -67q107 -56 107 -116q0 -38 -28 -77t-54 -39t-45 10t-90 47t-154 37t-135 -30t-53 -82t43 -82t116 -31t96 -21t24 -65t-28 -76t-97 -31q-147 0 -215 -43t-68 -95t50 -86t160 -34q112 0 238 74q26 16 57 16t60 -34
t29 -72q0 -36 -22 -59t-55 -43q-61 -39 -149 -63q-192 -51 -363 3q-81 26 -132 67q-94 80 -94 214q-1 97 71 175t181 95zM734 1589q96 0 96 -55q0 -19 -6 -37l-103 -231q-24 -53 -52 -74t-73 -21q-92 0 -92 54q0 14 8 41l99 231q21 50 50 71t73 21z" />
    <glyph glyph-name="etatonos" unicode="&#x3ae;" horiz-adv-x="1096" 
d="M178 -16q-102 0 -102 71q0 12 10 74l82 512q12 67 12 141t-10 118t-10 80t38 59q38 22 80 22q72 0 93 -76q14 -50 14 -131q71 157 241 198q54 13 114 13q124 1 208 -85q86 -86 86 -230q0 -30 -6 -71t-8 -56l-146 -961q-11 -78 -78 -90q-21 -4 -57 -4q-92 0 -92 72
q-1 11 3 32t7 41l138 912q6 40 6 77q0 158 -150 158q-141 0 -227 -157q-32 -59 -47 -148l-74 -477q-7 -54 -37 -74t-88 -20zM824 1589q96 0 96 -55q0 -19 -6 -37l-103 -231q-24 -53 -52 -74t-73 -21q-92 0 -92 54q0 14 8 41l99 231q21 50 50 71t73 21z" />
    <glyph glyph-name="iotatonos" unicode="&#x3af;" horiz-adv-x="602" 
d="M313 248q0 -76 56 -76q26 0 65 18t63 19q24 0 44 -30t20 -63q0 -56 -76 -96q-75 -40 -177 -40t-161 61t-59 162q0 61 18 190l91 572q9 55 40 75q31 21 83 21t79 -14t27 -44t-8 -77l-90 -570q-15 -86 -15 -108zM475 1589q96 0 96 -55q0 -19 -6 -37l-103 -231
q-24 -53 -52 -74t-73 -21q-92 0 -92 54q0 14 8 41l99 231q21 50 50 71t73 21z" />
    <glyph glyph-name="upsilondieresistonos" unicode="&#x3b0;" horiz-adv-x="1104" 
d="M334 342q0 -158 151 -158q146 0 232 127t86 279t-45 250q-16 32 -34 60t-17 60q0 33 39 69q40 36 81 36q68 0 128 -100q77 -129 77 -325t-64 -340t-200 -232q-134 -88 -332 -88q-138 0 -236 79t-98 224q0 48 11 112l90 572q9 54 39 74t82 20q106 0 106 -72q0 -5 -2 -16
l-86 -553q-8 -53 -8 -78zM707 1589q86 0 86 -55q0 -19 -6 -37l-103 -231q-24 -55 -48 -75t-73 -20q-75 0 -75 54q0 14 8 41l98 231q22 52 47 72q24 20 66 20zM799 1337q-1 25 9 49t27 41t40 27t49 10t49 -10t41 -27t27 -41q10 -24 10 -49q0 -27 -10 -49q-9 -22 -27 -39
t-41 -27t-49 -10t-49 10t-40 27t-27 39t-9 49zM211 1337q-1 25 9 49t27 41t40 27t49 10t50 -10t40 -27q17 -17 27 -41t10 -49q0 -27 -10 -49t-27 -39q-16 -17 -40 -27t-50 -10t-49 10t-40 27t-27 39t-9 49z" />
    <glyph glyph-name="alpha" unicode="&#x3b1;" horiz-adv-x="1272" 
d="M301 438q0 -254 188 -254q141 0 217 126t76 268q0 282 -194 282q-133 0 -210 -130t-77 -292zM440 -20q-188 0 -278 122t-90 292t52 318t170 250q120 102 310 103q109 -1 184 -57t107 -142q104 148 169.5 171.5t89.5 23.5q46 0 77 -42.5t31 -81.5t-18 -59t-82 -56
t-103 -99q-62 -103 -62 -263t60 -234q21 -25 57 -54t37 -61q0 -51 -53.5 -106.5t-138.5 4.5q-85 59 -132 181q-127 -210 -387 -210z" />
    <glyph glyph-name="beta" unicode="&#x3b2;" horiz-adv-x="1208" 
d="M524 817q0 109 122 109t190 60t69 150q0 89 -47 147q-46 58 -146 58q-100 1 -159 -53t-80 -182l-96 -596q-12 -76 -12 -144q-1 -68 63 -130t164 -62q139 0 220 84t81 240q0 92 -61 162t-156 71h-45q-60 0 -83.5 20t-23.5 66zM1135 1157q1 -112 -63 -210t-179 -118
q109 -27 169 -121t60 -208q0 -248 -144 -384t-394 -136q-92 0 -166 40t-101 111l-73 -469q-10 -54 -42.5 -74t-83.5 -20t-76.5 14.5t-25.5 43.5t9 81l225 1411q36 214 158 316t315 102t303 -104t109 -275z" />
    <glyph glyph-name="gamma" unicode="&#x3b3;" horiz-adv-x="961" 
d="M986.5 1018q23.5 -43 23.5 -77t-43 -87q-249 -270 -339 -455q-54 -111 -88 -197t-48 -190l-56 -350q-9 -54 -39.5 -74t-78.5 -20t-78.5 15t-30.5 57q1 42 25 187q24 146 24 358t-52 392t-145 271q-45 40 -45 87q0 46 38 86t78 40q78 0 159 -126t122 -319q21 -98 21 -204
q46 238 346 577q65 72 124 72t82.5 -43z" />
    <glyph glyph-name="delta" unicode="&#x3b4;" horiz-adv-x="1114" 
d="M522 184q140 0 218 108t79 240q0 132 -47 210t-156 151q-80 -19 -161 -79q-154 -114 -154 -365q0 -117 56 -191t165 -74zM704 1331q-137 1 -137 -89q0 -40 41 -78t127 -96q85 -59 199.5 -163.5t114.5 -347.5t-132 -400q-148 -177 -417 -177q-212 0 -320 132t-108 330
q0 417 377 580q-111 88 -111 215t96 213t277 86q101 0 183 -32t126 -72q44 -42 43 -78q1 -36 -29 -76t-60 -39q-30 0 -109 46t-161 46z" />
    <glyph glyph-name="epsilon" unicode="&#x3b5;" horiz-adv-x="981" 
d="M295 557q-131 42 -131 180t112 233t312 95q133 0 257 -67q107 -56 107 -116q0 -38 -28 -77t-54 -39t-45 10t-90 47t-154 37t-135 -30t-53 -82q0 -52 43.5 -82.5t115.5 -30.5t96 -20.5t24 -65.5t-28 -76t-97 -31q-147 0 -215 -43t-68 -95t50 -86t160 -34q111 0 187.5 45
t107.5 45t60 -34t29 -72q0 -36 -22.5 -59t-54.5 -43q-61 -39 -201.5 -76.5t-266 2t-176.5 81.5q-94 80 -94 214q-1 97 71 175t181 95z" />
    <glyph glyph-name="zeta" unicode="&#x3b6;" horiz-adv-x="850" 
d="M897 1516q76 0 76 -72q0 -49 -33 -89t-140 -125q-507 -403 -507 -751q0 -99 53 -148t143 -74q89 -25 201.5 -69.5t112.5 -207.5q0 -139 -106.5 -237t-236.5 -149q-67 -28 -106 -28q-40 0 -64 33t-24 68t20 53t60 38q41 18 77 34t73 37q94 53 94 134q0 37 -40 57t-113 38
q-169 41 -264 133.5t-95 265.5q0 234 159.5 482.5t372.5 385.5h-282q-76 0 -76 72q0 59 30 89t78 30h537z" />
    <glyph glyph-name="eta" unicode="&#x3b7;" horiz-adv-x="1096" 
d="M178 -16q-102 0 -102 71q0 12 10 74l82 512q12 67 12 141t-10 118t-10 80t38 59q38 22 80 22q72 0 93 -76q14 -50 14 -131q71 157 183 184t172 27q124 0 209 -85.5t85 -229.5q0 -30 -6 -71t-8 -56l-146 -961q-11 -79 -55 -86.5t-80 -7.5q-92 0 -92 72q0 11 3.5 32t6.5 41
l138 912q6 40 6 77q0 158 -150 158q-141 0 -200.5 -108t-73.5 -197l-74 -477q-7 -54 -37 -74t-88 -20z" />
    <glyph glyph-name="theta" unicode="&#x3b8;" horiz-adv-x="1180" 
d="M696 1331q-134 0 -210 -122t-107 -351h481q3 29 6 127q-2 168 -42 257t-128 89zM530 184q124 0 202 126t110 358h-486q-6 -92 -6 -152q0 -144 43 -238t137 -94zM520 -20q-190 0 -292 142t-103 386q0 472 150 750t434 278q189 0 286 -150t97 -403q0 -483 -152 -743
t-420 -260z" />
    <glyph glyph-name="iota" unicode="&#x3b9;" horiz-adv-x="602" 
d="M313 248q0 -76 56 -76q26 0 65 18t63 19q24 0 44 -30t20 -63q0 -56 -76 -96q-75 -40 -177 -40t-161 61t-59 162q0 61 18 190l91 572q9 55 40 75q31 21 83 21t79 -14t27 -44t-8 -77l-90 -570q-15 -86 -15 -108z" />
    <glyph glyph-name="kappa" unicode="&#x3ba;" horiz-adv-x="1069" 
d="M1049 956q0 -35 -24 -53.5t-69 -34.5q-173 -61 -350 -235q78 -62 156 -176t127 -224t49 -157t-38 -70q-38 -22 -83 -22t-62 15t-53 100q-95 220 -237 386q-87 -99 -123 -168l-39 -239q-16 -94 -131 -94q-45 0 -70.5 14.5t-25.5 42.5t4 51l141 879q9 53 42 71.5t81 18.5
t76.5 -13.5t28.5 -54.5q0 -8 -9 -61l-39 -246q153 178 306 278t247 101q95 0 95 -109z" />
    <glyph glyph-name="lambda" unicode="&#x3bb;" horiz-adv-x="1014" 
d="M285 1419q0 56 31.5 86.5t85.5 30.5q118 0 186 -63t102 -246l160 -836q32 -157 93 -205q61 -50 61 -88t-30 -76t-69 -38q-77 0 -152 84t-108 256l-86 444q-211 -286 -362 -702q-17 -46 -33 -64t-64 -18q-47 0 -86 24t-39 59q0 37 32 113t57.5 129t50.5 105
q151 308 393 616l-39 199q-20 106 -102 106t-82 84z" />
    <glyph glyph-name="mu" unicode="&#x3bc;" horiz-adv-x="1157" 
d="M346 342q0 -156 152 -156q96 0 174 80t102 236l72 465q15 94 121 94t106 -72q0 -13 -6 -51l-137 -864q-8 -52 -36 -71t-85 -19q-107 0 -107 69q0 14 5 33l8 47q-69 -89 -129 -121t-131 -32q-121 0 -166 86l-58 -371q-15 -98 -121 -98t-106 86q0 22 12 90l199 1194
q15 94 121 94t106 -72q0 -5 -6 -49l-82 -520q-8 -51 -8 -78z" />
    <glyph glyph-name="nu" unicode="&#x3bd;" horiz-adv-x="1098" 
d="M803 764q0 77 -45 129q-22 27 -28 39t-7 39q0 28 41 61q40 33 78 33q73 -1 132 -89q58 -88 58 -200q0 -179 -122 -357t-365 -388q-54 -47 -99 -47h-26q-71 0 -92 51q-148 346 -194 726q-17 148 -17 206q0 94 143 94q48 0 67 -22.5t21 -65.5q16 -345 131 -727
q324 304 324 518z" />
    <glyph glyph-name="xi" unicode="&#x3be;" horiz-adv-x="885" 
d="M242 1112q0 56 41 120t98 93h-113q-75 0 -75 72q0 59 30 89t78 30h533q75 0 75 -72q0 -59 -30 -89t-78 -30h-72q-124 -1 -193 -49t-69 -135t38 -139t148 -52h76q76 0 76 -71q0 -59 -30.5 -89t-78.5 -30h-114q-110 0 -194.5 -78t-84.5 -191t49.5 -161t175.5 -84
q127 -36 188 -84q87 -70 87 -174t-47 -175q-67 -102 -203.5 -174.5t-186.5 -72.5q-52 0 -76 33t-24 68t20 54t128 67q108 46 142 88t34 83t-40 61t-113 38q-169 41 -264 133.5t-95 252.5q0 161 79 276.5t226 158.5q-141 55 -141 233z" />
    <glyph glyph-name="omicron" unicode="&#x3bf;" horiz-adv-x="1120" 
d="M590 860q-66 0 -124 -37q-56 -37 -92 -97q-72 -118 -73 -289q1 -173 123 -233q42 -20 108 -20q68 0 124 37t92 97q71 117 71 291q0 173 -122 231q-41 20 -107 20zM622 1065q205 0 316 -125t111 -351q1 -227 -123 -401q-147 -209 -426 -208q-213 0 -321 132
q-107 132 -107 346t118 391q88 133 246 187q80 28 186 29z" />
    <glyph glyph-name="pi" unicode="&#x3c0;" horiz-adv-x="1235" 
d="M145 -20q-37 0 -61 23t-23 65q0 73 68 94q93 14 121 174l92 518q-82 0 -111 -63q-29 -58 -77 -58t-76 24q-29 24 -29 67q-1 44 47 104t121 88t217 28h807q43 0 61 -13t17 -48t-19 -82t-92 -47h-168l-90 -510q-12 -68 -12 -96q0 -76 55 -76q24 0 65 18t63 19q21 0 43 -29
t22 -63q0 -53 -70 -95t-174 -42q-233 0 -233 227q0 47 8 94l98 553h-246l-90 -514q-63 -360 -334 -360z" />
    <glyph glyph-name="rho" unicode="&#x3c1;" horiz-adv-x="1169" 
d="M358 406q0 -222 213 -222q145 0 221 125.5t76 299.5t-81 212.5t-135 38.5t-95.5 -20.5t-88 -69.5t-78.5 -155t-32 -209zM670 1065q207 0 317.5 -125t110.5 -330q0 -254 -132 -442t-399 -188q-139 0 -193 61t-67 88l-76 -467q-11 -80 -55.5 -87t-81.5 -7q-90 0 -90 70
q0 18 8 63l131 831q85 533 527 533z" />
    <glyph glyph-name="sigma1" unicode="&#x3c2;" horiz-adv-x="969" 
d="M930.5 796q-34.5 -38 -66.5 -38q-31 0 -47.5 8.5t-37.5 24.5q-45 34 -82.5 51.5t-96.5 17.5q-126 0 -209.5 -97t-83.5 -265q0 -114 46.5 -165t174.5 -87q127 -36 201 -94.5t74 -184.5t-105 -222.5t-205 -137.5t-131 -41q-48 0 -72 33t-24 60q0 43 20.5 62t96.5 53t113 55
q94 53 94 134q0 37 -40 57t-113 38q-171 41 -265 138.5t-94 299.5q0 244 146.5 406.5t387.5 162.5q200 0 323 -118q30 -29 30 -71t-34.5 -80z" />
    <glyph glyph-name="sigma" unicode="&#x3c3;" horiz-adv-x="1147" 
d="M600 850q-145 0 -222 -126t-77 -264q0 -276 221 -276q146 0 222 121t75 261q0 284 -219 284zM1196 971q0 -60 -30.5 -90.5t-78.5 -30.5h-143q105 -98 105 -256q-1 -158 -57 -295q-56 -139 -180 -229t-324 -90t-308 127t-108 325q0 250 152 431t417 181h479q76 0 76 -73z
" />
    <glyph glyph-name="tau" unicode="&#x3c4;" horiz-adv-x="907" 
d="M510 -20q-234 0 -234 227q0 42 9 94l98 549h-29q-72 0 -118 -54t-82 -53t-70 33t-35 66q1 34 37 79q70 86 199 110q62 13 178 13h397q76 0 76 -73q0 -60 -30.5 -90.5t-78.5 -30.5h-219l-90 -506q-4 -22 -6 -36.5t-4 -28t-2 -31.5q0 -76 55 -76q22 0 38 7t31 13t25.5 11.5
t34.5 5.5q24 1 44 -29t20 -64q0 -57 -76 -96q-76 -40 -168 -40z" />
    <glyph glyph-name="upsilon" unicode="&#x3c5;" horiz-adv-x="1104" 
d="M334 342q0 -158 151 -158q146 0 232 126.5t86 279.5q0 152 -45 250q-16 32 -33.5 59.5t-17.5 60.5t39 69q40 36 81 36q68 0 128 -100q77 -129 77 -325t-64 -340t-200 -232q-134 -88 -332 -88q-138 0 -236 79t-98 224q0 48 11 112l90 572q9 54 39.5 74t81.5 20
q106 0 106 -72v-8l-88 -561q-8 -53 -8 -78z" />
    <glyph glyph-name="phi" unicode="&#x3c6;" horiz-adv-x="1509" 
d="M1202 558q0 258 -284 280l-103 -633q182 4 258 75.5t102.5 139.5t26.5 138zM594 -432q-90 0 -90 70q0 18 8 63l47 301q-245 15 -363 140t-118 321q0 247 162 413t487 168l64 402q8 50 41.5 68t82.5 18t76 -14t27 -56q0 -12 -8 -57l-60 -363q225 -12 353.5 -135
t128.5 -325q0 -247 -161.5 -413t-488.5 -169l-51 -338q-11 -80 -55.5 -87t-81.5 -7zM307 487q0 -258 285 -280l102 633q-279 -6 -333 -145t-54 -208z" />
    <glyph glyph-name="chi" unicode="&#x3c7;" horiz-adv-x="913" 
d="M826 1065q42 0 76 -27t34 -73t-113 -238q-41 -71 -117 -168t-118 -144t-72 -81l80 -406q26 -138 104 -174q40 -18 56 -34t16 -52t-30 -68t-78 -32t-95 29q-79 47 -119 121t-69 221l-41 200l-80 -88q-106 -116 -217 -299q-13 -22 -65 -136q-21 -48 -76 -48q-56 0 -88 26
t-31 67t69 164q68 122 121 193q136 183 318 375l-55 291q-29 148 -119 186q-44 20 -58 40t-14 56q1 36 31 67q30 32 80 32q50 1 118 -43t107 -119q40 -75 65 -209l21 -110q157 180 262 405q17 35 36.5 55.5t60.5 20.5z" />
    <glyph glyph-name="psi" unicode="&#x3c8;" horiz-adv-x="1536" 
d="M1368 1061q107 0 107 -80q0 -2 -1 -9t-2.5 -22.5t-5.5 -29.5l-77 -441q-64 -354 -262 -415.5t-332 -63.5l-54 -338q-11 -80 -55.5 -87t-81.5 -7q-90 0 -90 70q0 18 8 63l47 299q-321 9 -383.5 166t-62.5 238t10 145l68 412q9 54 34.5 77t83.5 23q107 0 107 -80
q0 -25 -6 -59l-64 -400q-8 -40 -8 -96q0 -108 71.5 -168t182.5 -68l199 1256q8 50 41.5 68t82.5 18t75 -14t26 -46t-6 -67l-193 -1215q135 6 225 87t111 202l84 482q10 53 36.5 76.5t84.5 23.5z" />
    <glyph glyph-name="omega" unicode="&#x3c9;" horiz-adv-x="1722" 
d="M952 393q0 -209 152 -209q78 0 135 37q168 108 168 395q0 92 -54 176q-25 40 -44 62q-52 59 -52 93.5t35 76.5q36 41 76 41t88 -35.5t114 -138t66 -281.5q0 -267 -142 -448.5t-419 -181.5q-100 0 -178 59t-94 149q-98 -208 -346 -208q-175 0 -280 107t-105 293t61 342
t149 250t160 93q45 0 81 -38q36 -37 36 -69t-14 -50.5t-49 -49.5q-195 -166 -195 -473q0 -201 188 -201q76 0 148 60.5t96 234.5l37 244q15 98 121 98t106 -76q0 -5 -1 -8l-35 -245q-9 -45 -9 -99z" />
    <glyph glyph-name="iotadieresis" unicode="&#x3ca;" horiz-adv-x="602" 
d="M313 248q0 -76 56 -76q26 0 65 18t63 19q24 0 44 -30t20 -63q0 -56 -76 -96q-75 -40 -177 -40t-161 61t-59 162q0 61 18 190l91 572q9 55 40 75q31 21 83 21t79 -14t27 -44t-8 -77l-90 -570q-15 -86 -15 -108zM554 1485q52 1 90 -37t37 -90q1 -52 -37 -88t-90 -37
q-52 1 -88 37t-37 88q0 52 37 90q36 38 88 37zM162 1485q52 1 88 -37q38 -38 38 -90t-38 -88t-89 -37q-53 1 -89 37t-36 88t37 90t89 37z" />
    <glyph glyph-name="upsilondieresis" unicode="&#x3cb;" horiz-adv-x="1104" 
d="M334 342q0 -158 151 -158q146 0 232 127t86 279t-45 250q-16 32 -34 60t-17 60q0 33 39 69q40 36 81 36q68 0 128 -100q77 -129 77 -325t-64 -340t-200 -232q-134 -88 -332 -88q-138 0 -236 79t-98 224q0 48 11 112l90 572q9 54 39 74t82 20q106 0 106 -72q0 -5 -2 -16
l-86 -553q-8 -53 -8 -78zM840 1485q52 1 88 -37q38 -38 38 -90t-38 -88t-89 -37q-53 1 -89 37t-36 88t37 90t89 37zM446 1485q52 1 90 -37t37 -90q1 -52 -37 -88t-90 -37q-52 1 -88 37t-37 88q0 52 37 90q36 38 88 37z" />
    <glyph glyph-name="omicrontonos" unicode="&#x3cc;" horiz-adv-x="1120" 
d="M590 860q-66 0 -124 -37q-56 -37 -92 -97q-72 -118 -73 -289q1 -173 123 -233q42 -20 108 -20q68 0 124 37t92 97q71 117 71 291q0 173 -122 231q-41 20 -107 20zM622 1065q205 0 316 -125t111 -351q1 -227 -123 -401q-147 -209 -426 -208q-213 0 -321 132
q-107 132 -107 346t118 391q88 133 246 187q80 28 186 29zM738 1589q96 0 96 -55q0 -19 -6 -37l-103 -231q-24 -53 -52 -74t-73 -21q-92 0 -92 54q0 14 8 41l99 231q21 50 50 71t73 21z" />
    <glyph glyph-name="upsilontonos" unicode="&#x3cd;" horiz-adv-x="1104" 
d="M334 342q0 -158 151 -158q146 0 232 127t86 279t-45 250q-16 32 -34 60t-17 60q0 33 39 69q40 36 81 36q68 0 128 -100q77 -129 77 -325t-64 -340t-200 -232q-134 -88 -332 -88q-138 0 -236 79t-98 224q0 48 11 112l90 572q9 54 39 74t82 20q106 0 106 -72q0 -5 -2 -16
l-86 -553q-8 -53 -8 -78zM742 1589q96 0 96 -55q0 -19 -6 -37l-103 -231q-24 -53 -52 -74t-73 -21q-92 0 -92 54q0 14 8 41l99 231q21 50 50 71t73 21z" />
    <glyph glyph-name="omegatonos" unicode="&#x3ce;" horiz-adv-x="1722" 
d="M952 393q0 -209 152 -209q78 0 135 37q168 108 168 395q0 92 -54 176q-25 40 -44 62q-52 59 -52 94q0 34 35 76q36 41 76 41q40 1 88 -35t88 -98q92 -143 92 -322q0 -268 -134 -438q-151 -193 -427 -192q-100 0 -178 59t-94 149q-98 -208 -346 -208q-175 0 -280 107
t-105 293t61 342t149 250t160 93q45 0 81 -38q36 -37 36 -69t-14 -50t-49 -50q-195 -166 -195 -473q0 -201 188 -201q76 0 131 46q89 75 113 249l37 244q15 98 121 98t106 -76q1 -5 -1 -16l-35 -237q-9 -45 -9 -99zM1033 1589q96 0 96 -55q0 -19 -6 -37l-103 -231
q-24 -53 -52 -74t-73 -21q-92 0 -92 54q0 14 8 41l99 231q21 50 50 71t73 21z" />
    <glyph glyph-name="afii10023" unicode="&#x401;" horiz-adv-x="1087" 
d="M827 213q103 0 103 -54q0 -129 -76 -152q-24 -7 -59 -7h-529q-76 0 -118 34t-42 101q0 9 2 23t9 51l155 993q31 191 226 191h516q58 1 80 -17t22 -44t-4 -48q-10 -54 -36 -79t-95 -25h-446q-15 0 -27 -11t-14 -28l-50 -310h418q59 0 80 -19t21 -43q-1 -24 -5 -47
q-11 -54 -37 -79q-27 -25 -94 -25h-417l-52 -331q-2 -14 -4 -27t-2 -24q0 -23 23 -23h452zM930 1792q52 0 90 -38t37 -89q1 -53 -37 -89t-90 -36t-88 36t-37 89q0 51 37 89q36 38 88 38zM538 1792q52 0 88 -38q38 -38 38 -89q0 -53 -38 -89t-89 -36q-53 0 -89 36t-36 89
q0 51 37 89t89 38z" />
    <glyph glyph-name="afii10051" unicode="&#x402;" horiz-adv-x="1348" 
d="M899 885q352 0 352 -295q0 -59 -20 -174l-60 -373q-8 -55 -30 -143q-23 -88 -89 -181q-108 -151 -335 -151q-153 0 -223 49q-45 32 -45 79q0 46 28 84q27 38 59 38t88 -18t97 -17q107 1 151 69t70 228l53 323q15 80 15 116q0 76 -35 114.5t-133 38.5h-236l-92 -588
q-8 -56 -39 -78t-85 -22t-80.5 15.5t-26.5 57.5q0 7 2.5 25t5.5 41l166 1057h-219q-103 0 -103 71q0 89 37.5 115.5t73.5 26.5h782q111 0 111 -70q0 -143 -121 -143h-332l-47 -295h260z" />
    <glyph glyph-name="afii10052" unicode="&#x403;" horiz-adv-x="1022" 
d="M993 1393q90 0 90 -74q0 -91 -60 -126q-22 -13 -54 -13h-434q-34 0 -41 -39l-168 -1057q-10 -56 -40 -78t-84 -22t-81 16t-27 57q0 10 4 35t6 41t5 25l163 1044q31 191 226 191h495zM658 1536q-30 0 -56 30t-25 59q-1 29 11 48t44 45l183 143q55 43 95 43t68 -30t29 -74
q0 -44 -57 -86l-201 -143q-29 -19 -45 -27t-46 -8z" />
    <glyph glyph-name="afii10053" unicode="&#x404;" horiz-adv-x="1233" 
d="M952 739q0 -143 -121 -143h-489v-18q0 -183 79 -288q79 -106 238 -106q103 0 249 97q58 38 92 38t62 -36q30 -36 30 -79q0 -44 -42 -76q-192 -149 -415 -148q-348 0 -472 299q-50 123 -50 319t78 388t233 310q156 117 389 117t375 -158q39 -42 39 -82q-1 -40 -35 -78
t-76 -38t-92 47q-51 47 -102 75q-50 29 -136 29q-163 0 -268.5 -113t-148.5 -286h473q110 0 110 -70z" />
    <glyph glyph-name="afii10054" unicode="&#x405;" horiz-adv-x="1049" 
d="M965 439q1 -71 -11 -123t-37 -102q-54 -105 -165 -169q-112 -65 -287 -65q-252 0 -393 110q-43 34 -43 67q0 57 30 99q30 41 59 41q30 0 46 -8t56 -32q118 -71 255 -71q191 0 239 124q14 38 15 82q0 84 -51 129t-158 82q-187 66 -269 157q-83 90 -83 227q0 187 129 306
q129 120 356 120t367 -113q47 -38 47 -67q-1 -50 -35 -92q-34 -41 -65 -41t-52 12t-46 25q-120 67 -201 67q-131 0 -191 -54q-59 -54 -59 -153q0 -98 106 -151q38 -19 101 -40t127 -51q64 -31 111 -75t75 -107t27 -134z" />
    <glyph glyph-name="afii10055" unicode="&#x406;" horiz-adv-x="567" 
d="M202 -16q-54 0 -81 16t-27 57q0 7 2 25t6 41l189 1190q10 57 37 77q27 19 81 19q55 0 84 -14q29 -15 29 -49t-10 -86l-186 -1176q-10 -56 -40 -78t-84 -22z" />
    <glyph glyph-name="afii10056" unicode="&#x407;" horiz-adv-x="567" 
d="M202 -16q-54 0 -81 16t-27 57q0 7 2 25t6 41l189 1190q10 57 37 77q27 19 81 19q55 0 84 -14q29 -15 29 -49t-10 -86l-186 -1176q-10 -56 -40 -78t-84 -22zM634 1792q52 0 88 -38q38 -38 38 -89q0 -53 -38 -89t-89 -36q-53 0 -89 36t-36 89q0 51 37 89t89 38zM240 1792
q52 0 90 -38t37 -89q1 -53 -37 -89t-90 -36t-88 36t-37 89q0 51 37 89q36 38 88 38z" />
    <glyph glyph-name="afii10057" unicode="&#x408;" horiz-adv-x="961" 
d="M372 -20q-130 0 -239 55q-108 55 -108 121q0 44 32 81q31 37 57 37t36 -3t53 -23q95 -55 175 -55q80 -1 130 53t82 246l131 823q9 57 33 75t82 19q116 0 116 -76q0 -24 -12 -86l-123 -768q-29 -171 -79 -277t-143 -164t-223 -58z" />
    <glyph glyph-name="afii10058" unicode="&#x409;" horiz-adv-x="1901" 
d="M1051 1393q159 0 159 -138q0 -26 -10 -90l-51 -331h256q207 0 312.5 -88t105.5 -277t-137 -329t-375 -140h-353q-147 0 -147 125q0 23 16 135l129 811q1 6 2.5 18t5 34t3.5 31q0 26 -37 26h-268q-33 0 -44 -37q-4 -17 -11 -41t-100.5 -351t-184.5 -501t-106 -204
q-33 -65 -90 -64q-57 0 -98.5 31t-41.5 66t34 90q75 124 187 418t201 648q20 77 63.5 117.5t122.5 40.5h457zM1057 244q0 -31 35 -31h233q132 0 198 69t66 167t-53.5 137t-165.5 39h-254l-53 -334q-6 -24 -6 -47z" />
    <glyph glyph-name="afii10059" unicode="&#x40a;" horiz-adv-x="1913" 
d="M971 0q-148 0 -148 125q0 33 17 135l57 365h-485l-86 -541q-10 -56 -40 -78t-84 -22t-81 15.5t-27 57.5q0 9 6 49l191 1207q10 57 36.5 76.5t81.5 19.5t84 -14t29 -58v-7q0 -3 -1 -10.5t-2.5 -20t-4.5 -33.5l-70 -432h486l78 479q10 57 36.5 76.5t81.5 19.5t84 -14.5
t29 -50.5t-10 -84l-68 -426h256q208 0 313 -88t105 -277t-137 -329t-375 -140h-352zM1069 244q0 -31 35 -31h233q197 0 231 97.5t34 148.5q0 88 -54 127t-166 39h-254l-53 -334q-6 -24 -6 -47z" />
    <glyph glyph-name="afii10060" unicode="&#x40b;" horiz-adv-x="1348" 
d="M1139 1323q0 -143 -121 -143h-332l-47 -295h260q271 0 311.5 -110t40.5 -178t-22 -194l-51 -319q-17 -100 -127 -100q-51 0 -79 17.5t-28 50.5t10.5 94t14.5 85l26 175q15 81 15 118q0 75 -34.5 111.5t-133.5 36.5h-236l-92 -588q-9 -56 -39.5 -78t-84.5 -22t-80.5 15.5
t-26.5 57.5q0 7 2.5 25t5.5 41l166 1057h-219q-103 0 -103 71q0 89 37.5 115.5t73.5 26.5h782q111 0 111 -70z" />
    <glyph glyph-name="afii10061" unicode="&#x40c;" horiz-adv-x="1139" 
d="M1161 1307q0 -36 -18 -63q-18 -28 -47 -62q-28 -34 -64 -74t-76 -84q-202 -219 -331 -305q147 -141 321 -451q78 -140 78 -173q0 -52 -57 -88q-57 -37 -113 -23q-20 5 -33 25q-13 19 -37 65q-80 159 -170 301q-90 141 -204 256l-84 -547q-15 -100 -127 -100q-53 0 -79 16
t-26 57q0 11 6 62l191 1194q9 57 41 77t87 19q55 1 79 -15t24 -41t-2 -39q-2 -12 -3 -22t-3 -18l-70 -430q193 140 493 503q53 64 86 64q58 0 98 -34t40 -70zM685 1489q-29 0 -55 30t-26 59t12 48t43 45l183 143q55 43 95 43q41 0 69 -30t28 -74t-57 -86l-201 -143
q-28 -20 -44 -28t-47 -7z" />
    <glyph glyph-name="afii10062" unicode="&#x40e;" horiz-adv-x="1212" 
d="M1188 1413q44 0 84 -26t41 -65q0 -85 -147 -370t-330 -542q-304 -430 -571 -430q-113 0 -176 43q-64 43 -64 87q1 44 29 79q28 34 55 34t44 -8q17 -7 44 -19t83 -12q116 0 248 154q-159 306 -225 693q-29 170 -29 282q0 57 29 79t84 21q55 0 78 -24t27 -85
q13 -171 59 -387q46 -215 123 -380q285 417 418 786q20 55 36 72q16 18 60 18zM812 1499q-118 1 -211 73t-93 154q0 32 30 60t68 28q40 0 70 -51q54 -90 138 -90t136 94q26 47 67 47t70 -28t29 -60q0 -84 -92 -156q-94 -72 -212 -71z" />
    <glyph glyph-name="afii10145" unicode="&#x40f;" horiz-adv-x="1364" 
d="M455 -229q0 21 8 75l14 97q4 24 4 37q0 20 -24 20h-191q-157 0 -157 137q0 17 8 76l174 1096q9 55 38 77.5t85 22.5t82 -17t26 -59q0 -7 -6 -51l-160 -1008q-4 -22 -4 -34q0 -27 23 -27h504q33 0 41 39l167 1057q10 55 40 77.5t84 22.5t81 -15.5t27 -45.5t-6 -62
l-172 -1096q-31 -190 -226 -190h-165q-36 0 -43 -41l-25 -154q-15 -92 -121 -92t-106 58z" />
    <glyph glyph-name="afii10017" unicode="&#x410;" horiz-adv-x="1214" 
d="M721 1126q-156 -268 -283 -536h387q-43 310 -104 536zM1122 84q0 -104 -143 -104q-49 0 -65 22t-24 126q-8 105 -30 255h-516q-44 -91 -76 -165t-52 -120q-32 -76 -51 -97t-48 -21q-59 0 -101 24q-43 24 -43 59q0 72 205 491t424 755q30 49 62 75q31 25 84 25h16
q82 1 112 -71q64 -153 134 -498q70 -344 87 -486q17 -141 19 -162q6 -55 6 -108z" />
    <glyph glyph-name="afii10018" unicode="&#x411;" horiz-adv-x="1196" 
d="M973 1393q90 0 90 -74q0 -90 -41.5 -114.5t-73.5 -24.5h-413q-34 0 -41 -39l-50 -307h256q208 0 313 -88t105 -277t-137 -329t-375 -140h-352q-148 0 -148 125q0 25 5.5 59t11.5 76l149 942q31 191 226 191h475zM350 246q0 -33 35 -33h236q132 0 198 69t66 167t-54 137
t-165 39h-256l-54 -334q-6 -27 -6 -45z" />
    <glyph glyph-name="afii10019" unicode="&#x412;" horiz-adv-x="1208" 
d="M887 1019q0 85 -45 123t-152 38h-147q-19 0 -33 -14t-16 -31l-48 -301h216q154 0 206 104q18 37 19 81zM846 442q0 183 -219 183h-215l-60 -373q0 -17 6 -28t29 -11h195q198 0 248 136q16 42 16 93zM1079 424q0 -182 -135 -303t-377 -121h-311q-147 0 -147 133q0 25 5 55
t11 72l149 940q31 193 224 193h231q213 -1 313 -99q82 -81 82 -221q0 -198 -160 -297q-48 -30 -104 -45q219 -68 219 -307z" />
    <glyph glyph-name="afii10020" unicode="&#x413;" horiz-adv-x="1022" 
d="M993 1393q90 0 90 -74q0 -91 -60 -126q-22 -13 -54 -13h-434q-34 0 -41 -39l-168 -1057q-10 -56 -40 -78t-84 -22t-81 16t-27 57q0 10 4 35t6 41t5 25l163 1044q31 191 226 191h495z" />
    <glyph glyph-name="afii10021" unicode="&#x414;" horiz-adv-x="1516" 
d="M1186 1153q0 27 -23 27h-284q-30 0 -39 -37q-11 -35 -88.5 -321.5t-235.5 -608.5h469q32 0 44 8.5t15 28.5l138 868q4 22 4 35zM1268 1393q157 0 157 -138q0 -21 -8 -69l-151 -973h10q151 0 151 -113q0 -23 -8 -71l-35 -224q-8 -48 -38 -70t-91 -22q-102 0 -102 70
q0 18 8 63l17 101q4 18 4 35.5t-23 17.5h-876q-30 0 -35 -25l-29 -168q-16 -94 -131 -94q-45 0 -70.5 15t-25.5 46t8 74l35 230q13 84 81 113q51 22 148 22q131 253 223.5 549t137.5 473q41 158 186 158h457z" />
    <glyph glyph-name="afii10022" unicode="&#x415;" horiz-adv-x="1087" 
d="M827 213q103 0 103 -54q0 -129 -76 -152q-24 -7 -59 -7h-529q-76 0 -118 34t-42 101q0 9 2 23t9 51l155 993q31 191 226 191h516q58 1 80 -17t22 -44t-4 -48q-10 -54 -36 -79t-95 -25h-446q-15 0 -27 -11t-14 -28l-50 -310h418q59 0 80 -19t21 -43q-1 -24 -5 -47
q-11 -54 -37 -79q-27 -25 -94 -25h-417l-52 -331q-2 -14 -4 -27t-2 -24q0 -23 23 -23h452z" />
    <glyph glyph-name="afii10024" unicode="&#x416;" horiz-adv-x="1632" 
d="M1573 1411q37 -1 79 -37t42 -70t-18.5 -61t-47.5 -61t-64.5 -74.5t-160.5 -175t-250 -217.5q78 -69 193.5 -231t185.5 -320q24 -52 24 -86t-45 -64q-45 -32 -83 -32t-54 12q-15 12 -44 70q-96 188 -182.5 323.5t-205.5 233.5l-84 -537q-15 -100 -127 -100q-54 0 -79 15.5
t-25 57.5q0 11 6 62l78 502q-291 -251 -497 -538q-50 -69 -72.5 -85t-55.5 -16t-76 38t-43 74q1 36 51 108q98 142 247.5 289.5t271.5 229.5q-127 131 -242 334t-115 248q0 46 40 77t80 31t56.5 -16.5t40.5 -64.5q69 -137 161.5 -280t182.5 -231l82 494q10 57 42 76.5
t86 19.5t79 -15.5t25 -40.5t-2 -38.5t-3 -23t-3 -17.5l-70 -455q192 158 498 535q20 24 40.5 40.5t57.5 16.5z" />
    <glyph glyph-name="afii10025" unicode="&#x417;" horiz-adv-x="1075" 
d="M981 438q0 -323 -321 -424q-110 -34 -231 -34t-187 20q-179 56 -210.5 106t-31.5 84t32 70t63 35q31 0 48.5 -11.5t40.5 -25.5q112 -74 257 -74t228 72t83 182q0 174 -306 174q-110 0 -110 88q0 62 34 91t76 31q195 7 295 94q64 58 64 134t-55 117t-136 41t-191 -47
q-27 -13 -75 -33t-82 -20t-60 41q-24 41 -24 68t13 48t53 43q189 105 388 105q189 0 293.5 -101t104.5 -253q0 -59 -23 -111q-68 -155 -259 -211q229 -85 229 -299z" />
    <glyph glyph-name="afii10026" unicode="&#x418;" horiz-adv-x="1405" 
d="M96 74v11q0 11 2 19l193 1209q9 57 37.5 76.5t82.5 19.5t76.5 -15t22.5 -57v-13l-4 -30q-4 -26 -6 -34l-140 -879l732 950q56 78 131 78q74 0 103.5 -22.5t29.5 -58.5t-6 -66l-187 -1178q-8 -55 -32.5 -77.5t-77.5 -22.5q-54 0 -81.5 15.5t-27.5 57.5q0 13 8 66l142 899
l-746 -961q-58 -77 -141 -77q-111 0 -111 90z" />
    <glyph glyph-name="afii10027" unicode="&#x419;" horiz-adv-x="1405" 
d="M96 74v15q0 7 2 15l193 1209q9 57 37 77t83 19q55 0 77 -15t22 -57q0 -8 -2 -27l-4 -30q-2 -12 -4 -20l-140 -879l732 950q56 78 131 78q73 0 103 -22q30 -23 30 -59t-6 -66l-187 -1178q-8 -55 -32 -77q-25 -23 -78 -23t-81 16t-28 57q0 13 8 66l142 899l-746 -961
q-58 -77 -141 -77q-111 0 -111 90zM862 1540q-118 0 -212 72q-93 72 -93 155q-1 33 29 61t69 27q39 0 69 -51q54 -90 139 -90q84 0 136 94q26 47 67 47t70 -28t29 -60q-1 -83 -93 -155t-210 -72z" />
    <glyph glyph-name="afii10028" unicode="&#x41a;" horiz-adv-x="1139" 
d="M1161 1307q0 -36 -18 -63.5t-47 -61.5t-64.5 -74t-156.5 -171.5t-250 -217.5q147 -141 273 -366t126 -258q0 -52 -57 -88t-95.5 -27t-51 28.5t-36.5 65.5q-80 159 -170 301t-204 256l-84 -547q-15 -100 -127 -100q-54 0 -79.5 15.5t-25.5 57.5q0 11 6 62l191 1194
q9 57 41.5 76.5t86.5 19.5t78.5 -15.5t24.5 -40.5t-2 -38.5t-3 -23t-3 -17.5l-70 -430q193 140 493 503q53 64 86 64q58 0 98 -34t40 -70z" />
    <glyph glyph-name="afii10029" unicode="&#x41b;" horiz-adv-x="1282" 
d="M1065 1393q158 0 158 -138q0 -25 -9 -75l-174 -1096q-9 -56 -37.5 -78t-84.5 -22t-82.5 16.5t-26.5 58.5q0 8 6 52l160 1007q4 22 4 35q0 27 -23 27h-284q-30 0 -39 -37q-4 -17 -11 -41t-107.5 -376t-283.5 -669q-41 -77 -116 -77t-99 34t-24 61t35 85q78 127 190.5 425
t200.5 650q41 158 186 158h461z" />
    <glyph glyph-name="afii10030" unicode="&#x41c;" horiz-adv-x="1608" 
d="M1444 1409q121 0 121 -98q0 -12 -9 -70l-184 -1159q-8 -54 -34 -76t-89 -22q-96 0 -96 69q0 23 6 60l148 923l-375 -516q-54 -74 -144 -74q-42 0 -68 13t-46 59l-209 518l-152 -954q-9 -58 -37 -78t-83 -20q-99 0 -99 69q0 22 6 56l185 1161q12 76 40 108q27 32 89 31
q62 1 87 -17t44 -67l266 -672l475 672q58 84 158 84z" />
    <glyph glyph-name="afii10031" unicode="&#x41d;" horiz-adv-x="1364" 
d="M1000 -16q-54 0 -82 16t-27 48q0 31 6 63l80 497h-567l-84 -524q-10 -56 -40 -78t-84 -22t-81 16t-27 57q0 9 6 49l191 1207q10 57 37 77q27 19 81 19q55 0 84 -14t29 -58v-7q0 -2 -1 -10t-3 -20t-4 -34l-72 -445h568l77 492q10 56 37 76t82 20t84 -14t29 -58v-7
q0 -13 -10 -68l-187 -1178q-8 -56 -38 -78t-84 -22z" />
    <glyph glyph-name="afii10032" unicode="&#x41e;" horiz-adv-x="1380" 
d="M793 1210q-81 0 -145 -27t-116 -73q-95 -88 -144 -236q-50 -148 -50 -307q0 -260 161 -351q59 -34 145 -34t150 28t115 76q92 88 139 236q48 148 48 265q0 115 -16 185t-54 122q-36 52 -94 84t-139 32zM808 1413q242 0 379 -146q138 -146 138 -419q1 -334 -159 -580
q-116 -179 -314 -251q-102 -37 -228 -37q-246 0 -381 158q-134 158 -134 417q-1 337 161 579q114 174 314 244q102 36 224 35z" />
    <glyph glyph-name="afii10033" unicode="&#x41f;" horiz-adv-x="1364" 
d="M1147 1393q158 0 158 -138q0 -25 -9 -75l-174 -1096q-10 -56 -38 -78t-84 -22t-83 16q-26 16 -26 59q0 8 6 52l160 1007q4 22 4 35q0 27 -23 27h-503q-34 0 -41 -39l-168 -1057q-10 -56 -40 -78t-84 -22t-81 16t-27 57q0 9 6 49l172 1096q31 191 226 191h649z" />
    <glyph glyph-name="afii10034" unicode="&#x420;" horiz-adv-x="1108" 
d="M633 715q134 -1 204 73t70 195q0 197 -215 197h-160q-14 0 -26 -11t-14 -28l-68 -426h209zM203 -16q-107 0 -107 73q0 19 8 66l170 1079q30 191 218 191h241q201 1 305 -103t105 -306q0 -202 -133 -342t-385 -140h-232l-65 -420q-7 -48 -32 -73t-93 -25z" />
    <glyph glyph-name="afii10035" unicode="&#x421;" horiz-adv-x="1233" 
d="M635 -20q-252 0 -387 159t-135 428q1 368 187 607t503 239q195 1 319 -97q58 -46 82 -78t23 -69q-1 -36 -35 -74t-76 -38t-96 52q-99 93 -227 93q-215 0 -333 -180t-118 -442q0 -186 82 -286t225 -101q144 0 286 106q27 20 62 20q35 1 65 -35t30 -77q0 -71 -148 -149
t-309 -78z" />
    <glyph glyph-name="afii10036" unicode="&#x422;" horiz-adv-x="1040" 
d="M238 1180q-103 0 -103 71q0 89 53 127q22 16 58 15h782q62 0 86 -15t25 -55q0 -143 -121 -143h-273l-174 -1082q-19 -114 -134 -114t-115 90q0 13 18 127l158 979h-260z" />
    <glyph glyph-name="afii10037" unicode="&#x423;" horiz-adv-x="1212" 
d="M1188 1413q44 0 84 -26t41 -65q0 -85 -147 -370t-330 -542q-304 -430 -571 -430q-113 0 -176 43q-64 43 -64 87q1 44 29 79q28 34 55 34t44 -7.5t44 -19.5t83 -12q116 0 248 154q-159 306 -225 693q-29 170 -29 282q0 57 29 78.5t84 21.5t78 -24t27 -85
q13 -171 59 -386.5t123 -380.5q285 417 418 786q20 55 36 72q16 18 60 18z" />
    <glyph glyph-name="afii10038" unicode="&#x424;" horiz-adv-x="1466" 
d="M1200 747q0 115 -70 185q-70 69 -206 82l-99 -625q285 31 354 236q21 62 21 122zM596 389l98 625q-191 -21 -283 -120t-92 -226q0 -252 277 -279zM1430 778q0 -70 -12 -130q-12 -62 -42 -122q-66 -137 -206 -227q-141 -91 -375 -106l-19 -109q-10 -56 -40 -78t-84 -22
t-80 16t-27 57q1 7 3 25t5 41l10 70q-242 17 -358 140q-115 123 -115 314q0 192 130 347q100 120 284 178q96 30 221 38l16 103q10 56 37 76t82 20t84 -14t29 -58q1 -6 -3 -31t-7 -51l-7 -45q241 -17 365 -147q57 -59 83 -137t26 -148z" />
    <glyph glyph-name="afii10039" unicode="&#x425;" horiz-adv-x="1110" 
d="M969 154q1 -90 -29 -130t-97 -40t-89 22t-23 84q-5 264 -170 479q-273 -227 -352 -479q-22 -66 -44 -86t-83 -20q-98 0 -98 90q0 136 110 302t322 335q-107 153 -154 291t-47 294q0 113 135 113q53 0 76 -19t23 -73q0 -245 149 -479q148 129 217 236t96 201t51 114t82 20
q111 0 111 -92q0 -118 -113 -294t-301 -325q228 -279 228 -544z" />
    <glyph glyph-name="afii10040" unicode="&#x426;" horiz-adv-x="1380" 
d="M1047 -23q0 23 -23 23h-770q-158 0 -158 137q0 17 8 76l175 1096q9 55 37.5 77.5t84.5 22.5t82.5 -17t26.5 -59q0 -7 -6 -51l-160 -1008q-4 -22 -4 -34q0 -27 22 -27h504q35 0 41 41l168 1055q9 55 39.5 77.5t84.5 22.5t81 -16t27 -58q0 -11 -7 -49l-170 -1073h11
q151 0 151 -113q0 -20 -12 -90l-33 -205q-8 -49 -38 -70.5t-90 -21.5q-101 0 -101 70q0 11 8 59l16 103q5 22 5 32z" />
    <glyph glyph-name="afii10041" unicode="&#x427;" horiz-adv-x="1176" 
d="M508 442q-365 0 -365 295q0 64 13 148l61 424q16 100 125 100q51 0 79 -17.5t28 -64.5q0 -15 -4.5 -41t-12.5 -76l-45 -305q-10 -75 -10 -105q0 -64 44 -104.5t121 -40.5q155 0 263 41l94 613q9 55 39.5 77.5t84.5 22.5t80.5 -16t26.5 -58q0 -9 -8 -65l-186 -1186
q-9 -56 -39.5 -78t-84.5 -22t-80.5 15.5t-26.5 57.5q0 7 2.5 25t5.5 41l61 360q-171 -41 -266 -41z" />
    <glyph glyph-name="afii10042" unicode="&#x428;" horiz-adv-x="1956" 
d="M340 240q0 -27 22 -27h445l172 1096q9 55 39.5 77.5t84.5 22.5t80.5 -17t26.5 -59q0 -10 -6 -51l-168 -1069h434q35 0 41 39l168 1057q10 55 40 77.5t84 22.5t81 -17t27 -59q0 -10 -6 -51l-172 -1092q-31 -190 -226 -190h-1253q-158 0 -158 137q0 17 8 76l175 1096
q9 55 37.5 77.5t84.5 22.5t82.5 -17t26.5 -59q0 -7 -6 -51l-160 -1008q-4 -22 -4 -34z" />
    <glyph glyph-name="afii10043" unicode="&#x429;" horiz-adv-x="1985" 
d="M1651 -25q0 25 -23 25h-1374q-158 0 -158 137q0 17 8 76l175 1096q9 55 37.5 77.5t84.5 22.5t82.5 -17t26.5 -59q0 -7 -6 -51l-160 -1008q-4 -22 -4 -34q0 -27 22 -27h445l172 1096q9 55 39.5 77.5t84.5 22.5t80.5 -17t26.5 -59q0 -10 -6 -51l-168 -1069h434q34 0 41 39
l168 1057q10 55 40 77.5t84 22.5t81 -17t27 -59q0 -10 -6 -51l-170 -1069h10q87 0 118 -33t31 -66t-8 -75l-37 -234q-8 -49 -37 -70.5t-89 -21.5q-101 0 -101 70q0 8 1.5 17.5t4.5 31.5l19 115q4 18 4 28z" />
    <glyph glyph-name="afii10044" unicode="&#x42a;" horiz-adv-x="1470" 
d="M621 1393q159 0 159 -138q0 -21 -8 -75l-53 -346h256q207 0 312.5 -88t105.5 -277t-137 -329t-375 -140h-353q-147 0 -147 125q0 23 16 135l129 811q2 10 3.5 22t4.5 29.5t3 28.5q0 29 -27 29h-297q-48 0 -69 24.5t-21 53.5q0 59 28 97t87 38h383zM627 244q0 -31 35 -31
h233q132 0 198 69t66 167t-54 137t-165 39h-254l-53 -334q-6 -24 -6 -47z" />
    <glyph glyph-name="afii10045" unicode="&#x42b;" horiz-adv-x="1722" 
d="M1564 1409q113 -1 113 -63q0 -34 -10 -86l-186 -1176q-10 -56 -40 -78t-84 -22t-81 15.5t-27 57.5q0 7 2.5 25t5.5 41l189 1190q10 57 36.5 76.5t81.5 19.5zM254 0q-148 0 -148 125q0 25 5.5 59t11.5 76l168 1053q10 57 36.5 76.5t81.5 19.5t84 -14.5t29 -50.5t-10 -84
l-68 -426h215q208 0 313 -88t105 -277t-137 -329t-375 -140h-311zM352 244q0 -31 35 -31h193q132 0 198 69t66 167t-54 137t-165 39h-213l-54 -334q-6 -24 -6 -47z" />
    <glyph glyph-name="afii10046" unicode="&#x42c;" horiz-adv-x="1196" 
d="M254 0q-148 0 -148 125q0 25 5.5 59t11.5 76l168 1053q10 57 36.5 76.5t81.5 19.5t84 -14.5t29 -50.5t-10 -84l-68 -426h256q208 0 313 -88t105 -277t-137 -329t-375 -140h-352zM352 244q0 -31 35 -31h234q132 0 198 69t66 167t-54 137t-165 39h-254l-54 -334
q-6 -24 -6 -47z" />
    <glyph glyph-name="afii10047" unicode="&#x42d;" horiz-adv-x="1233" 
d="M317 678q0 133 111 133h520v16q0 184 -81.5 282.5t-222.5 98.5q-142 0 -275 -82q-56 -34 -87 -34q-32 0 -63 36t-31 70q0 35 19 55.5t52 44.5q68 50 174.5 82.5t225.5 32.5q241 0 380 -145t139 -418q0 -389 -144.5 -567t-271 -240.5t-292.5 -62.5t-259 46.5t-123 69.5
q-70 54 -70 96t31 78t63 37q32 0 74 -26q154 -99 317 -99q152 0 263.5 114t155.5 302h-502q-58 0 -80 24t-23 56z" />
    <glyph glyph-name="afii10048" unicode="&#x42e;" horiz-adv-x="1862" 
d="M1322 1210q-70 0 -126.5 -27t-121 -94.5t-108.5 -214t-44 -261.5q0 -209 60.5 -320t199.5 -111q198 0 296.5 200t98.5 454t-92.5 314t-162.5 60zM1329 1413q229 0 353 -146.5t124 -418.5q0 -336 -127.5 -547.5t-267 -266t-255.5 -54.5q-222 0 -343 157.5t-121 417.5v53
h-282l-84 -524q-10 -56 -40 -78t-84 -22t-81 15.5t-27 57.5q0 9 6 49l191 1207q10 57 36.5 76.5t81.5 19.5t84 -14t29 -58v-7q0 -3 -1 -10.5t-2.5 -20t-4.5 -33.5l-72 -445h277q86 408 287.5 500t322.5 92z" />
    <glyph glyph-name="afii10049" unicode="&#x42f;" horiz-adv-x="1194" 
d="M420 973q0 -189 233 -189h181l51 318q6 36 6 57t-29 21h-178q-129 0 -196.5 -61t-67.5 -146zM14 65q0 13 4.5 26t9.5 25.5t10.5 22.5t29.5 57q189 363 391 453q-129 23 -196.5 114t-67.5 195q0 201 139 318t381 117h252q89 0 128.5 -39t39.5 -105q0 -19 -5 -47
l-176 -1120q-9 -57 -41.5 -77.5t-86.5 -20.5t-79.5 15t-25.5 45t4 46l78 485h-49q-129 0 -244.5 -120t-271.5 -408q-16 -28 -36 -46.5t-55 -18.5t-59 7.5t-40.5 19.5t-25 27.5t-8.5 28.5z" />
    <glyph glyph-name="afii10065" unicode="&#x430;" horiz-adv-x="1157" 
d="M72 414q0 277 141 464t356 187t277 -150l8 52q10 56 38 75t80 19t76 -15t23 -45q0 -30 -10 -90l-131 -833q-8 -54 -35 -74q-26 -20 -78 -20q-51 0 -77 12t-27 53q0 8 6 53l10 60q-101 -182 -307 -182q-150 0 -250 111t-100 323zM797 689q1 73 -49 123t-126 50t-120 -21
q-45 -21 -79 -56q-62 -64 -93 -165t-31 -208q0 -108 53 -170t158 -62t169 76q65 76 83 188l29 172q6 38 6 73z" />
    <glyph glyph-name="afii10066" unicode="&#x431;" horiz-adv-x="1108" 
d="M301 457q0 -273 214 -273q101 0 172 65q120 111 120 341q0 102 -52 166t-153 63q-145 -1 -223 -109t-78 -253zM1036 602q0 -274 -144 -448t-403 -174q-198 0 -306 125q-107 126 -107 335t34 340q54 211 119.5 338t123.5 175q58 47 127 83t188 53l127 21
q134 22 178.5 38.5t71.5 16.5q27 1 52 -35t25 -86t-64 -80t-161 -45q-96 -15 -197.5 -30t-174.5 -71q-97 -75 -156 -259q60 65 140 95t157 30q170 0 270 -114t100 -308z" />
    <glyph glyph-name="afii10067" unicode="&#x432;" horiz-adv-x="1079" 
d="M293 420v-23q1 -103 49 -159t159 -56t167 40t57 104q1 63 -59 93t-205 30h-166q-2 -17 -2 -29zM637 872q-121 0 -197 -57t-118 -190q21 -2 81 -2q197 0 286 35.5t89 113.5q0 42 -38 71t-103 29zM952 324q0 -165 -133.5 -254.5t-335.5 -89.5t-306.5 117t-104.5 285
q0 320 155.5 501.5t423.5 181.5t312.5 -102.5t44.5 -153.5q0 -99 -66 -175.5t-186 -101.5q196 -43 196 -208z" />
    <glyph glyph-name="afii10068" unicode="&#x433;" horiz-adv-x="944" 
d="M564 1065q171 0 257 -83t86 -210t-68 -200q-91 -97 -206 -122t-191 -42q-76 -18 -124 -50q-46 -32 -46 -81t35 -81t105 -32t123 16q54 16 103 44q50 28 82 28t57.5 -33t25.5 -68t-16.5 -53t-44.5 -34q-139 -84 -336 -84t-281 84t-84 198q0 170 127 252q74 48 152 68
t158 36q80 17 124 39q78 41 78 113q0 50 -34 80.5t-96 30.5t-107 -17t-98 -44t-87 -27t-56 34q-24 33 -24 81t76 85q139 72 310 72z" />
    <glyph glyph-name="afii10069" unicode="&#x434;" horiz-adv-x="1133" 
d="M805 571q0 248 -213 248q-135 0 -213 -112t-78 -275q-1 -112 55 -180t162 -68q140 0 214 118t73 269zM362 1343q0 119 125 119q424 0 529 -232q61 -132 61 -370q1 -238 -53 -438q-54 -198 -182 -320t-338 -122q-208 0 -318 123t-110 345t128 390q142 186 386 186
q180 0 264 -139q0 289 -161 341q-94 30 -234 31q-97 0 -97 86z" />
    <glyph glyph-name="afii10070" unicode="&#x435;" horiz-adv-x="1008" 
d="M174 94q-102 114 -102 293q0 324 162 501t394 177q232 -1 300 -171q22 -54 22 -128q0 -161 -141 -257q-141 -97 -389 -97h-125q-1 -113 31 -158q59 -85 159 -85q99 0 199 55q46 27 69 27q43 0 72 -28t29 -68t-62 -83q-132 -92 -323 -92q-193 0 -295 114zM737 766
q0 46 -37 80q-36 36 -98 36q-114 0 -189 -80t-104 -212h103q246 0 306 100q18 30 19 76z" />
    <glyph glyph-name="afii10072" unicode="&#x436;" horiz-adv-x="1399" 
d="M1306 1063q36 0 68 -31q32 -32 33 -66q0 -34 -37 -81q-77 -110 -267 -264q-76 -60 -132 -89q91 -78 169 -184t114 -176t36 -100t-37 -60t-81 -30t-60 16t-46 80t-108 168t-159 184l-56 -352q-14 -94 -131 -94q-42 0 -69 17.5t-27 42.5t4 48l53 338q-107 -74 -207 -180
t-149 -174q-47 -68 -65 -80t-60 -12t-74 30q-34 30 -34 68q0 81 201 274q121 115 247 197q-162 162 -228 268q-65 106 -65 142t42 68t77 32t52.5 -16t53.5 -80t106 -155t142 -157l50 316q8 53 41 71.5t81 18.5t76.5 -13.5t28.5 -43.5t-8 -72l-47 -277q182 112 383 357
q23 28 38 39.5t51 11.5z" />
    <glyph glyph-name="afii10073" unicode="&#x437;" horiz-adv-x="999" 
d="M451 627q227 0 227 123q0 48 -48.5 79t-124.5 31q-151 0 -259 -49q-31 -14 -61.5 -13.5t-56.5 40.5t-26 72t16 48q60 60 221 90q83 17 183 17q196 0 299 -94q84 -75 84 -175q0 -153 -77 -204t-130 -66q89 -21 133 -79q43 -58 43 -128q0 -228 -176 -283.5t-298 -55.5
q-217 0 -353 75q-43 23 -43 67t28 84q28 42 64 42t64 -12q117 -52 237 -52q252 0 252 129q0 100 -91 109.5t-142 9.5h-94q-84 0 -84 66q0 129 92 129h121z" />
    <glyph glyph-name="afii10074" unicode="&#x438;" horiz-adv-x="1145" 
d="M797 -16q-107 0 -107 69q0 13 4 33l8 47q-118 -153 -314 -153q-195 0 -263 168q-23 57 -23 120t11 127l90 572q9 54 39 74t82 20q106 0 106 -72q0 -5 -2 -16l-86 -553q-8 -53 -8 -78q0 -156 151 -156q143 0 229 158q34 62 48 158l72 465q8 54 40 74t84 20q103 0 103 -72
q0 -13 -6 -51l-137 -864q-8 -54 -38 -72t-83 -18z" />
    <glyph glyph-name="afii10075" unicode="&#x439;" horiz-adv-x="1145" 
d="M797 -16q-107 0 -107 69q0 13 4 33l8 47q-118 -153 -314 -153q-195 0 -263 168q-23 57 -23 120t11 127l90 572q9 54 39 74t82 20q106 0 106 -72q0 -5 -2 -16l-86 -553q-8 -53 -8 -78q0 -156 151 -156q143 0 229 158q34 62 48 158l72 465q8 54 40 74t84 20q103 0 103 -72
q0 -13 -6 -51l-137 -864q-8 -54 -38 -72t-83 -18zM674 1233q-118 1 -212 73q-93 72 -93 154q-1 32 29 60t69 28t69 -51q54 -90 139 -90q84 0 136 94q26 47 67 47t70 -28t29 -60q-1 -84 -93 -156t-210 -71z" />
    <glyph glyph-name="afii10076" unicode="&#x43a;" horiz-adv-x="958" 
d="M894 1063q35 -1 69 -31t34 -68t-36 -85q-65 -87 -181 -181t-231 -161q84 -77 155 -175q72 -98 112 -172t40 -118t-38 -67t-79 -23q-43 0 -59 16t-50 83t-110 175q-78 108 -160 188l-57 -366q-14 -94 -131 -94q-42 0 -69 17.5t-27 42.5t4 48l141 879q9 53 42 71.5t81 18.5
t76.5 -13.5t28.5 -54.5q0 -8 -9 -61l-49 -283q105 60 215 157q110 98 166 166t71.5 79.5t50.5 11.5z" />
    <glyph glyph-name="afii10077" unicode="&#x43b;" horiz-adv-x="1077" 
d="M829 1044q158 0 158 -135q0 -35 -8 -80l-117 -745q-9 -56 -38.5 -78t-87.5 -22t-79.5 16.5t-21.5 41.5t6 69l109 675q4 22 4 35q0 29 -23 29h-160q-36 0 -47 -43l-30 -109q-120 -427 -261 -657q-39 -59 -75 -59q-62 0 -102 30t-40 54t4.5 37t10 24.5t11.5 21t16 27.5
t73.5 128.5t134.5 365.5t110.5 314.5t188.5 59.5h264z" />
    <glyph glyph-name="afii10078" unicode="&#x43c;" horiz-adv-x="1378" 
d="M1188 1061q106 0 106 -103q0 -35 -8.5 -85t-11.5 -74l-117 -731q-8 -48 -36 -66t-85 -18q-98 0 -98 67q0 20 4 46.5t10 66.5l85 531l-267 -347q-40 -58 -71.5 -65t-57.5 -7q-88 0 -116 76l-142 344l-96 -628q-8 -48 -35.5 -66t-81.5 -18q-102 0 -102 67q0 16 5 44.5
t11 70.5l121 754q12 110 53.5 125.5t87.5 15.5q78 0 120 -100l191 -471l361 481q43 50 80 70t90 20z" />
    <glyph glyph-name="afii10079" unicode="&#x43d;" horiz-adv-x="1155" 
d="M974 1061q103 0 103 -58q0 -30 -8 -77l-135 -848q-16 -94 -131 -94q-45 0 -70.5 14.5t-25.5 45.5t8 75l53 350h-410l-61 -391q-16 -94 -131 -94q-45 0 -70.5 14.5t-25.5 45.5t8 75l135 852q11 74 56 82t81 8q90 0 90 -70q0 -19 -8 -65l-43 -262h410l51 307q9 53 42 71.5
t82 18.5z" />
    <glyph glyph-name="afii10080" unicode="&#x43e;" horiz-adv-x="1120" 
d="M590 860q-66 0 -124 -37q-56 -37 -92 -97q-72 -118 -73 -289q1 -173 123 -233q42 -20 108 -20q68 0 124 37t92 97q71 117 71 291q0 173 -122 231q-41 20 -107 20zM622 1065q205 0 316 -125t111 -351q1 -227 -123 -401q-147 -209 -426 -208q-213 0 -321 132
q-107 132 -107 346t118 391q88 133 246 187q80 28 186 29z" />
    <glyph glyph-name="afii10081" unicode="&#x43f;" horiz-adv-x="1151" 
d="M825 823q0 27 -28 27h-338q-38 0 -45 -39l-117 -727q-9 -56 -38.5 -78t-83.5 -22t-79.5 15.5t-25.5 57.5q0 9 6 49l119 748q31 190 217 190h487q75 0 118.5 -34.5t43.5 -102.5q0 -31 -8 -76l-119 -747q-9 -56 -35.5 -78t-82.5 -22t-82.5 16.5t-26.5 58.5q0 8 6 52
l108 677q4 22 4 35z" />
    <glyph glyph-name="afii10082" unicode="&#x440;" horiz-adv-x="1141" 
d="M334 1061q94 0 94 -66q0 -9 -6 -47l-10 -65q103 182 307 182q156 1 253 -115t97 -319q0 -281 -142 -466t-364 -185q-187 0 -258 133l-74 -451q-9 -54 -37 -74t-92 -20q-98 0 -98 70q0 18 8 63l199 1266q9 57 37 75t86 19zM537 182q143 0 224 134t81 307q0 117 -52 179
t-154 62t-170 -72t-87 -192l-29 -172q-6 -36 -6 -74q0 -76 52 -124t141 -48z" />
    <glyph glyph-name="afii10083" unicode="&#x441;" horiz-adv-x="987" 
d="M469 -20q-177 0 -287 120t-110 320q0 291 146 468t388 177q136 -1 244 -59t108 -132q0 -40 -34 -78t-64 -38t-46 7t-54 37q-76 58 -164 58q-126 0 -210 -117t-83 -313q0 -118 52 -180q53 -62 147 -62t182 62q42 31 78 31q36 1 68 -35t32 -74q0 -60 -108 -126t-285 -66z
" />
    <glyph glyph-name="afii10084" unicode="&#x442;" horiz-adv-x="1722" 
d="M1376 714q0 140 -133 140q-105 0 -173 -85t-87 -210l-76 -481q-9 -54 -39 -74t-82 -20q-106 0 -106 71v11q0 6 2 12l82 534q8 59 8 88q0 82 -36 118t-90 36q-102 0 -176 -85q-73 -85 -93 -216l-74 -475q-9 -54 -41 -74t-84 -20q-102 0 -102 71v11q0 6 2 12l141 893
q9 53 39 71t82 19q106 0 106 -68q0 -23 -6 -49l-6 -35q120 156 304 156t239 -178q139 178 343 178q204 -1 270 -169q22 -56 22 -118t-10 -125l-91 -575q-9 -54 -39 -74t-81 -20q-107 0 -107 71v11q0 6 2 12l82 534q8 61 8 102z" />
    <glyph glyph-name="afii10085" unicode="&#x443;" horiz-adv-x="1036" 
d="M119 967q0 94 122 94q56 0 74 -22.5t23 -86.5q12 -155 50.5 -348.5t90.5 -347.5q204 303 357 723q22 64 45 73t45 9q50 0 89.5 -24.5t39.5 -63.5q0 -107 -186 -469t-382.5 -606.5t-303 -287t-187.5 -42.5q-162 0 -162 104q0 80 36.5 100.5t53.5 20.5t37 -7t45 -7
q126 0 324 270q-114 245 -162.5 516t-48.5 402z" />
    <glyph glyph-name="afii10086" unicode="&#x444;" horiz-adv-x="1509" 
d="M1202 558q0 258 -284 280l-103 -633q182 4 284 100q51 47 77 115t26 138zM594 -432q-90 0 -90 70q0 18 8 63l47 301q-245 15 -363 140t-118 321q0 247 152 403q171 176 497 178l64 402q7 50 41 68t83 18t76 -14t27 -56q0 -12 -8 -57l-60 -363q225 -12 354 -135
q128 -123 128 -325q0 -247 -161 -413t-489 -169l-51 -338q-11 -80 -78 -90q-22 -4 -59 -4zM307 487q0 -258 285 -280l102 633q-278 -6 -360 -216q-26 -68 -27 -137z" />
    <glyph glyph-name="afii10087" unicode="&#x445;" horiz-adv-x="965" 
d="M999 987q0 -198 -342 -463q203 -205 203 -405q0 -135 -127 -135q-54 0 -77 22t-23 94q0 142 -160 316q-241 -171 -289 -336q-16 -56 -38 -76t-77 -20t-79 22t-23 70q0 112 96 226t269 235q-191 207 -191 389q0 72 29 104q30 32 88 31q58 0 80 -18t22 -68q0 -159 152 -328
q214 172 258 316q18 58 45 78t80 20q104 0 104 -74z" />
    <glyph glyph-name="afii10088" unicode="&#x446;" horiz-adv-x="1186" 
d="M797 0q-97 0 -97 102v15q0 8 2 16q-118 -153 -314 -153q-195 0 -240.5 112.5t-45.5 175.5t11 127l90 572q9 54 39.5 74t81.5 20q106 0 106 -72v-8l-88 -561q-8 -53 -8 -78q0 -158 151 -158q143 0 202.5 111t74.5 207l72 465q16 94 121 94q106 0 106 -72q0 -13 -6 -51
l-119 -743h51q148 0 148 -107q0 -8 -7 -43l-36 -240q-8 -49 -35 -70.5t-90 -21.5q-99 0 -99 70q0 13 6 45l19 117q4 22 4 30q0 25 -23 25h-77z" />
    <glyph glyph-name="afii10089" unicode="&#x447;" horiz-adv-x="1073" 
d="M676 397q-78 -98 -272 -98q-58 0 -167.5 44t-109.5 232q0 28 8 87l49 315q8 48 41.5 66t85.5 18q101 0 101 -68q0 -14 -8 -59l-35 -223q-6 -34 -6 -68q0 -139 125 -139q138 0 184.5 81.5t56.5 145.5l39 240q11 74 56.5 82t81.5 8t62.5 -14t26.5 -44t-8 -77l-135 -848
q-16 -94 -131 -94q-45 0 -70.5 14.5t-25.5 45.5t8 75z" />
    <glyph glyph-name="afii10090" unicode="&#x448;" horiz-adv-x="1632" 
d="M1446 1061q102 0 102 -72q0 -13 -6 -51l-137 -864q-8 -54 -37.5 -72t-79.5 -18t-80 14t-30 55q0 13 4 33l4 27q-53 -66 -115 -99.5t-151 -33.5q-186 0 -240 165q-90 -130 -172.5 -147.5t-141.5 -17.5q-124 0 -194 79t-70 211q0 38 15 150l86 547q9 54 39.5 74t81.5 20
q106 0 106 -72v-8l-88 -561q-8 -53 -8 -90q0 -146 123 -146t170.5 111t62.5 207l72 465q9 54 39.5 74t81.5 20q106 0 106 -72q0 -5 -1 -8l-87 -561q-8 -53 -8 -110q0 -126 123 -126t170.5 111t62.5 207l72 465q8 54 41 74t84 20z" />
    <glyph glyph-name="afii10091" unicode="&#x449;" horiz-adv-x="1735" 
d="M1446 -25q0 25 -23 25h-77q-97 0 -97 102v15q0 8 2 16q-118 -153 -295 -153q-204 0 -251 184q-105 -156 -195 -170t-148 -14q-124 0 -192 75.5t-68 227.5q0 48 11 112l90 572q9 54 39.5 74t81.5 20q106 0 106 -72v-8l-88 -561q-8 -53 -8 -88q0 -148 104 -148
q101 0 178.5 73t104.5 245l72 465q9 54 39 74t81 20q107 0 107 -72v-8l-88 -561q-8 -53 -8 -88q0 -148 102 -148t180 74t105 244l71 465q14 94 121 94t107 -72q0 -13 -6 -51l-117 -743h51q86 0 117 -33t31 -72q0 -5 -3 -21t-6 -36l-37 -228q-7 -49 -34.5 -70.5t-89.5 -21.5
q-99 0 -99 70q0 13 8 61l15 90q6 30 6 41z" />
    <glyph glyph-name="afii10092" unicode="&#x44a;" horiz-adv-x="1196" 
d="M72 930q0 114 114 114h277q75 0 117.5 -34.5t42.5 -102.5q0 -28 -9 -71l-24 -154h166q286 0 327 -118.5t41 -165.5t-6.5 -87t-35 -111t-117 -135.5t-238.5 -64.5h-285q-157 0 -157 137q0 36 8 76l80 504q14 87 14 110t-22 23h-201q-48 0 -70 22.5t-22 57.5zM520 221
q0 -26 23 -26h147q95 0 148 37.5t53 113.5t-37 108.5t-131 32.5h-164l-35 -227q-4 -22 -4 -39z" />
    <glyph glyph-name="afii10093" unicode="&#x44b;" horiz-adv-x="1497" 
d="M1419 991q0 -19 -8 -65l-135 -848q-16 -94 -131 -94q-45 0 -70.5 14.5t-25.5 45.5t8 75l135 852q11 74 56 82t81 8q90 0 90 -70zM244 0q-158 0 -158 137q0 36 8 76l119 748q9 55 39 77.5t86 22.5t79 -17t23 -59q0 -7 -6 -51l-41 -252h144q193 0 280.5 -82.5t87.5 -214.5
t-88 -258.5t-309 -126.5h-264zM324 221q0 -26 22 -26h125q95 0 148 37.5t53 113.5t-37 108.5t-131 32.5h-142l-34 -227q-4 -22 -4 -39z" />
    <glyph glyph-name="afii10094" unicode="&#x44c;" horiz-adv-x="997" 
d="M244 0q-158 0 -158 137q0 36 8 76l119 748q9 55 39 77.5t86 22.5t79 -17t23 -59q0 -7 -6 -51l-41 -252h164q287 0 328 -118.5t41 -165.5t-6.5 -87t-34.5 -110.5t-117.5 -135.5t-239.5 -65h-284zM324 221q0 -26 22 -26h148q95 0 147.5 37.5t52.5 113.5t-37 108.5
t-131 32.5h-164l-34 -227q-4 -22 -4 -39z" />
    <glyph glyph-name="afii10095" unicode="&#x44d;" horiz-adv-x="1006" 
d="M934 582q0 -132 -46.5 -250t-163 -235t-351.5 -117q-198 0 -303 98q-41 36 -41 76t28 77t61 37q32 0 60 -16t74 -42t152 -26q207 0 280 248h-381q-78 0 -78 72q0 59 30.5 89t78.5 30h379q0 113 -70 175t-182 62q-63 0 -127 -24t-93 -36t-57 -12t-52 37q-26 37 -26 78
t52 75t146 60t195 27q102 0 184 -32t137.5 -91.5t84.5 -143.5t29 -216z" />
    <glyph glyph-name="afii10096" unicode="&#x44e;" horiz-adv-x="1571" 
d="M1050 860q-66 0 -120.5 -37t-106 -124.5t-51.5 -261.5t77 -213.5t145 -39.5t122 37t104 123t50 263t-77 215t-143 38zM1074 1065q212 0 318.5 -123.5t106.5 -351.5t-130 -419t-408 -191q-207 0 -310.5 124.5t-107.5 321.5h-191l-55 -348q-16 -94 -131 -94
q-45 0 -70.5 14.5t-25.5 45.5t8 75l135 852q11 74 56 82t81 8q90 0 90 -70q0 -19 -8 -65l-47 -291h180q76 295 235.5 362.5t273.5 67.5z" />
    <glyph glyph-name="afii10097" unicode="&#x44f;" horiz-adv-x="1079" 
d="M584 850q-195 0 -195 -127q0 -51 39.5 -84t120.5 -33h172l27 176q6 34 6 42t-8.5 17t-22.5 9h-139zM817 1044q172 0 172 -141q0 -21 -4 -43l-125 -786q-8 -51 -40 -70.5t-85 -19.5t-76.5 15.5t-23.5 53.5v15q0 8 2 16l53 334h-74q-105 0 -221.5 -153t-146.5 -201
t-45.5 -64t-43.5 -16q-50 0 -92 31t-42 62t22 68q164 252 301 324q-77 22 -130.5 88.5t-53.5 143.5q0 154 121.5 248.5t314.5 94.5h217z" />
    <glyph glyph-name="afii10071" unicode="&#x451;" horiz-adv-x="1008" 
d="M174 94q-102 114 -102 293q0 324 162 501t394 177q232 -1 300 -171q22 -54 22 -128q0 -161 -141 -257q-141 -97 -389 -97h-125q-1 -113 31 -158q59 -85 159 -85q99 0 199 55q46 27 69 27q43 0 72 -28t29 -68t-62 -83q-132 -92 -323 -92q-193 0 -295 114zM737 766
q0 46 -37 80q-36 36 -98 36q-114 0 -189 -80t-104 -212h103q246 0 306 100q18 30 19 76zM836 1485q52 1 88 -37q38 -38 38 -90t-38 -88t-89 -37q-53 1 -89 37t-36 88t37 90t89 37zM442 1485q52 1 90 -37t37 -90q1 -52 -37 -88t-90 -37q-52 1 -88 37t-37 88q0 52 37 90
q36 38 88 37z" />
    <glyph glyph-name="afii10099" unicode="&#x452;" horiz-adv-x="1171" 
d="M461 911q119 154 315 154t240.5 -112.5t44.5 -178.5t-10 -125l-115 -725q-24 -159 -109 -257.5t-284 -98.5q-157 0 -192.5 37.5t-35.5 64.5q0 52 25.5 86.5t65.5 34.5q39 0 77 -10t75 -10q72 0 107 43.5t48 126.5l108 684q6 39 6 77q0 158 -149 158q-144 0 -203 -109.5
t-74 -207.5l-71 -465q-8 -54 -41 -74t-84 -20q-103 0 -103 71q0 14 7 51l167 1063h-94q-76 0 -76 74q0 59 30.5 89t78.5 30h90l14 82q9 52 38.5 72t84.5 20q105 0 105 -72q0 -19 -4 -41l-11 -61h279q76 0 76 -72q0 -59 -30.5 -90t-78.5 -31h-276z" />
    <glyph glyph-name="afii10100" unicode="&#x453;" horiz-adv-x="944" 
d="M564 1065q171 0 257 -83t86 -210t-68 -200q-91 -97 -275 -137q-46 -10 -122 -27q-76 -18 -124 -50q-46 -32 -46 -81t35 -81t105 -32t123 16q54 16 103 44q50 28 82 28t57 -33q26 -33 26 -68q-1 -35 -17 -53t-44 -34q-139 -84 -336 -84t-281 84t-84 198q0 170 127 252
q74 48 152 68t158 36q80 17 124 39q78 41 78 113q0 50 -34 80t-96 31q-62 0 -107 -17t-98 -44t-87 -27t-56 34q-24 33 -24 81t76 85q139 72 310 72zM493 1229q-29 0 -55 30t-26 59t12 48t43 45l183 143q55 43 95 43q41 0 69 -30t28 -74t-57 -86l-201 -143q-28 -20 -44 -28
t-47 -7z" />
    <glyph glyph-name="afii10101" unicode="&#x454;" horiz-adv-x="987" 
d="M303 434q0 -250 203 -250q87 0 178 66q42 31 78 31q36 1 68 -35t32 -71t-30 -69q-62 -72 -200 -108q-69 -18 -149 -18q-199 0 -305 123t-106 317q0 286 144 466q144 179 390 179q150 0 251 -62t101 -129q0 -40 -34 -78t-66 -38t-108 51t-160 51q-83 0 -157 -64t-101 -171
h348q78 0 78 -72q0 -59 -30.5 -89t-78.5 -30h-346z" />
    <glyph glyph-name="afii10102" unicode="&#x455;" horiz-adv-x="950" 
d="M416 -20q-190 0 -322 83q-57 38 -57 83t28 80q28 34 58 34t79 -28q121 -68 218 -68q135 0 167 81q9 23 9 50q0 53 -37 81t-109 47q-162 45 -226 93q-100 76 -101 211q0 239 218 313q75 26 153 25q200 0 318 -76q43 -28 57 -46t14 -41q0 -44 -30 -82t-60 -38q-29 0 -53 14
q-141 84 -225 85q-85 0 -127 -37t-42 -80q0 -69 44 -96q44 -28 119 -48q154 -42 232 -108t78 -182q1 -255 -227 -326q-78 -24 -176 -24z" />
    <glyph glyph-name="afii10103" unicode="&#x456;" horiz-adv-x="518" 
d="M296 1256q-36 35 -36 76q0 68 36 104t76 37q65 0 103 -36q37 -36 37 -77q0 -40 -10 -63t-27 -40q-36 -36 -90 -36q-53 0 -89 35zM350 1061q90 0 90 -70q0 -19 -8 -65l-135 -848q-16 -94 -131 -94q-44 0 -70 14t-26 46q0 31 8 75l135 852q11 74 79 86q22 4 58 4z" />
    <glyph glyph-name="afii10104" unicode="&#x457;" horiz-adv-x="518" 
d="M338 1061q102 -1 102 -59q0 -24 -8 -76l-135 -848q-15 -94 -121 -94t-106 69q0 16 8 66l135 852q7 49 37 69t88 21zM576 1485q52 1 90 -37t37 -90q1 -52 -37 -88t-90 -37q-52 1 -88 37t-37 88q0 52 37 90q36 38 88 37zM184 1485q52 1 88 -37q38 -38 38 -90t-38 -88
t-89 -37q-53 1 -89 37t-36 88t37 90t89 37z" />
    <glyph glyph-name="afii10105" unicode="&#x458;" horiz-adv-x="518" 
d="M338 1061q102 0 102 -62q0 -28 -14 -106l-156 -979q-30 -184 -118 -265t-246 -81q-89 0 -150 26t-61 77t26 85t60 35l119 -20q123 0 145 143l168 1057q7 49 37 69t88 21zM260 1346q0 54 36 90q36 37 90 37t90 -37q36 -38 36 -90t-38 -88t-90 -37t-88 35t-36 90z" />
    <glyph glyph-name="afii10106" unicode="&#x459;" horiz-adv-x="1563" 
d="M829 1044q160 0 160 -137q0 -24 -4 -49l-29 -176h166q287 0 328 -118.5t41 -165.5t-6.5 -87t-34.5 -110.5t-117.5 -135.5t-238.5 -65h-285q-158 0 -158 137q0 42 8 82l82 520q11 55 11 83t-23 28h-158q-36 0 -47 -43l-30 -109q-120 -427 -261 -657q-39 -59 -75 -59
q-62 0 -102 30t-40 54t4.5 37t10 24.5t11.5 21t16 27.5t73.5 128.5t134.5 365.5t110.5 314.5t188.5 59.5h264zM887 221q0 -26 22 -26h148q95 0 147.5 37.5t52.5 113.5t-36 108.5t-131 32.5h-164l-35 -227q-4 -22 -4 -39z" />
    <glyph glyph-name="afii10107" unicode="&#x45a;" horiz-adv-x="1581" 
d="M827 0q-157 0 -157 137q0 29 8 82l41 268h-357l-63 -401q-14 -102 -133 -102q-45 0 -70.5 14.5t-25.5 45.5t8 75l135 858q14 84 125 84q48 0 75 -14t27 -44t-8 -77l-39 -244h357l45 283q9 55 41 75.5t88 20.5q100 0 100 -64q0 -6 -8 -57l-39 -258h164q193 0 280.5 -82.5
t87.5 -214.5t-88 -258.5t-309 -126.5h-285zM905 221q0 -26 23 -26h147q95 0 148 37.5t53 113.5t-37 108.5t-131 32.5h-164l-35 -227q-4 -22 -4 -39z" />
    <glyph glyph-name="afii10108" unicode="&#x45b;" horiz-adv-x="1171" 
d="M461 911q119 154 315 154t240.5 -112.5t44.5 -178.5t-10 -125l-90 -571q-10 -54 -40 -74t-81 -20q-107 0 -107 71q0 11 6 51l82 519q6 39 6 77q0 158 -149 158q-144 0 -203 -109.5t-74 -207.5l-71 -465q-8 -54 -41 -74t-84 -20q-103 0 -103 71q0 14 7 51l167 1063h-94
q-76 0 -76 74q0 59 30.5 89t78.5 30h90l14 82q9 52 38.5 72t84.5 20q105 0 105 -72q0 -19 -4 -41l-11 -61h279q76 0 76 -72q0 -59 -30.5 -90t-78.5 -31h-276z" />
    <glyph glyph-name="afii10109" unicode="&#x45c;" horiz-adv-x="958" 
d="M894 1063q35 -1 69 -31t34 -68t-36 -85q-65 -87 -181 -181t-231 -161q84 -77 155 -175q72 -98 112 -172t40 -118t-38 -67t-79 -23q-43 0 -59 16t-50 83t-110 175q-78 108 -160 188l-57 -366q-14 -94 -131 -94q-42 0 -69 18t-27 42q0 25 4 48l141 879q9 53 42 71t81 19
t77 -13q28 -14 28 -55q0 -8 -9 -61l-49 -283q105 60 215 157q110 98 166 166t71 80q16 12 51 11zM554 1229q-30 0 -56 30t-25 59q-1 29 11 48t44 45l183 143q55 43 95 43t68 -30t29 -74q0 -44 -57 -86l-201 -143q-29 -20 -45 -28t-46 -7z" />
    <glyph glyph-name="afii10110" unicode="&#x45e;" horiz-adv-x="1036" 
d="M119 967q0 94 122 94q56 -1 74 -23t23 -86q12 -155 51 -349t90 -347q204 303 357 723q22 65 55 77q13 6 35 5q50 0 90 -24q39 -24 39 -64q0 -107 -186 -469q-187 -362 -417 -648q-162 -202 -302 -259q-72 -29 -154 -29q-162 0 -162 104q0 80 56 112q17 10 34 9
q17 0 37 -7t45 -7q126 0 324 270q-114 245 -179 609q-32 178 -32 309zM628 1233q-118 1 -211 73t-93 154q0 32 30 60t68 28q40 0 70 -51q54 -90 138 -90t136 94q26 47 67 47t70 -28t29 -60q0 -84 -92 -156q-94 -72 -212 -71z" />
    <glyph glyph-name="afii10193" unicode="&#x45f;" horiz-adv-x="1145" 
d="M797 -16q-107 0 -107 69q0 13 4 33l8 47q-39 -53 -108 -98q-19 -13 -25 -39l-32 -191q-8 -49 -35 -70.5t-90 -21.5q-99 0 -99 70q0 16 9 63l14 84q4 20 4 31q0 21 -39 30q-88 22 -143.5 97t-55.5 195q0 48 11 112l90 572q9 54 39.5 74t81.5 20q106 0 106 -72v-8l-88 -561
q-8 -53 -8 -78q0 -158 151 -158q141 0 201.5 111t75.5 207l72 465q8 54 40.5 74t83.5 20q103 0 103 -72q0 -13 -6 -51l-137 -864q-8 -54 -38.5 -72t-82.5 -18z" />
    <glyph glyph-name="afii10050" unicode="&#x490;" horiz-adv-x="1042" 
d="M862 1180h-327q-34 0 -41 -39l-168 -1057q-10 -56 -40 -78t-84 -22t-81 15.5t-27 57.5q0 9 4 33t6.5 40t4.5 28l163 1044q31 191 226 191h327q34 0 41 39l37 210q9 56 39.5 78.5t84.5 22.5t81 -16t27 -48t-7 -59l-41 -250q-14 -87 -68 -138.5t-157 -51.5z" />
    <glyph glyph-name="afii10098" unicode="&#x491;" horiz-adv-x="938" 
d="M735 850h-278q-35 0 -41 -35l-119 -731q-9 -56 -39.5 -78t-84.5 -22t-78.5 15.5t-24.5 57.5q0 9 6 49l119 748q31 190 221 190h286q34 0 41 39l29 185q8 49 38 69.5t85 20.5t79.5 -16t24.5 -40t-6 -65l-30 -205q-14 -88 -75.5 -135t-152.5 -47z" />
    <glyph glyph-name="figuredash" unicode="&#x2012;" horiz-adv-x="1032" 
d="M844 424h-656q-110 0 -110 96t110 96h656q110 0 110 -96t-110 -96z" />
    <glyph glyph-name="endash" unicode="&#x2013;" horiz-adv-x="999" 
d="M846 451h-678q-53 0 -76.5 19.5t-23.5 69.5t25.5 82.5t74.5 32.5h676q100 0 100 -82q0 -56 -25 -89t-73 -33z" />
    <glyph glyph-name="emdash" unicode="&#x2014;" horiz-adv-x="1602" 
d="M1446 655q100 0 100 -82q0 -56 -25 -89t-73 -33h-1280q-53 0 -76.5 19.5t-23.5 69.5t25.5 82.5t74.5 32.5h1278z" />
    <glyph glyph-name="emdash" unicode="&#x2015;" horiz-adv-x="1602" 
d="M1446 655q100 0 100 -82q0 -56 -25 -89t-73 -33h-1280q-53 0 -76.5 19.5t-23.5 69.5t25.5 82.5t74.5 32.5h1278z" />
    <glyph glyph-name="quoteleft" unicode="&#x2018;" horiz-adv-x="432" 
d="M365 1411q42 0 69 -23.5t27 -53.5t-9 -51q-65 -162 -65 -300q0 -49 -27 -77.5t-81 -28.5q-107 -1 -107 113t56.5 267.5t136.5 153.5z" />
    <glyph glyph-name="quoteright" unicode="&#x2019;" horiz-adv-x="432" 
d="M264 874q-42 0 -69 23.5t-27 56.5t24 89q50 120 50 260q0 49 27 77.5t81 28.5q107 -1 107 -115t-57 -267t-136 -153z" />
    <glyph glyph-name="quotesinglbase" unicode="&#x201a;" horiz-adv-x="440" 
d="M92 -260q-42 0 -69 23t-27 53t22 86q52 137 52 266q0 49 27 77.5t81 28.5q108 0 107 -114q0 -114 -56.5 -267t-136.5 -153z" />
    <glyph glyph-name="quotedblleft" unicode="&#x201c;" horiz-adv-x="825" 
d="M752 1411q42 0 69 -23.5t27 -55.5t-37 -124q-37 -94 -37 -225q0 -49 -27 -77.5t-81 -28.5q-107 -1 -107 113t56.5 267.5t136.5 153.5zM358 1411q43 0 70 -23.5t27 -53.5t-9 -51q-65 -162 -65 -300q0 -49 -27 -77.5t-81 -28.5q-107 0 -107 114t56.5 267t135.5 153z" />
    <glyph glyph-name="quotedblright" unicode="&#x201d;" horiz-adv-x="825" 
d="M270 874q-42 0 -69 23.5t-27 56.5t24 89q50 120 50 260q0 49 27 77.5t81 28.5q107 -1 107 -115t-57 -267t-136 -153zM664 874q-43 0 -70 23t-27 53q-1 30 21 85q52 134 53 268q0 49 27 77.5t81 28.5q107 -1 107 -115t-57 -267t-135 -153z" />
    <glyph glyph-name="quotedblbase" unicode="&#x201e;" horiz-adv-x="813" 
d="M74 -260q-43 0 -70 23t-27 53t9 52q65 162 65 300q0 49 27.5 77.5t81.5 28.5t80 -26.5t26 -113.5t-56.5 -240.5t-135.5 -153.5zM467 -260q-42 0 -69 23t-27 53q-1 30 21 86q52 135 52 266q0 49 27 77.5t81 28.5t80.5 -26.5t26.5 -113.5t-56.5 -240.5t-135.5 -153.5z" />
    </font>
</defs>
</svg>
